<svg id="th_color" xmlns="http://www.w3.org/2000/svg" viewBox="0 0 195 130"><defs><style>.cls-1{fill:#90c0f0;}.cls-2{fill:#e8e8e8;}.cls-3{fill:#bcbcbc;}</style></defs><rect id="h" class="cls-1" x="49" y="87" width="47" height="3"/><path class="cls-2" d="M30.81,40.2c0-5,2.8-7.5,8.39-7.5s8.39,2.51,8.39,7.5a23.69,23.69,0,0,1-3.36,12.29,28.77,28.77,0,0,1-8.09,9L32,59A20.61,20.61,0,0,0,35.25,48.3a9.84,9.84,0,0,0-.1-1.48,5.82,5.82,0,0,1-3.1-2.42A7.28,7.28,0,0,1,30.81,40.2Zm21.41,0c0-5,2.8-7.5,8.39-7.5S69,35.21,69,40.2a23.78,23.78,0,0,1-3.35,12.29,28.92,28.92,0,0,1-8.1,9L53.41,59A20.63,20.63,0,0,0,56.67,48.3a11.36,11.36,0,0,0-.1-1.48,5.85,5.85,0,0,1-3.11-2.42A7.28,7.28,0,0,1,52.22,40.2Z"/><rect id="p" class="cls-3" x="49" y="49" width="115" height="2"/><rect id="p-2" data-name="p" class="cls-3" x="49" y="57" width="115" height="2"/><rect id="p-3" data-name="p" class="cls-3" x="49" y="65" width="115" height="2"/><rect id="p-4" data-name="p" class="cls-3" x="49" y="73" width="67" height="2"/></svg>