<svg id="th_color" xmlns="http://www.w3.org/2000/svg" viewBox="0 0 195 130"><defs><style>.cls-1{fill:#c6c8ce;}.cls-2{fill:#74767f;}.cls-3{fill:#bcbcbc;}</style></defs><rect id="bg" class="cls-1" x="29" y="19" width="69.93" height="56"/><rect id="bg-2" data-name="bg" class="cls-1" x="105" y="19" width="19" height="18"/><rect id="h" class="cls-2" x="29" y="82" width="58" height="3"/><rect id="p" class="cls-3" x="29" y="93" width="65" height="2"/><rect id="p-2" data-name="p" class="cls-3" x="29" y="100" width="65" height="2"/><rect id="p-3" data-name="p" class="cls-3" x="29" y="107" width="42" height="2"/><rect id="p-4" data-name="p" class="cls-3" x="127" y="24" width="36" height="2" transform="translate(290 50) rotate(180)"/><rect id="p-5" data-name="p" class="cls-3" x="127" y="29" width="24" height="2" transform="translate(278 60) rotate(180)"/><rect id="bg-3" data-name="bg" class="cls-1" x="105" y="43" width="19" height="18"/><rect id="p-6" data-name="p" class="cls-3" x="127" y="48" width="36" height="2" transform="translate(290 98) rotate(180)"/><rect id="p-7" data-name="p" class="cls-3" x="127" y="53" width="24" height="2" transform="translate(278 108) rotate(180)"/><rect id="bg-4" data-name="bg" class="cls-1" x="105" y="67" width="19" height="18"/><rect id="p-8" data-name="p" class="cls-3" x="127" y="72" width="36" height="2" transform="translate(290 146) rotate(180)"/><rect id="p-9" data-name="p" class="cls-3" x="127" y="77" width="24" height="2" transform="translate(278 156) rotate(180)"/><rect id="bg-5" data-name="bg" class="cls-1" x="105" y="91" width="19" height="18"/><rect id="p-10" data-name="p" class="cls-3" x="127" y="96" width="36" height="2" transform="translate(290 194) rotate(180)"/><rect id="p-11" data-name="p" class="cls-3" x="127" y="101" width="24" height="2" transform="translate(278 204) rotate(180)"/></svg>