<svg id="th_color" xmlns="http://www.w3.org/2000/svg" viewBox="0 0 195 130"><defs><style>.cls-1{fill:#bcbcbc;}.cls-2,.cls-3{fill:none;stroke-width:4px;}.cls-2{stroke:#e6e6e6;}.cls-3{stroke:#90c0f0;}.cls-4{fill:#74767f;}</style></defs><rect id="p" class="cls-1" x="62.5" y="106" width="70" height="2"/><circle class="cls-2" cx="97.5" cy="60" r="30.5"/><path class="cls-3" d="M73.4,78.69A30.5,30.5,0,1,0,97.5,29.5"/><path class="cls-4" d="M94.57,52.82a5.75,5.75,0,0,1,0,6.87,4.47,4.47,0,0,1-6.24,0,4.91,4.91,0,0,1-1.15-3.45,4.86,4.86,0,0,1,1.15-3.43,4,4,0,0,1,3.12-1.25A4,4,0,0,1,94.57,52.82Zm-4.64,1.39a3.31,3.31,0,0,0-.55,2,3.38,3.38,0,0,0,.55,2.06,1.93,1.93,0,0,0,3,0,3.45,3.45,0,0,0,.55-2.06,3.31,3.31,0,0,0-.56-2,1.8,1.8,0,0,0-1.52-.73A1.78,1.78,0,0,0,89.93,54.21Zm11.9-2.58h2.45L93.06,67.22h-2.5Zm4.85,7.52a4.88,4.88,0,0,1,1.14,3.41A5,5,0,0,1,106.68,66a4,4,0,0,1-3.11,1.26A4,4,0,0,1,100.44,66a5,5,0,0,1-1.15-3.46,4.87,4.87,0,0,1,1.15-3.43,4,4,0,0,1,3.13-1.24A4,4,0,0,1,106.68,59.15ZM102,60.54a3.34,3.34,0,0,0-.54,2,3.43,3.43,0,0,0,.54,2.06,1.79,1.79,0,0,0,1.53.75,1.77,1.77,0,0,0,1.52-.75,3.36,3.36,0,0,0,.55-2.06,3.28,3.28,0,0,0-.56-2,1.93,1.93,0,0,0-3,0Z"/></svg>