<svg id="th_color" xmlns="http://www.w3.org/2000/svg" viewBox="0 0 195 130"><defs><style>.cls-1,.cls-6{fill:#90c0f0;}.cls-2{fill:#e8e8e8;}.cls-3{fill:#74767f;}.cls-4{fill:#bcbcbc;}.cls-5,.cls-6{font-size:12px;font-family:Lato-Bold, Lato;font-weight:700;}</style></defs><rect id="h" class="cls-1" x="54" y="48" width="83" height="3"/><rect id="h-2" data-name="h" class="cls-2" x="24" y="26" width="1" height="77" transform="translate(49 129) rotate(180)"/><rect id="h-3" data-name="h" class="cls-3" x="54" y="33" width="47" height="3"/><rect id="h-4" data-name="h" class="cls-3" x="54" y="95" width="47" height="3"/><rect id="p" class="cls-4" x="54" y="57" width="115" height="2"/><rect id="p-2" data-name="p" class="cls-4" x="54" y="65" width="115" height="2"/><rect id="p-3" data-name="p" class="cls-4" x="54" y="73" width="115" height="2"/><rect id="p-4" data-name="p" class="cls-4" x="54" y="81" width="61" height="2"/><text class="cls-5" transform="translate(35.33 37.83)">1</text><text class="cls-6" transform="translate(35.33 52.83)">2</text><text class="cls-5" transform="translate(35.33 99.83)">3</text><rect id="h-5" data-name="h" class="cls-1" x="24" y="42" width="2" height="45" transform="translate(50 129) rotate(180)"/><rect id="p-5" data-name="p" class="cls-2" x="166" y="34" width="5" height="1" transform="translate(337 69) rotate(180)"/><rect id="p-6" data-name="p" class="cls-2" x="166" y="34" width="5" height="1" transform="translate(134 203) rotate(-90)"/><rect id="p-7" data-name="p" class="cls-2" x="166" y="96" width="5" height="1" transform="translate(337 193) rotate(180)"/><rect id="p-8" data-name="p" class="cls-2" x="166" y="96" width="5" height="1" transform="translate(72 265) rotate(-90)"/><rect id="p-9" data-name="p" class="cls-2" x="166" y="49" width="5" height="1" transform="translate(337 99) rotate(180)"/></svg>