<svg id="th_color" xmlns="http://www.w3.org/2000/svg" xmlns:xlink="http://www.w3.org/1999/xlink" viewBox="0 0 195 130"><defs><style>.cls-1{fill:none;}.cls-2{clip-path:url(#clip-path);}.cls-3{fill:#f4f4f4;}.cls-4{fill:#e2e2e2;}.cls-5{fill:#ededed;}.cls-6{fill:#e8e8e8;}.cls-7{fill:#fff;}.cls-8{fill:#bfbfbf;}.cls-9{fill:#efefef;}.cls-10{opacity:0.2;}.cls-11{fill:#90c0f0;}.cls-12{opacity:0.15;}</style><clipPath id="clip-path"><rect id="bg" class="cls-1" x="42" y="27" width="111" height="76"/></clipPath></defs><g class="cls-2"><rect class="cls-3" x="23.56" y="18.95" width="155.19" height="98.08"/><polygon class="cls-4" points="74.3 53.42 79.29 55.92 83.03 60.91 85.53 65.9 86.77 74.63 88.02 82.11 99.25 77.12 96.75 70.89 104.67 67.5 102.99 60.91 102.38 51.51 102.22 47.81 104.86 47.81 103.61 30.35 89.27 27.24 88.02 32.22 83.03 40.95 78.93 46.81 74.3 53.42"/><polygon class="cls-5" points="47.15 57.19 34.72 73.24 40.14 77.69 41.08 81.17 56.74 93.1 70.8 85.26 72.5 84.6 71.08 73.11 68.08 65.34 59.74 59 57.22 59.42 55.93 61.55 52.16 59.66 47.15 57.19"/><path class="cls-6" d="M89.42,60.82c2.21,2.32-2.43,4.91-.66,6s3,0,3.87,0,1.35,1.47,2.31,1.73,4.71-.81,3.9-3.3-3.55-3.39-4.46-3.69-2.53-1.83-1-3.5-4.68-1.72-5.3.56S88.4,59.75,89.42,60.82Z"/><path class="cls-6" d="M96.11,59.47c1.24,1.29,2.29-.2,3.14-1.13s-3.54-1.36-3.89-.09S95.55,58.88,96.11,59.47Z"/><path class="cls-5" d="M135.21,80.75c-1.9,1.29-.94,5.42-.24,6.71a7.22,7.22,0,0,0,3.66,3.07c1.41.47,4.36.23,5.89,0a6.86,6.86,0,0,1,3.65.27c1.77.43,8.48,1.75,8.6-1.56s.23-4.84-1.3-5.55a6.08,6.08,0,0,1-3.53-3.3c-.59-1.64-5.66-2-7.31,0s-5.77,3.27-6.47,1.72S137.11,79.45,135.21,80.75Z"/><path class="cls-7" d="M72.2,17.66,119.7,19l-4.4,13.27-10.9-2.4,1.94-13.2-1.4-.21L103,29.54l-3.37-.74v0l-9.41-2.05,3.09-7.92L92,18.29l-3.11,8L82.5,23l6-6.65-1-.95-6.3,6.93-9-4.63L62.15,34.32l-3.59,5.24L57,41.87l-32.2-21.5L24,21.54,56.14,43,50.53,51.1l-4.92-3.74v0L23.74,32.1l-.81,1.16L44.72,48.5,26.6,71.7l5,4.24-8.72,9.59,1.05,1,8.74-9.63L53.39,94.48c-2.12,1.43-3.67,2.54-3.82,2.64L25.07,118.5l.93,1.07L50.42,98.25c.24-.16,1.9-1.34,4.09-2.82l7.79,6.63A1.42,1.42,0,0,0,62,103a1.2,1.2,0,0,0,.82,1l.4-1.11L70,108.64l-5,3-15.79,8.18.22.42L65.23,112l5.19-3,4.83,4.1-.86-6.42.57-.34,2.56,18.5L94,115.22l.88,5.29L87,125.33l.74,1.2,22.49-13.86L112,123.78l1.4-.22-1.79-11.7,5.45-3.35a1.9,1.9,0,0,0,.8.37l3,18,1.39-.23-3-18a2,2,0,0,0,.33-.24l11.67,11.67-1.38-13.58,4.84-.49-.38-5.12,27.08-2.41,1.29,20.61,1.41-.09-1.29-20.63,15.78-.89-.08-1.41L162.69,97v0h0L158.9,65.34l19.64-.5,0-1.41-19.73.5L158.4,56c10.12-.54,19.32-1.07,20.14-1.11l0-.47c-.2,0-9.68.55-20.14,1.1L158,47.27h20.54V45.86H158.07l1.65-9.64h18.8V34.8H159.83V21h-1.41V34.76l-26.49-1.49.18-12.71-1.42,0-.17,12.65-4.62-.25,1-13.62-5.78-.87L121,15l-.27.82M71.79,73,68.66,64.9l-1.9-1.44,7.72-9.15,4.32,2.15,6,9.68,1,7.08.27,1.69a1.92,1.92,0,0,0-.84,1.59s0,0,0,0l-3.23,1.82c-.08,0-4.39,2.39-9,4.88ZM112,48.1l1.54,18.32.06.64-4.23.31c-1-6-2.31-13.37-2.53-14.65l-.49-4.38Zm45.51,17.29.54,4.53c-6.08,0-16.34.61-25.93,1.15l-.29-3.9C142.59,66.39,153.87,65.6,157.48,65.39ZM110.35,93.54l-1.47.74-.64-4.17,1.84-.48C110.2,91.4,110.3,92.83,110.35,93.54ZM119.78,68l.31,3.71c-1.75.1-3.3.17-4.62.22l-.35-3.59Zm1.35-20.33,2.68-.11,1,18.66-3.64.27Zm3.72,20,.23,3.8-3.57.2-.32-3.74Zm5.55-.4.28,3.88-1.09.07-3.1.17-.23-3.83Zm-19.85,8c0-.19-.07-.78-.2-1.64a14.81,14.81,0,0,1,2-.15l1.86,0,.35,3.55c-.9,0-1.65.06-2.21.06a13.57,13.57,0,0,0-1.69.11C110.59,76.14,110.55,75.45,110.55,75.25Zm5.06-1.88c1.32-.05,2.87-.12,4.6-.22l.3,3.5c-1.7.1-3.24.2-4.55.26Zm-3.27,5.08c.59,0,1.39,0,2.35-.06l.91,9.32-4.16,1.09c-.25-3.59-.53-7.52-.7-10.24A12.29,12.29,0,0,1,112.34,78.45Zm3.76-.13,4.52-.26.64,8.17L117,87.35Zm5.82-1.76-.3-3.48,3.55-.2.21,3.45ZM114.06,72l-1.72,0a16.55,16.55,0,0,0-2.21.16c-.15-1-.34-2.17-.56-3.44l4.14-.3Zm-5.32.43a24.68,24.68,0,0,0-2.78.76l-.49-4.87,2.67.4C108.37,70.15,108.58,71.42,108.74,72.45Zm-4.68-3.92.53,5.17a35.86,35.86,0,0,0-5.68,2.8L88.54,81.11l-.46-2.88a1.93,1.93,0,0,0,1.08-1.73A2.52,2.52,0,0,0,89.1,76l8-4.5Zm-4.53,9.24.09,0a34.07,34.07,0,0,1,5.12-2.55l.37,3.62a28.85,28.85,0,0,0-5.62,3.34L89.79,87l-1-4.44Zm6.58-3.11a25.39,25.39,0,0,1,2.85-.81c.11.75.18,1.25.18,1.4s0,1,.11,2.14a20.81,20.81,0,0,0-2.78.83Zm3.23,4.16c.19,3,.48,7.11.7,10.34l-1.87.48-1.52-10A19.2,19.2,0,0,1,109.34,78.82Zm6.31,9.36.74,7.55-3.34.29-1.26-2.27c-.1-1.3-.21-2.84-.32-4.48Zm.88,9,.38,3.87-1,.09-2.07-3.73Zm1.41-.12,4.13-.35.3,3.85-4.05.36Zm-.14-1.41L117,87.82l4.25-1.12.67,8.56Zm4.88-9.27,3.59-1,1,9.44-3.86.33Zm3.54-1.45-3.57,1L122,78l3.46-.22Zm.57-8.66-.21-3.43,3.09-.17,1.12-.07.25,3.38L129.7,76Zm5.41-3.75c9.64-.54,20-1.11,26-1.15l.37,3.14c-6,0-16.39.72-26.12,1.38Zm-1.86-6.63-4.16.3-1-18.63,5.12-.22Zm-9.19-19.56.33-12.19,2.92.17-.59,11.9Zm-1.42.06-6.1.26,2.71-12.8,3.73.21Zm0,1.41V66.62L115,67l-.06-.67L113.38,48Zm-14.31,5.16c.77,4.36,1.73,9.88,2.48,14.36l-2.66-.41-1.54-6.07-.6-9.32-.13-3,2-.09Zm-3.89-5,.15,3.66.61,9.4,1.56,6.14-7.37,3.15-8.21,4.63a1.94,1.94,0,0,0-.75-.28L87.26,73l-1.05-7.36L79.78,55.38l-4.46-2.23L88.61,32.61l.07-.1,1.11-4.44L98.41,30ZM87.36,31.94,74.08,52.46l-7-4.34,14.58-24,6.83,3.51ZM71.91,85.46l1.55,10.13-.52.28L71.57,85.65Zm1.33-.71c4.82-2.58,9.43-5.1,9.52-5.14l3.09-1.75a2,2,0,0,0,.82.48l.55,3.45-5.77,3.62.76,1.2,5.31-3.35,1,4.37-3.93,2c-.08,0-4.86,2.66-9.78,5.29Zm12,6.1,3.58-1.79,1.83,8.2-11,5.79-3.39,2L75,96.37C80.08,93.65,85.15,90.89,85.22,90.85Zm4.89-2.45,10.07-5,.13-.08a29.29,29.29,0,0,1,5-3L106.79,90l-4.62,1.2L91.92,96.58Zm12.2,3.25,4.55-1.18.69,4.48-14.38,7.26L92,97.05Zm5.46,4.77,1.28,8.35L95,113l-1.56-9.31Zm1.33-.67,1.7-.86,3.72,6.69L110.36,104Zm8,6.66.1,1-.53-1Zm2.92,3.64a2,2,0,0,0-1.24-1l-.27-2.75,4-.36.3,3.84Zm2.91,1.13.22,2.77-2.54-2.54Zm1-5.38,4-.35.39,3.77-4.11.41Zm-.11-1.41-.3-3.84,3.9-.34.39,3.83Zm5-4.3,3.71-.37.29,3.87-3.61.32Zm-.14-1.41-1.74-17,2.9-.2,1.34-.09,1.25,17Zm3.91-17.42c9.79-.67,20.24-1.35,26.18-1.38l1.86,15.66L133.8,94.17ZM157.36,64c-3.68.22-14.88,1-25.61,1.77V57.13H132c3.65,0,14.62-.53,25-1.07Zm-25.61-7.32V47.27h24.81l.4,8.32C146.32,56.15,135.07,56.68,131.75,56.66Zm26.54-20.49-1.65,9.69H131.76l.16-11.17Zm-27.94,9.72-5.13.22.59-11.76,4.69.26Zm-5-25.37-.9,12.34-3-.17-.33-12.81Zm-5.57,2.59.25,9.5-3.34-.19Zm-4.91,10.62-2.74,13-6,.25L104.43,31.3l10.42,2.3,0,.13ZM103,31l1.78,16-1.94.08L99.91,30.3ZM59.72,40.36l3.62-5.28,9.42-15.55,7.6,3.92L65.83,47.37l-7.69-4.74Zm-2.39,3.43,15.9,9.81-7.59,9L51.65,52ZM45.87,49.33l3.85,2.93-3.13,4.49-12.42,16-1.66,2.06-4-3.36ZM33.58,75.78l1.7-2.11L47.73,57.59l3.11-4.47L67.49,65.79l2.9,7.49L71.71,84c-3.22,1.72-6.42,3.42-8.32,4.37a91.94,91.94,0,0,0-8.78,5.32ZM64,89.6c1.48-.74,3.76-1.94,6.22-3.24l1.37,10.22c-2.27,1.2-4.35,2.29-5.73,3a18.14,18.14,0,0,0-2.57,1.5l-7.58-6.44A87.84,87.84,0,0,1,64,89.6ZM64.43,102a18.25,18.25,0,0,1,2.08-1.19c1.3-.64,3.2-1.64,5.3-2.75L73,106.91l-1.66,1Zm8.93,7.6-1.64-1.4,1.34-.79Zm1-3.47-1.18-8.78.54-.28,1.21,8.73Zm4.31,16.39-2.35-17,3.55-2.08,10.9-5.73L92,103.38l1.72,10.35Zm17.51-2.82-.88-5.25,14-8.18.74,4.87Zm14.45-14.2,4.62-2.69,1.5,2.7,0,.08a2,2,0,0,0-.53,1.34,2.21,2.21,0,0,0,0,.37l-4.93,3Zm18.82,10.75-4.78-4.77-.34-4.45,4.14-.41Zm3.75-11.53-3.47.35-.38-3.76,3.57-.32Zm.74-9.15L160.75,93l.49,4.11-27.05,2.41Z"/><path class="cls-8" d="M24.49,78.39l-2.31-1.64,4.28-6L44.67,47.42c2-2.36,7.47-9.31,7.91-13.13.57-5,.58-7.32.58-7.34H56a76.4,76.4,0,0,1-.6,7.66c-.62,5.34-7.63,13.57-8.56,14.64L28.71,72.44Z"/><path class="cls-8" d="M84.6,119.21c-1.28-9.91-2-15.94-2.46-20.33-.32-2.85-.57-5.09-.86-7.27-1-7.81-3-12.78-6.59-16.61C72,72.11,67.8,67.2,67.1,66.38l-3.75-2.86c-2.85-2.17-4.91-3.74-6.45-13.09-.23-1.43-4.64-29-4.69-29.25l2.8-.45c0,.28,4.45,27.82,4.68,29.24,1.35,8.25,2.78,9.33,5.37,11.3l4,3,.1.12c0,.06,4.7,5.54,7.59,8.64,4,4.23,6.22,9.84,7.33,18.17.29,2.21.55,4.46.87,7.32.5,4.39,1.18,10.4,2.45,20.29Z"/><path class="cls-9" d="M84.48,98.61c-.32-2.85-.58-5.11-.87-7.31-1.09-8.23-3.32-13.75-7.2-17.91-2.9-3.11-7.57-8.6-7.61-8.66l-4-3.08c-2.59-2-4.16-3.17-5.54-11.61-.24-1.41-4.64-29-4.69-29.24l-1.86.3c0,.08.4,2.52,1,5.95,0,.51-.07,2.88-.58,7.29-.55,4.76-7.95,13.3-8,13.39L26.81,71.05l-4.24,6,1.53,1.09,4.22-5.93L46.47,49c.49-.57,7.59-8.84,8.41-14.12,1.16,7.25,2.37,14.79,2.49,15.52,1.5,9.17,3.39,10.61,6.26,12.8L67.43,66c.58.69,4.86,5.71,7.6,8.65,3.65,3.9,5.66,8.95,6.71,16.87.29,2.18.55,4.43.87,7.27.5,4.4,1.18,10.42,2.46,20.33l1.87-.24C85.66,109,85,103,84.48,98.61Z"/></g><path class="cls-10" d="M113.32,69.15C111,70.86,100.57,72.89,97.81,75c2.76-2.06-2.19-4.19.09-5.9s7.58-3.08,11.84-3S115.6,67.44,113.32,69.15Z"/><path class="cls-11" d="M106,58.5c0,4.69-8.5,10.39-8.5,16.06,0-5.67-8.5-11.37-8.5-16.06a8.5,8.5,0,0,1,17,0Z"/><circle class="cls-12" cx="97.5" cy="58.5" r="3.5"/></svg>