<svg id="th_color" xmlns="http://www.w3.org/2000/svg" viewBox="0 0 195 130"><defs><style>.cls-1{fill:#c6c8ce;}.cls-2{fill:#74767f;}.cls-3{fill:#bcbcbc;}.cls-4{fill:#fff;}</style></defs><rect id="bg" class="cls-1" x="13" y="22" width="87" height="84"/><rect id="h" class="cls-2" x="110" y="47" width="47" height="3"/><rect id="p" class="cls-3" x="110" y="59" width="68" height="2"/><rect id="p-2" data-name="p" class="cls-3" x="110" y="67" width="68" height="2"/><rect id="p-3" data-name="p" class="cls-3" x="110" y="75" width="68" height="2"/><rect id="p-4" data-name="p" class="cls-3" x="110" y="83" width="43" height="2"/><rect id="bg-2" data-name="bg" class="cls-2" x="24" y="50" width="11" height="10"/><rect id="bg-3" data-name="bg" class="cls-2" x="24" y="60" width="11" height="10"/><rect id="bg-4" data-name="bg" class="cls-2" x="24" y="70" width="11" height="10"/><rect id="h-2" data-name="h" class="cls-4" x="27" y="64" width="5" height="2"/><rect class="cls-4" x="28.71" y="53.91" width="3" height="1" transform="translate(13.09 114.25) rotate(-135)"/><rect class="cls-4" x="27.29" y="53.91" width="3" height="1" transform="translate(-30.04 36.3) rotate(-45)"/><rect class="cls-4" x="27.29" y="74.09" width="3" height="1" transform="translate(61.17 1.49) rotate(45)"/><rect class="cls-4" x="28.71" y="74.09" width="3" height="1" transform="translate(104.31 105.97) rotate(135)"/></svg>