<svg id="th_color" xmlns="http://www.w3.org/2000/svg" viewBox="0 0 195 130"><defs><style>.cls-1{fill:#c6c8ce;}.cls-2{fill:#f9f9f9;}.cls-3{fill:#74767f;}.cls-4{fill:#bcbcbc;}.cls-5{fill:#e8e8e8;}</style></defs><rect id="bg" class="cls-1" x="17" y="43" width="41" height="43"/><rect id="bg-2" data-name="bg" class="cls-2" x="133" y="43" width="45" height="43"/><rect id="h" class="cls-3" x="66" y="49" width="32" height="3"/><rect id="p" class="cls-4" x="66" y="61" width="55" height="2"/><rect id="p-2" data-name="p" class="cls-4" x="66" y="69" width="55" height="2"/><rect id="p-3" data-name="p" class="cls-4" x="66" y="77" width="39" height="2"/><path class="cls-5" d="M137.81,51.72c0-1.6.89-2.4,2.68-2.4s2.68.8,2.68,2.4a7.54,7.54,0,0,1-1.08,3.92,9.26,9.26,0,0,1-2.58,2.88l-1.32-.82a6.61,6.61,0,0,0,1-3.4,3.38,3.38,0,0,0,0-.47,1.87,1.87,0,0,1-1-.78A2.25,2.25,0,0,1,137.81,51.72Zm6.84,0q0-2.4,2.67-2.4c1.79,0,2.68.8,2.68,2.4a7.63,7.63,0,0,1-1.07,3.92,9.38,9.38,0,0,1-2.58,2.88L145,57.7a6.51,6.51,0,0,0,1-3.4,3.38,3.38,0,0,0,0-.47,1.87,1.87,0,0,1-1-.78A2.31,2.31,0,0,1,144.65,51.72Z"/><rect id="p-4" data-name="p" class="cls-4" x="141" y="53" width="28" height="2"/><rect id="p-5" data-name="p" class="cls-4" x="141" y="59" width="28" height="2"/><rect id="p-6" data-name="p" class="cls-4" x="141" y="65" width="21" height="2"/><rect class="cls-5" x="141" y="73" width="5" height="5"/><rect class="cls-5" x="149" y="73" width="5" height="5"/><rect class="cls-5" x="157" y="73" width="5" height="5"/></svg>