<svg id="th_color" xmlns="http://www.w3.org/2000/svg" viewBox="0 0 195 130"><defs><style>.cls-1{fill:#e8e8e8;}.cls-2,.cls-5{fill:#90c0f0;}.cls-3{fill:#bcbcbc;}.cls-4,.cls-6{fill:#fff;}.cls-5,.cls-6{font-size:11.78px;font-family:Montserrat-Medium, Montserrat;font-weight:500;}</style></defs><g id="bg"><path class="cls-1" d="M172,25v79H129V25h43m2-2H127v83h47V23Z"/></g><rect id="bg-2" data-name="bg" class="cls-2" x="74" y="23" width="47" height="83"/><g id="bg-3" data-name="bg"><path class="cls-1" d="M66,25v79H23V25H66m2-2H21v83H68V23Z"/></g><rect id="p" class="cls-3" x="31" y="62" width="27" height="2"/><rect id="p-2" data-name="p" class="cls-3" x="31" y="70" width="27" height="2"/><rect id="p-3" data-name="p" class="cls-3" x="37" y="78" width="15" height="2"/><rect id="p-4" data-name="p" class="cls-4" x="84" y="62" width="27" height="2"/><rect id="p-5" data-name="p" class="cls-4" x="84" y="70" width="27" height="2"/><rect id="p-6" data-name="p" class="cls-4" x="90" y="78" width="15" height="2"/><rect id="p-7" data-name="p" class="cls-3" x="137" y="62" width="27" height="2"/><rect id="p-8" data-name="p" class="cls-3" x="137" y="70" width="27" height="2"/><rect id="p-9" data-name="p" class="cls-3" x="143" y="78" width="15" height="2"/><text class="cls-5" transform="translate(40.48 49.96)">9</text><text class="cls-6" transform="translate(90.48 49.96)">29</text><text class="cls-5" transform="translate(143.1 49.96)">59</text><rect id="p-10" data-name="p" class="cls-2" x="34" y="87" width="22" height="5"/><rect id="p-11" data-name="p" class="cls-4" x="87" y="87" width="22" height="5"/><rect id="p-12" data-name="p" class="cls-2" x="140" y="87" width="22" height="5"/></svg>