<svg id="th_color" xmlns="http://www.w3.org/2000/svg" viewBox="0 0 195 130"><defs><style>.cls-1,.cls-4{fill:#fff;}.cls-2{fill:#90c0f0;}.cls-3{fill:#f9f9f9;}.cls-4,.cls-6{opacity:0.5;}.cls-5{fill:#74767f;opacity:0.3;}.cls-7{fill:#bcbcbc;}</style></defs><g id="bg"><rect class="cls-1" x="122.5" y="29.5" width="37" height="73"/><path class="cls-2" d="M159,30v72H123V30h36m1-1H122v74h38V29Z"/></g><rect id="bg-2" data-name="bg" class="cls-3" x="26.5" y="29" width="95.5" height="74"/><rect id="bg-3" data-name="bg" class="cls-2" x="122" y="29" width="38" height="31"/><rect id="p" class="cls-4" x="127" y="34" width="28" height="2"/><rect id="p-2" data-name="p" class="cls-4" x="127" y="39" width="28" height="2"/><rect id="p-3" data-name="p" class="cls-4" x="127" y="44" width="28" height="2"/><rect id="p-4" data-name="p" class="cls-4" x="127" y="49" width="13" height="2"/><rect id="h" class="cls-5" x="40" y="44" width="47" height="3"/><g class="cls-6"><rect id="p-5" data-name="p" class="cls-7" x="40" y="56" width="68" height="2"/><rect id="p-6" data-name="p" class="cls-7" x="40" y="64" width="68" height="2"/><rect id="p-7" data-name="p" class="cls-7" x="40" y="72" width="68" height="2"/><rect id="p-8" data-name="p" class="cls-7" x="40" y="80" width="43" height="2"/></g></svg>