<svg id="th_color" xmlns="http://www.w3.org/2000/svg" viewBox="0 0 195 130"><defs><style>.cls-1,.cls-2,.cls-3{fill:#c6c8ce;}.cls-1{opacity:0.2;}.cls-2{opacity:0.6;}.cls-4{fill:#f2f2f2;}.cls-5{fill:#e8e8e8;}</style></defs><polygon class="cls-1" points="131.5 55.66 152.88 68.73 131.5 81.79 110.12 68.73 131.5 55.66"/><polygon class="cls-2" points="131.5 49.13 152.88 62.19 131.5 75.26 110.12 62.19 131.5 49.13"/><rect class="cls-3" x="45" y="43" width="38" height="38" rx="3"/><path class="cls-4" d="M72.25,54.75A11,11,0,0,0,53,62c0,.34,0,.67,0,1h3A8.26,8.26,0,0,1,56,62a8,8,0,0,1,14.12-5.12L67,60h8V52Z"/><path class="cls-4" d="M75,61h-3A8.26,8.26,0,0,1,72,62a8,8,0,0,1-14.12,5.12L61,64H53v8l2.75-2.75A11,11,0,0,0,75,62C75,61.66,75,61.33,75,61Z"/><polygon class="cls-3" points="131.5 42 152.88 55.07 131.5 68.13 110.12 55.07 131.5 42"/><rect id="h" class="cls-5" x="97" y="27" width="1" height="76" transform="translate(195 130) rotate(180)"/></svg>