<svg id="th_color" xmlns="http://www.w3.org/2000/svg" viewBox="0 0 195 130"><defs><style>.cls-1{fill:#bcbcbc;}.cls-2{fill:#74767f;}.cls-3{fill:#e8e8e8;}.cls-4{fill:#fff;}.cls-5{fill:#90c0f0;}</style></defs><rect id="p" class="cls-1" x="18" y="85" width="71" height="2"/><rect id="p-2" data-name="p" class="cls-1" x="18" y="93" width="71" height="2"/><rect id="p-3" data-name="p" class="cls-1" x="55" y="101" width="34" height="2"/><rect id="h" class="cls-2" x="53" y="72" width="36" height="4"/><rect id="p-4" data-name="p" class="cls-3" x="106" y="72" width="11" height="4" transform="translate(223 148) rotate(180)"/><rect id="p-5" data-name="p" class="cls-1" x="106" y="39" width="71" height="2" transform="translate(283 80) rotate(180)"/><rect id="p-6" data-name="p" class="cls-1" x="106" y="47" width="71" height="2" transform="translate(283 96) rotate(180)"/><rect id="p-7" data-name="p" class="cls-1" x="106" y="55" width="34" height="2" transform="translate(246 112) rotate(180)"/><rect id="h-2" data-name="h" class="cls-2" x="106" y="26" width="36" height="4" transform="translate(248 56) rotate(180)"/><rect id="p-8" data-name="p" class="cls-1" x="106" y="39" width="71" height="2" transform="translate(283 80) rotate(180)"/><rect id="p-9" data-name="p" class="cls-1" x="106" y="47" width="71" height="2" transform="translate(283 96) rotate(180)"/><rect id="p-10" data-name="p" class="cls-1" x="106" y="55" width="34" height="2" transform="translate(246 112) rotate(180)"/><rect id="h-3" data-name="h" class="cls-2" x="106" y="26" width="36" height="4" transform="translate(248 56) rotate(180)"/><rect id="p-11" data-name="p" class="cls-3" x="78" y="26" width="11" height="4" transform="translate(167 56) rotate(180)"/><rect id="p-12" data-name="p" class="cls-3" x="57.5" y="65.5" width="80" height="1" transform="translate(163.5 -31.5) rotate(90)"/><circle class="cls-4" cx="97.5" cy="27.5" r="2"/><path class="cls-5" d="M97.5,26A1.5,1.5,0,1,1,96,27.5,1.5,1.5,0,0,1,97.5,26m0-1a2.5,2.5,0,1,0,2.5,2.5A2.5,2.5,0,0,0,97.5,25Z"/><circle class="cls-4" cx="97.5" cy="73.5" r="2"/><path class="cls-5" d="M97.5,72A1.5,1.5,0,1,1,96,73.5,1.5,1.5,0,0,1,97.5,72m0-1a2.5,2.5,0,1,0,2.5,2.5A2.5,2.5,0,0,0,97.5,71Z"/></svg>