<?xml version="1.0" encoding="UTF-8"?>
<!-- Generator: Adobe Illustrator 25.0.1, SVG Export Plug-In . SVG Version: 6.00 Build 0)  -->
<svg version="1.1" id="Layer_1" xmlns="http://www.w3.org/2000/svg" xmlns:xlink="http://www.w3.org/1999/xlink" x="0px" y="0px" viewBox="0 0 26 26" style="enable-background:new 0 0 26 26;" xml:space="preserve">
<style type="text/css">
	.st0{fill:#ffffff;}
</style>
<g>
	<path class="st0" d="M10.9,12.7c0.4-0.1,0.7-0.3,1.1-0.5c0.3-0.2,0.5-0.4,0.7-0.7c0.2-0.2,0.3-0.5,0.4-0.8c0.1-0.3,0.1-0.6,0.1-0.9   c0-0.5-0.1-1.1-0.3-1.6C12.7,7.7,12.4,7.3,12,7c-0.5-0.4-1-0.6-1.6-0.8C9.6,6.1,8.7,6,7.9,6H2.8v13.8h5.5c0.8,0,1.5-0.1,2.2-0.3   c0.6-0.2,1.1-0.5,1.6-0.9c0.4-0.4,0.8-0.8,1-1.3c0.2-0.5,0.3-1.1,0.3-1.6c0-0.7-0.2-1.4-0.6-1.9C12.4,13.2,11.6,12.8,10.9,12.7z    M6,8.4h1.9c0.3,0,0.6,0,0.9,0.1c0.2,0,0.5,0.1,0.6,0.3c0.2,0.1,0.3,0.3,0.4,0.5C10,9.6,10,9.9,10,10.1c0,0.3,0,0.6-0.1,0.8   c-0.1,0.2-0.3,0.4-0.5,0.5c-0.2,0.1-0.5,0.2-0.7,0.3c-0.3,0.1-0.7,0.1-1,0.1H6V8.4z M10.2,16.3c-0.1,0.2-0.2,0.4-0.3,0.6   c-0.2,0.2-0.4,0.3-0.6,0.4c-0.3,0.1-0.7,0.2-1,0.2H6V14h2.3c0.3,0,0.7,0,1,0.1c0.2,0.1,0.5,0.2,0.6,0.3c0.2,0.1,0.3,0.3,0.3,0.5   c0.1,0.2,0.1,0.4,0.1,0.7C10.4,15.8,10.3,16.1,10.2,16.3L10.2,16.3z"/>
	<path class="st0" d="M22.8,15.4c0.1,0,0.2-0.1,0.2-0.2c0.1-0.1,0.1-0.2,0.1-0.3c0-0.2,0-0.4,0-0.5c0-0.6-0.1-1.3-0.3-1.9   c-0.2-0.5-0.5-1-0.9-1.4c-0.4-0.4-0.9-0.7-1.4-0.9c-1.2-0.4-2.6-0.4-3.8,0.1c-1.2,0.5-2.1,1.4-2.5,2.6c-0.2,0.6-0.3,1.2-0.3,1.9   c0,0.8,0.1,1.6,0.4,2.3c0.2,0.6,0.6,1.2,1.1,1.6c0.5,0.4,1,0.8,1.6,1c0.6,0.2,1.3,0.3,1.9,0.3c0.4,0,0.7,0,1.1-0.1   c0.8-0.1,1.5-0.4,2.2-0.8c0.4-0.2,0.7-0.5,1-0.9l-0.9-1c-0.1-0.2-0.3-0.3-0.5-0.3c-0.2,0-0.4,0-0.5,0.1l-0.5,0.3   c-0.2,0.1-0.4,0.2-0.7,0.3c-0.3,0.1-0.6,0.1-0.9,0.1c-0.6,0-1.1-0.2-1.6-0.6c-0.5-0.5-0.7-1.1-0.8-1.8h5.7   C22.6,15.4,22.7,15.4,22.8,15.4z M16.8,13.7c0.1-0.5,0.3-1,0.6-1.4c0.4-0.3,0.8-0.5,1.3-0.5c0.3,0,0.6,0,0.8,0.2   c0.2,0.1,0.4,0.2,0.5,0.4c0.1,0.2,0.2,0.4,0.3,0.6c0.1,0.2,0.1,0.5,0.1,0.7L16.8,13.7z"/>
</g>
</svg>