<?xml version="1.0" encoding="UTF-8"?>
<!-- Generator: Adobe Illustrator 25.0.1, SVG Export Plug-In . SVG Version: 6.00 Build 0)  -->
<svg version="1.1" id="Layer_1" xmlns="http://www.w3.org/2000/svg" xmlns:xlink="http://www.w3.org/1999/xlink" x="0px" y="0px" viewBox="0 0 26 26" style="enable-background:new 0 0 26 26;" xml:space="preserve">
<style type="text/css">
	.st0{fill:#ffffff;}
</style>
<g>
	<path class="st0" d="M22.1,5H3.9C2.8,5,2,5.9,2,6.9v10.4c0,1.1,0.9,1.9,1.9,1.9h7.5l1.1,1.5c0.3,0.3,0.8,0.3,1,0l1.1-1.5h7.5   c1.1,0,1.9-0.9,1.9-1.9V6.9C24,5.9,23.2,5,22.1,5z M22.7,17.3c0,0.4-0.3,0.6-0.6,0.6h-7.8c-0.2,0-0.4,0.1-0.5,0.3l-0.8,1l-0.8-1   c-0.1-0.2-0.3-0.3-0.5-0.3H3.9c-0.4,0-0.6-0.3-0.6-0.6V6.9c0-0.4,0.3-0.6,0.6-0.6h18.2c0.4,0,0.6,0.3,0.6,0.6V17.3z"/>
	<path class="st0" d="M12.1,9.5C11.9,9.2,11.7,9,11.3,9c-0.3,0-0.6,0.2-0.7,0.5c0,0,0.1-0.2-1.9,4.9c-0.2,0.4,0.2,0.9,0.6,0.9   c0.3,0,0.5-0.2,0.6-0.4l0.3-0.8h2.1l0.3,0.8c0.1,0.3,0.5,0.5,0.8,0.4c0.3-0.1,0.5-0.5,0.4-0.8L12.1,9.5z M10.8,12.7l0.5-1.4   l0.5,1.4H10.8z"/>
	<path class="st0" d="M7.8,10.4c0.4,0,0.6-0.3,0.6-0.6S8.2,9.1,7.8,9.1h-2c-0.4,0-0.6,0.3-0.6,0.6v4.9c0,0.4,0.3,0.6,0.6,0.6   c0.4,0,0.6-0.3,0.6-0.6v-1.8h1.2c0.4,0,0.6-0.3,0.6-0.6c0-0.4-0.3-0.6-0.6-0.6H6.5v-1.1H7.8z"/>
	<path class="st0" d="M20.3,13.8c0.3-0.5,0.5-1.1,0.5-1.7c0-1.7-1.4-3.1-3.1-3.1c-1.7,0-3.1,1.4-3.1,3.1s1.4,3.1,3.1,3.1   c0.6,0,1.2-0.2,1.7-0.5l0.3,0.3c0.3,0.3,0.7,0.3,0.9,0c0.3-0.3,0.3-0.7,0-0.9L20.3,13.8z M15.8,12.1c0-1,0.8-1.8,1.8-1.8   c1.3,0,2.2,1.3,1.7,2.5L19,12.5c-0.3-0.3-0.7-0.3-0.9,0s-0.3,0.7,0,0.9l0.3,0.3C17.2,14.3,15.8,13.5,15.8,12.1L15.8,12.1z"/>
</g>
</svg>