<svg xmlns="http://www.w3.org/2000/svg" viewBox="0 0 26 26"><defs><style>.a{fill:none;stroke:#ffffff;stroke-linecap:round;stroke-linejoin:round;stroke-width:1.5px;}.b{fill:#7f54b3;}.c{fill:#fff;}</style></defs><path class="a" d="M21,22.92V6.74L16.43,2.17H5.91A.91.91,0,0,0,5,3.08V22.92a.91.91,0,0,0,.91.91H20.09A.91.91,0,0,0,21,22.92Z"/><path class="a" d="M21,6.74H17.16A.73.73,0,0,1,16.43,6V2.17"/><path class="b" d="M2.78,12H15a1.4,1.4,0,0,1,1.4,1.4v4.66a1.4,1.4,0,0,1-1.4,1.4H10.61l.6,1.47L8.57,19.46H2.79a1.4,1.4,0,0,1-1.4-1.4V13.4A1.39,1.39,0,0,1,2.78,12Z"/><path class="c" d="M2.24,13.27a.5.5,0,0,1,.39-.18.44.44,0,0,1,.53.43,31.75,31.75,0,0,0,.61,3.24l1.34-2.54a.6.6,0,0,1,.45-.37c.27,0,.44.16.5.52a12,12,0,0,0,.58,2.08,9.32,9.32,0,0,1,.81-3.35.46.46,0,0,1,.4-.27.57.57,0,0,1,.39.12.48.48,0,0,1,.18.35.48.48,0,0,1-.06.29,7.73,7.73,0,0,0-.59,2.2,11.34,11.34,0,0,0-.17,2.33.75.75,0,0,1-.07.4.42.42,0,0,1-.33.22.62.62,0,0,1-.48-.23,6,6,0,0,1-1.34-2.6c-.4.79-.69,1.37-.88,1.76-.36.69-.67,1-.92,1.06s-.31-.13-.43-.42a26.41,26.41,0,0,1-1-4.63.56.56,0,0,1,.1-.41Zm13.11,1a1.46,1.46,0,0,0-1-.71l-.33,0a1.63,1.63,0,0,0-1.43.91,3.21,3.21,0,0,0-.48,1.72,2.43,2.43,0,0,0,.29,1.21,1.43,1.43,0,0,0,1,.71l.33,0a1.62,1.62,0,0,0,1.43-.91,3.27,3.27,0,0,0,.48-1.73A2.37,2.37,0,0,0,15.35,14.23Zm-.77,1.69a1.62,1.62,0,0,1-.47.9.58.58,0,0,1-.49.2c-.15,0-.27-.16-.36-.4a1.63,1.63,0,0,1-.11-.55,2.15,2.15,0,0,1,0-.45,2,2,0,0,1,.33-.72c.2-.3.41-.42.63-.38s.27.16.36.39a1.64,1.64,0,0,1,.11.56,2.15,2.15,0,0,1,0,.45Zm-3.05-1.69a1.46,1.46,0,0,0-1-.71l-.33,0a1.64,1.64,0,0,0-1.43.91,3.21,3.21,0,0,0-.48,1.72,2.34,2.34,0,0,0,.3,1.21,1.41,1.41,0,0,0,1,.71l.33,0a1.64,1.64,0,0,0,1.44-.91,3.35,3.35,0,0,0,.47-1.73A2.37,2.37,0,0,0,11.53,14.23Zm-.78,1.69a1.55,1.55,0,0,1-.46.9.59.59,0,0,1-.49.2c-.15,0-.27-.16-.36-.4a1.42,1.42,0,0,1-.11-.55,2.15,2.15,0,0,1,0-.45,1.92,1.92,0,0,1,.32-.72c.2-.3.42-.42.64-.38a.56.56,0,0,1,.36.39,1.64,1.64,0,0,1,.11.56,2.14,2.14,0,0,1-.05.45Z"/></svg>