<?xml version="1.0" encoding="utf-8"?>
<!-- Generator: Adobe Illustrator 25.0.1, SVG Export Plug-In . SVG Version: 6.00 Build 0)  -->
<svg version="1.1" id="Layer_1" xmlns="http://www.w3.org/2000/svg" xmlns:xlink="http://www.w3.org/1999/xlink" x="0px" y="0px"
	 viewBox="0 0 22 22" style="enable-background:new 0 0 22 22;" xml:space="preserve">
<style type="text/css">
	.st0{fill:#FFFFFF;}
</style>
<g>
	<path class="st0" d="M10,7.8v2.5L9.1,9.4c-1-1-0.9-1-1.2-0.4c-0.9,1.4-0.8,3.3,0.4,4.5c0.4,0.4,0.7,0.6,1.2,0.8
		c0.3,0.1,1,0.3,1.2,0.3l0.1,0v1.1v1.1l-0.4,0c-2-0.2-3.8-1.4-4.8-3.2c-1-1.9-0.8-4.2,0.4-6c0.1-0.2,0.3-0.4,0.4-0.5L6.7,7L5.8,6.1
		C5.4,5.7,5,5.3,5,5.3c0,0,1.1,0,2.5,0H10V7.8z"/>
	<path class="st0" d="M11.8,5.2c2.2,0.3,4,1.9,4.7,4c0.5,1.5,0.4,3-0.3,4.4c-0.2,0.5-0.7,1.2-0.9,1.4L15.2,15l0.9,0.9l0.9,0.9h-2.5
		h-2.5v-2.5v-2.5l0.9,0.9c0.5,0.5,0.9,0.9,0.9,0.9c0.1,0,0.5-0.7,0.7-1c0.3-0.7,0.4-1.8,0.1-2.5c-0.4-1.2-1.4-2.2-2.7-2.5
		c-0.2-0.1-0.5-0.1-0.5-0.1h-0.2V6.2V5.1h0.2C11.4,5.1,11.6,5.1,11.8,5.2z"/>
</g>
</svg>
