<svg id="Layer_1" data-name="Layer 1" xmlns="http://www.w3.org/2000/svg" viewBox="0 0 60 60"><defs><style>.cls-1,.cls-2{fill:#7d818e;}.cls-1{opacity:0.1;}.cls-3,.cls-4{fill:#72a5d8;}.cls-3{opacity:0.7;}</style></defs><path class="cls-1" d="M55.65,58.5H4.35c-1.62,0-2.85-1.23-2.85-1.9V5.3c0-2.57,1.23-3.8,2.85-3.8h51.3c1.62,0,2.85,1.23,2.85,3.8V56.6C58.5,57.27,57.27,58.5,55.65,58.5Z"/><path class="cls-2" d="M30,52h0a2,2,0,0,1-2-2V10a2,2,0,0,1,2-2h0a2,2,0,0,1,2,2V50A2,2,0,0,1,30,52Z"/><path class="cls-3" d="M14.82,16h8.37c.51,0,.81.3.81.6V43.4c0,.3-.4.6-.81.6H14.82c-.5,0-.8-.3-.8-.6V16.6C13.91,16.3,14.32,16,14.82,16Z"/><path class="cls-4" d="M36.59,16h8.82c.29,0,.49.2.59.6V33.4a.57.57,0,0,1-.54.6H36.59c-.29,0-.49-.2-.59-.6V16.6A.75.75,0,0,1,36.59,16Z"/></svg>