<?xml version="1.0" encoding="UTF-8"?><svg id="Layer_4" xmlns="http://www.w3.org/2000/svg" viewBox="0 0 180 60"><defs><style>.cls-1{fill:#fff;}.cls-2{fill:#0189ff;fill-rule:evenodd;}.cls-3{isolation:isolate;}</style></defs><g class="cls-3"><path class="cls-1" d="M70.1,25.06c-.09,.17-.22,.22-.26,.3-.09,.04-.22,.09-.39,.09s-.34-.04-.56-.22-.47-.3-.77-.47c-.3-.17-.65-.34-1.12-.47-.47-.17-1.03-.22-1.64-.22-.86,0-1.64,.17-2.28,.47s-1.21,.77-1.68,1.33-.77,1.29-1.03,2.11c-.22,.82-.34,1.72-.34,2.75s.09,2.02,.34,2.84c.26,.82,.6,1.55,1.03,2.11,.47,.56,.99,1.03,1.64,1.29s1.33,.47,2.15,.47c.77,0,1.38-.09,1.89-.26,.52-.22,.9-.34,1.21-.6,.3-.22,.6-.39,.82-.6s.39-.26,.6-.26c.26,0,.47,.09,.6,.3l.86,1.12c-.39,.47-.82,.86-1.33,1.2-.52,.34-1.03,.6-1.59,.86-.56,.22-1.16,.39-1.81,.52-.6,.09-1.21,.17-1.89,.17-1.12,0-2.15-.22-3.06-.6-.99-.39-1.81-1.03-2.45-1.81s-1.33-1.72-1.68-2.84c-.39-1.12-.6-2.41-.6-3.87,0-1.33,.22-2.54,.56-3.66,.34-1.12,.9-2.11,1.64-2.93,.73-.82,1.59-1.42,2.58-1.89,1.03-.47,2.19-.65,3.57-.65,1.21,0,2.37,.22,3.31,.6,.99,.39,1.81,.99,2.5,1.68l-.82,1.12Z"/></g><g class="cls-3"><path class="cls-1" d="M88.9,21.96v17.69h-1.89c-.47,0-.73-.22-.82-.65l-.26-1.89c-.77,.86-1.64,1.55-2.58,2.02-.99,.52-2.02,.77-3.27,.77-.99,0-1.85-.17-2.54-.47-.73-.3-1.38-.77-1.85-1.38-.52-.56-.86-1.29-1.12-2.11s-.34-1.72-.34-2.75v-11.23h3.1v11.28c0,1.33,.3,2.41,.9,3.1,.6,.73,1.55,1.12,2.8,1.12,.9,0,1.81-.22,2.58-.65,.82-.47,1.55-1.03,2.19-1.81v-13.04h3.1Z"/></g><g class="cls-3"><path class="cls-1" d="M104.01,24.85c-.17,.26-.34,.39-.65,.39-.17,0-.34-.04-.6-.22-.22-.17-.52-.26-.82-.39s-.73-.3-1.12-.47c-.47-.17-.99-.22-1.59-.22-.52,0-1.03,.04-1.42,.22s-.77,.3-1.08,.56c-.3,.26-.52,.52-.65,.82-.17,.3-.26,.65-.26,1.03,0,.47,.17,.82,.39,1.12,.26,.3,.6,.56,1.03,.77,.39,.22,.9,.39,1.46,.56,.56,.17,1.12,.34,1.68,.56,.56,.22,1.12,.39,1.68,.65,.56,.26,1.03,.52,1.46,.86,.39,.34,.77,.77,1.03,1.29,.26,.52,.39,1.12,.39,1.85,0,.82-.17,1.59-.47,2.24-.3,.65-.73,1.29-1.29,1.81s-1.29,.9-2.11,1.16c-.82,.26-1.81,.47-2.84,.47-1.21,0-2.37-.22-3.36-.6-1.03-.39-1.85-.9-2.54-1.55l.73-1.16c.09-.17,.22-.26,.34-.34,.17-.09,.3-.09,.52-.09s.39,.09,.65,.26c.26,.17,.52,.34,.86,.56s.73,.34,1.21,.56c.47,.17,1.08,.26,1.81,.26,.6,0,1.12-.09,1.59-.26,.47-.17,.82-.34,1.12-.6,.3-.26,.52-.56,.65-.9,.17-.34,.22-.73,.22-1.12,0-.52-.17-.9-.39-1.2-.26-.3-.6-.6-1.03-.82-.39-.22-.9-.39-1.46-.6-.56-.17-1.12-.34-1.68-.52-.56-.22-1.12-.39-1.68-.6-.56-.26-1.03-.56-1.46-.9-.39-.34-.77-.82-1.03-1.33-.26-.52-.39-1.16-.39-1.94,0-.65,.17-1.33,.39-1.94,.26-.6,.65-1.16,1.21-1.64,.52-.47,1.16-.86,1.98-1.12,.82-.26,1.68-.39,2.67-.39,1.16,0,2.19,.22,3.1,.56,.9,.34,1.72,.86,2.41,1.55l-.65,.82Z"/></g><g class="cls-3"><path class="cls-1" d="M114.59,39.91c-1.38,0-2.45-.39-3.23-1.16s-1.12-1.89-1.12-3.36v-10.84h-2.15c-.22,0-.34-.04-.47-.17-.17-.09-.22-.3-.22-.52v-1.2l2.93-.34,.73-5.47c.04-.17,.09-.3,.26-.39,.09-.09,.3-.17,.47-.17h1.59v6.11h5.12v2.24h-5.12v10.54c0,.77,.22,1.29,.56,1.68,.34,.34,.82,.56,1.38,.56,.3,0,.6-.04,.86-.17,.26-.09,.47-.22,.6-.3,.17-.09,.3-.22,.47-.3,.09-.09,.26-.17,.3-.17,.17,0,.3,.09,.47,.3l.9,1.46c-.52,.52-1.16,.9-1.94,1.16-.82,.34-1.59,.52-2.41,.52Z"/></g><g class="cls-3"><path class="cls-1" d="M128.75,21.62c1.29,0,2.45,.22,3.49,.65,1.03,.39,1.94,1.03,2.67,1.85s1.29,1.72,1.68,2.84,.56,2.41,.56,3.79-.22,2.67-.56,3.79-.99,2.11-1.68,2.84c-.73,.82-1.64,1.38-2.67,1.85-1.03,.39-2.19,.6-3.49,.6s-2.5-.22-3.53-.6c-1.03-.39-1.94-1.03-2.67-1.85-.73-.82-1.29-1.72-1.68-2.84s-.56-2.41-.56-3.79,.22-2.67,.56-3.79c.39-1.12,.99-2.11,1.68-2.84,.73-.82,1.64-1.42,2.67-1.85,1.03-.39,2.24-.65,3.53-.65Zm0,15.84c1.72,0,3.06-.56,3.92-1.72s1.29-2.8,1.29-4.91-.39-3.79-1.29-4.95-2.15-1.81-3.92-1.81c-.86,0-1.64,.17-2.28,.47s-1.2,.73-1.64,1.33c-.47,.56-.77,1.29-.99,2.11s-.3,1.81-.3,2.8c0,2.11,.47,3.74,1.33,4.91,.86,1.16,2.07,1.76,3.87,1.76Z"/></g><g class="cls-3"><path class="cls-1" d="M141.1,39.65V21.96h1.89c.47,0,.73,.22,.82,.65l.22,1.85c.65-.82,1.38-1.46,2.19-1.98s1.72-.77,2.8-.77c1.16,0,2.15,.34,2.93,1.03,.77,.65,1.29,1.59,1.59,2.71,.26-.65,.56-1.16,.99-1.68s.86-.86,1.38-1.16,1.03-.52,1.59-.65,1.12-.22,1.72-.22c.9,0,1.81,.17,2.5,.47,.73,.3,1.33,.73,1.85,1.33,.52,.6,.9,1.29,1.16,2.11s.39,1.81,.39,2.84v11.28h-3.1v-11.4c0-1.38-.3-2.45-.9-3.18-.6-.73-1.46-1.08-2.58-1.08-.52,0-1.03,.09-1.46,.26-.47,.22-.86,.47-1.2,.82s-.6,.77-.82,1.33c-.22,.52-.3,1.12-.3,1.85v11.28h-3.23v-11.28c0-1.42-.3-2.5-.86-3.18-.56-.73-1.42-1.08-2.5-1.08-.77,0-1.46,.22-2.15,.6-.65,.39-1.29,.99-1.81,1.68v13.21s-3.1,.04-3.1,.04Z"/></g><path id="Be" class="cls-2" d="M24.99,39.57c1.38,0,2.75-.17,4.05-.6,1.08-.34,2.11-.9,2.97-1.64,.77-.65,1.42-1.46,1.85-2.45s.6-1.98,.6-3.01c.04-1.29-.34-2.54-1.16-3.53-1.03-1.03-2.28-1.72-3.66-1.98,.73-.26,1.33-.56,1.98-.99,.52-.34,.99-.77,1.33-1.29,.34-.47,.6-.99,.77-1.46,.17-.52,.26-1.08,.26-1.64,0-.99-.17-1.94-.52-2.84-.34-.86-.9-1.59-1.68-2.15-.9-.65-1.94-1.12-3.01-1.38-1.55-.34-3.01-.52-4.52-.52H14.88v25.43h10.11v.04Zm-.17-10.76c.6,0,1.2,.04,1.85,.22,.39,.09,.82,.3,1.16,.6,.3,.26,.52,.56,.6,.9,.09,.39,.22,.82,.22,1.29,0,.39-.04,.82-.17,1.16-.09,.39-.3,.77-.56,1.08-.3,.34-.73,.6-1.16,.77-.6,.22-1.29,.3-1.89,.3h-4.13v-6.41l4.09,.09h0Zm-4.09-10.29h3.4c.56,0,1.12,.04,1.68,.17,.39,.09,.82,.26,1.16,.52,.3,.26,.56,.56,.73,.99,.17,.52,.26,1.03,.22,1.55,0,.52-.09,1.08-.3,1.55-.22,.39-.47,.73-.82,.99-.39,.26-.86,.39-1.33,.52-.56,.09-1.16,.17-1.72,.17h-3.06l.04-6.46h0Zm20.4,3.36c-2.15,.9-3.79,2.58-4.56,4.78-.39,1.12-.6,2.24-.6,3.4-.04,1.42,.22,2.84,.73,4.22,.39,1.12,1.12,2.19,1.94,3.06,.82,.82,1.81,1.42,2.93,1.85,1.12,.39,2.37,.6,3.57,.6,.65,0,1.29-.04,1.94-.17,.65-.09,1.38-.26,2.02-.47,.73-.26,1.38-.56,1.98-.9,.65-.39,1.29-.99,1.81-1.59l-1.59-1.94c-.22-.3-.6-.52-.99-.47-.3,0-.65,.09-.9,.22-.3,.17-.6,.3-.99,.52s-.82,.34-1.21,.52c-.52,.17-1.08,.26-1.64,.22-1.08,.04-2.11-.3-2.84-1.03-.82-.9-1.33-2.02-1.38-3.31h10.33c.22,0,.39,0,.6-.09,.17-.04,.3-.17,.34-.3,.09-.22,.17-.39,.22-.6,.04-.34,.04-.65,.04-1.03,0-1.16-.22-2.41-.6-3.53-.34-.99-.9-1.89-1.68-2.58-.73-.73-1.59-1.29-2.54-1.64-2.24-.65-4.69-.6-6.93,.3h0Zm5.29,3.31c.39,.22,.73,.47,.99,.77,.26,.3,.39,.73,.56,1.08,.09,.39,.17,.82,.17,1.29h-6.8c.09-.9,.52-1.85,1.12-2.54,.65-.6,1.55-.9,2.41-.86,.56-.04,1.03,.09,1.55,.26h0Z"/></svg>