<?xml version="1.0" encoding="UTF-8"?><svg id="a" xmlns="http://www.w3.org/2000/svg" viewBox="0 0 128 128"><defs><style>.b{fill:none;stroke:#304050;stroke-linecap:round;stroke-linejoin:round;stroke-width:3px;}</style></defs><path class="b" d="M73.97,98.14H16.71c-2.81,0-5.08-2.28-5.08-5.08V26.22c0-2.81,2.28-5.08,5.08-5.08H98.54c2.81,0,5.08,2.28,5.08,5.08v38.84"/><g><g><line class="b" x1="90" y1="80" x2="90" y2="95"/><polyline class="b" points="93.75 91.25 90 95 86.25 91.25"/></g><g><line class="b" x1="103" y1="95" x2="103" y2="80"/><polyline class="b" points="106.75 83.75 103 80 99.25 83.75"/></g><circle class="b" cx="96.5" cy="88.5" r="24.5"/></g><g><line class="b" x1="71.61" y1="41.64" x2="86.62" y2="41.64"/><line class="b" x1="28.62" y1="41.64" x2="65.61" y2="41.64"/><rect class="b" x="65.61" y="36.64" width="6" height="10" rx="2.65" ry="2.65"/><line class="b" x1="44.61" y1="58.64" x2="86.62" y2="58.64"/><rect class="b" x="38.61" y="53.64" width="6" height="10" rx="2.65" ry="2.65"/><line class="b" x1="59.61" y1="75.64" x2="75.65" y2="75.64"/><rect class="b" x="53.61" y="70.64" width="6" height="10" rx="2.65" ry="2.65"/><line class="b" x1="28.62" y1="75.64" x2="53.61" y2="75.64"/></g><line class="b" x1="28.62" y1="58.64" x2="38.61" y2="58.64"/></svg>