<?xml version="1.0" encoding="utf-8"?>
<!-- Generator: Adobe Illustrator 25.0.1, SVG Export Plug-In . SVG Version: 6.00 Build 0)  -->
<svg version="1.1" id="Layer_1" xmlns="http://www.w3.org/2000/svg" xmlns:xlink="http://www.w3.org/1999/xlink" x="0px" y="0px"
	 viewBox="0 0 22 22" style="enable-background:new 0 0 22 22;" xml:space="preserve">
<style type="text/css">
	.st0{fill:none;stroke:#304050;stroke-width:1.5;stroke-linecap:round;stroke-linejoin:round;}
	.st1{fill:none;stroke:#304050;stroke-width:1.5;stroke-linecap:round;stroke-linejoin:round;stroke-dasharray:0.6333,1.8999;}
	
		.st2{fill:none;stroke:#304050;stroke-width:1.5;stroke-linecap:round;stroke-linejoin:round;stroke-dasharray:0.6333,1.8999,0.6333,1.8999;}
</style>
<path class="st0" d="M7,5"/>
<path class="st0" d="M3.8,8.2"/>
<g>
	<g>
		<line class="st0" x1="9.2" y1="5.8" x2="9.2" y2="6.3"/>
		<line class="st1" x1="9.2" y1="8.2" x2="9.2" y2="9.8"/>
		<line class="st2" x1="9.2" y1="10.7" x2="9.2" y2="14.8"/>
		<line class="st0" x1="9.2" y1="15.8" x2="9.2" y2="16.3"/>
	</g>
</g>
<path class="st0" d="M16.3,11c0-1.1,0.9-2,2-2V6.2c0-0.6-0.5-1.2-1-1.2H4.8c-0.5,0-1,0.6-1,1.2V9c1.1,0,2,0.9,2,2s-0.9,2-2,2v2.8
	c0,0.6,0.5,1.2,1,1.2h12.5c0.5,0,1-0.6,1-1.2V13C17.2,13,16.3,12.1,16.3,11z"/>
</svg>
