<svg id="Layer_1" data-name="Layer 1" xmlns="http://www.w3.org/2000/svg" viewBox="0 0 60 60"><defs><style>.cls-1{opacity:.3;}.cls-2{fill:#7d818e;}.cls-3{fill:none;stroke:#fff;stroke-linecap:round;stroke-linejoin:round;}.cls-4{fill:#72a5d8;}.cls-5{fill:#fff;}</style></defs><g class="cls-1"><rect class="cls-2" x="0.5" y="0.5" width="59" height="59" rx="1"/></g><line class="cls-3" x1="44" y1="9.5" x2="16" y2="9.5"/><line class="cls-3" x1="50" y1="14.5" x2="16" y2="14.5"/><line class="cls-3" x1="45" y1="19.5" x2="16" y2="19.5"/><line class="cls-3" x1="50" y1="24.5" x2="16" y2="24.5"/><line class="cls-3" x1="44" y1="29.5" x2="16" y2="29.5"/><line class="cls-3" x1="49" y1="34.5" x2="16" y2="34.5"/><line class="cls-3" x1="47" y1="39.5" x2="16" y2="39.5"/><line class="cls-3" x1="49" y1="44.5" x2="16" y2="44.5"/><line class="cls-3" x1="35" y1="49.5" x2="16" y2="49.5"/><path class="cls-4" d="M1.5.5H4a0,0,0,0,1,0,0v59a0,0,0,0,1,0,0H1.5a1,1,0,0,1-1-1V1.5A1,1,0,0,1,1.5.5Z"/><path class="cls-4" d="M4.63,24h4a0,0,0,0,1,0,0V36a0,0,0,0,1,0,0h-4a1,1,0,0,1-1-1V25a1,1,0,0,1,1-1Z" transform="translate(12.27 60) rotate(180)"/><polygon class="cls-5" points="4 31 4 29 6 30 4 31"/></svg>