<?xml version="1.0" encoding="UTF-8"?><svg id="Layer_1" xmlns="http://www.w3.org/2000/svg" viewBox="0 0 24 24"><defs><style>.cls-1{fill:none;stroke:#304050;stroke-linecap:round;stroke-linejoin:round;stroke-width:1.5px;}</style></defs><path class="cls-1" d="M14.74,14.98l3.81-2.32c1.54-1.12,3.02,1.03,1.45,2.23l-4.06,2.85c-1.01,.82-1.84,1.01-3.24,1.01h-3.26c-1.08,0-1.84,.25-3.02,1.39l-2.7-5.3s3.01-2.49,4.47-2.37c1.22,.1,2.05,.47,2.57,.82,.19,.13,.41,.21,.64,.21h2.62c.62,0,1.13,.5,1.13,1.13h0c0,.62-.5,1.13-1.13,1.13h-3.18"/><circle class="cls-1" cx="13" cy="7" r="3.35"/></svg>