<?xml version="1.0" encoding="UTF-8" standalone="no"?>
<!-- Generator: Adobe Illustrator 19.2.1, SVG Export Plug-In . SVG Version: 6.00 Build 0)  -->

<svg
   version="1.1"
   id="layer"
   x="0px"
   y="0px"
   viewBox="0 0 600.00537 99"
   xml:space="preserve"
   width="600.00537"
   height="99"
   xmlns="http://www.w3.org/2000/svg"
   xmlns:svg="http://www.w3.org/2000/svg"><defs
   id="defs2" />
<style
   type="text/css"
   id="style1">
	.st0{fill:#6A737D;}
	.st1{fill:#39414A;}
</style>
<path
   class="st0"
   d="M 567.30537,76.8 V 41.4 c 0,-7.8 0,-12.9 -0.3,-17.4 h 14.1 l 0.6,9.6 h 0.3 c 2.7,-7.8 9,-11.1 14.4,-11.1 1.5,0 2.4,0 3.6,0.3 v 15.6 c -1.2,-0.3 -2.7,-0.3 -4.5,-0.3 -6,0 -10.2,3.3 -11.1,8.4 -0.3,1.2 -0.3,2.4 -0.3,3.6 v 26.7 c 0,0 -16.8,0 -16.8,0 z m -10.5,-21.3 h -34.2 c 0.3,6.9 7.2,10.2 15,10.2 5.7,0 10.2,-0.9 14.7,-2.4 l 2.1,11.1 c -5.4,2.4 -12,3.3 -19.2,3.3 -18,0 -28.2,-10.5 -28.2,-27 0,-13.5 8.4,-28.2 26.7,-28.2 17.1,0 23.7,13.2 23.7,26.4 0,3 -0.3,5.4 -0.6,6.6 z m -34.2,-11.1 h 19.5 c 0,-3.9 -1.8,-10.8 -9.3,-10.8 -6.9,0 -9.6,6.3 -10.2,10.8 z m -42,-44.4 h 16.5 v 60.9 c 0,6 0.3,12.3 0.3,15.9 h -14.7 l -0.6,-7.8 h -0.3 c -3.3,5.7 -9.6,9 -16.5,9 -12.6,0 -22.5,-10.8 -22.5,-27.3 0,-18 11.1,-28.2 23.7,-28.2 6.6,0 11.7,2.4 14.1,6 h 0.3 V 0 Z m 0,53.1 v -6.9 c 0,-0.9 0,-2.1 -0.3,-3 -0.9,-4.2 -4.5,-8.1 -9.6,-8.1 -7.5,0 -11.4,6.6 -11.4,15 0,9 4.5,14.7 11.1,14.7 4.8,0 8.7,-3.3 9.6,-7.8 0.3,-1.2 0.6,-2.4 0.6,-3.9 z m -56.1,-52.2 c 5.4,0 8.4,3.6 8.7,8.1 0,4.5 -3.3,8.1 -9,8.1 -5.1,0 -8.4,-3.6 -8.4,-8.1 -0.3,-4.5 3.3,-8.1 8.7,-8.1 z m 8.1,75.9 h -16.5 V 24 h 16.5 z m -66.6,-2.7 3,-11.7 c 3,1.8 9.3,3.9 14.1,3.9 5.1,0 6.9,-1.5 6.9,-4.2 0,-2.7 -1.5,-4.2 -7.8,-6.3 -11.1,-3.6 -15.3,-9.6 -15,-15.9 0,-9.9 8.4,-17.4 21.6,-17.4 6.3,0 11.7,1.5 14.7,3 l -2.7,11.4 c -2.4,-1.2 -6.9,-3 -11.4,-3 -3.9,0 -6.3,1.5 -6.3,4.2 0,2.7 2.1,3.9 8.4,6.3 10.2,3.6 14.1,8.7 14.4,16.2 0,9.9 -7.8,17.1 -22.8,17.1 -6.9,0.3 -12.9,-1.2 -17.1,-3.6 z m -60.3,2.7 v -36 c 0,-6.6 -0.3,-12 -0.3,-16.8 h 14.4 l 0.9,7.5 h 0.3 c 2.1,-3.6 7.5,-8.4 16.2,-8.4 10.8,0 18.9,7.2 18.9,22.8 v 31.2 h -16.5 V 47.7 c 0,-6.9 -2.4,-11.4 -8.4,-11.4 -4.5,0 -7.2,3 -8.4,6.3 -0.3,1.2 -0.6,2.7 -0.6,4.2 v 30.6 h -16.5 z m -21.3,-75.9 c 5.4,0 8.4,3.6 8.7,8.1 0,4.5 -3.3,8.1 -9,8.1 -5.1,0 -8.4,-3.6 -8.4,-8.1 0,-4.5 3.6,-8.1 8.7,-8.1 z m 8.1,75.9 h -16.5 V 24 h 16.5 z"
   id="path1" />
<path
   class="st1"
   d="m 47.105368,45.9 v 18.6 c 0,5.1 0.3,9.9 0.9,12.9 h -14.7 l -0.9,-5.4 h -0.3 c -3.6,4.2 -9,6.6 -15,6.6 C 6.3053678,78.6 0.00536782,70.8 0.00536782,62.1 -0.29463218,48.3 12.005368,42 30.605368,42 v -0.6 c 0,-3 -1.5,-6.9 -9.6,-6.9 -5.4,0 -11.1000002,1.8 -14.7000002,3.9 l -3,-10.8 c 3.6,-2.1 10.8000002,-4.8 20.7000002,-4.8 17.7,0 23.1,10.5 23.1,23.1 z m -15.9,12 v -5.7 c -8.7,0 -15.3,2.1 -15.3,8.4 0,4.2 2.7,6.3 6.6,6.3 3.9,0 7.5,-2.7 8.4,-6 0.3,-0.9 0.3,-1.8 0.3,-3 z m 29.1,41.1 V 42 c 0,-6.9 -0.3,-12.9 -0.3,-18 h 14.4 l 0.9,7.5 h 0.3 c 3.9,-5.7 9.9,-8.7 17.7,-8.7 11.700002,0 21.900002,10.2 21.900002,27 0,19.5 -12.3,28.5 -24.000002,28.5 -6.3,0 -11.4,-2.7 -13.8,-6 h -0.3 V 99 Z m 16.5,-51.9 v 7.2 c 0,1.2 0,2.4 0.3,3.6 1.2,4.5 4.8,7.8 9.6,7.8 7.2,0 11.4,-6 11.4,-15 0,-8.4 -3.9,-15 -11.1,-15 -4.8,0 -8.7,3.6 -9.9,8.4 -0.3,0.9 -0.3,2.1 -0.3,3 z M 125.10537,99 V 42 c 0,-6.9 -0.3,-12.9 -0.3,-18 h 14.4 l 0.9,7.5 h 0.3 c 3.3,-5.7 9.3,-8.7 17.1,-8.7 11.7,0 21.9,10.2 21.9,27 0,19.5 -12.3,28.5 -24,28.5 -6.3,0 -11.4,-2.7 -13.8,-6 h -0.3 V 99 Z m 16.2,-51.9 v 7.2 c 0,1.2 0,2.4 0.3,3.6 1.2,4.5 4.8,7.8 9.6,7.8 7.2,0 11.4,-6 11.4,-15 0,-8.4 -3.9,-15 -11.1,-15 -4.8,0 -8.7,3.6 -9.9,8.4 0,0.9 -0.3,2.1 -0.3,3 z m 48.3,30.3 h 16.5 V 0 h -16.5 z m 76.5,-21.3 h -33.9 c 0.3,6.9 7.2,10.2 15,10.2 5.7,0 10.2,-0.9 14.7,-2.4 l 1.8,11.1 c -5.4,2.4 -12,3.3 -19.2,3.3 -18,0 -28.2,-10.5 -28.2,-27 0,-13.5 8.4,-28.5 26.7,-28.5 17.1,0 23.7,13.5 23.7,26.7 0,2.7 -0.3,5.4 -0.6,6.6 z m -34.2,-11.4 h 19.5 c 0,-3.9 -1.8,-10.8 -9.3,-10.8 -6.9,0 -9.6,6.3 -10.2,10.8 z"
   id="path2" />
</svg>
