<?xml version="1.0" encoding="UTF-8"?>
<svg xmlns="http://www.w3.org/2000/svg" viewBox="0 0 779.8 594">
  <defs>
    <style>.cls{fill:#fff;}</style>
  </defs>
  <g id="rh">
    <path class="cls" d="m303.38,428.35c0-3.96-3.24-7.2-7.2-7.2h-40.69c-3.96,0-7.2-3.24-7.2-7.2v-40.69c0-3.96-3.24-7.2-7.2-7.2h-47.12c-3.96,0-7.2,3.24-7.2,7.2v40.69c0,3.96-3.24,7.2-7.2,7.2h-40.69c-3.96,0-7.2,3.24-7.2,7.2v47.12c0,3.96,3.24,7.2,7.2,7.2h40.69c3.96,0,7.2,3.24,7.2,7.2v40.69c0,3.96,3.24,7.2,7.2,7.2h47.12c3.96,0,7.2-3.24,7.2-7.2v-40.69c0-3.96,3.24-7.2,7.2-7.2h40.69c3.96,0,7.2-3.24,7.2-7.2v-47.12Z"/>
    <circle class="cls" cx="534.33" cy="482.67" r="36"/>
    <circle class="cls" cx="601.23" cy="421.15" r="36"/>
    <path class="cls" d="m303.38,169.09h-91.69C94.97,169.09,0,264.06,0,380.79v213.21h85v-213.21c0-69.86,56.84-126.7,126.7-126.7h91.69v-85Z"/>
    <path class="cls" d="m568.1,169.09h-127.88V0h-85v594h85V254.09h127.88c69.86,0,126.7,56.84,126.7,126.7v213.21h85v-213.21c0-116.73-94.97-211.7-211.7-211.7Z"/>
  </g>
</svg>