<svg width="35" height="24" viewBox="0 0 35 24" fill="none" xmlns="http://www.w3.org/2000/svg">
<path fill-rule="evenodd" clip-rule="evenodd" d="M9.11213 17.5857C9.11213 17.441 9.07801 17.3157 9.00994 17.2099C8.94178 17.1041 8.85214 17.0234 8.74093 16.9677C8.85214 16.9121 8.93831 16.8299 8.99954 16.7213C9.06069 16.6127 9.09126 16.4903 9.09126 16.3539V16.2787C9.09126 16.1116 9.0593 15.9725 8.99539 15.8611C8.93138 15.7498 8.84166 15.6606 8.72629 15.5939C8.61093 15.527 8.47253 15.4791 8.31135 15.4498C8.15 15.4205 7.97072 15.406 7.77325 15.406C7.70657 15.406 7.63702 15.4074 7.56479 15.4101C7.49238 15.4129 7.42223 15.4164 7.35416 15.4205C7.28599 15.4247 7.22338 15.4296 7.16647 15.4352C7.1094 15.4408 7.0628 15.4464 7.02669 15.4518C6.94606 15.4659 6.88907 15.4909 6.85572 15.527C6.82238 15.5633 6.80566 15.6287 6.80566 15.7233V18.2623C6.80566 18.3569 6.82299 18.4223 6.8578 18.4585C6.89253 18.4947 6.9516 18.5197 7.03509 18.5337C7.07675 18.542 7.12681 18.5489 7.18518 18.5546C7.24356 18.5601 7.30678 18.565 7.37494 18.5691C7.4431 18.5733 7.51326 18.5768 7.58557 18.5796C7.65789 18.5823 7.72874 18.5838 7.79828 18.5838C7.97904 18.5838 8.14931 18.5698 8.30927 18.542C8.46907 18.5142 8.60807 18.4647 8.72629 18.3937C8.84451 18.3228 8.93831 18.2267 9.00786 18.1057C9.07732 17.9845 9.11213 17.8321 9.11213 17.6483V17.5857ZM8.40314 16.3872C8.40314 16.4317 8.39621 16.4742 8.38226 16.5145C8.36832 16.5549 8.34546 16.5896 8.3135 16.619C8.28145 16.6482 8.23841 16.6718 8.18419 16.6899C8.12997 16.708 8.06112 16.717 7.97772 16.717H7.51064V15.9946C7.5245 15.9946 7.54606 15.994 7.57525 15.9925C7.60444 15.9911 7.63501 15.9905 7.66697 15.9905H7.82754C8.04163 15.9905 8.19112 16.0176 8.27591 16.0719C8.3607 16.1262 8.40314 16.2104 8.40314 16.3245V16.3872ZM8.29678 17.9031C8.3788 17.8391 8.41985 17.7485 8.41985 17.6317V17.5857C8.41985 17.4855 8.38781 17.3985 8.32389 17.3247C8.25989 17.251 8.14453 17.2141 7.97772 17.2141H7.51064V17.9949H7.58356C7.61552 17.9949 7.64887 17.9958 7.68368 17.9971C7.71841 17.9984 7.75176 17.9992 7.7838 17.9992H7.85257C8.06666 17.9992 8.21477 17.9671 8.29678 17.9031ZM11.3978 16.9718C11.3978 16.8188 11.3748 16.6885 11.3289 16.5814C11.2831 16.4743 11.2184 16.3865 11.135 16.3183C11.0516 16.2501 10.9494 16.2001 10.8284 16.168C10.7075 16.136 10.5719 16.12 10.4218 16.12C10.2827 16.12 10.1471 16.1298 10.0151 16.1493C9.88298 16.1687 9.77801 16.1882 9.70024 16.2076C9.6474 16.2217 9.62099 16.2522 9.62099 16.2995V16.6377C9.62099 16.6657 9.62792 16.6852 9.64186 16.6962C9.65572 16.7074 9.67373 16.713 9.69608 16.713H9.71686L9.84201 16.7025C9.89207 16.6983 9.94837 16.695 10.011 16.692C10.0735 16.6893 10.1388 16.6872 10.207 16.6858C10.2751 16.6844 10.3425 16.6837 10.4093 16.6837C10.5066 16.6837 10.583 16.7018 10.6386 16.738C10.6942 16.7742 10.722 16.8522 10.722 16.9718V17.1222H10.4969C10.1381 17.1222 9.87744 17.1786 9.71479 17.2913C9.55214 17.404 9.47081 17.5829 9.47081 17.8279V17.8656C9.47081 18.0019 9.49099 18.116 9.53126 18.2078C9.57154 18.2997 9.62515 18.3735 9.69183 18.4293C9.75861 18.4849 9.83431 18.5246 9.91918 18.5482C10.004 18.5718 10.0923 18.5837 10.184 18.5837C10.3092 18.5837 10.4169 18.567 10.5073 18.5336C10.5976 18.5002 10.6831 18.4543 10.7638 18.3958V18.4626C10.7638 18.4849 10.7721 18.5044 10.7888 18.521C10.8055 18.5378 10.8249 18.5461 10.8472 18.5461H11.3144C11.3365 18.5461 11.356 18.5378 11.3727 18.521C11.3894 18.5044 11.3978 18.4849 11.3978 18.4626V16.9718ZM10.574 18.047C10.6309 18.029 10.6846 18.0074 10.7346 17.9824V17.5231H10.4969C10.4246 17.5231 10.3648 17.5293 10.3175 17.5418C10.2702 17.5544 10.2326 17.5732 10.2049 17.5982C10.1771 17.6232 10.1576 17.6553 10.1465 17.6942C10.1354 17.7332 10.1298 17.7777 10.1298 17.8278V17.8656C10.1298 17.9545 10.1513 18.0116 10.1944 18.0366C10.2376 18.0617 10.3036 18.0742 10.3926 18.0742C10.4565 18.0742 10.517 18.0653 10.574 18.047ZM13.9503 18.4584V17.0678C13.9503 16.9371 13.9399 16.8138 13.9191 16.6983C13.8982 16.5829 13.8607 16.4826 13.8065 16.3976C13.7523 16.3127 13.6772 16.2452 13.5812 16.1952C13.4853 16.145 13.3623 16.12 13.2121 16.12C13.0786 16.12 12.9604 16.1361 12.8576 16.1684C12.7547 16.2006 12.6463 16.2574 12.5323 16.3388V16.2376C12.5323 16.2152 12.5239 16.1955 12.5073 16.1787C12.4905 16.1619 12.4711 16.1534 12.4488 16.1534H11.9817C11.9594 16.1534 11.94 16.1617 11.9233 16.1784C11.9066 16.1952 11.8983 16.2147 11.8983 16.2369V18.4584C11.8983 18.4807 11.9072 18.5009 11.9254 18.5189C11.9434 18.5371 11.9636 18.5461 11.9859 18.5461H12.4905C12.5128 18.5461 12.5323 18.5371 12.5489 18.519C12.5656 18.501 12.5739 18.4809 12.5739 18.4586V16.817C12.6463 16.7781 12.7143 16.7462 12.7783 16.7212C12.8423 16.6962 12.9048 16.6837 12.966 16.6837C13.0299 16.6837 13.0821 16.6899 13.1224 16.7025C13.1627 16.715 13.194 16.7365 13.2162 16.7672C13.2385 16.7976 13.2538 16.8379 13.2621 16.8878C13.2704 16.9378 13.2747 16.999 13.2747 17.0712V18.4586C13.2747 18.4809 13.283 18.501 13.2997 18.519C13.3164 18.5371 13.3358 18.5461 13.3581 18.5461H13.8628C13.8849 18.5461 13.9051 18.5371 13.9232 18.5189C13.9413 18.5009 13.9503 18.4807 13.9503 18.4584ZM16.0023 18.0535V18.425C16.0023 18.4556 15.9953 18.4772 15.9815 18.4897C15.9675 18.5023 15.9453 18.5127 15.9147 18.521C15.8563 18.535 15.7805 18.5489 15.6874 18.5629C15.5942 18.5767 15.4851 18.5837 15.36 18.5837C15.0652 18.5837 14.8296 18.4933 14.6531 18.3122C14.4765 18.1313 14.3882 17.8696 14.3882 17.5272V17.1765C14.3882 16.834 14.4765 16.5724 14.6531 16.3915C14.8296 16.2104 15.0652 16.12 15.36 16.12C15.4851 16.12 15.5942 16.1269 15.6874 16.1408C15.7805 16.1548 15.8563 16.1687 15.9147 16.1826C15.9453 16.1909 15.9675 16.2014 15.9815 16.2139C15.9953 16.2265 16.0023 16.2481 16.0023 16.2787V16.6503C16.0023 16.6726 15.9946 16.6899 15.9794 16.7025C15.9641 16.715 15.9453 16.7212 15.9231 16.7212H15.9147C15.8368 16.713 15.7625 16.706 15.6916 16.7004C15.6207 16.695 15.5254 16.692 15.4059 16.692C15.3586 16.692 15.3141 16.6997 15.2724 16.715C15.2307 16.7303 15.1945 16.7568 15.164 16.7943C15.1333 16.832 15.1091 16.882 15.091 16.9447C15.0729 17.0073 15.0638 17.0846 15.0638 17.1765V17.5272C15.0638 17.619 15.0729 17.6963 15.091 17.759C15.1091 17.8216 15.1333 17.8717 15.164 17.9093C15.1945 17.9469 15.2307 17.9734 15.2724 17.9886C15.3141 18.004 15.3586 18.0116 15.4059 18.0116C15.5254 18.0116 15.6207 18.0088 15.6916 18.0033C15.7625 17.9977 15.8368 17.9907 15.9147 17.9824H15.9231C15.9453 17.9824 15.9641 17.9886 15.9794 18.0012C15.9946 18.0138 16.0023 18.0311 16.0023 18.0535ZM18.3173 17.2057C18.3173 17.0386 18.2943 16.8883 18.2483 16.7547C18.2023 16.6211 18.1354 16.5077 18.0477 16.4144C17.96 16.3212 17.8513 16.2487 17.7218 16.1972C17.5922 16.1458 17.4424 16.12 17.2725 16.12C17.1026 16.12 16.9528 16.1458 16.8232 16.1972C16.6937 16.2487 16.5843 16.3212 16.4952 16.4144C16.406 16.5077 16.3384 16.6211 16.2925 16.7547C16.2464 16.8883 16.2235 17.0386 16.2235 17.2057V17.498C16.2235 17.665 16.2464 17.8154 16.2925 17.949C16.3384 18.0826 16.406 18.196 16.4952 18.2893C16.5843 18.3826 16.6937 18.4549 16.8232 18.5065C16.9528 18.5579 17.1026 18.5837 17.2725 18.5837C17.4424 18.5837 17.5922 18.5579 17.7218 18.5065C17.8513 18.4549 17.96 18.3826 18.0477 18.2893C18.1354 18.196 18.2023 18.0826 18.2483 17.949C18.2943 17.8154 18.3173 17.665 18.3173 17.498V17.2057ZM17.2725 18.0116C17.5185 18.0116 17.6416 17.8404 17.6416 17.498V17.2057C17.6416 16.8661 17.5185 16.6962 17.2725 16.6962C17.1508 16.6962 17.0582 16.7387 16.9946 16.8236C16.931 16.9085 16.8992 17.0359 16.8992 17.2057V17.498C16.8992 17.6678 16.931 17.7959 16.9946 17.8821C17.0582 17.9685 17.1508 18.0116 17.2725 18.0116ZM20.7988 18.4584V17.0678C20.7988 16.9371 20.7882 16.8138 20.7675 16.6983C20.7466 16.5829 20.7091 16.4826 20.6548 16.3976C20.6005 16.3127 20.5255 16.2452 20.4297 16.1952C20.3337 16.145 20.2106 16.12 20.0605 16.12C19.9271 16.12 19.8089 16.1361 19.706 16.1684C19.6031 16.2006 19.4946 16.2574 19.3807 16.3388V16.2376C19.3807 16.2152 19.3723 16.1955 19.3555 16.1787C19.339 16.1619 19.3194 16.1534 19.2973 16.1534H18.8301C18.8078 16.1534 18.7884 16.1617 18.7717 16.1784C18.7551 16.1952 18.7467 16.2147 18.7467 16.2369V18.4584C18.7467 18.4807 18.7557 18.5009 18.7738 18.5189C18.7919 18.5371 18.812 18.5461 18.8343 18.5461H19.339C19.3612 18.5461 19.3807 18.5371 19.3974 18.519C19.414 18.501 19.4224 18.4809 19.4224 18.4586V16.817C19.4946 16.7781 19.5628 16.7462 19.6267 16.7212C19.6907 16.6962 19.7532 16.6837 19.8145 16.6837C19.8784 16.6837 19.9305 16.6899 19.9708 16.7025C20.0111 16.715 20.0424 16.7365 20.0647 16.7672C20.087 16.7976 20.1022 16.8379 20.1106 16.8878C20.1189 16.9378 20.1231 16.999 20.1231 17.0712V18.4586C20.1231 18.4809 20.1314 18.501 20.1481 18.519C20.1648 18.5371 20.1842 18.5461 20.2065 18.5461H20.7111C20.7334 18.5461 20.7536 18.5371 20.7717 18.5189C20.7897 18.5009 20.7988 18.4807 20.7988 18.4584ZM22.6174 18.1447V18.4679C22.6174 18.5148 22.591 18.5424 22.5382 18.5506C22.4742 18.5617 22.4186 18.5699 22.3714 18.5755C22.3241 18.581 22.2698 18.5838 22.2087 18.5838C22.0952 18.5838 21.995 18.5747 21.908 18.5567C21.821 18.5385 21.7483 18.5031 21.6903 18.4502C21.6323 18.3973 21.5881 18.3242 21.5577 18.2309C21.5274 18.1377 21.5121 18.0174 21.5121 17.8697V16.6588L21.1785 16.6044C21.1561 16.5989 21.1361 16.5885 21.118 16.5731C21.0999 16.5579 21.0908 16.5391 21.0908 16.5168V16.2411C21.0908 16.2189 21.0999 16.1987 21.118 16.1806C21.1361 16.1626 21.1561 16.1535 21.1785 16.1535H21.5121V15.811C21.5121 15.7887 21.5204 15.7707 21.537 15.7568C21.5534 15.7429 21.5729 15.7332 21.5951 15.7275L22.1008 15.64H22.1132C22.1353 15.64 22.1533 15.6461 22.1671 15.6586C22.1809 15.6712 22.1878 15.6886 22.1878 15.7108V16.1535H22.5298C22.552 16.1535 22.5715 16.1619 22.5882 16.1787C22.6049 16.1955 22.6132 16.2153 22.6132 16.2377V16.5787C22.6132 16.6012 22.6049 16.6208 22.5882 16.6377C22.5715 16.6545 22.552 16.6629 22.5298 16.6629H22.1878V17.8781C22.1878 17.9616 22.1948 18.0152 22.2087 18.0388C22.2226 18.0625 22.2614 18.0743 22.3254 18.0743H22.5298C22.5882 18.0743 22.6174 18.0978 22.6174 18.1447ZM24.8445 16.9718C24.8445 16.8188 24.8217 16.6885 24.7757 16.5814C24.7299 16.4743 24.6653 16.3865 24.5819 16.3183C24.4984 16.2501 24.3962 16.2001 24.2753 16.168C24.1544 16.136 24.0188 16.12 23.8686 16.12C23.7295 16.12 23.594 16.1298 23.462 16.1493C23.3298 16.1687 23.2249 16.1882 23.1471 16.2076C23.0941 16.2217 23.0679 16.2522 23.0679 16.2995V16.6377C23.0679 16.6657 23.0747 16.6852 23.0886 16.6962C23.1026 16.7074 23.1206 16.713 23.1429 16.713H23.1637L23.2889 16.7025C23.3389 16.6983 23.3952 16.695 23.4578 16.692C23.5204 16.6893 23.5857 16.6872 23.6538 16.6858C23.7219 16.6844 23.7894 16.6837 23.8561 16.6837C23.9534 16.6837 24.0299 16.7018 24.0855 16.738C24.1411 16.7742 24.1689 16.8522 24.1689 16.9718V17.1222H23.9437C23.5849 17.1222 23.3243 17.1786 23.1616 17.2913C22.999 17.404 22.9177 17.5829 22.9177 17.8279V17.8656C22.9177 18.0019 22.9378 18.116 22.9781 18.2078C23.0183 18.2997 23.072 18.3735 23.1387 18.4293C23.2055 18.4849 23.2812 18.5246 23.366 18.5482C23.4508 18.5718 23.5391 18.5837 23.6309 18.5837C23.756 18.5837 23.8637 18.567 23.9541 18.5336C24.0444 18.5002 24.1298 18.4543 24.2106 18.3958V18.4626C24.2106 18.4849 24.219 18.5044 24.2357 18.521C24.2523 18.5378 24.2718 18.5461 24.2941 18.5461H24.7612C24.7834 18.5461 24.8029 18.5378 24.8196 18.521C24.8362 18.5044 24.8445 18.4849 24.8445 18.4626V16.9718ZM24.0209 18.047C24.0778 18.029 24.1314 18.0074 24.1815 17.9824V17.5231H23.9437C23.8714 17.5231 23.8117 17.5293 23.7644 17.5418C23.7171 17.5544 23.6795 17.5732 23.6518 17.5982C23.6239 17.6232 23.6044 17.6553 23.5934 17.6942C23.5822 17.7332 23.5767 17.7777 23.5767 17.8278V17.8656C23.5767 17.9545 23.5982 18.0116 23.6413 18.0366C23.6844 18.0617 23.7504 18.0742 23.8395 18.0742C23.9034 18.0742 23.9637 18.0653 24.0209 18.047ZM26.8966 18.425V18.0535C26.8966 18.0311 26.8889 18.0138 26.8737 18.0012C26.8584 17.9886 26.8397 17.9824 26.8174 17.9824H26.8091C26.7312 17.9907 26.6568 17.9977 26.5859 18.0033C26.5151 18.0088 26.4198 18.0116 26.3003 18.0116C26.2529 18.0116 26.2084 18.004 26.1668 17.9886C26.1251 17.9734 26.0889 17.9469 26.0583 17.9093C26.0277 17.8717 26.0034 17.8216 25.9854 17.759C25.9672 17.6963 25.9582 17.619 25.9582 17.5272V17.1765C25.9582 17.0846 25.9672 17.0073 25.9854 16.9447C26.0034 16.882 26.0277 16.832 26.0583 16.7943C26.0889 16.7568 26.1251 16.7303 26.1668 16.715C26.2084 16.6997 26.2529 16.692 26.3003 16.692C26.4198 16.692 26.5151 16.695 26.5859 16.7004C26.6568 16.706 26.7312 16.713 26.8091 16.7212H26.8174C26.8397 16.7212 26.8584 16.715 26.8737 16.7025C26.8889 16.6899 26.8966 16.6726 26.8966 16.6503V16.2787C26.8966 16.2481 26.8897 16.2265 26.8758 16.2139C26.8617 16.2014 26.8397 16.1909 26.8091 16.1826C26.7507 16.1687 26.6748 16.1548 26.5817 16.1408C26.4886 16.1269 26.3795 16.12 26.2544 16.12C25.9595 16.12 25.724 16.2104 25.5474 16.3915C25.3708 16.5724 25.2825 16.834 25.2825 17.1765V17.5272C25.2825 17.8696 25.3708 18.1313 25.5474 18.3122C25.724 18.4933 25.9595 18.5837 26.2544 18.5837C26.3795 18.5837 26.4886 18.5767 26.5817 18.5629C26.6748 18.5489 26.7507 18.535 26.8091 18.521C26.8397 18.5127 26.8617 18.5023 26.8758 18.4897C26.8897 18.4772 26.8966 18.4556 26.8966 18.425ZM28.6942 18.1447V18.4679C28.6942 18.5148 28.6677 18.5424 28.615 18.5506C28.551 18.5617 28.4954 18.5699 28.4482 18.5755C28.4008 18.581 28.3466 18.5838 28.2855 18.5838C28.1721 18.5838 28.0718 18.5747 27.9848 18.5567C27.8977 18.5385 27.8251 18.5031 27.7672 18.4502C27.7091 18.3973 27.6649 18.3242 27.6345 18.2309C27.6042 18.1377 27.5889 18.0174 27.5889 17.8697V16.6588L27.2553 16.6044C27.233 16.5989 27.2129 16.5885 27.1948 16.5731C27.1767 16.5579 27.1677 16.5391 27.1677 16.5168V16.2411C27.1677 16.2189 27.1767 16.1987 27.1948 16.1806C27.2129 16.1626 27.233 16.1535 27.2553 16.1535H27.5889V15.811C27.5889 15.7887 27.5972 15.7707 27.6138 15.7568C27.6302 15.7429 27.6496 15.7332 27.6718 15.7275L28.1775 15.64H28.19C28.2121 15.64 28.2301 15.6461 28.2438 15.6586C28.2577 15.6712 28.2646 15.6886 28.2646 15.7108V16.1535H28.6067C28.6288 16.1535 28.6483 16.1619 28.665 16.1787C28.6817 16.1955 28.6901 16.2153 28.6901 16.2377V16.5787C28.6901 16.6012 28.6817 16.6208 28.665 16.6377C28.6483 16.6545 28.6288 16.6629 28.6067 16.6629H28.2646V17.8781C28.2646 17.9616 28.2716 18.0152 28.2855 18.0388C28.2994 18.0625 28.3383 18.0743 28.4023 18.0743H28.6067C28.665 18.0743 28.6942 18.0978 28.6942 18.1447Z" fill="#005697"/>
<path d="M26.3094 7.36993H19.5332L18.8441 8.14678L16.6077 10.6675V10.6676L15.9186 11.4443H9.232L9.91049 10.6577L10.2316 10.2853L10.9101 9.4987H7.82912C7.26625 9.4987 6.80566 9.97154 6.80566 10.5494V12.7663C6.80566 13.3443 7.26625 13.8171 7.82912 13.8171H19.6246C20.1874 13.8171 20.9564 13.4659 21.3333 13.0367L23.1175 11.0049L26.3094 7.36993Z" fill="#005697"/>
<path d="M27.6709 5C28.2337 5 28.6943 5.47284 28.6943 6.05077V8.26764C28.6943 8.84548 28.2337 9.31841 27.6709 9.31841H24.5999L25.2848 8.53766H25.2849L25.6245 8.15058L26.3094 7.36991H19.5333L15.9187 11.4473H9.19061L14.0157 5.98504L14.1982 5.77832C14.5764 5.35023 15.3464 5 15.9093 5H27.6709V5Z" fill="#FBD500"/>
</svg>
