<svg width="35" height="24" viewBox="0 0 35 24" fill="none" xmlns="http://www.w3.org/2000/svg">
<path fill-rule="evenodd" clip-rule="evenodd" d="M25.627 12.0646C25.627 16.5185 22.0165 20.1292 17.5628 20.1292C13.1091 20.1292 9.4986 16.5185 9.4986 12.0646C9.4986 7.61064 13.1091 4 17.5628 4C22.0165 4 25.627 7.61064 25.627 12.0646ZM19.5002 9.06828C20.6219 9.45351 21.4425 10.0303 21.2815 11.1038C21.1646 11.8899 20.7272 12.2701 20.1461 12.4032C20.9434 12.8167 21.2151 13.6014 20.9626 14.5502C20.4832 15.9157 19.3438 16.0306 17.8282 15.7452L17.4602 17.213L16.5718 16.9922L16.9347 15.5441C16.7044 15.4871 16.469 15.4261 16.2265 15.361L15.8621 16.8162L14.9747 16.5954L15.3422 15.1245L13.5527 14.6748L13.9941 13.6613C13.9941 13.6613 14.6492 13.8342 14.6401 13.8216C14.8916 13.8836 15.0035 13.7203 15.0476 13.6119L16.0448 9.62797C16.0559 9.43989 15.9906 9.20291 15.6307 9.11316C15.6444 9.10358 14.9853 8.95332 14.9853 8.95332L15.2217 8.00789L17.0137 8.4501L17.3781 6.99591L18.266 7.21676L17.9092 8.64221C18.1481 8.69616 18.388 8.75112 18.6214 8.80911L18.9757 7.39274L19.8641 7.61359L19.5002 9.06828ZM17.3744 11.4941C17.9796 11.6545 19.2965 12.0037 19.526 11.0882C19.7601 10.1516 18.4808 9.86878 17.8544 9.73028L17.8543 9.73027C17.7834 9.71457 17.7208 9.70074 17.6697 9.68801L17.2273 11.4558C17.2694 11.4662 17.3189 11.4794 17.3744 11.4941ZM16.6888 14.3404C17.4136 14.5313 18.9989 14.9489 19.2511 13.9402C19.5093 12.9088 17.9723 12.5652 17.2223 12.3976C17.1386 12.3789 17.0646 12.3624 17.004 12.3473L16.5161 14.2956C16.5656 14.3079 16.6237 14.3232 16.6887 14.3403L16.6888 14.3404Z" fill="#F7931A"/>
</svg>
