<svg width="35" height="24" viewBox="0 0 35 24" fill="none" xmlns="http://www.w3.org/2000/svg">
<path d="M11.9177 12.5556C11.6371 13.9083 10.4187 14.9254 8.95852 14.9254C8.6235 14.9254 8.30101 14.8717 8.00013 14.7727L7.32941 16.7407C7.84128 16.909 8.38895 17 8.95852 17C11.4406 17 13.511 15.2704 13.9881 12.9719L11.9177 12.5556Z" fill="#EC412A"/>
<path fill-rule="evenodd" clip-rule="evenodd" d="M23.9526 8.11116V13.8014L24.9737 14.2107L24.4906 15.3331L23.4808 14.9272C23.2538 14.8319 23.1001 14.6869 22.9833 14.523C22.8712 14.3554 22.7881 14.1263 22.7881 13.8171V8.11116H23.9526ZM16.208 12.3404C16.2334 10.7131 17.6192 9.41419 19.3007 9.43911C20.7279 9.46076 21.9105 10.4274 22.2211 11.7131L16.7011 13.9945C16.3804 13.5205 16.1982 12.9502 16.208 12.3404ZM17.471 12.5685C17.4635 12.5002 17.4581 12.4302 17.4601 12.3596C17.476 11.4009 18.2918 10.6359 19.2826 10.6518C19.8218 10.6587 20.3006 10.8975 20.6243 11.2671L17.471 12.5685ZM20.5081 13.6249C20.1754 13.9378 19.7243 14.1285 19.2262 14.1216C18.8847 14.1161 18.5684 14.0173 18.2994 13.8526L17.6325 14.88C18.0892 15.1592 18.6277 15.3243 19.2082 15.333C20.0533 15.3452 20.8235 15.0242 21.3835 14.4941L20.5081 13.6249ZM28.2025 10.6517C28.0036 10.6517 27.8124 10.6828 27.6338 10.7407L27.2365 9.58939C27.5397 9.49147 27.8645 9.43828 28.2025 9.43828C29.6773 9.43828 30.9077 10.4513 31.1898 11.7971L29.9598 12.0396C29.7941 11.2476 29.0703 10.6517 28.2025 10.6517ZM26.183 14.5936L27.0141 13.6848C26.6429 13.367 26.4092 12.9029 26.4092 12.3856C26.4092 11.8688 26.6429 11.4049 27.0138 11.0874L26.1821 10.1786C25.5515 10.7186 25.1543 11.5076 25.1543 12.3856C25.1543 13.2647 25.5518 14.0534 26.183 14.5936ZM28.2024 14.1201C29.0694 14.1201 29.7931 13.5248 29.9598 12.7339L31.1894 12.9774C30.9059 14.3217 29.6759 15.3334 28.2024 15.3334C27.8642 15.3334 27.539 15.28 27.2349 15.1817L27.6332 14.0307C27.8121 14.0885 28.0034 14.1201 28.2024 14.1201Z" fill="black"/>
<path d="M5.53441 15.8889L6.77447 14.2878C6.22095 13.7279 5.87158 12.9105 5.87158 11.9994C5.87158 11.089 6.22062 10.2716 6.77399 9.71214L5.53327 8.11116C4.59271 9.06238 4 10.4518 4 11.9994C4 13.5478 4.59358 14.9377 5.53441 15.8889Z" fill="#1BA7DE"/>
<path d="M7.99918 9.22531C8.30004 9.12667 8.62189 9.07312 8.95677 9.07312C10.4183 9.07312 11.6374 10.0915 11.9171 11.4444L13.9881 11.0302C13.5129 8.73084 11.4411 7 8.95677 7C8.38798 7 7.84049 7.0909 7.32941 7.25834L7.99918 9.22531Z" fill="#FECA2F"/>
</svg>
