<svg width="35" height="24" viewBox="0 0 35 24" fill="none" xmlns="http://www.w3.org/2000/svg">
<path fill-rule="evenodd" clip-rule="evenodd" d="M10.6288 10.2388H15.073H15.1967C15.1967 10.2388 15.2705 7.14094 16.016 6.2395C17.2769 4.71625 18.655 4.63429 19.2016 4.60179C19.2566 4.59852 19.3032 4.59575 19.3404 4.59206C19.3805 4.5877 19.4161 4.58647 19.4526 4.58525C18.9559 4.5344 18.4169 4.50714 17.8319 4.50043C17.7606 4.49998 17.6917 4.49998 17.6213 4.49998H17.4965C17.4263 4.49998 17.3571 4.49998 17.2861 4.50043C12.6674 4.55351 10.8943 5.87387 10.555 10.2388H10.6288ZM14.7441 15.5502C14.2231 16.2018 13.4729 16.158 13.4624 16.1574V18.806C11.6066 18.0568 10.7701 16.4945 10.552 13.6139C10.5256 13.2668 10.5098 12.9617 10.5 12.709L15.1968 12.7072L15.1937 12.987C15.1881 13.4701 15.1774 14.4088 15.1786 14.4401C15.1822 14.5777 15.1474 15.0464 14.7441 15.5502ZM20.9395 4.84698C23.2997 5.47554 24.3219 7.04644 24.5659 10.2736C24.6419 11.2759 24.6332 11.9436 24.6332 11.9436C24.6332 11.9436 24.642 12.6116 24.5661 13.6138C24.2338 18.0067 22.4628 19.3337 17.832 19.387C17.7607 19.3874 17.3572 19.3874 17.2862 19.387C16.483 19.3776 15.7684 19.329 15.1299 19.234C15.1326 19.234 15.1354 19.2339 15.1381 19.2339C15.1577 19.2337 15.1769 19.2336 15.1968 19.2322C16.0346 19.1841 17.2011 18.5379 17.8954 17.0346C18.1987 16.3773 18.2801 15.2037 18.2801 15.2037V12.7078H18.2804V12.7071H20.8167H20.9397V10.2386H20.8167H18.2806C18.2806 10.2386 18.2806 10.2383 18.2804 10.2382C18.2804 10.2382 18.2792 10.2356 18.2783 10.2309L18.2777 10.2277C18.277 10.2257 18.2765 10.2235 18.2759 10.2212C18.2751 10.2183 18.2743 10.215 18.273 10.2109C18.2729 10.2101 18.2727 10.209 18.2725 10.2078C18.2723 10.2063 18.272 10.2046 18.2719 10.2031C18.27 10.1959 18.2683 10.189 18.2669 10.1795C18.2663 10.1772 18.2659 10.1744 18.2655 10.1715C18.2652 10.1696 18.265 10.1677 18.2646 10.1659C18.2628 10.1566 18.2614 10.1472 18.2599 10.1362C18.2588 10.1318 18.2585 10.1264 18.2581 10.1213C18.2581 10.1201 18.258 10.119 18.2579 10.1178C18.2561 10.1061 18.2549 10.0949 18.2534 10.0815C18.2532 10.0788 18.2531 10.0759 18.253 10.0729C18.2529 10.0687 18.2527 10.0643 18.2523 10.0603C18.2521 10.0575 18.2519 10.0547 18.2518 10.0519C18.251 10.0405 18.2503 10.029 18.2501 10.0161C18.25 10.0123 18.25 10.0083 18.25 10.0043C18.25 10.0002 18.25 9.99619 18.2498 9.99234C18.2498 9.98676 18.2497 9.98122 18.2496 9.97563C18.2494 9.96431 18.2492 9.9528 18.2498 9.94038C18.2498 9.93608 18.2501 9.93144 18.2504 9.92673C18.2506 9.92311 18.2509 9.91945 18.251 9.9159C18.2514 9.89612 18.2522 9.87646 18.2543 9.85456C18.2545 9.85139 18.2549 9.84803 18.2553 9.8446C18.2557 9.84089 18.2561 9.8371 18.2563 9.83344C18.2585 9.80952 18.2612 9.78539 18.2649 9.75969C18.2652 9.75726 18.2656 9.75474 18.2661 9.75224C18.2666 9.7498 18.2671 9.74737 18.2673 9.74505C18.2718 9.71599 18.2766 9.68649 18.2829 9.65543C18.2829 9.65501 18.283 9.65447 18.2831 9.65388C18.2832 9.65352 18.2833 9.65313 18.2834 9.65275C18.3283 9.43697 18.4246 9.17135 18.6176 8.87043C19.1365 8.06297 20.6102 8.10096 20.8928 8.11594C20.9224 8.11772 20.9391 8.11895 20.9395 8.11895V4.84698ZM15.0792 19.2192C15.0647 19.2192 15.0502 19.2189 15.0359 19.2186L15.0361 19.2186C15.0504 19.2189 15.0647 19.2192 15.0792 19.2192Z" fill="#659AD2"/>
</svg>
