<svg width="35" height="24" viewBox="0 0 35 24" fill="none" xmlns="http://www.w3.org/2000/svg">
<path fill-rule="evenodd" clip-rule="evenodd" d="M4 14.4601C4.01831 14.3617 4.03508 14.2664 4.05152 14.173C4.07692 14.0286 4.10154 13.8887 4.12984 13.7488C4.2497 13.116 4.37039 12.484 4.49107 11.852C4.61176 11.22 4.73245 10.5881 4.8523 9.95525C4.86895 9.87511 4.89225 9.82168 4.97216 9.80832C5.59473 9.71482 6.22064 9.64803 6.84322 9.80498C7.3859 9.93856 7.76544 10.3226 7.82869 10.7734C7.95854 11.6717 7.43584 12.3897 6.66011 12.6468C6.25061 12.7804 5.83444 12.8138 5.41162 12.7737C5.31174 12.7637 5.28178 12.7904 5.26513 12.8872C5.17524 13.3781 5.08202 13.8657 4.98547 14.3532C4.97881 14.3933 4.94219 14.4568 4.91889 14.4568C4.69267 14.4617 4.47017 14.4611 4.2389 14.4605H4.23887H4.23884H4.23881H4.23878H4.23875H4.23859H4.23843H4.23827H4.23811H4.23794C4.15979 14.4603 4.08064 14.4601 4 14.4601ZM5.62114 11.9824L5.62116 11.9824H5.62116C5.75139 11.9859 5.87436 11.9893 5.99426 11.9757C6.34051 11.9389 6.61684 11.782 6.77332 11.4514C6.94977 11.0774 6.82326 10.68 6.49033 10.5631C6.25394 10.4796 6.01091 10.4963 5.76787 10.5297C5.7379 10.533 5.69795 10.5798 5.69129 10.6098C5.64472 10.8546 5.59815 11.1004 5.54983 11.3555L5.43161 11.979C5.49669 11.979 5.55972 11.9807 5.62114 11.9824ZM9.90285 13.8188C9.85018 13.8738 9.80083 13.9291 9.7526 13.9831L9.7526 13.9831C9.64843 14.0998 9.54948 14.2107 9.43342 14.2997C9.08385 14.5702 8.68433 14.6303 8.28149 14.4433C7.88197 14.2596 7.71883 13.9023 7.70219 13.4815C7.66557 12.5966 7.97519 11.8653 8.71762 11.3577C9.18373 11.0371 9.71974 10.9403 10.2757 10.9703C10.4597 10.9812 10.6422 11.0132 10.8251 11.0452C10.9236 11.0625 11.0223 11.0798 11.1214 11.0939C11.2346 11.1106 11.2512 11.174 11.2312 11.2709C11.2045 11.4105 11.1775 11.55 11.1505 11.6894L11.1505 11.6894L11.1505 11.6894L11.1505 11.6894L11.1505 11.6895L11.1505 11.6895L11.1505 11.6895L11.1505 11.6895L11.1505 11.6895C11.0497 12.2102 10.9491 12.7296 10.865 13.2511C10.8168 13.5497 10.7976 13.8555 10.7786 14.1583V14.1583C10.7752 14.2111 10.7719 14.2638 10.7685 14.3164C10.7618 14.4232 10.7352 14.4667 10.6253 14.4633C10.4189 14.4566 10.2125 14.4566 10.0061 14.4633C9.89953 14.4667 9.8629 14.4266 9.87289 14.3231C9.8824 14.2087 9.88851 14.0908 9.89486 13.9684L9.89487 13.9682C9.89742 13.9191 9.9 13.8694 9.90285 13.8188ZM10.1359 11.7551C9.81297 11.6649 9.54329 11.7284 9.3169 11.9187C8.89075 12.2794 8.69765 12.7469 8.73427 13.3046C8.74426 13.4749 8.81085 13.6385 8.99063 13.712C9.17041 13.7855 9.33355 13.732 9.47338 13.6118C9.55661 13.5383 9.63651 13.4549 9.69644 13.3613C9.93127 13.0018 9.99542 12.5963 10.0606 12.1844C10.0832 12.0415 10.1059 11.8979 10.1359 11.7551ZM14.8535 13.6253C15.0366 14.213 15.5393 14.5403 16.4216 14.5403C17.0275 14.5236 17.6301 14.1796 18.0064 13.4717C18.2061 13.091 18.2794 12.6836 18.2527 12.2561C18.2294 11.8454 18.0663 11.4981 17.7334 11.251C17.3838 10.9905 16.9843 10.9371 16.5581 10.9838C15.1332 11.1441 14.5505 12.6569 14.8535 13.6253ZM15.8016 13.1348C15.802 13.1178 15.8024 13.1008 15.8024 13.0843C15.8123 12.7002 15.9056 12.3429 16.1353 12.0257C16.2385 11.8854 16.3683 11.7786 16.5415 11.7385C16.8944 11.6583 17.184 11.862 17.2173 12.2461C17.2573 12.7169 17.1441 13.151 16.8478 13.5284C16.7346 13.6687 16.5914 13.7655 16.4083 13.7822C16.0787 13.8122 15.829 13.5885 15.8024 13.2379C15.8001 13.2044 15.8009 13.1693 15.8016 13.1348ZM19.0451 11.0538H19.8908C19.8775 11.2341 19.8641 11.4078 19.8475 11.5848C19.8783 11.556 19.9081 11.5275 19.9374 11.4996L19.9374 11.4996L19.9374 11.4996L19.9374 11.4996C19.9997 11.4402 20.0593 11.3833 20.1205 11.331C20.4501 11.0438 20.8263 10.9169 21.2624 10.987C21.622 11.0471 21.8717 11.3109 21.9117 11.6816C21.9551 12.0673 21.883 12.4414 21.811 12.8148L21.7951 12.8972C21.766 13.0487 21.7371 13.2001 21.7083 13.3515L21.7082 13.3522L21.7081 13.3526L21.708 13.353L21.7079 13.3534C21.6448 13.6853 21.5817 14.0167 21.5155 14.3465C21.5055 14.3899 21.4555 14.4533 21.4223 14.4567C21.1359 14.4633 20.8496 14.46 20.5633 14.4567C20.5537 14.4567 20.5441 14.4515 20.5295 14.4435L20.5295 14.4435C20.5238 14.4405 20.5175 14.437 20.51 14.4333C20.5633 14.1561 20.6166 13.8756 20.6665 13.5951C20.7431 13.1643 20.8163 12.7369 20.8829 12.3061C20.8962 12.2326 20.8896 12.1558 20.8796 12.0823C20.8529 11.8252 20.6632 11.7083 20.4168 11.7851C20.1771 11.8619 20.0339 12.049 19.9174 12.256C19.7443 12.5599 19.6844 12.8972 19.6244 13.2344L19.5797 13.4848L19.5797 13.4849C19.5288 13.7711 19.4781 14.0561 19.4213 14.3431C19.4114 14.3865 19.3614 14.4533 19.3281 14.4567C19.0947 14.4646 18.8591 14.4641 18.6079 14.4636H18.6079H18.6079H18.6079L18.4126 14.4633C18.6323 13.3146 18.8387 12.1892 19.0451 11.0538ZM23.8459 13.7622C23.493 13.7188 23.2567 13.4717 23.28 13.1244C23.3536 13.1244 23.4268 13.1255 23.4997 13.1266L23.4997 13.1266C23.6443 13.1289 23.7875 13.1311 23.9292 13.1244C24.2721 13.1044 24.6084 13.0476 24.9213 12.8906C25.3208 12.6903 25.5073 12.3597 25.4773 11.9289C25.4473 11.4914 25.211 11.1742 24.7881 11.0473C24.1556 10.8569 23.5729 10.9905 23.0769 11.4146C22.4743 11.9289 22.2479 12.6101 22.3344 13.3882C22.3944 13.9392 22.694 14.3333 23.24 14.4735C23.826 14.6238 24.4019 14.5436 24.9579 14.3166C24.9979 14.2999 25.0445 14.2364 25.0412 14.1963C25.0332 14.0334 25.0167 13.8704 25.0001 13.7075L24.9879 13.5852C24.977 13.5852 24.9688 13.5847 24.9626 13.5842C24.9536 13.5836 24.9485 13.5833 24.9446 13.5852L24.9446 13.5852L24.9445 13.5853L24.9445 13.5853C24.9079 13.5986 24.8713 13.612 24.8381 13.6253C24.5185 13.7489 24.1889 13.8023 23.8459 13.7622ZM24.362 12.2828C24.1589 12.3897 23.6328 12.4532 23.3765 12.3997C23.4298 11.9556 23.8992 11.6083 24.2954 11.7051C24.4285 11.7385 24.5251 11.8087 24.5484 11.9522C24.5717 12.0925 24.5018 12.2094 24.362 12.2828ZM26.606 13.1378C26.576 13.4651 26.8091 13.7155 27.1653 13.7623C27.4982 13.8023 27.8178 13.7522 28.1308 13.6387C28.1596 13.6279 28.1875 13.617 28.2181 13.6051L28.2181 13.6051C28.244 13.595 28.2719 13.5842 28.3039 13.5719C28.3104 13.6425 28.3176 13.7118 28.3247 13.78L28.3248 13.7804L28.3248 13.7804C28.3395 13.9218 28.3538 14.0591 28.3605 14.1964C28.3638 14.2365 28.3172 14.2999 28.2806 14.3166C27.7146 14.5504 27.132 14.6305 26.5361 14.4669C26 14.3199 25.7204 13.9292 25.6538 13.3949C25.5706 12.7104 25.747 12.0926 26.2231 11.585C26.7358 11.0407 27.365 10.847 28.0908 11.0473C28.5336 11.1709 28.77 11.4915 28.7966 11.9423C28.8233 12.3831 28.6235 12.7137 28.2074 12.9074C27.7879 13.1011 27.3417 13.1311 26.889 13.1411C26.7991 13.1378 26.7058 13.1378 26.606 13.1378ZM26.8812 12.4168L26.8812 12.4168C27.0289 12.4094 27.1712 12.4022 27.3118 12.3831C27.445 12.3664 27.5781 12.3264 27.698 12.2696C27.8278 12.2128 27.8911 12.0926 27.8711 11.9457C27.8511 11.8054 27.7579 11.7386 27.6281 11.7052C27.2352 11.5984 26.7458 11.959 26.7025 12.4265C26.7631 12.4227 26.8226 12.4197 26.8812 12.4168ZM28.9797 13.7622C28.9364 13.9893 28.8965 14.213 28.8532 14.4601C28.9199 14.4601 28.9856 14.4603 29.0506 14.4604C29.3067 14.4609 29.551 14.4615 29.7954 14.4535C29.8187 14.4535 29.8553 14.39 29.862 14.3499C29.8959 14.1832 29.9274 14.0155 29.9589 13.848C30.0169 13.5391 30.0749 13.2304 30.1483 12.9274C30.3114 12.2528 30.5877 12.019 31.2436 11.9322C31.2703 11.9289 31.3135 11.8988 31.3202 11.8755C31.362 11.6835 31.3994 11.4902 31.4382 11.2895C31.4582 11.1865 31.4785 11.0815 31.5 10.9738C30.8674 10.907 30.5145 11.2744 30.2082 11.7252L30.2131 11.66C30.2282 11.4606 30.2435 11.2577 30.2615 11.0439C30.1923 11.0439 30.1243 11.0437 30.0574 11.0435C29.8602 11.0429 29.6713 11.0423 29.4824 11.0473C29.4558 11.0506 29.4058 11.1107 29.4025 11.1475C29.3315 12.0058 29.1633 12.8452 28.9953 13.6841L28.9797 13.7622Z" fill="black"/>
<path fill-rule="evenodd" clip-rule="evenodd" d="M20.165 7.02536C20.1313 7.01644 20.0976 7.00751 20.0639 7C19.9606 7 19.8574 7 19.7476 7.00334C19.71 7.01087 19.6725 7.01907 19.6347 7.02735C19.5886 7.03742 19.5421 7.0476 19.4945 7.05677C18.9852 7.15361 18.5057 7.3306 18.043 7.56436C17.0409 8.07195 16.1419 8.72981 15.3363 9.50788C14.8002 10.0222 14.2809 10.5598 13.7781 11.1108C12.8959 12.0792 12.1401 13.1445 11.5375 14.3133C11.2279 14.9177 10.9482 15.5355 10.8217 16.2067C10.7984 16.3303 10.8384 16.4739 10.8783 16.5974C10.895 16.6475 10.9882 16.6842 11.0514 16.7043C11.0681 16.711 11.118 16.6275 11.1413 16.5807C11.1496 16.5626 11.1581 16.544 11.1667 16.5251C11.3113 16.2083 11.5068 15.78 11.6765 15.4964C12.036 14.8954 12.3199 14.4302 12.7228 13.8591C13.3686 12.9408 14.1233 12.0398 14.9157 11.245C15.6648 10.4936 16.4149 9.82179 17.3571 9.3142C17.7899 9.08378 18.2327 8.8567 18.6855 8.6697C19.4679 8.34578 20.2836 8.12538 21.1226 8.00182C21.2125 7.98846 21.3323 7.91833 21.3623 7.84487C21.3889 7.77808 21.3257 7.65118 21.2624 7.58773C21.006 7.32392 20.7064 7.12356 20.3335 7.06345C20.2773 7.0551 20.2212 7.04023 20.165 7.02536ZM12.543 11.5817C12.7028 11.1476 12.7827 10.6968 12.7927 10.2293C12.7882 10.1792 12.7845 10.1291 12.7808 10.079C12.7734 9.97884 12.766 9.87865 12.7527 9.77847C12.6628 9.00373 12.3299 8.34587 11.8006 7.78151C11.7373 7.71807 11.6507 7.66797 11.5642 7.63792C11.4776 7.60453 11.421 7.65462 11.4277 7.7548C11.4278 7.75691 11.428 7.75903 11.4282 7.76115C11.4347 7.84601 11.4414 7.9339 11.4576 8.01861C11.481 8.15206 11.5043 8.28566 11.5275 8.41936C11.6101 8.89458 11.693 9.37093 11.7839 9.84526C11.8738 10.3228 11.9737 10.797 12.0802 11.2678C12.1168 11.4181 12.1768 11.5684 12.25 11.7086C12.3066 11.8155 12.3865 11.8055 12.4598 11.7086C12.493 11.6686 12.5263 11.6285 12.543 11.5817Z" fill="#FC461E"/>
</svg>
