<svg width="35" height="24" viewBox="0 0 35 24" fill="none" xmlns="http://www.w3.org/2000/svg">
<path d="M29.7555 9.98418C30.1667 9.98418 30.5001 9.65084 30.5001 9.23965C30.5001 8.82846 30.1667 8.49512 29.7555 8.49512C29.3443 8.49512 29.011 8.82846 29.011 9.23965C29.011 9.65084 29.3443 9.98418 29.7555 9.98418Z" fill="#7887E6"/>
<path d="M29.7555 12.3151C30.1667 12.3151 30.5001 11.9817 30.5001 11.5705C30.5001 11.1593 30.1667 10.826 29.7555 10.826C29.3443 10.826 29.011 11.1593 29.011 11.5705C29.011 11.9817 29.3443 12.3151 29.7555 12.3151Z" fill="#FF5073"/>
<path fill-rule="evenodd" clip-rule="evenodd" d="M6.39555 10.4263H5.67314V12.2297H4.5V7.29329H6.39555C7.52598 7.29329 8.06264 7.95138 8.06264 8.82403C8.06264 9.83252 7.34693 10.4263 6.39555 10.4263ZM6.21958 8.15153H5.67314V9.56753H6.26692C6.67751 9.56753 6.94765 9.29586 6.92346 8.80705C6.90494 8.4371 6.59004 8.15153 6.21958 8.15153ZM11.2991 12.2292H10.1542H10.1537V12.0671C9.92526 12.2107 9.62632 12.3146 9.35104 12.3146C8.65333 12.3146 8.12285 11.7888 8.12285 11.1626C8.12285 10.5215 8.57667 9.82737 10.1542 9.93954V9.69617C10.1542 9.41729 9.91806 9.32416 9.65359 9.32416C9.28158 9.32416 8.84525 9.48881 8.6379 9.58194L8.323 8.93105C8.6662 8.71649 9.22447 8.49473 9.93247 8.49473C10.7768 8.49473 11.2991 8.86673 11.2991 9.68948V12.2292ZM9.26666 11.142C9.26666 11.4065 9.46012 11.5711 9.74621 11.5711C9.92526 11.5711 10.0899 11.5068 10.1964 11.4281V10.6625C9.50335 10.5477 9.26666 10.8415 9.26666 11.142ZM22.6868 8.58065V8.43041C22.6868 7.56496 23.173 7 24.0961 7C24.304 7 24.4825 7.02881 24.64 7.07152V7.88655C24.5473 7.85825 24.4115 7.83663 24.304 7.83663C23.9531 7.83663 23.8244 8.0656 23.8244 8.3877V8.58065H24.6111V9.36069H23.8244V12.2292H22.6868V9.36069H22.0786V8.58065H22.6868ZM18.7748 8.93157C19.118 8.71701 19.6762 8.49524 20.3842 8.49524C21.2286 8.49524 21.7508 8.86725 21.7503 9.68948V12.2292H20.6055V12.0677C20.377 12.2112 20.0781 12.3152 19.8028 12.3152C19.1051 12.3152 18.5746 11.7893 18.5746 11.1631C18.5746 10.522 19.0284 9.82789 20.606 9.94006V9.69668C20.606 9.4178 20.3698 9.32467 20.1054 9.32467C19.7333 9.32467 19.297 9.48932 19.0897 9.58245L18.7748 8.93157ZM20.1553 11.5711C20.3343 11.5711 20.4985 11.5068 20.606 11.4281H20.6055V10.6625C19.9124 10.5477 19.6757 10.8415 19.6757 11.142C19.6757 11.4065 19.8692 11.5711 20.1553 11.5711ZM15.3691 8.58117L13.5203 13.2532H12.4311L12.9127 12.0579L11.3696 8.58117H12.5412L13.4447 10.7613L14.2319 8.58117H15.3691ZM28.2669 10.3491V10.6342V10.6352H25.8949C25.9129 10.8225 25.9608 10.9753 26.0328 11.0967C26.0333 11.0972 26.0333 11.0978 26.0338 11.0983C26.0457 11.1173 26.058 11.1358 26.0709 11.1533C26.0786 11.1641 26.0863 11.1739 26.0945 11.1842C26.0961 11.1861 26.0977 11.1881 26.0993 11.19C26.1029 11.1945 26.1066 11.199 26.1105 11.2032C26.1244 11.2197 26.1393 11.2357 26.1547 11.2506L26.1563 11.2521C26.1944 11.2887 26.2371 11.3216 26.2844 11.3504C26.2854 11.3509 26.286 11.3509 26.2865 11.3514C26.3076 11.3643 26.3302 11.3761 26.3534 11.3874C26.358 11.3895 26.3621 11.3916 26.3662 11.3936C26.3801 11.4003 26.395 11.4065 26.41 11.4121C26.4233 11.4173 26.4367 11.4219 26.4501 11.4265L26.4501 11.4265L26.4804 11.4358L26.4805 11.4358C26.4995 11.441 26.5185 11.4461 26.5381 11.4507C26.5414 11.4515 26.5448 11.4521 26.5481 11.4528C26.5515 11.4534 26.5548 11.4541 26.5581 11.4548C26.5772 11.459 26.5962 11.4621 26.6158 11.4651L26.618 11.4656C26.6228 11.4664 26.6273 11.4673 26.6322 11.4677C26.6564 11.4708 26.6811 11.4734 26.7058 11.4749C26.712 11.4754 26.7176 11.4754 26.7238 11.4759C26.7501 11.4775 26.7763 11.4785 26.8036 11.4785C27.1144 11.4785 27.4612 11.391 27.8033 11.1971L28.1223 11.9061C27.6176 12.256 26.9626 12.3157 26.6317 12.3157C25.4442 12.3157 24.7002 11.5783 24.7002 10.4268C24.7002 9.30358 25.4874 8.49524 26.5031 8.49524C27.5188 8.49524 28.2669 9.27939 28.2669 10.3491ZM27.1113 10.0332C27.068 9.54695 26.818 9.29637 26.5031 9.29637C26.1882 9.29637 25.9381 9.54644 25.8949 10.0332H27.1113ZM16.5895 11.4852C16.926 11.4852 17.1262 11.3849 17.1262 11.1847C17.1262 10.9709 16.853 10.8776 16.5246 10.7655C16.0297 10.5965 15.4094 10.3847 15.4097 9.65295C15.4097 8.88063 16.0961 8.49421 16.9476 8.49421C17.4128 8.49421 17.8707 8.63725 18.1712 8.7875L17.8491 9.53872C17.6201 9.4389 17.3052 9.33136 17.0048 9.33136C16.7187 9.33136 16.5468 9.43838 16.5468 9.61024C16.5468 9.79927 16.802 9.88456 17.1139 9.98883C17.6043 10.1528 18.235 10.3636 18.235 11.0983C18.235 11.8855 17.5198 12.3146 16.6899 12.3146C16.2247 12.3146 15.7241 12.2076 15.295 11.9786L15.6598 11.2418C15.917 11.371 16.2463 11.4852 16.5895 11.4852ZM20.6893 14.6733V14.1927H20.483V14.0579H21.0536L21.0747 14.1927H20.8797V14.6733H20.6893ZM21.7313 14.6733L21.7081 14.2277L21.6922 14.2876L21.6921 14.2879C21.6579 14.4164 21.6238 14.5446 21.5877 14.6733H21.4205L21.3001 14.2277L21.2769 14.6733H21.1066C21.1251 14.469 21.1416 14.2627 21.1576 14.0584H21.3968L21.5059 14.4947L21.507 14.4901C21.5416 14.3456 21.5758 14.203 21.6124 14.0584H21.8517L21.9006 14.6733H21.7313ZM4.50513 14.239V16.9845H5.15757V15.9817H5.55942C6.08887 15.9817 6.48661 15.6514 6.48661 15.0905C6.48661 14.6048 6.18818 14.239 5.55942 14.239H4.50513ZM5.85425 15.1142C5.85425 15.3648 5.70709 15.5042 5.48841 15.5042H5.15808V14.7165H5.48841C5.72304 14.7165 5.85425 14.8796 5.85425 15.1142ZM7.7323 16.7818L7.76832 16.9845V16.985H8.34923V15.5726C8.34923 15.1147 8.05903 14.9078 7.58926 14.9078C7.19513 14.9078 6.88486 15.0313 6.69397 15.1507L6.86891 15.5129C6.98417 15.461 7.22703 15.3694 7.43387 15.3694C7.58103 15.3694 7.71223 15.4208 7.71223 15.5762V15.7115C6.86479 15.6956 6.58231 15.9858 6.58231 16.4237C6.58231 16.8296 6.90081 17.0324 7.21519 17.0324C7.46989 17.0324 7.62065 16.9053 7.7323 16.7818ZM7.56971 16.101C7.60286 16.101 7.6311 16.1042 7.6609 16.1076L7.66091 16.1076L7.66092 16.1076L7.66094 16.1076C7.67738 16.1095 7.69428 16.1114 7.71275 16.1129V16.5384C7.65306 16.5821 7.56148 16.6182 7.46217 16.6182C7.30318 16.6182 7.19564 16.5266 7.19564 16.3794C7.19564 16.2127 7.31501 16.101 7.56971 16.101ZM8.96616 17.8479L9.3006 16.9845H9.10971C9.03583 16.7521 8.96244 16.5197 8.88906 16.2874C8.7488 15.8433 8.60856 15.3994 8.465 14.9552H9.10971L9.4915 16.4591L9.92113 14.9552H10.554C10.3707 15.4852 10.1898 16.0154 10.0093 16.5443L10.0093 16.5445L10.0092 16.5446L10.0092 16.5446C9.86056 16.9804 9.71221 17.4152 9.56302 17.8484H8.96616V17.8479ZM11.704 14.239V16.9845H13.403V16.5112H12.3564V14.239H11.704ZM14.7681 16.9845L14.732 16.7818C14.6204 16.9053 14.4696 17.0324 14.2149 17.0324C13.9005 17.0324 13.582 16.8296 13.582 16.4237C13.582 15.9858 13.8645 15.6956 14.712 15.7115V15.5762C14.712 15.4208 14.5808 15.3694 14.4336 15.3694C14.2268 15.3694 13.9839 15.461 13.8686 15.5129L13.6937 15.1507C13.8846 15.0313 14.1949 14.9078 14.589 14.9078C15.0588 14.9078 15.349 15.1147 15.349 15.5726V16.985H14.7681V16.9845ZM14.6606 16.1076L14.6606 16.1076C14.6308 16.1042 14.6026 16.101 14.5694 16.101C14.3147 16.101 14.1954 16.2127 14.1954 16.3794C14.1954 16.5266 14.3029 16.6182 14.4619 16.6182C14.5612 16.6182 14.6528 16.5821 14.7125 16.5384V16.1129C14.694 16.1114 14.6771 16.1095 14.6606 16.1076ZM15.8743 16.4315C15.8743 16.961 16.2525 16.9846 16.4434 16.9846V16.9857H16.8972V16.5596H16.7223C16.5828 16.5596 16.5072 16.4958 16.5072 16.289V15.3896H16.8972V14.9558H16.5072V14.3507L15.8743 14.5694V14.9553H15.564V15.3891H15.8743V16.4315ZM18.9183 16.8332C18.7912 16.9289 18.4604 17.0323 18.1342 17.0323C17.4735 17.0323 17.0598 16.6222 17.0598 15.9816C17.0598 15.357 17.4977 14.9073 18.0626 14.9073C18.4964 14.9073 18.926 15.1419 18.926 15.8582V16.0969H17.7246C17.7565 16.4313 17.9592 16.5667 18.2299 16.5667C18.4331 16.5667 18.6636 16.4833 18.7393 16.4355L18.9183 16.8332ZM18.3415 15.763C18.3415 15.4882 18.2222 15.3529 18.0549 15.3529C17.88 15.3529 17.7488 15.4923 17.7246 15.763H18.3415ZM19.1848 14.9551V16.9845H19.8213V15.6714C19.933 15.5597 20.112 15.4923 20.2793 15.4923H20.2793C20.3189 15.4923 20.4022 15.4923 20.4383 15.5V14.9073C20.164 14.9073 19.9211 15.0745 19.7899 15.3251V14.9551H19.1848Z" fill="#2D2341"/>
</svg>
