<svg width="35" height="24" viewBox="0 0 35 24" fill="none" xmlns="http://www.w3.org/2000/svg">
<path fill-rule="evenodd" clip-rule="evenodd" d="M21.1763 15.965H26.0923V13.7621H23.6014V8.61472H21.1763V15.965ZM6.1001 8.65817V15.9972L8.29114 16.0004V13.7605H8.78406C9.65735 13.7605 10.6539 13.5779 11.1057 13.1404C11.5576 12.7029 11.7441 12.0474 11.7441 11.2101C11.7546 10.7607 11.6707 10.3139 11.4976 9.89756C11.3559 9.55499 11.1075 9.26484 10.7878 9.06835C10.4696 8.89405 10.1248 8.77103 9.76662 8.70401C9.4815 8.65369 8.96937 8.65543 8.39195 8.65738C8.27725 8.65777 8.15998 8.65817 8.04139 8.65817H6.1001ZM8.37576 12.4174C8.34166 12.4168 8.30763 12.4142 8.27388 12.4093L8.27142 10.1509V10.0279C8.70683 10.0279 9.10117 10.0866 9.26548 10.2587C9.50065 10.5081 9.5002 10.7678 9.49967 11.0803V11.0803L9.49962 11.1257C9.49962 11.5262 9.49469 11.9589 9.33531 12.1528C9.2318 12.2782 9.0527 12.4423 8.37576 12.4174ZM28.836 11.1498H26.5127V15.9755H28.836V11.1498ZM26.48 8.64688H28.8526V10.6423H26.48V8.64688Z" fill="black"/>
<path fill-rule="evenodd" clip-rule="evenodd" d="M17.9155 15.4591C18.2285 15.3489 18.5374 15.1165 18.8036 14.88C19.5536 14.2109 20.344 13.0752 20.2823 11.6927C20.2183 10.2369 19.4206 9.30399 18.3583 8.72249C18.6647 8.78844 18.9178 8.98791 19.1536 9.1753C19.8354 9.71578 20.353 10.553 20.3752 11.7297C20.4048 13.2948 19.5536 14.3621 18.7099 15.098C18.9745 14.9693 19.1782 14.7312 19.3754 14.5004C19.934 13.8457 20.4483 12.9136 20.4483 11.7474C20.4483 10.1058 19.5002 9.16082 18.3945 8.54234C18.7507 8.65505 19.0786 8.84034 19.3565 9.08603C19.7649 9.43396 20.0846 9.87059 20.2901 10.361C20.4955 10.8515 20.5809 11.3821 20.5395 11.9106C20.4724 13.0625 19.956 14.1451 19.0969 14.9347C18.2508 15.7261 17.1547 16.2118 15.989 16.3117C15.835 16.3225 15.6804 16.3225 15.5265 16.3117C13.5959 16.1548 12.1951 14.9444 12.0489 13.0881C12.0337 12.8951 12.0337 12.7012 12.0489 12.5082C12.1311 11.3372 12.6716 10.4042 13.3806 9.6836C14.152 8.89943 15.1272 8.30829 16.4877 8.2166C16.5214 8.07103 16.5608 7.90454 16.5813 7.79999C17.0291 8.26566 17.5729 8.77316 18.1349 9.32088C17.4579 9.66028 16.799 10.0174 16.1369 10.3713C16.1517 10.2386 16.1829 10.0874 16.1919 9.99084C15.0557 10.1879 14.0978 10.9954 13.899 12.1278C13.6525 13.5096 14.599 14.5656 15.9528 14.5728C17.3207 14.58 18.4815 13.5457 18.6902 12.3635C18.8545 11.408 18.4273 10.7404 17.8761 10.2989C18.3903 10.6318 18.9441 11.2334 18.8751 12.1278C18.7633 13.5289 17.4176 14.6894 16.0095 14.6999C15.6393 14.7013 15.2733 14.6228 14.9376 14.4699C14.6019 14.3169 14.3048 14.0934 14.0674 13.8152C14.5283 14.4715 15.3342 14.8173 16.2502 14.757C16.9699 14.7095 17.5787 14.3637 18.0264 13.9423C18.4741 13.5208 18.8397 12.9128 18.9301 12.2943C18.9667 12.0481 18.9667 11.7981 18.9301 11.5519C18.8175 10.8281 18.369 10.4911 17.9582 10.0238C18.5432 10.4806 19.156 11.0895 19.1158 12.0747C19.055 13.5144 17.6469 14.7835 16.1738 14.8816C15.2077 14.946 14.6129 14.6227 14.1019 14.1578C14.5858 14.7578 15.4985 15.0658 16.4515 14.9186C17.8112 14.7087 19.0229 13.598 19.1708 12.2203C19.3039 10.9761 18.6606 10.3986 18.0461 9.78896C18.7034 10.2715 19.2595 10.8112 19.2998 11.8037C19.3351 12.6659 18.9063 13.5096 18.3567 14.0492C17.4776 14.9122 15.7655 15.4784 14.4346 14.683C15.5684 15.5299 17.3289 15.0449 18.2638 14.2125C18.9424 13.6093 19.4378 12.805 19.3557 11.6042C19.2891 10.6391 18.7305 10.1453 18.0979 9.63052C18.7485 9.95706 19.3762 10.6101 19.4666 11.5503C19.5873 12.7809 19.0081 13.6897 18.3033 14.301C17.4513 15.0369 16.2494 15.4752 14.8996 15.1342C17.1359 15.8162 19.2267 14.1908 19.5241 12.3096C19.7377 10.9576 19.0311 10.1605 18.3591 9.59272C18.2901 9.53481 18.2507 9.49299 18.1562 9.41176C19.1166 9.90076 19.9143 10.9817 19.5988 12.5082C19.2316 14.2857 17.4127 15.7253 15.0664 15.3513C15.4073 15.4849 15.8058 15.4559 16.1492 15.4382C17.2172 15.3795 18.1833 14.8575 18.7009 14.2953C19.3285 13.6117 19.8256 12.7503 19.7295 11.5093C19.6424 10.3833 19.0016 9.84848 18.2178 9.25734C18.5462 9.38636 18.8383 9.59043 19.0698 9.8525C19.5167 10.3168 19.7881 10.9167 19.8387 11.5527C19.934 12.8323 19.3335 13.783 18.6738 14.4481C17.9705 15.1583 17.0176 15.6143 15.8066 15.6248C17.706 15.6811 18.9679 14.5398 19.5799 13.2707C19.9307 12.5468 20.0326 11.519 19.7442 10.7171C19.4805 9.97877 18.8759 9.47208 18.2819 9.06109C19.3195 9.60398 20.1928 10.623 20.003 12.2018C19.9391 12.747 19.7546 13.272 19.4625 13.7404C18.8964 14.6701 17.9705 15.324 16.9321 15.6795C17.7011 15.5186 18.4306 15.0658 18.9671 14.4835C19.6243 13.7734 20.1287 12.875 20.0959 11.6227C20.0589 10.2747 19.2078 9.49782 18.3386 8.88817C18.3499 8.88971 18.3609 8.89268 18.3715 8.89702C19.3203 9.35224 20.0384 10.142 20.1879 11.3694C20.4261 13.3069 19.1232 14.7216 17.9155 15.4591Z" fill="#30469D"/>
</svg>
