<svg width="35" height="24" viewBox="0 0 35 24" fill="none" xmlns="http://www.w3.org/2000/svg">
<path fill-rule="evenodd" clip-rule="evenodd" d="M10 11.5673C10 15.4393 13.1577 18.5971 17.0673 18.5971C17.5472 18.5971 18.0271 18.5551 18.5784 18.5068C19.1933 18.453 19.8971 18.3914 20.789 18.3715C22.1423 18.3715 23.6084 18.8602 25.2249 20.2887C25.3752 20.4391 25.6008 20.2512 25.4504 20.0632C23.8339 18.0708 22.3678 17.6949 20.9018 17.3565C19.0973 16.943 18.1575 15.9656 17.5184 14.8379C17.4057 14.6123 17.3305 14.6499 17.3305 14.9506C17.2929 15.4018 17.3305 15.8153 17.4057 16.2288H17.1801C14.6238 16.2288 12.5187 14.1236 12.5187 11.5673C12.5187 9.01107 14.6238 6.9059 17.1801 6.9059C19.7364 6.9059 21.8416 9.01107 21.8416 11.5673C21.8416 11.7177 21.8416 11.9057 21.804 12.0936C21.428 12.0184 20.789 12.0184 20.3003 12.056C20.1123 12.056 20.1123 12.1312 20.2627 12.1688C21.7664 12.4696 22.819 13.4094 23.0821 15.1386C23.0821 15.2138 23.1197 15.2138 23.1573 15.1762C23.7588 14.1236 24.1347 12.8831 24.1347 11.5673C24.1347 7.65775 20.9769 4.5 17.0673 4.5C13.1577 4.5 10 7.69534 10 11.5673ZM22.1798 14.4619C22.443 14.5747 22.5558 14.9506 22.5558 15.1386C22.5934 15.4393 22.5182 15.5897 22.4054 15.5897C22.2926 15.5897 22.1422 15.4769 21.9919 15.2137C21.8415 14.9506 21.7663 14.6874 21.8415 14.5371C21.9543 14.4619 22.0671 14.4243 22.1798 14.4619ZM20.6386 15.6273C20.7889 15.6273 20.9769 15.7025 21.1649 15.8529C21.4656 16.116 21.5784 16.4168 21.428 16.6423C21.3528 16.7551 21.1649 16.8303 21.0145 16.8303C20.8265 16.8303 20.6386 16.7551 20.5258 16.6423C20.225 16.3792 20.1499 16.0032 20.3378 15.7777C20.3754 15.7025 20.4882 15.6273 20.6386 15.6273Z" fill="#F28A1A"/>
</svg>
