<svg width="35" height="24" viewBox="0 0 35 24" fill="none" xmlns="http://www.w3.org/2000/svg">
<path fill-rule="evenodd" clip-rule="evenodd" d="M20.3659 9.43554L21.3334 4.61803C21.4498 4.07758 21.1297 3.53297 20.5934 3.37499C19.9948 3.22533 19.392 3.57454 19.2381 4.16489L18.3615 7.16619L17.6705 4.21072C17.6165 3.93634 17.4502 3.69106 17.2132 3.53308C16.9762 3.3751 16.6811 3.32105 16.4025 3.37926C15.8538 3.49566 15.4962 4.13589 15.6334 4.71792L16.0411 8.06576C15.6869 7.7127 15.2733 7.60395 14.7939 7.88165L14.7316 7.92322C14.2947 8.22073 14.2058 8.82867 14.4865 9.38241C14.2542 9.39547 14.027 9.49236 13.8543 9.6693L13.8127 9.71503C13.4095 10.1308 13.4884 10.8334 13.9915 11.3364L14.4002 11.7437C14.4462 13.6263 15.9776 14.9448 17.7832 14.9448C17.8044 14.9448 17.825 14.9419 17.8444 14.9365C20.2904 14.9121 21.3654 13.4553 21.5496 11.2448C21.6078 10.5464 21.4789 10.0683 21.2087 9.78146C21.059 9.62348 20.9011 9.54865 20.7805 9.53202L20.3659 9.43554ZM17.6965 14.4946C17.7084 14.4927 17.7207 14.4917 17.7332 14.4917C19.9865 14.5125 20.9343 13.2487 21.1048 11.2116C21.1547 10.6296 21.0549 10.2762 20.8803 10.0891C20.8345 10.0434 20.7888 10.0101 20.7472 9.99349L20.6974 9.97686L18.0782 9.36573C18.0705 9.36316 18.0565 9.36059 18.037 9.35704C18.025 9.35484 18.011 9.35227 17.9951 9.3491C17.8537 9.32415 17.7082 9.32 17.5752 9.3491C17.3715 9.39483 17.2426 9.50708 17.1761 9.72326C17.0876 10.0182 17.095 10.2434 17.2826 10.4238C17.3297 10.4412 17.3679 10.4725 17.3936 10.5115C17.5246 10.5982 17.7086 10.6738 17.9577 10.7418L19.683 11.1284C19.9698 11.195 19.8784 11.6232 19.5915 11.5691L19.5375 11.5608C19.3213 11.54 19.076 11.5566 18.8515 11.6398C18.4316 11.7978 18.1697 12.1595 18.1364 12.8329C18.1281 12.9577 18.0242 13.0491 17.8995 13.045C17.7747 13.0367 17.6791 12.9327 17.6874 12.808C17.7207 12.0638 18.0117 11.5774 18.4773 11.3155L17.8496 11.17C17.6331 11.1113 17.4506 11.042 17.2989 10.9629C17.226 11.0771 17.1311 11.1763 17.0181 11.2532L16.9682 11.2865C16.9396 11.3059 16.9103 11.3236 16.8805 11.3396C17.082 11.7167 17.0288 12.1934 16.7187 12.5171L16.673 12.5628C16.2822 12.9619 15.6461 12.9702 15.2428 12.5836L14.9069 12.2487C15.1753 13.5667 16.3307 14.4584 17.6965 14.4946ZM16.9398 10.7048C16.8989 10.7762 16.8418 10.8382 16.7728 10.8832L16.7229 10.9123C16.4652 11.087 16.116 11.0204 15.9414 10.7627L14.9602 9.30346C14.6942 8.89604 14.7274 8.47199 14.9852 8.29323L15.0309 8.25997C15.3635 8.06873 15.642 8.21424 15.9289 8.63413L16.1625 8.98279C16.1727 9.00554 16.1867 9.02627 16.2037 9.0442L16.6998 9.7847C16.6324 10.1405 16.6934 10.4525 16.9398 10.7048ZM19.9282 9.33364L18.1905 8.92921C18.1878 8.92853 18.1844 8.92763 18.1804 8.92657C18.1599 8.9211 18.1228 8.91122 18.0741 8.90426C17.8787 8.87101 17.675 8.86685 17.4754 8.90842C17.2371 8.96233 17.0375 9.08206 16.8991 9.27423L16.5821 8.80121L16.0783 4.64724L16.0741 4.6223C15.9868 4.27308 16.203 3.88229 16.494 3.81993C16.6561 3.78668 16.8266 3.81578 16.9638 3.90724C17.101 3.9987 17.1966 4.14005 17.2298 4.30219L18.1116 8.06806C18.1163 8.16189 18.1779 8.24593 18.2736 8.27233C18.3942 8.30559 18.5189 8.23907 18.5522 8.11851L19.6705 4.28545C19.7661 3.93207 20.1236 3.72005 20.4729 3.80735C20.7722 3.89882 20.9593 4.21062 20.8928 4.52657L19.9282 9.33364ZM15.5672 11.0163C15.7681 11.3098 16.0935 11.4654 16.4225 11.4595C16.6019 11.6773 16.5923 11.9994 16.3903 12.2053L16.3487 12.251C16.1325 12.4713 15.7791 12.4755 15.5588 12.2593L14.3116 11.0246C13.9665 10.6795 13.9208 10.2555 14.137 10.031L14.1786 9.98526C14.3511 9.80467 14.6321 9.78291 14.8347 9.92371L15.5672 11.0163ZM11.2685 20.3328C11.9752 20.3328 12.5157 19.8588 12.5157 19.1645C12.5157 18.5202 12.0583 18.2416 11.4971 18.0753C11.1396 17.9714 10.9151 17.8924 10.9151 17.6388C10.9151 17.4268 11.0689 17.2605 11.3142 17.2605C11.522 17.2605 11.6759 17.381 11.7881 17.564L12.3743 17.194C12.1914 16.7907 11.7798 16.5828 11.335 16.5828C10.6282 16.5828 10.1792 17.09 10.1792 17.6804C10.1792 18.1502 10.4619 18.5118 11.1562 18.7156C11.5345 18.8236 11.7756 18.8985 11.7756 19.1978C11.7756 19.4805 11.5719 19.6551 11.2768 19.6551C10.9608 19.6551 10.7197 19.4514 10.5742 19.2643L10.0878 19.7507C10.3497 20.1083 10.7737 20.3328 11.2685 20.3328ZM17.2299 16.6287V17.2939C16.8349 17.2772 16.5481 17.4768 16.5481 17.9175V18.1877C16.7061 18.0214 16.9306 17.9382 17.2091 17.9382V18.6117C16.8183 18.62 16.5481 18.8695 16.5481 19.2187V20.2664H15.8413V17.8759C15.8413 17.2024 16.2654 16.6287 17.126 16.6287H17.2299ZM23.0003 18.9815V18.3663C23.1583 18.5325 23.3786 18.6157 23.6613 18.6157V17.9464C23.2789 17.938 23.0003 17.6803 23.0003 17.3394V16.9444H22.2936V19.0231C22.2936 19.6966 22.7135 20.2703 23.5782 20.2703H23.6821V19.6051C23.2872 19.6176 23.0003 19.4222 23.0003 18.9815ZM12.7691 19.0065C12.7691 19.734 13.3761 20.3327 14.1244 20.3327C14.8727 20.3327 15.4797 19.734 15.4797 19.0065C15.4797 18.2789 14.8727 17.6803 14.1244 17.6803C13.3761 17.6803 12.7691 18.2789 12.7691 19.0065ZM25 19.8339C25 20.0958 24.7838 20.3079 24.5261 20.3079C24.2642 20.3079 24.0522 20.0958 24.0522 19.8339C24.0522 19.572 24.2642 19.36 24.5261 19.36C24.788 19.36 25 19.5762 25 19.8339ZM14.1242 19.6676C14.4859 19.6676 14.7728 19.3808 14.7728 19.0066C14.7728 18.6324 14.4859 18.3456 14.1242 18.3456C13.7584 18.3456 13.4757 18.6324 13.4757 19.0066C13.4757 19.3849 13.7625 19.6676 14.1242 19.6676ZM17.417 19.0065C17.417 19.734 18.024 20.3327 18.7723 20.3327C19.5206 20.3327 20.1276 19.734 20.1276 19.0065C20.1276 18.2789 19.5206 17.6803 18.7723 17.6803C18.024 17.6803 17.417 18.2789 17.417 19.0065ZM18.7722 19.6676C19.1381 19.6676 19.4208 19.3808 19.4208 19.0066C19.4208 18.6324 19.1339 18.3456 18.7722 18.3456C18.4106 18.3456 18.1237 18.6324 18.1237 19.0066C18.1237 19.3849 18.4106 19.6676 18.7722 19.6676ZM21.196 17.751V18.0379C21.3373 17.8092 21.566 17.7011 21.8861 17.7136V18.4702C21.4621 18.4702 21.2168 18.703 21.2168 19.1188V20.2662H20.51V17.751H21.196Z" fill="black"/>
</svg>
