<svg width="35" height="24" viewBox="0 0 35 24" fill="none" xmlns="http://www.w3.org/2000/svg">
<path d="M24.5001 10.7791C24.4279 10.3461 24.031 10.0574 23.4897 10.0574C23.3093 10.0574 23.1649 10.0574 22.9845 10.0574C22.6597 10.0213 22.5876 10.1296 22.5876 10.3822C22.5876 11.6451 22.5876 12.872 22.5876 14.135C22.5876 14.7845 21.938 15.4701 21.1803 15.6145C18.7987 16.1557 16.4171 16.6609 14.0355 17.2022C13.7829 17.2744 13.4942 17.2744 13.2055 17.2744C13.0973 17.2744 12.9169 17.2022 12.8808 17.0939C12.8447 17.0218 12.9529 16.8774 13.0251 16.8053C13.1334 16.7331 13.2777 16.6609 13.4221 16.5888C13.8551 16.4444 14.3242 16.3001 14.7572 16.1557C16.5253 15.5784 18.2935 15.001 20.0616 14.3876C20.8555 14.135 21.2885 13.5937 21.2885 12.9081C21.3246 10.743 21.2885 8.54186 21.2885 6.37678C21.2885 6.01593 21.1081 5.72725 20.7112 5.58291C20.2421 5.40249 19.809 5.54683 19.4121 5.72725C16.8862 6.91805 14.3963 8.10885 11.8704 9.29964C11.1487 9.66049 10.7157 10.1657 10.7157 10.8874C10.7157 12.9442 10.7157 15.001 10.7157 17.0579C10.7157 17.1661 10.7157 17.2744 10.7518 17.3465C11.0044 18.0321 11.6539 18.4652 12.5199 18.4652C14.2881 18.4652 16.0562 18.4652 17.8244 18.4652C19.5925 18.4652 21.3246 18.4652 23.0928 18.4652C23.4897 18.4652 23.8144 18.393 24.1031 18.1404C24.464 17.8517 24.464 17.4548 24.464 17.0939C24.464 15.3187 24.5001 10.7791 24.5001 10.7791ZM17.1388 10.1296C17.3192 9.66049 17.7161 9.37181 18.2935 9.29964C18.6904 9.26356 19.0152 9.48006 19.0873 9.84091C19.1595 10.3822 18.51 11.0317 17.8244 11.0317C17.2831 11.0317 16.9583 10.6348 17.1388 10.1296Z" fill="#FD6727"/>
</svg>
