<svg id="Layer_1" data-name="Layer 1" xmlns="http://www.w3.org/2000/svg" viewBox="0 0 124 102"><defs><style>.cls-1{fill:#fff;}</style></defs><path id="b" class="cls-1" d="M2,89.37V7.75H32a56.92,56.92,0,0,1,14.4,1.57,27.37,27.37,0,0,1,9.69,4.42,16.76,16.76,0,0,1,5.47,7,23.65,23.65,0,0,1,1.71,9.13,18,18,0,0,1-.79,5.3A15.53,15.53,0,0,1,60,39.9,18.37,18.37,0,0,1,55.72,44a27.48,27.48,0,0,1-6.33,3.16q8.07,2,11.94,6.36a16.49,16.49,0,0,1,3.86,11.29,23.27,23.27,0,0,1-2,9.69,22,22,0,0,1-5.91,7.81,27.75,27.75,0,0,1-9.61,5.21,41.47,41.47,0,0,1-13,1.88ZM20.93,42.09h9.86a32.39,32.39,0,0,0,5.66-.45,11.66,11.66,0,0,0,4.28-1.57A7.08,7.08,0,0,0,43.42,37a11.5,11.5,0,0,0,.93-4.93,13.93,13.93,0,0,0-.73-4.84,6.93,6.93,0,0,0-2.24-3.11,9.27,9.27,0,0,0-3.84-1.68A26.07,26.07,0,0,0,32,21.92H20.93Zm0,12.66V75.09H34.27a16.59,16.59,0,0,0,6.13-1,9.53,9.53,0,0,0,3.72-2.46A8.18,8.18,0,0,0,46,68.25a14.83,14.83,0,0,0,.51-3.86,13,13,0,0,0-.59-4,6.6,6.6,0,0,0-2-3,9.87,9.87,0,0,0-3.78-1.91,22,22,0,0,0-5.94-.67Z"/><path id="e" class="cls-1" d="M95.89,30.38a30,30,0,0,1,10.56,1.79,23.21,23.21,0,0,1,8.24,5.21,23.87,23.87,0,0,1,5.37,8.38A30.72,30.72,0,0,1,122,57a24.73,24.73,0,0,1-.17,3.19,5,5,0,0,1-.62,2,2.34,2.34,0,0,1-1.2,1,5.59,5.59,0,0,1-1.93.28H84.57Q85.41,70.72,89,74a13.14,13.14,0,0,0,9.24,3.28,16.37,16.37,0,0,0,5.21-.73,25.45,25.45,0,0,0,3.9-1.62c1.14-.6,2.18-1.14,3.13-1.62a6.51,6.51,0,0,1,3-.73,3.59,3.59,0,0,1,3.14,1.51l5,6.22a25.73,25.73,0,0,1-5.8,5,30.16,30.16,0,0,1-6.38,3,34.7,34.7,0,0,1-6.56,1.51,49.2,49.2,0,0,1-6.25.42,32.46,32.46,0,0,1-11.45-2,26.43,26.43,0,0,1-9.36-5.91,27.81,27.81,0,0,1-6.33-9.75,36.38,36.38,0,0,1-2.32-13.55,30.79,30.79,0,0,1,2-11A26.85,26.85,0,0,1,83.93,32.68,29.8,29.8,0,0,1,95.89,30.38Zm.34,12c-3.33,0-5.92.94-7.79,2.83a14.74,14.74,0,0,0-3.7,8.15h21.68a15.47,15.47,0,0,0-.53-4,9.67,9.67,0,0,0-1.74-3.5,8.81,8.81,0,0,0-3.16-2.5A10.92,10.92,0,0,0,96.23,42.37Z"/></svg>