<?xml version="1.0" encoding="UTF-8"?>
<!-- Generator: Adobe Illustrator 22.0.1, SVG Export Plug-In . SVG Version: 6.00 Build 0)  -->
<svg version="1.1" id="Warstwa_1" xmlns="http://www.w3.org/2000/svg" xmlns:xlink="http://www.w3.org/1999/xlink" x="0px" y="0px" viewBox="0 0 200 190" style="enable-background:new 0 0 200 190;" xml:space="preserve">
<path style="fill:#9AF4E3;" d="M155.3,174.9c0,7.2-23.5,13.1-52.6,13.1c-29,0-52.6-5.9-52.6-13.1s23.5-13.1,52.6-13.1  C131.7,161.8,155.3,167.7,155.3,174.9"/>
<path style="fill:#09BA98;" d="M150.8,131.9c-1-0.2-2.1-0.3-3.1-0.3c-4.3,0-8.1,1.4-10.9,3.6c-2.8-2.2-6.6-3.6-10.9-3.6  c-4.7,0-8.9,1.7-11.7,4.4c-2.8-2.7-7-4.4-11.7-4.4s-8.9,1.7-11.7,4.4c-2.8-2.7-7-4.4-11.7-4.4c-3.9,0-7.3,1.2-10,3  c-2.7-1.9-6.2-3-10-3c-1.1,0-2.1,0.1-3.1,0.3c2.4,6.8,13.9,37.1,13.9,37.1c0,3.6,15,6.5,33.6,6.5c18.5,0,33.6-3,33.6-6.6v0  C136.9,169,148.5,138.6,150.8,131.9"/>
<path style="fill:#35EDCA;" d="M147.9,85.6C143.3,65.2,125.1,50,103.3,50c-21.8,0-40,15.2-44.6,35.6c-8.7,4.5-14.6,13.6-14.6,24  c0,9.8,5.2,18.4,13,23.1c0.8-0.4,1.8-0.7,2.9-0.7c1.3,0,2.3,0.3,3.2,0.8c0.2,0,0.5-0.1,0.8,0c12.1,0.4,24,1.4,36.1,1.2  c13.2-0.2,24.7,2.6,37.9-0.9c0.4-0.1,0.7-0.2,1.1-0.2c1-0.7,2.2-1.2,3.8-1.2c2.1,0,3.7,0.9,4.7,2.1c8.9-4.5,15-13.6,15-24.2  C162.5,99.2,156.6,90.1,147.9,85.6"/>
<path style="fill:#9AF4E3;" d="M57.7,114.1c0-10.4,5.9-19.4,14.5-23.9c4.6-20.3,22.7-35.4,44.4-35.4c2.2,0,4.3,0.2,6.4,0.5  c-6.8-4-14.6-6.3-23-6.3c-21.7,0-39.8,15.1-44.4,35.4C46.9,88.9,41,97.9,41,108.3c0,12.2,8.1,22.4,19.1,25.8  c3.3,1.5,7.4,2.8,11.9,3.8C63.5,133.4,57.7,124.4,57.7,114.1"/>
<path style="fill:#2BCCAD;" d="M82.9,167.4c0,0-9.9-26.1-13.2-35.2c-0.6,0.3-1.2,0.6-1.7,1c-2.7-1.9-6.2-3-10-3  c-1.1,0-2.1,0.1-3.1,0.3c2.3,6.7,13.9,36.9,13.9,36.9c0,3.6,15,6.5,33.4,6.5c2.4,0,4.8-0.1,7.1-0.1  C94.1,173.2,82.9,170.6,82.9,167.4"/>
<path style="fill:#0C6856;" d="M151.4,83C145.6,61.1,126.1,46,103.3,46C80.5,46,61,61.1,55.2,83c-9.4,5.6-15.1,15.7-15.1,26.6  c0,11.5,6.2,21.8,16,27.1c0-0.7,0-1.4,0.1-2c0.7-2.5,2.6-3.9,4.8-4.3c-7.9-3.8-13-11.8-13-20.8c0-8.6,4.8-16.5,12.4-20.5l1.6-0.8  l0.4-1.8C66.9,67.3,83.7,54,103.3,54c19.6,0,36.4,13.4,40.8,32.5l0.4,1.8l1.6,0.8c7.7,4,12.4,11.9,12.4,20.5c0,9.8-6,18.4-15.2,21.7  c3.7,0.3,5.5,3.2,5.6,6.2c10.6-5.1,17.5-15.8,17.5-27.9C166.4,98.6,160.7,88.6,151.4,83"/>
<path style="fill:#0C6856;" d="M103.3,179.6c-13.5,0-34.5-1.4-37.4-9.5c-1.5-3.9-11.6-30.4-13.8-36.8l-1.5-4.4l4.6-0.8  c4.7-0.8,9.7,0,13.8,2.1c6.6-3.4,15.6-3,21.8,1c3.4-2.2,7.5-3.4,11.7-3.4s8.4,1.2,11.7,3.4c6.5-4.2,15.9-4.4,22.6-0.6  c4.2-2.4,9.7-3.3,14.7-2.5l4.6,0.8l-1.5,4.4c-2.2,6.4-12.3,32.9-13.8,36.8C138,178,116.8,179.6,103.3,179.6 M73.4,167.7  c2.4,1.5,12.7,3.9,29.8,3.9c17.1,0,27.5-2.4,29.9-3.9l0-0.1c0.1-0.3,8-20.9,12-31.8c-2.3,0.4-4.3,1.2-6,2.6l-2.5,2l-2.5-2  c-2.2-1.8-5.2-2.7-8.4-2.7c-3.5,0-6.8,1.2-9,3.3l-2.7,2.6l-2.7-2.6c-2.2-2.1-5.5-3.3-9-3.3s-6.8,1.2-9,3.3l-2.7,2.6L88,139  c-2.3-2.1-5.5-3.3-9-3.3c-2.8,0-5.6,0.8-7.8,2.3l-2.2,1.6l-2.2-1.6c-1.5-1.1-3.4-1.8-5.3-2.1c4,10.9,11.9,31.5,12,31.8L73.4,167.7z"/>
<path style="fill:#BBFFF2;" d="M130.3,95.3c-1,0-1.9-0.4-2.5-1.3c-1-1.4-0.7-3.3,0.7-4.2l7-5c1.4-1,3.3-0.6,4.2,0.7  c1,1.4,0.6,3.3-0.7,4.2l-7,5C131.6,95.1,130.9,95.3,130.3,95.3"/>
<path style="fill:#BBFFF2;" d="M120.8,106c-0.4,0-0.7-0.1-1.1-0.2l-8-3c-1.6-0.6-2.4-2.3-1.8-3.9c0.6-1.6,2.3-2.4,3.9-1.8l8,3  c1.6,0.6,2.4,2.3,1.8,3.9C123.2,105.3,122,106,120.8,106"/>
<path style="fill:#BBFFF2;" d="M98.5,110.5c-1.4,0-2.6-0.9-2.9-2.3l-2.1-8.3c-0.4-1.6,0.6-3.3,2.2-3.7c1.6-0.4,3.3,0.6,3.7,2.2  l2.1,8.3c0.4,1.6-0.6,3.3-2.2,3.7C99,110.5,98.7,110.5,98.5,110.5"/>
<path style="fill:#BBFFF2;" d="M145,50.6c-5,0-9.1-4.1-9.1-9.1c0-5,4.1-9.1,9.1-9.1c5,0,9.1,4.1,9.1,9.1  C154.1,46.5,150,50.6,145,50.6 M145,38.4c-1.7,0-3.1,1.4-3.1,3.1c0,1.7,1.4,3.1,3.1,3.1c1.7,0,3.1-1.4,3.1-3.1  C148.1,39.8,146.7,38.4,145,38.4"/>
<path style="fill:#BBFFF2;" d="M111.6,70.2c-0.5,0-1-0.1-1.5-0.4l-8.3-4.7c-1.5-0.8-2-2.7-1.1-4.1c0.8-1.5,2.7-2,4.1-1.1l8.3,4.7  c1.5,0.8,2,2.7,1.1,4.1C113.7,69.7,112.6,70.2,111.6,70.2"/>
<path style="fill:#BBFFF2;" d="M77.5,88.3c-0.5,0-1-0.1-1.5-0.4l-6.4-3.7c-1.4-0.8-1.9-2.7-1.1-4.1c0.8-1.4,2.7-1.9,4.1-1.1l6.4,3.7  c1.4,0.8,1.9,2.7,1.1,4.1C79.5,87.8,78.5,88.3,77.5,88.3"/>
<path style="fill:#BBFFF2;" d="M90.9,85.5c-0.9,0-1.8-0.4-2.4-1.1c-1-1.3-0.8-3.2,0.5-4.3l6.5-5.1c1.3-1,3.2-0.8,4.3,0.5  c1,1.3,0.8,3.2-0.5,4.3l-6.5,5.1C92.3,85.3,91.6,85.5,90.9,85.5"/>
<path style="fill:#BBFFF2;" d="M111.6,90.6c-0.3,0-0.6-0.1-1-0.2c-1.6-0.5-2.4-2.2-1.9-3.8l2.3-7c0.5-1.6,2.2-2.5,3.8-1.9  c1.6,0.5,2.4,2.2,1.9,3.8l-2.3,7C114,89.8,112.9,90.6,111.6,90.6"/>
<path style="fill:#BBFFF2;" d="M70.3,108.2c-0.6,0-1.2-0.2-1.7-0.5l-6.5-4.4c-1.4-0.9-1.7-2.8-0.8-4.2c0.9-1.4,2.8-1.7,4.2-0.8  l6.5,4.4c1.4,0.9,1.7,2.8,0.8,4.2C72.2,107.8,71.2,108.2,70.3,108.2"/>
<path style="fill:#35EDCA;" d="M18.1,77.5c-0.9,0-1.7-0.4-2.3-1c-0.6-0.7-0.9-1.7-0.7-2.7L18,61.3c0.4-1.6,2-2.7,3.6-2.3  c1.6,0.4,2.7,2,2.3,3.6L22,71.1l8.7-0.7c1.6-0.2,3.1,1.1,3.3,2.8c0.1,1.7-1.1,3.1-2.8,3.3l-12.8,1.1C18.3,77.5,18.2,77.5,18.1,77.5"/>
<path style="fill:#35EDCA;" d="M53,57.3c-0.2,0-0.5,0-0.7-0.1c-1.6-0.4-2.7-2-2.3-3.6l1.9-8.5l-8.7,0.7c-1.7,0.1-3.1-1.1-3.3-2.8  c-0.1-1.7,1.1-3.1,2.8-3.3l12.8-1.1c1-0.1,1.9,0.3,2.5,1c0.6,0.7,0.9,1.7,0.7,2.7l-2.9,12.5C55.6,56.3,54.4,57.3,53,57.3"/>
<path style="fill:#35EDCA;" d="M38.7,68c-1.2,0-2.4-0.7-2.8-1.9L31,53.6c-0.6-1.6,0.2-3.3,1.7-3.9c1.6-0.6,3.3,0.2,3.9,1.7l4.9,12.4  c0.6,1.6-0.2,3.3-1.7,3.9C39.4,67.9,39,68,38.7,68"/>
<path style="fill:#BBFFF2;" d="M178.1,156.7c-1.3,0-2.5-0.8-2.9-2.1c-0.5-1.6,0.3-3.3,1.9-3.8l8.3-2.7l-5.1-7  c-1-1.4-0.7-3.3,0.7-4.2c1.4-1,3.3-0.7,4.2,0.7l7.5,10.4c0.6,0.8,0.7,1.8,0.4,2.7c-0.3,0.9-1,1.6-1.9,1.9l-12.2,4  C178.7,156.6,178.4,156.7,178.1,156.7"/>
<path style="fill:#BBFFF2;" d="M163.4,150.6c-0.6,0-1.3-0.2-1.8-0.6c-1.3-1-1.6-2.9-0.6-4.3l8.1-10.6c1-1.3,2.9-1.6,4.3-0.6  c1.3,1,1.6,2.9,0.6,4.3l-8.1,10.6C165.2,150.1,164.3,150.6,163.4,150.6"/>
<path style="fill:#BBFFF2;" d="M18.3,146.1c-0.2,0-0.4,0-0.6-0.1c-0.8-0.2-1.5-0.6-1.9-1.3l-10.3-16c-0.4-0.7-0.6-1.5-0.4-2.3  c0.2-0.8,0.6-1.5,1.3-1.9l4.5-2.9c1.4-0.9,3.3-0.5,4.2,0.9c0.9,1.4,0.5,3.3-0.9,4.2l-2,1.3l7,10.9l2-1.3c1.4-0.9,3.3-0.5,4.2,0.9  c0.9,1.4,0.5,3.3-0.9,4.2l-4.5,2.9C19.4,146,18.8,146.1,18.3,146.1"/>
<path style="fill:#BBFFF2;" d="M30.5,138.3c-1,0-2-0.5-2.6-1.4c-0.9-1.4-0.5-3.3,0.9-4.2l2-1.3l-7-10.9l-2,1.3  c-1.4,0.9-3.3,0.5-4.2-0.9c-0.9-1.4-0.5-3.3,0.9-4.2l4.5-2.9c0.7-0.4,1.5-0.6,2.3-0.4c0.8,0.2,1.5,0.6,1.9,1.3l10.3,16  c0.9,1.4,0.5,3.3-0.9,4.2l-4.5,2.9C31.6,138.1,31.1,138.3,30.5,138.3"/>
<path style="fill:#BBFFF2;" d="M98.8,37.6c-0.7,0-1.4-0.3-2-0.7L82.4,24.5c-1.3-1.1-1.4-3-0.3-4.3l3.5-4.1c1.1-1.3,3-1.4,4.3-0.3  c1.3,1.1,1.4,3,0.3,4.3l-1.5,1.8l9.8,8.4l1.5-1.8c1.1-1.3,3-1.4,4.3-0.3c1.3,1.1,1.4,3,0.3,4.3l-3.5,4.1c-0.5,0.6-1.3,1-2.1,1.1  C99,37.6,98.9,37.6,98.8,37.6"/>
<path style="fill:#BBFFF2;" d="M108.3,26.5c-0.7,0-1.4-0.2-2-0.7c-1.3-1.1-1.4-3-0.3-4.3l1.5-1.8l-9.8-8.4l-1.5,1.8  c-1.1,1.3-3,1.4-4.3,0.3c-1.3-1.1-1.4-3-0.3-4.3l3.5-4.1c0.5-0.6,1.3-1,2.1-1.1c0.8-0.1,1.6,0.2,2.2,0.7l14.4,12.4  c1.3,1.1,1.4,3,0.3,4.3l-3.5,4.1C110,26.2,109.1,26.5,108.3,26.5"/>
<path style="fill:#35EDCA;" d="M167,81.7c-0.7,0-1.5-0.3-2-0.8l-1.7-1.5c-1.1-1-1.8-2.4-1.8-3.9c-0.1-1.7,0.6-3.4,1.7-4.7l1.1-1.2  c0.6-0.7,1-1.5,1.2-2.4l0.3-2c0.2-1.3,1.2-2.3,2.5-2.5l1.3-0.2c0.9-0.2,1.9-0.7,2.6-1.5l0.8-0.9c2.3-2.6,6.2-2.9,8.6-0.7l1.7,1.5  c1.2,1.1,1.3,3,0.2,4.3c-1.1,1.2-3,1.3-4.3,0.2l-1.5-1.4c-0.1,0-0.1,0.1-0.2,0.2l-0.8,0.9c-1.4,1.5-3.2,2.7-5.1,3.2  c-0.3,2-1.3,3.9-2.7,5.4l-1.1,1.2c-0.1,0.1-0.1,0.2-0.1,0.2l1.5,1.4c1.2,1.1,1.3,3,0.2,4.3C168.7,81.4,167.8,81.7,167,81.7"/>
<path style="fill:#35EDCA;" d="M177.3,90.2c-1.4,0-2.7-0.5-3.8-1.4l-1.7-1.5c-1.2-1.1-1.3-3-0.2-4.3c1.1-1.2,3-1.3,4.3-0.2l1.5,1.4  c0.1,0,0.1-0.1,0.2-0.2l0.8-0.9c1.4-1.5,3.2-2.7,5.1-3.2c0.3-2,1.3-3.9,2.7-5.4l1.1-1.2c0.1-0.1,0.1-0.2,0.1-0.2l-1.5-1.4  c-1.2-1.1-1.3-3-0.2-4.3c1.1-1.2,3-1.3,4.3-0.2l1.7,1.5c1.2,1.1,1.9,2.7,1.8,4.4c0,1.6-0.7,3.1-1.7,4.3l-1.1,1.2  c-0.6,0.7-1,1.5-1.2,2.4l-0.3,2c-0.2,1.3-1.2,2.3-2.5,2.5l-1.3,0.2c-0.9,0.2-1.9,0.7-2.6,1.5l-0.8,0.9  C180.8,89.4,179.1,90.2,177.3,90.2 M187.7,73.1L187.7,73.1L187.7,73.1z"/>
<path style="fill:#BBFFF2;" d="M85.5,63.7c-1.9,0-3.5,1.6-3.5,3.5c0,2,1.6,3.5,3.5,3.5c2,0,3.5-1.6,3.5-3.5  C89.1,65.3,87.5,63.7,85.5,63.7"/>
<path style="fill:#BBFFF2;" d="M126.8,70.5c-2,0-3.5,1.6-3.5,3.5c0,2,1.6,3.5,3.5,3.5c1.9,0,3.5-1.6,3.5-3.5  C130.3,72.1,128.7,70.5,126.8,70.5"/>
<path style="fill:#BBFFF2;" d="M81.8,92.6c-1.9,0-3.5,1.6-3.5,3.5c0,2,1.6,3.5,3.5,3.5c1.9,0,3.5-1.6,3.5-3.5  C85.3,94.2,83.7,92.6,81.8,92.6"/>
<path style="fill:#BBFFF2;" d="M141.3,98.4c-1.9,0-3.5,1.6-3.5,3.5c0,2,1.6,3.5,3.5,3.5s3.5-1.6,3.5-3.5  C144.9,100,143.3,98.4,141.3,98.4"/>
</svg>