<svg id="Isolation_Mode" data-name="Isolation Mode" xmlns="http://www.w3.org/2000/svg" viewBox="0 0 35.59 37.62"><defs><style>.cls-5{fill:#fff;}</style></defs><path class="cls-5" d="M31.34,10.41a14,14,0,0,0-27.09,0A8.75,8.75,0,0,0,4.5,25.56a1.75,1.75,0,0,1,0-.56,1.67,1.67,0,0,1,1.34-1.22,6.53,6.53,0,0,1-.15-11.65l.45-.23.12-.51a11.78,11.78,0,0,1,23,0l.12.51.45.23A6.52,6.52,0,0,1,29.09,24a1.69,1.69,0,0,1,1.57,1.75,8.74,8.74,0,0,0,.68-15.37Z"/><path class="cls-5" d="M17.79,37.62c-3.81,0-9.68-.42-10.55-2.68C6.82,33.84,4,26.36,3.35,24.57l-.44-1.25,1.31-.22a6.33,6.33,0,0,1,3.89.59,6.38,6.38,0,0,1,6.14.28,6.22,6.22,0,0,1,6.61,0,6.46,6.46,0,0,1,6.37-.17,6.46,6.46,0,0,1,4.14-.71l1.31.22-.44,1.25c-.62,1.79-3.47,9.26-3.89,10.36C27.53,37.22,21.6,37.62,17.79,37.62ZM9.38,34.29c.68.42,3.59,1.1,8.41,1.1s7.73-.68,8.42-1.1v0c0-.07,2.25-5.9,3.38-9a3.66,3.66,0,0,0-1.67.72l-.7.56L26.54,26a3.8,3.8,0,0,0-2.37-.77,3.74,3.74,0,0,0-2.55.94l-.76.72-.76-.72a3.92,3.92,0,0,0-5.09,0l-.76.72-.77-.72a3.7,3.7,0,0,0-2.54-.94,3.88,3.88,0,0,0-2.2.66l-.63.43-.63-.43A3.75,3.75,0,0,0,6,25.31c1.13,3.06,3.36,8.88,3.38,9Z"/></svg>
