<?xml version="1.0" encoding="utf-8"?>
<!-- Generator: Adobe Illustrator 25.0.1, SVG Export Plug-In . SVG Version: 6.00 Build 0)  -->
<svg version="1.1" id="Layer_1" xmlns="http://www.w3.org/2000/svg" xmlns:xlink="http://www.w3.org/1999/xlink" x="0px" y="0px"
	 viewBox="0 0 512 512" style="enable-background:new 0 0 512 512;" xml:space="preserve">
<style type="text/css">
	.st0{fill:#304050;}
</style>
<g>
	<path class="st0" d="M140.8,212.4c3.7,0,6.8-3,6.8-6.8c0-3.7-3-6.8-6.8-6.8h-29.7v-29.2c0-3.7-3-6.8-6.8-6.8h-72
		c-3.7,0-6.7,3-6.7,6.8v72c0,3.7,3,6.8,6.7,6.8h72c3.7,0,6.8-3,6.8-6.8v-29.2H140.8z M39.1,176.4h58.5v31.5H39.1V176.4z M97.6,234.9
		H39.1v-13.5h58.5V234.9z"/>
	<path class="st0" d="M75.1,185.4H61.6c-3.7,0-6.8,3-6.8,6.8c0,3.7,3,6.8,6.8,6.8h13.5c3.7,0,6.8-3,6.8-6.8
		C81.8,188.4,78.8,185.4,75.1,185.4z"/>
	<path class="st0" d="M189.9,48.1h-13.5c-3.7,0-6.8,3-6.8,6.8c0,3.7,3,6.8,6.8,6.8h13.5c3.7,0,6.8-3,6.8-6.8
		C196.7,51.1,193.6,48.1,189.9,48.1z"/>
	<path class="st0" d="M479.6,107.1h-72c-3.7,0-6.8,3-6.8,6.8v29.2h-64.4c-3.7,0-6.8,3-6.8,6.8v102.8L290.6,234V68.3
		c0-3.7-3-6.8-6.8-6.8h-58V32.3c0-3.7-3-6.7-6.8-6.7h-72c-3.7,0-6.8,3-6.8,6.7v72c0,3.7,3,6.8,6.8,6.8h72c3.7,0,6.8-3,6.8-6.8V75.1
		h51.2v152.5l-18.2-8.7c-1.8-0.9-4-0.9-5.8,0l-44.1,21v-34.3c0-3.7-3-6.8-6.8-6.8h-32.9c-3.7,0-6.8,3-6.8,6.8c0,3.7,3,6.8,6.8,6.8
		h26.1v34l-57.6,27.4c-2.3,1.1-3.8,3.5-3.8,6.1v144.9c0,2.6,1.5,5,3.8,6.1l55.3,26.4c3.4,1.6,7.4,0.2,9-3.2c1.6-3.4,0.2-7.4-3.2-9
		l-51.5-24.5V290.5L249.2,339V469l-25.8-12.3c-3.4-1.6-7.4-0.2-9,3.2c-1.6,3.4-0.2,7.4,3.2,9l35.5,16.9c0.8,0.4,1.9,0.7,2.9,0.7
		c1,0,2.2-0.3,2.9-0.7l115.2-54.9c2.3-1.1,3.8-3.5,3.8-6.1v-82.5c0-3.7-3-6.8-6.8-6.8c-3.7,0-6.8,3-6.8,6.8v78.2L262.7,469V339
		l101.7-48.5v22.8c0,3.7,3,6.8,6.8,6.8c3.7,0,6.8-3,6.8-6.8v-33.5c0-2.5-1.4-4.9-3.8-6.1l-0.1,0c0,0,0,0,0,0l-30.7-14.7V156.6h57.6
		v29.2c0,3.7,3,6.8,6.8,6.8h72c3.7,0,6.8-3,6.8-6.8v-72C486.4,110.1,483.4,107.1,479.6,107.1z M153.9,39.1h58.5v31.5h-58.5V39.1z
		 M212.4,97.6h-58.5V84.1h58.5V97.6z M329.8,267.6v24.5l-39.1,18.7v-61.8L329.8,267.6z M277.1,317.2l-14.4,6.9v-88.4l14.4,6.9V317.2
		z M195.5,261.3v37.2l-39-18.6L195.5,261.3z M209,304.9v-50l40.3-19.2v88.4L209,304.9z M355.5,279.9l-12.2,5.8V274L355.5,279.9z
		 M414.4,120.6h58.5v31.5h-58.5V120.6z M472.9,179.1h-58.5v-13.5h58.5V179.1z"/>
	<path class="st0" d="M436.9,143.1h13.5c3.7,0,6.8-3,6.8-6.8c0-3.7-3-6.8-6.8-6.8h-13.5c-3.7,0-6.8,3-6.8,6.8
		C430.1,140,433.2,143.1,436.9,143.1z"/>
</g>
</svg>
