<?xml version="1.0" encoding="utf-8"?>
<!-- Generator: Adobe Illustrator 25.0.1, SVG Export Plug-In . SVG Version: 6.00 Build 0)  -->
<svg version="1.1" id="Layer_1" xmlns="http://www.w3.org/2000/svg" xmlns:xlink="http://www.w3.org/1999/xlink" x="0px" y="0px"
	 viewBox="0 0 51.8 51.8" style="enable-background:new 0 0 51.8 51.8;" xml:space="preserve">
<style type="text/css">
	.st0{fill:none;stroke:#304050;stroke-width:1.5;stroke-miterlimit:10;}
	.st1{fill-rule:evenodd;clip-rule:evenodd;fill:#304050;}
	.st2{fill:#304050;}
</style>
<polyline class="st0" points="46.3,16.9 46.3,12.9 5.5,12.9 5.5,45.8 46.3,45.8 46.3,15.1 "/>
<polyline class="st0" points="5.5,12.9 5.5,6 46.3,6 46.3,12.9 "/>
<path class="st1" d="M40.4,9.4c0-0.7-0.5-1.2-1.2-1.3c-0.7,0-1.2,0.5-1.3,1.2c0,0.7,0.5,1.2,1.2,1.3c0,0,0,0,0,0
	C39.8,10.6,40.4,10.1,40.4,9.4C40.4,9.4,40.4,9.4,40.4,9.4z"/>
<path class="st1" d="M44,9.4c0-0.7-0.5-1.2-1.2-1.3c-0.7,0-1.2,0.5-1.3,1.2c0,0.7,0.5,1.2,1.2,1.3c0,0,0,0,0,0
	C43.4,10.6,44,10.1,44,9.4z"/>
<path class="st1" d="M36.8,9.4c0-0.7-0.5-1.2-1.2-1.3c-0.7,0-1.2,0.5-1.3,1.2c0,0.7,0.5,1.2,1.2,1.3c0,0,0,0,0,0
	C36.3,10.6,36.8,10.1,36.8,9.4z"/>
<path class="st1" d="M10.2,9.4c0-0.7-0.5-1.3-1.2-1.3c-0.7,0-1.3,0.5-1.3,1.2c0,0.7,0.5,1.3,1.2,1.3c0,0,0,0,0,0
	C9.6,10.6,10.2,10.1,10.2,9.4z"/>
<g>
	<path class="st2" d="M26.1,18.8c-3.2,0-5.7,2.6-5.7,5.7v2.6c-1.1,0-1.9,0.8-1.9,1.9v8.3c0,1.1,0.8,1.9,1.9,1.9h11.5
		c1.1,0,1.9-0.8,1.9-1.9v-8.3c0-1.1-0.8-1.9-1.9-1.9v-2.6C31.9,21.4,29.3,18.8,26.1,18.8z M32.5,29.1v8.3c0,0.4-0.3,0.6-0.6,0.6
		H20.4c-0.4,0-0.6-0.3-0.6-0.6v-8.3c0-0.4,0.3-0.6,0.6-0.6H21h10.2h0.6C32.3,28.4,32.5,28.7,32.5,29.1z M21.7,27.1v-2.6
		c0-2.5,2-4.5,4.5-4.5s4.5,2,4.5,4.5v2.6H21.7z"/>
	<path class="st2" d="M26.1,30.3c-1.1,0-1.9,0.8-1.9,1.9c0,0.8,0.5,1.5,1.3,1.8v1.4c0,0.4,0.3,0.6,0.6,0.6s0.6-0.3,0.6-0.6V34
		c0.8-0.3,1.3-1,1.3-1.8C28,31.2,27.2,30.3,26.1,30.3z M26.1,32.9c-0.4,0-0.6-0.3-0.6-0.6c0-0.4,0.3-0.6,0.6-0.6s0.6,0.3,0.6,0.6
		C26.8,32.6,26.5,32.9,26.1,32.9z"/>
</g>
</svg>
