<svg id="Layer_1" data-name="Layer 1" xmlns="http://www.w3.org/2000/svg" viewBox="0 0 26 26"><defs><style>.cls-1{fill:none;stroke:#304050;stroke-miterlimit:10;stroke-width:1.5px;fill-rule:evenodd;}</style></defs><path class="cls-1" d="M13,14.14a1.72,1.72,0,1,1,1.71-1.71A1.71,1.71,0,0,1,13,14.14Z"/><path class="cls-1" d="M21,13.93a1,1,0,0,1-1,.87h-.13a1.1,1.1,0,0,0-1,.66,1.08,1.08,0,0,0,.27,1.22A1,1,0,0,1,19.24,18a8.29,8.29,0,0,1-1.3,1.28,1,1,0,0,1-1.32-.11,1.15,1.15,0,0,0-.84-.35,1.11,1.11,0,0,0-.37.07,1.08,1.08,0,0,0-.67,1,1,1,0,0,1-.87,1A8.65,8.65,0,0,1,13,21c-.31,0-.62,0-.92-.05a1,1,0,0,1-.87-1,1.06,1.06,0,0,0-.65-1.06,1,1,0,0,0-.39-.07,1.15,1.15,0,0,0-.83.34A1,1,0,0,1,8,19.24,8.09,8.09,0,0,1,6.72,18a1,1,0,0,1,.11-1.33,1.07,1.07,0,0,0-.69-1.87h0a1,1,0,0,1-1-.87,7.91,7.91,0,0,1,0-1.82,1,1,0,0,1,1-.87,1.16,1.16,0,0,0,1.09-.65,1.08,1.08,0,0,0-.27-1.22A1,1,0,0,1,6.76,8a8.29,8.29,0,0,1,1.3-1.28,1,1,0,0,1,.6-.21,1,1,0,0,1,.73.32,1.11,1.11,0,0,0,1.2.28,1.09,1.09,0,0,0,.67-1,1,1,0,0,1,.87-1,7.74,7.74,0,0,1,1.8,0,1,1,0,0,1,.87,1,1.06,1.06,0,0,0,.65,1.06,1,1,0,0,0,.38.07,1.17,1.17,0,0,0,.84-.34,1,1,0,0,1,.73-.33,1,1,0,0,1,.61.22A8.1,8.1,0,0,1,19.28,8a1,1,0,0,1-.11,1.33,1.08,1.08,0,0,0-.28,1.21,1.1,1.1,0,0,0,1,.66,1,1,0,0,1,1,.87A7.91,7.91,0,0,1,21,13.93Z"/></svg>