<svg xmlns="http://www.w3.org/2000/svg" viewBox="0 0 255 73"><defs><style>.a{fill:#ed793e;}</style></defs><path class="a" d="M94.13,20.21l-.91,6.56h-10V59.58H74.89V26.77H64.48V20.21Zm23.3,12.67c2.49,2.94,3.85,6.79,3.85,11.76A19.84,19.84,0,0,1,119.47,53a13.48,13.48,0,0,1-5,5.65,14.44,14.44,0,0,1-7.69,2c-4.53,0-8.15-1.36-10.64-4.3s-3.84-6.79-3.84-11.77a19.67,19.67,0,0,1,1.81-8.37,13.53,13.53,0,0,1,5-5.65,14.5,14.5,0,0,1,7.7-2c4.52,0,8.14,1.36,10.63,4.3m-15.16,4.3a15.31,15.31,0,0,0-1.58,7.46c0,3.4.45,5.89,1.58,7.47a5.36,5.36,0,0,0,9,0,15.2,15.2,0,0,0,1.59-7.47c0-3.39-.46-5.88-1.59-7.46a4.94,4.94,0,0,0-4.52-2.49,4.58,4.58,0,0,0-4.53,2.49m48.2-4.3c2.48,2.94,3.84,6.79,3.84,11.76A19.84,19.84,0,0,1,152.5,53a13.42,13.42,0,0,1-5,5.65,14.44,14.44,0,0,1-7.69,2c-4.52,0-8.14-1.36-10.63-4.3s-3.85-6.79-3.85-11.77a19.83,19.83,0,0,1,1.81-8.37,13.48,13.48,0,0,1,5-5.65,14.44,14.44,0,0,1,7.69-2c4.53,0,8.15,1.36,10.64,4.3m-15.16,4.3a15.18,15.18,0,0,0-1.59,7.46c0,3.4.46,5.89,1.59,7.47a5.36,5.36,0,0,0,9.05,0,15.33,15.33,0,0,0,1.58-7.47c0-3.39-.45-5.88-1.58-7.46a5,5,0,0,0-4.53-2.49,4.56,4.56,0,0,0-4.52,2.49m26.47,21.27q-2-2-2-6.11V17.49l8.15-.9V52.11c0,1.36.45,2,1.58,2a3.39,3.39,0,0,0,1.59-.45l1.58,5.65a13.36,13.36,0,0,1-5.2,1.13,6.74,6.74,0,0,1-5.66-2M199.11,32.2,196,36.73a14,14,0,0,0-7.47-2.49,6.5,6.5,0,0,0-3.17.68,2.36,2.36,0,0,0-1.13,2,3.39,3.39,0,0,0,.45,1.59,2.84,2.84,0,0,0,1.81,1.13c.91.22,2.27.9,4.07,1.35,3.17.91,5.66,2,7,3.4,1.58,1.36,2.26,3.39,2.26,6.11a8.08,8.08,0,0,1-1.81,5.2,9.19,9.19,0,0,1-4.75,3.4,19.9,19.9,0,0,1-6.56,1.13,24,24,0,0,1-7-1.13A16.44,16.44,0,0,1,174.22,56l4.08-4.53a12.43,12.43,0,0,0,8.14,2.94,5.71,5.71,0,0,0,3.62-.9A2.84,2.84,0,0,0,191.42,51a3.58,3.58,0,0,0-.45-1.81,6.62,6.62,0,0,0-1.81-1.36,19.61,19.61,0,0,0-4.3-1.35,16.15,16.15,0,0,1-6.79-3.62,8.47,8.47,0,0,1-2.26-5.66,6.54,6.54,0,0,1,1.58-4.53,10.08,10.08,0,0,1,4.3-3.16A17.6,17.6,0,0,1,188,28.36a20.37,20.37,0,0,1,11.08,3.84m31.68,14.94H212c.23,2.71.91,4.75,2.26,5.88a7,7,0,0,0,5,1.81,9.41,9.41,0,0,0,3.62-.68,19.93,19.93,0,0,0,3.62-2l3.39,4.53a18,18,0,0,1-11.53,4.07c-4.76,0-8.38-1.36-10.86-4.3a17.31,17.31,0,0,1-3.85-11.54,19.76,19.76,0,0,1,1.58-8.37A15.21,15.21,0,0,1,210,30.62a13.16,13.16,0,0,1,7.47-2c4.3,0,7.69,1.36,10,4.07C229.88,35.37,231,39.21,231,44a26.79,26.79,0,0,1-.23,3.17m-7.92-5.44q0-7.46-5.43-7.46a4.86,4.86,0,0,0-3.85,1.81c-.9,1.13-1.58,3.16-1.58,6.11h10.82ZM255,58.22A17.75,17.75,0,0,1,251.38,60a12.87,12.87,0,0,1-4.07.68c-3.17,0-5.43-.9-7-2.72a11.21,11.21,0,0,1-2.49-7.69V35.37h-4.52V29.49h4.52V22.92L246,22v7.47h7l-.9,5.65H246V50.08a6,6,0,0,0,.68,3.16,2.62,2.62,0,0,0,2.26.91,7.52,7.52,0,0,0,3.4-1.13Zm-202.51-38H46.61V14.33a2.37,2.37,0,0,0-2.49-2.49H32.58a2.37,2.37,0,0,0-2.49,2.49v5.88h-5.2V14.33a2.38,2.38,0,0,0-2.49-2.49H10.86a2.37,2.37,0,0,0-2.49,2.49v5.88H2.49A2.26,2.26,0,0,0,0,22.7V58.9a2.33,2.33,0,0,0,2.49,2.26h50A2.37,2.37,0,0,0,55,58.67v-36a2.87,2.87,0,0,0-2.49-2.49m-38,6.11V18.17h3.85v8.37H36.2V18.17h4.08v8.37h8.37V54.6H6.34V26.32Z"/></svg>