<?xml version="1.0" encoding="UTF-8"?>
<!-- Generator: Adobe Illustrator 25.0.1, SVG Export Plug-In . SVG Version: 6.00 Build 0)  -->
<svg version="1.1" id="Layer_1" xmlns="http://www.w3.org/2000/svg" xmlns:xlink="http://www.w3.org/1999/xlink" x="0px" y="0px" viewBox="0 0 24 24" style="enable-background:new 0 0 24 24;" xml:space="preserve">
<style type="text/css">
	.st0{fill:#ffffff;}
</style>
<path id="CUSTOM" class="st0" d="M19.1,4.9C17.1,3,14.6,2,12,2S6.9,3,4.9,4.9C3,6.9,2,9.4,2,12s1,5.1,2.9,7.1C6.9,21,9.4,22,12,22  s5.1-1,7.1-2.9C21,17.2,22,14.8,22,12S21,6.9,19.1,4.9z M12,20.9c-0.6,0-1.4-0.9-2-2.4c-0.2-0.5-0.4-1.1-0.5-1.9  c0.6-0.2,1-0.8,1.2-1.4h4c-0.1,1.2-0.4,2.2-0.8,3.2C13.4,20,12.6,20.9,12,20.9z M6.5,14.1H3.4c-0.1-0.8-0.2-1.4-0.2-2.1  c0-0.9,0.1-1.9,0.4-2.8H8C7.9,10.1,7.9,11,7.9,12c0,0.2,0,0.4,0,0.6C7.2,12.9,6.8,13.4,6.5,14.1L6.5,14.1z M8.6,13.6  c0.5,0,1,0.5,1,1s-0.5,1-1,1c-0.5,0-1-0.5-1-1C7.6,14.1,8.1,13.6,8.6,13.6z M10.8,14.1c-0.2-0.8-0.9-1.4-1.6-1.5c0-0.1,0-0.4,0-0.5  c0-0.9,0-1.9,0.1-2.7h4c0.2,0.8,0.9,1.4,1.8,1.5c0,0.4,0,0.8,0,1.1c0,0.8,0,1.4-0.1,2.1H10.8L10.8,14.1z M12,3.1  c0.6,0,1.4,0.9,2,2.4c0.1,0.4,0.2,0.8,0.4,1.2c-0.6,0.2-1,0.7-1.1,1.4H9.5c0.1-1,0.4-1.9,0.6-2.6C10.6,4,11.4,3.1,12,3.1L12,3.1z   M15.2,9.8c-0.5,0-1-0.5-1-1c0-0.5,0.5-1,1-1s1,0.5,1,1C16.2,9.2,15.9,9.8,15.2,9.8z M16.1,10.8c0.6-0.2,1.1-0.8,1.4-1.5h3  c0.2,0.9,0.4,1.8,0.4,2.8c0,0.8-0.1,1.4-0.3,2.1h-4.5c0-0.6,0.1-1.4,0.1-2.1C16.1,11.6,16.1,11.1,16.1,10.8L16.1,10.8z M19.9,8.1  h-2.5c-0.3-0.9-1-1.5-1.9-1.6c-0.1-0.5-0.2-1-0.4-1.4c-0.2-0.6-0.5-1.2-0.9-1.8c1.5,0.5,2.9,1.3,4,2.4C19,6.5,19.5,7.2,19.9,8.1  L19.9,8.1z M5.8,5.8c1.1-1.1,2.5-1.9,4-2.3C9.5,3.9,9.2,4.5,9,5.1C8.6,6,8.4,7,8.2,8.1H4.1C4.5,7.2,5,6.5,5.8,5.8L5.8,5.8z   M3.8,15.2h2.8c0.2,0.9,1,1.5,1.9,1.6c0.1,0.8,0.4,1.4,0.6,2c0.2,0.6,0.5,1.2,0.9,1.8c-1.6-0.5-3-1.2-4.1-2.4  C4.9,17.4,4.2,16.4,3.8,15.2L3.8,15.2z M18.2,18.2c-1.1,1.1-2.5,1.9-4,2.2c0.2-0.5,0.6-1,0.9-1.8c0.4-1,0.6-2.2,0.9-3.6h4.4  C19.8,16.4,19.1,17.4,18.2,18.2z"/>
</svg>