<?xml version="1.0" encoding="utf-8"?>
<!-- Generator: Adobe Illustrator 25.0.1, SVG Export Plug-In . SVG Version: 6.00 Build 0)  -->
<svg version="1.1" id="Layer_4" xmlns="http://www.w3.org/2000/svg" xmlns:xlink="http://www.w3.org/1999/xlink" x="0px" y="0px"
	 viewBox="0 0 26 26" style="enable-background:new 0 0 26 26;" xml:space="preserve">
<style type="text/css">
	.st0{fill:none;stroke:#304050;stroke-width:1.5;stroke-linecap:round;stroke-linejoin:round;}
</style>
<g>
	<path class="st0" d="M19,12.3c0,0,0-0.3,0,10H6V10V7.3h8"/>
	<line class="st0" x1="16" y1="19.3" x2="9" y2="19.3"/>
	<path class="st0" d="M22.2,6.4c0.8,2.2-0.3,4.6-2.5,5.4s-4.6-0.3-5.4-2.5s0.3-4.6,2.5-5.4c0.5-0.2,1-0.3,1.5-0.3
		c0.7,0,1.5,0.2,2.1,0.6"/>
	<polyline class="st0" points="17.2,6.7 18.6,7.5 18.7,9.8 	"/>
	<path class="st0" d="M19.3,14.6"/>
	<line class="st0" x1="16" y1="16.3" x2="9" y2="16.3"/>
	<line class="st0" x1="12" y1="13.3" x2="9" y2="13.3"/>
	<line class="st0" x1="10" y1="10.3" x2="9" y2="10.3"/>
</g>
</svg>
