<?xml version="1.0" encoding="utf-8"?>
<!-- Generator: Adobe Illustrator 25.0.1, SVG Export Plug-In . SVG Version: 6.00 Build 0)  -->
<svg version="1.1" id="Layer_1" xmlns="http://www.w3.org/2000/svg" xmlns:xlink="http://www.w3.org/1999/xlink" x="0px" y="0px"
	 viewBox="0 0 22 22" style="enable-background:new 0 0 22 22;" xml:space="preserve">
<style type="text/css">
	.st0{fill:none;stroke:#304050;stroke-width:1.5;stroke-linecap:round;stroke-linejoin:round;}
</style>
<g>
	<path class="st0" d="M6,13.4H5c-0.6,0-1-0.4-1-1v-3c0-0.6,0.4-1,1-1h1c0.6,0,1,0.4,1,1v3C7,13,6.6,13.4,6,13.4z"/>
	<path class="st0" d="M17,13.4h-1c-0.6,0-1-0.4-1-1v-3c0-0.6,0.4-1,1-1h1c0.6,0,1,0.4,1,1v3C18,13,17.6,13.4,17,13.4z"/>
	<path class="st0" d="M12.5,16.8h3c0.6,0,1-0.4,1-1v-2.3"/>
	<path class="st0" d="M5.4,7.8c0-2.2,2.5-4,5.6-4s5.6,1.8,5.6,4v0.6"/>
	<circle class="st0" cx="11" cy="16.8" r="1.5"/>
</g>
</svg>
