<svg width="19" height="19" viewBox="0 0 19 19" fill="none" xmlns="http://www.w3.org/2000/svg">
<path d="M9.5 6.33333V9.5M9.5 12.6667H9.50792M6.175 16.625H12.825C14.1551 16.625 14.8202 16.625 15.3282 16.3661C15.7751 16.1384 16.1384 15.7751 16.3661 15.3282C16.625 14.8202 16.625 14.1551 16.625 12.825V6.175C16.625 4.84488 16.625 4.17981 16.3661 3.67177C16.1384 3.22489 15.7751 2.86156 15.3282 2.63386C14.8202 2.375 14.1551 2.375 12.825 2.375H6.175C4.84488 2.375 4.17981 2.375 3.67177 2.63386C3.22489 2.86156 2.86156 3.22489 2.63386 3.67177C2.375 4.17981 2.375 4.84488 2.375 6.175V12.825C2.375 14.1551 2.375 14.8202 2.63386 15.3282C2.86156 15.7751 3.22489 16.1384 3.67177 16.3661C4.17981 16.625 4.84488 16.625 6.175 16.625Z" stroke="white" stroke-width="2" stroke-linecap="round" stroke-linejoin="round"/>
</svg>
