<?xml version="1.0" encoding="utf-8"?>
<!-- Generator: Adobe Illustrator 25.0.1, SVG Export Plug-In . SVG Version: 6.00 Build 0)  -->
<svg version="1.1" id="Layer_1" xmlns="http://www.w3.org/2000/svg" xmlns:xlink="http://www.w3.org/1999/xlink" x="0px" y="0px"
	 viewBox="0 0 22 22" style="enable-background:new 0 0 22 22;" xml:space="preserve">
<style type="text/css">
	.st0{fill:none;stroke:#ffffff;stroke-width:1.5;stroke-linecap:round;stroke-linejoin:round;}
	.st1{fill:none;stroke:#ffffff;stroke-width:1.5;stroke-linecap:round;stroke-linejoin:round;stroke-dasharray:0.944,1.888;}
	.st2{fill:none;stroke:#ffffff;stroke-width:1.5;stroke-linecap:round;stroke-linejoin:round;stroke-dasharray:1,2;}
	.st3{fill:none;stroke:#ffffff;stroke-width:1.5;stroke-linecap:round;stroke-linejoin:round;stroke-dasharray:0.8669,1.7339;}
	.st4{fill:none;stroke:#ffffff;stroke-width:1.5;stroke-linecap:round;stroke-linejoin:round;stroke-dasharray:1.1,2.2;}
	.st5{fill:none;stroke:#ffffff;stroke-width:1.5;stroke-linecap:round;stroke-linejoin:round;stroke-dasharray:0.9826,1.9652;}
	.st6{fill:#ffffff;}
</style>
<g>
	<g>
		<line class="st0" x1="17" y1="10.9" x2="17" y2="10.4"/>
		<line class="st1" x1="17" y1="8.5" x2="17" y2="6.6"/>
		<polyline class="st0" points="17,5.7 17,5.2 16.5,5.2 		"/>
		<line class="st2" x1="14.5" y1="5.2" x2="6.5" y2="5.2"/>
		<polyline class="st0" points="5.5,5.2 5,5.2 5,5.7 		"/>
		<line class="st3" x1="5" y1="7.4" x2="5" y2="9.1"/>
		<line class="st0" x1="5" y1="10" x2="5" y2="10.5"/>
	</g>
</g>
<g>
	<g>
		<line class="st0" x1="5" y1="10.5" x2="5" y2="11"/>
		<line class="st4" x1="5" y1="13.2" x2="5" y2="15.4"/>
		<polyline class="st0" points="5,16.5 5,17 5.5,17 		"/>
		<line class="st5" x1="7.5" y1="17" x2="9.4" y2="17"/>
		<line class="st0" x1="10.4" y1="17" x2="10.9" y2="17"/>
	</g>
</g>
<path class="st6" d="M18.1,14.9l-5.1-3.6c-0.1-0.1-0.4,0.1-0.4,0.3l1,5.9c0,0.1,0.2,0.2,0.3,0.2c0.1,0,0.1,0,0.1-0.1l1.1-1.2
	l1.4,2.1c0,0,0,0.1,0.1,0.1l0.2,0l0.9-0.6c0.1,0,0.1-0.1,0.1-0.2l-1.3-2.1l1.6-0.3c0.1,0,0.2-0.2,0.2-0.3
	C18.1,15.1,18.1,14.9,18.1,14.9z"/>
</svg>
