<svg id="th_color" xmlns="http://www.w3.org/2000/svg" viewBox="0 0 26 26"><defs><style>.cls-1{fill:#304050;}</style></defs><path class="cls-1" d="M6,19.25a.75.75,0,1,0,.74.76A.75.75,0,0,0,6,19.25Z"/><path class="cls-1" d="M8,19.25a.75.75,0,1,0,.74.76A.75.75,0,0,0,8,19.25Z"/><path class="cls-1" d="M10,19.25a.75.75,0,1,0,.74.76A.75.75,0,0,0,10,19.25Z"/><path class="cls-1" d="M12,19.25a.75.75,0,1,0,.74.76A.75.75,0,0,0,12,19.25Z"/><path class="cls-1" d="M14,19.25a.75.75,0,1,0,.74.76A.75.75,0,0,0,14,19.25Z"/><path class="cls-1" d="M16,19.25a.75.75,0,1,0,.74.76A.75.75,0,0,0,16,19.25Z"/><path class="cls-1" d="M18,19.25a.75.75,0,1,0,.74.76A.75.75,0,0,0,18,19.25Z"/><path class="cls-1" d="M20,19.25a.75.75,0,1,0,.74.76A.75.75,0,0,0,20,19.25Z"/><path class="cls-1" d="M20,17.25a.75.75,0,1,0,.74.76A.75.75,0,0,0,20,17.25Z"/><path class="cls-1" d="M20,15.25a.75.75,0,1,0,.74.76A.75.75,0,0,0,20,15.25Z"/><path class="cls-1" d="M20,13.25a.75.75,0,1,0,.74.76A.75.75,0,0,0,20,13.25Z"/><path class="cls-1" d="M20,11.25a.75.75,0,1,0,.74.76A.75.75,0,0,0,20,11.25Z"/><path class="cls-1" d="M20,9.25a.75.75,0,1,0,.74.76A.75.75,0,0,0,20,9.25Z"/><path class="cls-1" d="M20,7.25a.75.75,0,1,0,.74.76A.75.75,0,0,0,20,7.25Z"/><path class="cls-1" d="M20,5.25a.75.75,0,1,0,.74.76A.75.75,0,0,0,20,5.25Z"/><path class="cls-1" d="M18,5.25a.75.75,0,1,0,.74.76A.75.75,0,0,0,18,5.25Z"/><path class="cls-1" d="M16,5.25a.75.75,0,1,0,.74.76A.75.75,0,0,0,16,5.25Z"/><path class="cls-1" d="M14,5.25a.75.75,0,1,0,.74.76A.75.75,0,0,0,14,5.25Z"/><path class="cls-1" d="M12,5.25a.75.75,0,1,0,.74.76A.75.75,0,0,0,12,5.25Z"/><path class="cls-1" d="M10,5.25a.75.75,0,1,0,.74.76A.75.75,0,0,0,10,5.25Z"/><path class="cls-1" d="M8,5.25A.75.75,0,1,0,8.75,6,.75.75,0,0,0,8,5.25Z"/><path class="cls-1" d="M6,5.25A.75.75,0,1,0,6.75,6,.75.75,0,0,0,6,5.25Z"/><path class="cls-1" d="M6,7.25A.75.75,0,1,0,6.75,8,.75.75,0,0,0,6,7.25Z"/><path class="cls-1" d="M6,9.25a.75.75,0,1,0,.74.76A.75.75,0,0,0,6,9.25Z"/><path class="cls-1" d="M6,11.25a.75.75,0,1,0,.74.76A.75.75,0,0,0,6,11.25Z"/><path class="cls-1" d="M6,13.25a.75.75,0,1,0,.74.76A.75.75,0,0,0,6,13.25Z"/><path class="cls-1" d="M6,15.25a.75.75,0,1,0,.74.76A.75.75,0,0,0,6,15.25Z"/><path class="cls-1" d="M6,17.25a.75.75,0,1,0,.74.76A.75.75,0,0,0,6,17.25Z"/></svg>