<svg id="th_color" xmlns="http://www.w3.org/2000/svg" viewBox="0 0 26 26"><defs><style>.cls-1{fill:#304050;}.cls-2{fill:none;stroke:#304050;stroke-linecap:round;stroke-linejoin:round;stroke-width:1.5px;}</style></defs><circle class="cls-1" cx="10" cy="20" r="1"/><circle class="cls-1" cx="13" cy="20" r="1"/><circle class="cls-1" cx="16" cy="20" r="1"/><path class="cls-2" d="M7,20H5.8a.8.8,0,0,1-.8-.8V6.8A.8.8,0,0,1,5.8,6H20.2a.8.8,0,0,1,.8.8V19.2a.8.8,0,0,1-.8.8H19"/><line class="cls-2" x1="13" y1="17.58" x2="13" y2="15.83"/><path class="cls-2" d="M13,11h0a3,3,0,0,1,3,3v.25a.75.75,0,0,1-.75.75h-4.5a.75.75,0,0,1-.75-.75V14A3,3,0,0,1,13,11Z" transform="translate(26 26) rotate(180)"/><line class="cls-2" x1="14.2" y1="9.42" x2="14.2" y2="10.83"/><line class="cls-2" x1="11.8" y1="9.42" x2="11.8" y2="10.83"/></svg>