<svg id="th_color" xmlns="http://www.w3.org/2000/svg" viewBox="0 0 26 26"><defs><style>.cls-1{fill:none;stroke:#304050;stroke-linecap:round;stroke-linejoin:round;stroke-width:1.5px;}.cls-2{fill:#304050;}</style></defs><path class="cls-1" d="M11,9.55a3,3,0,0,1-.32,1.85v0l-1.86,5A.86.86,0,0,1,8,17H8a.86.86,0,0,1-.85-1L7.5,13A3,3,0,1,1,11,9.55Z"/><path class="cls-1" d="M20,9.55a3,3,0,0,1-.32,1.85v0l-1.86,5A.86.86,0,0,1,17,17h0a.86.86,0,0,1-.85-1L16.5,13A3,3,0,1,1,20,9.55Z"/><circle class="cls-2" cx="10" cy="20" r="1"/><circle class="cls-2" cx="13" cy="20" r="1"/><circle class="cls-2" cx="16" cy="20" r="1"/></svg>