<svg id="th_color" xmlns="http://www.w3.org/2000/svg" viewBox="0 0 26 26"><defs><style>.cls-1{fill:none;stroke:#304050;stroke-linecap:round;stroke-linejoin:round;stroke-width:1.5px;}.cls-2{fill:#304050;}</style></defs><line class="cls-1" x1="20" y1="9" x2="15" y2="9"/><line class="cls-1" x1="11" y1="13" x2="6" y2="13"/><line class="cls-1" x1="20" y1="17" x2="15" y2="17"/><path class="cls-2" d="M13,6.25a.75.75,0,1,0,.74.76A.75.75,0,0,0,13,6.25Z"/><path class="cls-2" d="M13,4.25a.75.75,0,1,0,.74.76A.75.75,0,0,0,13,4.25Z"/><path class="cls-2" d="M13,8.25a.75.75,0,1,0,.74.76A.75.75,0,0,0,13,8.25Z"/><path class="cls-2" d="M11,8.25a.75.75,0,1,0,.74.76A.75.75,0,0,0,11,8.25Z"/><path class="cls-2" d="M13,10.25a.75.75,0,1,0,.74.76A.75.75,0,0,0,13,10.25Z"/><path class="cls-2" d="M13,12.25a.75.75,0,1,0,.74.76A.75.75,0,0,0,13,12.25Z"/><path class="cls-2" d="M15,12.25a.75.75,0,1,0,.74.76A.75.75,0,0,0,15,12.25Z"/><path class="cls-2" d="M11,16.25a.75.75,0,1,0,.74.76A.75.75,0,0,0,11,16.25Z"/><path class="cls-2" d="M13,14.25a.75.75,0,1,0,.74.76A.75.75,0,0,0,13,14.25Z"/><path class="cls-2" d="M13,16.25a.75.75,0,1,0,.74.76A.75.75,0,0,0,13,16.25Z"/><path class="cls-2" d="M13,18.25a.75.75,0,1,0,.74.76A.75.75,0,0,0,13,18.25Z"/><path class="cls-2" d="M13,20.25a.75.75,0,1,0,.74.76A.75.75,0,0,0,13,20.25Z"/></svg>