<svg id="Layer_1" data-name="Layer 1" xmlns="http://www.w3.org/2000/svg" viewBox="0 0 60 60"><defs><style>.cls-1,.cls-2{fill:#7d818e;}.cls-1{opacity:0.7;}.cls-2{opacity:0.5;}.cls-3{fill:#489c6d;}.cls-4{fill:none;stroke:#7d818e;stroke-linecap:round;stroke-linejoin:round;stroke-width:2px;}</style></defs><path class="cls-1" d="M16,25.62H26c.55,0,1,.34,1,.75v22.5c0,.41-.45.75-1,.75H16c-.55,0-1-.34-1-.75V26.37C15,26,15.45,25.62,16,25.62Z"/><path class="cls-2" d="M33.67,33.54H44.33a.61.61,0,0,1,.67.51V49a.61.61,0,0,1-.67.51H33.67A.61.61,0,0,1,33,49V34A.61.61,0,0,1,33.67,33.54Z"/><path class="cls-3" d="M5,55H55a2,2,0,0,1,2,2h0a2,2,0,0,1-2,2H5a2,2,0,0,1-2-2H3A2,2,0,0,1,5,55Z"/><polyline class="cls-4" points="27.74 16.94 31.24 20 34.74 16.94"/><line class="cls-4" x1="31.24" y1="20" x2="31.24" y2="12"/></svg>