<svg id="Layer_1" data-name="Layer 1" xmlns="http://www.w3.org/2000/svg" viewBox="0 0 60 60"><defs><style>.cls-1,.cls-2{fill:#7d818e;}.cls-1{opacity:0.7;}.cls-2{opacity:0.5;}.cls-3{fill:#489c6d;}.cls-4{fill:none;stroke:#7d818e;stroke-linecap:round;stroke-linejoin:round;stroke-width:2px;}</style></defs><path class="cls-1" d="M16,10H26c.55,0,1,.34,1,.75v22.5c0,.41-.45.75-1,.75H16c-.55,0-1-.34-1-.75V10.75C15,10.34,15.45,10,16,10Z"/><path class="cls-2" d="M33.67,10H44.33a.61.61,0,0,1,.67.51v15a.61.61,0,0,1-.67.49H33.67a.61.61,0,0,1-.67-.49v-15A.61.61,0,0,1,33.67,10Z"/><path class="cls-3" d="M5,1H55a2,2,0,0,1,2,2h0a2,2,0,0,1-2,2H5A2,2,0,0,1,3,3H3A2,2,0,0,1,5,1Z"/><polyline class="cls-4" points="33.5 44.06 30 41 26.5 44.06"/><line class="cls-4" x1="30" y1="41" x2="30" y2="49"/></svg>