<svg width="84" height="84" viewBox="0 0 84 84" fill="none" xmlns="http://www.w3.org/2000/svg">
<path d="M42.0186 40.3528C39.8448 40.3528 38.0811 42.1148 38.0811 44.2903C38.2681 56.1438 36.7456 67.5708 33.5365 78.9977C33.0886 80.5924 33.8892 84 37.3297 84C39.0491 84 40.629 82.8647 41.1179 81.1256C43.3377 73.2654 46.2105 60.5505 45.9545 44.2903C45.9562 42.1165 44.1941 40.3528 42.0186 40.3528V40.3528ZM41.8775 26.944C31.827 26.9325 24.8132 34.6664 24.9527 43.5291C25.0757 51.3942 24.3374 59.2643 22.7591 66.9162C22.3178 69.0457 23.6894 71.1309 25.8173 71.569C27.9583 72.007 30.0288 70.6404 30.4701 68.5109C32.1666 60.293 32.959 51.8454 32.8277 43.406C32.7605 39.1486 36.0959 34.7944 41.7611 34.819C46.8979 34.8961 51.1373 38.9763 51.2145 43.9195C51.3408 51.8027 50.7534 59.7237 49.4737 67.4707C49.1177 69.6134 50.5713 71.6412 52.7156 71.9955C55.992 72.5419 57.1142 69.5182 57.2405 68.752C58.599 60.544 59.2192 52.1473 59.0895 43.7965C58.9452 34.6418 51.2243 27.0818 41.8775 26.944V26.944ZM23.7173 23.6988C22.0274 22.3305 19.5549 22.5832 18.1784 24.2698C13.9751 29.4377 11.7159 35.9641 11.8209 42.6448C11.9177 48.8102 11.4157 54.9937 10.3263 61.028C9.9424 63.169 11.3616 65.2165 13.5026 65.6037C16.8019 66.1779 17.9438 63.1739 18.0784 62.4274C19.258 55.8912 19.801 49.1941 19.696 42.5217C19.6189 37.6195 21.2054 33.0258 24.2898 29.2376C25.6598 27.551 25.4038 25.072 23.7173 23.6988ZM41.6774 13.4728C39.1491 13.4055 36.6127 13.7091 34.1665 14.2882C32.0517 14.7902 30.7425 16.9099 31.2412 19.028C31.7433 21.1427 33.8663 22.4454 35.9811 21.9532C37.794 21.525 39.6676 21.3347 41.5593 21.3478C53.9346 21.5332 64.1559 31.4377 64.3445 43.4273C64.4413 49.642 64.1345 55.9141 63.429 62.0698C63.1829 64.2305 64.7334 66.1844 66.8924 66.4305C69.6356 66.7505 71.0777 64.4815 71.2533 62.9672C71.9988 56.4406 72.3216 49.8726 72.2196 43.3043C71.9637 27.1031 58.2627 13.7189 41.6774 13.4728V13.4728ZM83.0331 33.3982C82.5639 31.2785 80.4885 29.9201 78.3392 30.4008C76.2162 30.87 74.8742 32.97 75.3434 35.0946C76.1161 38.6072 76.149 41.2322 76.1145 45.2009C76.0965 47.378 77.8454 49.1531 80.0192 49.1712H80.0521C82.2128 49.1712 83.9716 47.4305 83.9896 45.2665C84.0191 41.6276 84.0552 38.0297 83.0331 33.3982ZM76.4508 18.5144C68.4609 7.13015 55.3866 0.21163 41.4756 0.00327044C30.0255 -0.134542 19.4352 4.08679 11.5584 11.9667C3.95077 19.5841 -0.1492 29.7019 0.0214268 40.466L0.00173909 43.9884C-0.062246 46.1623 1.64731 47.9768 3.82116 48.0391C3.85889 48.0424 3.89991 48.0424 3.93929 48.0424C6.059 48.0424 7.80957 46.3526 7.87191 44.2198L7.89816 40.3413C7.76199 31.728 11.0416 23.6299 17.1317 17.5366C23.4908 11.171 32.1173 7.74702 41.3607 7.87991C52.755 8.0489 63.4651 13.714 70.0097 23.0376C71.2582 24.8194 73.711 25.2443 75.4927 23.9991C77.2712 22.7489 77.701 20.2929 76.4508 18.5144V18.5144Z" fill="#717171"/>
</svg>
