<svg width="516" height="500" viewBox="0 0 516 500" fill="none" xmlns="http://www.w3.org/2000/svg">
<g clip-path="url(#clip0_103_275)">
<path d="M515.302 319.822C524.071 214.078 445.63 121.233 340.1 112.446C234.57 103.659 141.913 182.259 133.144 288.002C124.375 393.746 202.816 486.591 308.345 495.378C413.875 504.164 506.533 425.565 515.302 319.822Z" fill="url(#paint0_linear_103_275)"/>
<path d="M46.9152 44.3136H0C7.75236 30.8534 15.5047 17.4602 23.2571 4C31.1431 17.4602 39.0291 30.8534 46.9152 44.3136Z" fill="#121212"/>
<path d="M107.063 44.3136H60.1475C67.8998 30.8534 75.6522 17.4602 83.4045 4C91.2906 17.4602 99.1766 30.8534 107.063 44.3136Z" fill="#121212"/>
<path d="M167.277 44.3136H120.362C128.115 30.8534 135.867 17.4602 143.619 4C151.505 17.4602 159.391 30.8534 167.277 44.3136Z" fill="#121212"/>
<path d="M227.425 44.3136H180.51C188.262 30.8534 196.014 17.4602 203.767 4C211.653 17.4602 219.539 30.8534 227.425 44.3136Z" fill="#121212"/>
<path d="M287.572 44.3136H240.657C248.41 30.8534 256.162 17.4602 263.914 4C271.8 17.4602 279.686 30.8534 287.572 44.3136Z" fill="#121212"/>
<path d="M347.72 44.3136H300.805C308.558 30.8534 316.31 17.4602 324.062 4C331.948 17.4602 339.834 30.8534 347.72 44.3136Z" fill="#121212"/>
<path d="M46.9152 96.2123H0C7.75236 82.7521 15.5047 69.3589 23.2571 55.8987C31.1431 69.3589 39.0291 82.7521 46.9152 96.2123Z" fill="#121212"/>
<path d="M107.063 96.2123H60.1475C67.8998 82.7521 75.6522 69.3589 83.4045 55.8987C91.2906 69.3589 99.1766 82.7521 107.063 96.2123Z" fill="#121212"/>
<path d="M167.277 96.2123H120.362C128.115 82.7521 135.867 69.3589 143.619 55.8987C151.505 69.3589 159.391 82.7521 167.277 96.2123Z" fill="#121212"/>
<path d="M227.425 96.2123H180.51C188.262 82.7521 196.014 69.3589 203.767 55.8987C211.653 69.3589 219.539 82.7521 227.425 96.2123Z" fill="#121212"/>
<path d="M287.572 96.2123H240.657C248.41 82.7521 256.162 69.3589 263.914 55.8987C271.8 69.3589 279.686 82.7521 287.572 96.2123Z" fill="#121212"/>
<path d="M347.72 96.2123H300.805C308.558 82.7521 316.31 69.3589 324.062 55.8987C331.948 69.3589 339.834 82.7521 347.72 96.2123Z" fill="#121212"/>
<path d="M46.9152 148.178H0C7.75236 134.718 15.5047 121.325 23.2571 107.864C31.1431 121.325 39.0291 134.718 46.9152 148.178Z" fill="#121212"/>
<path d="M107.063 148.178H60.1475C67.8998 134.718 75.6522 121.325 83.4045 107.864C91.2906 121.325 99.1766 134.718 107.063 148.178Z" fill="#121212"/>
<path d="M167.277 148.178H120.362C128.115 134.718 135.867 121.325 143.619 107.864C151.505 121.325 159.391 134.718 167.277 148.178Z" fill="#121212"/>
<path d="M227.425 148.178H180.51C188.262 134.718 196.014 121.325 203.767 107.864C211.653 121.325 219.539 134.718 227.425 148.178Z" fill="#121212"/>
<path d="M287.572 148.178H240.657C248.41 134.718 256.162 121.325 263.914 107.864C271.8 121.325 279.686 134.718 287.572 148.178Z" fill="#121212"/>
<path d="M347.72 148.178H300.805C308.558 134.718 316.31 121.325 324.062 107.864C331.948 121.325 339.834 134.718 347.72 148.178Z" fill="#121212"/>
<path d="M46.9152 200.077H0C7.75236 186.617 15.5047 173.223 23.2571 159.763C31.1431 173.223 39.0291 186.617 46.9152 200.077Z" fill="#121212"/>
<path d="M107.063 200.077H60.1475C67.8998 186.617 75.6522 173.223 83.4045 159.763C91.2906 173.223 99.1766 186.617 107.063 200.077Z" fill="#121212"/>
<path d="M167.277 200.077H120.362C128.115 186.617 135.867 173.223 143.619 159.763C151.505 173.223 159.391 186.617 167.277 200.077Z" fill="#121212"/>
<path d="M227.425 200.077H180.51C188.262 186.617 196.014 173.223 203.767 159.763C211.653 173.223 219.539 186.617 227.425 200.077Z" fill="#121212"/>
<path d="M287.572 200.077H240.657C248.41 186.617 256.162 173.223 263.914 159.763C271.8 173.223 279.686 186.617 287.572 200.077Z" fill="#121212"/>
<path d="M347.72 200.077H300.805C308.558 186.617 316.31 173.223 324.062 159.763C331.948 173.223 339.834 186.617 347.72 200.077Z" fill="#121212"/>
<path d="M46.9152 251.975H0C7.75236 238.515 15.5047 225.122 23.2571 211.662C31.1431 225.122 39.0291 238.515 46.9152 251.975Z" fill="#121212"/>
<path d="M107.063 251.975H60.1475C67.8998 238.515 75.6522 225.122 83.4045 211.662C91.2906 225.122 99.1766 238.515 107.063 251.975Z" fill="#121212"/>
<path d="M167.277 251.975H120.362C128.115 238.515 135.867 225.122 143.619 211.662C151.505 225.122 159.391 238.515 167.277 251.975Z" fill="#121212"/>
<path d="M227.425 251.975H180.51C188.262 238.515 196.014 225.122 203.767 211.662C211.653 225.122 219.539 238.515 227.425 251.975Z" fill="#121212"/>
<path d="M287.572 251.975H240.657C248.41 238.515 256.162 225.122 263.914 211.662C271.8 225.122 279.686 238.515 287.572 251.975Z" fill="#121212"/>
<path d="M347.72 251.975H300.805C308.558 238.515 316.31 225.122 324.062 211.662C331.948 225.122 339.834 238.515 347.72 251.975Z" fill="#121212"/>
<path d="M46.9152 303.941H0C7.75236 290.481 15.5047 277.088 23.2571 263.628C31.1431 277.088 39.0291 290.481 46.9152 303.941V303.941Z" fill="#121212"/>
<path d="M107.063 303.941H60.1475C67.8998 290.481 75.6522 277.088 83.4045 263.628C91.2906 277.088 99.1766 290.481 107.063 303.941V303.941Z" fill="#121212"/>
<path d="M167.277 303.941H120.362C128.115 290.481 135.867 277.088 143.619 263.628C151.505 277.088 159.391 290.481 167.277 303.941V303.941Z" fill="#121212"/>
<path d="M227.425 303.941H180.51C188.262 290.481 196.014 277.088 203.767 263.628C211.653 277.088 219.539 290.481 227.425 303.941V303.941Z" fill="#121212"/>
<path d="M287.572 303.941H240.657C248.41 290.481 256.162 277.088 263.914 263.628C271.8 277.088 279.686 290.481 287.572 303.941V303.941Z" fill="#121212"/>
<path d="M347.72 303.941H300.805C308.558 290.481 316.31 277.088 324.062 263.628C331.948 277.088 339.834 290.481 347.72 303.941V303.941Z" fill="#121212"/>
<path d="M46.9152 355.84H0C7.75236 342.38 15.5047 328.987 23.2571 315.526C31.1431 328.987 39.0291 342.38 46.9152 355.84V355.84Z" fill="#121212"/>
<path d="M107.063 355.84H60.1475C67.8998 342.38 75.6522 328.987 83.4045 315.526C91.2906 328.987 99.1766 342.38 107.063 355.84V355.84Z" fill="#121212"/>
<path d="M167.277 355.84H120.362C128.115 342.38 135.867 328.987 143.619 315.526C151.505 328.987 159.391 342.38 167.277 355.84V355.84Z" fill="#121212"/>
<path d="M227.425 355.84H180.51C188.262 342.38 196.014 328.987 203.767 315.526C211.653 328.987 219.539 342.38 227.425 355.84V355.84Z" fill="#121212"/>
<path d="M287.572 355.84H240.657C248.41 342.38 256.162 328.987 263.914 315.526C271.8 328.987 279.686 342.38 287.572 355.84V355.84Z" fill="#121212"/>
<path d="M347.72 355.84H300.805C308.558 342.38 316.31 328.987 324.062 315.526C331.948 328.987 339.834 342.38 347.72 355.84V355.84Z" fill="#121212"/>
</g>
<defs>
<linearGradient id="paint0_linear_103_275" x1="307.925" y1="495.343" x2="339.83" y2="112.153" gradientUnits="userSpaceOnUse">
<stop stop-color="#E6E6E6"/>
<stop offset="1" stop-color="#F8F8F8"/>
</linearGradient>
<clipPath id="clip0_103_275">
<rect width="516" height="500" fill="white"/>
</clipPath>
</defs>
</svg>
