<svg width="516" height="500" viewBox="0 0 516 500" fill="none" xmlns="http://www.w3.org/2000/svg">
<g clip-path="url(#clip0_103_320)">
<path d="M17.382 361.189C22.6014 361.189 26.7651 365.422 26.7651 370.595C26.7651 375.768 22.6014 380 17.382 380C12.1627 380 7.99898 375.826 7.99898 370.595C7.99898 365.363 12.2214 361.189 17.382 361.189ZM10.9898 331.68C11.8109 326.566 16.6197 323.039 21.7217 323.803C26.8238 324.626 30.3424 329.387 29.58 334.56C28.759 339.674 23.9502 343.143 18.8481 342.378C14.2153 341.673 10.9312 337.676 10.9312 333.091C10.9312 332.62 10.9312 332.091 11.0485 331.621L10.9898 331.68ZM20.0211 293.706C21.6044 288.768 26.941 286.064 31.8672 287.651C36.7933 289.238 39.4909 294.529 37.9075 299.525C36.3241 304.463 30.9875 307.167 26.0614 305.58C22.0736 304.287 19.5519 300.583 19.5519 296.586C19.5519 295.645 19.7278 294.646 20.0211 293.706ZM34.858 257.612C37.2038 252.969 42.8336 251.146 47.4665 253.498C52.0408 255.79 53.9174 261.492 51.5716 266.077C49.2258 270.721 43.596 272.543 38.9631 270.192C35.7377 268.546 33.8024 265.254 33.8024 261.845C33.8024 260.375 34.1543 258.964 34.858 257.612V257.612ZM55.1489 224.223C58.1397 220.05 64.0042 219.05 68.2266 222.107C72.3903 225.105 73.3872 231.042 70.3377 235.216C67.3469 239.448 61.4825 240.389 57.2601 237.332C54.7384 235.51 53.3896 232.629 53.3896 229.69C53.3896 227.809 53.976 225.869 55.1489 224.165L55.1489 224.223ZM80.3072 194.42C83.9432 190.775 89.8662 190.717 93.5608 194.42C97.1968 198.065 97.2554 204.002 93.5608 207.705C89.9249 211.35 84.0018 211.409 80.3072 207.823C78.4893 205.942 77.551 203.532 77.551 201.121C77.551 198.711 78.4306 196.301 80.2486 194.479L80.3072 194.42ZM109.747 168.908C113.91 165.851 119.775 166.733 122.883 170.907C125.991 175.08 125.111 180.959 120.889 184.074C116.725 187.19 110.861 186.308 107.753 182.075C106.521 180.371 105.935 178.431 105.935 176.491C105.935 173.611 107.225 170.789 109.747 168.908ZM142.763 148.275C147.338 145.865 153.026 147.687 155.43 152.272C157.835 156.857 156.017 162.559 151.443 164.969C146.868 167.38 141.18 165.557 138.775 160.972C138.072 159.561 137.72 158.033 137.72 156.622C137.72 153.213 139.538 149.921 142.763 148.275ZM178.595 132.991C183.521 131.345 188.799 133.99 190.441 138.928C192.142 143.866 189.444 149.157 184.518 150.803C179.65 152.449 174.314 149.803 172.672 144.865C172.32 143.866 172.203 142.867 172.203 141.926C172.203 137.988 174.666 134.284 178.595 132.991V132.991ZM216.42 123.527C221.522 122.704 226.39 126.113 227.211 131.228C228.09 136.342 224.63 141.221 219.528 142.044C214.426 142.926 209.559 139.457 208.738 134.343C208.621 133.814 208.621 133.285 208.621 132.815C208.621 128.288 211.846 124.291 216.479 123.527L216.42 123.527ZM255.184 120C260.345 120 264.567 124.115 264.684 129.288C264.684 134.52 260.579 138.752 255.419 138.811C250.258 138.928 245.977 134.696 245.918 129.523C245.86 124.291 250.023 120.118 255.184 120ZM283.392 130.522C284.154 125.408 288.904 121.822 294.007 122.586C299.167 123.292 302.744 128.112 301.982 133.226C301.22 138.399 296.47 141.926 291.309 141.221C286.676 140.515 283.275 136.518 283.275 131.933C283.275 131.522 283.275 131.051 283.392 130.581L283.392 130.522ZM320.279 137.341C321.804 132.403 327.082 129.582 332.008 131.11C336.993 132.638 339.749 137.929 338.224 142.867C336.699 147.863 331.48 150.626 326.495 149.098C322.449 147.863 319.869 144.16 319.869 140.104C319.869 139.222 319.986 138.282 320.279 137.341ZM355.7 149.862C357.929 145.218 363.558 143.278 368.25 145.571C372.883 147.863 374.76 153.507 372.531 158.151C370.244 162.794 364.614 164.734 359.981 162.442C356.638 160.796 354.703 157.445 354.703 153.977C354.703 152.625 355.055 151.214 355.7 149.862V149.862ZM388.658 167.791C391.649 163.559 397.455 162.501 401.736 165.499C405.958 168.496 407.014 174.375 403.964 178.607C401.032 182.84 395.168 183.898 390.945 180.9C388.306 179.078 386.957 176.138 386.957 173.199C386.957 171.318 387.485 169.437 388.658 167.791ZM418.508 190.599C422.144 186.837 428.008 186.719 431.762 190.364C435.456 194.009 435.573 199.946 431.996 203.649C428.36 207.411 422.437 207.529 418.743 203.884C416.807 202.062 415.869 199.534 415.869 197.124C415.869 194.714 416.69 192.421 418.508 190.599V190.599ZM444.429 217.757C448.534 214.642 454.457 215.465 457.565 219.579C460.732 223.694 459.852 229.631 455.747 232.747C451.642 235.921 445.778 235.098 442.611 230.983C441.321 229.22 440.734 227.28 440.734 225.281C440.734 222.401 442.024 219.638 444.429 217.757ZM465.893 248.619C470.467 246.15 476.155 247.913 478.618 252.498C481.081 257.083 479.322 262.785 474.748 265.254C470.174 267.723 464.485 265.96 462.022 261.375C461.26 259.964 460.908 258.435 460.908 256.966C460.908 253.556 462.726 250.323 465.893 248.619V248.619ZM482.313 282.419C487.18 280.656 492.517 283.242 494.218 288.18C495.918 293.059 493.338 298.408 488.471 300.113C483.603 301.877 478.266 299.29 476.566 294.352C476.214 293.353 475.979 292.295 475.979 291.295C475.979 287.416 478.442 283.771 482.313 282.419V282.419ZM493.221 318.395C498.264 317.454 503.19 320.864 504.128 325.978C505.067 331.092 501.665 335.971 496.563 336.912C491.461 337.852 486.594 334.443 485.656 329.329C485.538 328.741 485.538 328.212 485.538 327.624C485.538 323.156 488.705 319.218 493.279 318.395L493.221 318.395ZM498.381 355.605C503.601 355.487 507.882 359.602 507.999 364.834C508.116 370.007 504.011 374.357 498.851 374.416C493.631 374.533 489.35 370.418 489.233 365.245L489.233 365.01C489.233 359.955 493.338 355.722 498.381 355.605Z" fill="#121212"/>
<path d="M66.8787 361.189C72.098 361.189 76.2617 365.422 76.2617 370.595C76.2617 375.768 72.098 380 66.8787 380C61.6593 380 57.5543 375.826 57.5543 370.595C57.5543 365.363 61.718 361.189 66.8787 361.189ZM61.3661 331.445C62.363 326.33 67.2892 323.039 72.3912 324.038C77.4346 325.096 80.7187 330.034 79.7804 335.089C78.7834 340.203 73.8573 343.495 68.7553 342.496C64.2983 341.614 61.1902 337.676 61.1902 333.267C61.1902 332.679 61.1902 332.033 61.3661 331.445ZM72.7431 293.706C74.737 288.885 80.2495 286.593 85.0583 288.65C89.8672 290.649 92.0956 296.116 90.1017 300.936C88.1078 305.756 82.6539 307.99 77.8451 305.991C74.2092 304.463 72.0394 300.995 72.0394 297.291C72.0394 296.116 72.2739 294.881 72.7431 293.706ZM91.3333 258.964C94.2068 254.614 100.071 253.439 104.352 256.378C108.692 259.258 109.865 265.137 106.933 269.428C104.059 273.778 98.2533 274.954 93.9136 272.014C91.216 270.251 89.7499 267.253 89.7499 264.196C89.7499 262.433 90.2777 260.552 91.3333 258.964V258.964ZM116.257 228.515C119.893 224.811 125.875 224.811 129.511 228.515C133.147 232.159 133.147 238.096 129.511 241.8C125.875 245.444 119.952 245.444 116.257 241.8C114.38 239.919 113.501 237.508 113.501 235.098C113.501 232.688 114.38 230.278 116.198 228.456L116.257 228.515ZM146.635 203.473C150.974 200.592 156.78 201.768 159.654 206.059C162.527 210.409 161.413 216.229 157.073 219.109C152.734 221.99 146.928 220.873 144.054 216.523C142.999 214.936 142.53 213.113 142.53 211.291C142.53 208.293 143.996 205.295 146.635 203.414L146.635 203.473ZM181.293 184.897C186.102 182.898 191.556 185.191 193.55 189.952C195.544 194.714 193.257 200.24 188.507 202.238C183.756 204.237 178.244 201.944 176.25 197.183C175.722 196.007 175.488 194.773 175.488 193.538C175.488 189.894 177.716 186.367 181.293 184.897ZM218.884 173.434C223.986 172.435 228.912 175.727 229.909 180.841C230.965 185.955 227.622 190.893 222.52 191.892C217.477 192.95 212.551 189.659 211.495 184.486C211.378 183.898 211.319 183.251 211.319 182.663C211.319 178.313 214.427 174.316 218.884 173.434V173.434ZM258 169.555C263.161 169.555 267.383 173.728 267.383 178.96C267.383 184.192 263.219 188.365 258 188.365C252.781 188.365 248.617 184.192 248.617 178.96C248.617 173.728 252.781 169.555 258 169.555ZM286.032 180.723C287.087 175.668 292.014 172.317 297.057 173.317C302.1 174.316 305.443 179.254 304.446 184.368C303.391 189.423 298.464 192.715 293.421 191.775C288.964 190.893 285.797 186.955 285.797 182.546C285.797 181.958 285.915 181.311 285.973 180.723L286.032 180.723ZM322.45 189.776C324.444 184.956 329.898 182.722 334.707 184.721C339.515 186.719 341.802 192.186 339.809 197.007C337.815 201.827 332.361 204.119 327.552 202.062C323.916 200.592 321.746 197.065 321.746 193.362C321.746 192.186 321.981 190.952 322.45 189.776V189.776ZM356.346 205.883C359.22 201.533 365.084 200.357 369.365 203.238C373.705 206.177 374.878 211.996 372.004 216.288C369.072 220.638 363.266 221.754 358.985 218.874C356.288 217.052 354.821 214.054 354.821 211.056C354.821 209.234 355.349 207.411 356.405 205.824L356.346 205.883ZM386.489 228.279C390.125 224.576 396.107 224.576 399.743 228.279C403.379 231.924 403.437 237.92 399.743 241.565C396.107 245.209 390.125 245.209 386.489 241.565C384.671 239.683 383.733 237.273 383.733 234.863C383.733 232.453 384.671 230.043 386.431 228.221L386.489 228.279ZM411.706 256.084C416.046 253.204 421.852 254.321 424.725 258.671C427.599 262.962 426.485 268.84 422.145 271.721C417.864 274.66 411.999 273.484 409.126 269.193C408.07 267.547 407.543 265.783 407.543 263.902C407.543 260.904 409.009 257.906 411.648 256.084L411.706 256.084ZM431.059 288.297C435.868 286.299 441.322 288.591 443.315 293.353C445.309 298.173 443.081 303.64 438.272 305.639C433.463 307.637 428.009 305.404 425.957 300.583C425.488 299.349 425.253 298.114 425.253 296.939C425.253 293.235 427.423 289.767 431 288.239L431.059 288.297ZM443.726 323.685C448.828 322.686 453.754 325.978 454.81 331.092C455.807 336.206 452.523 341.144 447.421 342.202C442.319 343.201 437.392 339.91 436.395 334.795C436.278 334.208 436.22 333.561 436.22 332.973C436.22 328.623 439.269 324.626 443.726 323.744L443.726 323.685ZM449.239 360.895C454.399 360.895 458.622 365.069 458.622 370.301C458.622 375.474 454.458 379.706 449.297 379.706C444.136 379.706 439.914 375.532 439.855 370.301C439.855 365.128 444.078 360.895 449.239 360.895Z" fill="#121212"/>
<path d="M117.078 361.189C122.239 361.189 126.461 365.422 126.461 370.595C126.461 375.768 122.239 380 117.078 380C111.918 380 107.695 375.768 107.695 370.595C107.695 365.422 111.859 361.189 117.078 361.189ZM112.68 331.915C114.029 326.86 119.131 323.862 124.174 325.214C129.218 326.507 132.15 331.68 130.86 336.676C129.569 341.732 124.409 344.73 119.424 343.378C115.202 342.261 112.445 338.44 112.445 334.266C112.445 333.443 112.563 332.679 112.739 331.856L112.68 331.915ZM127.458 295.822C130.039 291.296 135.786 289.767 140.243 292.354C144.758 294.94 146.342 300.701 143.761 305.168C141.181 309.695 135.434 311.223 130.977 308.637C127.927 306.873 126.227 303.758 126.227 300.466C126.227 298.937 126.579 297.291 127.458 295.822V295.822ZM151.033 264.784C154.669 261.081 160.592 261.022 164.287 264.667C167.923 268.311 167.981 274.248 164.404 277.952C160.768 281.655 154.786 281.714 151.15 278.069C149.274 276.188 148.336 273.778 148.336 271.368C148.336 268.958 149.215 266.606 151.033 264.784V264.784ZM181.645 240.742C186.102 238.096 191.85 239.625 194.489 244.092C197.128 248.56 195.661 254.321 191.204 256.966C186.747 259.611 181 258.083 178.361 253.615C177.482 252.087 177.071 250.441 177.071 248.854C177.071 245.621 178.713 242.505 181.645 240.742V240.742ZM217.418 225.458C222.462 224.047 227.622 226.986 229.03 231.924C230.437 236.979 227.505 242.152 222.52 243.563C217.536 244.974 212.316 242.035 210.968 237.038C210.733 236.215 210.616 235.334 210.616 234.511C210.616 230.396 213.313 226.634 217.477 225.458L217.418 225.458ZM255.948 219.932C261.167 219.815 265.389 224.047 265.448 229.22C265.448 234.393 261.343 238.684 256.182 238.743C250.963 238.743 246.682 234.628 246.682 229.455C246.682 224.165 250.787 219.991 255.948 219.932V219.932ZM283.217 231.219C284.507 226.163 289.609 223.107 294.594 224.4C299.637 225.693 302.687 230.748 301.397 235.804C300.107 240.859 295.063 243.916 290.02 242.681C285.739 241.623 282.865 237.802 282.865 233.57C282.865 232.806 282.983 232.042 283.158 231.277L283.217 231.219ZM318.052 242.388C320.573 237.861 326.262 236.215 330.836 238.743C335.352 241.271 336.994 247.031 334.472 251.558C331.95 256.143 326.262 257.789 321.688 255.202C318.58 253.498 316.879 250.265 316.879 246.973C316.879 245.444 317.231 243.857 318.052 242.388V242.388ZM348.84 262.198C352.476 258.435 358.34 258.318 362.093 261.904C365.847 265.49 365.964 271.427 362.387 275.189C358.751 278.951 352.886 279.069 349.133 275.483C347.198 273.66 346.26 271.192 346.26 268.723C346.26 266.371 347.081 264.02 348.84 262.256L348.84 262.198ZM373.588 289.121C377.986 286.416 383.792 287.827 386.489 292.295C389.187 296.704 387.78 302.523 383.323 305.227C378.924 307.931 373.119 306.52 370.421 302.053C369.483 300.525 369.072 298.879 369.072 297.174C369.072 294 370.656 290.943 373.588 289.121ZM390.595 321.569C395.579 320.1 400.799 322.98 402.265 327.918C403.731 332.914 400.857 338.146 395.873 339.616C390.946 341.085 385.668 338.264 384.261 333.267C383.968 332.385 383.909 331.504 383.909 330.563C383.909 326.507 386.548 322.745 390.595 321.51L390.595 321.569ZM398.687 357.31C403.907 357.192 408.188 361.248 408.364 366.48C408.481 371.712 404.435 376.003 399.215 376.12C394.055 376.238 389.715 372.182 389.598 367.009L389.598 366.715C389.598 361.66 393.644 357.427 398.687 357.31V357.31Z" fill="#121212"/>
</g>
<defs>
<clipPath id="clip0_103_320">
<rect width="500" height="516" fill="white" transform="translate(516) rotate(90)"/>
</clipPath>
</defs>
</svg>
