<svg width="516" height="500" viewBox="0 0 516 500" fill="none" xmlns="http://www.w3.org/2000/svg">
<g clip-path="url(#clip0_103_324)">
<path d="M369.189 490.618C369.189 485.398 373.422 481.235 378.595 481.235C383.768 481.235 388 485.398 388 490.618C388 495.837 383.826 500.001 378.595 500.001C373.363 500.001 369.189 495.778 369.189 490.618ZM339.68 497.01C334.566 496.189 331.039 491.38 331.803 486.278C332.626 481.176 337.387 477.657 342.56 478.42C347.674 479.241 351.143 484.05 350.378 489.152C349.673 493.784 345.676 497.069 341.091 497.069C340.62 497.069 340.091 497.069 339.621 496.951L339.68 497.01ZM301.706 487.979C296.768 486.395 294.064 481.059 295.651 476.133C297.238 471.206 302.529 468.509 307.525 470.092C312.463 471.676 315.167 477.012 313.58 481.938C312.287 485.926 308.583 488.448 304.586 488.448C303.645 488.448 302.646 488.272 301.706 487.979ZM265.612 473.142C260.969 470.796 259.146 465.166 261.498 460.533C263.79 455.959 269.492 454.082 274.077 456.428C278.721 458.774 280.544 464.404 278.192 469.037C276.546 472.262 273.254 474.197 269.845 474.197C268.375 474.197 266.965 473.845 265.612 473.142V473.142ZM232.223 452.851C228.05 449.86 227.05 443.996 230.107 439.773C233.105 435.609 239.042 434.613 243.216 437.662C247.448 440.653 248.389 446.517 245.332 450.74C243.51 453.261 240.629 454.61 237.69 454.61C235.809 454.61 233.869 454.024 232.165 452.851H232.223ZM202.42 427.693C198.775 424.057 198.717 418.134 202.42 414.439C206.065 410.803 212.002 410.744 215.705 414.439C219.35 418.075 219.409 423.998 215.823 427.693C213.942 429.51 211.532 430.449 209.121 430.449C206.711 430.449 204.301 429.569 202.479 427.751L202.42 427.693ZM176.908 398.253C173.851 394.089 174.733 388.225 178.907 385.117C183.08 382.009 188.959 382.888 192.074 387.111C195.19 391.275 194.308 397.139 190.076 400.247C188.371 401.479 186.431 402.065 184.491 402.065C181.611 402.065 178.789 400.775 176.908 398.253ZM156.275 365.236C153.865 360.662 155.687 354.974 160.272 352.569C164.857 350.165 170.559 351.983 172.969 356.557C175.38 361.131 173.557 366.82 168.972 369.224C167.561 369.928 166.033 370.28 164.622 370.28C161.213 370.28 157.921 368.462 156.275 365.236ZM140.991 329.405C139.345 324.479 141.991 319.201 146.928 317.559C151.866 315.858 157.157 318.556 158.803 323.482C160.449 328.349 157.803 333.686 152.865 335.328C151.866 335.68 150.867 335.797 149.926 335.797C145.988 335.797 142.284 333.334 140.991 329.405V329.405ZM131.527 291.579C130.704 286.477 134.113 281.61 139.228 280.789C144.342 279.909 149.221 283.369 150.044 288.471C150.926 293.573 147.457 298.441 142.343 299.262C141.814 299.379 141.285 299.379 140.815 299.379C136.288 299.379 132.291 296.154 131.527 291.521V291.579ZM128 252.816C128 247.655 132.115 243.433 137.288 243.315C142.52 243.315 146.752 247.42 146.811 252.581C146.928 257.742 142.696 262.023 137.523 262.081C132.291 262.14 128.118 257.976 128 252.816ZM138.522 224.608C133.408 223.845 129.822 219.095 130.586 213.993C131.292 208.833 136.112 205.255 141.226 206.018C146.399 206.78 149.926 211.53 149.221 216.691C148.515 221.324 144.518 224.725 139.933 224.725C139.522 224.725 139.051 224.725 138.581 224.608H138.522ZM145.341 187.721C140.403 186.196 137.582 180.918 139.11 175.992C140.638 171.007 145.929 168.251 150.867 169.776C155.863 171.3 158.626 176.52 157.098 181.504C155.863 185.551 152.16 188.131 148.104 188.131C147.222 188.131 146.282 188.014 145.341 187.721ZM157.862 152.3C153.218 150.071 151.278 144.441 153.571 139.75C155.863 135.117 161.507 133.24 166.151 135.469C170.794 137.756 172.734 143.386 170.442 148.019C168.796 151.361 165.445 153.297 161.977 153.297C160.625 153.297 159.214 152.945 157.862 152.3V152.3ZM175.791 119.342C171.559 116.351 170.501 110.545 173.499 106.264C176.496 102.042 182.375 100.986 186.607 104.035C190.84 106.968 191.898 112.832 188.9 117.054C187.078 119.693 184.138 121.042 181.199 121.042C179.318 121.042 177.437 120.514 175.791 119.342ZM198.599 89.4917C194.837 85.8558 194.719 79.9914 198.364 76.2381C202.009 72.5436 207.946 72.4263 211.649 76.0036C215.411 79.6395 215.529 85.5626 211.884 89.2571C210.062 91.1924 207.534 92.1307 205.124 92.1307C202.714 92.1307 200.421 91.3097 198.599 89.4917V89.4917ZM225.757 63.571C222.642 59.4659 223.465 53.5428 227.579 50.4347C231.694 47.2679 237.631 48.1476 240.747 52.2527C243.921 56.3578 243.098 62.2222 238.983 65.389C237.22 66.6791 235.28 67.2656 233.281 67.2656C230.401 67.2656 227.638 65.9754 225.757 63.571ZM256.619 42.1072C254.15 37.533 255.913 31.8445 260.498 29.3815C265.083 26.9184 270.785 28.6777 273.254 33.252C275.723 37.8262 273.96 43.5147 269.375 45.9778C267.964 46.7401 266.435 47.092 264.966 47.092C261.556 47.092 258.323 45.274 256.619 42.1072V42.1072ZM290.419 25.6869C288.656 20.8194 291.242 15.4828 296.18 13.7821C301.059 12.0814 306.408 14.6618 308.113 19.5292C309.877 24.3967 307.29 29.7333 302.352 31.434C301.353 31.7859 300.295 32.0204 299.295 32.0204C295.416 32.0204 291.771 29.5574 290.419 25.6869V25.6869ZM326.395 14.7791C325.454 9.73567 328.864 4.80956 333.978 3.87126C339.092 2.93295 343.971 6.33431 344.912 11.4364C345.852 16.5384 342.443 21.4059 337.329 22.3442C336.741 22.4615 336.212 22.4615 335.624 22.4615C331.156 22.4615 327.218 19.2947 326.395 14.7204V14.7791ZM363.605 9.61838C363.487 4.39905 367.602 0.118031 372.834 0.000743073C378.007 -0.116545 382.357 3.98854 382.416 9.14923C382.533 14.3686 378.418 18.6496 373.245 18.7669H373.01C367.955 18.7669 363.722 14.6618 363.605 9.61838Z" fill="#121212"/>
<path d="M369.189 441.121C369.189 435.902 373.422 431.738 378.595 431.738C383.768 431.738 388 435.902 388 441.121C388 446.341 383.826 450.446 378.595 450.446C373.363 450.446 369.189 446.282 369.189 441.121ZM339.445 446.634C334.331 445.637 331.039 440.711 332.038 435.609C333.096 430.565 338.034 427.281 343.089 428.22C348.204 429.217 351.495 434.143 350.496 439.245C349.614 443.702 345.676 446.81 341.267 446.81C340.679 446.81 340.033 446.81 339.445 446.634ZM301.706 435.257C296.885 433.263 294.593 427.75 296.65 422.942C298.649 418.133 304.116 415.904 308.936 417.898C313.756 419.892 315.99 425.346 313.991 430.155C312.463 433.791 308.995 435.961 305.292 435.961C304.116 435.961 302.881 435.726 301.706 435.257ZM266.965 416.667C262.615 413.793 261.439 407.929 264.378 403.648C267.259 399.308 273.137 398.135 277.428 401.067C281.778 403.941 282.954 409.747 280.015 414.086C278.251 416.784 275.253 418.25 272.196 418.25C270.433 418.25 268.552 417.722 266.965 416.667V416.667ZM236.515 391.743C232.811 388.107 232.811 382.125 236.515 378.489C240.159 374.853 246.096 374.853 249.8 378.489C253.444 382.125 253.444 388.048 249.8 391.743C247.919 393.62 245.509 394.499 243.098 394.499C240.688 394.499 238.278 393.62 236.456 391.802L236.515 391.743ZM211.473 361.365C208.592 357.026 209.768 351.22 214.059 348.346C218.409 345.473 224.229 346.587 227.109 350.927C229.99 355.266 228.873 361.072 224.523 363.946C222.936 365.001 221.113 365.47 219.291 365.47C216.293 365.47 213.295 364.004 211.414 361.365H211.473ZM192.897 326.707C190.899 321.898 193.191 316.444 197.953 314.45C202.714 312.456 208.24 314.743 210.238 319.493C212.237 324.244 209.944 329.756 205.183 331.75C204.007 332.278 202.773 332.512 201.538 332.512C197.894 332.512 194.367 330.284 192.897 326.707ZM181.434 289.116C180.435 284.014 183.727 279.088 188.841 278.091C193.955 277.035 198.893 280.378 199.892 285.48C200.951 290.523 197.659 295.449 192.486 296.505C191.898 296.622 191.251 296.681 190.663 296.681C186.313 296.681 182.316 293.573 181.434 289.116V289.116ZM177.555 250C177.555 244.839 181.728 240.617 186.96 240.617C192.192 240.617 196.365 244.781 196.365 250C196.365 255.219 192.192 259.383 186.96 259.383C181.728 259.383 177.555 255.219 177.555 250ZM188.724 221.968C183.668 220.913 180.318 215.986 181.317 210.943C182.316 205.9 187.254 202.557 192.368 203.554C197.424 204.609 200.715 209.536 199.775 214.579C198.893 219.036 194.955 222.203 190.546 222.203C189.958 222.203 189.311 222.085 188.724 222.027V221.968ZM197.776 185.55C192.956 183.556 190.722 178.102 192.721 173.293C194.72 168.485 200.186 166.198 205.007 168.191C209.827 170.185 212.119 175.639 210.062 180.448C208.592 184.084 205.065 186.254 201.362 186.254C200.186 186.254 198.952 186.019 197.776 185.55V185.55ZM213.883 151.654C209.533 148.78 208.357 142.916 211.238 138.635C214.177 134.295 219.996 133.122 224.288 135.996C228.638 138.928 229.755 144.734 226.874 149.015C225.052 151.712 222.054 153.179 219.056 153.179C217.234 153.179 215.411 152.651 213.824 151.595L213.883 151.654ZM236.28 121.511C232.576 117.875 232.576 111.893 236.28 108.257C239.924 104.621 245.92 104.563 249.565 108.257C253.209 111.893 253.209 117.875 249.565 121.511C247.684 123.329 245.273 124.267 242.863 124.267C240.453 124.267 238.043 123.329 236.221 121.569L236.28 121.511ZM264.084 96.2937C261.204 91.9541 262.321 86.1483 266.671 83.2747C270.962 80.4012 276.84 81.5154 279.721 85.8551C282.66 90.1361 281.484 96.0005 277.193 98.8741C275.547 99.9297 273.783 100.457 271.902 100.457C268.904 100.457 265.906 98.9914 264.084 96.3524V96.2937ZM296.298 76.9412C294.299 72.1323 296.592 66.6784 301.353 64.6845C306.173 62.6906 311.64 64.9191 313.639 69.7279C315.637 74.5368 313.404 79.9907 308.583 82.0432C307.349 82.5124 306.114 82.7469 304.939 82.7469C301.235 82.7469 297.767 80.5771 296.239 76.9998L296.298 76.9412ZM331.685 64.274C330.686 59.172 333.978 54.2459 339.092 53.1903C344.206 52.1933 349.144 55.4774 350.202 60.5794C351.202 65.6815 347.91 70.6076 342.795 71.6045C342.208 71.7218 341.561 71.7805 340.973 71.7805C336.623 71.7805 332.626 68.731 331.744 64.274H331.685ZM368.895 58.7615C368.895 53.6008 373.069 49.3784 378.301 49.3784C383.474 49.3784 387.706 53.5422 387.706 58.7028C387.706 63.8635 383.533 68.0859 378.301 68.1445C373.128 68.1445 368.895 63.9222 368.895 58.7615Z" fill="#121212"/>
<path d="M369.189 390.922C369.189 385.761 373.422 381.539 378.595 381.539C383.768 381.539 388 385.761 388 390.922C388 396.083 383.768 400.305 378.595 400.305C373.422 400.305 369.189 396.141 369.189 390.922ZM339.915 395.32C334.86 393.971 331.862 388.869 333.214 383.826C334.507 378.783 339.68 375.85 344.676 377.14C349.732 378.431 352.73 383.591 351.378 388.576C350.261 392.799 346.44 395.555 342.266 395.555C341.443 395.555 340.679 395.437 339.856 395.262L339.915 395.32ZM303.822 380.542C299.295 377.962 297.767 372.214 300.354 367.757C302.94 363.242 308.701 361.658 313.168 364.239C317.695 366.819 319.223 372.566 316.637 377.023C314.873 380.073 311.758 381.773 308.466 381.773C306.937 381.773 305.291 381.422 303.822 380.542V380.542ZM272.784 356.967C269.081 353.331 269.022 347.408 272.666 343.713C276.311 340.077 282.248 340.019 285.952 343.596C289.655 347.232 289.714 353.214 286.069 356.85C284.188 358.726 281.778 359.665 279.368 359.665C276.958 359.665 274.606 358.785 272.784 356.967V356.967ZM248.741 326.355C246.096 321.898 247.625 316.151 252.092 313.512C256.56 310.873 262.321 312.339 264.966 316.796C267.611 321.253 266.083 327 261.615 329.639C260.087 330.518 258.441 330.929 256.854 330.929C253.621 330.929 250.505 329.287 248.741 326.355V326.355ZM233.458 290.582C232.047 285.538 234.986 280.378 239.924 278.97C244.979 277.563 250.152 280.495 251.563 285.48C252.974 290.464 250.035 295.684 245.038 297.033C244.215 297.267 243.333 297.384 242.51 297.384C238.396 297.384 234.633 294.687 233.458 290.523V290.582ZM227.932 252.053C227.815 246.833 232.047 242.611 237.22 242.552C242.393 242.552 246.684 246.657 246.743 251.818C246.743 257.037 242.628 261.318 237.455 261.318C232.165 261.318 227.991 257.213 227.932 252.053V252.053ZM239.219 224.783C234.163 223.493 231.106 218.391 232.4 213.406C233.693 208.363 238.748 205.313 243.804 206.603C248.859 207.893 251.916 212.937 250.681 217.98C249.623 222.261 245.802 225.135 241.57 225.135C240.806 225.135 240.042 225.018 239.277 224.842L239.219 224.783ZM250.387 189.948C245.861 187.427 244.215 181.738 246.743 177.164C249.271 172.648 255.031 171.006 259.558 173.528C264.143 176.05 265.789 181.738 263.202 186.312C261.498 189.421 258.264 191.121 254.973 191.121C253.444 191.121 251.857 190.769 250.387 189.948V189.948ZM270.198 159.16C266.435 155.524 266.318 149.66 269.904 145.907C273.489 142.153 279.427 142.036 283.189 145.613C286.951 149.249 287.068 155.114 283.483 158.867C281.66 160.802 279.191 161.741 276.722 161.741C274.371 161.741 272.02 160.92 270.256 159.16H270.198ZM297.12 134.412C294.416 130.014 295.827 124.208 300.295 121.511C304.704 118.813 310.523 120.22 313.227 124.677C315.931 129.076 314.52 134.882 310.053 137.579C308.524 138.517 306.879 138.928 305.174 138.928C301.999 138.928 298.943 137.345 297.12 134.412ZM329.569 117.406C328.099 112.421 330.98 107.201 335.918 105.735C340.914 104.269 346.146 107.143 347.616 112.128C349.085 117.054 346.264 122.332 341.267 123.739C340.385 124.032 339.503 124.091 338.563 124.091C334.507 124.091 330.745 121.452 329.51 117.406H329.569ZM365.309 109.313C365.192 104.093 369.248 99.8123 374.48 99.6364C379.711 99.5191 384.003 103.566 384.12 108.785C384.238 113.946 380.182 118.285 375.009 118.403H374.715C369.659 118.403 365.427 114.356 365.309 109.313V109.313Z" fill="#121212"/>
</g>
<defs>
<clipPath id="clip0_103_324">
<rect width="516" height="500" fill="white"/>
</clipPath>
</defs>
</svg>
