<svg width="560" height="664" viewBox="0 0 560 664" fill="none" xmlns="http://www.w3.org/2000/svg">
<path d="M212.389 424.896C329.688 424.896 424.777 329.78 424.777 212.448C424.777 95.1163 329.688 0 212.389 0C95.0897 0 0 95.1163 0 212.448C0 329.78 95.0897 424.896 212.389 424.896Z" fill="url(#paint0_linear_103_68)"/>
<path d="M322.389 518.896C439.688 518.896 534.777 423.78 534.777 306.448C534.777 189.116 439.688 94 322.389 94C205.09 94 110 189.116 110 306.448C110 423.78 205.09 518.896 322.389 518.896Z" fill="url(#paint1_linear_103_68)"/>
<path d="M225.902 321.997C230.87 321.997 234.897 317.968 234.897 312.998C234.897 308.029 230.87 304 225.902 304C220.933 304 216.906 308.029 216.906 312.998C216.906 317.968 220.933 321.997 225.902 321.997Z" fill="#0C0A1C"/>
<path d="M226.061 351.745C230.764 351.745 234.577 347.932 234.577 343.227C234.577 338.523 230.764 334.709 226.061 334.709C221.358 334.709 217.546 338.523 217.546 343.227C217.546 347.932 221.358 351.745 226.061 351.745Z" fill="#0C0A1C"/>
<path d="M226.062 379.189C221.676 379.189 218.09 375.634 218.09 371.215C218.09 366.796 221.644 363.241 226.062 363.241C230.48 363.241 234.033 366.796 234.033 371.215C234.033 375.634 230.48 379.189 226.062 379.189Z" fill="#0C0A1C"/>
<path d="M226.222 405.575C222.188 405.575 218.891 402.309 218.891 398.242C218.891 394.175 222.156 390.909 226.222 390.909C230.287 390.909 233.553 394.175 233.553 398.242C233.553 402.309 230.287 405.575 226.222 405.575Z" fill="#0C0A1C"/>
<path d="M225.901 430.648C222.092 430.648 218.986 427.542 218.986 423.732C218.986 419.921 222.092 416.815 225.901 416.815C229.711 416.815 232.816 419.921 232.816 423.732C232.816 427.542 229.711 430.648 225.901 430.648Z" fill="#0C0A1C"/>
<path d="M225.902 455.658C222.316 455.658 219.403 452.744 219.403 449.157C219.403 445.571 222.316 442.657 225.902 442.657C229.487 442.657 232.4 445.571 232.4 449.157C232.4 452.744 229.487 455.658 225.902 455.658Z" fill="#0C0A1C"/>
<path d="M225.902 477.209C222.54 477.209 219.851 474.487 219.851 471.157C219.851 467.826 222.572 465.104 225.902 465.104C229.231 465.104 231.952 467.826 231.952 471.157C231.952 474.487 229.231 477.209 225.902 477.209Z" fill="#0C0A1C"/>
<path d="M225.902 496.582C222.828 496.582 220.363 494.085 220.363 491.043C220.363 488 222.86 485.503 225.902 485.503C228.943 485.503 231.44 488 231.44 491.043C231.44 494.085 228.943 496.582 225.902 496.582Z" fill="#0C0A1C"/>
<path d="M225.902 514.739C223.181 514.739 220.972 512.53 220.972 509.808C220.972 507.086 223.181 504.876 225.902 504.876C228.623 504.876 230.832 507.086 230.832 509.808C230.832 512.53 228.623 514.739 225.902 514.739Z" fill="#0C0A1C"/>
<path d="M225.902 529.373C223.565 529.373 221.676 527.484 221.676 525.146C221.676 522.809 223.565 520.919 225.902 520.919C228.239 520.919 230.127 522.809 230.127 525.146C230.127 527.484 228.239 529.373 225.902 529.373Z" fill="#0C0A1C"/>
<path d="M225.901 544.264C223.789 544.264 222.092 542.567 222.092 540.453C222.092 538.34 223.789 536.643 225.901 536.643C228.014 536.643 229.711 538.34 229.711 540.453C229.711 542.567 228.014 544.264 225.901 544.264Z" fill="#0C0A1C"/>
<path d="M200.035 321.997C195.073 321.997 191.039 317.962 191.039 312.998C191.039 308.035 195.073 304 200.035 304C204.997 304 209.031 308.035 209.031 312.998C209.031 317.962 204.997 321.997 200.035 321.997Z" fill="#0C0A1C"/>
<path d="M200.227 351.713C195.521 351.713 191.711 347.903 191.711 343.195C191.711 338.488 195.521 334.677 200.227 334.677C204.933 334.677 208.743 338.488 208.743 343.195C208.743 347.903 204.933 351.713 200.227 351.713V351.713Z" fill="#0C0A1C"/>
<path d="M200.227 379.189C195.841 379.189 192.255 375.634 192.255 371.215C192.255 366.796 195.809 363.241 200.227 363.241C204.645 363.241 208.198 366.796 208.198 371.215C208.198 375.634 204.645 379.189 200.227 379.189Z" fill="#0C0A1C"/>
<path d="M200.387 405.607C204.436 405.607 207.718 402.324 207.718 398.274C207.718 394.224 204.436 390.941 200.387 390.941C196.338 390.941 193.056 394.224 193.056 398.274C193.056 402.324 196.338 405.607 200.387 405.607Z" fill="#0C0A1C"/>
<path d="M200.035 430.648C196.225 430.648 193.12 427.542 193.12 423.732C193.12 419.921 196.225 416.815 200.035 416.815C203.844 416.815 206.949 419.921 206.949 423.732C206.949 427.542 203.844 430.648 200.035 430.648Z" fill="#0C0A1C"/>
<path d="M200.035 455.658C196.449 455.658 193.536 452.744 193.536 449.157C193.536 445.571 196.449 442.657 200.035 442.657C203.62 442.657 206.534 445.571 206.534 449.157C206.534 452.744 203.62 455.658 200.035 455.658Z" fill="#0C0A1C"/>
<path d="M200.035 477.209C196.673 477.209 193.984 474.487 193.984 471.157C193.984 467.826 196.706 465.104 200.035 465.104C203.364 465.104 206.085 467.826 206.085 471.157C206.085 474.487 203.364 477.209 200.035 477.209Z" fill="#0C0A1C"/>
<path d="M200.035 496.582C196.962 496.582 194.497 494.085 194.497 491.043C194.497 488 196.994 485.503 200.035 485.503C203.076 485.503 205.573 488 205.573 491.043C205.573 494.085 203.076 496.582 200.035 496.582Z" fill="#0C0A1C"/>
<path d="M200.035 514.739C197.313 514.739 195.104 512.53 195.104 509.808C195.104 507.086 197.313 504.876 200.035 504.876C202.756 504.876 204.965 507.086 204.965 509.808C204.965 512.53 202.756 514.739 200.035 514.739Z" fill="#0C0A1C"/>
<path d="M200.035 529.373C197.698 529.373 195.809 527.484 195.809 525.146C195.809 522.809 197.698 520.919 200.035 520.919C202.372 520.919 204.261 522.809 204.261 525.146C204.261 527.484 202.372 529.373 200.035 529.373Z" fill="#0C0A1C"/>
<path d="M200.035 544.264C202.139 544.264 203.844 542.558 203.844 540.453C203.844 538.349 202.139 536.643 200.035 536.643C197.931 536.643 196.225 538.349 196.225 540.453C196.225 542.558 197.931 544.264 200.035 544.264Z" fill="#0C0A1C"/>
<path d="M174.2 321.997C179.168 321.997 183.196 317.968 183.196 312.998C183.196 308.029 179.168 304 174.2 304C169.232 304 165.204 308.029 165.204 312.998C165.204 317.968 169.232 321.997 174.2 321.997Z" fill="#0C0A1C"/>
<path d="M174.36 351.745C179.063 351.745 182.876 347.932 182.876 343.227C182.876 338.523 179.063 334.709 174.36 334.709C169.657 334.709 165.845 338.523 165.845 343.227C165.845 347.932 169.657 351.745 174.36 351.745Z" fill="#0C0A1C"/>
<path d="M174.36 379.189C169.974 379.189 166.389 375.634 166.389 371.215C166.389 366.796 169.942 363.241 174.36 363.241C178.778 363.241 182.331 366.796 182.331 371.215C182.331 375.634 178.778 379.189 174.36 379.189Z" fill="#0C0A1C"/>
<path d="M174.552 405.607C178.601 405.607 181.883 402.324 181.883 398.274C181.883 394.224 178.601 390.941 174.552 390.941C170.503 390.941 167.221 394.224 167.221 398.274C167.221 402.324 170.503 405.607 174.552 405.607Z" fill="#0C0A1C"/>
<path d="M174.2 430.648C170.39 430.648 167.285 427.542 167.285 423.732C167.285 419.921 170.39 416.815 174.2 416.815C178.01 416.815 181.115 419.921 181.115 423.732C181.115 427.542 178.01 430.648 174.2 430.648Z" fill="#0C0A1C"/>
<path d="M174.2 455.658C170.614 455.658 167.701 452.744 167.701 449.157C167.701 445.571 170.614 442.657 174.2 442.657C177.785 442.657 180.699 445.571 180.699 449.157C180.699 452.744 177.785 455.658 174.2 455.658Z" fill="#0C0A1C"/>
<path d="M174.2 477.209C170.839 477.209 168.149 474.487 168.149 471.157C168.149 467.826 170.871 465.104 174.2 465.104C177.529 465.104 180.25 467.826 180.25 471.157C180.25 474.487 177.529 477.209 174.2 477.209Z" fill="#0C0A1C"/>
<path d="M174.2 496.582C171.127 496.582 168.662 494.085 168.662 491.043C168.662 488 171.159 485.503 174.2 485.503C177.241 485.503 179.738 488 179.738 491.043C179.738 494.085 177.241 496.582 174.2 496.582Z" fill="#0C0A1C"/>
<path d="M174.2 514.739C171.479 514.739 169.27 512.53 169.27 509.808C169.27 507.086 171.479 504.876 174.2 504.876C176.921 504.876 179.13 507.086 179.13 509.808C179.13 512.53 176.921 514.739 174.2 514.739Z" fill="#0C0A1C"/>
<path d="M174.2 529.373C171.863 529.373 169.974 527.484 169.974 525.146C169.974 522.809 171.863 520.919 174.2 520.919C176.537 520.919 178.426 522.809 178.426 525.146C178.426 527.484 176.537 529.373 174.2 529.373Z" fill="#0C0A1C"/>
<path d="M174.2 544.264C172.087 544.264 170.391 542.567 170.391 540.453C170.391 538.34 172.087 536.643 174.2 536.643C176.313 536.643 178.01 538.34 178.01 540.453C178.01 542.567 176.313 544.264 174.2 544.264Z" fill="#0C0A1C"/>
<path d="M148.365 321.997C143.403 321.997 139.37 317.962 139.37 312.998C139.37 308.035 143.403 304 148.365 304C153.327 304 157.361 308.035 157.361 312.998C157.361 317.962 153.327 321.997 148.365 321.997Z" fill="#0C0A1C"/>
<path d="M156.375 346.493C158.186 342.151 156.136 337.163 151.796 335.351C147.456 333.54 142.469 335.591 140.658 339.932C138.847 344.274 140.897 349.262 145.237 351.073C149.578 352.885 154.564 350.834 156.375 346.493Z" fill="#0C0A1C"/>
<path d="M148.525 379.189C144.139 379.189 140.554 375.634 140.554 371.215C140.554 366.796 144.107 363.241 148.525 363.241C152.943 363.241 156.496 366.796 156.496 371.215C156.496 375.634 152.943 379.189 148.525 379.189Z" fill="#0C0A1C"/>
<path d="M148.686 405.575C144.652 405.575 141.354 402.309 141.354 398.242C141.354 394.175 144.62 390.909 148.686 390.909C152.751 390.909 156.017 394.175 156.017 398.242C156.017 402.309 152.751 405.575 148.686 405.575Z" fill="#0C0A1C"/>
<path d="M148.365 430.648C144.555 430.648 141.45 427.542 141.45 423.732C141.45 419.921 144.555 416.815 148.365 416.815C152.175 416.815 155.28 419.921 155.28 423.732C155.28 427.542 152.175 430.648 148.365 430.648Z" fill="#0C0A1C"/>
<path d="M148.365 455.658C144.779 455.658 141.866 452.744 141.866 449.157C141.866 445.571 144.779 442.657 148.365 442.657C151.95 442.657 154.864 445.571 154.864 449.157C154.864 452.744 151.95 455.658 148.365 455.658Z" fill="#0C0A1C"/>
<path d="M148.365 477.209C145.004 477.209 142.314 474.487 142.314 471.157C142.314 467.826 145.036 465.104 148.365 465.104C151.694 465.104 154.416 467.826 154.416 471.157C154.416 474.487 151.694 477.209 148.365 477.209Z" fill="#0C0A1C"/>
<path d="M148.365 496.582C145.292 496.582 142.827 494.085 142.827 491.043C142.827 488 145.324 485.503 148.365 485.503C151.406 485.503 153.903 488 153.903 491.043C153.903 494.085 151.406 496.582 148.365 496.582Z" fill="#0C0A1C"/>
<path d="M148.365 514.739C145.644 514.739 143.435 512.53 143.435 509.808C143.435 507.086 145.644 504.876 148.365 504.876C151.086 504.876 153.295 507.086 153.295 509.808C153.295 512.53 151.086 514.739 148.365 514.739Z" fill="#0C0A1C"/>
<path d="M148.365 529.373C146.028 529.373 144.139 527.484 144.139 525.146C144.139 522.809 146.028 520.919 148.365 520.919C150.702 520.919 152.591 522.809 152.591 525.146C152.591 527.484 150.702 529.373 148.365 529.373Z" fill="#0C0A1C"/>
<path d="M148.365 544.264C150.469 544.264 152.175 542.558 152.175 540.453C152.175 538.349 150.469 536.643 148.365 536.643C146.261 536.643 144.556 538.349 144.556 540.453C144.556 542.558 146.261 544.264 148.365 544.264Z" fill="#0C0A1C"/>
<path d="M122.498 321.997C127.466 321.997 131.494 317.968 131.494 312.998C131.494 308.029 127.466 304 122.498 304C117.53 304 113.502 308.029 113.502 312.998C113.502 317.968 117.53 321.997 122.498 321.997Z" fill="#0C0A1C"/>
<path d="M122.69 351.713C117.984 351.713 114.175 347.903 114.175 343.195C114.175 338.488 117.984 334.677 122.69 334.677C127.396 334.677 131.206 338.488 131.206 343.195C131.206 347.903 127.396 351.713 122.69 351.713V351.713Z" fill="#0C0A1C"/>
<path d="M122.69 379.189C118.304 379.189 114.719 375.634 114.719 371.215C114.719 366.796 118.272 363.241 122.69 363.241C127.108 363.241 130.661 366.796 130.661 371.215C130.661 375.634 127.108 379.189 122.69 379.189Z" fill="#0C0A1C"/>
<path d="M122.851 405.575C118.817 405.575 115.52 402.309 115.52 398.242C115.52 394.175 118.785 390.909 122.851 390.909C126.916 390.909 130.182 394.175 130.182 398.242C130.182 402.309 126.916 405.575 122.851 405.575Z" fill="#0C0A1C"/>
<path d="M122.498 430.648C118.689 430.648 115.583 427.542 115.583 423.732C115.583 419.921 118.689 416.815 122.498 416.815C126.308 416.815 129.413 419.921 129.413 423.732C129.413 427.542 126.308 430.648 122.498 430.648Z" fill="#0C0A1C"/>
<path d="M122.498 455.658C118.913 455.658 116 452.744 116 449.157C116 445.571 118.913 442.657 122.498 442.657C126.084 442.657 128.997 445.571 128.997 449.157C128.997 452.744 126.084 455.658 122.498 455.658Z" fill="#0C0A1C"/>
<path d="M122.498 477.209C119.137 477.209 116.448 474.487 116.448 471.157C116.448 467.826 119.169 465.104 122.498 465.104C125.828 465.104 128.549 467.826 128.549 471.157C128.549 474.487 125.828 477.209 122.498 477.209Z" fill="#0C0A1C"/>
<path d="M122.498 496.582C119.425 496.582 116.96 494.085 116.96 491.043C116.96 488 119.457 485.503 122.498 485.503C125.54 485.503 128.037 488 128.037 491.043C128.037 494.085 125.54 496.582 122.498 496.582Z" fill="#0C0A1C"/>
<path d="M122.498 514.739C119.777 514.739 117.568 512.53 117.568 509.808C117.568 507.086 119.777 504.876 122.498 504.876C125.22 504.876 127.428 507.086 127.428 509.808C127.428 512.53 125.22 514.739 122.498 514.739Z" fill="#0C0A1C"/>
<path d="M122.498 529.373C120.161 529.373 118.272 527.484 118.272 525.146C118.272 522.809 120.161 520.919 122.498 520.919C124.835 520.919 126.724 522.809 126.724 525.146C126.724 527.484 124.835 529.373 122.498 529.373Z" fill="#0C0A1C"/>
<path d="M122.499 544.264C120.386 544.264 118.689 542.567 118.689 540.453C118.689 538.34 120.386 536.643 122.499 536.643C124.611 536.643 126.308 538.34 126.308 540.453C126.308 542.567 124.611 544.264 122.499 544.264Z" fill="#0C0A1C"/>
<path d="M96.6637 321.997C91.7017 321.997 87.668 317.962 87.668 312.998C87.668 308.035 91.7017 304 96.6637 304C101.626 304 105.66 308.035 105.66 312.998C105.66 317.962 101.626 321.997 96.6637 321.997Z" fill="#0C0A1C"/>
<path d="M96.8237 351.713C92.1177 351.713 88.3081 347.903 88.3081 343.195C88.3081 338.488 92.1177 334.677 96.8237 334.677C101.53 334.677 105.339 338.488 105.339 343.195C105.339 347.903 101.53 351.713 96.8237 351.713V351.713Z" fill="#0C0A1C"/>
<path d="M96.8234 379.189C92.4375 379.189 88.8521 375.634 88.8521 371.215C88.8521 366.796 92.4055 363.241 96.8234 363.241C101.241 363.241 104.795 366.796 104.795 371.215C104.795 375.634 101.241 379.189 96.8234 379.189Z" fill="#0C0A1C"/>
<path d="M97.0156 405.607C101.064 405.607 104.347 402.324 104.347 398.274C104.347 394.224 101.064 390.941 97.0156 390.941C92.9668 390.941 89.6846 394.224 89.6846 398.274C89.6846 402.324 92.9668 405.607 97.0156 405.607Z" fill="#0C0A1C"/>
<path d="M96.6634 430.648C92.8538 430.648 89.7485 427.542 89.7485 423.732C89.7485 419.921 92.8538 416.815 96.6634 416.815C100.473 416.815 103.578 419.921 103.578 423.732C103.578 427.542 100.473 430.648 96.6634 430.648V430.648Z" fill="#0C0A1C"/>
<path d="M96.6638 455.658C93.0783 455.658 90.165 452.744 90.165 449.157C90.165 445.571 93.0783 442.657 96.6638 442.657C100.249 442.657 103.162 445.571 103.162 449.157C103.162 452.744 100.249 455.658 96.6638 455.658Z" fill="#0C0A1C"/>
<path d="M96.6633 477.209C93.3019 477.209 90.6128 474.487 90.6128 471.157C90.6128 467.826 93.3339 465.104 96.6633 465.104C99.9927 465.104 102.714 467.826 102.714 471.157C102.714 474.487 99.9927 477.209 96.6633 477.209Z" fill="#0C0A1C"/>
<path d="M96.6633 496.582C93.59 496.582 91.125 494.085 91.125 491.043C91.125 488 93.622 485.503 96.6633 485.503C99.7046 485.503 102.202 488 102.202 491.043C102.202 494.085 99.7046 496.582 96.6633 496.582Z" fill="#0C0A1C"/>
<path d="M96.6635 514.739C93.9423 514.739 91.7334 512.53 91.7334 509.808C91.7334 507.086 93.9423 504.876 96.6635 504.876C99.3846 504.876 101.594 507.086 101.594 509.808C101.594 512.53 99.3846 514.739 96.6635 514.739Z" fill="#0C0A1C"/>
<path d="M96.6633 529.373C94.3263 529.373 92.4375 527.484 92.4375 525.146C92.4375 522.809 94.3263 520.919 96.6633 520.919C99.0002 520.919 100.889 522.809 100.889 525.146C100.889 527.484 99.0002 529.373 96.6633 529.373Z" fill="#0C0A1C"/>
<path d="M96.6636 544.264C98.7676 544.264 100.473 542.558 100.473 540.453C100.473 538.349 98.7676 536.643 96.6636 536.643C94.5596 536.643 92.854 538.349 92.854 540.453C92.854 542.558 94.5596 544.264 96.6636 544.264Z" fill="#0C0A1C"/>
<path d="M70.7965 321.997C65.8345 321.997 61.8008 317.962 61.8008 312.998C61.8008 308.035 65.8345 304 70.7965 304C75.7586 304 79.7923 308.035 79.7923 312.998C79.7923 317.962 75.7586 321.997 70.7965 321.997Z" fill="#0C0A1C"/>
<path d="M70.9887 351.713C66.2827 351.713 62.4731 347.903 62.4731 343.195C62.4731 338.488 66.2827 334.677 70.9887 334.677C75.6947 334.677 79.5043 338.488 79.5043 343.195C79.5043 347.903 75.6947 351.713 70.9887 351.713V351.713Z" fill="#0C0A1C"/>
<path d="M70.9889 379.189C66.6031 379.189 63.0176 375.634 63.0176 371.215C63.0176 366.796 66.5711 363.241 70.9889 363.241C75.4068 363.241 78.9602 366.796 78.9602 371.215C78.9602 375.634 75.4068 379.189 70.9889 379.189Z" fill="#0C0A1C"/>
<path d="M71.1489 405.607C75.1978 405.607 78.48 402.324 78.48 398.274C78.48 394.224 75.1978 390.941 71.1489 390.941C67.1001 390.941 63.8179 394.224 63.8179 398.274C63.8179 402.324 67.1001 405.607 71.1489 405.607Z" fill="#0C0A1C"/>
<path d="M70.7967 430.648C66.9871 430.648 63.8818 427.542 63.8818 423.732C63.8818 419.921 66.9871 416.815 70.7967 416.815C74.6063 416.815 77.7116 419.921 77.7116 423.732C77.7116 427.542 74.6063 430.648 70.7967 430.648Z" fill="#0C0A1C"/>
<path d="M70.7966 455.658C67.2111 455.658 64.2979 452.744 64.2979 449.157C64.2979 445.571 67.2111 442.657 70.7966 442.657C74.3821 442.657 77.2953 445.571 77.2953 449.157C77.2953 452.744 74.3821 455.658 70.7966 455.658Z" fill="#0C0A1C"/>
<path d="M70.7966 477.209C67.4352 477.209 64.7461 474.487 64.7461 471.157C64.7461 467.826 67.4672 465.104 70.7966 465.104C74.126 465.104 76.8472 467.826 76.8472 471.157C76.8472 474.487 74.126 477.209 70.7966 477.209Z" fill="#0C0A1C"/>
<path d="M70.7966 496.582C67.7233 496.582 65.2583 494.085 65.2583 491.043C65.2583 488 67.7553 485.503 70.7966 485.503C73.8379 485.503 76.3349 488 76.3349 491.043C76.3349 494.085 73.8379 496.582 70.7966 496.582Z" fill="#0C0A1C"/>
<path d="M70.7968 514.739C68.0756 514.739 65.8667 512.53 65.8667 509.808C65.8667 507.086 68.0756 504.876 70.7968 504.876C73.5179 504.876 75.7268 507.086 75.7268 509.808C75.7268 512.53 73.5179 514.739 70.7968 514.739Z" fill="#0C0A1C"/>
<path d="M70.9034 529.359C73.237 529.325 75.1013 527.405 75.0675 525.071C75.0337 522.737 73.1146 520.872 70.781 520.906C68.4474 520.939 66.5831 522.859 66.6169 525.193C66.6507 527.528 68.5698 529.392 70.9034 529.359Z" fill="#0C0A1C"/>
<path d="M70.7969 544.264C72.9009 544.264 74.6065 542.558 74.6065 540.453C74.6065 538.349 72.9009 536.643 70.7969 536.643C68.6929 536.643 66.9873 538.349 66.9873 540.453C66.9873 542.558 68.6929 544.264 70.7969 544.264Z" fill="#0C0A1C"/>
<path d="M44.9621 321.997C49.9303 321.997 53.9578 317.968 53.9578 312.998C53.9578 308.029 49.9303 304 44.9621 304C39.9939 304 35.9663 308.029 35.9663 312.998C35.9663 317.968 39.9939 321.997 44.9621 321.997Z" fill="#0C0A1C"/>
<path d="M52.9974 346.512C54.81 342.171 52.7615 337.182 48.4218 335.369C44.0822 333.556 39.0947 335.605 37.2821 339.946C35.4694 344.287 37.518 349.276 41.8576 351.089C46.1973 352.902 51.1847 350.853 52.9974 346.512Z" fill="#0C0A1C"/>
<path d="M45.1539 379.189C40.7681 379.189 37.1826 375.634 37.1826 371.215C37.1826 366.796 40.7361 363.241 45.1539 363.241C49.5718 363.241 53.1253 366.796 53.1253 371.215C53.1253 375.634 49.5718 379.189 45.1539 379.189Z" fill="#0C0A1C"/>
<path d="M45.314 405.575C41.2803 405.575 37.9829 402.309 37.9829 398.242C37.9829 394.175 41.2483 390.909 45.314 390.909C49.3797 390.909 52.645 394.175 52.645 398.242C52.645 402.309 49.3797 405.575 45.314 405.575Z" fill="#0C0A1C"/>
<path d="M44.9618 430.648C41.1522 430.648 38.0469 427.542 38.0469 423.732C38.0469 419.921 41.1522 416.815 44.9618 416.815C48.7714 416.815 51.8767 419.921 51.8767 423.732C51.8767 427.542 48.7714 430.648 44.9618 430.648Z" fill="#0C0A1C"/>
<path d="M44.9621 455.658C41.3766 455.658 38.4634 452.744 38.4634 449.157C38.4634 445.571 41.3766 442.657 44.9621 442.657C48.5476 442.657 51.4608 445.571 51.4608 449.157C51.4608 452.744 48.5476 455.658 44.9621 455.658Z" fill="#0C0A1C"/>
<path d="M44.9622 477.209C41.6007 477.209 38.9116 474.487 38.9116 471.157C38.9116 467.826 41.6328 465.104 44.9622 465.104C48.2915 465.104 51.0127 467.826 51.0127 471.157C51.0127 474.487 48.2915 477.209 44.9622 477.209Z" fill="#0C0A1C"/>
<path d="M44.9617 496.582C41.8884 496.582 39.4233 494.085 39.4233 491.043C39.4233 488 41.9204 485.503 44.9617 485.503C48.0029 485.503 50.5 488 50.5 491.043C50.5 494.085 48.0029 496.582 44.9617 496.582Z" fill="#0C0A1C"/>
<path d="M44.9618 514.739C42.2407 514.739 40.0317 512.53 40.0317 509.808C40.0317 507.086 42.2407 504.876 44.9618 504.876C47.6829 504.876 49.8919 507.086 49.8919 509.808C49.8919 512.53 47.6829 514.739 44.9618 514.739Z" fill="#0C0A1C"/>
<path d="M44.9621 529.373C47.2959 529.373 49.1879 527.481 49.1879 525.146C49.1879 522.812 47.2959 520.919 44.9621 520.919C42.6283 520.919 40.7363 522.812 40.7363 525.146C40.7363 527.481 42.6283 529.373 44.9621 529.373Z" fill="#0C0A1C"/>
<path d="M44.9619 544.264C47.0659 544.264 48.7715 542.558 48.7715 540.453C48.7715 538.349 47.0659 536.643 44.9619 536.643C42.858 536.643 41.1523 538.349 41.1523 540.453C41.1523 542.558 42.858 544.264 44.9619 544.264Z" fill="#0C0A1C"/>
<defs>
<linearGradient id="paint0_linear_103_68" x1="0" y1="211.98" x2="425.076" y2="211.98" gradientUnits="userSpaceOnUse">
<stop stop-color="#E8E8E8"/>
<stop offset="1" stop-color="white"/>
</linearGradient>
<linearGradient id="paint1_linear_103_68" x1="112.578" y1="305.425" x2="538.029" y2="304.829" gradientUnits="userSpaceOnUse">
<stop stop-color="#E4E4E4"/>
<stop offset="1" stop-color="#AAAAAA"/>
</linearGradient>
</defs>
</svg>
