<svg id="Layer_1" data-name="Layer 1" xmlns="http://www.w3.org/2000/svg" viewBox="0 0 60 60"><defs><style>.cls-1{fill:#578abd;}.cls-2,.cls-3{fill:#7d818e;}.cls-2{opacity:0.4;}.cls-3{opacity:0.7;}</style></defs><rect class="cls-1" x="27" y="17.99" width="6" height="4"/><path class="cls-1" d="M5,18a2,2,0,0,0,0,4h9V18Z"/><path class="cls-1" d="M55,18H45v4H55a2,2,0,0,0,0-4Z"/><path class="cls-2" d="M15,10.46H26c.55,0,1,.34,1,.75v26.5c0,.41-.45.75-1,.75H15c-.55,0-1-.34-1-.75V11.21C14,10.8,14.45,10.46,15,10.46Z"/><path class="cls-3" d="M33.67,12.41H44.33a.61.61,0,0,1,.67.51v17a.62.62,0,0,1-.67.51H33.67a.62.62,0,0,1-.67-.51v-17A.61.61,0,0,1,33.67,12.41Z"/></svg>