<svg id="Layer_1" data-name="Layer 1" xmlns="http://www.w3.org/2000/svg" viewBox="0 0 60 60"><defs><style>.cls-1{fill:#489c6d;}.cls-2{fill:#7d818e;opacity:0.3;}.cls-3{fill:none;stroke:#7d818e;stroke-linecap:round;stroke-miterlimit:10;stroke-width:2px;stroke-dasharray:1 4;}</style></defs><path class="cls-1" d="M5,55H55a2,2,0,0,1,2,2h0a2,2,0,0,1-2,2H5a2,2,0,0,1-2-2H3A2,2,0,0,1,5,55Z"/><path class="cls-1" d="M5,1H55a2,2,0,0,1,2,2h0a2,2,0,0,1-2,2H5A2,2,0,0,1,3,3H3A2,2,0,0,1,5,1Z"/><path class="cls-2" d="M16,11H44c.55,0,1,.34,1,.75v37.5c0,.41-.45.75-1,.75H16c-.55,0-1-.34-1-.75V11.75C15,11.34,15.45,11,16,11Z"/><path class="cls-3" d="M16,11H44c.55,0,1,.34,1,.75v37.5c0,.41-.45.75-1,.75H16c-.55,0-1-.34-1-.75V11.75C15,11.34,15.45,11,16,11Z"/></svg>