<?xml version="1.0" encoding="UTF-8"?><svg id="a" xmlns="http://www.w3.org/2000/svg" viewBox="0 0 60 60"><defs><style>.b,.c{fill:none;stroke:#fff;stroke-linecap:round;stroke-linejoin:round;}.d{fill:#dde3e9;}.d,.e,.f{stroke-width:0px;}.e{fill:#ced5db;}.f{fill:#72a5d8;}.c{stroke-width:1.5px;}</style></defs><rect class="f" x="10" y="13.08" width="40" height="15" rx="2" ry="2"/><path class="d" d="m48.55,33.25H10.62c-.34,0-.62-.28-.62-.63s.28-.63.62-.63h37.93c.34,0,.62.28.62.63s-.28.63-.62.63Z"/><path class="d" d="m49.38,36.17H10.62c-.34,0-.62-.28-.62-.63s.28-.63.62-.63h38.76c.34,0,.62.28.62.63s-.28.63-.62.63Z"/><path class="d" d="m45.04,39.09H10.62c-.34,0-.62-.28-.62-.63s.28-.63.62-.63h34.42c.34,0,.62.28.62.63s-.28.63-.62.63Z"/><path class="d" d="m40.08,42.01H10.62c-.34,0-.62-.28-.62-.63s.28-.63.62-.63h29.46c.34,0,.62.28.62.63s-.28.63-.62.63Z"/><rect class="e" x=".5" y=".33" width="59" height="8"/><path class="d" d="m24.32,11.08h-13.94c-.21,0-.37-.17-.37-.37s.17-.38.37-.38h13.94c.21,0,.37.17.37.37s-.17.38-.37.38Z"/><path class="d" d="m49.63,11.08h-5.44c-.21,0-.37-.17-.37-.37s.17-.38.37-.38h5.44c.21,0,.37.17.37.37s-.17.38-.37.38Z"/><line class="c" x1="40.95" y1="3.23" x2="19.05" y2="3.23"/><line class="b" x1="35.83" y1="5.43" x2="24.17" y2="5.43"/><path class="d" d="m48.55,46.64H10.62c-.34,0-.62-.28-.62-.63s.28-.63.62-.63h37.93c.34,0,.62.28.62.63s-.28.63-.62.63Z"/><path class="d" d="m49.38,49.56H10.62c-.34,0-.62-.28-.62-.63s.28-.63.62-.63h38.76c.34,0,.62.28.62.63s-.28.63-.62.63Z"/><path class="d" d="m45.04,52.48H10.62c-.34,0-.62-.28-.62-.63s.28-.63.62-.63h34.42c.34,0,.62.28.62.63s-.28.63-.62.63Z"/><path class="d" d="m40.08,55.4H10.62c-.34,0-.62-.28-.62-.63s.28-.63.62-.63h29.46c.34,0,.62.28.62.63s-.28.63-.62.63Z"/></svg>