<?xml version="1.0" encoding="UTF-8"?><svg id="a" xmlns="http://www.w3.org/2000/svg" viewBox="0 0 60 60"><defs><style>.b,.c,.d{fill:none;stroke-linecap:round;stroke-linejoin:round;}.b,.d{stroke:#fff;}.c{stroke:#72a5d8;}.c,.d{stroke-width:1.5px;}.e{fill:#ced5db;}.e,.f{stroke-width:0px;}.f{fill:#72a5d8;}</style></defs><polyline class="c" points="29.77 26.11 29.77 35.72 33.56 35.72"/><line class="c" x1="29.77" y1="35.72" x2="29.77" y2="45.33"/><polyline class="c" points="41.71 28.73 41.71 26.11 17.83 26.11 17.83 45.33 37.34 45.33"/><polyline class="c" points="47.1 39.65 47.1 32.23 36.47 32.23 36.47 40.96 38.65 40.96"/><polyline class="c" points="17.83 26.11 17.83 22.03 41.71 22.03 41.71 26.11"/><path class="f" d="m47.68,43.58l-5.68-5.68c-.19-.11-.43-.04-.54.15-.02.04-.04.09-.05.14v7.72c.01.15.14.28.29.29q.15,0,.15-.15l1.6-1.31,1.31,2.91c0,.08.07.15.15.15h.29l1.31-.58c.15,0,.15-.15.15-.29l-1.17-2.91h2.04c.15-.01.28-.14.29-.29-.08,0-.15-.07-.15-.15h0Z"/><rect class="e" x=".5" y=".33" width="59" height="8"/><line class="d" x1="40.95" y1="3.23" x2="19.05" y2="3.23"/><line class="b" x1="35.83" y1="5.43" x2="24.17" y2="5.43"/></svg>