<?xml version="1.0" encoding="UTF-8"?><svg id="a" xmlns="http://www.w3.org/2000/svg" viewBox="0 0 60 60"><defs><style>.b,.c{fill:none;stroke:#fff;stroke-linecap:round;stroke-linejoin:round;}.d{fill:#dde3e9;}.d,.e{stroke-width:0px;}.e{fill:#72a5d8;}.c{stroke-width:1.5px;}</style></defs><rect class="e" x=".5" y=".33" width="59" height="25"/><line class="b" x1="26.49" y1="37.85" x2="14.77" y2="37.85"/><line class="c" x1="40.95" y1="10.77" x2="19.05" y2="10.77"/><line class="b" x1="35.83" y1="13.89" x2="24.17" y2="13.89"/><path class="d" d="m48.55,30.25H10.62c-.34,0-.62-.28-.62-.63s.28-.63.62-.63h37.93c.34,0,.62.28.62.63s-.28.63-.62.63Z"/><path class="d" d="m49.38,33.17H10.62c-.34,0-.62-.28-.62-.63s.28-.63.62-.63h38.76c.34,0,.62.28.62.63s-.28.63-.62.63Z"/><path class="d" d="m45.04,36.09H10.62c-.34,0-.62-.28-.62-.63s.28-.63.62-.63h34.42c.34,0,.62.28.62.63s-.28.63-.62.63Z"/><path class="d" d="m40.08,39.01H10.62c-.34,0-.62-.28-.62-.63s.28-.63.62-.63h29.46c.34,0,.62.28.62.63s-.28.63-.62.63Z"/><path class="d" d="m48.55,43.72H10.62c-.34,0-.62-.28-.62-.63s.28-.63.62-.63h37.93c.34,0,.62.28.62.63s-.28.63-.62.63Z"/><path class="d" d="m49.38,46.64H10.62c-.34,0-.62-.28-.62-.63s.28-.63.62-.63h38.76c.34,0,.62.28.62.63s-.28.63-.62.63Z"/><path class="d" d="m45.04,49.56H10.62c-.34,0-.62-.28-.62-.63s.28-.63.62-.63h34.42c.34,0,.62.28.62.63s-.28.63-.62.63Z"/><path class="d" d="m40.08,52.48H10.62c-.34,0-.62-.28-.62-.63s.28-.63.62-.63h29.46c.34,0,.62.28.62.63s-.28.63-.62.63Z"/><path class="d" d="m45.04,55.4H10.62c-.34,0-.62-.28-.62-.63s.28-.63.62-.63h34.42c.34,0,.62.28.62.63s-.28.63-.62.63Z"/></svg>