<svg width="1000" height="1000" viewBox="0 0 1000 1000" fill="none" xmlns="http://www.w3.org/2000/svg">
<path d="M260.872 633.052C260.872 632.275 260.631 631.788 260.337 631.97C260.042 632.152 259.434 631.421 258.985 630.346C258.511 629.212 257.78 628.392 257.244 628.392C256.514 628.392 256.455 628.229 256.963 627.617C257.457 627.022 257.44 626.787 256.893 626.603C256.332 626.414 256.356 626.148 257.008 625.355C257.639 624.587 257.672 624.292 257.146 624.115C256.766 623.987 256.456 623.64 256.456 623.344C256.456 623.048 256.701 622.957 257.001 623.143C257.314 623.336 257.407 623.115 257.218 622.623C257.037 622.152 257.173 621.767 257.52 621.767C257.98 621.767 257.99 621.467 257.56 620.662C257.085 619.775 257.14 619.558 257.838 619.558C258.541 619.558 258.575 619.416 258.016 618.818C257.301 618.053 255.913 618.737 256.094 619.765C256.141 620.031 255.888 620.356 255.533 620.487C255.107 620.644 254.995 620.307 255.206 619.503C255.381 618.831 255.3 618.413 255.024 618.575C254.749 618.736 254.026 618.685 253.419 618.462C252.543 618.14 252.801 617.973 254.661 617.654C256.124 617.404 257.008 616.959 257.008 616.473C257.008 616.044 257.49 615.694 258.08 615.694C258.671 615.694 259.493 615.208 259.908 614.615C260.653 613.552 263.465 612.101 264.377 612.31C264.634 612.369 266.249 612.063 267.965 611.63C269.682 611.197 272.639 610.667 274.537 610.453C276.435 610.239 278.127 609.84 278.296 609.566C278.465 609.293 279.148 609.063 279.814 609.056C280.479 609.049 282.514 608.31 284.336 607.412C286.158 606.515 288.068 605.775 288.582 605.769C289.095 605.762 289.669 605.508 289.856 605.204C290.044 604.9 289.917 604.652 289.575 604.652C288.809 604.652 289.085 602.183 289.856 602.129C290.16 602.108 291.498 601.779 292.829 601.398C294.16 601.017 295.856 600.857 296.597 601.043C297.338 601.229 298.733 601.138 299.697 600.84C300.661 600.543 302.836 600.028 304.531 599.697C309.181 598.787 311.664 598.027 311.664 597.513C311.664 596.981 283.342 597.352 276.33 597.977C272.636 598.305 271.227 598.215 269.705 597.554C268.643 597.092 267.649 596.678 267.497 596.634C267.345 596.59 266.495 596.254 265.608 595.888C264.72 595.521 263.602 595.374 263.123 595.561C262.644 595.747 255.296 595.989 246.794 596.098C238.292 596.207 230.218 596.544 228.851 596.846C227.485 597.148 223.39 597.684 219.752 598.037C216.113 598.389 212.661 598.932 212.08 599.243C211.499 599.554 209.81 599.692 208.327 599.549C206.844 599.407 205.497 599.507 205.333 599.772C205.17 600.037 204.804 600.11 204.522 599.936C204.239 599.761 204.008 599.881 204.008 600.203C204.008 600.524 203.821 600.738 203.594 600.678C202.675 600.435 197.935 601.439 197.935 601.877C197.935 602.416 193.764 603.311 192.188 603.111C191.607 603.038 190.666 603.478 190.096 604.091C189.525 604.703 188.633 605.233 188.114 605.269C187.594 605.305 185.679 605.388 183.857 605.454C182.035 605.519 179.55 605.859 178.336 606.21C177.121 606.561 175.189 606.987 174.042 607.158C172.895 607.328 172.091 607.686 172.256 607.953C172.77 608.784 171.543 609.002 161.951 609.782C161.441 609.823 161.069 610.093 161.123 610.38C161.177 610.668 160.724 611.049 160.117 611.228C159.51 611.407 158.386 611.98 157.619 612.501C156.616 613.183 154.525 613.549 150.166 613.804C146.833 614 143.533 614.134 142.831 614.102C142.129 614.07 140.792 614.439 139.859 614.921C138.896 615.419 138.016 615.579 137.823 615.291C137.347 614.585 135.404 613.907 135.829 614.596C136.278 615.322 135.741 615.285 134.271 614.488C131.304 612.88 117.259 614.102 115.794 616.096C115.34 616.713 115.29 617.13 115.655 617.251C115.97 617.356 116.227 617.662 116.227 617.931C116.227 618.199 115.879 618.286 115.454 618.123C115.03 617.96 114.518 618.092 114.318 618.416C113.782 619.283 117.091 619.157 118.876 618.243C119.696 617.824 121.485 617.298 122.852 617.074C124.218 616.85 125.771 616.587 126.302 616.488C126.834 616.39 127.268 616.635 127.268 617.032C127.268 617.544 127.955 617.702 129.615 617.572C131.428 617.43 131.739 617.517 130.983 617.955C130.445 618.267 130.13 618.723 130.282 618.969C130.609 619.499 127.523 620.032 121.547 620.478C118.192 620.728 117.097 620.629 116.725 620.042C116.376 619.491 116.241 619.472 116.235 619.972C116.223 620.989 112.904 620.825 111.715 619.749C111.16 619.246 110.706 619.07 110.706 619.357C110.706 619.674 108.914 619.73 106.151 619.5C103.646 619.291 99.7332 618.984 97.4559 618.816C95.1785 618.649 92.4992 618.223 91.5018 617.87C90.5044 617.517 89.07 617.347 88.3142 617.491C87.5584 617.636 86.7833 617.5 86.5918 617.191C86.3778 616.844 86.5221 616.799 86.9663 617.074C87.4159 617.352 87.555 617.304 87.3344 616.947C86.9187 616.274 84.2856 615.665 81.1695 615.52C79.3313 615.435 78.9511 615.219 78.9012 614.231C78.8476 613.171 79.2284 613 82.4897 612.622C84.4964 612.39 86.7593 612.253 87.5184 612.319L88.8986 612.438L87.4338 611.642C84.8935 610.261 82.4166 609.679 77.5809 609.324C75 609.135 71.2734 608.575 69.2997 608.079C64.7602 606.938 49.0088 606.851 48.3218 607.963C48.0854 608.345 47.5997 608.477 47.2426 608.257C46.3202 607.687 36.1605 607.495 36.5061 608.054C36.8293 608.577 36.747 608.586 29.5249 608.805C24.4276 608.96 22.276 609.148 14.6436 610.11C11.1634 610.548 9.12864 610.297 7.13956 609.184C6.30656 608.717 6.48609 608.452 8.49219 607.186C10.1103 606.165 12.087 605.564 15.0708 605.187C20.1628 604.543 25.0212 603.732 28.5215 602.942C30.6152 602.469 31.0328 602.176 30.8134 601.338C30.656 600.735 30.2257 600.434 29.7715 600.609C29.3459 600.772 28.9977 600.631 28.9977 600.294C28.9977 599.958 29.4325 599.679 29.9639 599.675C30.7895 599.668 30.8096 599.589 30.1019 599.131C29.5782 598.793 29.5211 598.593 29.9466 598.588C30.3176 598.583 30.4763 598.206 30.3004 597.748C30.0784 597.17 30.6293 596.629 32.112 595.97L34.2425 595.023L28.8483 594.69C25.8815 594.507 21.9687 594.383 20.153 594.413C18.3374 594.444 16.8519 594.438 16.8519 594.4C16.8519 594.362 17.3488 593.758 17.9561 593.058C18.5634 592.358 19.0603 591.953 19.0603 592.158C19.0603 592.364 19.6197 592.165 20.3035 591.717C20.9873 591.269 23.3885 590.617 25.6395 590.267C27.8905 589.918 30.7162 589.285 31.9188 588.861C33.1214 588.437 35.0057 588.081 36.1062 588.07C39.1808 588.04 46.9255 586.026 44.6861 585.839C44.4077 585.816 43.6831 585.682 43.0758 585.543C42.4685 585.403 41.6683 585.222 41.2975 585.141C40.0344 584.864 39.9537 584.327 41.1197 583.956C41.7597 583.753 42.9327 582.985 43.7263 582.25C44.52 581.514 45.7237 580.912 46.4013 580.912C47.0789 580.912 47.9168 580.571 48.2632 580.154C48.7808 579.53 48.3256 579.33 45.7084 579.032C43.9568 578.832 41.7784 578.549 40.8675 578.402C38.7003 578.052 30.0767 578.102 29.4844 578.469C28.6853 578.962 22.3728 579.195 22.3728 578.731C22.3728 578.487 22.7454 577.978 23.2009 577.6C23.6563 577.222 24.029 576.653 24.029 576.336C24.029 576.019 23.8655 575.923 23.6657 576.123C23.4659 576.323 22.9691 576.209 22.5616 575.871C22.1513 575.531 21.8207 575.492 21.8207 575.784C21.8207 576.074 21.448 576.312 20.9925 576.312C19.6667 576.312 20.0304 575.721 21.8524 574.914C23.9014 574.007 23.608 573.627 20.3047 572.907C17.2913 572.251 16.7169 571.223 18.8774 570.352C21.1133 569.451 31.618 568.281 37.623 568.264C40.4377 568.256 43.3997 568.085 44.2052 567.883L45.6698 567.515L44.0968 566.229C43.2316 565.521 42.1037 564.933 41.5902 564.922C40.2816 564.894 39.8838 564.016 40.5858 562.704C41.3269 561.319 46.1293 558.829 48.0588 558.829C48.8723 558.829 49.3427 558.591 49.1487 558.277C48.9611 557.973 48.3519 557.725 47.795 557.725C46.8597 557.725 45.8197 556.347 46.0246 555.379C46.2329 554.395 37.4735 555.495 36.7405 556.545C36.1806 557.347 22.0829 559.443 20.697 558.93L19.3772 558.442L20.661 557.755C21.3671 557.377 25.954 556.399 30.8541 555.582C39.8207 554.088 42.0029 553.032 36.1274 553.032C34.322 553.032 32.6611 552.717 32.1212 552.272C31.3543 551.639 30.2925 551.622 25.8197 552.168C17.5952 553.172 12.8154 553.862 11.6944 554.207C10.9518 554.435 10.7284 554.271 10.8663 553.6C11.0672 552.622 12.7753 551.474 15.453 550.517C17.7579 549.694 16.3252 548.968 13.3782 549.466C12.1005 549.682 9.93711 550.034 8.57071 550.248L6.08634 550.637L8.15665 548.653C9.29532 547.561 10.227 546.58 10.227 546.471C10.227 546.363 8.68639 546.1 6.80348 545.887C2.35156 545.383 -0.0305443 544.135 0.000295716 542.322C0.0164957 541.366 3.58807 540.084 6.91133 539.841C8.27946 539.741 11.3863 539.264 13.8155 538.782C16.2446 538.299 19.9715 537.793 22.0974 537.656C24.2233 537.519 27.453 537.146 29.2745 536.826C40.5869 534.84 43.133 534.351 43.6206 534.071C43.9203 533.899 43.0508 533.487 41.6883 533.156C40.3173 532.822 39.2112 532.229 39.2112 531.827C39.2112 530.898 44.7757 528.88 49.8258 527.978C52.2824 527.539 54.1 526.886 54.6951 526.228C55.2278 525.64 57.0759 524.897 58.9044 524.538C63.0529 523.721 62.9409 522.947 58.4332 521.282C57.4668 520.925 56.788 520.345 56.9249 519.994C57.2363 519.195 59.7953 517.975 61.1611 517.975C61.7258 517.975 62.0343 517.727 61.8466 517.423C61.6589 517.119 59.6568 516.871 57.3974 516.871C53.6747 516.871 52.1799 516.307 53.9794 515.58C55.5874 514.932 47.5304 515.283 43.5509 516.035C38.5951 516.972 35.8988 516.58 35.8988 514.922C35.8988 514.158 37.3408 513.155 41.3178 511.152C45.0642 509.266 46.5126 508.279 46.0105 507.955C45.0567 507.339 45.9981 506.709 49.7008 505.486C54.9273 503.76 59.0735 500.866 58.5291 499.325C58.1573 498.272 60.1944 497.698 68.6105 496.483C72.7938 495.879 76.9832 495.002 77.9203 494.535C78.8574 494.068 80.8414 493.539 82.3291 493.361C86.4313 492.869 94.2807 490.883 95.5084 490.027C96.1074 489.609 97.3495 489.249 98.2688 489.228C99.1881 489.207 100.437 488.976 101.044 488.715C101.924 488.337 101.699 488.224 99.9403 488.159C95.2346 487.986 92.7375 487.522 92.1136 486.705C91.6877 486.147 91.0224 485.976 90.1814 486.207C89.0775 486.51 89.0348 486.474 89.8747 485.948C90.4116 485.611 91.2811 485.407 91.807 485.493C92.3329 485.58 93.0974 485.441 93.5059 485.185C93.9454 484.91 94.8047 485.018 95.6103 485.449C96.6715 486.017 97.2024 486.033 98.0164 485.525C98.6773 485.112 99.1837 485.072 99.3952 485.414C99.579 485.711 101.143 485.963 102.871 485.974C104.599 485.985 106.634 486.349 107.393 486.783C109.047 487.728 109.602 487.797 109.602 487.059C109.602 486.755 109.214 486.507 108.741 486.507C108.268 486.507 108.016 486.286 108.183 486.017C108.349 485.748 107.965 485.392 107.329 485.226C106.693 485.059 106.281 484.596 106.413 484.197C106.656 483.459 109.129 483.027 116.779 482.385C123.69 481.806 125.612 481.494 125.612 480.952C125.612 480.667 125.239 480.434 124.784 480.434C124.324 480.434 123.956 479.943 123.956 479.329C123.956 478.52 124.324 478.225 125.336 478.225C126.924 478.225 127.195 477.375 125.729 476.992C125.186 476.85 122.391 476.866 119.518 477.028C111.15 477.501 107.803 477.343 106.053 476.396C105.164 475.915 104.277 475.62 104.082 475.74C103.888 475.86 103.831 475.259 103.957 474.404C104.23 472.539 103.454 472.248 97.7854 472.092C94.3928 471.999 94.1294 471.915 95.3085 471.304C97.2481 470.299 104.363 468.856 108.606 468.608C110.775 468.481 112.823 468.028 113.56 467.512C115.128 466.413 116.073 466.399 117.134 467.46C117.611 467.937 118.94 468.283 120.269 468.276C124.361 468.255 139.627 466.702 141.7 466.096C143.636 465.53 143.695 465.439 143.286 463.628C143.029 462.487 143.087 461.523 143.433 461.177C143.827 460.783 143.81 460.371 143.379 459.851C142.06 458.262 143.738 457.933 151.795 458.201C158.055 458.409 160.008 458.295 161.278 457.647C162.622 456.962 168.681 456.016 172.815 455.847C173.422 455.822 175.161 455.58 176.68 455.308L179.44 454.815L176.956 454.413C175.589 454.192 171.49 454.138 167.846 454.293C164.203 454.448 158.985 454.542 156.253 454.501C153.52 454.461 148.178 454.832 144.383 455.327C136.873 456.306 129.128 456.99 125.794 456.97C124.631 456.963 123.524 457.174 123.333 457.44C123.142 457.705 122.211 457.953 121.263 457.992C120.315 458.031 119.539 458.268 119.539 458.52C119.539 458.771 118.98 458.82 118.297 458.627C117.325 458.354 117.235 458.404 117.883 458.858C118.597 459.358 118.578 459.439 117.745 459.446C117.214 459.451 116.779 459.731 116.779 460.07C116.779 460.448 116.254 460.342 115.418 459.794C113.907 458.804 113.244 458.648 113.704 459.392C113.87 459.661 113.512 460.01 112.908 460.168C112.28 460.332 111.81 460.182 111.81 459.817C111.81 459.447 110.938 459.178 109.74 459.178C108.424 459.178 107.717 459.42 107.799 459.842C107.888 460.299 107.293 460.425 105.89 460.245C103.592 459.951 101.325 458.664 101.312 457.647C101.306 457.213 101.112 457.267 100.768 457.798C100.353 458.441 100.231 458.278 100.225 457.072C100.214 455.081 101.124 453.382 102.201 453.382C102.663 453.382 102.888 453.133 102.701 452.829C102.513 452.526 102.809 452.258 103.358 452.235C105.177 452.158 106.333 451.824 107.563 451.018C108.666 450.295 111.258 450.573 111.258 451.414C111.258 451.566 110.925 451.563 110.518 451.406C110.111 451.25 109.428 451.554 109 452.082C108.329 452.908 108.33 452.975 109.006 452.568C109.609 452.205 109.7 452.329 109.401 453.108C109.169 453.714 109.298 454.301 109.722 454.57C110.778 455.241 111.667 455.115 110.706 454.431C110.083 453.987 110.403 453.915 111.999 454.137C113.171 454.3 114.57 454.15 115.128 453.802C115.892 453.324 116.334 453.334 116.946 453.842C117.598 454.383 117.837 454.324 118.183 453.533C118.418 452.994 118.571 452.366 118.523 452.139C118.475 451.911 118.788 451.725 119.218 451.725C119.648 451.725 120.095 451.441 120.21 451.093C120.326 450.746 121.15 450.384 122.04 450.289C122.931 450.194 123.938 449.737 124.277 449.273C124.616 448.809 125.095 448.612 125.341 448.835C125.587 449.058 125.633 448.806 125.442 448.274C125.015 447.085 126.071 446.974 126.526 448.16C126.816 448.914 126.972 448.904 127.889 448.074C128.868 447.189 128.926 447.195 128.934 448.189C128.941 449.07 129.029 449.106 129.477 448.412C130.275 447.178 130.161 446.909 128.684 446.538C127.746 446.303 127.364 445.847 127.425 445.038C127.523 443.748 129.446 442.784 131.662 442.915C133.727 443.036 135.55 442.325 135.55 441.399C135.55 440.803 136.099 440.628 137.62 440.739C139.846 440.902 143.589 440.28 144.936 439.525C145.604 439.15 145.551 439.052 144.66 439.017C144.052 438.994 142.313 438.858 140.795 438.716C136.1 438.276 129.856 438.289 127.603 438.745C126.057 439.058 125.561 439.005 125.838 438.558C126.075 438.173 125.926 438.049 125.447 438.233C124.993 438.407 124.26 437.902 123.677 437.013C122.966 435.927 122.873 435.432 123.349 435.273C123.796 435.124 123.688 434.794 123.02 434.27C122.112 433.558 122.171 433.515 123.68 433.777C124.591 433.935 125.026 433.918 124.647 433.739C123.248 433.08 124.018 432.402 126.165 432.402C127.559 432.402 128.376 432.656 128.381 433.092C128.387 433.6 128.515 433.584 128.864 433.033C129.163 432.562 129.468 432.493 129.686 432.846C130.057 433.445 130.76 433.399 132.485 432.66C133.077 432.407 134.378 432.183 135.376 432.163C137.664 432.116 138.407 430.746 136.144 430.746C135.249 430.746 134.426 430.387 134.246 429.917C134.032 429.359 134.273 429.089 134.988 429.089C135.57 429.089 136.246 428.779 136.489 428.399C137.122 427.41 139.372 426.237 139.951 426.595C140.221 426.762 140.599 426.647 140.789 426.338C140.98 426.029 141.822 425.777 142.659 425.777C143.497 425.777 145.532 425.373 147.182 424.88C149.785 424.102 150.019 423.923 148.955 423.524C148.281 423.272 143.672 423.098 138.711 423.14C133.751 423.181 129.368 423.014 128.971 422.769C128.56 422.515 128.087 422.586 127.872 422.934C127.428 423.652 110.266 424.196 109.839 423.506C109.689 423.263 109.181 423.213 108.71 423.393C108.13 423.616 108.053 423.846 108.473 424.105C108.814 424.316 108.338 424.489 107.416 424.489C106.493 424.489 105.738 424.251 105.738 423.961C105.738 423.671 105.359 423.748 104.896 424.132C104.433 424.516 103.878 424.653 103.662 424.438C103.446 424.222 103.887 423.575 104.642 423.001L106.014 421.956L104.633 422.222C103.424 422.454 103.39 422.422 104.357 421.962C105.95 421.206 108.566 421.284 110.1 422.134C111.595 422.963 113.467 422.69 113.467 421.643C113.467 421.161 114.557 420.945 117.055 420.93C119.307 420.918 120.644 421.136 120.644 421.517C120.644 421.85 120.954 421.716 121.334 421.219C121.832 420.565 123.327 420.216 126.717 419.96C129.298 419.765 132.978 419.255 134.894 418.827C136.811 418.398 139.171 418.024 140.139 417.995C141.107 417.965 143.141 417.602 144.659 417.188C147.248 416.481 146.956 416.453 139.967 416.735C135.867 416.901 132.141 417.04 131.685 417.045C131.23 417.05 125.516 417.637 118.988 418.349C112.459 419.06 105.342 419.719 103.171 419.811C101 419.904 99.3382 420.166 99.4772 420.394C99.6162 420.622 98.6594 420.809 97.3509 420.81C96.0425 420.81 92.7361 421.173 90.0033 421.612C85.317 422.367 74.2936 423.145 75.7906 422.615C76.1721 422.48 76.3437 422.143 76.1721 421.865C76.0005 421.587 76.5579 421.348 77.4108 421.334C78.2638 421.32 79.8312 420.836 80.8939 420.26C81.9567 419.683 83.3231 418.98 83.9304 418.697C85.9265 417.766 118.488 412.38 126.165 411.71C128.442 411.512 135.026 410.857 140.795 410.256C146.564 409.654 154.179 408.921 157.716 408.626C161.254 408.332 165.344 407.731 166.805 407.291C168.724 406.713 169.567 406.663 169.842 407.108C170.191 407.672 175.999 407.517 183.029 406.757C184.092 406.642 187.446 406.393 190.482 406.203C195.931 405.862 204.232 404.717 208.878 403.665C210.19 403.368 211.496 403.269 211.78 403.444C212.065 403.62 215.911 403.216 220.328 402.547C226.863 401.557 228.594 401.456 229.622 402.007C230.656 402.56 231.98 402.467 236.908 401.496C245.111 399.879 255.815 397.778 261.149 396.736C263.578 396.262 267.107 395.522 268.991 395.091C270.876 394.661 273.236 394.309 274.236 394.311C275.236 394.311 277.173 393.956 278.539 393.519C280.842 392.782 285.557 391.964 298.138 390.118C304.602 389.17 305.904 388.951 312.492 387.705C315.529 387.131 320.497 386.252 323.534 385.751C326.57 385.249 329.8 384.716 330.711 384.566C337.157 383.5 338.385 383.52 339.667 384.71C340.359 385.352 340.924 386.16 340.924 386.504C340.924 386.849 341.111 387.102 341.339 387.066C341.566 387.03 342.32 387.03 343.014 387.066C344.069 387.12 344.185 387.3 343.724 388.163C343.048 389.426 343.589 390.107 344.6 389.267C345.739 388.322 345.479 389.172 344.17 390.678C343.483 391.468 342.103 392.177 340.833 392.391C338.979 392.705 338.768 392.877 339.362 393.592C340.252 394.666 339.5 394.733 374.878 390.452C377.307 390.158 381.654 389.798 384.539 389.653C387.424 389.507 392.641 389.126 396.133 388.807C399.625 388.487 404.221 388.127 406.346 388.007C408.472 387.887 411.193 387.531 412.394 387.216C413.595 386.902 418.358 386.629 422.98 386.61C427.601 386.592 431.712 386.466 432.114 386.33C433.108 385.997 446.045 385.319 449.123 385.439C450.484 385.493 451.978 385.88 452.442 386.3C453.483 387.242 456.133 387.336 468.455 386.871C474.12 386.657 479.322 386.17 481.03 385.695C483.259 385.074 486.956 384.904 496.765 384.971C503.816 385.02 515.548 384.872 522.836 384.643C537.604 384.179 536.814 384.174 552.096 384.837C561.99 385.266 567.698 385.284 576.387 384.913C577.906 384.848 578.713 384.681 578.182 384.542C577.65 384.403 577.216 384.03 577.216 383.713C577.216 383.332 578.765 383.245 581.77 383.457C584.275 383.634 591.791 384.031 598.471 384.338C605.151 384.646 613.722 385.153 617.518 385.464C632.766 386.716 638.582 387.157 646.502 387.662C666.309 388.927 676.75 389.431 687.632 389.647C692.642 389.747 698.853 389.998 701.434 390.205C704.015 390.411 707.866 390.558 709.991 390.531C712.117 390.504 716.34 390.726 719.377 391.025C722.413 391.323 732.247 391.677 741.23 391.811C750.213 391.944 758.66 392.296 760.001 392.592C761.342 392.888 764.391 393.265 766.776 393.429C769.162 393.594 771.895 393.856 772.849 394.012C776.114 394.546 781.21 394.909 788.663 395.139C795.226 395.341 801.603 395.826 811.022 396.84C812.541 397.003 814.652 397.206 815.715 397.291C816.778 397.376 819.511 397.605 821.788 397.8C824.065 397.994 827.916 398.306 830.344 398.492C832.773 398.677 834.885 398.906 835.037 398.999C835.189 399.093 836.727 399.32 838.454 399.503C840.18 399.687 841.957 399.977 842.402 400.147C842.847 400.318 845.409 400.532 848.096 400.622C855.475 400.87 855.465 400.869 855.465 401.761C855.465 402.217 855.728 402.589 856.049 402.589C856.371 402.589 856.455 402.299 856.235 401.944C855.963 401.503 856.143 401.415 856.8 401.668C857.33 401.871 858.311 402.037 858.981 402.037C859.803 402.037 860.226 402.396 860.282 403.142C860.381 404.461 860.082 404.525 858.974 403.418C857.819 402.262 856.526 402.349 856.914 403.556C857.106 404.15 857.046 404.284 856.759 403.905C856.441 403.484 854.886 403.405 851.876 403.657C846.695 404.09 842.784 403.971 835.59 403.161C832.705 402.836 828.979 402.436 827.309 402.273C825.639 402.11 823.982 401.882 823.628 401.766C823.273 401.65 822.839 401.932 822.662 402.392C822.424 403.012 821.9 403.133 820.641 402.856C818.663 402.422 817.392 402.257 812.126 401.75C810.001 401.545 808.113 401.286 807.932 401.175C807.545 400.937 800.16 400.898 790.043 401.08C783.624 401.196 779.098 400.88 775.721 400.08C773.818 399.629 760.507 399.435 760.507 399.857C760.507 400.075 762.184 400.432 764.233 400.651C766.283 400.871 768.457 401.148 769.064 401.268C773.324 402.108 784.733 403.05 793.908 403.319C796.033 403.381 798.035 403.6 798.356 403.806C798.89 404.148 815.795 405.466 816.703 405.236C816.918 405.182 818.958 405.311 821.236 405.523C824.757 405.852 833.748 406.512 836.004 406.609C836.82 406.643 836.916 407.356 836.167 407.819C835.63 408.151 831.468 408.227 827.702 407.975C826.552 407.897 825.41 407.507 825.163 407.108C824.829 406.567 823.88 406.477 821.457 406.755C819.665 406.961 818.033 407.228 817.83 407.349C817.627 407.47 817.083 407.192 816.623 406.731C816.162 406.27 815.654 406.106 815.493 406.366C815.181 406.871 804.038 406.656 800.809 406.083C799.746 405.895 797.873 405.689 796.646 405.627C795.419 405.564 793.866 405.219 793.195 404.86C792.22 404.338 791.975 404.355 791.975 404.944C791.975 405.378 791.237 405.741 790.181 405.826C785.816 406.178 779.706 406.145 774.861 405.742C771.376 405.453 769.889 405.489 770.428 405.85C772.605 407.307 768.522 408.026 762.163 407.305C756.526 406.666 755.518 406.632 753.082 407.002C751.825 407.193 750.062 407.152 749.165 406.911C746.801 406.278 734.511 405.156 729.038 405.074C726.457 405.036 722.731 404.834 720.757 404.626C718.783 404.419 714.808 404.122 711.924 403.966C709.039 403.81 702.207 403.317 696.741 402.871C691.276 402.424 683.146 401.892 678.676 401.688C671.39 401.355 670.511 401.412 670.195 402.236C669.894 403.02 668.934 403.152 663.693 403.132C660.311 403.12 656.426 403.31 655.059 403.557L652.575 404.004L656.715 404.62C658.993 404.959 661.726 405.229 662.788 405.221C663.851 405.212 668.199 405.59 672.45 406.06C676.701 406.53 684.775 407.193 690.392 407.532C696.01 407.871 701.159 408.267 701.834 408.412C702.509 408.558 708.099 408.918 714.256 409.214C725.321 409.745 733.074 410.179 738.976 410.596C740.646 410.714 746.375 411.063 751.707 411.37C757.039 411.678 761.759 412.04 762.196 412.175C762.634 412.31 763.488 412.609 764.095 412.839C764.703 413.068 766.155 413.325 767.322 413.409C768.489 413.494 769.732 413.957 770.084 414.438C770.593 415.133 772.031 415.343 777.071 415.456C780.562 415.535 783.667 415.752 783.97 415.938C784.274 416.125 786.386 416.424 788.663 416.602C799.549 417.454 810.432 418.145 815.439 418.304C818.475 418.4 824.935 418.913 829.793 419.443C834.651 419.973 840.862 420.489 843.595 420.59C862.509 421.288 877.616 422.166 885.553 423.03C888.286 423.328 893.076 423.731 896.198 423.926C899.32 424.121 902.005 424.493 902.165 424.753C902.326 425.013 901.635 425.245 900.63 425.27C899.625 425.295 898.102 425.366 897.245 425.428C896.388 425.49 895.578 425.366 895.446 425.153C895.314 424.939 894.288 425.018 893.166 425.327C892.028 425.642 889.529 425.73 887.512 425.526C885.524 425.326 874.953 425.065 864.022 424.946C853.091 424.827 840.048 424.569 835.038 424.373C826.108 424.024 823.577 424.237 829.435 424.846C831.06 425.015 832.51 425.274 832.657 425.42C833.051 425.814 831.032 426.788 829.357 427.013C827.406 427.274 826.79 427.973 828.459 428.033C829.193 428.06 833.023 428.313 836.97 428.596C840.918 428.879 848.681 429.257 854.223 429.436C863.332 429.731 864.298 429.855 864.298 430.73C864.298 431.945 866.521 432.232 879.915 432.748C885.316 432.956 889.865 433.336 890.023 433.592C890.182 433.849 891.4 434.058 892.73 434.058C897.266 434.058 895.995 435.583 890.423 436.825C888.851 437.175 886.739 437.416 885.731 437.36C879.007 436.988 880.77 438.075 888.314 438.952C891.35 439.306 895.574 439.715 897.699 439.862C899.825 440.009 903.675 440.377 906.256 440.68C908.837 440.983 914.055 441.394 917.85 441.594C922.524 441.841 924.929 442.192 925.303 442.682C925.609 443.083 927.579 443.566 929.72 443.765C931.845 443.962 933.833 444.427 934.137 444.798C934.44 445.169 936.503 445.64 938.721 445.845C940.938 446.05 943.31 446.582 943.99 447.028C944.77 447.539 947.158 447.929 950.448 448.082C957.541 448.412 963.099 449.034 963.407 449.533C963.731 450.056 958.896 450.805 958.154 450.346C957.849 450.157 957.6 450.239 957.6 450.527C957.6 450.814 958.47 451.213 959.532 451.412C961.631 451.806 962.027 452.493 960.499 453.085C958.695 453.785 961.219 454.892 966.895 455.892C971.662 456.731 974.675 457.768 972.479 457.815C970.415 457.858 973.601 458.831 976.918 459.17C978.887 459.372 980.787 459.776 981.14 460.069C981.493 460.362 983.353 460.855 985.273 461.164C990.609 462.023 990.551 462.714 985.108 463.142C983.074 463.302 981.215 463.775 980.655 464.276C979.871 464.978 978.912 465.062 975.411 464.735C968.292 464.07 966.883 464.199 965.814 465.616C965.291 466.309 964.971 467.05 965.102 467.262C965.233 467.475 967.015 467.822 969.062 468.035C971.108 468.248 973.031 468.616 973.334 468.855C973.638 469.093 975.067 469.464 976.509 469.679C980.467 470.268 979.655 471.048 975.083 471.048C972.856 471.048 970.846 471.234 970.616 471.462C970.386 471.69 968.071 471.876 965.47 471.876C962.182 471.876 960.67 472.086 960.505 472.566C960.343 473.039 960.934 473.257 962.385 473.259C963.549 473.26 965.371 473.49 966.433 473.769C967.496 474.047 970.469 474.432 973.039 474.624C975.609 474.816 977.992 475.206 978.334 475.49C978.677 475.774 979.102 475.862 979.279 475.685C979.455 475.508 980.178 475.57 980.884 475.822C981.875 476.176 981.287 476.361 978.303 476.633C974.782 476.953 970.766 477.759 968.642 478.571C967.294 479.086 969.39 479.653 975.681 480.473C978.793 480.879 981.34 481.358 981.34 481.538C981.34 481.718 982.954 481.763 984.928 481.637C987.812 481.454 988.517 481.567 988.517 482.216C988.517 483.216 986.769 484.853 985.713 484.841C985.064 484.834 985.071 484.74 985.756 484.298C986.46 483.842 986.437 483.761 985.6 483.754C985.06 483.749 984.469 484.131 984.288 484.602C984.008 485.332 983.01 485.416 977.542 485.17C970.691 484.862 969.007 485.228 970.27 486.748C972.384 489.296 981.004 492.027 986.93 492.027C990.511 492.027 992.381 492.696 992.381 493.979C992.381 494.62 991.498 494.785 988.102 494.774C985.749 494.767 982.83 494.499 981.615 494.179C980.401 493.86 974.678 493.485 968.898 493.348C958.677 493.105 958.387 493.128 958.306 494.208C958.226 495.269 958.899 496.034 960.084 496.226C960.388 496.275 962.769 496.717 965.377 497.208C973.91 498.816 981.486 499.796 989.241 500.293C996.426 500.754 998.876 501.387 998.133 502.588C997.964 502.862 997.588 502.94 997.298 502.76C997.007 502.581 996.838 502.763 996.922 503.165C997.006 503.57 996.644 503.863 996.113 503.821C995.585 503.779 995.272 503.938 995.418 504.174C995.564 504.411 994.84 504.762 993.81 504.955C991.582 505.373 991.053 506.368 992.194 507.998C992.802 508.866 992.867 509.383 992.433 509.906C991.722 510.763 992.187 511.35 993.577 511.35C994.134 511.35 994.589 511.454 994.589 511.581C994.589 511.708 994.754 512.241 994.956 512.767C995.292 513.644 994.922 513.692 990.401 513.355C987.694 513.154 984.548 512.842 983.409 512.661C981.762 512.4 981.339 512.509 981.339 513.194C981.339 513.668 980.939 514.279 980.449 514.553C979.185 515.261 979.944 518.442 981.529 519.081C982.662 519.538 982.667 519.564 981.615 519.635C980.511 519.709 980.511 519.709 981.615 520.183C982.692 520.646 981.188 520.844 975.542 520.982C973.187 521.039 971.402 521.782 971.402 522.705C971.402 523.198 970.83 523.498 969.883 523.503C969.048 523.508 967.8 523.662 967.11 523.847C965.933 524.162 965.916 524.229 966.834 524.926C967.372 525.334 968.493 525.677 969.323 525.686C970.154 525.696 972.473 526.573 974.476 527.636C976.497 528.708 978.922 529.568 979.924 529.568C983.269 529.568 988.488 530.271 988.231 530.687C988.091 530.914 988.398 531.066 988.915 531.024C989.431 530.983 989.943 531.377 990.051 531.9C990.302 533.115 987.042 535.209 985.361 534.913C984.688 534.795 984.048 534.969 983.937 535.3C983.677 536.081 977.234 536.302 974.657 535.618C973.562 535.328 967.91 535.023 962.097 534.94C952.268 534.801 949.37 535.083 953.045 535.821C953.88 535.988 955.681 536.378 957.047 536.688C958.414 536.997 960.588 537.26 961.878 537.274C963.169 537.287 964.225 537.546 964.225 537.85C964.225 538.153 964.614 538.402 965.089 538.402C965.564 538.402 966.463 538.675 967.087 539.008C968.208 539.608 968.206 539.622 966.912 540.267C964.648 541.396 965.349 542.461 969.156 543.671C971.108 544.292 972.823 545.162 972.965 545.604C973.107 546.045 973.443 546.551 973.711 546.727C974.556 547.281 973.545 548.985 972.589 548.618C972.106 548.432 971.864 548.433 972.05 548.62C972.236 548.806 971.762 549.585 970.997 550.35C969.99 551.357 968.952 551.767 967.243 551.833C965.943 551.883 964.98 552.087 965.103 552.286C965.226 552.484 962.949 552.525 960.043 552.376C955.818 552.16 954.573 552.273 953.833 552.943C952.805 553.872 947.383 554.255 944.555 553.598C943.475 553.347 942.686 553.425 942.452 553.805C942.245 554.139 941.49 554.412 940.774 554.412C939.113 554.412 937.725 554.942 937.725 555.576C937.725 555.847 938.085 556.069 938.525 556.069C938.966 556.069 939.537 556.445 939.794 556.906C940.085 557.425 942.243 558.128 945.481 558.758C951.859 559.999 956.555 561.896 956.111 563.053C955.94 563.498 955.447 563.726 955.015 563.56C954.583 563.394 954.368 563.483 954.538 563.757C954.708 564.032 954.195 565.03 953.399 565.976C952.334 567.243 951.659 567.604 950.842 567.344C950.227 567.149 949.871 567.216 950.043 567.495C950.214 567.771 949.49 568.022 948.433 568.052C947.377 568.082 944.77 568.534 942.638 569.056L938.763 570.006L939.996 571.318C940.675 572.04 941.459 572.631 941.74 572.631C942.021 572.631 943.103 573.036 944.145 573.53C945.962 574.392 946.005 574.482 945.201 575.71C944.672 576.517 944.567 577.117 944.917 577.333C945.222 577.522 945.312 577.934 945.118 578.249C944.889 578.619 944.592 578.556 944.281 578.073C943.967 577.587 943.652 577.522 943.383 577.887C943.156 578.197 942.224 578.81 941.313 579.249L939.657 580.048L941.404 580.236C943.296 580.439 944.307 581.855 942.936 582.382C942.473 582.559 941.956 582.568 941.788 582.4C941.621 582.232 940.656 582.559 939.646 583.127C938.635 583.695 936.864 584.336 935.71 584.553C934.556 584.769 933.277 585.281 932.868 585.69C931.9 586.658 931.521 586.637 926.391 585.325C921.787 584.147 920.489 584.257 918.6 585.984C917.535 586.958 917.105 587.006 914.22 586.472C910.437 585.773 903.308 585.683 903.714 586.34C903.87 586.593 905.81 587.109 908.025 587.486C913.669 588.449 914.304 588.655 913.377 589.228C911.771 590.221 918.964 592.564 925.994 593.339C927.892 593.548 929.566 593.914 929.713 594.152C929.86 594.39 929.459 595.247 928.823 596.057C927.753 597.416 927.732 597.604 928.554 598.511C929.043 599.052 929.443 599.63 929.443 599.796C929.443 600.478 920.095 599.496 917.021 598.491C912.602 597.046 903.654 595.991 902.827 596.818C902.39 597.256 902.386 597.631 902.813 598.146C903.391 598.842 904.276 599.139 911.639 601.112C913.935 601.728 915.089 602.315 915.089 602.868C915.089 603.568 914.438 603.641 910.993 603.329C908.368 603.091 906.77 603.163 906.544 603.529C906.349 603.843 906.495 604.1 906.867 604.1C907.239 604.1 907.415 604.228 907.258 604.385C906.888 604.756 899.069 603.115 898.292 602.504C897.68 602.023 889.619 600.782 887.899 600.903C887.368 600.941 886.933 601.282 886.933 601.662C886.933 602.042 886.804 602.688 886.647 603.097C886.376 603.804 893.118 605.234 904.736 606.933C906.482 607.188 908.81 607.773 909.911 608.233C911.011 608.692 912.688 609.07 913.638 609.072C916.139 609.077 919.73 610.169 919.15 610.75C918.881 611.018 915.519 611.309 911.678 611.396C907.838 611.482 904.737 611.595 904.787 611.647C904.837 611.698 906.106 612.222 907.607 612.812C910.22 613.838 910.282 613.912 909.088 614.551C908.153 615.051 907.154 615.07 905.089 614.627C901.729 613.907 901.287 613.897 901.287 614.545C901.287 614.825 902.029 615.217 902.937 615.416C905.955 616.079 905.301 616.798 901.68 616.798C899.573 616.798 897.442 617.148 896.407 617.664C895.36 618.187 894.185 618.377 893.448 618.143C891.873 617.643 865.952 617.452 866.255 617.943C866.898 618.982 859.655 618.977 853.475 617.933C840.96 615.82 830.312 614.619 823.443 614.546C819.648 614.505 813.934 614.131 810.746 613.714C807.557 613.296 801.877 612.699 798.123 612.386C794.37 612.073 791.14 611.721 790.946 611.604C790.753 611.487 788.731 611.233 786.454 611.039C784.177 610.845 781.444 610.582 780.381 610.453C778.169 610.186 768.096 609.624 760.782 609.361C755.492 609.17 747.452 608.662 742.011 608.175C740.19 608.012 733.109 607.772 726.277 607.643C719.445 607.513 711.371 607.204 708.334 606.955C705.298 606.706 696.9 606.527 689.673 606.557C678.742 606.603 676.444 606.749 676.009 607.426C675.565 608.116 675.41 608.123 674.989 607.469C674.659 606.956 673.948 606.808 672.862 607.025C671.962 607.205 670.959 607.081 670.626 606.747C670.293 606.415 669.201 606.091 668.199 606.027C667.196 605.963 665.879 605.763 665.272 605.583C661.963 604.604 658.516 604.319 657.128 604.91C656.013 605.385 653.23 604.824 653.615 604.202C653.756 603.973 651.096 603.719 647.702 603.637C638.564 603.417 637.617 603.317 636.583 602.459C635.742 601.761 635.658 601.793 635.825 602.749C635.951 603.477 635.745 603.76 635.184 603.627C634.728 603.519 633.796 603.426 633.113 603.42C632.43 603.414 631.871 603.218 631.871 602.985C631.871 602.752 631.471 602.407 630.981 602.22C630.335 601.972 630.183 602.115 630.423 602.741C630.651 603.336 630.542 603.469 630.07 603.17C629.694 602.931 627.027 602.657 624.142 602.562C618.075 602.361 618.977 602.364 590.465 602.465C578.471 602.507 567.122 602.362 565.244 602.143C563.367 601.924 561.413 601.904 560.903 602.1C559.963 602.461 541.928 603.173 536.387 603.068C532.053 602.986 527.139 605.534 529.872 606.445C530.28 606.581 529.998 606.971 529.182 607.402C528.424 607.802 527.666 608.338 527.497 608.595C526.888 609.521 522.2 610.038 520.869 609.326C520.03 608.877 517.807 608.715 514.311 608.85C511.403 608.962 501.849 609.185 493.081 609.345C484.313 609.505 476.536 609.787 475.799 609.973C475.061 610.158 471.927 610.347 468.834 610.393C465.741 610.44 462.713 610.757 462.106 611.099C461.019 611.709 455.899 612.712 455.042 612.481C453.986 612.198 452.024 612.269 450.236 612.656C449.173 612.886 447.807 613.033 447.2 612.982C446.592 612.931 445.599 612.846 444.991 612.792C444.384 612.738 441.527 612.986 438.642 613.343C435.758 613.699 432.324 613.986 431.011 613.98C429.698 613.974 428.332 614.203 427.974 614.491C427.617 614.778 426.517 615.186 425.53 615.397C424.062 615.711 423.736 615.611 423.736 614.846C423.736 614.018 423.279 613.956 419.734 614.303C417.532 614.517 411.756 614.75 406.898 614.82C402.039 614.89 396.726 615.24 395.091 615.596C393.455 615.953 391.996 616.245 391.848 616.245C391.701 616.245 391.889 616.617 392.267 617.073C392.645 617.528 393.794 617.901 394.819 617.901C395.845 617.901 396.684 618.005 396.684 618.132C396.684 618.259 396.835 618.756 397.019 619.236C397.479 620.434 395.924 620.375 394.698 619.148C394.003 618.453 393.673 618.377 393.507 618.875C393.381 619.254 393.05 619.424 392.772 619.252C392.495 619.08 392.268 619.141 392.268 619.387C392.268 619.632 391.709 619.864 391.025 619.901C390.342 619.938 386.553 620.25 382.606 620.594C378.659 620.937 370.709 621.318 364.939 621.44C359.17 621.561 353.829 621.797 353.07 621.963C350.498 622.527 336.356 623.836 328.778 624.21C314.736 624.905 304.091 626.913 301.895 629.282C301.209 630.023 299.999 630.621 299.13 630.649C291.986 630.881 282.065 631.625 277.711 632.255C275.889 632.519 272.693 632.887 270.608 633.073C268.524 633.26 265.571 633.648 264.046 633.938C262.521 634.227 261.183 634.464 261.073 634.464C260.962 634.464 260.872 633.828 260.872 633.051L260.872 633.052ZM260.872 628.028C260.872 627.425 260.628 627.379 259.789 627.828C259.141 628.175 258.834 628.744 259.025 629.242C259.271 629.885 259.52 629.931 260.109 629.442C260.529 629.094 260.872 628.457 260.872 628.028ZM353.898 619.817C356.058 619.042 356.003 619.031 351.414 619.3C340.903 619.917 337.612 620.229 337.612 620.609C337.612 621.33 351.575 620.65 353.898 619.817ZM97.4559 613.15C97.4559 613.031 97.0833 612.933 96.6278 612.933C96.1723 612.933 95.7997 613.174 95.7997 613.468C95.7997 613.762 96.1723 613.86 96.6278 613.685C97.0833 613.51 97.4559 613.27 97.4559 613.15ZM137.482 611.277C137.675 610.965 137.222 610.725 136.443 610.725C135.684 610.725 134.909 610.973 134.721 611.277C134.529 611.589 134.981 611.829 135.76 611.829C136.52 611.829 137.294 611.581 137.482 611.277ZM111.258 608.452C111.258 607.883 110.597 607.829 109.371 608.3C107.985 608.831 108.357 609.494 109.878 609.204C110.637 609.059 111.258 608.72 111.258 608.452ZM423.646 608.362C425.53 607.838 425.788 607.636 424.86 607.416C423.387 607.067 405.822 607.805 396.408 608.611C393.85 608.83 413.605 609.365 417.663 609.187C419.637 609.1 422.329 608.729 423.646 608.362ZM442.783 606.663C443.39 606.52 442.272 606.422 440.299 606.447C435.588 606.506 433.723 607.013 436.71 607.423C437.925 607.59 439.54 607.546 440.299 607.325C441.058 607.105 442.176 606.807 442.783 606.663V606.663ZM90.462 606.825C91.5988 606.792 91.5914 606.763 90.3149 606.253C88.8097 605.652 87.5184 605.952 87.5184 606.902C87.5184 607.248 87.9106 607.38 88.3917 607.195C88.872 607.011 89.8037 606.845 90.462 606.825ZM451.077 606.204C451.224 606.056 450.242 605.894 448.893 605.843C447.544 605.792 446.269 606.028 446.059 606.367C445.791 606.801 446.44 606.908 448.243 606.728C449.654 606.588 450.929 606.352 451.077 606.204V606.204ZM882.792 599.683C883.004 599.341 882.123 599.156 880.479 599.197C878.122 599.255 878.01 599.309 879.48 599.683C881.896 600.298 882.413 600.298 882.792 599.683ZM31.8617 591.577C31.4631 591.418 30.987 591.437 30.8035 591.621C30.6201 591.804 30.9461 591.935 31.5281 591.911C32.1713 591.884 32.3021 591.753 31.8617 591.577V591.577ZM38.3832 590.85C39.4927 590.495 39.5468 590.405 38.6592 590.392C38.0519 590.383 37.0582 590.589 36.4509 590.85C35.044 591.455 36.4955 591.455 38.3832 590.85ZM45.7911 591.067C46.2714 590.883 46.6644 590.285 46.6644 589.739C46.6644 588.894 46.3171 588.79 44.318 589.04C41.7812 589.357 40.1258 590.298 42.1047 590.298C42.7548 590.298 43.4403 590.546 43.6279 590.85C44.0207 591.485 44.5597 591.54 45.7911 591.067V591.067ZM942.693 581.465C942.693 581.161 942.259 580.916 941.727 580.921C940.902 580.928 940.881 581.007 941.589 581.465C942.631 582.138 942.693 582.138 942.693 581.465V581.465ZM59.4658 559.004C59.0672 558.845 58.5911 558.864 58.4076 559.048C58.2242 559.231 58.5502 559.362 59.1322 559.338C59.7754 559.311 59.9062 559.18 59.4658 559.004V559.004ZM54.9456 557.393C54.9456 556.494 53.4101 556.392 51.393 557.159C49.1971 557.994 49.7182 558.582 52.4612 558.364C54.1279 558.231 54.9456 557.912 54.9456 557.393ZM65.2003 557.792C64.649 556.9 62.6748 556.672 62.6748 557.501C62.6748 557.966 63.2416 558.277 64.0875 558.277C64.8646 558.277 65.3653 558.059 65.2003 557.792V557.792ZM61.0185 557.173C61.6345 556.775 61.3163 556.636 59.7763 556.629C58.6377 556.624 57.706 556.869 57.706 557.173C57.706 557.876 59.9304 557.876 61.0185 557.173ZM981.339 492.579C981.339 492.276 981.091 492.027 980.787 492.027C980.483 492.027 980.235 492.276 980.235 492.579C980.235 492.883 980.483 493.132 980.787 493.132C981.091 493.132 981.339 492.883 981.339 492.579ZM985.342 482.276C984.962 482.123 984.341 482.123 983.962 482.276C983.582 482.429 983.893 482.555 984.652 482.555C985.411 482.555 985.721 482.429 985.342 482.276ZM977.06 475.627C976.377 475.496 975.259 475.496 974.576 475.627C973.893 475.759 974.452 475.867 975.818 475.867C977.185 475.867 977.744 475.759 977.06 475.627V475.627ZM951.527 471.171C951.527 470.934 949.477 470.446 946.972 470.086C944.467 469.726 941.819 469.259 941.089 469.049C940.264 468.811 939.888 468.873 940.098 469.212C940.284 469.513 942.62 470.075 945.291 470.461C947.962 470.847 950.395 471.242 950.699 471.338C951.002 471.434 951.313 471.533 951.389 471.557C951.465 471.581 951.527 471.407 951.527 471.171V471.171ZM146.315 466.079C147.301 465.656 147.26 465.601 145.934 465.566C145.117 465.545 144.295 465.776 144.107 466.079C143.699 466.739 144.781 466.739 146.315 466.079V466.079ZM947.662 462.845C947.662 462.584 945.169 462.087 942.122 461.741C935.258 460.96 934.025 460.945 934.727 461.646C935.021 461.941 937.99 462.403 941.324 462.673C944.658 462.944 947.448 463.2 947.524 463.242C947.6 463.284 947.662 463.106 947.662 462.845V462.845ZM115.342 456.234C115.498 455.981 115.264 455.774 114.822 455.774C114.38 455.774 114.018 455.981 114.018 456.234C114.018 456.487 114.252 456.694 114.538 456.694C114.824 456.694 115.185 456.487 115.342 456.234ZM189.205 455.213C188.806 455.053 188.33 455.073 188.147 455.256C187.963 455.44 188.289 455.57 188.871 455.546C189.515 455.52 189.645 455.389 189.205 455.213V455.213ZM103.529 454.486C103.529 454.182 103.094 453.937 102.563 453.942C101.737 453.949 101.717 454.028 102.425 454.486C103.467 455.159 103.529 455.159 103.529 454.486V454.486ZM105.737 453.625C105.737 453.491 105.489 453.382 105.185 453.382C104.881 453.382 104.633 453.645 104.633 453.966C104.633 454.288 104.881 454.397 105.185 454.21C105.489 454.022 105.737 453.759 105.737 453.625V453.625ZM137.206 449.781C137.965 449.569 140.325 449.188 142.451 448.935C144.576 448.681 147.185 448.211 148.247 447.89C149.31 447.569 150.18 447.327 150.18 447.353C150.18 447.564 153.961 446.383 155.839 445.585C158.687 444.374 158.867 443.444 156.253 443.444C154.903 443.444 154.32 443.194 154.32 442.616C154.32 441.767 156.791 441.431 160.893 441.723C162.68 441.85 167.778 440.899 168.945 440.22C169.817 439.714 167.031 439.142 163.396 439.083C161.032 439.043 159.017 439.432 156.529 440.408C154.592 441.167 152.495 441.792 151.869 441.796C150.963 441.803 150.895 441.908 151.534 442.312C151.975 442.591 152.534 442.697 152.776 442.547C153.018 442.397 153.216 442.51 153.216 442.797C153.216 443.291 152.008 443.64 147.791 444.364C146.781 444.537 145.82 445.029 145.656 445.456C145.412 446.091 145.2 446.104 144.491 445.529C143.765 444.939 143.677 444.966 143.949 445.694C144.187 446.331 143.955 446.539 143.086 446.472C142.433 446.421 141.074 446.605 140.067 446.881C138.796 447.228 137.992 447.18 137.444 446.725C137 446.356 136.654 446.308 136.654 446.614C136.654 447.223 132.447 448.965 130.976 448.965C130.455 448.965 130.029 449.305 130.029 449.72C130.029 450.282 130.769 450.435 132.927 450.321C134.521 450.236 136.447 449.993 137.206 449.781V449.781ZM159.917 429.759C159.518 429.626 158.93 429.78 158.609 430.101C158.199 430.511 158.415 430.583 159.333 430.343C160.08 430.147 160.33 429.897 159.917 429.759ZM826.755 427.572C826.755 427.344 826 427.105 825.079 427.04C824.12 426.973 823.544 427.15 823.732 427.454C824.117 428.077 826.757 428.18 826.755 427.572ZM161.497 424.094L162.878 424.051L161.59 423.535C160.135 422.952 157.633 423.401 157.633 424.246C157.633 424.553 158.188 424.653 158.875 424.469C159.558 424.286 160.738 424.117 161.497 424.094V424.094ZM822.339 424.213C822.339 423.96 821.967 423.753 821.511 423.753C821.056 423.753 820.683 423.96 820.683 424.213C820.683 424.466 821.056 424.673 821.511 424.673C821.967 424.673 822.339 424.466 822.339 424.213ZM824.651 424.296C824.253 424.137 823.777 424.156 823.593 424.34C823.41 424.523 823.736 424.654 824.318 424.63C824.961 424.603 825.092 424.472 824.651 424.296V424.296ZM170.986 423.192C170.588 423.033 170.112 423.052 169.928 423.236C169.745 423.419 170.071 423.55 170.653 423.526C171.296 423.499 171.427 423.368 170.986 423.192V423.192ZM109.05 422.465C109.05 422.161 108.801 421.913 108.498 421.913C108.194 421.913 107.945 422.161 107.945 422.465C107.945 422.769 108.194 423.017 108.498 423.017C108.801 423.017 109.05 422.769 109.05 422.465ZM123.404 421.017C123.404 420.399 122.367 420.941 122.07 421.715C121.779 422.473 121.86 422.507 122.563 421.923C123.025 421.54 123.404 421.132 123.404 421.017ZM128.925 421.085C128.925 420.629 128.827 420.257 128.708 420.257C128.588 420.257 128.348 420.629 128.173 421.085C127.998 421.54 128.096 421.913 128.39 421.913C128.684 421.913 128.925 421.54 128.925 421.085ZM851.703 402.213C851.305 402.053 850.829 402.073 850.645 402.256C850.462 402.44 850.788 402.57 851.37 402.546C852.013 402.52 852.144 402.389 851.703 402.213V402.213ZM343.385 391.034C343.56 390.752 343.476 390.381 343.199 390.21C342.922 390.038 342.554 390.27 342.379 390.723C342.036 391.618 342.866 391.874 343.385 391.034ZM81.3359 627.977C81.0182 627.598 80.975 627.28 81.2399 627.271C81.5049 627.262 81.257 626.984 80.6892 626.654C79.2326 625.808 80.523 625.082 83.3778 625.142C84.8688 625.174 85.2275 625.306 84.482 625.548C83.4301 625.89 82.6459 627.296 83.5159 627.28C85.1369 627.25 86.3076 626.529 86.055 625.715C85.8084 624.92 85.8742 624.927 86.5681 625.769C87.511 626.914 91.7122 627.124 92.0754 626.045C92.2598 625.497 92.4843 625.501 93.1659 626.063C94.2406 626.95 94.8748 629.105 93.962 628.768C93.6063 628.637 93.3958 628.195 93.4942 627.786C93.6193 627.266 93.3659 627.32 92.6514 627.967C91.8354 628.705 90.6512 628.869 86.7717 628.78C83.6866 628.709 81.7028 628.416 81.336 627.978L81.3359 627.977ZM73.7573 626.761C73.0219 626.306 73.3756 625.079 74.242 625.079C74.8718 625.079 75.4247 626.638 74.9081 626.957C74.6791 627.099 74.1613 627.01 73.7573 626.761ZM85.4382 622.319C84.8276 621.341 84.8914 621.205 85.9955 621.13C86.6813 621.084 87.6151 621.006 88.0705 620.956C89.5432 620.796 89.8203 621.3 88.849 622.373C87.622 623.729 86.306 623.708 85.4382 622.319V622.319ZM419.872 618.211C419.872 618.077 420.12 617.814 420.424 617.626C420.727 617.438 420.976 617.548 420.976 617.869C420.976 618.191 420.727 618.454 420.424 618.454C420.12 618.454 419.872 618.344 419.872 618.211ZM426.35 617.833C426.724 617.456 427.169 617.287 427.339 617.456C427.509 617.626 427.203 617.935 426.659 618.142C425.872 618.442 425.808 618.379 426.35 617.833ZM130.029 616.313C130.029 616.047 130.412 615.511 130.88 615.122C131.542 614.573 131.879 614.563 132.394 615.078C132.909 615.592 132.873 615.855 132.232 616.26C131.191 616.918 130.029 616.946 130.029 616.313V616.313ZM753.329 611.277C753.329 610.973 753.687 610.725 754.125 610.725C754.562 610.725 755.074 610.973 755.262 611.277C755.449 611.581 755.091 611.829 754.466 611.829C753.841 611.829 753.329 611.581 753.329 611.277ZM743.944 610.691C743.944 610.062 745.427 609.998 745.805 610.61C745.954 610.851 745.596 611.084 745.01 611.128C744.423 611.172 743.944 610.975 743.944 610.691ZM196.441 609.8C195.944 608.505 196.701 608.315 198.609 609.256C199.605 609.746 200.171 610.185 199.867 610.231C197.54 610.581 196.7 610.475 196.441 609.8V609.8ZM673.829 608.517C673.829 608.213 673.939 607.964 674.073 607.964C674.207 607.964 674.47 608.213 674.658 608.517C674.845 608.82 674.736 609.069 674.414 609.069C674.093 609.069 673.829 608.82 673.829 608.517ZM665.87 608.039C665.632 607.654 665.587 607.19 665.769 607.008C666.263 606.514 666.802 607.24 666.535 608.041C666.348 608.602 666.218 608.601 665.87 608.038V608.039ZM667.895 608.151C666.764 607.695 667.112 606.94 668.309 607.252C668.916 607.411 669.413 607.761 669.413 608.029C669.413 608.555 668.982 608.59 667.895 608.151ZM932.572 605.388C931.937 604.753 932.17 604.1 933.032 604.1C933.487 604.1 933.86 604.473 933.86 604.928C933.86 605.79 933.207 606.023 932.572 605.388ZM247.417 602.006C247.268 601.766 247.632 601.532 248.224 601.487C248.817 601.443 249.158 601.64 248.982 601.925C248.591 602.558 247.784 602.6 247.417 602.006ZM252.393 601.058C252.567 600.605 253.117 600.216 253.616 600.193C254.115 600.169 255.641 600.038 257.008 599.902C258.799 599.722 259.261 599.809 258.664 600.212C257.981 600.673 257.973 600.772 258.618 600.779C259.048 600.784 259.245 600.942 259.056 601.131C258.867 601.321 257.219 601.567 255.395 601.678C252.631 601.847 252.13 601.743 252.393 601.058V601.058ZM27.0891 599.721C26.6808 599.061 27.7193 598.406 28.4547 598.861C29.0721 599.242 28.6668 600.235 27.8936 600.235C27.6258 600.235 27.2637 600.004 27.0891 599.721ZM32.3103 585.362C32.3103 585.076 32.5559 584.69 32.856 584.505C33.169 584.311 33.2615 584.533 33.073 585.024C32.706 585.981 32.3103 586.156 32.3103 585.362V585.362ZM36.3589 585.077C36.3589 584.635 36.5699 584.404 36.8279 584.563C37.0859 584.723 37.1541 585.085 36.9794 585.367C36.533 586.09 36.3589 586.008 36.3589 585.077ZM998.454 513.006C997.998 512.712 997.874 512.471 998.178 512.471C998.481 512.471 999.102 512.712 999.558 513.006C1000.01 513.301 1000.14 513.542 999.834 513.542C999.53 513.542 998.909 513.301 998.454 513.006ZM91.383 472.035C91.383 471.796 91.8799 471.6 92.4872 471.6C93.0945 471.6 93.5913 471.833 93.5913 472.118C93.5913 472.403 93.0945 472.598 92.4872 472.553C91.8799 472.507 91.383 472.274 91.383 472.035ZM114.502 463.927L113.208 462.879L116.512 462.44C118.329 462.199 121.119 461.987 122.713 461.97C124.307 461.953 125.611 461.77 125.611 461.563C125.612 461.133 128.9 461.99 129.414 462.553C129.6 462.758 128.986 462.78 128.05 462.602C127.001 462.403 125.728 462.606 124.737 463.13C123.852 463.597 121.823 464.004 120.229 464.034C118.635 464.063 117.331 464.287 117.331 464.531C117.331 465.323 115.83 465.002 114.502 463.927V463.927ZM107.543 464.09C107.726 463.906 108.203 463.887 108.601 464.046C109.041 464.222 108.911 464.353 108.268 464.38C107.686 464.404 107.359 464.273 107.543 464.09V464.09ZM97.4995 456.464C97.4756 455.882 97.606 455.556 97.7895 455.739C97.9729 455.923 97.9925 456.399 97.8331 456.798C97.6568 457.238 97.526 457.107 97.4995 456.464H97.4995ZM112.577 451.824C112.731 451.574 112.349 450.935 111.728 450.403C110.616 449.451 110.653 449.41 114.014 447.82C118.062 445.905 118.435 445.862 118.435 447.309C118.435 447.989 118.064 448.416 117.469 448.421C116.686 448.428 116.651 448.523 117.284 448.924C117.713 449.196 118.521 449.331 119.078 449.223C119.635 449.116 120.091 449.281 120.091 449.591C120.091 449.9 119.284 450.109 118.297 450.055C117.31 450.001 116.006 449.986 115.399 450.022C114.479 450.075 114.433 450.175 115.123 450.621C115.83 451.079 115.81 451.158 114.985 451.165C114.453 451.17 114.018 451.422 114.018 451.725C114.018 452.029 113.631 452.277 113.158 452.277C112.684 452.277 112.423 452.073 112.577 451.824V451.824ZM119.637 447.369C119.081 447.026 119.103 446.795 119.74 446.267C120.633 445.526 121.345 446.173 120.73 447.168C120.511 447.522 120.029 447.611 119.637 447.369V447.369ZM100.492 424.121C100.305 423.818 100.524 423.569 100.979 423.569C101.435 423.569 101.961 423.818 102.149 424.121C102.336 424.425 102.117 424.673 101.662 424.673C101.206 424.673 100.68 424.425 100.492 424.121ZM111.8 421.649C112.595 420.691 112.914 420.592 112.914 421.302C112.914 421.573 112.506 421.951 112.008 422.142C111.25 422.433 111.216 422.352 111.8 421.649ZM892.057 412.74C892.704 412.093 896.239 411.586 896.952 412.038C897.363 412.298 897.45 412.539 897.147 412.574C894.175 412.914 891.806 412.992 892.057 412.74V412.74ZM888.706 412.059C888.247 411.768 888.59 411.607 889.672 411.607C890.595 411.607 891.35 411.814 891.35 412.067C891.35 412.655 889.636 412.65 888.706 412.058V412.059ZM874.511 411.354C872.148 410.825 866.411 410.446 855.69 410.109C852.019 409.994 848.484 409.616 847.835 409.268C847.129 408.89 844.655 408.698 841.674 408.789C838.935 408.873 836.694 408.885 836.694 408.816C836.694 408.624 839.906 407.006 840.287 407.006C840.472 407.006 840.47 407.255 840.282 407.558C840.083 407.88 840.645 408.11 841.63 408.11C842.559 408.11 843.319 407.862 843.319 407.558C843.319 407.255 843.582 407.006 843.903 407.006C844.225 407.006 844.302 407.317 844.074 407.696C843.767 408.207 843.866 408.241 844.455 407.827C844.893 407.52 845.748 407.297 846.355 407.332C846.963 407.366 848.778 407.432 850.39 407.477C852.003 407.522 853.206 407.745 853.065 407.972C852.924 408.2 854.338 408.35 856.207 408.306C858.076 408.261 860.04 408.456 860.571 408.739C861.216 409.082 861.537 409.053 861.537 408.649C861.537 408.317 861.838 408.231 862.205 408.458C862.572 408.685 864.994 408.938 867.588 409.021C870.181 409.104 872.303 409.201 872.303 409.237C872.303 409.273 873.545 409.383 875.064 409.481C876.582 409.58 877.886 409.715 877.962 409.782C878.091 409.897 878.66 410.064 879.618 410.269C880.057 410.363 877.466 411.967 876.996 411.892C876.844 411.868 875.726 411.626 874.511 411.354L874.511 411.354ZM852.152 408.594C852.152 408.328 851.67 408.111 851.08 408.111C850.491 408.111 849.874 408.328 849.71 408.594C849.546 408.86 850.028 409.077 850.782 409.077C851.535 409.077 852.152 408.86 852.152 408.594ZM881.683 406.998C881.492 406.689 881.105 406.579 880.822 406.754C880.539 406.929 880.308 406.823 880.308 406.52C880.308 405.451 881.199 405.434 881.859 406.49C882.226 407.078 882.414 407.559 882.278 407.559C882.141 407.559 881.873 407.306 881.683 406.998V406.998ZM869.865 404.844C869.283 404.262 868.691 403.901 868.55 404.042C868.41 404.183 867.085 404.381 865.606 404.483C863.045 404.66 859.869 403.522 860.674 402.717C861.319 402.072 865.131 402.223 865.964 402.926C866.817 403.646 868.371 403.67 869.066 402.974C869.652 402.388 872.468 402.516 872.858 403.147C873.388 404.005 872.6 405.902 871.714 405.902C871.279 405.902 870.447 405.426 869.865 404.844V404.844ZM875.563 405.265C875.328 404.885 875.41 404.777 875.768 404.998C876.098 405.202 876.523 405.116 876.714 404.807C877.228 403.975 877.916 404.128 877.916 405.074C877.916 406.047 876.135 406.191 875.563 405.265V405.265ZM230.105 401.152C230.289 400.969 230.765 400.949 231.163 401.109C231.604 401.285 231.473 401.416 230.83 401.442C230.248 401.466 229.922 401.336 230.105 401.152V401.152ZM341.476 385.475C341.476 385.172 341.586 384.923 341.72 384.923C341.853 384.923 342.117 385.172 342.304 385.475C342.492 385.779 342.382 386.028 342.061 386.028C341.739 386.028 341.476 385.779 341.476 385.475ZM354.35 385.531C353.458 384.877 353.672 383.936 354.653 384.192C355.279 384.356 355.68 384.131 355.738 383.584C355.789 383.106 355.872 382.342 355.922 381.887C355.973 381.431 356.47 381.028 357.026 380.99C357.583 380.952 358.225 380.87 358.453 380.807C358.68 380.744 359.612 380.492 360.523 380.248C362.549 379.703 363.649 378.89 363.245 378.236C363.078 377.967 363.433 377.746 364.033 377.746C364.633 377.746 365.25 378.057 365.404 378.436C365.598 378.916 365.823 378.946 366.14 378.534C366.95 377.482 368.641 377.153 369.532 377.875C370.248 378.454 370.315 378.44 369.924 377.791C369.565 377.195 369.683 377.096 370.415 377.376C370.945 377.58 371.714 377.746 372.125 377.746C372.535 377.746 373.02 378.218 373.203 378.794C373.417 379.467 373.89 379.748 374.528 379.582C375.937 379.213 375.792 377.848 374.371 378.109C373.248 378.316 373.247 378.308 374.325 377.796C374.932 377.508 376.27 377.254 377.298 377.233C378.326 377.212 380.686 376.951 382.543 376.653C387.355 375.881 399.453 374.528 404.966 374.146C407.547 373.967 410.776 373.722 412.143 373.602C415.021 373.348 420.704 372.944 428.153 372.464C431.038 372.278 435.013 371.989 436.986 371.822C441.73 371.42 449.197 371.39 450.236 371.769C450.692 371.935 452.12 372.262 453.411 372.495C454.701 372.728 455.757 373.102 455.757 373.325C455.757 373.549 455.143 374.346 454.392 375.096C453.281 376.207 452.511 376.451 450.249 376.407C448.597 376.374 447.547 376.579 447.658 376.911C447.76 377.219 449.756 377.491 452.094 377.516C455.766 377.555 458.211 378.269 457.377 379.059C457.003 379.412 449.684 379.761 449.685 379.425C449.686 379.261 448.009 379.204 445.959 379.299C443.909 379.394 440.806 379.246 439.064 378.97C437.322 378.694 435.779 378.586 435.635 378.73C435.491 378.874 434.307 379.044 433.005 379.108C431.703 379.172 429.951 379.417 429.112 379.651C428.205 379.905 427.302 379.842 426.885 379.496C426.5 379.176 423.782 378.857 420.846 378.787C417.212 378.7 415.622 378.469 415.864 378.065C416.059 377.738 415.797 377.813 415.282 378.231C414.637 378.754 413.644 378.879 412.099 378.632C410.624 378.396 409.973 378.467 410.202 378.838C410.593 379.47 410.52 379.482 405.518 379.617C403.544 379.67 401.37 379.908 400.687 380.147C400.004 380.386 399.445 380.378 399.445 380.13C399.445 379.882 398.824 379.679 398.065 379.679C397.305 379.679 396.684 379.865 396.684 380.093C396.684 380.321 396.297 380.507 395.824 380.507C395.35 380.507 395.093 380.297 395.251 380.041C395.634 379.421 389.963 380.331 389.551 380.956C388.798 382.099 378.466 383.258 378.466 382.199C378.466 381.876 378.203 381.611 377.881 381.611C377.559 381.611 377.439 381.842 377.614 382.125C378.113 382.933 376.843 383.431 376.022 382.749C375.47 382.291 375.211 382.319 375.004 382.859C374.826 383.324 373.917 383.537 372.456 383.455C371.206 383.385 370.184 383.56 370.184 383.844C370.184 384.757 367.348 384.157 366.797 383.128C366.504 382.58 366.024 382.281 365.731 382.462C365.438 382.643 365.324 382.997 365.479 383.248C365.635 383.499 365.398 383.843 364.954 384.014C364.51 384.184 363.998 384.082 363.815 383.787C363.613 383.459 362.906 383.572 362.003 384.075C360.305 385.021 355.023 386.026 354.35 385.532L354.35 385.531ZM346.445 383.024C346.445 382.054 346.776 381.911 347.249 382.677C347.424 382.96 347.315 383.347 347.006 383.538C346.697 383.728 346.445 383.498 346.445 383.024V383.024ZM348.525 382.07C348.846 381.749 349.435 381.595 349.833 381.728C350.246 381.866 349.996 382.116 349.25 382.311C348.331 382.552 348.116 382.48 348.525 382.07ZM538.707 380.669C538.024 380.538 537.465 380.24 537.465 380.009C537.465 379.333 539.865 379.7 540.102 380.412C540.221 380.768 540.235 381.025 540.133 380.984C540.032 380.942 539.39 380.801 538.707 380.669H538.707ZM527.252 379.403C528.769 378.75 529.641 378.75 528.632 379.403C528.176 379.697 527.431 379.924 526.976 379.907C526.43 379.887 526.524 379.715 527.252 379.403V379.403ZM530.596 379.454C530.426 379.179 530.784 379.083 531.392 379.242C532.681 379.579 532.844 379.955 531.701 379.955C531.263 379.955 530.766 379.729 530.596 379.454V379.454ZM459.523 378.205C458.654 377.331 459.049 377.271 465.872 377.229C469.874 377.205 473.701 377.079 474.378 376.948C475.055 376.817 475.738 376.918 475.895 377.173C476.053 377.428 476.942 377.584 477.871 377.519C480.383 377.346 480.395 378.149 477.884 378.389C476.696 378.502 475.843 378.404 475.987 378.17C476.44 377.437 475.59 377.709 474.725 378.574C473.786 379.514 471.454 379.683 470.938 378.849C470.711 378.481 470.233 378.49 469.514 378.874C468.292 379.528 467.141 379.084 467.703 378.175C467.949 377.777 467.813 377.739 467.298 378.062C466.872 378.33 465.156 378.681 463.486 378.842C461.096 379.073 460.252 378.938 459.523 378.204V378.205ZM503.788 378.85C503.788 378.547 503.898 378.298 504.032 378.298C504.166 378.298 504.429 378.547 504.616 378.85C504.804 379.154 504.694 379.402 504.373 379.402C504.051 379.402 503.788 379.154 503.788 378.85ZM481.705 377.746C481.207 377.425 481.139 377.208 481.534 377.203C481.896 377.198 482.345 377.443 482.533 377.746C482.957 378.432 482.766 378.432 481.705 377.746ZM697.339 377.671C697.625 377.209 695.522 376.665 695.096 377.091C694.502 377.685 692.048 377.797 692.048 377.23C692.048 376.88 690.477 376.795 687.77 377C684.45 377.252 683.058 377.122 681.559 376.423C680.496 375.927 680.045 375.636 680.557 375.775C681.069 375.914 681.565 375.812 681.661 375.548C681.756 375.284 682.207 374.988 682.663 374.889C683.118 374.791 683.673 374.461 683.896 374.158C684.12 373.854 684.306 374.15 684.311 374.815C684.319 375.958 684.402 375.981 685.837 375.231C687.199 374.52 687.434 374.537 688.12 375.402C688.847 376.319 688.868 376.319 688.551 375.402C688.294 374.656 688.523 374.436 689.554 374.436C690.288 374.436 691.142 374.871 691.452 375.402C691.764 375.938 692.022 376.061 692.031 375.678C692.049 374.955 693.704 374.682 693.704 375.402C693.704 375.63 695.583 375.802 697.878 375.784C700.174 375.767 702.176 375.953 702.327 376.198C702.479 376.444 703.135 376.644 703.785 376.644C704.731 376.644 704.829 376.782 704.277 377.334C703.586 378.025 696.921 378.351 697.339 377.673V377.671ZM706.402 377.654C706.402 377.401 706.589 377.177 706.816 377.157C707.044 377.136 708.025 377.016 708.997 376.889C711.181 376.603 711.959 377.55 709.858 377.937C707.78 378.319 706.402 378.207 706.402 377.654V377.654ZM666.653 375.814C666.653 375.51 665.721 375.262 664.583 375.262C663.444 375.262 662.329 375.51 662.106 375.814C661.836 376.182 661.697 376.182 661.691 375.814C661.679 375.122 658.371 374.959 658.371 375.65C658.371 375.928 658.145 376.016 657.869 375.845C657.344 375.52 652.487 374.998 647.33 374.713C645.66 374.62 644.293 374.489 644.293 374.421C644.293 374.051 637.029 374.045 636.564 374.415C635.735 375.074 630.215 375.535 630.215 374.944C630.215 374.663 629.842 374.434 629.387 374.434C628.931 374.434 628.559 374.674 628.559 374.967C628.559 375.299 624.67 375.401 618.207 375.238C612.514 375.094 607.256 374.979 606.524 374.983C605.791 374.988 604.363 374.759 603.349 374.48C602.241 374.174 601.507 374.172 601.507 374.475C601.507 374.976 599.576 374.895 599.052 374.371C598.901 374.22 596.389 374.185 593.469 374.293C589.95 374.423 587.898 374.271 587.381 373.842C586.773 373.337 586.599 373.362 586.592 373.952C586.586 374.431 586.434 374.497 586.178 374.133C585.935 373.787 582.794 373.529 578.319 373.487C574.22 373.45 561.798 373.277 550.715 373.103C539.632 372.929 525.409 372.754 519.109 372.714C512.808 372.674 507.652 372.485 507.652 372.295C507.651 372.105 506.284 371.949 504.615 371.949C502.946 371.949 501.58 372.136 501.58 372.363C501.58 372.591 501.317 372.777 500.995 372.777C500.674 372.777 500.564 372.529 500.752 372.225C500.939 371.922 500.706 371.673 500.232 371.673C499.759 371.673 499.372 371.425 499.372 371.121C499.372 370.818 499.108 370.569 498.787 370.569C498.465 370.569 498.356 370.818 498.543 371.121C498.745 371.447 498.137 371.67 497.058 371.665C495.675 371.658 495.432 371.526 496.059 371.121C496.671 370.726 496.696 370.584 496.158 370.578C495.596 370.571 495.618 370.379 496.256 369.741C496.712 369.286 497.599 368.913 498.228 368.913C498.857 368.913 499.372 368.648 499.372 368.324C499.372 367.974 499.849 367.886 500.545 368.107C501.334 368.357 501.595 368.279 501.34 367.868C501.133 367.532 501.11 367.257 501.289 367.257C501.469 367.257 501.804 367.768 502.035 368.392L502.456 369.528L503.911 368.382C504.909 367.598 505.488 367.433 505.751 367.858C506.023 368.298 506.269 368.261 506.597 367.73C506.974 367.121 510.762 366.985 526.818 367.001C537.684 367.013 551.046 367.181 556.512 367.377C561.978 367.572 571.046 367.875 576.663 368.051C596.947 368.687 602.172 368.918 602.627 369.199C603.643 369.827 608.091 370.383 608.765 369.967C609.18 369.711 609.664 369.802 609.911 370.184C610.231 370.678 610.478 370.635 610.884 370.017C611.183 369.562 611.431 369.437 611.436 369.741C611.442 370.09 614.857 370.269 620.692 370.226C629.915 370.16 645.673 371.051 645.674 371.639C645.674 371.81 647.6 371.921 649.953 371.887C653.985 371.829 663.273 372.584 664.92 373.105C665.528 373.297 665.539 373.503 664.98 374.177C664.417 374.856 664.431 374.966 665.056 374.769C665.479 374.635 666.518 374.374 667.365 374.188C668.314 373.979 668.783 373.591 668.587 373.175C668.411 372.805 668.557 372.89 668.911 373.366C669.431 374.064 670.141 374.15 672.62 373.814C674.364 373.577 676.103 373.621 676.654 373.916C677.186 374.201 678.321 374.468 679.176 374.509C680.608 374.578 680.626 374.604 679.399 374.835C678.368 375.029 678.244 375.198 678.847 375.58C679.7 376.12 678.983 376.188 671.207 376.3C668.495 376.339 666.653 376.143 666.653 375.814L666.653 375.814ZM506.197 370.848C506.023 370.395 505.658 370.161 505.387 370.329C504.607 370.811 504.81 371.673 505.703 371.673C506.196 371.673 506.39 371.35 506.197 370.848V370.848ZM473.998 372.736C474.566 371.674 474.533 371.553 473.751 371.853C472.972 372.152 472.937 372.031 473.498 370.982L474.15 369.764L474.699 370.995C475.33 372.407 476.47 372.612 476.936 371.397C477.111 370.942 477.054 370.569 476.811 370.569C476.567 370.569 476.368 370.194 476.368 369.734C476.368 369.055 476.867 368.966 479.037 369.253C480.859 369.495 481.705 369.41 481.705 368.984C481.705 368.638 482.578 368.361 483.67 368.361C484.958 368.361 485.505 368.57 485.259 368.968C484.993 369.4 485.219 369.396 486.043 368.955C487.005 368.44 487.146 368.478 486.878 369.176C486.701 369.639 486.334 370.017 486.063 370.017C485.791 370.017 485.569 370.266 485.569 370.569C485.569 371.72 486.567 371.055 487.226 369.465C487.994 367.611 488.014 367.601 489.398 368.341C490.096 368.715 490.311 369.298 490.121 370.297C489.971 371.079 490.066 371.647 490.331 371.558C490.597 371.47 490.938 371.64 491.09 371.937C491.254 372.256 489.941 372.515 487.878 372.57C484.689 372.656 484.338 372.55 483.787 371.34C483.193 370.036 481.153 369.464 481.153 370.602C481.153 370.923 481.398 371.035 481.699 370.849C482.007 370.659 482.107 370.87 481.929 371.334C481.745 371.814 481.251 372.017 480.741 371.821C480.173 371.603 480.004 371.706 480.257 372.116C480.701 372.834 478.866 373.365 476.736 373.134C475.977 373.051 474.902 373.205 474.348 373.475C473.445 373.914 473.408 373.838 473.998 372.736V372.736ZM489.101 370.661C489.258 370.408 489.035 370.201 488.606 370.201C488.177 370.201 487.954 370.408 488.111 370.661C488.267 370.914 488.49 371.121 488.606 371.121C488.722 371.121 488.945 370.914 489.101 370.661ZM466.561 372.84C466.395 372.571 466.754 372.222 467.359 372.063C468.092 371.872 468.347 371.482 468.122 370.896C467.937 370.413 468.018 370.017 468.304 370.017C469.061 370.017 468.939 371.821 468.126 372.633C467.302 373.457 466.97 373.501 466.561 372.84ZM469.947 371.305C470.102 370.9 470.3 370.569 470.387 370.569C470.474 370.569 470.672 370.9 470.828 371.305C470.983 371.71 470.785 372.041 470.387 372.041C469.99 372.041 469.792 371.71 469.947 371.305ZM472.076 369.759C472.665 369.313 473.692 368.94 474.357 368.931C475.674 368.911 476.513 369.749 475.688 370.258C475.406 370.433 475.079 370.291 474.963 369.941C474.804 369.464 474.458 369.464 473.572 369.936C471.875 370.845 470.807 370.717 472.076 369.757V369.759ZM464.74 369.684C464.923 369.5 465.4 369.48 465.798 369.64C466.238 369.816 466.108 369.947 465.465 369.974C464.883 369.997 464.556 369.867 464.74 369.684V369.684ZM493.851 369.465C493.143 369.008 493.163 368.929 493.989 368.921C494.52 368.916 494.955 369.161 494.955 369.465C494.955 370.138 494.893 370.138 493.851 369.465ZM490.886 368.624C490.623 367.938 490.764 367.891 491.655 368.367C492.935 369.052 493.056 369.465 491.978 369.465C491.555 369.465 491.063 369.087 490.886 368.624V368.624Z" fill="black"/>
</svg>
