<svg xmlns="http://www.w3.org/2000/svg" xmlns:xlink="http://www.w3.org/1999/xlink" x="0px" y="0px"
	 viewBox="0 0 864 864" enable-background="new 0 0 864 864" xml:space="preserve">
<path d="M773.156,479.8966c-3.1532-11.3543-12.1956-22.7788-23.4582-26.9745
	c-4.3301-10.8551-12.5715-20.7983-24.1199-24.3661c19.9131-31.599-10.4849-73.0235-46.6155-62.5507
	c-10.2755,3.5396-19.5874,9.4466-24.9554,19.1911c-9.0632,12.7106-18.1259,25.4217-27.1887,38.1323l-10.4133-6.6431
	c17.3752-57.4839,32.1127-116.0563,50.8522-172.9927c25.6462-49.7507,51.2908-99.5023,76.9354-149.2538
	c5.1308-9.9539,7.2436-21.1614,4.2098-32.1785c-6.5743-25.8373-38.5218-38.8187-61.345-24.9556
	c-6.275,3.7113-11.2689,8.7052-14.9813,14.9802c-9.6254,14.0276-19.2509,28.0549-28.8763,42.0825
	c-18.7778-8.1185-40.6664,0.6394-51.1909,17.6785c-20.8807,32.1997-41.7611,64.3994-62.6417,96.5991
	c6.4737-14.8218,12.9474-29.6436,19.4211-44.4653c6.8322-9.9809,4.9567-21.983,5.7264-33.1674
	c0.5657-33.4378-39.9662-53.7953-66.6014-33.7002c2.9634-8.8202,3.3378-18.6839-0.2417-27.7791
	c8.1358-29.453-22.4383-59.0267-51.6778-49.8233c-26.9698,8.8565-38.0252,43.2534-54.8914,64.3505
	c3.5649-27.4145-26.3263-51.6051-52.5745-43.2288c-10.7582,3.481-18.5676,9.8154-24.9565,19.1903
	c-17.5431,25.7438-35.0865,51.487-52.6297,77.2307c-16.8923-4.2778-36.2302,4.5058-44.7496,19.6569
	c-28.8912,54.3301-57.7827,108.6603-86.6741,162.9899c-10.3887,25.0008-35.7533,50.1888-28.9264,78.6518
	c5.4452,21.2516,29.56,35.4988,50.8095,29.3293c-7.8039,17.7021-15.608,35.4047-23.4119,53.1067
	c-10.7885,17.8558-5.6699,42.3599,11.2903,54.8012c-8.8956,30.5606-27.8272,67.6336,7.597,88.8481
	c-7.9301,22.5681-15.5579,45.2422-22.8616,68.0215c-3.0892,9.6353-1.2841,23.6571,4.2098,32.1782
	c9.5102,15.4241,29.4221,24.4174,47.1595,19.1911c9.7132-3.1432,20.5858-9.4753,24.9569-19.1911
	c8.5286-18.9558,17.0571-37.9121,25.5856-56.8679c2.9203-1.7432,5.5988-3.7958,8.0493-6.1668
	c-2.6194,27.2416-11.6728,54.9329-8.1907,82.2075c-6.0575,20.0763-24.4623,45.3803-20.9577,65.7849
	c1.4694,24.1418,29.397,41.5218,52.1175,34.7177c10.6276-3.4392,18.8335-9.7352,24.957-19.1911
	c14.8771-22.9733,29.7543-45.9465,44.6313-68.9203c1.9819,24.7231,28.815,43.6068,52.7555,36.1392
	c10.0422-3.2494,19.9704-9.5176,24.9564-19.1906c24.3269-47.1946,48.6535-94.3896,72.9804-141.5841
	c-5.0082,20.8181-18.1846,44.4784-5.2678,64.9395c9.5095,15.4235,29.4224,24.4178,47.1595,19.1911
	c10.2774-3.5396,19.5885-9.4471,24.9565-19.1917c17.0771-23.9499,34.1537-47.9003,51.2304-71.8508
	c7.3327,4.763,16.233,7.4844,24.9885,6.3132c-17.7158,33.9135,8.9198,72.8745,47.1108,63.7526
	c10.1068-3.2714,19.8453-9.5333,24.9556-19.1917c28.8623-54.5508,57.7248-109.1016,86.587-163.6523
	C774.1489,502.2414,776.1581,490.7987,773.156,479.8966z"/>
</svg>
