<svg version="1.0" xmlns="http://www.w3.org/2000/svg" width="1272.000000pt" height="1280.000000pt" viewBox="0 0 1272.000000 1280.000000" preserveAspectRatio="xMidYMid meet">
<g transform="translate(0.000000,1280.000000) scale(0.100000,-0.100000)" fill="#000000" stroke="none">
<path d="M10519 12780 c-48 -25 -71 -55 -270 -352 -162 -241 -168 -252 -174 -313 -5 -48 -3 -69 9 -93 21 -41 44 -52 108 -52 91 1 179 52 321 189 210 202 267 309 233 440 -28 111 -104 202 -167 201 -13 -1 -40 -10 -60 -20z"/>
<path d="M9245 12011 c-203 -125 -617 -873 -1080 -1955 -54 -126 -108 -240 -120 -254 l-22 -25 -15 39 c-17 41 -26 86 -53 257 -21 134 -55 197 -109 197 -52 0 -139 -139 -196 -315 -34 -104 -73 -185 -91 -185 -6 0 -20 21 -32 48 -18 39 -22 66 -22 152 0 62 6 124 14 151 27 88 0 121 -118 143 -90 17 -156 57 -147 89 19 70 38 439 33 652 -7 325 -38 463 -114 508 -28 16 -35 17 -66 4 -129 -54 -238 -482 -276 -1083 -8 -134 -18 -161 -73 -194 -30 -18 -32 -18 -57 -1 -43 30 -109 61 -131 61 -12 0 -32 -11 -45 -25 -21 -20 -25 -34 -25 -87 0 -35 7 -103 15 -153 8 -49 15 -117 15 -150 0 -53 -3 -62 -27 -81 l-28 -22 -5 -170 c-3 -94 -9 -174 -14 -179 -14 -14 -69 63 -135 188 -34 66 -74 127 -87 135 -22 15 -27 15 -71 -7 -35 -17 -55 -36 -72 -67 l-23 -44 -35 34 c-59 57 -101 130 -129 223 -59 200 -88 217 -209 126 -58 -44 -107 -71 -129 -71 -23 0 -33 27 -49 126 -14 84 -23 104 -140 324 -152 286 -188 351 -234 415 -119 166 -338 399 -447 476 -150 106 -256 96 -297 -28 -23 -71 7 -247 66 -388 80 -193 239 -423 369 -536 53 -46 96 -107 96 -136 0 -28 -37 -47 -114 -58 -119 -18 -140 -100 -65 -251 23 -47 80 -140 127 -207 164 -234 182 -261 182 -266 0 -3 -18 -16 -41 -29 -52 -30 -82 -77 -74 -117 3 -19 28 -53 65 -90 70 -70 84 -111 51 -144 -24 -24 -50 -26 -104 -7 -64 23 -106 58 -147 123 -74 116 -139 173 -200 175 -37 1 -61 -20 -85 -72 -12 -27 -25 -40 -37 -40 -12 0 -79 60 -166 148 -205 206 -320 289 -416 299 -38 5 -45 2 -64 -22 -47 -59 -16 -175 109 -413 63 -122 71 -142 66 -179 -5 -47 -30 -93 -51 -93 -7 0 -83 84 -169 188 -181 218 -221 258 -301 306 -77 46 -144 71 -289 107 -66 16 -137 39 -158 50 -22 11 -124 104 -227 207 -437 439 -774 685 -956 699 -59 5 -65 4 -95 -23 -44 -39 -50 -88 -21 -174 79 -237 418 -625 860 -985 47 -38 189 -171 315 -295 127 -125 278 -264 337 -309 73 -55 108 -89 108 -102 0 -11 -20 -41 -44 -67 -25 -26 -48 -60 -51 -75 -11 -42 43 -88 137 -117 90 -28 128 -63 128 -118 0 -21 -7 -47 -15 -58 -47 -62 5 -114 235 -237 191 -102 277 -160 244 -165 -40 -6 -222 27 -310 56 -49 17 -239 82 -422 146 -655 229 -1165 381 -1314 393 -87 7 -108 -2 -108 -46 0 -46 79 -108 301 -237 156 -89 770 -407 1007 -520 89 -42 161 -81 160 -86 -2 -5 -33 -33 -68 -61 -37 -30 -73 -69 -84 -91 l-19 -40 27 -77 c15 -43 26 -92 24 -110 -7 -80 -131 -87 -408 -24 -290 67 -325 74 -465 94 -517 73 -949 40 -1221 -94 -188 -92 -271 -217 -224 -340 25 -66 111 -133 219 -170 152 -53 201 -55 916 -44 l270 4 178 -43 c208 -50 291 -62 407 -60 132 3 184 -38 184 -147 0 -71 -25 -112 -82 -136 -159 -66 -275 -157 -320 -251 -28 -61 -28 -90 1 -124 18 -20 35 -28 73 -31 51 -5 71 1 303 82 86 30 126 38 228 45 68 5 148 6 178 3 53 -6 55 -7 39 -24 -30 -33 -177 -97 -362 -158 -292 -97 -408 -162 -400 -227 6 -56 87 -69 220 -35 42 11 100 32 130 48 53 28 54 28 222 25 187 -3 219 -10 166 -37 -60 -31 -156 -64 -367 -124 -526 -151 -795 -267 -906 -390 -48 -53 -55 -85 -31 -130 84 -157 606 -115 982 79 54 27 169 99 257 161 203 140 312 208 450 279 117 60 211 94 244 88 21 -3 21 -3 -3 -53 -27 -57 -107 -165 -210 -280 -104 -116 -116 -134 -116 -171 0 -79 63 -99 295 -91 l170 6 -35 -18 c-20 -11 -101 -38 -180 -61 -276 -79 -384 -125 -445 -190 -16 -18 -83 -68 -148 -112 -65 -43 -127 -88 -138 -99 -25 -25 -25 -65 0 -79 23 -12 89 -12 149 -1 40 8 42 7 36 -13 -10 -29 -48 -88 -70 -107 -11 -9 -45 -31 -77 -48 -245 -138 -537 -459 -563 -618 -6 -36 -3 -45 21 -68 22 -23 32 -26 63 -21 55 8 138 54 271 151 120 86 181 144 181 169 0 21 59 96 75 96 22 0 19 -9 -21 -76 -65 -106 -55 -174 26 -174 57 0 128 59 340 280 181 189 185 192 191 163 14 -72 48 -72 119 0 l51 52 -6 -35 c-4 -19 -58 -142 -121 -274 -63 -131 -126 -277 -139 -324 -74 -253 -17 -471 109 -418 46 19 98 91 161 221 58 122 115 202 201 285 l56 55 -5 -46 c-4 -25 -27 -101 -52 -168 -25 -68 -50 -155 -55 -195 -6 -39 -22 -156 -37 -261 -36 -252 -39 -501 -7 -555 11 -19 32 -41 47 -48 132 -64 386 386 542 958 39 147 51 180 64 180 14 0 49 -91 62 -164 15 -87 45 -125 107 -133 58 -8 125 19 151 60 10 18 24 59 31 92 6 33 31 139 55 235 24 96 46 195 50 220 11 71 27 130 35 130 21 0 70 -175 97 -350 26 -168 25 -609 -1 -770 -18 -113 -18 -116 1 -210 l20 -95 -23 -108 c-95 -439 -58 -742 96 -788 170 -51 330 257 330 634 l0 98 30 -34 c65 -75 127 -69 168 15 23 46 40 128 61 302 18 150 68 220 117 162 27 -31 39 -97 30 -174 -18 -162 -18 -198 -2 -261 20 -79 20 -119 -1 -255 -14 -94 -15 -128 -5 -231 23 -241 93 -365 207 -365 81 0 185 106 234 240 61 167 51 341 -28 499 -39 76 -39 91 -3 91 27 -1 74 -22 165 -74 33 -19 55 -26 72 -22 46 12 49 35 20 193 -34 186 -34 349 2 384 28 29 57 21 116 -31 77 -68 97 -122 107 -296 6 -82 19 -192 30 -244 19 -92 29 -200 50 -555 12 -197 22 -245 86 -415 136 -364 292 -576 447 -611 73 -16 126 0 187 57 101 94 152 243 153 444 0 210 -47 356 -172 529 -111 153 -212 379 -262 586 -10 44 -19 95 -19 113 l0 32 78 1 c42 0 93 5 112 12 50 17 50 51 2 173 -84 211 -150 459 -128 481 25 25 171 -114 342 -327 102 -126 152 -170 226 -196 116 -41 194 9 190 120 -3 66 -32 138 -128 317 -132 247 -221 444 -212 471 2 6 36 -25 76 -68 149 -165 330 -407 448 -599 87 -143 118 -180 169 -205 46 -22 47 -22 152 21 40 16 51 8 104 -82 45 -76 206 -258 295 -335 121 -104 216 -152 276 -140 149 30 94 283 -114 524 -30 34 -38 51 -38 83 0 44 2 45 80 24 74 -20 123 -19 151 3 51 42 13 127 -124 277 -43 47 -76 85 -73 85 3 0 50 -17 103 -39 138 -55 283 -100 345 -107 45 -5 57 -3 81 16 69 54 17 123 -338 445 -284 258 -545 529 -545 567 0 15 49 2 241 -63 97 -32 188 -59 202 -59 23 0 57 31 57 52 0 4 -25 36 -55 72 -50 58 -75 101 -75 127 0 20 60 7 136 -30 89 -43 186 -104 375 -238 192 -136 310 -192 553 -263 222 -64 395 -86 488 -60 20 6 48 24 62 41 61 72 17 187 -124 329 -209 211 -531 404 -917 551 -206 78 -313 152 -313 217 0 39 33 46 175 36 71 -4 180 -8 241 -9 127 0 154 12 154 68 0 65 -151 157 -395 242 -214 74 -284 118 -240 151 36 27 90 36 265 43 192 7 241 20 269 72 13 23 12 30 -5 64 -27 56 -111 109 -305 192 -194 82 -292 140 -266 155 31 17 180 21 322 9 172 -15 195 -20 425 -88 568 -167 1165 -285 1650 -328 426 -38 650 1 650 114 0 175 -670 467 -2045 891 -512 158 -696 222 -681 237 3 3 75 0 160 -7 178 -15 258 -5 314 36 54 42 40 114 -31 150 -58 31 -92 36 -272 44 -184 8 -267 24 -300 57 -15 15 -15 17 0 32 13 13 45 16 198 18 100 1 204 7 232 13 156 35 187 129 76 233 -62 58 -109 82 -192 96 -126 21 -248 6 -435 -54 -132 -42 -171 -45 -180 -11 -11 45 0 88 27 109 39 29 95 36 279 37 263 1 428 26 675 101 203 63 267 124 200 191 -27 27 -64 43 -196 82 -214 64 -159 103 186 131 490 40 823 108 1047 214 140 66 216 153 205 234 -4 33 -15 50 -50 83 -83 75 -241 105 -445 85 -125 -12 -342 -61 -397 -88 -16 -9 -103 -65 -193 -125 -191 -129 -288 -178 -349 -178 -51 0 -55 6 -77 115 -28 138 -70 195 -140 195 -14 0 -101 -34 -193 -76 -170 -77 -333 -138 -343 -127 -3 3 61 69 142 147 81 77 154 156 163 174 9 19 15 51 13 74 -4 58 -40 83 -116 82 -49 0 -75 -9 -182 -62 -68 -34 -133 -62 -143 -62 -30 0 31 76 168 208 148 144 222 200 347 263 233 117 532 304 699 437 344 274 464 532 286 612 -161 74 -486 -75 -817 -374 -62 -56 -137 -106 -158 -106 -23 0 -82 71 -93 112 -5 21 -20 50 -33 65 -23 26 -24 27 -90 17 -42 -6 -66 -7 -66 -1 0 6 40 52 89 102 67 69 100 113 129 172 51 101 117 179 234 278 51 43 158 143 238 220 121 118 173 160 307 248 199 132 242 168 338 287 181 225 270 403 251 502 -3 19 -20 47 -36 63 -82 79 -287 16 -541 -165 -139 -99 -254 -212 -392 -385 -155 -193 -240 -289 -300 -337 -27 -21 -52 -38 -55 -38 -4 0 -7 38 -7 85 0 79 -2 86 -28 112 -23 23 -36 28 -75 27 -125 -2 -307 -169 -507 -464 -122 -179 -155 -207 -189 -158 -23 32 -19 57 15 108 27 39 30 51 24 90 -12 84 -54 115 -117 89 -74 -30 -210 -199 -431 -535 -88 -133 -145 -208 -187 -248 -65 -59 -125 -96 -160 -96 -17 0 -20 6 -20 41 0 52 46 189 103 311 25 51 90 190 147 308 488 1027 714 1728 580 1800 -27 15 -51 12 -85 -9z"/>
<path d="M2640 11358 c-44 -30 -73 -89 -78 -159 -8 -106 67 -224 216 -341 37 -29 107 -86 157 -127 110 -91 190 -131 263 -131 43 0 58 5 77 25 39 38 32 71 -51 238 -119 237 -191 340 -296 423 -117 92 -221 117 -288 72z"/>
<path d="M138 10111 c-79 -26 -128 -96 -136 -198 -9 -113 54 -201 193 -271 188 -93 672 -233 892 -257 53 -6 70 -4 107 15 59 28 67 53 29 92 -50 52 -331 290 -448 378 -211 159 -384 239 -530 246 -44 2 -92 0 -107 -5z"/>
<path d="M2352 3085 c-116 -62 -256 -160 -322 -225 -62 -60 -133 -188 -145 -259 -14 -83 39 -118 122 -81 142 63 279 212 422 463 91 158 73 183 -77 102z"/>
<path d="M4240 1953 c-103 -51 -301 -277 -380 -434 -57 -111 -47 -215 29 -315 92 -122 226 -126 274 -7 8 21 25 83 36 138 34 155 88 337 143 483 27 73 47 140 44 148 -9 24 -85 17 -146 -13z"/>
<path d="M3142 883 c-11 -10 -48 -63 -82 -118 -80 -130 -154 -231 -258 -358 -97 -116 -112 -146 -112 -217 0 -67 29 -123 82 -157 35 -24 52 -28 112 -28 59 0 79 5 118 27 95 57 142 145 227 428 78 261 82 350 19 418 -26 27 -77 29 -106 5z"/>
</g>
</svg>