<svg id="Layer_1" data-name="Layer 1" xmlns="http://www.w3.org/2000/svg" xmlns:xlink="http://www.w3.org/1999/xlink" viewBox="0 0 150 120"><defs><style>.cls-1{fill:#fff;}.cls-2,.cls-3,.cls-5{stroke:#7D818E;opacity:.7;}.cls-2,.cls-3{stroke-linecap:round;stroke-linejoin:round;}.cls-2{fill:url(#linear-gradient);}.cls-3{fill:url(#linear-gradient-2);}.cls-4{fill:#7D818E;opacity:.7;}.cls-5{fill:none;stroke-miterlimit:10;}.cls-6{fill:#72a5d8;}.cls-7{fill:#7D818E;opacity:.7;}</style><linearGradient id="linear-gradient" x1="53.5" y1="57.5" x2="53.5" y2="33.5" gradientUnits="userSpaceOnUse"><stop offset="0.06" stop-color="#f0f1f2"/><stop offset="0.9" stop-color="#fff"/></linearGradient><linearGradient id="linear-gradient-2" y1="81.5" y2="57.5" xlink:href="#linear-gradient"/></defs><path class="cls-1" d="M149.3,9.5,149,119H96.5V33.5h-86v-23a1,1,0,0,1,1-1Z"/><rect class="cls-2" x="10.5" y="33.5" width="86" height="24"/><path class="cls-3" d="M10.5,57.5h86a0,0,0,0,1,0,0v24a0,0,0,0,1,0,0h-85a1,1,0,0,1-1-1v-23A0,0,0,0,1,10.5,57.5Z"/><path class="cls-4" d="M107.5,21H149a0,0,0,0,1,0,0v3a0,0,0,0,1,0,0H107.5a1.5,1.5,0,0,1-1.5-1.5v0A1.5,1.5,0,0,1,107.5,21Z"/><path class="cls-4" d="M107.5,31H149a0,0,0,0,1,0,0v3a0,0,0,0,1,0,0H107.5a1.5,1.5,0,0,1-1.5-1.5v0A1.5,1.5,0,0,1,107.5,31Z"/><path class="cls-4" d="M107.5,41H149a0,0,0,0,1,0,0v3a0,0,0,0,1,0,0H107.5a1.5,1.5,0,0,1-1.5-1.5v0A1.5,1.5,0,0,1,107.5,41Z"/><path class="cls-4" d="M107.5,51H149a0,0,0,0,1,0,0v3a0,0,0,0,1,0,0H107.5a1.5,1.5,0,0,1-1.5-1.5v0A1.5,1.5,0,0,1,107.5,51Z"/><path class="cls-4" d="M107.5,61H149a0,0,0,0,1,0,0v3a0,0,0,0,1,0,0H107.5a1.5,1.5,0,0,1-1.5-1.5v0A1.5,1.5,0,0,1,107.5,61Z"/><path class="cls-4" d="M107.5,71H149a0,0,0,0,1,0,0v3a0,0,0,0,1,0,0H107.5a1.5,1.5,0,0,1-1.5-1.5v0A1.5,1.5,0,0,1,107.5,71Z"/><path class="cls-4" d="M107.5,81H149a0,0,0,0,1,0,0v3a0,0,0,0,1,0,0H107.5a1.5,1.5,0,0,1-1.5-1.5v0A1.5,1.5,0,0,1,107.5,81Z"/><path class="cls-4" d="M107.5,91H149a0,0,0,0,1,0,0v3a0,0,0,0,1,0,0H107.5a1.5,1.5,0,0,1-1.5-1.5v0A1.5,1.5,0,0,1,107.5,91Z"/><rect class="cls-4" x="106" y="101" width="24" height="3" rx="1.5"/><path class="cls-5" d="M96.5,119V33.5h-86v-23a1,1,0,0,1,1-1H149.3"/><rect class="cls-6" x="21" y="20" width="55" height="4" rx="2"/><rect class="cls-7" x="21" y="44" width="60" height="4" rx="2"/><rect class="cls-7" x="21" y="68" width="35" height="4" rx="2"/></svg>