<?xml version="1.0" encoding="utf-8"?>
<!-- Generator: Adobe Illustrator 25.0.1, SVG Export Plug-In . SVG Version: 6.00 Build 0)  -->
<svg version="1.1" id="Layer_1" xmlns:svgjs="http://svgjs.com/svgjs"
	 xmlns="http://www.w3.org/2000/svg" xmlns:xlink="http://www.w3.org/1999/xlink" x="0px" y="0px" viewBox="0 0 24 24"
	 style="enable-background:new 0 0 24 24;" xml:space="preserve">
<style type="text/css">
	.st0{fill:#304050;}
</style>
<g>
	<g>
		<path class="st0" d="M2.6,5.6H6c0.3,1.1,1.3,1.9,2.4,1.9s2.2-0.8,2.4-1.9h10.5C21.7,5.6,22,5.4,22,5s-0.3-0.6-0.6-0.6H10.9
			c-0.3-1.1-1.3-1.9-2.4-1.9S6.3,3.3,6,4.4H2.6C2.3,4.4,2,4.6,2,5C2,5.4,2.3,5.6,2.6,5.6z M8.4,3.8c0.7,0,1.2,0.6,1.2,1.2
			S9.1,6.2,8.4,6.2S7.2,5.7,7.2,5S7.7,3.8,8.4,3.8z"/>
		<path class="st0" d="M21.4,11.4h-4.3c-0.3-1.1-1.3-1.9-2.4-1.9s-2.2,0.8-2.4,1.9H2.6C2.3,11.4,2,11.6,2,12s0.3,0.6,0.6,0.6h9.6
			c0.3,1.1,1.3,1.9,2.4,1.9s2.2-0.8,2.4-1.9h4.3c0.4,0,0.6-0.3,0.6-0.6S21.7,11.4,21.4,11.4z M14.6,13.2c-0.7,0-1.2-0.6-1.2-1.2
			s0.6-1.2,1.2-1.2c0.7,0,1.2,0.6,1.2,1.2S15.3,13.2,14.6,13.2z"/>
		<path class="st0" d="M21.4,18.4H10.9c-0.3-1.1-1.3-1.9-2.4-1.9S6.3,17.3,6,18.4H2.6C2.3,18.4,2,18.6,2,19s0.3,0.6,0.6,0.6H6
			c0.3,1.1,1.3,1.9,2.4,1.9s2.2-0.8,2.4-1.9h10.5c0.4,0,0.6-0.3,0.6-0.6S21.7,18.4,21.4,18.4z M8.4,20.2c-0.7,0-1.2-0.6-1.2-1.2
			c0-0.7,0.6-1.2,1.2-1.2s1.2,0.6,1.2,1.2C9.7,19.7,9.1,20.2,8.4,20.2z"/>
	</g>
</g>
</svg>
