<?xml version="1.0" encoding="utf-8"?>
<!-- Generator: Adobe Illustrator 25.0.1, SVG Export Plug-In . SVG Version: 6.00 Build 0)  -->
<svg version="1.1" id="Layer_1" xmlns="http://www.w3.org/2000/svg" xmlns:xlink="http://www.w3.org/1999/xlink" x="0px" y="0px"
	 viewBox="0 0 150 120" style="enable-background:new 0 0 150 120;" xml:space="preserve">
<style type="text/css">
	.st0{fill:#7d818e;opacity:.3;}
	.st1{fill:#72A5D8;}
</style>
<path class="st0" d="M14,10h122c1.7,0,3,1.3,3,3v94c0,1.7-1.3,3-3,3H14c-1.7,0-3-1.3-3-3V13C11,11.3,12.3,10,14,10z"/>
<path class="st1" d="M104.7,78.8h28.4c0.9,0,1.7,0.8,1.7,1.7v23.8c0,0.9-0.8,1.7-1.7,1.7h-28.4c-0.9,0-1.7-0.8-1.7-1.7V80.5
	C103,79.6,103.8,78.8,104.7,78.8z"/>
</svg>
