<svg id="Layer_1" data-name="Layer 1" xmlns="http://www.w3.org/2000/svg" viewBox="0 0 150 120"><defs><style>.cls-1,.cls-2{fill:none;stroke-linecap:round;stroke-linejoin:round;stroke-width:2px;}.cls-1{stroke:#7D818E;opacity:0.3;}.cls-2{stroke:#72a5d8;}.cls-3{fill:#7D818E;opacity:.7;}.cls-4{fill:#72a5d8;}.cls-5{fill:#7D818E;opacity:.7;}</style></defs><line class="cls-1" x1="96" y1="118" x2="96" y2="10"/><line class="cls-2" x1="96" y1="35.5" x2="96" y2="9.5"/><path class="cls-3" d="M108.5,21H150a0,0,0,0,1,0,0v3a0,0,0,0,1,0,0H108.5a1.5,1.5,0,0,1-1.5-1.5v0A1.5,1.5,0,0,1,108.5,21Z"/><path class="cls-3" d="M108.5,31H150a0,0,0,0,1,0,0v3a0,0,0,0,1,0,0H108.5a1.5,1.5,0,0,1-1.5-1.5v0A1.5,1.5,0,0,1,108.5,31Z"/><path class="cls-3" d="M108.5,41H150a0,0,0,0,1,0,0v3a0,0,0,0,1,0,0H108.5a1.5,1.5,0,0,1-1.5-1.5v0A1.5,1.5,0,0,1,108.5,41Z"/><path class="cls-3" d="M108.5,51H150a0,0,0,0,1,0,0v3a0,0,0,0,1,0,0H108.5a1.5,1.5,0,0,1-1.5-1.5v0A1.5,1.5,0,0,1,108.5,51Z"/><path class="cls-3" d="M108.5,61H150a0,0,0,0,1,0,0v3a0,0,0,0,1,0,0H108.5a1.5,1.5,0,0,1-1.5-1.5v0A1.5,1.5,0,0,1,108.5,61Z"/><path class="cls-3" d="M108.5,71H150a0,0,0,0,1,0,0v3a0,0,0,0,1,0,0H108.5a1.5,1.5,0,0,1-1.5-1.5v0A1.5,1.5,0,0,1,108.5,71Z"/><path class="cls-3" d="M108.5,81H150a0,0,0,0,1,0,0v3a0,0,0,0,1,0,0H108.5a1.5,1.5,0,0,1-1.5-1.5v0A1.5,1.5,0,0,1,108.5,81Z"/><path class="cls-3" d="M108.5,91H150a0,0,0,0,1,0,0v3a0,0,0,0,1,0,0H108.5a1.5,1.5,0,0,1-1.5-1.5v0A1.5,1.5,0,0,1,108.5,91Z"/><rect class="cls-3" x="107" y="101" width="24" height="3" rx="1.5"/><rect class="cls-4" x="30.98" y="20" width="55" height="4" rx="2"/><rect class="cls-5" x="25.98" y="44" width="60" height="4" rx="2"/><rect class="cls-5" x="50.98" y="68" width="35" height="4" rx="2"/></svg>