<svg id="Layer_1" data-name="Layer 1" xmlns="http://www.w3.org/2000/svg" viewBox="0 0 60 60"><defs><style>.cls-1,.cls-2{fill:#7d818e;}.cls-1{opacity:0.7;}.cls-2{opacity:0.5;}.cls-3{fill:#489c6d;}.cls-4{fill:none;stroke:#7d818e;stroke-linecap:round;stroke-miterlimit:10;stroke-width:2px;stroke-dasharray:1 4;}</style></defs><path class="cls-1" d="M9.07,15.21H50.93c.59,0,1.07.34,1.07.75v10.5c0,.41-.48.75-1.07.75H9.07c-.59,0-1.07-.34-1.07-.75V16C8,15.55,8.48,15.21,9.07,15.21Z"/><path class="cls-2" d="M14.79,33.21H45.21a.72.72,0,0,1,.79.51v11a.72.72,0,0,1-.79.51H14.79a.72.72,0,0,1-.79-.51v-11A.72.72,0,0,1,14.79,33.21Z"/><path class="cls-3" d="M28,55.21a2,2,0,1,0,4,0v-10H28Z"/><path class="cls-3" d="M32,5.21a2,2,0,0,0-4,0v10h4Z"/><rect class="cls-3" x="28" y="27.21" width="4" height="6"/><path class="cls-4" d="M9.07,15.21H50.93c.59,0,1.07.34,1.07.75v10.5c0,.41-.48.75-1.07.75H9.07c-.59,0-1.07-.34-1.07-.75V16C8,15.55,8.48,15.21,9.07,15.21Z"/><path class="cls-4" d="M14.79,33.21H45.21a.72.72,0,0,1,.79.51v11a.72.72,0,0,1-.79.51H14.79a.72.72,0,0,1-.79-.51v-11A.72.72,0,0,1,14.79,33.21Z"/></svg>