<svg id="Layer_1" data-name="Layer 1" xmlns="http://www.w3.org/2000/svg" viewBox="0 0 60 60"><defs><style>.cls-1,.cls-2{fill:#7d818e;}.cls-1{opacity:0.7;}.cls-2{opacity:0.5;}.cls-3{fill:#489c6d;}.cls-4{fill:none;stroke:#7d818e;stroke-linecap:round;stroke-miterlimit:10;stroke-width:2px;stroke-dasharray:1 4;}</style></defs><path class="cls-1" d="M11,15.21H50c.55,0,1,.34,1,.75v10.5c0,.41-.45.75-1,.75H11c-.55,0-1-.34-1-.75V16A.91.91,0,0,1,11,15.21Z"/><path class="cls-2" d="M10.67,33.21H36.33a.62.62,0,0,1,.67.51v11a.62.62,0,0,1-.67.51H10.67a.62.62,0,0,1-.67-.51v-11A.62.62,0,0,1,10.67,33.21Z"/><rect class="cls-3" x="15" y="27.21" width="4" height="6"/><path class="cls-3" d="M19,5.21a2,2,0,0,0-4,0v10h4Z"/><path class="cls-3" d="M15,55.21a2,2,0,1,0,4,0v-10H15Z"/><path class="cls-4" d="M11,15.21H50c.55,0,1,.34,1,.75v10.5c0,.41-.45.75-1,.75H11c-.55,0-1-.34-1-.75V16A.91.91,0,0,1,11,15.21Z"/><path class="cls-4" d="M10.67,33.21H36.33a.62.62,0,0,1,.67.51v11a.62.62,0,0,1-.67.51H10.67a.62.62,0,0,1-.67-.51v-11A.62.62,0,0,1,10.67,33.21Z"/></svg>