<?xml version="1.0" encoding="UTF-8"?><svg id="Layer_1" xmlns="http://www.w3.org/2000/svg" viewBox="0 0 150 120"><defs><style>.cls-1{fill:none;stroke:#ced5db;stroke-linecap:round;stroke-linejoin:round;stroke-width:3px;}.cls-2{fill:#fff;}.cls-3{opacity:.7;}.cls-3,.cls-4{fill:#7d818e;}.cls-4{opacity:.3;}</style></defs><rect class="cls-4" x="1" y="1" width="148" height="118" rx="2" ry="2"/><path class="cls-3" d="M-38.75,40.75H79.25v36.5c0,1.1-.9,2-2,2H-36.75c-1.1,0-2-.9-2-2V40.75h0Z" transform="translate(80.25 39.75) rotate(90)"/><line class="cls-1" x1="27" y1="42" x2="13" y2="42"/><line class="cls-1" x1="27" y1="51" x2="13" y2="51"/><line class="cls-1" x1="27" y1="60" x2="13" y2="60"/><g><g><path class="cls-2" d="M16.08,19.99h2.16v1.24h-3.79v-6.69h1.62v5.45Z"/><path class="cls-2" d="M23.88,14.87c.51,.29,.93,.71,1.21,1.22,.31,.54,.46,1.15,.45,1.77,0,.62-.15,1.23-.45,1.77-.29,.51-.71,.93-1.22,1.22-.52,.3-1.11,.45-1.7,.44-.6,0-1.19-.15-1.71-.44-.51-.29-.93-.71-1.22-1.22-.3-.54-.46-1.15-.44-1.77-.01-.62,.14-1.23,.44-1.77,.29-.51,.71-.93,1.22-1.22,1.07-.58,2.36-.58,3.43,0Zm-2.98,1.58c-.33,.39-.49,.9-.46,1.41-.03,.51,.14,1.01,.46,1.4,.33,.35,.79,.54,1.27,.52,.47,.02,.93-.17,1.25-.52,.33-.39,.5-.89,.47-1.4,.03-.51-.14-1.01-.46-1.4-.32-.35-.78-.54-1.26-.52-.48-.02-.94,.16-1.27,.51Z"/></g><g><path class="cls-2" d="M18.44,23.36c.54,.4,.9,1,1.01,1.67h-1.71c-.11-.24-.29-.44-.52-.58-.26-.15-.55-.22-.84-.21-.47-.02-.92,.17-1.23,.51-.33,.39-.49,.89-.46,1.4-.04,.53,.14,1.06,.48,1.47,.37,.36,.88,.54,1.39,.51,.36,0,.72-.11,1.01-.32,.3-.23,.51-.54,.62-.9h-2.04v-1.16h3.4v1.57c-.14,.41-.36,.79-.64,1.12-.3,.34-.66,.62-1.07,.81-.46,.21-.97,.32-1.48,.31-.62,.02-1.23-.13-1.77-.44-.5-.28-.91-.7-1.17-1.2-.28-.55-.42-1.16-.41-1.77-.01-.61,.13-1.22,.41-1.77,.26-.51,.67-.93,1.16-1.21,.54-.29,1.15-.44,1.76-.43,.75-.04,1.5,.18,2.11,.62Z"/><path class="cls-2" d="M25.34,23.14c.51,.29,.93,.71,1.21,1.22,.31,.54,.46,1.15,.44,1.77,.01,.62-.14,1.23-.44,1.77-.29,.51-.71,.93-1.22,1.22-1.06,.59-2.36,.59-3.42,0-.51-.29-.93-.71-1.22-1.22-.31-.54-.46-1.15-.45-1.77-.01-.62,.15-1.23,.45-1.77,.29-.51,.71-.93,1.22-1.22,1.07-.58,2.36-.58,3.43,0Zm-2.98,1.58c-.33,.39-.49,.9-.46,1.41-.03,.51,.14,1.01,.46,1.4,.33,.35,.79,.54,1.27,.52,.47,.02,.93-.17,1.25-.52,.33-.39,.5-.89,.47-1.4,.03-.51-.14-1.01-.46-1.4-.32-.35-.78-.54-1.26-.52-.48-.02-.94,.16-1.27,.51Z"/></g></g><g><circle class="cls-2" cx="12.5" cy="106.5" r="1.5"/><circle class="cls-2" cx="20.5" cy="106.5" r="1.5"/><circle class="cls-2" cx="28.5" cy="106.5" r="1.5"/></g></svg>