<?xml version="1.0" encoding="UTF-8"?><svg id="Layer_1" xmlns="http://www.w3.org/2000/svg" viewBox="0 0 150 120"><defs><style>.cls-1{fill:none;stroke:#ced5db;stroke-linecap:round;stroke-linejoin:round;stroke-width:3px;}.cls-2{fill:#fff;}.cls-3{opacity:.7;}.cls-3,.cls-4{fill:#7d818e;}.cls-4{opacity:.3;}</style></defs><rect class="cls-4" x="1" y="1" width="148" height="118" rx="2" ry="2"/><path class="cls-3" d="M3,1H147c1.1,0,2,.9,2,2V14.5H1V3c0-1.1,.9-2,2-2Z"/><line class="cls-1" x1="99" y1="8" x2="85" y2="8"/><line class="cls-1" x1="121" y1="8" x2="107" y2="8"/><line class="cls-1" x1="143" y1="8" x2="129" y2="8"/><g><path class="cls-2" d="M6.68,9.7h1.78v1.02h-3.12V5.22h1.33v4.49Z"/><path class="cls-2" d="M13.1,5.49c.42,.24,.76,.59,1,1.01,.25,.44,.38,.95,.37,1.46,0,.51-.12,1.01-.37,1.46-.24,.42-.59,.77-1.01,1.01-.43,.24-.91,.37-1.4,.37-.49,0-.98-.12-1.41-.37-.42-.24-.77-.59-1.01-1.01-.25-.44-.38-.95-.37-1.46-.01-.51,.12-1.01,.37-1.46,.24-.42,.59-.77,1.01-1.01,.88-.48,1.94-.48,2.82,0Zm-2.45,1.3c-.27,.32-.41,.74-.38,1.16-.02,.42,.11,.83,.38,1.15,.27,.29,.65,.44,1.04,.43,.39,.01,.76-.14,1.03-.43,.27-.32,.41-.73,.39-1.15,.02-.42-.11-.83-.38-1.15-.26-.29-.64-.45-1.04-.43-.39-.02-.77,.13-1.04,.42Z"/><path class="cls-2" d="M19.51,5.67c.44,.33,.74,.82,.83,1.37h-1.41c-.09-.2-.24-.36-.43-.48-.21-.12-.45-.18-.69-.17-.38-.02-.75,.14-1.01,.42-.27,.32-.4,.73-.38,1.15-.03,.44,.11,.87,.4,1.21,.31,.3,.72,.45,1.15,.42,.3,0,.59-.09,.83-.26,.24-.19,.42-.45,.51-.74h-1.68v-.96h2.8v1.29c-.12,.34-.3,.65-.53,.92-.24,.28-.54,.51-.88,.67-.38,.18-.8,.26-1.22,.26-.51,.01-1.01-.11-1.46-.36-.41-.23-.75-.57-.97-.99-.23-.45-.35-.95-.34-1.46-.01-.51,.1-1.01,.34-1.46,.22-.42,.55-.76,.96-1,.44-.24,.94-.36,1.45-.35,.62-.03,1.23,.15,1.74,.51Z"/><path class="cls-2" d="M25.19,5.49c.42,.24,.76,.59,1,1.01,.25,.44,.38,.95,.37,1.46,0,.51-.12,1.01-.37,1.46-.24,.42-.59,.77-1.01,1.01-.87,.49-1.94,.49-2.81,0-.42-.24-.77-.59-1.01-1.01-.25-.44-.38-.95-.37-1.46,0-.51,.12-1.01,.37-1.46,.24-.42,.59-.77,1.01-1.01,.88-.48,1.94-.48,2.82,0Zm-2.45,1.3c-.27,.32-.41,.74-.38,1.16-.02,.42,.11,.83,.38,1.15,.27,.29,.65,.44,1.04,.43,.39,.01,.76-.14,1.03-.43,.27-.32,.41-.73,.39-1.15,.02-.42-.11-.83-.38-1.15-.26-.29-.64-.45-1.04-.43-.39-.02-.77,.13-1.04,.42Z"/></g></svg>