<svg id="Layer_1" data-name="Layer 1" xmlns="http://www.w3.org/2000/svg" viewBox="0 0 51.84 51.84"><defs><style>.cls-1{fill:none;stroke-width:1.5px;}.cls-1,.cls-3{stroke:#304050;stroke-miterlimit:10;}.cls-2,.cls-3{fill:#304050;}.cls-2{fill-rule:evenodd;}.cls-3{stroke-width:0.7px;}</style></defs><polyline class="cls-1" points="24.92 12.92 24.92 29.38 28.92 29.38"/><line class="cls-1" x1="24.92" y1="29.38" x2="24.92" y2="45.84"/><polyline class="cls-1" points="45.35 16.92 45.35 12.92 4.49 12.92 4.49 45.84 45.35 45.84 45.35 39.11"/><polyline class="cls-1" points="47.32 33.38 49.35 33.38 49.35 16.92 28.92 16.92 28.92 33.38 35.83 33.38"/><polyline class="cls-1" points="4.49 12.92 4.49 6 45.35 6 45.35 12.92"/><path class="cls-2" d="M39.41,9.41a1.24,1.24,0,1,0-1.24,1.22A1.23,1.23,0,0,0,39.41,9.41Z"/><path class="cls-2" d="M43,9.41a1.24,1.24,0,1,0-1.24,1.22A1.24,1.24,0,0,0,43,9.41Z"/><path class="cls-2" d="M35.83,9.41a1.24,1.24,0,1,0-1.24,1.22A1.24,1.24,0,0,0,35.83,9.41Z"/><path class="cls-2" d="M9.18,9.41a1.25,1.25,0,1,0-1.25,1.22A1.24,1.24,0,0,0,9.18,9.41Z"/><path class="cls-3" d="M46,29.7h0a1.3,1.3,0,0,0-.86.33,1.33,1.33,0,0,0-1.24-.91,1.32,1.32,0,0,0-.91.4,1.33,1.33,0,0,0-1.18-.75h0A1.16,1.16,0,0,0,41,29V25.83a1.33,1.33,0,1,0-2.65,0v6.32L38,31.72a1.77,1.77,0,0,0-2.6-.2l-.31.26a.27.27,0,0,0-.07.34l3,5.82a3.11,3.11,0,0,0,2.74,1.72h3.41a3.25,3.25,0,0,0,3.14-3.34V34.38c0-1.33,0-1.82,0-3.29A1.35,1.35,0,0,0,46,29.7Zm.77,4.68v1.94a2.71,2.71,0,0,1-2.59,2.79h-3.4a2.56,2.56,0,0,1-2.25-1.43l-2.93-5.62.15-.12h0a1.25,1.25,0,0,1,.92-.33,1.29,1.29,0,0,1,.89.47l.84,1a.29.29,0,0,0,.31.09.28.28,0,0,0,.18-.26v-7.1a.78.78,0,1,1,1.55,0V32A.28.28,0,1,0,41,32V30.12a.78.78,0,0,1,.76-.8h0a.81.81,0,0,1,.78.84v1.67a.28.28,0,1,0,.55,0V30.52a.76.76,0,1,1,1.52,0v1.23a.28.28,0,1,0,.56,0v-.67a.81.81,0,0,1,.78-.83h0a.81.81,0,0,1,.77.84Z"/></svg>