<svg id="Layer_1" data-name="Layer 1" xmlns="http://www.w3.org/2000/svg" viewBox="0 0 60 60"><defs><style>.cls-1,.cls-2{fill:#7d818e;}.cls-1{opacity:0.1;}.cls-3,.cls-4{fill:#72a5d8;}.cls-3{opacity:0.7;}.cls-5{fill:none;stroke:#7d818e;stroke-linecap:round;stroke-linejoin:round;stroke-width:2px;}</style></defs><path class="cls-1" d="M55.65,58.5H4.35c-1.61,0-2.85-1.24-2.85-1.9V5.3c0-2.56,1.24-3.8,2.85-3.8h51.3c1.61,0,2.85,1.24,2.85,3.8V56.6C58.5,57.27,57.26,58.5,55.65,58.5Z"/><path class="cls-2" d="M50.5,32H9.5A1.54,1.54,0,0,1,8,30.5v-1A1.54,1.54,0,0,1,9.5,28h41A1.54,1.54,0,0,1,52,29.5v1A1.47,1.47,0,0,1,50.56,32Z"/><path class="cls-3" d="M18,18.9H42.2c.5,0,.9.15.9.3v5.4c0,.15-.4.3-.9.3H18c-.5,0-.9-.15-.9-.3V19.2C17.05,19.05,17.45,18.9,18,18.9Z"/><path class="cls-4" d="M17.6,34.9H42.4a.68.68,0,0,1,.6.23v5.54c0,.15-.3.23-.6.23H17.6a.68.68,0,0,1-.6-.23V35.13C17,35.05,17.3,34.9,17.6,34.9Z"/><polyline class="cls-5" points="26.55 13.04 30.05 16.1 33.55 13.04"/><line class="cls-5" x1="30.05" y1="16.1" x2="30.05" y2="8.1"/><polyline class="cls-5" points="33.5 47.06 30 44 26.5 47.06"/><line class="cls-5" x1="30" y1="44" x2="30" y2="52"/></svg>