<svg id="Layer_1" data-name="Layer 1" xmlns="http://www.w3.org/2000/svg" viewBox="0 0 60 60"><defs><style>.cls-1,.cls-2{fill:#7d818e;}.cls-1{opacity:0.1;}.cls-3,.cls-4{fill:#72a5d8;}.cls-3{opacity:0.7;}.cls-5{fill:none;stroke:#7d818e;stroke-linecap:round;stroke-linejoin:round;stroke-width:2px;}</style></defs><path class="cls-1" d="M55.65,58.5H4.35c-1.61,0-2.85-1.24-2.85-1.9V5.3c0-2.56,1.24-3.8,2.85-3.8h51.3c1.61,0,2.85,1.24,2.85,3.8V56.6C58.5,57.27,57.26,58.5,55.65,58.5Z"/><path class="cls-2" d="M50.5,53H9.5A1.54,1.54,0,0,1,8,51.5v-1A1.54,1.54,0,0,1,9.5,49h41A1.54,1.54,0,0,1,52,50.5v1A1.47,1.47,0,0,1,50.56,53Z"/><path class="cls-3" d="M18,28H42.2c.5,0,.9.18.9.35v6.3c0,.17-.4.35-.9.35H18c-.5,0-.9-.18-.9-.35v-6.3C17.05,28.18,17.45,28,18,28Z"/><path class="cls-4" d="M17.6,45H42.4a.61.61,0,0,0,.6-.27V38.27c0-.18-.3-.27-.6-.27H17.6a.61.61,0,0,0-.6.27v6.46C17,44.82,17.3,45,17.6,45Z"/><polyline class="cls-5" points="26.5 19.94 30 23 33.5 19.94"/><line class="cls-5" x1="30" y1="23" x2="30" y2="15"/></svg>