<svg id="Layer_1" data-name="Layer 1" xmlns="http://www.w3.org/2000/svg" viewBox="0 0 60 60"><defs><style>.cls-1,.cls-3{fill:#7d818e;}.cls-1{opacity:0.1;}.cls-2,.cls-4{fill:#72a5d8;}.cls-2{opacity:0.7;}</style></defs><path class="cls-1" d="M55.65,58.5H4.35A2.81,2.81,0,0,1,1.5,55.73V4.35A2.81,2.81,0,0,1,4.27,1.5H55.65A2.8,2.8,0,0,1,58.5,4.25v51.4a2.79,2.79,0,0,1-2.73,2.85Z"/><path class="cls-2" d="M17.9,17.1H42.2c.5,0,.9.2.9.4v7.1c0,.2-.4.4-.9.4H17.9c-.5,0-.9-.2-.9-.4V17.5C17,17.3,17.4,17.1,17.9,17.1Z"/><path class="cls-3" d="M50.5,32H9.5A1.54,1.54,0,0,1,8,30.5v-1A1.54,1.54,0,0,1,9.5,28h41A1.54,1.54,0,0,1,52,29.5v1A1.47,1.47,0,0,1,50.56,32Z"/><path class="cls-4" d="M17.6,35.1H42.4a.61.61,0,0,1,.6.3v7.3c0,.2-.3.3-.6.3H17.6a.61.61,0,0,1-.6-.3V35.4C17,35.3,17.3,35.1,17.6,35.1Z"/></svg>