<svg id="Layer_1" data-name="Layer 1" xmlns="http://www.w3.org/2000/svg" viewBox="0 0 60 60"><defs><style>.cls-1,.cls-4{fill:#7d818e;}.cls-1{opacity:0.1;}.cls-2,.cls-3{fill:#72a5d8;}.cls-2{opacity:0.7;}</style></defs><path class="cls-1" d="M55.65,59H4.35A2.83,2.83,0,0,1,1.5,56.19V3.9A2.83,2.83,0,0,1,4.26,1H55.65A2.82,2.82,0,0,1,58.5,3.79V56.1A2.82,2.82,0,0,1,55.76,59Z"/><path class="cls-2" d="M17.8,16h8.3c.5,0,.8.3.8.6V43.5c0,.3-.4.6-.8.6H17.8c-.5,0-.8-.3-.8-.6V16.6C17,16.3,17.4,16,17.8,16Z"/><path class="cls-3" d="M32.9,16h8.9q.45,0,.6.6V43.5a.58.58,0,0,1-.56.6H32.9q-.45,0-.6-.6V16.6C32.4,16.3,32.6,16,32.9,16Z"/><path class="cls-4" d="M50.5,11.3H9.5A1.54,1.54,0,0,1,8,9.8v-1A1.54,1.54,0,0,1,9.5,7.3h41A1.54,1.54,0,0,1,52,8.8v1a1.47,1.47,0,0,1-1.44,1.5Z"/><path class="cls-4" d="M50.3,52.7H9.7A1.75,1.75,0,0,1,8,51H8a1.75,1.75,0,0,1,1.7-1.7H50.3A1.75,1.75,0,0,1,52,51h0a1.69,1.69,0,0,1-1.68,1.7Z"/></svg>