<svg id="Layer_1" data-name="Layer 1" xmlns="http://www.w3.org/2000/svg" viewBox="0 0 150 50"><defs><style>.cls-1{fill:#72a5d8;}.cls-2{fill:#fff;}.cls-3{fill:none;stroke:#fff;stroke-linecap:round;stroke-linejoin:round;stroke-width:2px;}</style></defs><rect id="button" class="cls-1" width="150" height="50" rx="14"/><path class="cls-2" d="M40.3,19a5.45,5.45,0,0,1,1.24.72.44.44,0,0,0,.28.13q.3,0,.39-.9h.34c0,.68,0,1.89,0,3.63h-.35a7.43,7.43,0,0,0-.36-1.69,3.16,3.16,0,0,0-1.63-1.57,2.82,2.82,0,0,0-1-.19,2.38,2.38,0,0,0-2.25,1.48,8.2,8.2,0,0,0-.74,3.68,7.87,7.87,0,0,0,.77,3.66,2.44,2.44,0,0,0,2.28,1.47,2.74,2.74,0,0,0,1-.19,3.12,3.12,0,0,0,1.62-1.59,8.31,8.31,0,0,0,.34-1.85h.35c0,1.81,0,3.07,0,3.78h-.34a2.37,2.37,0,0,0-.13-.68c0-.14-.13-.2-.23-.2a.64.64,0,0,0-.31.12,6.3,6.3,0,0,1-1.29.72,3.94,3.94,0,0,1-1.49.25A5.74,5.74,0,0,1,36,29.1a4.59,4.59,0,0,1-1.86-1.87,6.08,6.08,0,0,1-.66-2.92,6.14,6.14,0,0,1,.68-2.92,4.92,4.92,0,0,1,1.88-2,5.4,5.4,0,0,1,2.76-.71A4,4,0,0,1,40.3,19Z"/><path class="cls-2" d="M51.22,27.9a1.83,1.83,0,0,0,.22,1,.84.84,0,0,0,.74.32v.31c-.3,0-.62,0-.93,0a9.67,9.67,0,0,0-2.19.21V28.35a2.46,2.46,0,0,1-2.41,1.39A2.07,2.07,0,0,1,45,29.16a1.87,1.87,0,0,1-.35-.75,5.44,5.44,0,0,1-.11-1.2v-3.8a1.74,1.74,0,0,0-.22-1,.83.83,0,0,0-.74-.32v-.31c.31,0,.62,0,.93,0a9.67,9.67,0,0,0,2.19-.21v6.21a1.85,1.85,0,0,0,.19.95.75.75,0,0,0,.71.31,1.33,1.33,0,0,0,1-.5,1.88,1.88,0,0,0,.42-1.24V23.41a1.84,1.84,0,0,0-.21-1,.85.85,0,0,0-.75-.32v-.31c.32,0,.63,0,.94,0a9.63,9.63,0,0,0,2.18-.21Z"/><path class="cls-2" d="M56.86,21.71a2.47,2.47,0,0,1,.74.32.5.5,0,0,0,.27.11A.27.27,0,0,0,58.1,22a.83.83,0,0,0,.13-.41h.31q-.06.77-.06,2.64h-.31a3.9,3.9,0,0,0-.59-1.66,1.52,1.52,0,0,0-1.33-.66,1.07,1.07,0,0,0-.74.25.89.89,0,0,0-.3.71,1.22,1.22,0,0,0,.35.87,7.22,7.22,0,0,0,1.08.9l.43.31a7.76,7.76,0,0,1,1.35,1.23,2.09,2.09,0,0,1,.44,1.35,1.93,1.93,0,0,1-.38,1.17,2.46,2.46,0,0,1-1,.78,3.68,3.68,0,0,1-1.43.27,2.94,2.94,0,0,1-1.41-.31c-.32-.16-.55-.27-.69-.32a.22.22,0,0,0-.26.1,1.1,1.1,0,0,0-.17.43h-.32q.06-.86.06-3h.32c.2,1.84.87,2.76,2,2.76a1.11,1.11,0,0,0,.75-.27,1,1,0,0,0,.3-.8,1.54,1.54,0,0,0-.18-.75A2.43,2.43,0,0,0,56,27c-.19-.17-.47-.41-.85-.71s-.79-.65-1-.87a3.37,3.37,0,0,1-.6-.78,2.09,2.09,0,0,1-.25-1A1.79,1.79,0,0,1,54,22.12a3,3,0,0,1,1.83-.55A3.51,3.51,0,0,1,56.86,21.71Z"/><path class="cls-2" d="M62.82,21.78h1.77v.3H62.82v6.06a.94.94,0,0,0,.16.63.59.59,0,0,0,.5.19q.65,0,1-.9l.25.14a2.06,2.06,0,0,1-2,1.54,2,2,0,0,1-1.5-.51,1.65,1.65,0,0,1-.43-.79,6.1,6.1,0,0,1-.11-1.29V22.08H59.4v-.3h1.26v-2a4.59,4.59,0,0,0,2.16-.48Z"/><path class="cls-2" d="M71.56,22.55a4.26,4.26,0,0,1,1,3.11,4.26,4.26,0,0,1-1,3.11,4.23,4.23,0,0,1-5.39,0,4.26,4.26,0,0,1-1-3.11,4.26,4.26,0,0,1,1-3.11,4.2,4.2,0,0,1,5.39,0Zm-3.72.25a7.91,7.91,0,0,0-.39,2.86,7.81,7.81,0,0,0,.39,2.85q.38.93,1,.93c.44,0,.79-.31,1-.92a8.14,8.14,0,0,0,.37-2.86,7.87,7.87,0,0,0-.38-2.86c-.25-.62-.6-.93-1-.93S68.09,22.18,67.84,22.8Z"/><path class="cls-2" d="M85.75,29a1,1,0,0,0,.74.24v.31l-2-.06-1.86.06v-.31a.63.63,0,0,0,.56-.23,1.54,1.54,0,0,0,.16-.85V23.47a1.81,1.81,0,0,0-.19-.94.76.76,0,0,0-.71-.3,1.26,1.26,0,0,0-1,.46A2,2,0,0,0,81,23.83v4.31a1.4,1.4,0,0,0,.19.84.82.82,0,0,0,.68.24v.31L80,29.47l-1.86.06v-.31A.64.64,0,0,0,78.7,29a1.64,1.64,0,0,0,.15-.84V23.47a2.09,2.09,0,0,0-.16-.94.68.68,0,0,0-.65-.3,1.27,1.27,0,0,0-1,.5A1.82,1.82,0,0,0,76.59,24v4.17a1.52,1.52,0,0,0,.16.84.61.61,0,0,0,.56.24v.31q-1.32-.06-1.77-.06l-2.07.06v-.31a1,1,0,0,0,.75-.24,1.25,1.25,0,0,0,.21-.84V23.41a1.84,1.84,0,0,0-.21-1,.84.84,0,0,0-.75-.32v-.31c.32,0,.63,0,.93,0a9.43,9.43,0,0,0,2.19-.21V23a2.35,2.35,0,0,1,2.32-1.39,2.08,2.08,0,0,1,1.65.58,1.63,1.63,0,0,1,.38.9,2.47,2.47,0,0,1,1-1.15,3.12,3.12,0,0,1,1.47-.33,2.08,2.08,0,0,1,1.65.58,1.64,1.64,0,0,1,.34.74,5.61,5.61,0,0,1,.11,1.21v4A1.19,1.19,0,0,0,85.75,29Z"/><path id="icon" class="cls-3" d="M118.39,23.62,112,30l-5.36.36L107,25l6.43-6.42Zm-5-5,1.07-1.07a3.53,3.53,0,0,1,5,0h0a3.52,3.52,0,0,1,0,5h0l-1.07,1.07"/></svg>