<svg id="Layer_1" data-name="Layer 1" xmlns="http://www.w3.org/2000/svg" viewBox="0 0 150 50"><defs><style>.cls-1{fill:#72a5d8;}.cls-2{fill:#fff;}</style></defs><rect id="button" class="cls-1" width="150" height="50"/><path class="cls-2" d="M66.92,29.53V18.69h3.74a6.93,6.93,0,0,1,1.82.2,3.35,3.35,0,0,1,1.23.58,2.19,2.19,0,0,1,.71.9,3.09,3.09,0,0,1,.23,1.2,2.6,2.6,0,0,1-.11.74,2.41,2.41,0,0,1-.35.65,2.91,2.91,0,0,1-.6.55,4.4,4.4,0,0,1-.87.42c1.49.33,2.24,1.14,2.24,2.41a3,3,0,0,1-.27,1.28,2.78,2.78,0,0,1-.76,1,3.76,3.76,0,0,1-1.24.66,5.41,5.41,0,0,1-1.68.24Zm2-6.15h1.61A2.74,2.74,0,0,0,72.11,23a1.38,1.38,0,0,0,.53-1.2,1.4,1.4,0,0,0-.48-1.2,2.51,2.51,0,0,0-1.5-.36H68.93Zm0,1.4V28h2a2.78,2.78,0,0,0,.94-.14,1.65,1.65,0,0,0,.61-.36,1.36,1.36,0,0,0,.33-.52,2,2,0,0,0,.1-.64,1.73,1.73,0,0,0-.11-.63,1.2,1.2,0,0,0-.35-.48,1.64,1.64,0,0,0-.62-.31,3.42,3.42,0,0,0-.91-.1Z"/><path class="cls-2" d="M78.28,21.84v4.89a1.69,1.69,0,0,0,.32,1.09,1.21,1.21,0,0,0,1,.38,2,2,0,0,0,.9-.21,3.11,3.11,0,0,0,.8-.59V21.84h1.85v7.69H82a.45.45,0,0,1-.47-.34l-.13-.61a5.08,5.08,0,0,1-.5.44,3.77,3.77,0,0,1-.54.34,3,3,0,0,1-.62.21,2.79,2.79,0,0,1-.72.08,2.75,2.75,0,0,1-1.11-.21,2.18,2.18,0,0,1-.82-.61,2.72,2.72,0,0,1-.5-.92,4,4,0,0,1-.17-1.18V21.84Z"/><path class="cls-2" d="M87.64,29.65a2,2,0,0,1-1.54-.56,2.19,2.19,0,0,1-.54-1.57v-4.3h-.78a.39.39,0,0,1-.26-.09.41.41,0,0,1-.11-.3V22.1l1.24-.2L86,19.8a.42.42,0,0,1,.14-.24.46.46,0,0,1,.27-.08h1V21.9h2v1.32h-2v4.17a.85.85,0,0,0,.18.57.63.63,0,0,0,.48.2.81.81,0,0,0,.29,0l.2-.09.16-.08a.24.24,0,0,1,.13-.05A.22.22,0,0,1,89,28a.44.44,0,0,1,.11.12l.56.9a3,3,0,0,1-.94.51A3.54,3.54,0,0,1,87.64,29.65Z"/><path class="cls-2" d="M93.44,29.65a2.06,2.06,0,0,1-1.54-.56,2.19,2.19,0,0,1-.54-1.57v-4.3h-.78a.37.37,0,0,1-.25-.09.37.37,0,0,1-.11-.3V22.1l1.23-.2.39-2.1a.42.42,0,0,1,.14-.24.51.51,0,0,1,.28-.08h1V21.9h2v1.32h-2v4.17a.85.85,0,0,0,.18.57.63.63,0,0,0,.48.2.85.85,0,0,0,.29,0l.2-.09.15-.08a.27.27,0,0,1,.14-.05.19.19,0,0,1,.13.05.33.33,0,0,1,.11.12l.56.9a3,3,0,0,1-.93.51A3.6,3.6,0,0,1,93.44,29.65Z"/><path class="cls-2" d="M100,21.72a4.35,4.35,0,0,1,1.57.27,3.4,3.4,0,0,1,1.19.79,3.52,3.52,0,0,1,.77,1.25,4.7,4.7,0,0,1,.27,1.64,4.76,4.76,0,0,1-.27,1.65,3.52,3.52,0,0,1-.77,1.25,3.29,3.29,0,0,1-1.19.8,4.67,4.67,0,0,1-3.13,0,3.46,3.46,0,0,1-1.21-.8,3.52,3.52,0,0,1-.77-1.25,4.76,4.76,0,0,1-.27-1.65A4.7,4.7,0,0,1,96.46,24a3.52,3.52,0,0,1,.77-1.25A3.58,3.58,0,0,1,98.44,22,4.33,4.33,0,0,1,100,21.72Zm0,6.5a1.65,1.65,0,0,0,1.43-.65,3.29,3.29,0,0,0,.46-1.89,3.29,3.29,0,0,0-.46-1.89,1.63,1.63,0,0,0-1.43-.66,1.65,1.65,0,0,0-1.44.66,3.26,3.26,0,0,0-.46,1.89,3.22,3.22,0,0,0,.46,1.89A1.67,1.67,0,0,0,100,28.22Z"/><path class="cls-2" d="M105.25,29.53V21.84h1.13a.45.45,0,0,1,.47.33l.13.61a4,4,0,0,1,.49-.43A3.14,3.14,0,0,1,108,22a2.53,2.53,0,0,1,.62-.22,3.26,3.26,0,0,1,.72-.07,2.75,2.75,0,0,1,1.11.21,2.16,2.16,0,0,1,.82.6,2.62,2.62,0,0,1,.49.92,3.7,3.7,0,0,1,.17,1.18v4.9H110.1v-4.9a1.63,1.63,0,0,0-.33-1.09,1.22,1.22,0,0,0-1-.38,2,2,0,0,0-.9.21,3.37,3.37,0,0,0-.79.6v5.56Z"/><polygon class="cls-2" points="40.5 23.5 37.5 23.5 37.5 25.5 40.5 25.5 40.5 28.5 45.5 24.5 40.5 20.5 40.5 23.5"/><path class="cls-2" d="M41,15A10,10,0,1,0,51,25,10,10,0,0,0,41,15Zm0,18a8,8,0,1,1,8-8A8,8,0,0,1,41,33Z"/></svg>