<svg width="1920" height="1314" viewBox="0 0 1920 1314" fill="none" xmlns="http://www.w3.org/2000/svg">
<g clip-path="url(#clip0_568_1042)">
<path d="M1920 0H0V1314H1920V0Z" fill="#DDE3E9"/>
<path d="M1266.97 340.004C1243.13 340.403 1219.94 347.838 1200.31 361.375C1180.68 374.911 1165.49 393.946 1156.64 416.09C1147.79 438.233 1145.68 462.497 1150.58 485.835C1155.47 509.173 1167.15 530.544 1184.15 547.265C1201.15 563.986 1222.71 575.311 1246.13 579.819C1269.54 584.326 1293.77 581.814 1315.76 572.599C1337.75 563.384 1356.53 547.876 1369.74 528.023C1382.95 508.17 1390 484.856 1390 461.011C1389.87 444.987 1386.58 429.146 1380.33 414.392C1374.07 399.639 1364.97 386.262 1353.55 375.026C1342.12 363.789 1328.6 354.913 1313.74 348.904C1298.89 342.895 1283 339.871 1266.97 340.004Z" fill="#F9F9F9"/>
<path d="M1554.19 734.661L1230.82 1050.11L563.874 400L0 950.018V1314H960H1501.64H1920V1091.57L1554.19 734.661Z" fill="#F9F9F9"/>
</g>
<defs>
<clipPath id="clip0_568_1042">
<rect width="1920" height="1314" fill="white"/>
</clipPath>
</defs>
</svg>
