<?xml version="1.0" encoding="utf-8"?>
<!-- Generator: Adobe Illustrator 25.0.1, SVG Export Plug-In . SVG Version: 6.00 Build 0)  -->
<svg version="1.1" id="Layer_1" xmlns="http://www.w3.org/2000/svg" xmlns:xlink="http://www.w3.org/1999/xlink" x="0px" y="0px"
	 viewBox="0 0 38 26" style="enable-background:new 0 0 38 26;" xml:space="preserve">
<style type="text/css">
	.st0{fill:#DDE3E9;}
	.st1{fill:none;stroke:#FFFFFF;stroke-width:0.75;stroke-linecap:round;stroke-linejoin:round;}
	.st2{fill:#FFFFFF;}
</style>
<g id="Layer_4">
	<rect class="st0" width="38" height="26"/>
</g>
<g>
	<path class="st1" d="M16.1,9.7h5.9c0.2,0,0.3,0.2,0.3,0.3v5.9c0,0.2-0.2,0.3-0.3,0.3h-5.9c-0.2,0-0.3-0.2-0.3-0.3v-5.9
		C15.7,9.9,15.9,9.7,16.1,9.7z"/>
	<path id="path_2_" class="st2" d="M20.6,11.2c0.2,0,0.3,0.2,0.2,0.3c0,0.2-0.2,0.3-0.4,0.3c-0.3,0-0.7,0.4-1.2,1.3
		c-0.6,1.2-1.2,1.7-1.8,1.7c-0.2,0-0.3-0.2-0.3-0.3c0-0.2,0.2-0.3,0.3-0.3c0.3,0,0.7-0.4,1.2-1.4C19.4,11.7,19.9,11.1,20.6,11.2z"/>
</g>
</svg>
