<svg id="Layer_1" data-name="Layer 1" xmlns="http://www.w3.org/2000/svg" viewBox="0 0 220 80"><defs><style>.cls-1{fill:#dde3e9;}</style></defs><rect class="cls-1" x="131" width="70" height="80" rx="3"/><rect class="cls-1" x="20" width="22" height="22" rx="3"/><rect class="cls-1" x="20" y="58" width="22" height="22" rx="3"/><rect class="cls-1" x="20" y="29" width="22" height="22" rx="3"/><path class="cls-1" d="M107.48,10a3,3,0,0,1-3,3H60a3,3,0,0,1-3-3h0a3,3,0,0,1,3-3h44.48a3,3,0,0,1,3,3Z"/><path class="cls-1" d="M115,30a3,3,0,0,1-3,3H60a3,3,0,0,1-3-3h0a3,3,0,0,1,3-3h52a3,3,0,0,1,3,3Z"/><path class="cls-1" d="M115,40a3,3,0,0,1-3,3H60a3,3,0,0,1-3-3h0a3,3,0,0,1,3-3h52a3,3,0,0,1,3,3Z"/><path class="cls-1" d="M115,50a3,3,0,0,1-3,3H60a3,3,0,0,1-3-3h0a3,3,0,0,1,3-3h52a3,3,0,0,1,3,3Z"/><path class="cls-1" d="M115,60a3,3,0,0,1-3,3H60a3,3,0,0,1-3-3h0a3,3,0,0,1,3-3h52a3,3,0,0,1,3,3Z"/><path class="cls-1" d="M98.89,70a3,3,0,0,1-3,3H60a3,3,0,0,1-3-3h0a3,3,0,0,1,3-3H95.89a3,3,0,0,1,3,3Z"/></svg>