<?xml version="1.0" encoding="utf-8"?>
<!-- Generator: Adobe Illustrator 25.0.1, SVG Export Plug-In . SVG Version: 6.00 Build 0)  -->
<svg version="1.1" id="Capa_1" xmlns="http://www.w3.org/2000/svg" xmlns:xlink="http://www.w3.org/1999/xlink" x="0px" y="0px"
	 viewBox="0 0 512 512" style="enable-background:new 0 0 512 512;" xml:space="preserve">
<style type="text/css">
	.st0{fill:#FFFFFF;}
</style>
<g>
	<g>
		<path class="st0" d="M54.5,45.4c-5.5,0-10,4.5-10,10s4.5,10,10,10h0.1c5.5,0,9.9-4.5,9.9-10S60,45.4,54.5,45.4z"/>
	</g>
</g>
<g>
	<g>
		<path class="st0" d="M102.5,45.4c-5.5,0-10,4.5-10,10s4.5,10,10,10h0.1c5.5,0,9.9-4.5,9.9-10S108,45.4,102.5,45.4z"/>
	</g>
</g>
<g>
	<g>
		<path class="st0" d="M150.4,45.4c-5.5,0-10,4.5-10,10s4.5,10,10,10h0.1c5.5,0,9.9-4.5,9.9-10S155.9,45.4,150.4,45.4z"/>
	</g>
</g>
<g>
	<g>
		<path class="st0" d="M395.7,45.4H274.3c-5.5,0-10,4.5-10,10s4.5,10,10,10h121.3c5.5,0,10-4.5,10-10S401.2,45.4,395.7,45.4z"/>
	</g>
</g>
<g>
	<g>
		<path class="st0" d="M233.9,396.9c-1.9-1.9-4.4-2.9-7.1-2.9s-5.2,1.1-7.1,2.9c-1.9,1.9-2.9,4.4-2.9,7.1s1.1,5.2,2.9,7.1
			c1.9,1.9,4.4,2.9,7.1,2.9s5.2-1.1,7.1-2.9c1.9-1.9,2.9-4.4,2.9-7.1S235.8,398.8,233.9,396.9z"/>
	</g>
</g>
<g>
	<g>
		<path class="st0" d="M458,128.3V50c0-27.6-22.4-50-50-50H50C22.4,0,0,22.5,0,50V366c0,26.5,21.5,48,48,48h37.5v1.6
			c0,3.4-2.4,6.4-5.8,7.1l-37.7,7.5c-20.9,4.2-36.6,21.2-38.9,42.5l-3.1,28.3c-0.3,2.8,0.6,5.6,2.5,7.8c1.9,2.1,4.6,3.3,7.4,3.3
			h216.8c2.8,0,5.5-1.2,7.4-3.3s2.8-4.9,2.5-7.8l-3.1-28.3c-2.3-21.2-17.9-38.3-38.9-42.5l-37.7-7.5c-3.4-0.7-5.8-3.6-5.8-7.1v-9.4
			c0-0.1,0-0.1,0-0.2l16.9-9.7c0.2-0.1,0.4-0.2,0.5-0.3c9.1-6,15.1-16.7,16-28.6c0-0.3,0-0.5,0-0.8v-41c6-3.9,10.3-11,10.3-23.4
			l0-22.5c0-0.4,0-0.7-0.1-1.1c-1-19.8-17.1-35.2-37.1-35.2h-85c-3.7,0-7.2-2-9.4-3.6c-4.2-3.1-9.7-3.6-14.4-1.2
			c-4.6,2.3-7.5,7-7.5,12.2v32.5c0,11.1,3.9,21.2,10.4,29.2v54c0,0.3,0,0.5,0,0.8c0.8,10.6,5.7,20.3,13.3,26.5H48
			c-15.5,0-28-12.6-28-28V156.1h111.7c5.5,0,10-4.5,10-10s-4.5-10-10-10H20v-28h418V128H275.7c-32.9,0-59.7,26.8-59.7,59.7v83.7
			c0,32.9,26.8,59.7,59.7,59.7h12.5v29.2c0,4,2.4,7.7,6.2,9.2c1.2,0.5,2.5,0.8,3.8,0.8c2.6,0,5.2-1,7.1-2.9l36.3-36.3H438v35
			c0,15.5-12.6,28-28,28H267.5c-5.5,0-10,4.5-10,10s4.5,10,10,10H410c26.5,0,48-21.5,48-48v-35.2c30.2-2.9,54-28.4,54-59.4v-83.7
			C512,156.7,488.3,131.1,458,128.3z M157.8,443.2l33.1,6.6c12.3,2.5,21.5,12.5,22.9,25l1.9,17.2H21.2l1.9-17.2
			c1.4-12.5,10.6-22.6,22.9-25l33.1-6.6c10.9,9.7,24.7,15,39.4,15C133.1,458.2,146.9,452.9,157.8,443.2z M99.1,433.1
			c3.6-4.3,5.9-9.8,6.3-15.7c4.1,2,8.6,3.1,13,3.1c4.4,0,8.8-1,13-3c0.4,5.9,2.7,11.4,6.3,15.7c-5.8,3.3-12.4,5.1-19.3,5.1
			C111.6,438.2,105,436.4,99.1,433.1z M164.8,366.3c-0.5,5.4-3.1,10.4-6.8,12.9l-33.6,19.2c-0.2,0.1-0.4,0.2-0.5,0.3
			c-3.5,2.3-7.4,2.3-10.9,0c-0.2-0.1-0.4-0.2-0.5-0.3L79,379.2c-3.8-2.6-6.4-7.5-6.9-12.9v-39.2c5,1.9,10.4,2.9,16.1,2.9h76.6
			L164.8,366.3L164.8,366.3z M61.7,283.5v-22c3.7,1.4,7.6,2.1,11.3,2.1h85c9.3,0,16.8,7.3,17.1,16.6c0,0.1,0,0.2,0,0.3l0,21.8
			c0,0,0,0,0,0c0,5.1-1,6.3-1.2,6.5c-0.4,0.4-2.2,1.2-6.2,1.2H88.2C73.6,310,61.7,298.1,61.7,283.5z M20,88.1V50
			c0-16.5,13.5-30,30-30h358c16.5,0,30,13.5,30,30v38.1L20,88.1L20,88.1z M492,271.3c0,21.9-17.8,39.7-39.7,39.7H337.4
			c-2.7,0-5.2,1.1-7.1,2.9l-22.2,22.2V321c0-5.5-4.5-10-10-10h-22.5c-21.9,0-39.7-17.8-39.7-39.7v-83.7c0-21.9,17.8-39.7,39.7-39.7
			h176.6c21.9,0,39.7,17.8,39.7,39.7L492,271.3L492,271.3z"/>
	</g>
</g>
<g>
	<g>
		<path class="st0" d="M284,199.1c-16.5,0-30,13.5-30,30s13.5,30,30,30c16.5,0,30-13.5,30-30S300.6,199.1,284,199.1z M284,239.1
			c-5.5,0-10-4.5-10-10c0-5.5,4.5-10,10-10s10,4.5,10,10S289.5,239.1,284,239.1z"/>
	</g>
</g>
<g>
	<g>
		<path class="st0" d="M364,199.1c-16.5,0-30,13.5-30,30s13.5,30,30,30s30-13.5,30-30S380.6,199.1,364,199.1z M364,239.1
			c-5.5,0-10-4.5-10-10c0-5.5,4.5-10,10-10s10,4.5,10,10S369.5,239.1,364,239.1z"/>
	</g>
</g>
<g>
	<g>
		<path class="st0" d="M444,199.1c-16.5,0-30,13.5-30,30s13.5,30,30,30s30-13.5,30-30S460.5,199.1,444,199.1z M444,239.1
			c-5.5,0-10-4.5-10-10c0-5.5,4.5-10,10-10c5.5,0,10,4.5,10,10S449.5,239.1,444,239.1z"/>
	</g>
</g>
<g>
	<g>
		<path class="st0" d="M176.2,139c-1.9-1.9-4.4-2.9-7.1-2.9s-5.2,1.1-7.1,2.9c-1.9,1.9-2.9,4.4-2.9,7.1c0,2.6,1.1,5.2,2.9,7.1
			c1.9,1.9,4.4,2.9,7.1,2.9c2.6,0,5.2-1.1,7.1-2.9c1.9-1.9,2.9-4.4,2.9-7.1C179.2,143.5,178.1,140.9,176.2,139z"/>
	</g>
</g>
</svg>
