<svg id="Layer_1" data-name="Layer 1" xmlns="http://www.w3.org/2000/svg" viewBox="0 0 150 120"><defs><style>.cls-1{fill:#dde3e9;}</style></defs><rect class="cls-1" x="10" y="10" width="38" height="30" rx="3"/><rect class="cls-1" x="102" y="10" width="38" height="30" rx="3"/><rect class="cls-1" x="56" y="10" width="38" height="30" rx="3"/><rect class="cls-1" x="10" y="65" width="38" height="30" rx="3"/><rect class="cls-1" x="102" y="65" width="38" height="30" rx="3"/><rect class="cls-1" x="56" y="65" width="38" height="30" rx="3"/><rect class="cls-1" x="10" y="100" width="38" height="3" rx="1.5"/><rect class="cls-1" x="10" y="107" width="27.5" height="3" rx="1.5"/><rect class="cls-1" x="56" y="100" width="38" height="3" rx="1.5"/><rect class="cls-1" x="56" y="107" width="27.5" height="3" rx="1.5"/><rect class="cls-1" x="102" y="100" width="38" height="3" rx="1.5"/><rect class="cls-1" x="102" y="107" width="27.5" height="3" rx="1.5"/><rect class="cls-1" x="10" y="45" width="38" height="3" rx="1.5"/><rect class="cls-1" x="10" y="52" width="27.5" height="3" rx="1.5"/><rect class="cls-1" x="56" y="45" width="38" height="3" rx="1.5"/><rect class="cls-1" x="56" y="52" width="27.5" height="3" rx="1.5"/><rect class="cls-1" x="102" y="45" width="38" height="3" rx="1.5"/><rect class="cls-1" x="102" y="52" width="27.5" height="3" rx="1.5"/></svg>