<svg id="Layer_1" data-name="Layer 1" xmlns="http://www.w3.org/2000/svg" viewBox="0 0 134 87"><defs><style>.cls-1{fill:none;}.cls-1,.cls-2{stroke:#fff;stroke-linecap:round;stroke-linejoin:round;stroke-width:2px;}.cls-2,.cls-3{fill:#fff;}</style></defs><polygon class="cls-1" points="102.65 58.11 83.41 47.39 77 50.97 102.65 65.26 128.29 50.97 121.88 47.39 102.65 58.11"/><polygon class="cls-1" points="102.65 29.54 77 43.83 102.65 58.11 128.29 43.83 102.65 29.54"/><polygon class="cls-2" points="102.65 21.74 128.29 36.03 102.65 50.32 77 36.03 102.65 21.74"/><rect id="h" class="cls-3" x="64" y="5.6" width="1" height="75.79" rx="0.5"/><path class="cls-3" d="M48.37,21.5H9.63A3.46,3.46,0,0,0,6,24.77V62.23A3.46,3.46,0,0,0,9.63,65.5H48.37A3.46,3.46,0,0,0,52,62.23V24.77A3.46,3.46,0,0,0,48.37,21.5ZM42.09,44a12.89,12.89,0,0,1-4.43,9.7,13.17,13.17,0,0,1-18.48-1.15l-3.27,3.25V46.35h9.52L21.78,50A9.53,9.53,0,0,0,38.6,44a9.36,9.36,0,0,0-.08-1.18h3.57Zm0-3.3H32.57L36.22,37a9.57,9.57,0,0,0-7.29-3.39,9.46,9.46,0,0,0-9.53,9.43,9.36,9.36,0,0,0,.08,1.18H15.91V43.05a13,13,0,0,1,4.47-9.78A13.16,13.16,0,0,1,38.85,34.5l3.24-3.25Z"/></svg>