<svg id="Layer_1" data-name="Layer 1" xmlns="http://www.w3.org/2000/svg" viewBox="0 0 220 63"><defs><style>.cls-1{fill:#dde3e9;}</style></defs><rect class="cls-1" x="20" width="28" height="28" rx="3"/><rect class="cls-1" x="20" y="35" width="28" height="28" rx="3"/><path class="cls-1" d="M200,9a3,3,0,0,1-3,3H66a3,3,0,0,1-3-3h0a3,3,0,0,1,3-3H197a3,3,0,0,1,3,3Z"/><path class="cls-1" d="M153,19a3,3,0,0,1-3,3H66a3,3,0,0,1-3-3h0a3,3,0,0,1,3-3h84a3,3,0,0,1,3,3Z"/><path class="cls-1" d="M200,44a3,3,0,0,1-3,3H66a3,3,0,0,1-3-3h0a3,3,0,0,1,3-3H197a3,3,0,0,1,3,3Z"/><path class="cls-1" d="M153,54a3,3,0,0,1-3,3H66a3,3,0,0,1-3-3h0a3,3,0,0,1,3-3h84a3,3,0,0,1,3,3Z"/></svg>