<svg id="Layer_1" data-name="Layer 1" xmlns="http://www.w3.org/2000/svg" viewBox="0 0 220 54"><defs><style>.cls-1{fill:#dde3e9;}.cls-2{fill:none;stroke:#dde3e9;stroke-linecap:round;stroke-linejoin:round;stroke-width:2px;}</style></defs><rect class="cls-1" x="99" width="22" height="22" rx="3"/><rect class="cls-1" x="70" width="22" height="22" rx="3"/><rect class="cls-1" x="128" width="22" height="22" rx="3"/><path class="cls-1" d="M180,40a3,3,0,0,1-3,3H43a3,3,0,0,1-3-3h0a3,3,0,0,1,3-3H177a3,3,0,0,1,3,3Z"/><path class="cls-1" d="M145,51a3,3,0,0,1-3,3H78a3,3,0,0,1-3-3h0a3,3,0,0,1,3-3h64a3,3,0,0,1,3,3Z"/><polyline class="cls-2" points="7 32.39 1 26.39 7 20.39"/><polyline class="cls-2" points="213 20.39 219 26.39 213 32.39"/></svg>