<svg id="Layer_1" data-name="Layer 1" xmlns="http://www.w3.org/2000/svg" viewBox="0 0 134 87"><defs><style>.cls-1{fill:#dde3e9;}</style></defs><rect class="cls-1" width="26" height="26" rx="3"/><path class="cls-1" d="M134,8a3,3,0,0,1-3,3H40a3,3,0,0,1-3-3h0a3,3,0,0,1,3-3h91a3,3,0,0,1,3,3Z"/><path class="cls-1" d="M101,18a3,3,0,0,1-3,3H40a3,3,0,0,1-3-3h0a3,3,0,0,1,3-3H98a3,3,0,0,1,3,3Z"/><rect class="cls-1" y="60" width="26" height="26" rx="3"/><path class="cls-1" d="M134,68a3,3,0,0,1-3,3H40a3,3,0,0,1-3-3h0a3,3,0,0,1,3-3h91a3,3,0,0,1,3,3Z"/><path class="cls-1" d="M101,78a3,3,0,0,1-3,3H40a3,3,0,0,1-3-3h0a3,3,0,0,1,3-3H98a3,3,0,0,1,3,3Z"/><rect class="cls-1" y="30" width="26" height="26" rx="3"/><path class="cls-1" d="M134,38a3,3,0,0,1-3,3H40a3,3,0,0,1-3-3h0a3,3,0,0,1,3-3h91a3,3,0,0,1,3,3Z"/><path class="cls-1" d="M101,48a3,3,0,0,1-3,3H40a3,3,0,0,1-3-3h0a3,3,0,0,1,3-3H98a3,3,0,0,1,3,3Z"/></svg>