<?xml version="1.0" encoding="utf-8"?>
<!-- Generator: Adobe Illustrator 25.0.1, SVG Export Plug-In . SVG Version: 6.00 Build 0)  -->
<svg version="1.1" id="Layer_1" xmlns="http://www.w3.org/2000/svg" xmlns:xlink="http://www.w3.org/1999/xlink" x="0px" y="0px"
	 viewBox="0 0 38 26" style="enable-background:new 0 0 38 26;" xml:space="preserve">
<style type="text/css">
	.st0{fill:#DDE3E9;}
	.st1{fill:#FFFFFF;}
</style>
<g id="Layer_4">
	<rect class="st0" width="38" height="26"/>
</g>
<g>
	<g>
		<path class="st1" d="M22.9,12.8l-2-2.2c-0.1-0.1-0.3-0.1-0.5,0c-0.1,0.1-0.1,0.3,0,0.5l1.8,1.9l-1.8,1.9c-0.1,0.1-0.1,0.3,0,0.5
			c0.1,0.1,0.1,0.1,0.2,0.1c0.1,0,0.2,0,0.2-0.1l2-2.2C23,13.1,23,12.9,22.9,12.8z"/>
	</g>
</g>
<g>
	<g>
		<path class="st1" d="M16.8,14.9L15,13l1.8-1.9c0.1-0.1,0.1-0.3,0-0.5c-0.1-0.1-0.3-0.1-0.5,0l-2,2.2c-0.1,0.1-0.1,0.3,0,0.5l2,2.2
			c0.1,0.1,0.2,0.1,0.2,0.1c0.1,0,0.2,0,0.2-0.1C16.9,15.3,16.9,15.1,16.8,14.9z"/>
	</g>
</g>
<g>
	<g>
		<path class="st1" d="M19.1,9.5c-0.2,0-0.3,0.1-0.4,0.3l-1,6.3c0,0.2,0.1,0.3,0.3,0.4c0,0,0,0,0.1,0c0.2,0,0.3-0.1,0.3-0.3l1-6.3
			C19.4,9.7,19.3,9.5,19.1,9.5z"/>
	</g>
</g>
</svg>
