<svg id="Layer_1" data-name="Layer 1" xmlns="http://www.w3.org/2000/svg" viewBox="0 0 38 26"><defs><style>.cls-1{fill:#dde3e9;}.cls-2{fill:#fff;fill-rule:evenodd;}</style></defs><g id="Layer_4" data-name="Layer 4"><rect class="cls-1" width="38" height="26"/><path class="cls-2" d="M19,10a3,3,0,0,1,2,.79.5.5,0,0,0-.54.51c0,.72.86.88.39,2.33l-.4,1.2-1.07-3.17s0-.07.06-.07h.3a0,0,0,0,0,0,0v-.18a0,0,0,0,0,0,0c-.57,0-1.15,0-1.71,0a0,0,0,0,0,0,0v.18a0,0,0,0,0,0,0h.3c.07,0,.09,0,.1.06l.45,1.21-.67,2-1.09-3.22s0-.06,0-.06h.35l0,0v-.18a0,0,0,0,0,0,0c-.37,0-.73,0-1.08,0A3,3,0,0,1,19,10Zm2.65,1.58a3,3,0,0,1-1.21,4.07L21.38,13a4.25,4.25,0,0,0,.27-1.41ZM20,15.84A3.1,3.1,0,0,1,19,16a3.23,3.23,0,0,1-.88-.13l.93-2.66,1,2.62Zm-2.3-.12A3,3,0,0,1,16,13a3,3,0,0,1,.27-1.25l1.45,4Zm1.29-6A3.29,3.29,0,1,1,15.71,13,3.29,3.29,0,0,1,19,9.71Zm0-.21A3.5,3.5,0,1,1,15.5,13,3.5,3.5,0,0,1,19,9.5Z"/></g></svg>