<svg xmlns="http://www.w3.org/2000/svg" viewBox="0 0 38 26"><defs><style>.cls-1,.cls-2{fill:#dde3e9;}.cls-2{stroke:#f9f9f9;stroke-miterlimit:10;stroke-width:0.2px;}.cls-3{fill:#f9f9f9;}</style></defs><g id="Layer_4" data-name="Layer 4"><path class="cls-1" d="M6.84,24.21a8.31,8.31,0,0,0-.92.52L7.42,26H9.57l-.4-3C8.24,23.49,7.41,23.93,6.84,24.21Z"/><path class="cls-1" d="M5.23,25.6a.55.55,0,0,1-.36-.46A.63.63,0,0,1,5,24.75L1.57,21.84c-.7.47-1.27.87-1.57,1.08V26H6.46l-1-.89Z"/><path class="cls-1" d="M9.75,22.69,10.19,26h.27L10,22.56Z"/><path class="cls-1" d="M0,20.51v1.65l1.08-.74Z"/><path class="cls-1" d="M2.29,20.62,0,18.88v.81l1.61,1.37Z"/><polygon class="cls-1" points="6.99 0 5.35 0 6.54 0.73 6.99 0"/><path class="cls-1" d="M3.32,5a17.34,17.34,0,0,1-.7-3c0-.15-.15-1-.34-2.08h0L.31,2.75Z"/><path class="cls-1" d="M5.74,19.28a42,42,0,0,0-3.64,2.2l3.33,2.84a8.42,8.42,0,0,1,1.13-.67c.61-.3,1.52-.78,2.52-1.31l-.6-4.48C7.4,18.43,6.4,19,5.74,19.28Z"/><polygon class="cls-1" points="2.19 6.96 2.76 6.03 3.45 5.91 0 3.29 0 5.87 0.54 6.13 2.19 6.96"/><polygon class="cls-1" points="10.16 2.97 12.09 0 7.71 0 7.07 1.06 10.16 2.97"/><path class="cls-1" d="M9.06,17.54,9.66,22l.23-.12-.68-4.45Z"/><polygon class="cls-1" points="24.96 22.28 18.68 25.45 18.77 26 25.43 26 25.52 25.95 24.96 22.28"/><path class="cls-1" d="M17.48,22.85,15,24.13c.06.56.14,1.18.22,1.87h2.88L18,25.33Z"/><polygon class="cls-1" points="26.66 26 28.73 26 28.23 25.09 26.66 26"/><polygon class="cls-1" points="0 0 0 2.11 1.47 0 0 0"/><polygon class="cls-1" points="29.65 24.85 29.77 26 31.52 26 31.42 24.7 29.65 24.85"/><path class="cls-1" d="M23.56,12.3,23.33,10l-3.07,1.31h0l.86,2.16A14.83,14.83,0,0,1,23.56,12.3Z"/><path class="cls-1" d="M12.69,25.37,11.61,26H14c-.06-.45-.1-.86-.15-1.25Z"/><path class="cls-1" d="M13.84,24.53c-.05-.42-.1-.81-.14-1.18-.11-1-.2-1.83-.3-2.62l-2.83,1.52L11.09,26h.11l1.39-.81Z"/><polygon class="cls-1" points="36.56 23.61 38 23.49 38 21.75 36.44 21.91 36.56 23.61"/><path class="cls-1" d="M15,23.91l2.41-1.27-.8-3.6-1.57.79-.49.26c.12.94.23,1.91.37,3.12C15,23.44,15,23.67,15,23.91Z"/><rect class="cls-1" x="35.5" width="2.5" height="0.07"/><path class="cls-1" d="M35.49,5V8.81L38,8.63V5C37,5,36.11,5,35.6,5Z"/><path class="cls-1" d="M35.8,13.24l2.2-.15V11.63l-2.31.13Z"/><path class="cls-1" d="M35.64,11.14,38,11V9.25l-2.48.18Z"/><path class="cls-1" d="M36.39,21.29,38,21.13V19.44a3.1,3.1,0,0,1-1.09-1.1c-.31-.57-.73-2.38.1-2.95.55-.37.79-.29,1,0V13.71l-2.16.15Z"/><polygon class="cls-1" points="34.88 0.08 34.88 0 32.63 0 32.63 0.18 34.88 0.08"/><path class="cls-1" d="M35.49,4.81c.49,0,1.38,0,2.51-.06V.69H35.49Z"/><path class="cls-1" d="M6.2,6.84l.46.34L9.79,3.47,4.17,0H3.54c.17,1,.28,1.74.3,1.87C4.44,5.5,5.06,6,6.2,6.84Z"/><path class="cls-1" d="M14.77,19.28l1.72-.86-.43-1.92-1.92,1.21c.13.54.23,1.12.33,1.73Z"/><polygon class="cls-1" points="32 0.21 32.01 0 30.84 0 30.84 0.26 32 0.21"/><path class="cls-1" d="M9.79,17.15l.68,4.45c1-.55,2-1.1,2.84-1.53a17.59,17.59,0,0,0-1-4.26Z"/><path class="cls-1" d="M15.93,15.85l-.24-1.51a1,1,0,0,1-.36-.22L14,14.89s-.24.14-.61.33A14.48,14.48,0,0,1,14,17.08Z"/><path class="cls-1" d="M8,8.23s2.07,2.43,3.34,3.79a10.26,10.26,0,0,1,1.77,2.64l.56-.31,1.42-.8v0a.84.84,0,0,1,.36-.7l-.11-.74L14.89,9,12.23,4.73l-1.89-1L7.15,7.56,8,8.17Z"/><polygon class="cls-1" points="30.21 0.28 30.22 0 27.62 0 27.53 0.4 30.21 0.28"/><polygon class="cls-1" points="26.89 0.43 26.98 0 24.19 0 24.25 0.54 26.89 0.43"/><path class="cls-1" d="M27.28,22.1,28.75,22l-.33-3.31-1.84.48c.06.72.1,1.39.14,2Z"/><path class="cls-1" d="M22.56,20.18l-4.51,2.37.5,2.27,6.31-3.19-.3-2Z"/><path class="cls-1" d="M25.65,14.55a7.38,7.38,0,0,0-1.18.37l.66,4.38.83-.21C25.86,17.67,25.73,15.84,25.65,14.55Z"/><path class="cls-1" d="M26,19.3l-.8.21.28,1.83.64-.33C26.07,20.7,26,20.07,26,19.3Z"/><polygon class="cls-1" points="28.81 22.59 27.61 22.7 28.52 24.33 28.98 24.29 28.81 22.59"/><path class="cls-1" d="M24.53,19.46l-.65-4.28a12.35,12.35,0,0,0-2.2,1.33l-.05,0L17.2,18.76l.8,3.58L22.5,20Z"/><polygon class="cls-1" points="25.54 21.98 26.1 25.61 27.92 24.54 26.29 21.61 25.54 21.98"/><path class="cls-1" d="M25.61,13.92c0-.49-.05-.84-.05-.94s0-.29-.08-.62a12.07,12.07,0,0,0-1.25.36l.16,1.56A9.56,9.56,0,0,1,25.61,13.92Z"/><path class="cls-1" d="M24,9.94l.22,2.14a11.47,11.47,0,0,1,1.22-.33c-.07-.45-.17-1-.27-1.63Z"/><path class="cls-1" d="M23.79,14.53l-.16-1.59a16.09,16.09,0,0,0-2.25,1.12l0,0-4.71,2.1.43,1.95L21.32,16A13,13,0,0,1,23.79,14.53Z"/><path class="cls-1" d="M25,9.48c-.33-2-.75-4.4-1.09-6.31l-.22-2-.85,0,0,1.32.27,4.09.67,2.67Z"/><polygon class="cls-1" points="29.43 22.54 29.59 24.23 31.37 24.08 31.24 22.39 29.43 22.54"/><polygon class="cls-1" points="31.86 22.33 31.99 24.02 33.74 23.87 33.57 22.19 31.86 22.33"/><polygon class="cls-1" points="34.19 22.13 34.36 23.81 35.94 23.67 35.82 21.97 34.19 22.13"/><polygon class="cls-1" points="32.04 24.64 32.14 26 33.95 26 33.8 24.48 32.04 24.64"/><polygon class="cls-1" points="38 24.11 36.61 24.23 36.74 26 38 26 38 24.11"/><polygon class="cls-1" points="28.85 24.92 29.08 25.34 29.04 24.91 28.85 24.92"/><path class="cls-1" d="M33.08,17.42l-1.57.43.3,3.86,1.7-.14Z"/><path class="cls-1" d="M25.65,9.52l1.86-.14,0-.28-.68-8-2.48.11.22,1.92C24.64,3.65,25.21,6.89,25.65,9.52Z"/><path class="cls-1" d="M30.9,18,29,18.5l.34,3.42,1.82-.15Z"/><path class="cls-1" d="M32.74,14.07l-1.52.1.27,3.47,1.57-.43Z"/><path class="cls-1" d="M35.22,13.9l-.58,0L33.36,14l.76,7.48,1.65-.16Z"/><path class="cls-1" d="M31,11.41l1.57-.09-.1-1.67-1.61.11Z"/><path class="cls-1" d="M32.42,9,32,.83,30.83.88V9.14Z"/><path class="cls-1" d="M29,18.29l1.87-.49-.28-3.59-2,.12Z"/><path class="cls-1" d="M28.13,9.34l2.08-.15V.91L27.42,1l.68,8Z"/><path class="cls-1" d="M33.22,11.9l.09,1.51,1.28-.09.59,0-.11-1.48-.49,0Z"/><path class="cls-1" d="M31.17,13.55l1.53-.1-.1-1.51L31,12Z"/><path class="cls-1" d="M34.87,8.85V.7L32.62.8,33,9Z"/><path class="cls-1" d="M27.72,11.56,27.57,10l-1.82.13c.09.56.18,1.08.25,1.51a7.77,7.77,0,0,1,1-.07Z"/><path class="cls-1" d="M28.56,13.71l2-.12-.13-1.53-2,.09Z"/><path class="cls-1" d="M28.34,11.54l2-.1-.14-1.63-2,.15Z"/><path class="cls-1" d="M8.78,11l.38,1,.55,4.49L12,15.25a9.25,9.25,0,0,0-1.59-2.38C9.94,12.34,9.34,11.67,8.78,11Z"/><polygon class="cls-1" points="35.99 24.29 34.42 24.43 34.58 26 35.38 26 36.11 25.93 35.99 24.29"/><path class="cls-1" d="M26.22,13.81a6.3,6.3,0,0,1,.75-.05l1,0-.16-1.56H27a6.52,6.52,0,0,0-.88.07,7.08,7.08,0,0,1,.09.72C26.18,13.07,26.2,13.37,26.22,13.81Z"/><path class="cls-1" d="M28.4,18.45,28,14.36l-1,0a5.65,5.65,0,0,0-.71,0c.08,1.2.2,2.92.31,4.5Z"/><path class="cls-1" d="M33.18,11.28l1.36-.07.48,0L34.9,9.47l-1.82.13Z"/><path class="cls-1" d="M16.79,13.53a.86.86,0,0,1-.48.76l.2,1.26,4.56-2,0,0-.86-2.16-3.48,2A.71.71,0,0,1,16.79,13.53Z"/><polygon class="cls-1" points="23.63 0.57 23.57 0 22.68 0 22.78 0.61 23.63 0.57"/><path class="cls-1" d="M5.47,18.73c.83-.42,2.24-1.17,3.65-1.92l-.58-4.7L7.6,9.66l-.5-.58L5.45,7.83A5.59,5.59,0,0,1,3.89,6.25l-.44-.34L2.76,6,2.19,7,.53,6.13,0,5.87v13l2.29,1.74A34.18,34.18,0,0,1,5.47,18.73Z"/><path class="cls-1" d="M12.67,4.25l2.82,4.51L16,12l.11.7a.93.93,0,0,1,.33.12l3.61-2,3.23-1.39L22.55,6.7l-.27-4.13L22.21,1l-.16-1H12.83L10.71,3.27Zm5.84-.74c.15-.55,2.08-.37,1.71,0s-.84,1.07-1.38.5C18.59,3.79,18.36,4.07,18.51,3.51Zm-3.2.17c.27-1,3-1,2.33-.24A.93.93,0,0,0,18.08,5,2.93,2.93,0,0,1,20,6.6c.35,1.09-1.29,1.55-1.72,1.44s-.64-.73-1-.75-.92.49-1.7,0,1.26-1.63.29-2.65C15.45,4.17,15,4.68,15.31,3.68Z"/><path class="cls-2" d="M15.9,4.64c1,1-1.07,2.16-.29,2.65s1.33,0,1.7,0,.59.64,1,.75S20.39,7.69,20,6.6a2.93,2.93,0,0,0-2-1.63.93.93,0,0,1-.44-1.53c.66-.74-2.06-.76-2.33.24S15.45,4.17,15.9,4.64Z"/><path class="cls-2" d="M18.84,4.05c.54.57,1-.09,1.38-.5s-1.56-.59-1.71,0S18.59,3.79,18.84,4.05Z"/><path class="cls-1" d="M37,15.39c-.83.57-.41,2.38-.1,2.95A3.1,3.1,0,0,0,38,19.44V15.38C37.8,15.1,37.56,15,37,15.39Z"/><path class="cls-3" d="M13.4,20.73c0-.19-.05-.38-.08-.57,0,0,0-.06,0-.09-.79.43-1.8,1-2.84,1.53l-.68-4.45,2.48-1.34a5.62,5.62,0,0,0-.25-.56L9.71,16.49,9.16,12l-.38-1c-.2-.23-.4-.45-.58-.67L8.85,12l.62,5.05-.75.28L2.55,20.82l-.26-.2-.68.44L0,19.69v.82l1.08.91L0,22.16v.76c.3-.21.87-.61,1.57-1.08L5,24.75a.63.63,0,0,0-.12.39.55.55,0,0,0,.36.46l.18-.49,1,.89h1l-1.5-1.27a8.31,8.31,0,0,1,.92-.52c.57-.28,1.4-.72,2.33-1.21l.4,3h.62l-.44-3.31.24-.13L10.46,26h.63l-.52-3.75ZM6.56,23.65a8.42,8.42,0,0,0-1.13.67L2.1,21.48a42,42,0,0,1,3.64-2.2c.66-.33,1.66-.85,2.74-1.42l.6,4.48C8.08,22.87,7.17,23.35,6.56,23.65ZM9.66,22l-.6-4.49.15-.08.68,4.45Z"/><path class="cls-3" d="M3.68,5.87A5.43,5.43,0,0,1,3.32,5l-3-2.29L2.23,0H1.47L0,2.11V3.29L3.45,5.91Z"/><path class="cls-3" d="M13.86,24.75l0-.22-1.25.66L11.2,26h.41l1.08-.63Z"/><path class="cls-3" d="M38,24.11v-.62l-1.44.12-.12-1.7L38,21.75v-.62l-1.61.16-.55-7.43L38,13.71v-.62l-2.2.15-.11-1.48L38,11.63V11l-2.36.13-.12-1.71L38,9.25V8.63l-2.51.18V5h.11C36.11,5,37,5,38,5V4.75c-1.13,0-2,.07-2.51.06V.69H38V.07H35.5V0h-.62V.08l-2.25.1V0H32V.21L30.84.26V0h-.62V.28L27.53.4l.09-.4H27l-.09.43L24.25.54,24.19,0h-.58l.07.93H22.52l.07,1.62.27,4.13.74,2.9-3.48,1.48.12.29h0L23.33,10l.23,2.27a14.83,14.83,0,0,0-2.46,1.21l.12.29L16.29,16l-.55-3.29-.55-3.83L14.1,6.68,12.45,4.49l-2.19-1.1,2-2.9L12.64,0h-.55L10.17,3,7.07,1.06,7.71,0H7L6.54.74,5.35,0H4.17L9.79,3.47,6.66,7.18l.49.38,3.19-3.78,1.89,1L14.89,9l.45,3.11.11.74a.84.84,0,0,0-.36.7v0l-1.42.8-.56.31c.09.18.17.37.25.56.37-.19.6-.32.61-.33l1.36-.77a1,1,0,0,0,.36.22l.24,1.51L14,17.08c.06.2.11.41.16.63l1.92-1.21.43,1.92-1.72.86-.3.16c0,.19.06.37.08.56l0,.09.49-.26L16.63,19l.8,3.6L15,23.91l0,.22,2.44-1.28L18,25.33l.11.67h.63l-.09-.55L25,22.28l.56,3.66-.09.06h1.23l1.57-.91.5.91h1l-.12-1.15,1.77-.15.1,1.3h.62L32,24.64l1.76-.16L34,26h.62l-.16-1.57L36,24.29l.12,1.64-.73.07h1.36l-.13-1.77ZM35.18,13.28l-.59,0-1.28.09-.09-1.51,1.36-.07.49,0ZM34.9,9.47,35,11.18l-.48,0-1.36.07-.1-1.68Zm0-8.77V8.85L33,9,32.62.8ZM32.7,13.45l-1.53.1L31,12l1.56-.08Zm-.14-2.13L31,11.41l-.14-1.65,1.61-.11ZM32,.83,32.42,9l-1.59.11V.88Zm-1.12,17L29,18.29l-.39-4,2-.12ZM27,12.19h.81l.16,1.56-1,0a6.3,6.3,0,0,0-.75.05c0-.44,0-.74,0-.83a7.08,7.08,0,0,0-.09-.72A6.52,6.52,0,0,1,27,12.19Zm-1-.55c-.07-.43-.16-1-.25-1.51L27.57,10l.15,1.56H27A7.77,7.77,0,0,0,26,11.64Zm1,2.74,1,0,.4,4.09-1.83.48c-.11-1.58-.23-3.3-.31-4.5A5.65,5.65,0,0,1,27,14.38Zm1.45,4.28L28.75,22l-1.47.13-.56-1c0-.57-.08-1.24-.14-2Zm2.13-5.07-2,.12-.16-1.56,2-.09Zm-.32-3.78.14,1.63-2,.1L28.19,10Zm0-8.9V9.19l-2.08.15,0-.3-.68-8Zm-3.41.14.68,8,0,.28-1.86.14c-.44-2.63-1-5.87-1.11-6.44l-.22-1.92ZM25.48,12.36c.05.33.08.55.08.62s0,.45.05.94a9.56,9.56,0,0,0-1.22.36l-.16-1.56A12.07,12.07,0,0,1,25.48,12.36Zm-1.31-.28L24,9.94l1.17.18c.1.62.2,1.18.27,1.63A11.47,11.47,0,0,0,24.17,12.08Zm-1-5.45L22.9,2.54l0-1.32.85,0,.22,2c.34,1.91.76,4.34,1.09,6.31L23.84,9.3Zm-6.54,9.55,4.71-2.1,0,0a16.09,16.09,0,0,1,2.25-1.12l.16,1.59A13,13,0,0,0,21.32,16l-4.26,2.13ZM18,22.34l-.8-3.58,4.43-2.22.05,0a12.35,12.35,0,0,1,2.2-1.33l.65,4.28-2,.52Zm.55,2.48-.5-2.27,4.51-2.37,2-.52.3,2Zm5.92-9.9a7.38,7.38,0,0,1,1.18-.37c.08,1.29.21,3.12.31,4.54l-.83.21Zm1,6.42-.28-1.83.8-.21c.06.77.1,1.4.12,1.71Zm.65,4.27L25.54,22l.75-.37,1.63,2.93Zm1.51-2.92,1.2-.1.16,1.7-.45,0Zm1.24,2.23H29l0,.43ZM29,18.5,30.9,18l.29,3.76-1.82.15Zm.56,5.73-.16-1.69,1.81-.16.13,1.7Zm1.63-10.06,1.52-.1.32,3.14-1.57.43Zm.29,3.68,1.57-.43.43,4.15-1.7.14ZM32,24l-.13-1.69,1.71-.14.17,1.68Zm1.37-10,1.28-.09.58,0,.55,7.45-1.65.16Zm1,9.78-.17-1.68L35.82,22l.12,1.7Z"/><path class="cls-3" d="M10.26,3.39l2.19,1.1L14.1,6.68l1.09,2.19.55,3.83L16.29,16l4.93-2.19-.12-.29,0,0-4.56,2-.2-1.26a.86.86,0,0,0,.48-.76.71.71,0,0,0,0-.21l3.48-2-.12-.29L23.6,9.58l-.74-2.9-.27-4.13L22.52.93h1.16L23.61,0h0l.06.57-.85,0L22.68,0h-.63l.16,1,.07,1.61.27,4.13.68,2.69L20,10.78l-3.61,2a.93.93,0,0,0-.33-.12L16,12l-.46-3.23L12.67,4.25l-2-1L12.83,0h-.19l-.35.49Z"/><path class="cls-3" d="M3.45,5.91l.44.34c-.07-.12-.14-.24-.21-.38Z"/><path class="cls-3" d="M8.54,12.11l.58,4.7c-1.41.75-2.82,1.5-3.65,1.92a34.18,34.18,0,0,0-3.18,1.89l.26.2,6.17-3.45.75-.28L8.85,12,8.2,10.36l-.6-.7Z"/><path class="cls-3" d="M12.46,15.72l-.19.09a17.59,17.59,0,0,1,1,4.26l.19-.1A17.85,17.85,0,0,0,12.46,15.72Z"/><path class="cls-3" d="M7.84,8.36s2.07,2.44,3.35,3.8a10.37,10.37,0,0,1,1.74,2.6l.18-.1A10.26,10.26,0,0,0,11.34,12C10.07,10.66,8,8.25,8,8.23l0-.06-.81-.61L7,7.72Z"/><path class="cls-3" d="M3.32,5l.31.23A15.51,15.51,0,0,1,2.82,2c0-.14-.15-.93-.33-2H2.28c.19,1.13.31,1.93.34,2.08A17.34,17.34,0,0,0,3.32,5Z"/><path class="cls-3" d="M14.27,19.55l.2-.11c-.1-.61-.2-1.19-.33-1.73l-.19.12C14.08,18.37,14.18,18.94,14.27,19.55Z"/><path class="cls-3" d="M13.8,17.19l.18-.11a14.48,14.48,0,0,0-.62-1.86l-.18.1A15.18,15.18,0,0,1,13.8,17.19Z"/><path class="cls-3" d="M13.91,23.33c-.12-1-.22-1.89-.32-2.71l-.19.11c.1.79.19,1.62.3,2.62,0,.37.09.76.14,1.18l.19-.1C14,24,14,23.67,13.91,23.33Z"/><path class="cls-3" d="M13.86,24.75c.05.39.09.8.15,1.25h.21c-.06-.49-.11-.93-.16-1.35Z"/><path class="cls-3" d="M14.84,24.23c.07.54.13,1.12.21,1.77h.21c-.08-.69-.16-1.31-.22-1.87Z"/><path class="cls-3" d="M10.58,12.73c-.6-.64-1.36-1.51-2-2.26l.21.56c.56.64,1.16,1.31,1.65,1.84A9.25,9.25,0,0,1,12,15.25l.18-.1A8.92,8.92,0,0,0,10.58,12.73Z"/><path class="cls-3" d="M6.08,7l.44.34.14-.16L6.2,6.84C5.06,6,4.44,5.5,3.84,1.87c0-.13-.13-.85-.3-1.87H3.33c.17,1,.29,1.77.31,1.91C4.25,5.61,4.94,6.14,6.08,7Z"/><path class="cls-3" d="M14.73,23.24c0,.24.06.5.09.77l.2-.1c0-.24-.06-.47-.08-.7-.14-1.21-.25-2.18-.37-3.12l-.2.11C14.49,21.11,14.6,22.06,14.73,23.24Z"/><path class="cls-3" d="M7.24,8.93,5.58,7.66a6.62,6.62,0,0,1-1.12-1l-.57-.43A5.59,5.59,0,0,0,5.45,7.83L7.1,9.08l.5.58-.23-.58Z"/><path class="cls-3" d="M3.9,5.87q-.13-.27-.27-.6L3.32,5a5.43,5.43,0,0,0,.36.83l.19,0Z"/><polygon class="cls-3" points="7.01 7.72 7.15 7.56 6.66 7.18 6.52 7.34 7.01 7.72"/><path class="cls-3" d="M13.53,20.14l0-.17-.19.1s0,.06,0,.09c0,.19,0,.38.08.57l.19-.11Z"/><path class="cls-3" d="M8,9.79l.22.57c.18.22.38.44.58.67l-.21-.56Z"/><path class="cls-3" d="M13.84,24.53l0,.22.2-.1,0-.22Z"/><path class="cls-3" d="M12.2,15.15l-.18.1a5.62,5.62,0,0,1,.25.56l.19-.09C12.38,15.52,12.29,15.33,12.2,15.15Z"/><path class="cls-3" d="M13.18,15.32l.18-.1c-.08-.19-.16-.38-.25-.56l-.18.1C13,14.94,13.1,15.13,13.18,15.32Z"/><path class="cls-3" d="M14.84,24.23l.2-.1,0-.22-.2.1Z"/><path class="cls-3" d="M14,17.83l.19-.12c-.05-.22-.1-.43-.16-.63l-.18.11C13.85,17.4,13.91,17.61,14,17.83Z"/><path class="cls-3" d="M14.35,20s0,.11,0,.17l.2-.11,0-.09c0-.19-.05-.37-.08-.56l-.2.11C14.3,19.71,14.33,19.86,14.35,20Z"/><path class="cls-3" d="M3.9,5.87l0,0-.19,0c.07.14.14.26.21.38l.57.43A4.41,4.41,0,0,1,3.9,5.87Z"/><path class="cls-3" d="M7.37,9.08l.23.58.6.7L8,9.79Z"/><path class="cls-1" d="M13.91,23.33c0,.34.08.71.12,1.1l.79-.42c0-.27-.06-.53-.09-.77-.13-1.18-.24-2.13-.36-3l-.78.42C13.69,21.44,13.79,22.29,13.91,23.33Z"/><path class="cls-1" d="M13.5,20l.77-.42c-.09-.61-.19-1.18-.32-1.72l-.22.14-.33-.53.4-.25a15.18,15.18,0,0,0-.62-1.87l-.72.4A17.85,17.85,0,0,1,13.5,20Z"/><path class="cls-1" d="M7.78,8.43l.79,2c.65.75,1.41,1.62,2,2.26a8.92,8.92,0,0,1,1.62,2.42l.73-.39a10.37,10.37,0,0,0-1.74-2.6C9.91,10.8,7.86,8.38,7.84,8.36L7,7.72,7,7.8Z"/><path class="cls-1" d="M14.06,24.65c0,.42.1.86.16,1.35h.83c-.08-.65-.14-1.23-.21-1.77Z"/><path class="cls-1" d="M3.63,5.27,6.45,7.42l.07-.08L6.08,7C4.94,6.14,4.25,5.61,3.64,1.91,3.62,1.77,3.5,1,3.33,0H2.49c.18,1.11.31,1.9.33,2A15.51,15.51,0,0,0,3.63,5.27Z"/><path class="cls-1" d="M4.46,6.68a6.62,6.62,0,0,0,1.12,1L7.24,8.93l.13.15-.1-.26Z"/><path class="cls-1" d="M13.53,20.14l.06.48.78-.42c0-.06,0-.12,0-.17s0-.32-.08-.48L13.5,20Z"/><path class="cls-1" d="M13.73,18l.22-.14c0-.22-.1-.43-.15-.64l-.4.25Z"/><path class="cls-1" d="M14,24.43l0,.22.78-.42,0-.22Z"/><path class="cls-1" d="M12.46,15.72l.72-.4c-.08-.19-.17-.38-.25-.56l-.73.39C12.29,15.33,12.38,15.52,12.46,15.72Z"/><path class="cls-1" d="M7.53,8.63,8,9.79l.59.68-.79-2L7,7.8,7,7.72l-.49-.38-.07.08L3.63,5.27q.14.33.27.6Z"/><path class="cls-1" d="M3.9,5.87a4.41,4.41,0,0,0,.56.81L7.27,8.82l.1.26L8,9.79,7.53,8.63Z"/></g></svg>