<svg id="Layer_1" data-name="Layer 1" xmlns="http://www.w3.org/2000/svg" viewBox="0 0 220 80"><defs><style>.cls-1{fill:#dde3e9;}.cls-2{fill:none;stroke:#dde3e9;stroke-linecap:round;stroke-linejoin:round;stroke-width:2px;}</style></defs><rect class="cls-1" x="20" width="85" height="80" rx="3"/><path class="cls-1" d="M189.19,10a3,3,0,0,1-3,3H123a3,3,0,0,1-3-3h0a3,3,0,0,1,3-3h63.19a3,3,0,0,1,3,3Z"/><path class="cls-1" d="M200,30a3,3,0,0,1-3,3H123a3,3,0,0,1-3-3h0a3,3,0,0,1,3-3h74a3,3,0,0,1,3,3Z"/><path class="cls-1" d="M200,40a3,3,0,0,1-3,3H123a3,3,0,0,1-3-3h0a3,3,0,0,1,3-3h74a3,3,0,0,1,3,3Z"/><path class="cls-1" d="M200,50a3,3,0,0,1-3,3H123a3,3,0,0,1-3-3h0a3,3,0,0,1,3-3h74a3,3,0,0,1,3,3Z"/><path class="cls-1" d="M200,60a3,3,0,0,1-3,3H123a3,3,0,0,1-3-3h0a3,3,0,0,1,3-3h74a3,3,0,0,1,3,3Z"/><path class="cls-1" d="M178.38,70a3,3,0,0,1-3,3H123a3,3,0,0,1-3-3h0a3,3,0,0,1,3-3h52.38a3,3,0,0,1,3,3Z"/><polyline class="cls-2" points="13.13 47 7.13 53 1.13 47"/><polyline class="cls-2" points="0.87 33 6.87 27 12.87 33"/></svg>