<svg id="th_color" xmlns="http://www.w3.org/2000/svg" viewBox="0 0 26 26"><defs><style>.cls-1{fill:none;stroke:#304050;stroke-linecap:round;stroke-linejoin:round;stroke-width:1.5px;}.cls-2{fill:#304050;}</style></defs><path class="cls-1" d="M10.31,14H4.69A.65.65,0,0,1,4,13.39V7.61A.65.65,0,0,1,4.69,7h5.62a.65.65,0,0,1,.69.61v5.78A.65.65,0,0,1,10.31,14Z"/><line class="cls-1" x1="4" y1="17" x2="9" y2="17"/><path class="cls-1" d="M21.31,14H15.69a.65.65,0,0,1-.69-.61V7.61A.65.65,0,0,1,15.69,7h5.62a.65.65,0,0,1,.69.61v5.78A.65.65,0,0,1,21.31,14Z"/><line class="cls-1" x1="15" y1="17" x2="19" y2="17"/><circle class="cls-2" cx="10" cy="21" r="1"/><circle class="cls-2" cx="13" cy="21" r="1"/><circle class="cls-2" cx="16" cy="21" r="1"/></svg>