<svg width="26" height="26" viewBox="0 0 26 26" fill="none" xmlns="http://www.w3.org/2000/svg">
<mask id="mask0_1849_21381" style="mask-type:luminance" maskUnits="userSpaceOnUse" x="5" y="5" width="16" height="15">
<path d="M13.0402 19.8586C17.0991 19.8586 20.3895 16.6584 20.3895 12.7106C20.3895 8.76289 17.0991 5.56262 13.0402 5.56262C8.98132 5.56262 5.69092 8.76289 5.69092 12.7106C5.69092 16.6584 8.98132 19.8586 13.0402 19.8586Z" fill="white"/>
</mask>
<g mask="url(#mask0_1849_21381)">
<path d="M9.73413 12.5167C9.73413 12.5167 10.7136 12.0859 10.5175 12.8028C10.3213 13.5198 9.53798 14.5654 9.78285 14.6128C10.0277 14.6602 10.7161 13.9937 10.9098 14.0884C11.1034 14.1832 11.2527 14.1364 11.1546 14.47C11.0566 14.8036 10.9585 15.0417 11.1546 15.0417C11.3508 15.0417 11.4976 14.6109 11.7425 14.1838C11.9873 13.7567 12.379 13.9457 12.5258 14.0884C12.6726 14.2312 13.1136 15.0417 13.4566 14.9463C13.7995 14.8509 13.995 14.422 13.8482 13.4693C13.7014 12.5167 13.9463 12.2311 13.9463 12.2311C13.9463 12.2311 14.2399 12.0884 14.779 12.7548C15.3181 13.4213 16.2976 14.422 16.4437 14.3746C16.5899 14.3272 15.7585 13.2792 15.954 13.1838C16.1495 13.0884 16.9335 13.3266 17.3258 13.6601C17.3258 13.6601 17.4599 14.206 17.4599 13.6823L13.4566 9.84949L12.7707 9.89626L12.1341 9.94365C12.1341 9.94365 10.5668 12.2311 9.73413 12.5167Z" fill="#304050"/>
<path fill-rule="evenodd" clip-rule="evenodd" d="M12.8761 9.20482C13.0855 9.15387 13.4472 9.11535 13.7895 9.33759C13.8693 9.38934 13.9433 9.46321 13.978 9.49775L13.9796 9.49937C14.0297 9.54931 14.0896 9.61217 14.1554 9.68249C14.2282 9.76015 14.3166 9.85592 14.4162 9.96386C14.4946 10.0488 14.5799 10.1412 14.6701 10.2383C15.0869 10.6872 15.646 11.2788 16.2986 11.9085C17.6171 13.1809 19.2666 14.559 20.8516 15.2518L20.3628 16.3704C18.5683 15.5861 16.7893 14.0786 15.4509 12.787C14.775 12.1348 14.1987 11.5248 13.7754 11.0689C13.6787 10.9648 13.592 10.8708 13.514 10.7863C13.4183 10.6826 13.3358 10.5932 13.2644 10.517C13.2178 10.4672 13.1795 10.427 13.1488 10.3954C13.1292 10.4014 13.1102 10.409 13.0951 10.4161C13.0882 10.4193 13.0832 10.4219 13.0806 10.4232L12.5789 10.7265L12.4693 10.5559C11.4734 12.052 9.85281 13.458 8.49311 14.4895C7.75973 15.0459 7.08481 15.5061 6.59305 15.8274C6.34696 15.9882 6.1462 16.1146 6.00625 16.2012C5.93626 16.2445 5.88145 16.2778 5.84373 16.3006L5.80022 16.3268L5.78852 16.3338L5.78527 16.3357L5.7843 16.3363C5.78419 16.3363 5.78378 16.3366 5.47324 15.8111C5.16269 15.2856 5.16264 15.2856 5.1626 15.2856L5.16499 15.2842L5.17418 15.2787L5.21253 15.2557C5.24673 15.235 5.29785 15.2039 5.36399 15.163C5.49629 15.0812 5.68849 14.9602 5.92529 14.8055C6.39932 14.4957 7.04988 14.0521 7.75528 13.5169C9.1838 12.4332 10.7693 11.0245 11.6123 9.62877L11.6435 9.57704L11.6843 9.53245L12.1348 9.94435C11.6843 9.53245 11.6841 9.53262 11.6843 9.53245L11.6856 9.53103L11.6871 9.52944L11.6905 9.52576L11.6993 9.51646C11.7061 9.50945 11.7146 9.50078 11.7248 9.49082C11.7449 9.47105 11.7725 9.44529 11.8062 9.41682C11.8699 9.3631 11.9732 9.28477 12.1049 9.22383C12.2332 9.16448 12.4396 9.0982 12.6816 9.14383C12.7506 9.15684 12.8155 9.17757 12.8761 9.20482Z" fill="#304050"/>
</g>
<path fill-rule="evenodd" clip-rule="evenodd" d="M13.0403 6.17294C9.30238 6.17294 6.30135 9.11579 6.30135 12.7105C6.30135 16.3053 9.30238 19.2482 13.0403 19.2482C16.7782 19.2482 19.7792 16.3053 19.7792 12.7105C19.7792 9.11579 16.7782 6.17294 13.0403 6.17294ZM5.08057 12.7105C5.08057 8.40983 8.66034 4.95215 13.0403 4.95215C17.4202 4.95215 21 8.40983 21 12.7105C21 17.0113 17.4202 20.4689 13.0403 20.4689C8.66034 20.4689 5.08057 17.0113 5.08057 12.7105Z" fill="#304050"/>
</svg>
