<svg id="th_color" xmlns="http://www.w3.org/2000/svg" viewBox="0 0 26 26"><defs><style>.cls-1{fill:#304050;}</style></defs><path class="cls-1" d="M6.57,13.1a6.43,6.43,0,0,0,3.62,5.79L7.12,10.48A6.54,6.54,0,0,0,6.57,13.1Z"/><path class="cls-1" d="M17.34,12.68a3.35,3.35,0,0,0-.53-1.78,3.07,3.07,0,0,1-.63-1.51,1.11,1.11,0,0,1,1.08-1.14h.08A6.43,6.43,0,0,0,7.62,9.47H8c.67,0,1.71-.08,1.71-.08a.27.27,0,0,1,0,.53s-.34,0-.73.06l2.34,7,1.41-4.22-1-2.75c-.35,0-.68-.06-.68-.06a.27.27,0,0,1,0-.53s1.06.08,1.7.08,1.71-.08,1.71-.08a.27.27,0,0,1,0,.53s-.35,0-.73.06l2.32,6.92.64-2.14A7.71,7.71,0,0,0,17.34,12.68Z"/><path class="cls-1" d="M13.11,13.67l-1.93,5.61a6.84,6.84,0,0,0,1.82.26,6.33,6.33,0,0,0,2.14-.37.26.26,0,0,1-.05-.09Z"/><path class="cls-1" d="M18.65,10a6.5,6.5,0,0,1,0,.66A6,6,0,0,1,18.2,13l-2,5.68A6.44,6.44,0,0,0,18.65,10Z"/><path class="cls-1" d="M13,5.5A7.5,7.5,0,1,0,20.5,13,7.5,7.5,0,0,0,13,5.5Zm0,14.66A7.16,7.16,0,1,1,20.16,13,7.17,7.17,0,0,1,13,20.16Z"/></svg>