<svg id="th_color" xmlns="http://www.w3.org/2000/svg" viewBox="0 0 26 26"><defs><style>.cls-1,.cls-2{fill:none;stroke:#304050;stroke-linecap:round;stroke-linejoin:round;stroke-width:1.5px;}.cls-2,.cls-3{fill-rule:evenodd;}.cls-3{fill:#304050;}</style></defs><path class="cls-1" d="M10,16H4.8a.8.8,0,0,1-.8-.8V11.8a.8.8,0,0,1,.8-.8H10"/><path class="cls-1" d="M17,11h4.2a.8.8,0,0,1,.8.8v3.4a.8.8,0,0,1-.8.8H16"/><path class="cls-2" d="M11.64,9.54a1.71,1.71,0,0,1,1.47-1,1.76,1.76,0,0,1,1.8,1.72,1.7,1.7,0,0,1-.76,1.4c-.29.2-1.15.77-1.15,1.59V14"/><path class="cls-3" d="M14,16.91a1,1,0,1,0-1,1A1,1,0,0,0,14,16.91Z"/></svg>