<svg id="th_color" xmlns="http://www.w3.org/2000/svg" viewBox="0 0 26 26"><defs><style>.cls-1{fill:none;stroke:#304050;stroke-linecap:round;stroke-linejoin:round;stroke-width:1.5px;}</style></defs><path class="cls-1" d="M7,8,5.84,9.53a.21.21,0,0,1-.35,0L5,8.88"/><path class="cls-1" d="M7,8,5.84,9.53a.21.21,0,0,1-.35,0L5,8.88"/><line class="cls-1" x1="10" y1="9" x2="17" y2="9"/><path class="cls-1" d="M7,12,5.84,13.53a.21.21,0,0,1-.35,0L5,12.88"/><path class="cls-1" d="M7,12,5.84,13.53a.21.21,0,0,1-.35,0L5,12.88"/><line class="cls-1" x1="10" y1="13" x2="20" y2="13"/><path class="cls-1" d="M7,16,5.84,17.53a.21.21,0,0,1-.35,0L5,16.88"/><path class="cls-1" d="M7,16,5.84,17.53a.21.21,0,0,1-.35,0L5,16.88"/><line class="cls-1" x1="10" y1="17" x2="15" y2="17"/></svg>