<svg id="th_color" xmlns="http://www.w3.org/2000/svg" viewBox="0 0 26 26"><defs><style>.cls-1{fill:none;stroke:#304050;stroke-linecap:round;stroke-linejoin:round;stroke-width:1.5px;}.cls-2{fill:#304050;}</style></defs><path class="cls-1" d="M22,12c0-3.31-4-6-9-6S4,8.69,4,12s4,6,9,6c.52,0,1,0,1.53-.09L17,20l.55-2.83C20.21,16.13,22,14.21,22,12Z"/><path class="cls-2" d="M16,11.25a.75.75,0,1,0,.74.76A.75.75,0,0,0,16,11.25Z"/><path class="cls-2" d="M13,11.25a.75.75,0,1,0,.74.76A.75.75,0,0,0,13,11.25Z"/><path class="cls-2" d="M10,11.25a.75.75,0,1,0,.74.76A.75.75,0,0,0,10,11.25Z"/></svg>