<svg id="th_color" xmlns="http://www.w3.org/2000/svg" viewBox="0 0 26 26"><defs><style>.cls-1{fill:none;stroke:#304050;stroke-linecap:round;stroke-linejoin:round;stroke-width:1.5px;}.cls-2{fill:#304050;}</style></defs><line class="cls-1" x1="5" y1="13" x2="17" y2="13"/><line class="cls-1" x1="5" y1="18" x2="13" y2="18"/><line class="cls-1" x1="5" y1="8" x2="9" y2="8"/><path class="cls-2" d="M11,7.25a.75.75,0,1,0,.74.76A.75.75,0,0,0,11,7.25Z"/><path class="cls-2" d="M13,7.25a.75.75,0,1,0,.74.76A.75.75,0,0,0,13,7.25Z"/><path class="cls-2" d="M15,7.25a.75.75,0,1,0,.74.76A.75.75,0,0,0,15,7.25Z"/><path class="cls-2" d="M17,7.25a.75.75,0,1,0,.74.76A.75.75,0,0,0,17,7.25Z"/><path class="cls-2" d="M19,7.25a.75.75,0,1,0,.74.76A.75.75,0,0,0,19,7.25Z"/><path class="cls-2" d="M21,7.25a.75.75,0,1,0,.74.76A.75.75,0,0,0,21,7.25Z"/><path class="cls-2" d="M19,12.25a.75.75,0,1,0,.74.76A.75.75,0,0,0,19,12.25Z"/><path class="cls-2" d="M21,12.25a.75.75,0,1,0,.74.76A.75.75,0,0,0,21,12.25Z"/><path class="cls-2" d="M15,17.25a.75.75,0,1,0,.74.76A.75.75,0,0,0,15,17.25Z"/><path class="cls-2" d="M17,17.25a.75.75,0,1,0,.74.76A.75.75,0,0,0,17,17.25Z"/><path class="cls-2" d="M19,17.25a.75.75,0,1,0,.74.76A.75.75,0,0,0,19,17.25Z"/><path class="cls-2" d="M21,17.25a.75.75,0,1,0,.74.76A.75.75,0,0,0,21,17.25Z"/></svg>