<svg id="th_color" xmlns="http://www.w3.org/2000/svg" viewBox="0 0 26 26"><defs><style>.cls-1{fill:#304050;}.cls-2{fill:none;stroke:#304050;stroke-linecap:round;stroke-linejoin:round;stroke-width:1.5px;}</style></defs><path class="cls-1" d="M6,6.25A.75.75,0,1,0,6.75,7,.75.75,0,0,0,6,6.25Z"/><path class="cls-1" d="M6,8.25A.75.75,0,1,0,6.75,9,.75.75,0,0,0,6,8.25Z"/><path class="cls-1" d="M6,10.25a.75.75,0,1,0,.74.76A.75.75,0,0,0,6,10.25Z"/><path class="cls-1" d="M6,12.25a.75.75,0,1,0,.74.76A.75.75,0,0,0,6,12.25Z"/><path class="cls-1" d="M6,14.25a.75.75,0,1,0,.74.76A.75.75,0,0,0,6,14.25Z"/><path class="cls-1" d="M6,16.25a.75.75,0,1,0,.74.76A.75.75,0,0,0,6,16.25Z"/><path class="cls-1" d="M6,18.25a.75.75,0,1,0,.74.76A.75.75,0,0,0,6,18.25Z"/><path class="cls-1" d="M8,18.25a.75.75,0,1,0,.74.76A.75.75,0,0,0,8,18.25Z"/><path class="cls-1" d="M10,18.25a.75.75,0,1,0,.74.76A.75.75,0,0,0,10,18.25Z"/><path class="cls-1" d="M12,18.25a.75.75,0,1,0,.74.76A.75.75,0,0,0,12,18.25Z"/><path class="cls-1" d="M14,18.25a.75.75,0,1,0,.74.76A.75.75,0,0,0,14,18.25Z"/><path class="cls-1" d="M8,6.25A.75.75,0,1,0,8.75,7,.75.75,0,0,0,8,6.25Z"/><path class="cls-1" d="M10,6.25a.75.75,0,1,0,.74.76A.75.75,0,0,0,10,6.25Z"/><path class="cls-1" d="M12,6.25a.75.75,0,1,0,.74.76A.75.75,0,0,0,12,6.25Z"/><path class="cls-1" d="M14,6.25a.75.75,0,1,0,.74.76A.75.75,0,0,0,14,6.25Z"/><rect class="cls-2" x="15.5" y="7" width="5" height="12" rx="0.8"/></svg>