<svg id="th_color" xmlns="http://www.w3.org/2000/svg" viewBox="0 0 26 26"><defs><style>.cls-1{fill:none;stroke:#304050;stroke-linecap:round;stroke-linejoin:round;stroke-width:1.5px;}</style></defs><path class="cls-1" d="M20.05,17a.92.92,0,0,0-.18-1.44l-2.29-1.37a.91.91,0,0,0-1.12.14l-.91.91a27.72,27.72,0,0,1-2.49-2.2,26.42,26.42,0,0,1-2.21-2.49l.92-.92a.92.92,0,0,0,.14-1.12L10.53,6.24a.92.92,0,0,0-1.44-.17L7.45,7.71s0,.08-.08.11L7.2,8l-.51.51A1.27,1.27,0,0,0,6.5,10a28.47,28.47,0,0,0,4.21,5.39,28.57,28.57,0,0,0,5.39,4.21,1.27,1.27,0,0,0,1.55-.2l.5-.5a1.1,1.1,0,0,0,.14-.18.41.41,0,0,0,.11-.07Z"/></svg>