<svg id="th_color" xmlns="http://www.w3.org/2000/svg" viewBox="0 0 26 26"><defs><style>.cls-1{fill:none;stroke:#304050;stroke-linecap:round;stroke-linejoin:round;stroke-width:1.5px;}</style></defs><path class="cls-1" d="M4.51,13.74A1.73,1.73,0,0,0,6.2,14.85a1.48,1.48,0,0,0,1.56-1.44c0-.94-.83-1.41-1.8-1.4l1.6-2.3H4.8"/><path class="cls-1" d="M15,14.77H11.81l2.34-2.37a3.92,3.92,0,0,0,.66-.84,1.61,1.61,0,0,0,.17-.71,1.12,1.12,0,0,0-.39-.91,1.7,1.7,0,0,0-1.12-.33,2.12,2.12,0,0,0-.88.17,2,2,0,0,0-.79.7"/><path class="cls-1" d="M20.51,14.77V9.63l-1.39.64"/><line class="cls-1" x1="4.5" y1="19" x2="7.5" y2="19"/><line class="cls-1" x1="12" y1="19" x2="15" y2="19"/><line class="cls-1" x1="19" y1="19" x2="22" y2="19"/></svg>