<svg id="th_color" xmlns="http://www.w3.org/2000/svg" viewBox="0 0 26 26"><defs><style>.cls-1{fill:none;stroke:#304050;stroke-linecap:round;stroke-linejoin:round;stroke-width:1.5px;}</style></defs><line class="cls-1" x1="11" y1="18" x2="17" y2="18"/><line class="cls-1" x1="11" y1="9" x2="20" y2="9"/><line class="cls-1" x1="11" y1="13" x2="22" y2="13"/><path class="cls-1" d="M7.44,19.4H5.34L6.9,17.82a2.38,2.38,0,0,0,.43-.55,1,1,0,0,0,.11-.48.72.72,0,0,0-.26-.6A1.09,1.09,0,0,0,6.44,16a1.46,1.46,0,0,0-.58.11,1.23,1.23,0,0,0-.52.47"/><path class="cls-1" d="M6.47,10.42V7l-.92.43"/></svg>