<svg id="th_color" xmlns="http://www.w3.org/2000/svg" viewBox="0 0 26 26"><defs><style>.cls-1{fill:#304050;}.cls-2{fill:none;stroke:#304050;stroke-linecap:round;stroke-linejoin:round;stroke-width:1.5px;}</style></defs><circle class="cls-1" cx="7" cy="8" r="2"/><path class="cls-1" d="M9.42,12H4.58a.49.49,0,0,1-.49-.61A3,3,0,0,1,7,9.5a3,3,0,0,1,2.91,1.89A.49.49,0,0,1,9.42,12Z"/><line class="cls-2" x1="12" y1="8" x2="21" y2="8"/><line class="cls-2" x1="12" y1="11" x2="17" y2="11"/><circle class="cls-1" cx="7" cy="16" r="2"/><path class="cls-1" d="M9.42,20H4.58a.49.49,0,0,1-.49-.61A3,3,0,0,1,7,17.5a3,3,0,0,1,2.91,1.89A.49.49,0,0,1,9.42,20Z"/><line class="cls-2" x1="12" y1="16" x2="21" y2="16"/><line class="cls-2" x1="12" y1="19" x2="17" y2="19"/></svg>