<svg id="th_color" xmlns="http://www.w3.org/2000/svg" viewBox="0 0 26 26"><defs><style>.cls-1{fill:none;stroke:#304050;stroke-linecap:round;stroke-linejoin:round;stroke-width:1.5px;}.cls-2{fill:#304050;}</style></defs><circle class="cls-1" cx="13" cy="13" r="9"/><path class="cls-2" d="M15.61,15.93a2.44,2.44,0,0,1-.86.89,2.91,2.91,0,0,1-1.35.43v1h-.78v-1a3.17,3.17,0,0,1-1.83-.7A2,2,0,0,1,10.1,15h1.46a1.18,1.18,0,0,0,1.06,1.17V13.49a9.73,9.73,0,0,1-1.31-.42,2.12,2.12,0,0,1-.86-.66,2,2,0,0,1-.35-1.25,2.16,2.16,0,0,1,.69-1.65,3,3,0,0,1,1.83-.76v-1h.78v1a2.81,2.81,0,0,1,1.69.66A2.26,2.26,0,0,1,15.82,11H14.36a1.23,1.23,0,0,0-.29-.67,1.3,1.3,0,0,0-.67-.4V12.5a8.93,8.93,0,0,1,1.3.4,2.12,2.12,0,0,1,.86.66,2,2,0,0,1,.34,1.25A2.2,2.2,0,0,1,15.61,15.93Zm-3.83-4.08a2.09,2.09,0,0,0,.84.45V9.87a1.34,1.34,0,0,0-.83.38,1.14,1.14,0,0,0-.3.84A1,1,0,0,0,11.78,11.85Zm2.44,3.85a1.2,1.2,0,0,0,.3-.82,1,1,0,0,0-.29-.75,2.16,2.16,0,0,0-.83-.44v2.44A1.34,1.34,0,0,0,14.22,15.7Z"/></svg>