<svg width="780" height="357" viewBox="0 0 780 357" fill="none" xmlns="http://www.w3.org/2000/svg">
<path d="M604.8 5.71236C421.9 5.46414 307.407 278.941 175.261 278.902C123.605 279.08 79.4325 236.213 79.428 181.301C79.5444 125.973 123.854 83.6602 175.238 83.7689C101.165 83.7689 41.1167 144.925 41.1167 220.364C41.1167 295.803 101.165 356.958 175.238 356.958C362.642 356.958 471.977 83.7689 604.755 83.7689C656.12 83.7689 697.759 126.177 697.759 178.488C697.759 230.801 656.12 273.208 604.755 273.208C677.213 273.155 736.076 213.437 736.091 139.472C736.104 66.0815 677.87 5.82605 604.8 5.71236Z" fill="url(#paint0_linear_103_2)"/>
<path d="M604.755 0.0186101C422.677 -2.60963 299.584 274.021 176.416 273.508C125.051 273.292 82.2346 230.801 82.2346 178.488C82.2346 126.177 123.873 83.7688 175.238 83.7688C121.283 83.8552 77.2231 128.428 77.6128 183.194C76.7816 233.631 116.868 283.149 176.416 283.219C302.054 286.746 432.188 5.31988 604.755 9.72984C692.862 11.3149 735.961 88.1816 734.255 141.619C731.805 215.706 676.086 273.421 604.755 273.208C678.828 273.208 738.875 212.053 738.875 136.613C738.875 61.1735 678.82 1.09173 604.755 0.0186101Z" fill="url(#paint1_linear_103_2)"/>
<path d="M175.237 0.0186157C362.03 0.0186157 476.617 273.208 604.753 273.208C678.827 273.208 738.874 212.053 738.874 136.613C738.874 61.1735 678.827 0.0186157 604.753 0.0186157C700.074 0.231431 777.159 78.3468 777.23 175.63C777.279 271.231 701.273 351.144 604.753 351.241C421.171 351.213 312.861 78.8655 175.237 78.0521C98.2972 78.0817 38.2016 142.114 38.3099 217.551C38.4837 296.082 101.164 356.958 175.237 356.958C78.4555 356.958 0 277.055 0 178.488C0 79.9229 78.4555 0.0186157 175.237 0.0186157Z" fill="url(#paint2_linear_103_2)"/>
<path d="M175.237 73.1583C316.11 77.4244 427.724 348.36 604.754 347.547C716.691 346.561 776.644 248.633 775.37 173.783C774.085 98.3561 719.634 3.08569 604.754 0.0186157C701.535 0.0186157 779.065 81.9097 779.992 178.488C780.939 277.049 701.535 356.958 604.754 356.958C417.349 356.958 308.013 83.7688 175.237 83.7688C101.164 83.7688 41.1167 144.925 41.1167 220.364C41.1167 295.803 101.164 356.958 175.237 356.958C98.3366 355.989 38.102 298.146 36.4962 213.26C35.3624 149.954 87.4466 75.6259 175.237 73.1583Z" fill="url(#paint3_linear_103_2)"/>
<defs>
<linearGradient id="paint0_linear_103_2" x1="45.3339" y1="180.489" x2="741.408" y2="178.56" gradientUnits="userSpaceOnUse">
<stop stop-color="#E4E4E4"/>
<stop offset="1" stop-color="#AAAAAA"/>
</linearGradient>
<linearGradient id="paint1_linear_103_2" x1="44.0844" y1="178.488" x2="739.167" y2="178.488" gradientUnits="userSpaceOnUse">
<stop stop-color="#BCBCBC"/>
<stop offset="1" stop-color="#515151"/>
</linearGradient>
<linearGradient id="paint2_linear_103_2" x1="0" y1="178.095" x2="777.776" y2="178.095" gradientUnits="userSpaceOnUse">
<stop stop-color="#E8E8E8"/>
<stop offset="1" stop-color="white"/>
</linearGradient>
<linearGradient id="paint3_linear_103_2" x1="2.95851" y1="178.488" x2="783.316" y2="178.488" gradientUnits="userSpaceOnUse">
<stop stop-color="white"/>
<stop offset="1" stop-color="#E6E6E6"/>
</linearGradient>
</defs>
</svg>
