<svg width="516" height="500" viewBox="0 0 516 500" fill="none" xmlns="http://www.w3.org/2000/svg">
<g clip-path="url(#clip0_103_328)">
<path d="M257.958 80C115.534 80 0.000126833 195.512 0.000126833 338.098C-0.932965 388.597 42.4982 424.923 82.2819 419.491C116.297 414.908 145.647 380.195 143.696 338.098C143.696 274.953 194.847 223.859 257.873 223.859C320.899 223.859 372.049 275.037 372.049 338.098C369.42 380.789 400.806 416.266 437.111 419.491C477.659 423.14 518.121 386.221 515.83 338.098C515.83 196.53 399.364 80 257.873 80H257.958ZM440.589 333.684C440.589 234.214 359.665 153.245 260.248 153.245C160.831 153.245 79.9067 234.129 79.9067 333.684H59.5484C59.5484 222.926 149.549 132.876 260.248 132.876C370.947 132.876 460.948 222.926 460.948 333.684H440.589V333.684Z" fill="#EBEBEB"/>
<path d="M0 337.504H143.781C143.781 332.921 144.205 328.422 144.714 323.924H0.424133C0.169653 328.422 0.0848266 332.921 0 337.504Z" fill="#121212"/>
<path d="M515.491 323.924H371.201C371.795 328.422 372.134 332.921 372.134 337.504H515.915C515.915 332.921 515.746 328.422 515.491 323.924V323.924Z" fill="#121212"/>
<path d="M513.285 362.371H374.424C375.612 367.124 377.224 371.623 379.175 375.951H508.281C510.316 371.623 512.013 367.124 513.285 362.371V362.371Z" fill="#121212"/>
<path d="M8.39805 375.951H136.571C138.522 371.623 140.049 367.124 141.236 362.371H3.22363C4.58086 367.124 6.36222 371.623 8.39805 375.951Z" fill="#121212"/>
<path d="M43.601 412.192H103.828C110.275 408.712 116.213 404.129 121.472 398.612H24.7695C30.4529 404.129 36.8149 408.712 43.601 412.192V412.192Z" fill="#121212"/>
<path d="M492.164 398.612H394.613C400.042 404.129 406.235 408.712 412.936 412.192H473.248C480.118 408.712 486.48 404.129 492.164 398.612Z" fill="#121212"/>
</g>
<defs>
<clipPath id="clip0_103_328">
<rect width="516" height="500" fill="white"/>
</clipPath>
</defs>
</svg>
