<?xml version="1.0" encoding="UTF-8"?>
<!-- Generator: Adobe Illustrator 25.0.1, SVG Export Plug-In . SVG Version: 6.00 Build 0)  -->
<svg version="1.1" id="Layer_1" xmlns="http://www.w3.org/2000/svg" xmlns:xlink="http://www.w3.org/1999/xlink" x="0px" y="0px" viewBox="0 0 100 30" style="enable-background:new 0 0 100 30;" xml:space="preserve">
<style type="text/css">
	.st0{fill:#DCE7F2;}
	.st1{fill:#FFFFFF;}
	.st2{fill:#4499D4;}
	.st3{fill:#84B1DF;}
</style>
<g>
	<path class="st0" d="M73.7,25.2h0.6v3h1.8v-1.3h0.3v1.3h2.1v-3h0.6v3h1.8v-1.3h0.3v1.3h2.1v-3h0.6v3h1.8v-1.3H86v1.3h2.1v-3h0.6v3   h1.8v-1.3h0.3v1.3h2.1v-3h0.7v3h1.7v-1.3h0.3v1.3h1.5v-7.5H2.9v7.5h0.9v-1.3h0.3v1.3h2.2v-3h0.6v3h1.8v-1.3H9v1.3h2v-1.3h0.1v-1.7   h0.6v3h1.8v-1.3h0.3v1.3h2.1v-3h0.6v3h1.8v-1.3h0.3v1.3h2.1v-3h0.6v3h1.8v-1.3h0.3v1.3h2.1v-3h0.7v3h1.7v-1.3h0.3v1.3h2.1v-3H31v3   h1.7v-1.3H33v1.3h2.1v-3h0.7v3h1.7v-1.3h0.4v1.3H40v-3h0.6v3h1.8v-1.3h0.3v1.3h2.1v-3h0.6v3h1.8v-1.3h0.3v1.3h2.1v-3h0.6v3H52v-1.3   h0.3v1.3h2.1v-3H55v3h1.8v-1.3h0.3v1.3h2.1v-3h0.7v3h1.7v-1.3h0.3v1.3H64v-3h0.7v3h1.7v-1.3h0.3v1.3h2.1v-3h0.7v3h1.6v-1.3h0.3v1.3   h2.3V25.2z"/>
	<path class="st1" d="M74.3,25.2h-0.6v3h0.6V25.2z M69.5,25.2h-0.7v3h0.7V25.2z M79.1,25.2h-0.6v3h0.6V25.2z M93.6,25.2h-0.7v3h0.7   V25.2z M88.7,25.2h-0.6v3h0.6V25.2z M83.9,25.2h-0.6v3h0.6V25.2z M95.3,28.2h0.3v-1.3h-0.3V28.2z M90.5,28.2h0.3v-1.3h-0.3V28.2z    M85.7,28.2H86v-1.3h-0.3V28.2z M81.2,28.2v-1.3h-0.3v1.3H81.2z M76.1,28.2h0.3v-1.3h-0.3V28.2z M71.1,28.2h0.3v-1.3h-0.3V28.2z    M26.2,25.2h-0.7v3h0.7V25.2z M21.3,25.2h-0.6v3h0.6V25.2z M40.6,25.2H40v3h0.6V25.2z M35.8,25.2h-0.7v3h0.7V25.2z M31,25.2h-0.7v3   H31V25.2z M55,25.2h-0.6v3H55V25.2z M50.2,25.2h-0.6v3h0.6V25.2z M45.4,25.2h-0.6v3h0.6V25.2z M64.7,25.2H64v3h0.7V25.2z    M59.9,25.2h-0.7v3h0.7V25.2z M16.5,25.2h-0.6v3h0.6V25.2z M11.7,25.2h-0.6v1.7H11v1.3h0.7V25.2z M6.9,25.2H6.3v3h0.6V25.2z    M13.8,28.2v-1.3h-0.3v1.3H13.8z M9,28.2v-1.3H8.7v1.3H9z M3.8,28.2h0.3v-1.3H3.8V28.2z M66.4,28.2h0.3v-1.3h-0.3V28.2z M61.9,28.2   v-1.3h-0.3v1.3H61.9z M56.8,28.2h0.3v-1.3h-0.3V28.2z M52,28.2h0.3v-1.3H52V28.2z M47.2,28.2h0.3v-1.3h-0.3V28.2z M42.4,26.9v1.3   h0.3v-1.3H42.4z M37.5,28.2h0.4v-1.3h-0.4V28.2z M32.7,28.2H33v-1.3h-0.3V28.2z M27.9,28.2h0.3v-1.3h-0.3V28.2z M23.4,28.2v-1.3   h-0.3v1.3H23.4z M18.3,28.2h0.3v-1.3h-0.3V28.2z"/>
	<path class="st2" d="M19.8,20.7h-2.1l-0.5-2.2c-1.7,2-3.3,2.6-5.5,2.6c-5.5,0-8.8-4.4-8.8-9.6s3.3-9.6,8.8-9.6c4,0,7.4,2.1,7.9,6.3   h-3.1c-0.3-2.4-2.4-3.7-4.7-3.7c-3.9,0-5.6,3.5-5.6,7s1.6,7,5.6,7c3.3,0.1,5.1-1.9,5.1-5H12V11h7.8V20.7z M19.4,2.3h14.9v2.8h-5.8   v15.6h-3.2V5.1h-5.8V2.3L19.4,2.3z"/>
	<path class="st3" d="M31.5,7.4h2.8v1.9h0.1c0.9-1.3,2-2.2,4.1-2.2c1.6,0,3.1,0.7,3.7,2.2c1-1.4,2.2-2.2,4.2-2.2   c2.8,0,4.5,1.2,4.5,4.5v9.2H48V13c0-2.1-0.1-3.6-2.4-3.6c-2,0-2.8,1.3-2.8,3.5v7.8h-2.9v-8.6c0-1.8-0.6-2.8-2.3-2.8   c-1.5,0-2.9,1.2-2.9,3.4v7.9h-2.9V7.4H31.5z M54.3,14.8c0,2.1,1.1,3.9,3.6,3.9c1.7,0,2.7-0.7,3.2-2.2h2.8c-0.6,2.9-3.1,4.5-6,4.5   c-4.2,0-6.5-2.9-6.5-7c0-3.8,2.5-7,6.4-7c4.2,0,6.8,3.8,6.3,7.8H54.3z M61.2,12.9c-0.1-1.9-1.4-3.5-3.3-3.5c-2,0-3.4,1.5-3.5,3.5   H61.2z"/>
	<path class="st3" d="M63.1,7.4h2.2v-4h2.9v4h2.6v2.2h-2.6v7.1c0,1.2,0.1,1.8,1.4,1.8c0.4,0,0.8,0,1.2-0.1v2.2   c-0.6,0.1-1.3,0.2-1.9,0.2c-3.1,0-3.6-1.2-3.7-3.4V9.6H63L63.1,7.4L63.1,7.4z M71.5,7.4h2.8V10h0.1c0.3-1.4,2.1-2.6,3.9-2.6   c0.4,0,0.7,0,1.1,0.1V10c-0.4-0.1-0.8-0.1-1.3-0.1c-2,0-3.6,1.6-3.6,4.6v6.3h-2.9L71.5,7.4z M80,2.3h2.9v2.8H80V2.3z M80,7.4h2.9   v13.3H80V7.4z M88.5,13.7l-4.6-6.3h3.5l2.8,4.1l2.9-4.1h3.4L92,13.5l5.1,7.2h-3.5l-3.4-4.9l-3.3,4.9h-3.4L88.5,13.7z"/>
</g>
</svg>