<svg id="Layer_1" enable-background="new 0 0 468 468" height="512" viewBox="0 0 468 468" width="512" xmlns="http://www.w3.org/2000/svg" style=""><g><path d="m431.45 370.791c-.135-1.478-.48-2.963-1.021-4.346l-23.195-59.425v-148.02h-32v135.033h-64.203c-2.634-29.729-18.919-55.589-42.537-71.254 8.178-10.85 13.026-24.298 13.026-38.846 0-35.894-29.499-65.095-65.757-65.095-36.259 0-65.758 29.201-65.758 65.095 0 14.547 4.847 27.994 13.025 38.844-23.618 15.666-39.903 41.525-42.536 71.255h-63.42v-189.032c0-2.206 1.794-4 4-4h140.462v-32h-140.462c-19.851 0-36 16.149-36 36v201.931l-23.805 59.079c-.825 1.967-1.269 4.119-1.269 6.253v50.737c0 19.851 16.149 36 36 36h359.524c19.851 0 36-16.149 36-36 0 0-.221-53.804-.074-52.209-.134-1.478.044.48 0 0zm-215.688-219.952c18.614 0 33.757 14.847 33.757 33.095s-15.144 33.095-33.757 33.095c-18.614 0-33.758-14.847-33.758-33.095s15.144-33.095 33.758-33.095zm25.148 93.231c20.134 8.693 34.91 27.488 37.926 49.963h-126.148c3.017-22.475 17.792-41.27 37.926-49.963 7.752 3.189 34.391 6.542 50.296 0zm139.394 81.963 11.8 30.229h-352.407l12.18-30.229zm19.22 96.967c0 2.206-1.794 4-4 4h-359.524c-2.206 0-4-1.794-4-4v-34.737h168.154v22.4h32v-22.4h167.371v34.737z" fill="#304050"/><g id="XMLID_32_"><path d="m241.536 31.917v64.167c0 12.657 10.251 22.917 22.895 22.917h203.569l-29.212-37.377v-49.707c0-12.657-10.25-22.917-22.895-22.917h-151.461c-12.645 0-22.896 10.26-22.896 22.917z" fill="#1999ff"/><path d="m279.356 48h121.036v32h-121.036z" fill="#fff"/></g></g></svg>