<?xml version="1.0" encoding="UTF-8"?>
<!-- Generator: Adobe Illustrator 25.0.1, SVG Export Plug-In . SVG Version: 6.00 Build 0)  -->
<svg version="1.1" id="Capa_1" xmlns="http://www.w3.org/2000/svg" xmlns:xlink="http://www.w3.org/1999/xlink" x="0px" y="0px" viewBox="0 0 31 36" style="enable-background:new 0 0 31 36;" xml:space="preserve">
<style type="text/css">
	.st0{fill:#489C6D;}
	.st1{fill:#FFFFFF;}
</style>
<g>
	<g>
		<path class="st0" d="M30.6,9.3c0-0.9,0-1.9,0-2.8c0-0.7-0.6-1.3-1.3-1.3c-5.4,0-9.5-1.5-12.9-4.9c-0.5-0.5-1.3-0.5-1.8,0    C11.2,3.7,7.1,5.2,1.7,5.2C1,5.2,0.4,5.8,0.4,6.5c0,0.9,0,1.8,0,2.8c-0.2,9-0.4,21.4,14.7,26.6l0.4,0.1l0.4-0.1    C31,30.7,30.8,18.3,30.6,9.3z"/>
		<path class="st1" d="M14.5,21.8c-0.3,0.2-0.6,0.3-0.9,0.3h0c-0.3,0-0.7-0.2-0.9-0.4l-4-4.4l1.9-1.7l3.1,3.5l7-6.6l1.8,1.9    L14.5,21.8z"/>
	</g>
</g>
</svg>