<svg id="Layer_1" data-name="Layer 1" xmlns="http://www.w3.org/2000/svg" viewBox="0 0 60 60"><defs><style>.cls-1,.cls-2{fill:#7d818e;}.cls-1{opacity:0.1;}.cls-3,.cls-4{fill:#72a5d8;}.cls-3{opacity:0.7;}.cls-5{fill:none;stroke:#7d818e;stroke-linecap:round;stroke-linejoin:round;stroke-width:2px;}</style></defs><path class="cls-1" d="M55.65,58.5H4.35c-1.62,0-2.85-1.24-2.85-1.9V5.3c0-2.56,1.23-3.8,2.85-3.8h51.3c1.62,0,2.85,1.24,2.85,3.8V56.6C58.5,57.27,57.27,58.5,55.65,58.5Z"/><path class="cls-2" d="M50.5,11H9.5A1.54,1.54,0,0,1,8,9.5v-1A1.54,1.54,0,0,1,9.5,7h41A1.54,1.54,0,0,1,52,8.5v1A1.47,1.47,0,0,1,50.56,11Z"/><path class="cls-3" d="M17.9,15H42.1c.5,0,.9.18.9.35v6.3c0,.17-.4.35-.9.35H17.9c-.5,0-.9-.18-.9-.35v-6.3C17,15.18,17.4,15,17.9,15Z"/><path class="cls-4" d="M17.55,25.5h24.8a.61.61,0,0,1,.6.27v6.46c0,.18-.3.27-.6.27H17.55a.61.61,0,0,1-.6-.27V25.77A.78.78,0,0,1,17.55,25.5Z"/><polyline class="cls-5" points="33.5 40.06 30 37 26.5 40.06"/><line class="cls-5" x1="30" y1="37" x2="30" y2="45"/></svg>