<?xml version="1.0" encoding="utf-8"?>
<!-- Generator: Adobe Illustrator 28.0.0, SVG Export Plug-In . SVG Version: 6.00 Build 0)  -->
<svg version="1.1" id="th_color" xmlns="http://www.w3.org/2000/svg" xmlns:xlink="http://www.w3.org/1999/xlink" x="0px" y="0px"
	 viewBox="0 0 26 26" style="enable-background:new 0 0 26 26;" xml:space="preserve">
<style type="text/css">
	.st0{clip-path:url(#SVGID_00000121958241623282856790000012209243749642294152_);}
	.st1{fill:#C4D6FF;}
	.st2{fill:none;stroke:#C4D6FF;stroke-width:1.5;stroke-miterlimit:10;}
</style>
<g id="Layer_2">
	<g id="Layer_1">
		<g>
			<defs>
				<circle id="SVGID_1_" cx="13" cy="13" r="7"/>
			</defs>
			<clipPath id="SVGID_00000147931815468148600110000006020489914292257700_">
				<use xlink:href="#SVGID_1_"  style="overflow:visible;"/>
			</clipPath>
			<g style="clip-path:url(#SVGID_00000147931815468148600110000006020489914292257700_);">
				<path class="st1" d="M9.9,12.8c0,0,0.9-0.4,0.7,0.3c-0.2,0.7-0.9,1.7-0.7,1.8s0.9-0.6,1.1-0.5s0.3,0,0.2,0.4
					c-0.1,0.3-0.2,0.6,0,0.6c0.2,0,0.3-0.4,0.6-0.8c0.2-0.4,0.6-0.2,0.7-0.1c0.1,0.1,0.6,0.9,0.9,0.8c0.2-0.1,0.6,0.3,0.4-1.4
					c-0.1-0.9,0.1-1.2,0.1-1.2s0.3-0.1,0.8,0.5c0.5,0.7,1.4,1.6,1.6,1.6s-0.7-1.1-0.5-1.2c0.2-0.1,0.9,0.1,1.3,0.5
					c0,0,0.1,0.5,0.1,0l-3.8-3.8l-0.7,0l-0.6,0C12.1,10.3,10.6,12.5,9.9,12.8z"/>
				<path class="st2" d="M20.2,16c-3.2-1.4-6.5-5.7-6.8-5.8c-0.3-0.2-0.7,0-0.7,0c-0.2-0.4-0.6,0-0.6,0C10.4,13.2,5.8,16,5.8,16"/>
			</g>
		</g>
		<circle class="st2" cx="13" cy="13" r="7"/>
	</g>
</g>
</svg>
