<?xml version="1.0" encoding="utf-8"?>
<!-- Generator: Adobe Illustrator 25.0.1, SVG Export Plug-In . SVG Version: 6.00 Build 0)  -->
<svg version="1.1" id="th_color" xmlns="http://www.w3.org/2000/svg" xmlns:xlink="http://www.w3.org/1999/xlink" x="0px" y="0px"
	 viewBox="0 0 26 26" style="enable-background:new 0 0 26 26;" xml:space="preserve">
<style type="text/css">
	.st0{fill:none;stroke:#C4D6FF;stroke-width:1.5;stroke-linecap:round;stroke-linejoin:round;}
	.st1{fill:none;}
	.st2{fill:none;stroke:#000000;stroke-width:40;stroke-linecap:round;stroke-linejoin:round;stroke-miterlimit:13.3333;}
	.st3{fill:#FFFFFF;}
	.st4{fill:#C4D6FF;stroke:#C4D6FF;stroke-width:0.25;stroke-miterlimit:10;}
	.st5{fill:none;stroke:#C4D6FF;stroke-linecap:round;stroke-linejoin:round;}
</style>
<path class="st0" d="M12,14v7.1c0,0.5,0.3,0.9,0.6,0.9h8.8c0.3,0,0.6-0.4,0.6-0.9l0,0v-8.2c0-0.5-0.3-0.9-0.6-0.9H15"/>
<rect x="-1295" y="-19.7" class="st1" width="682.7" height="682.7"/>
<g id="g835" transform="translate(374.334,134.2954)">
	<path id="path837_1_" d="M-98.7,514l-18.6-65.8L-136,514H-98.7z M-176.9,558.3c0-0.4,0.2-1.3,0.4-2.1l41.3-134.8
		c1.9-6.4,9.9-9.4,17.8-9.4c8.1,0,16.1,3,18,9.4L-58,556.2c0.2,0.9,0.4,1.5,0.4,2.1c0,6.6-10.1,11.6-17.6,11.6
		c-4.7,0-8.4-1.5-9.4-5.6l-8.1-28.5h-49.1l-8.1,28.5c-1.1,4.1-4.7,5.6-9.4,5.6C-166.9,569.9-176.9,565.2-176.9,558.3"/>
</g>
<g id="g839" transform="translate(456.834,288.1333)">
	<path id="path841" class="st2" d="M-71.2,155h-257.1c-29.5,0-53.6,24.1-53.6,53.6v150l-75,53.6l75,53.6c0,29.5,24.1,53.6,53.6,53.6
		h257.1c29.5,0,53.6-24.1,53.6-53.6V208.6C-17.7,179.1-41.8,155-71.2,155z"/>
</g>
<g id="g843" transform="translate(223.8691,223.8667)">
	<path id="path845" class="st2" d="M-148.9,305h-224.9c-29.5,0-53.6-24.1-53.6-53.6V-5.7c0-29.5,24.1-53.6,53.6-53.6h257.1
		c29.5,0,53.6,24.1,53.6,53.6l75,53.6l-75,53.6v117.8"/>
</g>
<g id="g847" transform="translate(168.9453,373.7241)">
	<path id="path849_1_" d="M-167.2-44.7c-2.5,18.5-10.8,35.1-23.2,47.9c-12.3-12.8-20.7-29.4-23.2-47.9H-167.2z M-128.9,29.4
		c-16,0-30.9-4.4-43.7-12.1c15.4-16.7,25.7-38.2,28.2-62h15.5c6.2,0,11.3-5,11.3-11.3c0-6.2-5.1-11.3-11.3-11.3h-50.2v-27.4
		c0-6.2-5-11.3-11.3-11.3c-6.2,0-11.3,5-11.3,11.3v27.4h-50.2c-6.2,0-11.3,5.1-11.3,11.3c0,6.2,5.1,11.3,11.3,11.3h15.5
		c2.5,23.8,12.8,45.3,28.2,62c-12.8,7.7-27.8,12.1-43.7,12.1c-6.2,0-11.3,5-11.3,11.3c0,6.2,5.1,11.3,11.3,11.3
		c22.8,0,44-7.1,61.4-19.3c17.5,12.1,38.6,19.3,61.5,19.3c6.2,0,11.3-5.1,11.3-11.3C-117.6,34.5-122.7,29.4-128.9,29.4"/>
</g>
<rect id="bg_2_" x="-1069.7" y="-1195.4" class="st3" width="682.7" height="682.7"/>
<g transform="matrix(1.3333333,0,0,-1.3333333,0,682.66667)">
	<path id="path837_3_" class="st3" d="M-427.9,1030.9l-14,49.3l-14-49.3H-427.9z M-486.6,997.6c0,0.3,0.2,1,0.3,1.6l31,101.1
		c1.4,4.8,7.4,7.1,13.3,7.1c6.1,0,12.1-2.3,13.5-7.1l31-101.1c0.2-0.6,0.3-1.1,0.3-1.6c0-5-7.6-8.7-13.2-8.7c-3.5,0-6.3,1.1-7.1,4.2
		l-6.1,21.4h-36.8l-6.1-21.4c-0.8-3.1-3.5-4.2-7.1-4.2C-479,988.9-486.6,992.5-486.6,997.6"/>
	<path id="path849_3_" class="st3" d="M-633.3,1270.3c-1.8-13.9-8.1-26.3-17.4-35.9c-9.3,9.6-15.5,22.1-17.4,35.9H-633.3z
		 M-604.6,1214.7c-12,0-23.2,3.3-32.8,9.1c11.6,12.5,19.3,28.7,21.2,46.5h11.7c4.7,0,8.5,3.8,8.5,8.5c0,4.7-3.8,8.5-8.5,8.5h-37.6
		v20.5c0,4.7-3.8,8.5-8.5,8.5c-4.7,0-8.5-3.8-8.5-8.5v-20.5h-37.6c-4.7,0-8.5-3.8-8.5-8.5c0-4.7,3.8-8.5,8.5-8.5h11.7
		c1.9-17.9,9.6-34,21.2-46.5c-9.6-5.8-20.8-9.1-32.8-9.1c-4.7,0-8.5-3.8-8.5-8.5c0-4.7,3.8-8.5,8.5-8.5c17.1,0,33,5.4,46.1,14.5
		c13.1-9.1,29-14.5,46.1-14.5c4.7,0,8.5,3.8,8.5,8.5C-596.2,1210.9-600,1214.7-604.6,1214.7"/>
</g>
<g id="g847_2_" transform="translate(168.9453,373.7241)">
	<path id="path849_4_" class="st4" d="M-158.1-365.4c-0.1,0.7-0.4,1.3-0.9,1.8c-0.5-0.5-0.8-1.1-0.9-1.8H-158.1z M-156.6-362.7
		c-0.6,0-1.2-0.2-1.7-0.5c0.6-0.6,1-1.5,1.1-2.3h0.6c0.2,0,0.4-0.2,0.4-0.5c0-0.2-0.2-0.4-0.4-0.5h-1.6v-0.9c0-0.2-0.2-0.4-0.5-0.4
		c-0.2,0-0.5,0.2-0.5,0.4v0.9h-2c-0.2,0.1-0.4,0.3-0.4,0.5c0,0.2,0.2,0.4,0.4,0.5h0.6c0.1,0.9,0.5,1.7,1.1,2.3
		c-0.5,0.3-1.1,0.5-1.7,0.5c-0.2,0-0.4,0.2-0.4,0.4c0,0.2,0.2,0.4,0.4,0.4c0.9,0,1.7-0.3,2.3-0.7c0.7,0.5,1.5,0.7,2.3,0.7
		c0.2,0,0.4-0.2,0.4-0.4C-156.2-362.5-156.4-362.7-156.6-362.7"/>
</g>
<path class="st0" d="M5.6,4h8.8C14.7,4,15,4.4,15,4.9v8.2c0,0.5-0.3,0.9-0.6,0.9H5.6C5.3,14,5,13.6,5,13.1V4.9C5,4.4,5.3,4,5.6,4z"
	/>
<g>
	<polyline class="st5" points="15.1,19.6 17.3,14.6 19.4,19.6 	"/>
	<line class="st5" x1="16.2" y1="17.5" x2="18.2" y2="17.5"/>
</g>
<polyline class="st5" points="-27.4,0.2 -29.5,0.2 -29.5,2.4 "/>
<line class="st5" x1="-27.2" y1="2.6" x2="-29.5" y2="0.2"/>
<polyline class="st5" points="-17.4,-9.7 -15.3,-9.7 -15.3,-11.8 "/>
<line class="st5" x1="-17.7" y1="-12" x2="-15.3" y2="-9.7"/>
</svg>
