<?xml version="1.0" encoding="utf-8"?>
<!-- Generator: Adobe Illustrator 27.8.1, SVG Export Plug-In . SVG Version: 6.00 Build 0)  -->
<svg version="1.1" id="th_color" xmlns="http://www.w3.org/2000/svg" xmlns:xlink="http://www.w3.org/1999/xlink" x="0px" y="0px"
	 viewBox="0 0 26 26" style="enable-background:new 0 0 26 26;" xml:space="preserve">
<style type="text/css">
	.st0{fill:#C4D6FF;}
</style>
<g>
	<path class="st0" d="M20.1,7.4c-1.8-1.8-4.8-1.8-6.6,0L13,7.8l-0.4-0.4c-1.8-1.8-4.8-1.8-6.6,0C4.1,9.2,4.1,12,5.9,14
		c1.6,1.8,6.4,5.7,6.6,5.9c0.1,0.1,0.3,0.2,0.5,0.2c0,0,0,0,0,0c0.2,0,0.3-0.1,0.5-0.2c0.2-0.2,5-4.1,6.6-5.9
		C21.9,12,21.9,9.2,20.1,7.4z M19,13c-1.3,1.4-4.7,4.3-6,5.3c-1.2-1-4.7-3.9-6-5.3c-1.2-1.4-1.3-3.3,0-4.6c0.6-0.6,1.4-0.9,2.3-0.9
		s1.6,0.3,2.3,0.9l0.9,0.9c0.1,0.1,0.3,0.2,0.4,0.2c0.2,0.1,0.5,0,0.7-0.2l0.9-0.9c1.3-1.2,3.3-1.2,4.5,0C20.2,9.6,20.2,11.6,19,13z
		"/>
</g>
</svg>
