<?xml version="1.0" encoding="UTF-8"?>
<!-- Generator: Adobe Illustrator 24.0.0, SVG Export Plug-In . SVG Version: 6.00 Build 0)  -->
<svg version="1.1" id="Layer_1" xmlns="http://www.w3.org/2000/svg" xmlns:xlink="http://www.w3.org/1999/xlink" x="0px" y="0px" viewBox="0 0 797.2 151.1" style="enable-background:new 0 0 797.2 151.1;" xml:space="preserve">
<style type="text/css">
	.st0{fill:#81B540;}
</style>
<title>envato</title>
<path class="st0" d="M102.2,15.2c-4-2.2-17.1-4.5-29.3,3.4c-21.6,14-44.5,40.9-46,80c-0.1,2.8-1,3.7-3.1-0.4  c-6.5-12.5-9.1-26.7-3.7-44.7c1.1-3.7-1.5-4.6-2.9-3.2c-3.6,3.7-6.8,7.8-9.5,12.3c-16.4,28.5-5.7,65,23,81c28.7,16,65,5.7,81-23  c0,0,0,0,0,0C130.3,87.4,113.1,21.4,102.2,15.2L102.2,15.2z"/>
<path d="M205,31.1c-34.1,0-58.8,25.3-58.8,60.2c0,35.2,24.7,59.7,60,59.7c17.8,0,32-5.6,43.2-17c2.3-2.2,3.6-5.3,3.7-8.4  c0-5.7-4.2-9.8-10.1-9.8c-2.9,0-5.4,1.1-8.2,3.7c-6.4,5.9-14.7,12-28.6,12c-19.3,0-35-14.5-36-33.2h76.9c8.4,0,12.4-3.9,12.4-12  c0-2.5-0.1-5-0.5-7.4C254.9,49,234.8,31.2,205,31.1L205,31.1z M205,49.8c18.5,0,30.3,11.8,31.1,30.8h-65.8  C172,63,186.8,49.8,205,49.8z"/>
<path d="M333,31.1c-15.5,0-30.8,8.9-36.8,21.2v-7.6c0-11.8-9.2-12.4-11-12.4c-5.4,0-11.2,3.3-11.2,12.4V137  c0,12.3,9.8,12.9,11.7,12.9s11.7-0.6,11.7-12.9V87.5C297.4,66,309.6,51,327,51c16.9,0,25.1,11.1,25.1,33.9V137  c0,12.3,9.8,12.9,11.7,12.9s11.7-0.6,11.7-12.9V77.6C375.6,55.1,364.4,31.1,333,31.1L333,31.1z"/>
<path d="M481.6,32.3c-5.4,0-9.3,3.2-11.7,9.4l-32.1,80.6l-31.8-80.6c-2.5-6.3-6.4-9.4-11.9-9.4c-6.3-0.1-11.6,4.9-11.7,11.2  c0,2.3,0.5,4.5,1.5,6.6l36.8,87c4.4,10.5,11.6,12.7,16.9,12.7s12.5-2.2,16.9-12.7l37.1-87.5c0.9-2,1.4-4.2,1.5-6.4  C493.1,37.1,488.1,32.3,481.6,32.3L481.6,32.3z"/>
<path d="M549.7,31.1c-15,0-29,4.2-39.3,11.7c-3.5,2.4-5.2,5.5-5.2,9.2c-0.1,5,3.9,9.2,8.9,9.3c0.1,0,0.1,0,0.2,0c2.5-0.1,5-1,7-2.5  c8.9-5.9,17.3-8.7,26.3-8.7c17.3,0,27.3,8.8,27.3,24.2V77c-38.9,0-78.4,4.7-78.4,38.6c0,24.3,20.8,35.3,41.4,35.3  c16.4,0,29.5-6.5,38-18.8v5.9c0,8.8,5.9,11.9,11,11.9c1.1,0,10.5-0.3,10.5-11.9v-62C597.4,47.9,579.6,31.2,549.7,31.1L549.7,31.1z   M569.9,94.3h4.9v5.4c0,19.7-12.6,32.5-32,32.5c-5.3,0-22.5-1.2-22.5-17.1C520.3,96.4,548.6,94.3,569.9,94.3z"/>
<path d="M658.3,53.6c10.3,0,10.8-8,10.8-9.6c0-4.7-2.8-9.8-10.8-9.8h-21.1V12.9c0-9.5-6.2-12.9-11.5-12.9c-2,0-11.7,0.6-11.7,12.9  v101.3c0,23.4,11.5,35.7,33.3,35.7c5.7,0,11.2-1,14.7-2.7c4.1-2,6.5-5.4,6.5-9.3c0.2-5-3.7-9.1-8.6-9.3c-0.2,0-0.5,0-0.7,0  c-1.4,0.1-2.8,0.3-4.2,0.7c-1.6,0.4-3.2,0.7-4.8,0.7c-8.9,0-13-5.8-13-18.2V53.6L658.3,53.6L658.3,53.6z"/>
<path d="M735.8,31.1c-35.4,0-61.2,25.1-61.2,59.7c0,16.8,6.2,32.2,17.5,43.2s26.7,17,43.6,17c35,0,61.4-25.9,61.4-60.2  C797.2,56.3,771.4,31.2,735.8,31.1L735.8,31.1z M735.8,131.2c-24.3,0-37-20.3-37-40.3c0-27.5,19.2-40.1,37-40.1s37,12.5,37,40.1  C772.8,118.6,753.7,131.2,735.8,131.2z"/>
</svg>