<svg id="Capa_1" data-name="Capa 1" xmlns="http://www.w3.org/2000/svg" xmlns:xlink="http://www.w3.org/1999/xlink" viewBox="0 0 472.83 441.75"><defs><style>.cls-1{fill:#1d1d1b;}.cls-2{fill:url(#linear-gradient);}.cls-3{fill:url(#linear-gradient-2);}</style><linearGradient id="linear-gradient" x1="62.09" y1="386.07" x2="181.08" y2="549.37" gradientTransform="matrix(1, 0, 0, -1, 0, 510)" gradientUnits="userSpaceOnUse"><stop offset="0.09" stop-color="#0089f7"/><stop offset="0.92" stop-color="#0dc7ff"/></linearGradient><linearGradient id="linear-gradient-2" x1="159.43" y1="326.11" x2="277.31" y2="451.38" gradientTransform="matrix(1, 0, 0, -1, 0, 510)" gradientUnits="userSpaceOnUse"><stop offset="0" stop-color="#0089f7"/><stop offset="1" stop-color="#0dc7ff"/></linearGradient></defs><path class="cls-1" d="M382.67,347.05a6.7,6.7,0,0,0-6.7,6.7V400a33.54,33.54,0,0,1-33.51,33.51H270.11a6.7,6.7,0,0,0-6.7,6.7v13.32l-16-16a6.69,6.69,0,0,0-6.14-4H197.71A33.55,33.55,0,0,1,164.2,400V296.79a33.55,33.55,0,0,1,33.51-33.51H265.4a6.7,6.7,0,1,0,0-13.4H197.71a47,47,0,0,0-46.91,46.91V400a47,47,0,0,0,46.91,46.91h40.11l27.53,27.52a6.66,6.66,0,0,0,4.74,2,6.7,6.7,0,0,0,6.7-6.7V446.9h65.66A47,47,0,0,0,389.37,400V353.75A6.7,6.7,0,0,0,382.67,347.05Z" transform="translate(-21.09 -34.64)"/><path class="cls-1" d="M396.51,133.28h-17a97.4,97.4,0,0,0,0,194.8h17a97.33,97.33,0,0,0,24.72-3.17l25.06,25a6.69,6.69,0,0,0,4.74,2,6.57,6.57,0,0,0,2.56-.51,6.71,6.71,0,0,0,4.14-6.19V306.44a98.44,98.44,0,0,0,25.6-31.57,96.34,96.34,0,0,0,10.58-44.19A97.51,97.51,0,0,0,396.51,133.28ZM447,297.82a6.71,6.71,0,0,0-2.67,5.35V329l-16.4-16.39a6.73,6.73,0,0,0-6.7-1.67,83.77,83.77,0,0,1-24.71,3.7h-17a84,84,0,0,1,0-168h17A84,84,0,0,1,447,297.82Z" transform="translate(-21.09 -34.64)"/><path class="cls-1" d="M418.21,206.6a28.44,28.44,0,0,0-26.31-26.3,28.11,28.11,0,0,0-21.35,7.56,28.47,28.47,0,0,0-9,20.74,6.7,6.7,0,0,0,13.4,0,15,15,0,0,1,16-14.93,15,15,0,0,1,2.22,29.54,12.68,12.68,0,0,0-10,12.43v16.1a6.7,6.7,0,1,0,13.4,0V236.17A28.22,28.22,0,0,0,418.21,206.6Z" transform="translate(-21.09 -34.64)"/><path class="cls-1" d="M394.65,273.51a6.71,6.71,0,1,0,2,4.74A6.75,6.75,0,0,0,394.65,273.51Z" transform="translate(-21.09 -34.64)"/><path class="cls-1" d="M335.09,341H193.69a6.7,6.7,0,1,0,0,13.4h141.4a6.7,6.7,0,0,0,0-13.4Z" transform="translate(-21.09 -34.64)"/><path class="cls-1" d="M339.83,380.51a6.71,6.71,0,1,0,2,4.74A6.75,6.75,0,0,0,339.83,380.51Z" transform="translate(-21.09 -34.64)"/><path class="cls-1" d="M308.73,378.55h-115a6.7,6.7,0,0,0,0,13.4h115a6.7,6.7,0,0,0,0-13.4Z" transform="translate(-21.09 -34.64)"/><path class="cls-1" d="M291.53,303.49H193.69a6.7,6.7,0,0,0,0,13.4h97.84a6.7,6.7,0,1,0,0-13.4Z" transform="translate(-21.09 -34.64)"/><path class="cls-2" d="M112.14,110.42a53,53,0,0,0,12.16-6.09,35.1,35.1,0,0,0,8.23-7.81,30.21,30.21,0,0,0,4.75-9.19,34.76,34.76,0,0,0,1.5-10.18,45.41,45.41,0,0,0-3.3-17.54,32.49,32.49,0,0,0-10.42-13.42,52.73,52.73,0,0,0-18.61-8.5,110.12,110.12,0,0,0-27.72-3H21.09V191.48H83.67a80.17,80.17,0,0,0,25.13-3.66,53.28,53.28,0,0,0,18.46-9.88,42.52,42.52,0,0,0,11.37-15,45.07,45.07,0,0,0,3.87-18.63q0-13.17-7.43-21.69T112.14,110.42ZM57.47,61.88H78.73a51.12,51.12,0,0,1,10.61,1,18.39,18.39,0,0,1,7.37,3.29,13.53,13.53,0,0,1,4.3,6,26.7,26.7,0,0,1,1.4,9.3,22.21,22.21,0,0,1-1.78,9.49,13.77,13.77,0,0,1-5.17,5.91,22.53,22.53,0,0,1-8.23,3,61.85,61.85,0,0,1-10.87.85H57.47Zm48.12,89a16.12,16.12,0,0,1-3.56,6.59,19,19,0,0,1-7.16,4.74,32.12,32.12,0,0,1-11.78,1.83H57.47V125H82.86a42.26,42.26,0,0,1,11.42,1.3,18.88,18.88,0,0,1,7.26,3.66,12.8,12.8,0,0,1,3.89,5.81,25.4,25.4,0,0,1,1.12,7.74A30,30,0,0,1,105.59,150.9Z" transform="translate(-21.09 -34.64)"/><path class="cls-3" d="M247.82,141.12a4.57,4.57,0,0,0,2.32-2,9.63,9.63,0,0,0,1.19-3.77,48.16,48.16,0,0,0,.31-6.12,59.18,59.18,0,0,0-3.71-21.6,46,46,0,0,0-10.34-16.09,44.18,44.18,0,0,0-15.81-10,61.72,61.72,0,0,0-43.28,1,51.61,51.61,0,0,0-28.31,29.52,59.05,59.05,0,0,0-3.82,21.21,69.75,69.75,0,0,0,4.48,26A53.6,53.6,0,0,0,163,178a50.69,50.69,0,0,0,18,11.43,62.75,62.75,0,0,0,22,3.82,96.36,96.36,0,0,0,12-.81,66.44,66.44,0,0,0,12.6-3,57.68,57.68,0,0,0,12.27-5.81A49.57,49.57,0,0,0,251,174l-9.69-11.94a6.89,6.89,0,0,0-6-2.9,12.56,12.56,0,0,0-5.76,1.4c-1.82.93-3.83,2-6,3.12a51.48,51.48,0,0,1-7.47,3.13,32.39,32.39,0,0,1-10,1.38,25.23,25.23,0,0,1-17.75-6.29q-6.88-6.28-8.52-20.21h64.38A11.43,11.43,0,0,0,247.82,141.12Zm-67.76-18.84c1.16-6.82,3.51-12,7.12-15.67s8.56-5.43,14.95-5.43a20.69,20.69,0,0,1,9.14,1.83,16.88,16.88,0,0,1,6.1,4.79,19,19,0,0,1,3.29,6.72,29.9,29.9,0,0,1,1,7.76Z" transform="translate(-21.09 -34.64)"/></svg>