<?xml version="1.0" encoding="utf-8"?>
<!-- Generator: Adobe Illustrator 25.0.1, SVG Export Plug-In . SVG Version: 6.00 Build 0)  -->
<svg version="1.1" id="Capa_1" xmlns="http://www.w3.org/2000/svg" xmlns:xlink="http://www.w3.org/1999/xlink" x="0px" y="0px"
	 viewBox="0 0 472.8 441.8" style="enable-background:new 0 0 472.8 441.8;" xml:space="preserve">
<style type="text/css">
	.st0{fill:url(#SVGID_1_);}
	.st1{fill:url(#SVGID_2_);}
	.st2{fill:#1D1D1B;}
</style>
<linearGradient id="SVGID_1_" gradientUnits="userSpaceOnUse" x1="331.2234" y1="133.2372" x2="450.2134" y2="-30.0628" gradientTransform="matrix(0.6556 0.6556 -0.6174 0.6174 154.8956 -191.5398)">
	<stop  offset="9.000000e-02" style="stop-color:#0089F7"/>
	<stop  offset="0.92" style="stop-color:#0DC7FF"/>
</linearGradient>
<path class="st0" d="M330.9,132.3c3.7,1.9,7.7,3.3,11.7,4.2c3.4,0.7,6.8,0.9,10.2,0.6c3.1-0.3,6.1-1.2,8.8-2.6
	c2.7-1.4,5.1-3.2,7.3-5.3c3.8-3.7,6.7-8.1,8.7-13c1.8-4.7,2.3-10,1.5-15.1c-1.2-6.1-3.5-12.1-7-17.4c-4.6-7.3-10.1-14-16.3-20
	L318,25.9l-96.8,96.8l41,41c5.5,5.7,11.8,10.5,18.7,14.2c5.7,3.2,11.9,5.2,18.2,6c5.7,0.7,11.4,0,16.7-1.8c5.3-1.9,10.1-5,14-9
	c5.4-5.4,8.3-11.5,8.5-18.3C338.7,148.1,336.2,140.6,330.9,132.3z M325.1,66.5L339,80.5c2.4,2.3,4.5,4.9,6.3,7.6
	c1.4,2.1,2.4,4.4,2.8,6.9c0.3,2.3,0,4.5-0.9,6.5c-1.2,2.5-2.8,4.8-4.8,6.7c-1.9,2.1-4.3,3.7-7,4.7c-2.2,0.8-4.7,0.9-7,0.3
	c-2.6-0.7-5.1-1.9-7.2-3.5c-2.7-2-5.3-4.2-7.7-6.6l-12.4-12.4L325.1,66.5z M301.7,153c-1.9,1.1-4.1,1.7-6.4,1.7
	c-2.6,0-5.2-0.6-7.6-1.8c-3.3-1.6-6.3-3.9-8.9-6.6L262,129.6l24.1-24.1l16.6,16.6c2.6,2.5,4.8,5.3,6.7,8.3c1.3,2.2,2.2,4.6,2.5,7
	c0.2,2.1-0.1,4.3-1,6.1c-1,2.1-2.4,3.9-4,5.5C305.3,150.6,303.6,151.9,301.7,153L301.7,153z"/>
<linearGradient id="SVGID_2_" gradientUnits="userSpaceOnUse" x1="428.5435" y1="193.1808" x2="546.4235" y2="67.9108" gradientTransform="matrix(0.6556 0.6556 -0.6174 0.6174 154.8956 -191.5398)">
	<stop  offset="0" style="stop-color:#0089F7"/>
	<stop  offset="1" style="stop-color:#0DC7FF"/>
</linearGradient>
<path class="st1" d="M400.9,240.2c0.9,0.4,1.9,0.5,2.8,0.3c1.1-0.3,2.2-0.8,3.1-1.5c1.4-1.1,2.7-2.3,4-3.6
	c4.6-4.5,8.3-9.8,10.9-15.8c2.2-5.2,3.3-10.9,3.2-16.7c-0.2-5.7-1.6-11.3-4.2-16.5c-6.2-12.3-16.5-22.1-29-27.8
	c-12-5.2-25.3-5.3-36.8-0.3c-5.9,2.5-11.2,6.1-15.6,10.6c-5.6,5.4-10,11.8-13.1,19c-2.6,6.1-3.8,12.8-3.6,19.5
	c0.2,6.5,1.9,12.9,4.7,18.9c3,6.2,7.1,11.9,12.1,16.8c2.6,2.6,5.4,5.1,8.4,7.4c3.2,2.4,6.6,4.6,10.1,6.4c3.7,1.9,7.6,3.4,11.6,4.5
	c4.4,1.1,8.8,1.6,13.2,1.4l1-13.7c0.3-2.1-0.5-4.3-2.1-5.7c-1.3-1.3-2.9-2.3-4.6-2.9c-1.8-0.6-3.7-1.3-5.9-2c-2.3-0.8-4.6-1.8-6.8-3
	c-2.7-1.5-5.2-3.4-7.4-5.7c-4.4-4.1-7.2-9.7-7.8-15.5c-0.4-5.6,1.9-11.6,6.9-18.1l42.2,42.2C399,239,399.9,239.7,400.9,240.2z
	 M368.1,184.2c5-3.4,9.7-5.1,14.3-5c4.6,0.1,9,2.3,13.2,6.4c2.1,2,3.8,4.4,4.9,7.1c0.9,2.2,1.2,4.6,1,7c-0.2,2.2-0.9,4.4-2,6.3
	c-1.1,2-2.5,3.8-4.1,5.4L368.1,184.2z"/>
<g id="XMLID_967_">
	<g id="XMLID_80_">
		<path id="XMLID_97_" class="st2" d="M313.9,421.9h-84.3l112.5-112.5c6.7-6.7,6.7-17.7,0-24.4L209.5,152.3
			c-3.3-3.3-7.6-5.1-12.2-5.1s-9,1.8-12.2,5.1L11,326.4c-3.3,3.3-5.1,7.6-5.1,12.2c0,4.6,1.8,9,5.1,12.2l71,71H12.6
			c-3.7,0-6.7,3-6.7,6.7c0,3.7,3,6.7,6.7,6.7h301.3c3.7,0,6.7-3,6.7-6.7C320.5,424.9,317.6,421.9,313.9,421.9z M100.9,421.9
			l-80.4-80.4c-0.7-0.7-1.2-1.7-1.2-2.8s0.4-2,1.2-2.8l174.1-174.1c0.7-0.7,1.7-1.2,2.8-1.2s2,0.4,2.8,1.2l132.6,132.6
			c1.5,1.5,1.5,4,0,5.6l-122,122H100.9z"/>
		<path id="XMLID_98_" class="st2" d="M124.1,345.4c-1.6-3.3-5.6-4.7-8.9-3.1c-3.3,1.6-4.7,5.6-3.1,8.9l13.8,28.7l-28.7-13.8
			c-3.3-1.6-7.3-0.2-8.9,3.1c-1.6,3.3-0.2,7.3,3.1,8.9l45.8,22.1c0.9,0.4,1.9,0.7,2.9,0.7c1.7,0,3.4-0.7,4.7-2c2-2,2.5-5.1,1.3-7.6
			L124.1,345.4z"/>
		<path id="XMLID_101_" class="st2" d="M173,317.2c-9.1-9.1-24-9.1-33.2,0c-9.1,9.1-9.1,24,0,33.2l10.2,10.2
			c4.6,4.6,10.6,6.9,16.6,6.9c6,0,12-2.3,16.6-6.9c9.1-9.1,9.1-24,0-33.2L173,317.2z M173.7,351.2c-4,4-10.4,4-14.3,0L149.2,341
			c-4-4-4-10.4,0-14.3c2-2,4.6-3,7.2-3c2.6,0,5.2,1,7.2,3l10.2,10.2C177.7,340.8,177.7,347.2,173.7,351.2z"/>
		<path id="XMLID_813_" class="st2" d="M254,270.9l-10.8,10.8c-0.6,0.6-1.6,0.6-2.2,0l-6.5-6.5l7.2-7.2c2.6-2.6,2.6-6.8,0-9.4
			c-2.6-2.6-6.8-2.6-9.4,0l-7.2,7.2l-6.5-6.5c-0.6-0.6-0.6-1.6,0-2.2l10.8-10.8c2.6-2.6,2.6-6.8,0-9.4c-2.6-2.6-6.8-2.6-9.4,0
			l-10.8,10.8c-5.8,5.8-5.8,15.2,0,21l22.3,22.3c2.8,2.8,6.5,4.4,10.5,4.4c4,0,7.7-1.5,10.5-4.4l10.8-10.8c2.6-2.6,2.6-6.8,0-9.4
			C260.9,268.3,256.6,268.3,254,270.9z"/>
		<path id="XMLID_970_" class="st2" d="M191.6,284.3l6.2-6.2c2.6-2.6,2.6-6.8,0-9.4c-2.6-2.6-6.8-2.6-9.4,0l-10.9,10.9c0,0,0,0,0,0
			s0,0,0,0l-10.9,10.9c-2.6,2.6-2.6,6.8,0,9.4c1.3,1.3,3,2,4.7,2c1.7,0,3.4-0.7,4.7-2l6.2-6.2l29.2,29.2c1.3,1.3,3,2,4.7,2
			s3.4-0.7,4.7-2c2.6-2.6,2.6-6.8,0-9.4L191.6,284.3z"/>
		<path id="XMLID_971_" class="st2" d="M345.3,423.8c-1.2-1.2-3-2-4.7-2s-3.5,0.7-4.7,2c-1.2,1.2-2,3-2,4.7s0.7,3.5,2,4.7s3,2,4.7,2
			s3.5-0.7,4.7-2c1.2-1.2,2-3,2-4.7S346.5,425.1,345.3,423.8z"/>
	</g>
</g>
</svg>
