<?xml version="1.0" encoding="UTF-8"?>
<!-- Generator: Adobe Illustrator 25.0.1, SVG Export Plug-In . SVG Version: 6.00 Build 0)  -->
<svg version="1.1" id="Layer_1" xmlns="http://www.w3.org/2000/svg" xmlns:xlink="http://www.w3.org/1999/xlink" x="0px" y="0px" viewBox="0 0 512 512" style="enable-background:new 0 0 512 512;" xml:space="preserve">
<style type="text/css">
	.st0{fill:#FFFFFF;}
	.st1{fill:#1999FF;}
</style>
<g>
	<path id="Shape" class="st0" d="M34.1,136.5v230.4c0,23.6,19.1,42.6,42.7,42.7h85.3c2.7,0,5.2,1.3,6.8,3.4l67.3,89.8   c4.9,5.9,12.2,9.3,19.9,9.2c7.7-0.1,14.9-3.6,19.8-9.6L343,413c1.6-2.1,4.1-3.4,6.8-3.4h85.3c23.6,0,42.6-19.1,42.7-42.7V136.5   c0-23.6-19.1-42.6-42.7-42.7h-55.9C363.4,36.2,309.6-2.8,249.8,0.1c-55.2,2.8-102.4,40.5-117.2,93.7H76.8   C53.2,93.9,34.2,113,34.1,136.5L34.1,136.5z M250.6,17.2c30.3-1.5,59.9,9.5,81.9,30.5c22,20.9,34.4,50,34.4,80.3   c0.1,30.7-12.6,60-35.1,80.9c-21.5,20.7-33.5,49.4-33.1,79.3v10.5h-85.3v-9.1c0.4-30.5-11.8-59.9-33.6-81.2   c-32.3-30.5-43.2-77.4-27.8-119S206.3,19.3,250.6,17.2z M281.6,358.4h-51.2c-9.4,0-17.1-7.6-17.1-17.1v-25.6h85.3v25.6   C298.7,350.8,291,358.4,281.6,358.4z M51.2,136.5c0-14.1,11.5-25.6,25.6-25.6h52.5c-0.2,1.8-0.6,3.5-0.7,5.4   c-3.6,39.1,10.9,77.6,39.5,104.5c18.4,18.1,28.6,43,28.3,68.8v51.7c0.1,15.5,10.6,29,25.6,32.9v9.7c0,4.7,3.8,8.5,8.5,8.5   s8.5-3.8,8.5-8.5v-8.5h34.1v8.5c0,4.7,3.8,8.5,8.5,8.5s8.5-3.8,8.5-8.5v-9.7c15-3.9,25.5-17.4,25.6-32.9v-53.2   c-0.4-25.1,9.7-49.3,27.7-66.8c26-24.1,40.7-57.9,40.6-93.3c0-5.7-0.5-11.4-1.3-17.1h52.5c14.1,0,25.6,11.5,25.6,25.6v230.4   c0,14.1-11.5,25.6-25.6,25.6h-85.3c-8,0-15.6,3.8-20.5,10.2l-66.8,89.1c-3.5,3.7-9.2,3.8-12.9,0.3l-67.1-89.4   c-4.9-6.4-12.4-10.2-20.5-10.2H76.8c-14.1,0-25.6-11.5-25.6-25.6V136.5z"/>
	<path id="Shape_1_" class="st1" d="M238.9,238.9c-4.7,0-8.5,3.8-8.5,8.5v25.6c0,4.7,3.8,8.5,8.5,8.5c4.7,0,8.5-3.8,8.5-8.5v-25.6   C247.5,242.8,243.6,238.9,238.9,238.9z"/>
	<path id="Shape_2_" class="st1" d="M230.4,204.8c0,4.7,3.8,8.5,8.5,8.5c4.7,0,8.5-3.8,8.5-8.5v-8.5c0-4.7-3.8-8.5-8.5-8.5   c-4.7,0-8.5,3.8-8.5,8.5V204.8z"/>
	<path id="Shape_3_" class="st1" d="M273.1,281.6c4.7,0,8.5-3.8,8.5-8.5v-25.6c0-4.7-3.8-8.5-8.5-8.5s-8.5,3.8-8.5,8.5v25.6   C264.5,277.8,268.4,281.6,273.1,281.6z"/>
	<path id="Shape_4_" class="st1" d="M273.1,213.3c4.7,0,8.5-3.8,8.5-8.5v-8.5c0-4.7-3.8-8.5-8.5-8.5s-8.5,3.8-8.5,8.5v8.5   C264.5,209.5,268.4,213.3,273.1,213.3z"/>
	<path id="Shape_5_" class="st1" d="M119.5,59.7c3.6,0,6.9-2.3,8.1-5.7c1.2-3.4,0.1-7.2-2.7-9.5L82.1,10.4c-3.7-2.9-9.1-2.3-12,1.3   c-2.9,3.7-2.3,9.1,1.3,12l42.7,34.1C115.6,59.1,117.5,59.7,119.5,59.7z"/>
	<path id="Shape_6_" class="st1" d="M397.9,57.9l42.7-34.1c3.7-2.9,4.3-8.3,1.3-12c-2.9-3.7-8.3-4.3-12-1.3l-42.7,34.1   c-2.4,1.9-3.6,4.9-3.1,8c0.5,3,2.5,5.6,5.3,6.7C392.3,60.3,395.5,59.8,397.9,57.9z"/>
	<path id="Shape_7_" class="st1" d="M70.1,304c1.4,1.8,3.5,2.9,5.7,3.2c2.3,0.2,4.5-0.4,6.3-1.8l42.7-34.1c3.7-2.9,4.3-8.3,1.3-12   c-2.9-3.7-8.3-4.3-12-1.3L71.5,292c-1.8,1.4-2.9,3.5-3.2,5.7C68.1,300,68.7,302.2,70.1,304L70.1,304z"/>
	<path id="Shape_8_" class="st1" d="M429.9,305.3c3.7,2.9,9.1,2.3,12-1.3c2.9-3.7,2.3-9.1-1.3-12l-42.7-34.1   c-3.7-2.9-9.1-2.3-12,1.3c-2.9,3.7-2.3,9.1,1.3,12L429.9,305.3z"/>
	<path id="Shape_9_" class="st1" d="M177.6,110.8c0.5,0.1,1.1,0.2,1.6,0.2c4.1,0,7.6-2.9,8.4-6.9c6.1-31.4,37.2-44.8,37.5-44.9   c4.4-1.8,6.4-6.8,4.6-11.1c-1.8-4.4-6.8-6.4-11.1-4.6c-1.6,0.7-39.9,16.8-47.8,57.5C169.9,105.4,172.9,109.9,177.6,110.8   L177.6,110.8z"/>
	<path id="Shape_10_" class="st1" d="M76.8,153.6h25.6c4.7,0,8.5-3.8,8.5-8.5c0-4.7-3.8-8.5-8.5-8.5H76.8c-4.7,0-8.5,3.8-8.5,8.5   C68.3,149.8,72.1,153.6,76.8,153.6z"/>
	<path id="Shape_11_" class="st1" d="M409.6,153.6h25.6c4.7,0,8.5-3.8,8.5-8.5c0-4.7-3.8-8.5-8.5-8.5h-25.6c-4.7,0-8.5,3.8-8.5,8.5   C401.1,149.8,404.9,153.6,409.6,153.6z"/>
</g>
</svg>