<svg id="Layer_1" enable-background="new 0 0 468 468" height="512" viewBox="0 0 468 468" width="512" xmlns="http://www.w3.org/2000/svg"><g><g><g/><g><g><path d="m374.437 268.595c0-15.905-10.778-33.022-34.441-33.022-11.143 0-21.834 3.847-30.104 10.831l-3.604 3.044 9.293 20.556 6.306-5.252c2.843-2.369 8.645-6.342 15.559-6.342 5.602 0 12.031 1.334 12.032 11.681-.112 11.242-9.629 22.095-32.396 43.762l-11.672 11.335v16.534h71.294v-22.838h-32.15c17.186-16.827 29.883-31.686 29.883-50.289z" fill="#1999ff"/></g><g><path d="m455.107 294.379v-57.249h-22.956l-44.086 63.085v16.424h42.792v25.083h24.251v-25.083h12.892v-22.26zm-36.21 0 11.96-16.619v16.619z" fill="#1999ff"/></g></g></g><g fill="#ffffff"><path d="m385.521 110.46-4.085 20.871c-13.583-23.537-31.793-44.424-53.466-60.962-35.78-27.303-78.501-41.735-123.546-41.735-112.719 0-204.424 92.127-204.424 205.366s91.705 205.366 204.425 205.366c42.217 0 82.743-12.822 117.198-37.081l-16.616-23.601c-24.409 17.185-52.376 27.675-81.78 30.813v-44.134h-28.863v44.843c-87.374-4.989-157.85-74.503-164.909-161.774h47.978v-28.863h-47.979c7.059-87.271 77.535-156.785 164.909-161.774v44.843h28.863v-44.105c55.245 6.066 104.481 38.513 132.445 85.885l-19.276-11.663-14.941 24.696 57.691 34.904c8.188 5.266 20.03.014 21.633-9.577l13.068-66.777z"/><path d="m195.049 220.402h-82.467v28.863h96.899c7.97 0 14.432-6.461 14.432-14.432v-96.899h-28.863v82.468z"/></g></g></svg>