<svg id="Layer_1" enable-background="new 0 0 468 468" height="512" viewBox="0 0 468 468" width="512" xmlns="http://www.w3.org/2000/svg"><g><g><g><path d="m438.75 466h-112.564c-16.128 0-29.25-13.099-29.25-29.2v-20.93c0-17.604 5.326-34.51 15.402-48.891l24.583 17.165c-6.532 9.324-9.985 20.295-9.985 31.726v20.182h111.064v-20.182c0-11.43-3.453-22.4-9.984-31.724l24.585-17.164c10.074 14.381 15.399 31.286 15.399 48.888v20.93c0 16.101-13.122 29.2-29.25 29.2z" fill="#ffffff"/></g><g><ellipse cx="382.468" cy="320.046" rx="50" ry="50.018" fill="#0086ff"/></g></g><g><g><path d="m141.814 466h-112.564c-16.128 0-29.25-13.099-29.25-29.2v-20.93c0-17.109 5.054-33.621 14.617-47.75l24.858 16.765c-6.199 9.159-9.475 19.874-9.475 30.985v20.182h111.064v-20.182c0-11.43-3.453-22.4-9.984-31.724l24.585-17.164c10.074 14.381 15.399 31.286 15.399 48.888v20.93c0 16.101-13.121 29.2-29.25 29.2z" fill="#ffffff"/></g><g><ellipse cx="85.532" cy="320.046" rx="50" ry="50.018" fill="#0086ff"/></g></g><g><g/><g><path d="m219 93.971h30v106.907h-30z" fill="#ffffff"/></g><g><path d="m312.991 270.828h-157.982c-19.299 0-35-15.674-35-34.94v-29.376c0-27.856 10.188-54.663 28.688-75.484l22.443 19.873c-13.626 15.337-21.131 35.086-21.131 55.611v29.376c0 2.752 2.243 4.991 5 4.991h157.982c2.757 0 5-2.239 5-4.991v-29.376c0-20.159-7.27-39.642-20.469-54.858l22.678-19.606c17.922 20.659 27.792 47.104 27.792 74.464v29.376c-.001 19.266-15.702 34.94-35.001 34.94z" fill="#ffffff"/></g><g><ellipse cx="234" cy="72.025" rx="70" ry="70.025" fill="#0086ff"/></g></g><path d="m291.279 362.594-42.279-24.369v-48.736h-30v48.736l-42.279 24.369 15 25.936 42.279-24.369 42.279 24.369z" fill="#fff"/></g></svg>