<svg id="Layer_1" data-name="Layer 1" xmlns="http://www.w3.org/2000/svg" viewBox="0 0 24 24"><defs><style>.cls-1{fill:none;stroke:#ffffff;stroke-linecap:round;stroke-linejoin:round;stroke-width:1.5px;}.cls-2{fill:#ffffff;fill-rule:evenodd;}</style></defs><path class="cls-1" d="M6.93,7c2.3-2.5,6.72-2.4,9.34-.25,3.41,2.8,2.92,8.45.55,10.74-.88.84-2.5,1.7-3.71,1.19s-.76-1.92-2-3.15c-1.71-1.64-3.72-.45-5-1.77S5.16,9,6.93,7Z"/><path class="cls-2" d="M9.79,10.54a1,1,0,1,0-1,1A1,1,0,0,0,9.79,10.54Z"/><path class="cls-2" d="M12.37,8.54a1,1,0,1,0-1,1A1,1,0,0,0,12.37,8.54Z"/><path class="cls-2" d="M15.55,9.54a1,1,0,1,0-1,1A1,1,0,0,0,15.55,9.54Z"/></svg>