<svg id="Layer_1" data-name="Layer 1" xmlns="http://www.w3.org/2000/svg" viewBox="0 0 22 22"><defs><style>.cls-1{fill:#304050;}</style></defs><path class="cls-1" d="M15.44,11.85A3.1,3.1,0,0,1,16,13.73a2.79,2.79,0,0,1-1.19,2.42,5.86,5.86,0,0,1-3.45.85H6V5h5a5.39,5.39,0,0,1,3.26.84,2.68,2.68,0,0,1,1.14,2.28A3,3,0,0,1,15,9.68a2.87,2.87,0,0,1-1.13,1.08A3.11,3.11,0,0,1,15.44,11.85ZM8.67,7.09V9.92h2a2.61,2.61,0,0,0,1.51-.36,1.22,1.22,0,0,0,.52-1.06,1.22,1.22,0,0,0-.52-1.06,2.69,2.69,0,0,0-1.51-.35Zm4.09,7.46a1.25,1.25,0,0,0,.54-1.12c0-1-.72-1.49-2.14-1.49H8.67v3h2.49A2.92,2.92,0,0,0,12.76,14.55Z"/></svg>