<svg id="Layer_1" data-name="Layer 1" xmlns="http://www.w3.org/2000/svg" viewBox="0 0 22 22"><defs><style>.cls-1{fill:none;stroke:#304050;stroke-miterlimit:10;stroke-width:1.5px;}.cls-2{fill:#304050;}.cls-3{opacity:0.2;}</style></defs><line class="cls-1" x1="9" y1="16" x2="9" y2="6"/><line class="cls-1" x1="4" y1="16" x2="4" y2="6"/><line class="cls-1" x1="4" y1="11" x2="9" y2="11"/><path class="cls-2" d="M13.31,6.28a3.7,3.7,0,0,1,2.35-.72,3.7,3.7,0,0,1,1.69.35,2.46,2.46,0,0,1,1.08,1,2.58,2.58,0,0,1,.36,1.36,2.39,2.39,0,0,1-.46,1.48,2.27,2.27,0,0,1-1.11.83v.05a2.32,2.32,0,0,1,1.29.92A2.89,2.89,0,0,1,19,13.2a2.87,2.87,0,0,1-.37,1.47,2.57,2.57,0,0,1-1.12,1,3.93,3.93,0,0,1-1.78.38,3.86,3.86,0,0,1-2.49-.78,2.91,2.91,0,0,1-1-2.23h1.54a1.77,1.77,0,0,0,.58,1.21,2,2,0,0,0,1.39.47A1.79,1.79,0,0,0,17,14.26a1.66,1.66,0,0,0,.46-1.21,1.54,1.54,0,0,0-.62-1.4,3.54,3.54,0,0,0-1.91-.41h-.36V9.92h.37a3.35,3.35,0,0,0,1.73-.37,1.26,1.26,0,0,0,.6-1.15,1.37,1.37,0,0,0-.44-1.07,1.74,1.74,0,0,0-1.23-.4,1.73,1.73,0,0,0-1.22.4,1.54,1.54,0,0,0-.51,1H12.31A2.72,2.72,0,0,1,13.31,6.28Z"/></svg>