<svg id="Layer_1" data-name="Layer 1" xmlns="http://www.w3.org/2000/svg" viewBox="0 0 22 22"><defs><style>.cls-1{fill:#304050;}.cls-2{fill:none;stroke:#304050;stroke-miterlimit:10;stroke-width:1.5px;}</style></defs><path class="cls-1" d="M6.4,5.44V9.88H4.91V6.57H4.15V5.44Z"/><path class="cls-1" d="M7.18,15.22v1.16H3.63v-.91L5.23,14a1.43,1.43,0,0,0,.28-.33.61.61,0,0,0,.07-.28.33.33,0,0,0-.11-.25A.49.49,0,0,0,5.15,13a.72.72,0,0,0-.38.1.74.74,0,0,0-.27.31l-1.13-.57a2,2,0,0,1,.74-.75,2.42,2.42,0,0,1,1.18-.27,2.45,2.45,0,0,1,.93.17,1.42,1.42,0,0,1,.63.49,1.16,1.16,0,0,1,.23.73,1.57,1.57,0,0,1-.15.68,2.63,2.63,0,0,1-.61.73l-.63.57Z"/><line class="cls-2" x1="9" y1="15" x2="13" y2="15"/><line class="cls-2" x1="9" y1="7" x2="16" y2="7"/><line class="cls-2" x1="9" y1="11" x2="17" y2="11"/></svg>