<svg id="Layer_1" data-name="Layer 1" xmlns="http://www.w3.org/2000/svg" viewBox="0 0 150 120"><defs><style>.cls-1{fill:#7d818e;opacity:.7;}</style></defs><rect class="cls-1" x="10" y="10" width="50.5" height="45" rx="3"/><rect class="cls-1" x="10" y="63" width="50.5" height="45" rx="3"/><path class="cls-1" d="M135.91,20.59A5.45,5.45,0,0,1,134,21H69a5.45,5.45,0,0,1-1.91-.41,1.3,1.3,0,0,1,0-2.18A5.45,5.45,0,0,1,69,18h65a5.45,5.45,0,0,1,1.91.41,1.3,1.3,0,0,1,0,2.18Z"/><path class="cls-1" d="M137.91,27.59A5.45,5.45,0,0,1,136,28H69a5.45,5.45,0,0,1-1.91-.41,1.3,1.3,0,0,1,0-2.18A5.45,5.45,0,0,1,69,25h67a5.45,5.45,0,0,1,1.91.41,1.3,1.3,0,0,1,0,2.18Z"/><path class="cls-1" d="M127.41,34.59a5.45,5.45,0,0,1-1.91.41H69a5.45,5.45,0,0,1-1.91-.41,1.3,1.3,0,0,1,0-2.18A5.45,5.45,0,0,1,69,32h56.5a5.45,5.45,0,0,1,1.91.41,1.3,1.3,0,0,1,0,2.18Z"/><path class="cls-1" d="M109.41,41.59a5.45,5.45,0,0,1-1.91.41H69a5.45,5.45,0,0,1-1.91-.41,1.3,1.3,0,0,1,0-2.18A5.45,5.45,0,0,1,69,39h38.5a5.45,5.45,0,0,1,1.91.41,1.3,1.3,0,0,1,0,2.18Z"/><path class="cls-1" d="M131.41,73.59a5.45,5.45,0,0,1-1.91.41H69a5.45,5.45,0,0,1-1.91-.41,1.3,1.3,0,0,1,0-2.18A5.45,5.45,0,0,1,69,71h60.5a5.45,5.45,0,0,1,1.91.41,1.3,1.3,0,0,1,0,2.18Z"/><path class="cls-1" d="M132.41,80.59a5.45,5.45,0,0,1-1.91.41H69a5.45,5.45,0,0,1-1.91-.41,1.3,1.3,0,0,1,0-2.18A5.45,5.45,0,0,1,69,78h61.5a5.45,5.45,0,0,1,1.91.41,1.3,1.3,0,0,1,0,2.18Z"/><path class="cls-1" d="M136.91,87.59A5.45,5.45,0,0,1,135,88H69a5.45,5.45,0,0,1-1.91-.41,1.3,1.3,0,0,1,0-2.18A5.45,5.45,0,0,1,69,85h66a5.45,5.45,0,0,1,1.91.41,1.3,1.3,0,0,1,0,2.18Z"/><path class="cls-1" d="M100.91,94.59A5.45,5.45,0,0,1,99,95H69a5.45,5.45,0,0,1-1.91-.41,1.3,1.3,0,0,1,0-2.18A5.45,5.45,0,0,1,69,92H99a5.45,5.45,0,0,1,1.91.41,1.3,1.3,0,0,1,0,2.18Z"/></svg>