<svg id="Layer_1" data-name="Layer 1" xmlns="http://www.w3.org/2000/svg" viewBox="0 0 150 120"><defs><style>.cls-1{fill:#7d818e;opacity:.7;}</style></defs><path class="cls-1" d="M49,10H14a3,3,0,0,0-3,3V55a3,3,0,0,0,3,3H49a3,3,0,0,0,3-3V13A3,3,0,0,0,49,10ZM16.5,45H31a1.5,1.5,0,0,1,0,3H16.5a1.5,1.5,0,0,1,0-3Zm22,9h-22a1.5,1.5,0,0,1,0-3h22a1.5,1.5,0,0,1,0,3Z"/><path class="cls-1" d="M135,10H100a3,3,0,0,0-3,3V43a3,3,0,0,0,3,3h35a3,3,0,0,0,3-3V13A3,3,0,0,0,135,10ZM102.5,33H117a1.5,1.5,0,0,1,0,3H102.5a1.5,1.5,0,0,1,0-3Zm22,9h-22a1.5,1.5,0,0,1,0-3h22a1.5,1.5,0,0,1,0,3Z"/><path class="cls-1" d="M49,60H14a3,3,0,0,0-3,3V95a3,3,0,0,0,3,3H49a3,3,0,0,0,3-3V63A3,3,0,0,0,49,60ZM16.5,85H31a1.5,1.5,0,0,1,0,3H16.5a1.5,1.5,0,0,1,0-3Zm22,9h-22a1.5,1.5,0,0,1,0-3h22a1.5,1.5,0,0,1,0,3Z"/><path class="cls-1" d="M135,48H100a3,3,0,0,0-3,3V85a3,3,0,0,0,3,3h35a3,3,0,0,0,3-3V51A3,3,0,0,0,135,48ZM102.5,75H117a1.5,1.5,0,0,1,0,3H102.5a1.5,1.5,0,0,1,0-3Zm22,9h-22a1.5,1.5,0,0,1,0-3h22a1.5,1.5,0,0,1,0,3Z"/><path class="cls-1" d="M92,67H57a3,3,0,0,0-3,3v35a3,3,0,0,0,3,3H92a3,3,0,0,0,3-3V70A3,3,0,0,0,92,67ZM59.5,95H74a1.5,1.5,0,0,1,0,3H59.5a1.5,1.5,0,0,1,0-3Zm22,9h-22a1.5,1.5,0,0,1,0-3h22a1.5,1.5,0,0,1,0,3Z"/><path class="cls-1" d="M92,10H57a3,3,0,0,0-3,3V62a3,3,0,0,0,3,3H92a3,3,0,0,0,3-3V13A3,3,0,0,0,92,10ZM59.5,52H74a1.5,1.5,0,0,1,0,3H59.5a1.5,1.5,0,0,1,0-3Zm22,9h-22a1.5,1.5,0,0,1,0-3h22a1.5,1.5,0,0,1,0,3Z"/></svg>