<?xml version="1.0" encoding="UTF-8"?><svg id="Layer_1" xmlns="http://www.w3.org/2000/svg" viewBox="0 0 150 120"><defs><style>.cls-1{fill:#fff;opacity:.5;}.cls-2{fill:#7d818e;opacity:.7;}</style></defs><path class="cls-2" d="M137,64H13c-1.66,0-3,1.34-3,3v30c0,1.66,1.34,3,3,3h25v-6c0-2.76,2.24-5,5-5H107c2.76,0,5,2.24,5,5v6h25c1.66,0,3-1.34,3-3v-30c0-1.66-1.34-3-3-3Z"/><path class="cls-2" d="M107,91H43c-1.66,0-3,1.34-3,3v14c0,1.66,1.34,3,3,3H107c1.66,0,3-1.34,3-3v-14c0-1.66-1.34-3-3-3Zm-25,14H47.5c-.83,0-1.5-.67-1.5-1.5s.67-1.5,1.5-1.5h34.5c.83,0,1.5,.67,1.5,1.5s-.67,1.5-1.5,1.5Zm16.19-6H47.5c-.83,0-1.5-.67-1.5-1.5s.67-1.5,1.5-1.5h50.69c.83,0,1.5,.67,1.5,1.5s-.67,1.5-1.5,1.5Z"/><path class="cls-2" d="M137,10H13c-1.66,0-3,1.34-3,3v30c0,1.66,1.34,3,3,3h25v-6c0-2.76,2.24-5,5-5H107c2.76,0,5,2.24,5,5v6h25c1.66,0,3-1.34,3-3V13c0-1.66-1.34-3-3-3Z"/><path class="cls-2" d="M107,37H43c-1.66,0-3,1.34-3,3v14c0,1.66,1.34,3,3,3H107c1.66,0,3-1.34,3-3v-14c0-1.66-1.34-3-3-3Zm-25,14H47.5c-.83,0-1.5-.67-1.5-1.5s.67-1.5,1.5-1.5h34.5c.83,0,1.5,.67,1.5,1.5s-.67,1.5-1.5,1.5Zm16.19-6H47.5c-.83,0-1.5-.67-1.5-1.5s.67-1.5,1.5-1.5h50.69c.83,0,1.5,.67,1.5,1.5s-.67,1.5-1.5,1.5Z"/><rect class="cls-1" x="130" y="14" width="6" height="4" rx="2" ry="2"/><rect class="cls-1" x="130" y="68" width="6" height="4" rx="2" ry="2"/></svg>