<svg id="Layer_1" data-name="Layer 1" xmlns="http://www.w3.org/2000/svg" viewBox="0 0 22 22"><defs><style>.cls-1{fill:none;stroke:#304050;stroke-linecap:round;stroke-linejoin:round;stroke-width:2px;}.cls-2{fill:#304050;}</style></defs><line class="cls-1" x1="5" y1="11" x2="17" y2="11"/><path class="cls-2" d="M9.06,7.53l1.73-2.42a.25.25,0,0,1,.42,0l1.73,2.42a.29.29,0,0,1-.2.47H9.26A.29.29,0,0,1,9.06,7.53Z"/><path class="cls-2" d="M12.94,14.47l-1.73,2.42a.25.25,0,0,1-.42,0L9.06,14.47a.29.29,0,0,1,.2-.47h3.48A.29.29,0,0,1,12.94,14.47Z"/></svg>