<svg id="Layer_1" data-name="Layer 1" xmlns="http://www.w3.org/2000/svg" viewBox="0 0 22 22"><defs><style>.cls-1{fill:none;stroke:#304050;stroke-miterlimit:10;stroke-width:1.5px;}.cls-2{fill:#304050;}.cls-3{opacity:0.2;}</style></defs><line class="cls-1" x1="9" y1="16" x2="9" y2="6"/><line class="cls-1" x1="4" y1="16" x2="4" y2="6"/><line class="cls-1" x1="4" y1="11" x2="9" y2="11"/><path class="cls-2" d="M16.65,7.19a1.79,1.79,0,0,0-1.13-.32,1.81,1.81,0,0,0-1.65.85,5.5,5.5,0,0,0-.57,2.81,2.42,2.42,0,0,1,1.06-1,3.51,3.51,0,0,1,1.51-.33,3.2,3.2,0,0,1,1.63.4,2.8,2.8,0,0,1,1.11,1.15A3.93,3.93,0,0,1,19,12.6a3.85,3.85,0,0,1-.39,1.75,2.89,2.89,0,0,1-1.14,1.21,3.58,3.58,0,0,1-1.82.44,3.57,3.57,0,0,1-2.26-.64,3.31,3.31,0,0,1-1.15-1.8,10.74,10.74,0,0,1-.33-2.89q0-5.13,3.62-5.13a3.07,3.07,0,0,1,2.2.76,2.93,2.93,0,0,1,.94,1.86H17.22A1.71,1.71,0,0,0,16.65,7.19Zm-2.58,3.9a1.87,1.87,0,0,0-.59,1.48A2.1,2.1,0,0,0,14,14.1a2.05,2.05,0,0,0,1.55.57A1.79,1.79,0,0,0,17,14.12a2,2,0,0,0,.51-1.45,2.23,2.23,0,0,0-.5-1.52,1.82,1.82,0,0,0-1.46-.57A2.16,2.16,0,0,0,14.07,11.09Z"/></svg>