<svg id="Layer_1" data-name="Layer 1" xmlns="http://www.w3.org/2000/svg" viewBox="0 0 22 22"><defs><style>.cls-1{fill:#304050;fill-rule:evenodd;}.cls-2{fill:none;stroke:#304050;stroke-miterlimit:10;stroke-width:1.5px;}</style></defs><path class="cls-1" d="M6,15a1,1,0,1,0-1,1A1,1,0,0,0,6,15Z"/><path class="cls-1" d="M6,11a1,1,0,1,0-1,1A1,1,0,0,0,6,11Z"/><path class="cls-1" d="M6,7A1,1,0,1,0,5,8,1,1,0,0,0,6,7Z"/><line class="cls-2" x1="8" y1="15" x2="13" y2="15"/><line class="cls-2" x1="8" y1="7" x2="16" y2="7"/><line class="cls-2" x1="8" y1="11" x2="17" y2="11"/></svg>