<svg xmlns="http://www.w3.org/2000/svg" xmlns:xlink="http://www.w3.org/1999/xlink" viewBox="0 0 210 60"><defs><style>.a{fill:none;}.b{clip-path:url(#a);}.c,.d,.e,.f,.g,.h{fill-rule:evenodd;}.c{fill:url(#b);}.d{fill:url(#c);}.e{fill:url(#d);}.f{fill:#f56f46;}.g{fill:#0c0f1f;}.h{fill:#454f59;}</style><clipPath id="a"><rect class="a" y="1.48" width="210" height="57.03"/></clipPath><linearGradient id="b" x1="15.86" y1="2.37" x2="16.09" y2="33.5" gradientTransform="matrix(1, 0, 0, -1, 0, 61)" gradientUnits="userSpaceOnUse"><stop offset="0" stop-color="#e25d35"/><stop offset="0.26" stop-color="#f56f46"/><stop offset="1" stop-color="#ffd147"/></linearGradient><linearGradient id="c" x1="16" y1="13.04" x2="16.12" y2="34.27" xlink:href="#b"/><linearGradient id="d" x1="16.02" y1="19.4" x2="16.2" y2="42.85" xlink:href="#b"/></defs><g class="b"><path class="c" d="M23.76,30.91a2.86,2.86,0,0,1-2.54-1.59l-.84-1.88H12l-.84,1.88a2.86,2.86,0,0,1-2.54,1.59H8.22L11.78,58c.17.51.5.51.7,0L16,49.37,19.09,58c.18.51.51.51.71,0l4.11-27.08Z"/><path class="d" d="M20,26.69H12.4l-1.18,2.63a2.85,2.85,0,0,1-2,1.52l2.7,16.74a.39.39,0,0,0,.71,0l3.45-5.24,3.16,5.21a.38.38,0,0,0,.7,0L23,30.8a2.84,2.84,0,0,1-1.76-1.48Z"/><path class="e" d="M21.21,29.32l-5-11.21-5,11.21a3.33,3.33,0,0,1-.66.86L12.61,41.3a.41.41,0,0,0,.6,0L16,37.61l2.78,3.67a.38.38,0,0,0,.6,0L21.68,30A4.28,4.28,0,0,1,21.21,29.32Z"/><path class="f" d="M.2,2.85A.65.65,0,0,1,.88,2h4.4A.79.79,0,0,1,6,2.48L9.19,15.19h.16L15.16,2a.72.72,0,0,1,.64-.42h.69a.65.65,0,0,1,.64.42l5.81,13.2h.16L26.33,2.48A.74.74,0,0,1,27,2h4.4a.66.66,0,0,1,.68.9L25,28.05a.72.72,0,0,1-.69.53h-.59a.71.71,0,0,1-.64-.42L16.2,12.82h-.11L9.26,28.16a.78.78,0,0,1-.64.42H8a.72.72,0,0,1-.68-.53Z"/><path class="f" d="M36,2.65a.71.71,0,0,1,.71-.7h9a8.37,8.37,0,1,1,.05,16.73H41.87V27.5a.73.73,0,0,1-.71.71H36.74a.7.7,0,0,1-.7-.71V2.65ZM45.43,13.2a3,3,0,0,0,3-3,2.87,2.87,0,0,0-3-2.78H41.87V13.2Z"/><path class="g" d="M66.38,2.66a.71.71,0,0,1,.7-.71H78.29a8.16,8.16,0,0,1,8.18,8.11,8.21,8.21,0,0,1-5.55,7.54l5.13,9.53a.7.7,0,0,1-.64,1.08h-5a.64.64,0,0,1-.59-.33l-5-9.95H72.23V27.5a.72.72,0,0,1-.7.71H67.06a.7.7,0,0,1-.71-.71Zm11.45,10.5a3,3,0,0,0,2.85-3A2.87,2.87,0,0,0,77.83,7.3H72.28v5.86Z"/><path class="g" d="M103.07,1.57A13.51,13.51,0,1,1,89.61,15.12,13.49,13.49,0,0,1,103.07,1.57Zm0,21A7.51,7.51,0,1,0,95.6,15.1,7.51,7.51,0,0,0,103.07,22.57Z"/><path class="g" d="M132.74,1.57a12.6,12.6,0,0,1,9.08,3.5.68.68,0,0,1,.05,1l-2.92,3a.64.64,0,0,1-.93,0A7.72,7.72,0,0,0,133,7.21,7.49,7.49,0,0,0,125.6,15,7.45,7.45,0,0,0,133,22.57a8,8,0,0,0,5-1.79.73.73,0,0,1,1,0l2.92,3.11a.75.75,0,0,1,0,1,12.85,12.85,0,0,1-9.11,3.65,13.52,13.52,0,1,1,0-27Z"/><path class="g" d="M146.35,2.86a.9.9,0,0,1,.91-.91h4.4a.92.92,0,0,1,.9.91v9.86L160.9,2.33a1.14,1.14,0,0,1,.7-.38h4.73a.88.88,0,0,1,.69,1.4l-8.78,11,9.57,12.45a.88.88,0,0,1-.7,1.39h-5.17a1,1,0,0,1-.69-.27l-8.71-11.78V27.31a.92.92,0,0,1-.91.9h-4.4a.89.89,0,0,1-.9-.9Z"/><path class="g" d="M171.6,2.66a.71.71,0,0,1,.71-.71h15.54a.69.69,0,0,1,.7.71V6.75a.71.71,0,0,1-.7.7H177.46V12.1H186a.72.72,0,0,1,.71.7v4.09a.7.7,0,0,1-.71.71h-8.55v5.09h10.39a.69.69,0,0,1,.7.7v4.09a.71.71,0,0,1-.7.71H172.31a.7.7,0,0,1-.71-.71Z"/><path class="g" d="M197,7.45h-5.38a.69.69,0,0,1-.7-.7V2.66a.71.71,0,0,1,.7-.71h16.65a.7.7,0,0,1,.71.71V6.75a.71.71,0,0,1-.71.7h-5.37v20a.73.73,0,0,1-.71.71h-4.51a.73.73,0,0,1-.71-.71Z"/><path class="h" d="M31.21,47.49c1.6,0,2.73-.85,2.73-2.28v0c0-1.27-.83-1.85-2.45-2.24-1.47-.35-1.82-.61-1.82-1.2v0c0-.5.46-.91,1.24-.91a3.21,3.21,0,0,1,1.76.58.64.64,0,0,0,1-.52.61.61,0,0,0-.29-.54,4.22,4.22,0,0,0-2.43-.71,2.34,2.34,0,0,0-2.6,2.22v0c0,1.41.91,1.89,2.54,2.28,1.42.33,1.72.62,1.72,1.17v0c0,.57-.52,1-1.35,1a3.27,3.27,0,0,1-2.14-.79.67.67,0,0,0-.39-.12.63.63,0,0,0-.63.63.62.62,0,0,0,.26.51,4.76,4.76,0,0,0,2.87,1Zm9.27-5.27a.68.68,0,0,0-.67-.67.66.66,0,0,0-.66.67v2.65a1.28,1.28,0,0,1-1.3,1.42c-.78,0-1.23-.5-1.23-1.4V42.22a.67.67,0,0,0-.67-.67.66.66,0,0,0-.65.67v3.06a2,2,0,0,0,2.05,2.22,2.09,2.09,0,0,0,1.8-1v.29a.67.67,0,0,0,1.33,0V42.22Zm1.65,6.31V42.22a.65.65,0,0,1,.65-.67.67.67,0,0,1,.67.67v.36a2.29,2.29,0,0,1,2-1.08,2.76,2.76,0,0,1,2.67,3v0a2.76,2.76,0,0,1-2.67,3,2.35,2.35,0,0,1-2-1v2a.65.65,0,0,1-.67.65A.64.64,0,0,1,42.13,48.53Zm3-2.18a1.68,1.68,0,0,0,1.64-1.84v0a1.71,1.71,0,0,0-1.64-1.85,1.75,1.75,0,0,0-1.69,1.85v0A1.74,1.74,0,0,0,45.1,46.35Zm5.34-2.25h3a1.5,1.5,0,0,0-1.47-1.52A1.56,1.56,0,0,0,50.44,44.1Zm3.72,2.65a3,3,0,0,1-2.07.76,2.88,2.88,0,0,1-3-3v0a2.86,2.86,0,0,1,2.82-3,2.72,2.72,0,0,1,2.73,2.84.61.61,0,0,1-.62.63H50.45a1.61,1.61,0,0,0,1.66,1.46,2.08,2.08,0,0,0,1.36-.5.49.49,0,0,1,.34-.12.52.52,0,0,1,.53.53A.58.58,0,0,1,54.16,46.75Zm1.88,0a.64.64,0,0,0,.65.65.66.66,0,0,0,.67-.65v-1.7c0-1.37.64-2.09,1.58-2.25a.65.65,0,0,0-.13-1.29,1.83,1.83,0,0,0-1.45,1.27v-.59a.67.67,0,0,0-.67-.67.65.65,0,0,0-.65.67Zm4.48-6.65a.76.76,0,0,0,1.51,0v-.06a.77.77,0,0,0-1.51,0Zm.1,6.65a.64.64,0,0,0,.65.65.65.65,0,0,0,.67-.65V42.22a.67.67,0,0,0-.67-.67.65.65,0,0,0-.65.67Zm5.78.73a3,3,0,0,1-3.05-3v0a3.07,3.07,0,0,1,6.14,0v0a3,3,0,0,1-3.09,3Zm0-1.16a1.73,1.73,0,0,0,1.75-1.82v0a1.78,1.78,0,0,0-1.77-1.85,1.72,1.72,0,0,0-1.73,1.83v0a1.77,1.77,0,0,0,1.75,1.84Zm4.41.43a.66.66,0,0,0,1.32,0v-1.7c0-1.37.65-2.09,1.58-2.25a.65.65,0,0,0-.13-1.29,1.84,1.84,0,0,0-1.45,1.27v-.59a.66.66,0,1,0-1.32,0Zm9.72.15a.75.75,0,0,0,.7.56h.13a.74.74,0,0,0,.7-.56l1.7-5,1.7,5a.73.73,0,0,0,.69.56h.13a.75.75,0,0,0,.7-.56l2.26-6.33a.76.76,0,0,0,.06-.27.65.65,0,0,0-.66-.64.69.69,0,0,0-.66.48l-1.75,5.26L84.52,40.2a.68.68,0,0,0-.67-.53h-.1a.7.7,0,0,0-.68.53l-1.72,5.23-1.76-5.25a.68.68,0,0,0-.66-.49.67.67,0,0,0-.69.65.71.71,0,0,0,.05.26l2.26,6.33Zm12.23.58a3,3,0,0,1-3-3v0a3.07,3.07,0,0,1,6.14,0v0a3,3,0,0,1-3.09,3Zm0-1.16a1.73,1.73,0,0,0,1.74-1.82v0a1.78,1.78,0,0,0-1.77-1.85,1.72,1.72,0,0,0-1.73,1.83v0a1.77,1.77,0,0,0,1.76,1.84Zm4.4.43a.66.66,0,0,0,1.32,0v-1.7c0-1.37.65-2.09,1.59-2.25a.65.65,0,0,0-.14-1.29,1.85,1.85,0,0,0-1.45,1.27v-.59a.66.66,0,1,0-1.32,0Zm10-6.76v6.76a.66.66,0,0,1-1.32,0v-.36a2.32,2.32,0,0,1-2,1.08,2.76,2.76,0,0,1-2.67-3v0a2.75,2.75,0,0,1,2.67-3,2.39,2.39,0,0,1,2,1V40a.64.64,0,0,1,.65-.66A.66.66,0,0,1,107.22,40Zm-3,2.62a1.7,1.7,0,0,0-1.66,1.85v0a1.72,1.72,0,0,0,1.66,1.84,1.74,1.74,0,0,0,1.67-1.84v0A1.74,1.74,0,0,0,104.25,42.64ZM109,46.77V40.42a.67.67,0,0,1,.68-.68H112c1.79,0,2.9,1,2.9,2.56v0c0,1.71-1.37,2.61-3,2.61h-1.52v1.84a.67.67,0,0,1-1.34,0Zm1.34-3.06h1.56c1,0,1.65-.56,1.65-1.36v0c0-.9-.64-1.36-1.65-1.36h-1.56Zm5.8,3.07a.64.64,0,0,0,.65.65.66.66,0,0,0,.67-.65v-1.7c0-1.37.64-2.09,1.58-2.25a.65.65,0,0,0-.13-1.29,1.83,1.83,0,0,0-1.45,1.27v-.59a.67.67,0,0,0-.67-.67.65.65,0,0,0-.65.67Zm5.3-2.68h3A1.49,1.49,0,0,0,123,42.58,1.56,1.56,0,0,0,121.47,44.1Zm3.72,2.65a3,3,0,0,1-2.07.76,2.88,2.88,0,0,1-3-3v0a2.86,2.86,0,0,1,2.81-3,2.73,2.73,0,0,1,2.74,2.84.61.61,0,0,1-.62.63h-3.61a1.61,1.61,0,0,0,1.66,1.46,2.1,2.1,0,0,0,1.36-.5.49.49,0,0,1,.34-.12.52.52,0,0,1,.52.53A.57.57,0,0,1,125.19,46.75Zm3.85.74c1.2,0,2.14-.6,2.14-1.81v0c0-1-1-1.42-1.79-1.68-.68-.22-1.3-.4-1.3-.82v0c0-.33.29-.57.81-.57a3.14,3.14,0,0,1,1.35.39.46.46,0,0,0,.26.07.53.53,0,0,0,.55-.54.55.55,0,0,0-.32-.5,4,4,0,0,0-1.81-.47,1.84,1.84,0,0,0-2.05,1.76v0c0,1.1,1,1.45,1.8,1.69.68.21,1.29.36,1.29.81v0c0,.38-.33.62-.9.62a3.06,3.06,0,0,1-1.66-.55.49.49,0,0,0-.28-.08.52.52,0,0,0-.53.53.48.48,0,0,0,.25.46A3.91,3.91,0,0,0,129,47.49Zm5.36,0c1.2,0,2.13-.6,2.13-1.81v0c0-1-.95-1.42-1.79-1.68-.67-.22-1.29-.4-1.29-.82v0c0-.33.29-.57.8-.57a3.14,3.14,0,0,1,1.36.39.44.44,0,0,0,.26.07.53.53,0,0,0,.54-.54.56.56,0,0,0-.31-.5,4,4,0,0,0-1.81-.47,1.84,1.84,0,0,0-2,1.76v0c0,1.1.94,1.45,1.8,1.69.67.21,1.28.36,1.28.81v0c0,.38-.32.62-.89.62a3,3,0,0,1-1.66-.55.51.51,0,0,0-.28-.08.53.53,0,0,0-.54.53.5.5,0,0,0,.25.46A3.94,3.94,0,0,0,134.4,47.49Zm6.91-.72V40.42a.67.67,0,0,1,.68-.68h2.33c1.79,0,2.91,1,2.91,2.56v0c0,1.71-1.38,2.61-3.06,2.61h-1.51v1.84a.68.68,0,0,1-1.35,0Zm1.35-3.06h1.56c1,0,1.64-.56,1.64-1.36v0c0-.9-.64-1.36-1.64-1.36h-1.56Zm6.73.39h3a1.49,1.49,0,0,0-1.46-1.52A1.55,1.55,0,0,0,149.39,44.1Zm3.72,2.65a3,3,0,0,1-2.08.76,2.87,2.87,0,0,1-2.95-3v0a2.85,2.85,0,0,1,2.81-3,2.73,2.73,0,0,1,2.74,2.84A.61.61,0,0,1,153,45H149.4a1.6,1.6,0,0,0,1.66,1.46,2,2,0,0,0,1.36-.5.47.47,0,0,1,.34-.12.52.52,0,0,1,.52.53A.57.57,0,0,1,153.11,46.75Zm1.87,0a.66.66,0,0,0,1.32,0v-1.7c0-1.37.65-2.09,1.58-2.25a.65.65,0,0,0-.13-1.29,1.85,1.85,0,0,0-1.45,1.27v-.59a.66.66,0,1,0-1.32,0Zm4.8,0a.66.66,0,0,0,1.32,0v-4h1a.55.55,0,1,0,0-1.09h-1v-.31c0-.6.26-.88.77-.88l.27,0a.54.54,0,0,0,.55-.55.53.53,0,0,0-.45-.54,3.26,3.26,0,0,0-.67-.06,1.73,1.73,0,0,0-1.3.46,2,2,0,0,0-.47,1.42v.42h-.23a.56.56,0,0,0-.55.56.55.55,0,0,0,.55.54h.23Zm6.44.73a3,3,0,0,1-3.05-3v0a3.07,3.07,0,0,1,6.14,0v0a3,3,0,0,1-3.09,3Zm0-1.16A1.73,1.73,0,0,0,168,44.53v0a1.78,1.78,0,0,0-1.77-1.85,1.72,1.72,0,0,0-1.73,1.83v0a1.77,1.77,0,0,0,1.75,1.84Zm4.41.43a.66.66,0,0,0,1.32,0v-1.7c0-1.37.64-2.09,1.58-2.25a.65.65,0,0,0-.13-1.29A1.84,1.84,0,0,0,172,42.81v-.59a.66.66,0,1,0-1.32,0Zm4.51,0a.64.64,0,0,0,.65.65.65.65,0,0,0,.67-.65V44.13a1.26,1.26,0,0,1,1.23-1.43c.73,0,1.17.5,1.17,1.4v2.68a.66.66,0,0,0,1.32,0V44.13c0-.93.51-1.43,1.23-1.43s1.17.49,1.17,1.41v2.67a.66.66,0,0,0,1.32,0V43.7a1.94,1.94,0,0,0-2-2.2,2.31,2.31,0,0,0-1.94,1,1.84,1.84,0,0,0-1.73-1,2.06,2.06,0,0,0-1.75,1v-.27a.67.67,0,0,0-.67-.67.65.65,0,0,0-.65.67v4.56Zm12,.72a1.84,1.84,0,0,1-2-1.78v0c0-1.24,1-1.85,2.38-1.85a4.63,4.63,0,0,1,1.55.24v-.15c0-.81-.51-1.25-1.43-1.25a3.48,3.48,0,0,0-1.28.23l-.21,0a.55.55,0,0,1-.55-.54.58.58,0,0,1,.36-.53,4.85,4.85,0,0,1,1.85-.34,2.56,2.56,0,0,1,1.91.65,2.35,2.35,0,0,1,.62,1.77V46.8a.62.62,0,0,1-.64.63.59.59,0,0,1-.64-.55v-.22a2.36,2.36,0,0,1-1.88.84Zm.37-1c.87,0,1.54-.5,1.54-1.23v-.4a3.71,3.71,0,0,0-1.31-.23c-.85,0-1.35.37-1.35,1v0C186.43,46.22,186.92,46.54,187.55,46.54Zm4.37.24a.67.67,0,0,0,1.33,0V44.13a1.28,1.28,0,0,1,1.29-1.43c.79,0,1.24.51,1.24,1.41v2.67a.66.66,0,0,0,1.32,0V43.7A2,2,0,0,0,195,41.5a2.08,2.08,0,0,0-1.79,1v-.28a.67.67,0,0,0-.67-.67.66.66,0,0,0-.66.67v4.56Zm9.43.73a2.85,2.85,0,0,0,2.1-.82.51.51,0,0,0,.18-.41.57.57,0,0,0-.57-.58.62.62,0,0,0-.36.14,1.89,1.89,0,0,1-1.28.51,1.74,1.74,0,0,1-1.73-1.84v0a1.73,1.73,0,0,1,1.67-1.83,1.76,1.76,0,0,1,1.23.49.73.73,0,0,0,.4.13.6.6,0,0,0,.61-.6.63.63,0,0,0-.21-.46,2.89,2.89,0,0,0-2-.72,3,3,0,0,0-3,3v0a2.94,2.94,0,0,0,3,3Zm4.4-3.41h2.95a1.48,1.48,0,0,0-1.46-1.52,1.56,1.56,0,0,0-1.49,1.52Zm3.72,2.65a3,3,0,0,1-2.07.76,2.88,2.88,0,0,1-3-3v0a2.86,2.86,0,0,1,2.81-3A2.73,2.73,0,0,1,210,44.34a.61.61,0,0,1-.62.63h-3.61a1.61,1.61,0,0,0,1.66,1.46,2.1,2.1,0,0,0,1.36-.5.49.49,0,0,1,.34-.12.52.52,0,0,1,.52.53A.57.57,0,0,1,209.47,46.75Z"/></g></svg>