<svg xmlns="http://www.w3.org/2000/svg" viewBox="0 0 255 73"><defs><style>.a{fill:#524f54;}.b{fill:#33879e;}.c{fill:#c9471f;}</style></defs><path class="a" d="M56.65,65c.81,1.91.72,4.76,2,6.29l.33.19c7.34-.43,7.72-8.72,4.15-12.58a5.82,5.82,0,0,0-6.67-1C41.88,64.15,28,60.15,19.63,51.52a28.12,28.12,0,0,1-8.38-16.77C8.82,14.46,25.49,1.64,36.93.26a31.15,31.15,0,0,1,26.35,9c7,7,10.76,17.53,8.52,29.58-1,5.58-4.33,12.49-11.72,12.49a11,11,0,0,1-8-3.48,10.59,10.59,0,0,1-3.38-7.2C48,29.7,62.08,26.65,61.13,15.7a8,8,0,0,0-2.38-5.1C54.46,6.5,45.89,4.93,38.07,6.5c-9.67,2-19,10.77-20.58,21.3a30.31,30.31,0,0,0,8.05,24.82c5.67,5.57,13.82,8.67,23.87,6.38,3.24-.76,5.67-3.81,11-3a7.35,7.35,0,0,1,4.52,2.38c4.24,3.91,3.58,12.25-2,14.15-2.86,1-8,.19-10.29-2.33h-.1a3.23,3.23,0,0,1-.76-.62,4.6,4.6,0,0,1-1.38-3.76c.19-2.29,1.62-4,3.24-3.91a2.31,2.31,0,0,1,1.71.91A4,4,0,0,1,56.65,65Z"/><path class="b" d="M130.26,20.89a7.44,7.44,0,0,0-1.47.33,6.91,6.91,0,0,0-1.62.72,5.84,5.84,0,0,0-1.48,1.28,8.62,8.62,0,0,0-1,2.1c-1.19,4-2.67,8.72-4.29,14.06s-3.38,11.1-5.29,17.19h-2.43L103.34,28,93.63,56.57H91.29c-1.67-6.09-3.48-12.43-5.34-19s-3-11-3.66-13.19A6,6,0,0,0,81.57,23a4,4,0,0,0-1.24-1.15,5,5,0,0,0-1.52-.66,12,12,0,0,0-1.57-.29V19h15.1v1.86a19.18,19.18,0,0,0-3.38.43c-1,.19-1.39.47-1.39.95a3.78,3.78,0,0,0,.05.67,3.07,3.07,0,0,0,.14.71c.43,1.53,1.15,4.05,2.15,7.58s2.52,8.8,4.53,15.89l9.24-27.53h2.57l9.29,28.11c1.29-4.29,2.34-8.1,3.24-11.34s1.67-6,2.24-8.29c.43-1.62.72-2.72.81-3.34a9.16,9.16,0,0,0,.14-1.48c0-.62-.38-1.09-1.19-1.52a12.18,12.18,0,0,0-4-.81V19h13.43Zm30.16,7.29a11,11,0,0,1-1.14,5.14A10.64,10.64,0,0,1,156.13,37a13.7,13.7,0,0,1-4.33,2.1,18,18,0,0,1-5.05.71H142.6V51.1a4.2,4.2,0,0,0,.29,1.57,2,2,0,0,0,1.24,1,6.77,6.77,0,0,0,1.67.33,18,18,0,0,0,2.19.19V56.1H132.07V54.24c.39-.05,1-.09,1.81-.19a5.27,5.27,0,0,0,1.67-.33,2.3,2.3,0,0,0,1.15-1,4.31,4.31,0,0,0,.3-1.62V24.32a4.3,4.3,0,0,0-.29-1.62,1.75,1.75,0,0,0-1.19-1.1,11.53,11.53,0,0,0-2-.52c-.62-.1-1.19-.14-1.67-.19V19h17a13.25,13.25,0,0,1,8.38,2.53A8,8,0,0,1,160.42,28.18Zm-7.95,6.34a7,7,0,0,0,1.19-2.62,11.31,11.31,0,0,0,.28-2.39,17.36,17.36,0,0,0-.33-3.05,7.51,7.51,0,0,0-1.24-2.71A6.34,6.34,0,0,0,150,21.89a8.63,8.63,0,0,0-3.72-.71H142.6V37.56h2.67a10.6,10.6,0,0,0,4.58-.85A7.3,7.3,0,0,0,152.47,34.52Z"/><path class="c" d="M209.26,56.1H192.92V54.24c.57,0,1.33-.09,2.28-.19a6,6,0,0,0,1.91-.43,3.51,3.51,0,0,0,1.19-1.14,3.28,3.28,0,0,0,.38-1.62V23.94h-.38L185.63,55.48h-1.29L172.29,23.27H172V45.38a20.73,20.73,0,0,0,.43,4.91,4.21,4.21,0,0,0,1.24,2.38,5.77,5.77,0,0,0,2.38,1,12.38,12.38,0,0,0,2.34.52V56.1h-15V54.24a15.85,15.85,0,0,0,2.47-.38,4.43,4.43,0,0,0,2-.86,3.76,3.76,0,0,0,1.28-2.24,25.39,25.39,0,0,0,.34-5v-19a9,9,0,0,0-.38-2.67A4.77,4.77,0,0,0,168,22.43a5.17,5.17,0,0,0-2-1.1,10.3,10.3,0,0,0-2.34-.38V19h12.63l10.58,27.78,9.1-23.2a17.85,17.85,0,0,0,.81-2.67,10.26,10.26,0,0,0,.38-1.91h12.1v1.86q-.93.08-1.86.24c-.76.14-1.28.28-1.67.38a2,2,0,0,0-1.19,1,4.46,4.46,0,0,0-.33,1.62V50.86a3.85,3.85,0,0,0,.33,1.57,3,3,0,0,0,1.19,1.1,5.7,5.7,0,0,0,1.67.47,12.31,12.31,0,0,0,1.91.24ZM244,45.1l-.76,11h-29V54.24c.43-.05,1-.09,1.81-.19a5.27,5.27,0,0,0,1.67-.33,2.36,2.36,0,0,0,1.14-1,3.53,3.53,0,0,0,.33-1.66V24.51A3.76,3.76,0,0,0,218.9,23a2.08,2.08,0,0,0-1.19-1.1,7.14,7.14,0,0,0-1.67-.62,8.57,8.57,0,0,0-1.81-.38V19h15.63v1.86c-.48.05-1.1.14-1.86.29a10.27,10.27,0,0,0-1.72.42,1.76,1.76,0,0,0-1.19,1,3.62,3.62,0,0,0-.33,1.62v25a19.91,19.91,0,0,0,.14,2.67,2.67,2.67,0,0,0,.81,1.53,4,4,0,0,0,1.81.57,20.11,20.11,0,0,0,3.29.19c.67,0,1.33-.05,2-.1a12.2,12.2,0,0,0,2-.19,9.21,9.21,0,0,0,1.72-.43,2.72,2.72,0,0,0,1.14-.71,23.43,23.43,0,0,0,2.48-3.62,23.11,23.11,0,0,0,1.95-4Z"/></svg>