<?xml version="1.0" encoding="utf-8"?>
<!-- Generator: Adobe Illustrator 25.0.1, SVG Export Plug-In . SVG Version: 6.00 Build 0)  -->
<svg version="1.1" id="Layer_4" xmlns="http://www.w3.org/2000/svg" xmlns:xlink="http://www.w3.org/1999/xlink" x="0px" y="0px"
	 viewBox="0 0 63 60" style="enable-background:new 0 0 63 60;" xml:space="preserve">
<style type="text/css">
	.st0{fill:#B12740;}
	.st1{fill:#D62F4C;}
	.st2{fill:#FD3B5D;}
</style>
<g>
	<path class="st0" d="M28.8,59.3L0.9,42.8c-0.8-0.5-0.8-1.6,0-2l28.3-16.3c1.4-0.8,3.2-0.8,4.7,0l28.3,16.3c0.8,0.5,0.8,1.6,0,2
		L34.2,59.3C32.5,60.2,30.5,60.2,28.8,59.3z"/>
	<path class="st1" d="M28.8,47.8L0.9,31.4c-0.8-0.5-0.8-1.6,0-2l28.3-16.3c1.4-0.8,3.2-0.8,4.7,0l28.3,16.3c0.8,0.5,0.8,1.6,0,2
		L34.2,47.8C32.5,48.8,30.5,48.8,28.8,47.8L28.8,47.8z"/>
	<path class="st2" d="M28.8,35.4L0.9,19c-0.8-0.5-0.8-1.6,0-2L29.2,0.6c1.4-0.8,3.2-0.8,4.7,0l28.3,16.3c0.8,0.5,0.8,1.6,0,2
		L34.2,35.4C32.5,36.4,30.5,36.4,28.8,35.4z"/>
</g>
</svg>
