<svg xmlns="http://www.w3.org/2000/svg" viewBox="0 0 60 60"><defs><style>.a{fill:#724ebe;}.b{fill:#fff;}</style></defs><path class="a" d="M0,54.56V5.44a6.32,6.32,0,0,0,.22-.61A5.82,5.82,0,0,1,4.47.29c.32-.11.64-.19,1-.29H54.56a6.32,6.32,0,0,0,.61.22,5.81,5.81,0,0,1,4.51,4.16c.12.35.22.7.32,1.06V54.56a6.32,6.32,0,0,0-.22.61,5.81,5.81,0,0,1-4.16,4.51L54.56,60H5.44a6.32,6.32,0,0,0-.61-.22A5.81,5.81,0,0,1,.32,55.62C.2,55.27.1,54.92,0,54.56Z" transform="translate(0)"/><path class="b" d="M10.74,11.14c.45,0,.74-.06,1-.06,4.72,0,9.44,0,14.15,0,.8,0,1.09.19,1.08,1,0,4.74,0,9.49,0,14.24,0,.27,0,.54-.05.76l-5.51-5.55a11.71,11.71,0,0,0,7,19.67c1,.12,1.23.46,1.19,1.39-.07,1.72,0,3.44,0,5.16,0,.54-.15.77-.76.74A19,19,0,0,1,11.2,32a18.77,18.77,0,0,1,4.5-14.78l.53-.63Z" transform="translate(0)"/><path class="b" d="M43.64,42.68l5.54,5.41c-.41,0-.68.08-.94.08-4.75,0-9.5,0-14.25,0-.81,0-1.07-.22-1.07-1,0-4.79,0-9.57,0-14.35,0-.24,0-.48,0-.78l5.6,5.66c3.21-4,4-8.17,2.15-12.67s-5.52-6.68-10.34-7.2c0-2.23,0-4.42,0-6.6,0-.16.53-.46.79-.44A18.47,18.47,0,0,1,43.05,16,18.82,18.82,0,0,1,44.2,42Z" transform="translate(0)"/></svg>