<svg xmlns="http://www.w3.org/2000/svg" viewBox="0 0 14.8 13.96"><defs><style>.a{fill:#fff;fill-rule:evenodd;}</style></defs><path class="a" d="M8.2,17.9c.2.2.6,0,.6-.3V13.2c0-.3-.4-.5-.6-.3L5.5,15.1c-.2.1-.2.4,0,.6Z" transform="translate(-3.6 -4.02)"/><path class="a" d="M13.8,4.1c-.2-.2-.6,0-.6.3V8.8c0,.3.4.5.6.3l2.7-2.2c.2-.1.2-.4,0-.6Z" transform="translate(-3.6 -4.02)"/><path class="a" d="M15.4,6.6a.68.68,0,0,0-.7-.7H8a4.37,4.37,0,0,0-4.4,4.4A3.66,3.66,0,0,0,4,12.1a.82.82,0,0,0,1,.4.82.82,0,0,0,.4-1,2.66,2.66,0,0,1-.3-1.2,3,3,0,0,1,3-3h6.7A.67.67,0,0,0,15.4,6.6Z" transform="translate(-3.6 -4.02)"/><path class="a" d="M6.6,15.4a.68.68,0,0,0,.7.7H14a4.37,4.37,0,0,0,4.4-4.4A3.66,3.66,0,0,0,18,9.9a.76.76,0,1,0-1.4.6,2.66,2.66,0,0,1,.3,1.2,3,3,0,0,1-3,3H7.3A.68.68,0,0,0,6.6,15.4Z" transform="translate(-3.6 -4.02)"/></svg>