<?xml version="1.0" encoding="UTF-8"?><svg id="Layer_4" xmlns="http://www.w3.org/2000/svg" viewBox="0 0 300 270"><defs><style>.cls-1{fill:#fff;}.cls-2{fill:#d2d2db;}.cls-3{fill:#dd9a5e;}.cls-4{fill:#222124;}.cls-5{fill:#424245;}.cls-6{fill:#52ad46;}.cls-7{fill:#353637;}.cls-8{opacity:.6;}.cls-9{fill:#5388be;fill-rule:evenodd;}</style></defs><g><rect class="cls-4" y="20.03" width="300" height="249.97" rx="5.62" ry="5.62"/><g><path class="cls-6" d="M32.78,83.83v-.7l6.54-4.06,.8,1.26-5.1,3.08,5.1,3.01-.8,1.26-6.54-3.85Z"/><path class="cls-6" d="M40.68,78.16h2.83v3.58h.06c.22-.3,.52-.54,.9-.71,.37-.18,.81-.27,1.32-.27,.35,0,.68,.05,.98,.14,.3,.09,.55,.25,.77,.46s.38,.51,.5,.88c.12,.37,.18,.82,.18,1.37v4.35h-1.82v-3.98c0-.57-.12-.98-.36-1.23s-.56-.38-.95-.38c-.34,0-.66,.1-.95,.31-.29,.21-.49,.48-.62,.81v4.47h-1.82v-8.26h-1.01v-1.54Z"/><path class="cls-6" d="M56.4,87.96h-6.24v-1.36c.11-.09,.25-.22,.42-.37,.17-.15,.36-.33,.57-.53s.43-.41,.67-.64c.23-.23,.46-.48,.69-.73,.32-.35,.6-.68,.83-.97,.24-.29,.43-.56,.59-.82,.15-.26,.27-.51,.34-.76,.07-.25,.11-.5,.11-.76,0-.19-.04-.37-.13-.55-.08-.18-.2-.33-.35-.47-.15-.13-.33-.24-.54-.32s-.44-.12-.69-.12c-.34,0-.64,.05-.92,.15-.28,.1-.56,.28-.86,.52l-.73-1.29c.39-.28,.83-.52,1.31-.71,.48-.19,1.03-.29,1.66-.29,.4,0,.79,.06,1.16,.17s.7,.28,.98,.5c.28,.22,.51,.49,.68,.82,.17,.33,.25,.7,.25,1.13,0,.3-.03,.58-.08,.83s-.13,.51-.24,.77c-.11,.26-.25,.52-.42,.79-.17,.27-.38,.57-.62,.88-.19,.24-.39,.49-.61,.73-.22,.25-.44,.48-.65,.71-.21,.22-.43,.43-.64,.63-.21,.2-.4,.36-.57,.49h4.03v1.54Z"/><path class="cls-6" d="M58.78,87.68l-.8-1.26,5.1-3.01-5.1-3.08,.8-1.26,6.54,4.06v.7l-6.54,3.85Z"/><path class="cls-2" d="M66.44,78.16h7.28v2.56h-1.04v-1.53h-2.03v7.73h1.54v1.04h-4.24v-1.04h1.54v-7.73h-2.02v1.53h-1.04v-2.56Z"/><path class="cls-2" d="M74.34,78.16h2.18v3.67h.07c.29-.33,.62-.58,1.01-.76,.38-.18,.86-.27,1.43-.27,.45,0,.84,.05,1.17,.14,.33,.09,.6,.26,.81,.49s.37,.55,.47,.96c.1,.41,.15,.92,.15,1.55v4.03h-1.11v-3.82c0-.4-.02-.75-.07-1.05s-.14-.55-.27-.75c-.13-.2-.32-.35-.55-.46s-.53-.15-.89-.15c-.25,0-.5,.04-.74,.13-.24,.09-.46,.21-.66,.36-.2,.15-.37,.34-.52,.56-.14,.22-.24,.46-.3,.72v4.45h-1.08v-8.86h-1.11v-.94Z"/><path class="cls-2" d="M90.09,87.08c-.17,.15-.37,.29-.59,.42-.23,.13-.48,.24-.75,.34-.27,.09-.55,.17-.85,.22-.29,.05-.59,.08-.89,.08-.56,0-1.05-.09-1.48-.26-.43-.17-.79-.42-1.08-.74-.29-.32-.51-.71-.66-1.16-.15-.45-.22-.95-.22-1.51,0-.59,.08-1.11,.25-1.57,.16-.46,.4-.84,.71-1.15s.68-.54,1.12-.71,.93-.25,1.47-.25c.39,0,.78,.05,1.16,.15s.72,.3,1.02,.58c.29,.28,.52,.68,.68,1.18,.16,.5,.21,1.15,.17,1.94h-5.4c0,.84,.23,1.47,.68,1.88,.45,.42,1.05,.62,1.81,.62,.25,0,.5-.03,.75-.09,.25-.06,.48-.13,.71-.22,.22-.08,.42-.18,.59-.28,.17-.1,.3-.2,.4-.28l.43,.8Zm-2.95-5.36c-.31,0-.6,.03-.87,.1-.28,.07-.52,.18-.73,.33-.21,.15-.38,.36-.52,.6-.14,.25-.22,.55-.26,.92h4.34c-.05-.62-.24-1.09-.59-1.44-.35-.34-.81-.51-1.37-.51Z"/><path class="cls-2" d="M105.63,82.04c-.21-.08-.45-.14-.69-.19-.25-.05-.49-.08-.74-.08-.91,0-1.6,.22-2.04,.65-.45,.43-.67,1.11-.67,2.05,0,.41,.07,.78,.2,1.1,.13,.32,.32,.6,.56,.82,.24,.22,.53,.4,.88,.52,.34,.12,.72,.18,1.13,.18,.44,0,.87-.08,1.28-.23s.76-.35,1.04-.6l.49,.81c-.13,.11-.29,.23-.49,.35-.2,.12-.42,.24-.68,.34-.26,.11-.54,.19-.85,.26-.31,.06-.65,.1-1.01,.1-.61,0-1.14-.09-1.6-.26s-.85-.42-1.16-.74-.54-.71-.7-1.16c-.16-.45-.24-.95-.24-1.5,0-.59,.08-1.11,.25-1.57,.16-.46,.4-.84,.71-1.15s.68-.54,1.12-.71,.93-.25,1.47-.25c.69,0,1.25,.06,1.69,.18,.43,.12,.8,.26,1.1,.41v.04s-.01,1.95-.01,1.95h-1.01v-1.33Z"/><path class="cls-2" d="M108.68,84.46c0-1.13,.29-2.02,.88-2.68,.59-.66,1.43-.99,2.52-.99,.59,0,1.09,.1,1.52,.29s.78,.45,1.06,.78c.28,.33,.49,.71,.62,1.16,.14,.45,.2,.93,.2,1.44,0,.56-.07,1.07-.22,1.52-.15,.45-.37,.84-.66,1.16s-.65,.56-1.07,.74-.91,.26-1.45,.26c-.58,0-1.08-.1-1.51-.29-.43-.19-.78-.45-1.06-.78-.28-.33-.49-.71-.62-1.16-.14-.45-.2-.93-.2-1.44Zm1.16,0c0,.33,.04,.65,.12,.98,.08,.33,.21,.62,.38,.88,.18,.26,.41,.47,.69,.63,.28,.16,.63,.24,1.04,.24,.74,0,1.31-.23,1.68-.69,.38-.46,.57-1.14,.57-2.04,0-.34-.04-.67-.12-.99-.08-.32-.21-.61-.39-.88-.18-.26-.41-.47-.7-.63-.28-.16-.63-.24-1.04-.24-.74,0-1.3,.23-1.67,.69s-.56,1.14-.56,2.04Z"/><path class="cls-2" d="M121.15,78.16h2.28v7.41c0,.08,0,.19,.01,.31,0,.13,.02,.26,.04,.4,.01,.14,.03,.28,.05,.41,.02,.13,.04,.25,.06,.36h.94v.91h-1.88l-.14-1.08h-.06c-.21,.35-.51,.65-.92,.89-.41,.24-.87,.36-1.4,.36-1.05,0-1.83-.3-2.33-.89s-.75-1.51-.75-2.77c0-.59,.08-1.11,.25-1.56,.17-.45,.41-.83,.72-1.13,.31-.3,.69-.53,1.12-.69,.44-.16,.93-.24,1.47-.24,.2,0,.37,0,.52,.01,.15,0,.3,.02,.43,.04,.13,.02,.25,.04,.37,.08,.12,.03,.24,.07,.38,.1v-1.99h-1.18v-.94Zm-.83,9.03c.57,0,1.01-.15,1.34-.44,.33-.29,.55-.74,.67-1.32v-3.25c-.2-.14-.43-.24-.69-.31s-.59-.1-1.01-.1c-.74,0-1.33,.22-1.76,.65-.43,.43-.64,1.12-.64,2.05,0,.38,.04,.74,.1,1.07s.19,.62,.35,.86c.16,.24,.38,.43,.65,.57,.27,.14,.6,.21,.99,.21Z"/><path class="cls-2" d="M132.08,87.08c-.17,.15-.37,.29-.59,.42s-.48,.24-.75,.34c-.27,.09-.55,.17-.85,.22-.29,.05-.59,.08-.89,.08-.56,0-1.06-.09-1.48-.26-.43-.17-.79-.42-1.08-.74s-.51-.71-.66-1.16c-.15-.45-.22-.95-.22-1.51,0-.59,.08-1.11,.25-1.57,.16-.46,.4-.84,.71-1.15,.31-.31,.68-.54,1.12-.71,.44-.16,.93-.25,1.47-.25,.39,0,.78,.05,1.16,.15s.72,.3,1.01,.58c.29,.28,.52,.68,.68,1.18,.16,.5,.21,1.15,.17,1.94h-5.4c0,.84,.23,1.47,.68,1.88,.45,.42,1.05,.62,1.81,.62,.25,0,.5-.03,.75-.09,.25-.06,.48-.13,.71-.22s.42-.18,.59-.28c.17-.1,.3-.2,.4-.28l.43,.8Zm-2.95-5.36c-.31,0-.6,.03-.87,.1-.27,.07-.52,.18-.73,.33-.21,.15-.38,.36-.52,.6s-.22,.55-.26,.92h4.34c-.05-.62-.24-1.09-.59-1.44-.35-.34-.81-.51-1.37-.51Z"/><path class="cls-2" d="M148.88,87.08c-.17,.15-.37,.29-.59,.42s-.48,.24-.75,.34c-.27,.09-.55,.17-.85,.22-.29,.05-.59,.08-.89,.08-.56,0-1.06-.09-1.48-.26-.43-.17-.79-.42-1.08-.74s-.51-.71-.66-1.16c-.15-.45-.22-.95-.22-1.51,0-.59,.08-1.11,.25-1.57,.16-.46,.4-.84,.71-1.15,.31-.31,.68-.54,1.12-.71,.44-.16,.93-.25,1.47-.25,.39,0,.78,.05,1.16,.15s.72,.3,1.01,.58c.29,.28,.52,.68,.68,1.18,.16,.5,.21,1.15,.17,1.94h-5.4c0,.84,.23,1.47,.68,1.88,.45,.42,1.05,.62,1.81,.62,.25,0,.5-.03,.75-.09,.25-.06,.48-.13,.71-.22s.42-.18,.59-.28c.17-.1,.3-.2,.4-.28l.43,.8Zm-2.95-5.36c-.31,0-.6,.03-.87,.1-.27,.07-.52,.18-.73,.33-.21,.15-.38,.36-.52,.6s-.22,.55-.26,.92h4.34c-.05-.62-.24-1.09-.59-1.44-.35-.34-.81-.51-1.37-.51Z"/><path class="cls-2" d="M154.75,78.16h2.28v7.41c0,.08,0,.19,.01,.31,0,.13,.02,.26,.04,.4,.01,.14,.03,.28,.05,.41,.02,.13,.04,.25,.06,.36h.94v.91h-1.88l-.14-1.08h-.06c-.21,.35-.51,.65-.92,.89-.41,.24-.87,.36-1.4,.36-1.05,0-1.83-.3-2.33-.89s-.75-1.51-.75-2.77c0-.59,.08-1.11,.25-1.56,.17-.45,.41-.83,.72-1.13,.31-.3,.69-.53,1.12-.69,.44-.16,.93-.24,1.47-.24,.2,0,.37,0,.52,.01,.15,0,.3,.02,.43,.04,.13,.02,.25,.04,.37,.08,.12,.03,.24,.07,.38,.1v-1.99h-1.18v-.94Zm-.83,9.03c.57,0,1.01-.15,1.34-.44,.33-.29,.55-.74,.67-1.32v-3.25c-.2-.14-.43-.24-.69-.31s-.59-.1-1.01-.1c-.74,0-1.33,.22-1.76,.65-.43,.43-.64,1.12-.64,2.05,0,.38,.04,.74,.1,1.07s.19,.62,.35,.86c.16,.24,.38,.43,.65,.57,.27,.14,.6,.21,.99,.21Z"/><path class="cls-2" d="M159.75,87.96v-.94h2.44v-5.12h-2.44v-.94h3.54v6.06h2.38v.94h-5.92Zm2.04-8.99c0-.25,.08-.47,.25-.65,.17-.18,.38-.27,.64-.27s.5,.09,.68,.27c.18,.18,.27,.4,.27,.65s-.09,.45-.27,.62-.41,.25-.68,.25-.48-.08-.64-.25-.25-.37-.25-.62Z"/><path class="cls-2" d="M167.11,80.96h1.67v-1.39l1.11-.31v1.69h3.74v.94h-3.74v3.3c0,.68,.17,1.19,.5,1.51,.33,.33,.8,.49,1.42,.49,.42,0,.78-.08,1.09-.24,.31-.16,.59-.33,.84-.52l.36,.83c-.33,.26-.72,.47-1.17,.63-.45,.16-.92,.24-1.39,.24-.37,0-.73-.05-1.06-.16-.33-.11-.62-.27-.88-.5-.25-.22-.45-.51-.6-.86s-.22-.77-.22-1.25v-3.47h-1.67v-.94Z"/><path class="cls-2" d="M175.88,84.46c0-1.13,.29-2.02,.88-2.68,.59-.66,1.43-.99,2.52-.99,.59,0,1.09,.1,1.52,.29s.78,.45,1.06,.78c.28,.33,.49,.71,.62,1.16,.14,.45,.2,.93,.2,1.44,0,.56-.07,1.07-.22,1.52-.15,.45-.37,.84-.66,1.16s-.65,.56-1.07,.74-.91,.26-1.45,.26c-.58,0-1.08-.1-1.51-.29-.43-.19-.78-.45-1.06-.78-.28-.33-.49-.71-.62-1.16-.14-.45-.2-.93-.2-1.44Zm1.16,0c0,.33,.04,.65,.12,.98,.08,.33,.21,.62,.38,.88,.18,.26,.41,.47,.69,.63,.28,.16,.63,.24,1.04,.24,.74,0,1.31-.23,1.68-.69,.38-.46,.57-1.14,.57-2.04,0-.34-.04-.67-.12-.99-.08-.32-.21-.61-.39-.88-.18-.26-.41-.47-.7-.63-.28-.16-.63-.24-1.04-.24-.74,0-1.3,.23-1.67,.69s-.56,1.14-.56,2.04Z"/><path class="cls-2" d="M184.4,87.96v-.94h1.89v-5.12h-1.89v-.94h2.62l.22,.91h.07c.32-.29,.67-.54,1.06-.74,.39-.21,.86-.31,1.4-.31,.32,0,.57,.06,.76,.18s.34,.3,.45,.53c.11,.23,.18,.52,.22,.85,.04,.33,.06,.71,.06,1.13h-.98c0-.58-.06-1.01-.18-1.29-.12-.28-.33-.42-.64-.42-.29,0-.55,.04-.78,.13s-.44,.19-.61,.31c-.17,.12-.32,.24-.44,.36s-.21,.22-.27,.31v4.12h2.69v.94h-5.66Z"/><path class="cls-2" d="M201.75,87.96v-.94h2.44v-5.12h-2.44v-.94h3.54v6.06h2.38v.94h-5.92Zm2.04-8.99c0-.25,.08-.47,.25-.65,.17-.18,.38-.27,.64-.27s.5,.09,.68,.27c.18,.18,.27,.4,.27,.65s-.09,.45-.27,.62c-.18,.17-.41,.25-.68,.25s-.48-.08-.64-.25-.25-.37-.25-.62Z"/><path class="cls-2" d="M214.8,86.07c0-.3-.12-.53-.35-.69s-.52-.29-.87-.39c-.34-.1-.72-.19-1.12-.27-.4-.08-.78-.2-1.12-.34-.34-.14-.63-.33-.87-.57-.23-.24-.35-.57-.35-1,0-.35,.08-.66,.23-.91,.15-.25,.36-.46,.61-.62,.25-.16,.55-.29,.88-.36s.69-.12,1.05-.12c.65,0,1.22,.08,1.69,.25,.47,.16,.85,.33,1.13,.51l-.45,.88c-.31-.17-.64-.33-1-.48-.36-.15-.81-.23-1.35-.23-.2,0-.41,.02-.61,.06-.2,.04-.38,.1-.54,.19s-.29,.19-.39,.33c-.1,.14-.15,.3-.15,.5,0,.24,.12,.43,.35,.56,.23,.13,.52,.24,.87,.33,.34,.09,.72,.17,1.12,.25,.4,.08,.78,.19,1.12,.34,.34,.15,.63,.35,.87,.6s.35,.59,.35,1.02c0,.64-.25,1.18-.76,1.6s-1.27,.63-2.29,.63c-.31,0-.61-.03-.91-.08s-.58-.13-.84-.22c-.26-.09-.5-.2-.71-.32-.21-.12-.39-.24-.53-.36l.56-.91c.11,.11,.26,.23,.45,.34,.19,.12,.39,.22,.61,.31,.22,.09,.46,.17,.72,.22,.26,.06,.51,.08,.77,.08s.49-.02,.71-.06,.41-.11,.58-.2,.3-.21,.4-.35c.1-.14,.15-.32,.15-.52Z"/><path class="cls-2" d="M32.34,98.16h2.18v3.67h.07c.29-.33,.62-.58,1.01-.76,.38-.18,.86-.27,1.43-.27,.45,0,.84,.05,1.17,.14,.33,.09,.6,.26,.81,.49s.37,.55,.47,.96,.15,.92,.15,1.55v4.03h-1.11v-3.82c0-.4-.02-.75-.07-1.05-.05-.3-.14-.55-.27-.75-.13-.2-.32-.35-.55-.46s-.53-.15-.89-.15c-.25,0-.5,.04-.74,.13-.24,.09-.46,.21-.66,.36-.2,.15-.37,.34-.52,.56s-.24,.46-.3,.72v4.45h-1.08v-8.86h-1.11v-.94Z"/><path class="cls-2" d="M48.09,107.08c-.17,.15-.37,.29-.59,.42s-.48,.24-.75,.34c-.27,.09-.55,.17-.85,.22-.29,.05-.59,.08-.89,.08-.56,0-1.06-.09-1.48-.26-.43-.17-.79-.42-1.08-.74s-.51-.71-.66-1.16c-.15-.45-.22-.95-.22-1.51,0-.59,.08-1.11,.25-1.57,.16-.46,.4-.84,.71-1.15,.31-.31,.68-.54,1.12-.71,.44-.16,.93-.25,1.47-.25,.39,0,.78,.05,1.16,.15s.72,.3,1.01,.58c.29,.28,.52,.68,.68,1.18,.16,.5,.21,1.15,.17,1.94h-5.4c0,.84,.23,1.47,.68,1.88,.45,.42,1.05,.62,1.81,.62,.25,0,.5-.03,.75-.09,.25-.06,.48-.13,.71-.22s.42-.18,.59-.28c.17-.1,.3-.2,.4-.28l.43,.8Zm-2.95-5.36c-.31,0-.6,.03-.87,.1-.27,.07-.52,.18-.73,.33-.21,.15-.38,.36-.52,.6s-.22,.55-.26,.92h4.34c-.05-.62-.24-1.09-.59-1.44-.35-.34-.81-.51-1.37-.51Z"/><path class="cls-2" d="M50,107.96v-.94h1.89v-5.12h-1.89v-.94h2.62l.22,.91h.07c.32-.29,.67-.54,1.06-.74,.39-.21,.86-.31,1.4-.31,.32,0,.57,.06,.76,.18s.34,.3,.45,.53c.11,.23,.18,.52,.22,.85,.04,.33,.06,.71,.06,1.13h-.98c0-.58-.06-1.01-.18-1.29-.12-.28-.33-.42-.64-.42-.29,0-.55,.04-.78,.13s-.44,.19-.61,.31c-.17,.12-.32,.24-.44,.36s-.21,.22-.27,.31v4.12h2.69v.94h-5.66Z"/><path class="cls-2" d="M64.89,107.08c-.17,.15-.37,.29-.59,.42s-.48,.24-.75,.34c-.27,.09-.55,.17-.85,.22-.29,.05-.59,.08-.89,.08-.56,0-1.06-.09-1.48-.26-.43-.17-.79-.42-1.08-.74s-.51-.71-.66-1.16c-.15-.45-.22-.95-.22-1.51,0-.59,.08-1.11,.25-1.57,.16-.46,.4-.84,.71-1.15,.31-.31,.68-.54,1.12-.71,.44-.16,.93-.25,1.47-.25,.39,0,.78,.05,1.16,.15s.72,.3,1.01,.58c.29,.28,.52,.68,.68,1.18,.16,.5,.21,1.15,.17,1.94h-5.4c0,.84,.23,1.47,.68,1.88,.45,.42,1.05,.62,1.81,.62,.25,0,.5-.03,.75-.09,.25-.06,.48-.13,.71-.22s.42-.18,.59-.28c.17-.1,.3-.2,.4-.28l.43,.8Zm-2.95-5.36c-.31,0-.6,.03-.87,.1-.27,.07-.52,.18-.73,.33-.21,.15-.38,.36-.52,.6s-.22,.55-.26,.92h4.34c-.05-.62-.24-1.09-.59-1.44-.35-.34-.81-.51-1.37-.51Z"/><path class="cls-6" d="M66.38,103.83v-.7l6.54-4.06,.8,1.26-5.1,3.08,5.1,3.01-.8,1.26-6.54-3.85Z"/><path class="cls-6" d="M80.29,97.99l1.37,.62-5,11.31-1.37-.64,5-11.28Z"/><path class="cls-6" d="M82.68,98.16h2.83v3.58h.06c.22-.3,.52-.54,.9-.71,.37-.18,.81-.27,1.32-.27,.35,0,.68,.05,.98,.14,.3,.09,.56,.25,.77,.46,.21,.21,.38,.51,.5,.88,.12,.37,.18,.82,.18,1.37v4.35h-1.82v-3.98c0-.57-.12-.98-.36-1.23-.24-.25-.56-.38-.95-.38-.35,0-.66,.1-.95,.31-.29,.21-.5,.48-.62,.81v4.47h-1.82v-8.26h-1.01v-1.54Z"/><path class="cls-6" d="M98.4,107.96h-6.24v-1.36c.11-.09,.25-.22,.42-.37,.17-.15,.36-.33,.57-.53s.43-.41,.67-.64c.23-.23,.46-.48,.69-.73,.32-.35,.59-.68,.83-.97,.24-.29,.43-.56,.59-.82s.27-.51,.34-.76c.07-.25,.11-.5,.11-.76,0-.19-.04-.37-.13-.55-.08-.18-.2-.33-.35-.47-.15-.13-.33-.24-.54-.32s-.44-.12-.69-.12c-.34,0-.64,.05-.92,.15-.28,.1-.56,.28-.86,.52l-.73-1.29c.39-.28,.83-.52,1.31-.71s1.03-.29,1.66-.29c.4,0,.79,.06,1.16,.17,.37,.11,.69,.28,.98,.5,.29,.22,.51,.49,.68,.82,.17,.33,.25,.7,.25,1.13,0,.3-.03,.58-.08,.83-.05,.26-.13,.51-.24,.77-.11,.26-.25,.52-.42,.79-.17,.27-.38,.57-.62,.88-.19,.24-.39,.49-.61,.73-.22,.25-.44,.48-.65,.71-.21,.22-.43,.43-.64,.63-.21,.2-.4,.36-.57,.49h4.03v1.54Z"/><path class="cls-6" d="M100.78,107.68l-.8-1.26,5.1-3.01-5.1-3.08,.8-1.26,6.54,4.06v.7l-6.54,3.85Z"/><path class="cls-3" d="M34.37,128.16h4.77v.98h-3.67v11.06h3.67v.98h-4.77v-13.02Z"/><path class="cls-3" d="M45.55,128.16h2.28v7.41c0,.08,0,.19,.01,.31,0,.13,.02,.26,.04,.4,.01,.14,.03,.28,.05,.41,.02,.13,.04,.25,.06,.36h.94v.91h-1.88l-.14-1.08h-.06c-.21,.35-.51,.65-.92,.89-.4,.24-.87,.36-1.4,.36-1.05,0-1.83-.3-2.32-.89-.5-.59-.75-1.51-.75-2.77,0-.59,.08-1.11,.25-1.56s.41-.83,.72-1.13c.31-.3,.69-.53,1.12-.69,.44-.16,.93-.24,1.47-.24,.2,0,.37,0,.52,.01,.15,0,.29,.02,.43,.04,.13,.02,.25,.04,.37,.08,.12,.03,.24,.07,.38,.1v-1.99h-1.18v-.94Zm-.83,9.03c.57,0,1.01-.15,1.34-.44s.55-.74,.67-1.32v-3.25c-.21-.14-.43-.24-.69-.31s-.59-.1-1.01-.1c-.74,0-1.33,.22-1.76,.65-.43,.43-.64,1.12-.64,2.05,0,.38,.04,.74,.11,1.07,.07,.33,.19,.62,.35,.86,.16,.24,.38,.43,.65,.57,.27,.14,.6,.21,.99,.21Z"/><path class="cls-3" d="M50.55,137.96v-.94h2.44v-5.12h-2.44v-.94h3.54v6.06h2.38v.94h-5.92Zm2.04-8.99c0-.25,.08-.47,.25-.65,.17-.18,.38-.27,.64-.27s.5,.09,.68,.27c.18,.18,.27,.4,.27,.65s-.09,.45-.27,.62c-.18,.17-.41,.25-.68,.25s-.48-.08-.64-.25-.25-.37-.25-.62Z"/><path class="cls-3" d="M61.7,136.6h.15l2.19-5.64h1.22l-2.95,7h-1.22l-3.01-7h1.29l2.33,5.64Z"/><path class="cls-3" d="M67.35,137.96v-.94h2.44v-5.12h-2.44v-.94h3.54v6.06h2.38v.94h-5.92Zm2.04-8.99c0-.25,.08-.47,.25-.65,.17-.18,.38-.27,.64-.27s.5,.09,.68,.27c.18,.18,.27,.4,.27,.65s-.09,.45-.27,.62c-.18,.17-.41,.25-.68,.25s-.48-.08-.64-.25-.25-.37-.25-.62Z"/><path class="cls-3" d="M79.15,128.16h2.28v7.41c0,.08,0,.19,.01,.31,0,.13,.02,.26,.04,.4,.01,.14,.03,.28,.05,.41,.02,.13,.04,.25,.06,.36h.94v.91h-1.88l-.14-1.08h-.06c-.21,.35-.51,.65-.92,.89-.4,.24-.87,.36-1.4,.36-1.05,0-1.83-.3-2.32-.89-.5-.59-.75-1.51-.75-2.77,0-.59,.08-1.11,.25-1.56s.41-.83,.72-1.13c.31-.3,.69-.53,1.12-.69,.44-.16,.93-.24,1.47-.24,.2,0,.37,0,.52,.01,.15,0,.29,.02,.43,.04,.13,.02,.25,.04,.37,.08,.12,.03,.24,.07,.38,.1v-1.99h-1.18v-.94Zm-.83,9.03c.57,0,1.01-.15,1.34-.44s.55-.74,.67-1.32v-3.25c-.21-.14-.43-.24-.69-.31s-.59-.1-1.01-.1c-.74,0-1.33,.22-1.76,.65-.43,.43-.64,1.12-.64,2.05,0,.38,.04,.74,.11,1.07,.07,.33,.19,.62,.35,.86,.16,.24,.38,.43,.65,.57,.27,.14,.6,.21,.99,.21Z"/><path class="cls-3" d="M90.09,137.08c-.17,.15-.37,.29-.59,.42-.23,.13-.48,.24-.75,.34-.27,.09-.55,.17-.85,.22-.29,.05-.59,.08-.89,.08-.56,0-1.05-.09-1.48-.26-.43-.17-.79-.42-1.08-.74-.29-.32-.51-.71-.66-1.16-.15-.45-.22-.95-.22-1.51,0-.59,.08-1.11,.25-1.57,.16-.46,.4-.84,.71-1.15s.68-.54,1.12-.71,.93-.25,1.47-.25c.39,0,.78,.05,1.16,.15s.72,.3,1.02,.58c.29,.28,.52,.68,.68,1.18,.16,.5,.21,1.15,.17,1.94h-5.4c0,.84,.23,1.47,.68,1.88,.45,.42,1.05,.62,1.81,.62,.25,0,.5-.03,.75-.09,.25-.06,.48-.13,.71-.22,.22-.08,.42-.18,.59-.28,.17-.1,.3-.2,.4-.28l.43,.8Zm-2.95-5.36c-.31,0-.6,.03-.87,.1-.28,.07-.52,.18-.73,.33-.21,.15-.38,.36-.52,.6-.14,.25-.22,.55-.26,.92h4.34c-.05-.62-.24-1.09-.59-1.44-.35-.34-.81-.51-1.37-.51Z"/><path class="cls-3" d="M92,137.96v-.94h1.89v-5.12h-1.89v-.94h2.62l.22,.91h.07c.32-.29,.67-.54,1.06-.74,.39-.21,.86-.31,1.4-.31,.32,0,.57,.06,.76,.18s.34,.3,.45,.53,.18,.52,.22,.85,.06,.71,.06,1.13h-.98c0-.58-.06-1.01-.17-1.29-.12-.28-.33-.42-.64-.42-.29,0-.55,.04-.78,.13s-.44,.19-.61,.31c-.17,.12-.32,.24-.44,.36-.12,.12-.21,.22-.27,.31v4.12h2.69v.94h-5.66Z"/><path class="cls-3" d="M107.94,128.16h2.18v3.67h.07c.29-.33,.62-.58,1.01-.76,.38-.18,.86-.27,1.43-.27,.45,0,.84,.05,1.17,.14,.33,.09,.6,.26,.81,.49s.37,.55,.47,.96c.1,.41,.15,.92,.15,1.55v4.03h-1.11v-3.82c0-.4-.02-.75-.07-1.05s-.14-.55-.27-.75c-.13-.2-.32-.35-.55-.46s-.53-.15-.89-.15c-.25,0-.5,.04-.74,.13-.24,.09-.46,.21-.66,.36-.2,.15-.37,.34-.52,.56-.14,.22-.24,.46-.3,.72v4.45h-1.08v-8.86h-1.11v-.94Z"/><path class="cls-3" d="M123.69,137.08c-.17,.15-.37,.29-.59,.42-.23,.13-.48,.24-.75,.34-.27,.09-.55,.17-.85,.22-.29,.05-.59,.08-.89,.08-.56,0-1.05-.09-1.48-.26-.43-.17-.79-.42-1.08-.74-.29-.32-.51-.71-.66-1.16-.15-.45-.22-.95-.22-1.51,0-.59,.08-1.11,.25-1.57,.16-.46,.4-.84,.71-1.15s.68-.54,1.12-.71,.93-.25,1.47-.25c.39,0,.78,.05,1.16,.15s.72,.3,1.02,.58c.29,.28,.52,.68,.68,1.18,.16,.5,.21,1.15,.17,1.94h-5.4c0,.84,.23,1.47,.68,1.88,.45,.42,1.05,.62,1.81,.62,.25,0,.5-.03,.75-.09,.25-.06,.48-.13,.71-.22,.22-.08,.42-.18,.59-.28,.17-.1,.3-.2,.4-.28l.43,.8Zm-2.95-5.36c-.31,0-.6,.03-.87,.1-.28,.07-.52,.18-.73,.33-.21,.15-.38,.36-.52,.6-.14,.25-.22,.55-.26,.92h4.34c-.05-.62-.24-1.09-.59-1.44-.35-.34-.81-.51-1.37-.51Z"/><path class="cls-3" d="M126.15,137.96v-.94h2.44v-5.12h-2.44v-.94h3.54v6.06h2.38v.94h-5.92Zm2.04-8.99c0-.25,.08-.47,.25-.65,.17-.18,.38-.27,.64-.27s.5,.09,.68,.27c.18,.18,.27,.4,.27,.65s-.09,.45-.27,.62-.41,.25-.68,.25-.48-.08-.64-.25-.25-.37-.25-.62Z"/><path class="cls-3" d="M140.42,138.31c0,.44-.08,.82-.25,1.16s-.4,.6-.69,.82-.64,.38-1.03,.48-.82,.16-1.27,.16c-.55,0-1.03-.06-1.44-.17-.41-.11-.77-.26-1.06-.43l.53-.99c.08,.07,.19,.15,.33,.22s.29,.14,.47,.2,.37,.11,.57,.15,.4,.06,.59,.06c.41,0,.75-.04,1.03-.11,.27-.08,.5-.19,.66-.35,.17-.16,.29-.36,.36-.62s.11-.56,.11-.92v-.78h-.06c-.21,.31-.49,.55-.82,.71s-.77,.25-1.3,.25c-1.06,0-1.84-.3-2.34-.89s-.75-1.51-.75-2.77,.32-2.1,.95-2.71,1.58-.92,2.83-.92c.58,0,1.07,.04,1.48,.12,.41,.08,.78,.18,1.11,.3v7.04Zm-3.12-1.12c.57,0,1.01-.15,1.33-.44s.55-.74,.68-1.35v-3.32c-.41-.2-.98-.29-1.71-.29s-1.33,.22-1.75,.66c-.43,.44-.64,1.11-.64,2.02,0,.4,.04,.77,.11,1.1,.07,.33,.19,.62,.35,.86,.16,.24,.38,.43,.64,.57,.26,.13,.59,.2,.98,.2Z"/><path class="cls-3" d="M141.54,128.16h2.18v3.67h.07c.29-.33,.62-.58,1.01-.76,.38-.18,.86-.27,1.43-.27,.45,0,.84,.05,1.17,.14,.33,.09,.6,.26,.81,.49s.37,.55,.47,.96c.1,.41,.15,.92,.15,1.55v4.03h-1.11v-3.82c0-.4-.02-.75-.07-1.05s-.14-.55-.27-.75c-.13-.2-.32-.35-.55-.46s-.53-.15-.89-.15c-.25,0-.5,.04-.74,.13-.24,.09-.46,.21-.66,.36-.2,.15-.37,.34-.52,.56-.14,.22-.24,.46-.3,.72v4.45h-1.08v-8.86h-1.11v-.94Z"/><path class="cls-3" d="M150.31,130.96h1.67v-1.39l1.11-.31v1.69h3.74v.94h-3.74v3.3c0,.68,.17,1.19,.5,1.51,.33,.33,.8,.49,1.42,.49,.42,0,.78-.08,1.09-.24,.31-.16,.59-.33,.84-.52l.36,.83c-.33,.26-.72,.47-1.17,.63-.45,.16-.92,.24-1.39,.24-.37,0-.73-.05-1.06-.16-.33-.11-.62-.27-.88-.5-.25-.22-.45-.51-.6-.86s-.22-.77-.22-1.25v-3.47h-1.67v-.94Z"/><path class="cls-3" d="M159.23,131.56h6.5v1.01h-6.5v-1.01Zm0,2.3h6.5v1.01h-6.5v-1.01Z"/><path class="cls-3" d="M168.82,128.16h1.22l-.43,4.24h-.79v-4.24Zm2.88,0h1.22l-.43,4.24h-.79v-4.24Z"/><path class="cls-3" d="M178.55,137.15c.37,0,.72-.05,1.03-.15,.31-.1,.58-.24,.82-.41s.42-.39,.55-.64c.13-.25,.2-.53,.2-.84,0-.64-.23-1.1-.68-1.37-.45-.27-1.06-.41-1.83-.41h-.9v-.67l2.77-3.49h-4.2v-1.01h5.54v1.01l-2.77,3.23h.22c.43,0,.83,.06,1.18,.18,.36,.12,.67,.29,.93,.52,.26,.22,.47,.5,.61,.81,.15,.32,.22,.68,.22,1.08,0,.5-.1,.95-.29,1.34s-.46,.72-.8,.99c-.34,.27-.73,.47-1.19,.6-.45,.14-.94,.2-1.45,.2-.48,0-.89-.04-1.24-.11-.35-.07-.67-.16-.96-.26l.28-.99c.24,.11,.53,.2,.85,.27,.33,.07,.69,.11,1.11,.11Z"/><path class="cls-3" d="M184.25,133.06c0-.79,.07-1.5,.21-2.13s.35-1.16,.63-1.6c.28-.43,.64-.77,1.07-.99,.43-.23,.94-.34,1.53-.34,.63,0,1.16,.11,1.59,.34,.43,.22,.79,.55,1.06,.98,.27,.43,.47,.96,.59,1.59,.12,.63,.18,1.35,.18,2.16s-.07,1.51-.21,2.14c-.14,.63-.35,1.16-.63,1.6-.28,.43-.64,.77-1.07,.99-.43,.23-.94,.34-1.53,.34s-1.14-.12-1.58-.37c-.44-.25-.79-.59-1.07-1.04-.28-.45-.47-.98-.6-1.6-.12-.62-.18-1.3-.18-2.05Zm1.16,0c0,.23,0,.46,.02,.67,.01,.21,.03,.42,.05,.63l4.17-3.78c-.16-.5-.39-.91-.71-1.2-.31-.3-.73-.45-1.27-.45-.83,0-1.42,.34-1.76,1.03s-.51,1.72-.51,3.1Zm4.54,0c0-.49-.03-.97-.08-1.41l-4.16,3.79c.16,.53,.4,.96,.71,1.27s.73,.48,1.25,.48c.82,0,1.41-.34,1.76-1.02,.35-.68,.52-1.72,.52-3.11Z"/><path class="cls-3" d="M194.02,128.16h1.22l-.43,4.24h-.79v-4.24Zm2.88,0h1.22l-.43,4.24h-.79v-4.24Z"/><path class="cls-3" d="M38.4,156.07c0-.3-.12-.53-.35-.69-.23-.16-.52-.29-.87-.39-.34-.1-.72-.19-1.12-.27-.41-.08-.78-.2-1.12-.34-.34-.14-.63-.33-.87-.57-.23-.24-.35-.57-.35-1,0-.35,.08-.66,.23-.91,.15-.25,.36-.46,.61-.62,.25-.16,.55-.29,.88-.36s.69-.12,1.05-.12c.65,0,1.22,.08,1.69,.25,.47,.16,.85,.33,1.13,.51l-.45,.88c-.31-.17-.64-.33-1-.48-.36-.15-.81-.23-1.35-.23-.21,0-.41,.02-.61,.06s-.38,.1-.54,.19c-.16,.08-.29,.19-.39,.33-.1,.14-.15,.3-.15,.5,0,.24,.12,.43,.35,.56,.23,.13,.52,.24,.87,.33,.34,.09,.72,.17,1.12,.25,.4,.08,.78,.19,1.12,.34,.34,.15,.63,.35,.87,.6s.35,.59,.35,1.02c0,.64-.25,1.18-.76,1.6s-1.27,.63-2.29,.63c-.31,0-.61-.03-.91-.08-.3-.06-.58-.13-.84-.22-.26-.09-.5-.2-.71-.32-.21-.12-.39-.24-.53-.36l.56-.91c.11,.11,.26,.23,.45,.34,.19,.12,.39,.22,.61,.31,.22,.09,.46,.17,.72,.22,.26,.06,.51,.08,.77,.08s.49-.02,.71-.06,.41-.11,.58-.2c.17-.09,.3-.21,.4-.35,.1-.14,.15-.32,.15-.52Z"/><path class="cls-3" d="M41.11,150.96h1.67v-1.39l1.11-.31v1.69h3.74v.94h-3.74v3.3c0,.68,.17,1.19,.5,1.51,.33,.33,.8,.49,1.42,.49,.42,0,.78-.08,1.1-.24,.31-.16,.59-.33,.84-.52l.36,.83c-.33,.26-.72,.47-1.17,.63-.45,.16-.92,.24-1.39,.24-.37,0-.73-.05-1.06-.16-.33-.11-.62-.27-.88-.5-.25-.22-.45-.51-.6-.86-.15-.35-.22-.77-.22-1.25v-3.47h-1.67v-.94Z"/><path class="cls-3" d="M53.43,156.88h.53l1.74-5.92h1.13l-1.95,6.29c-.1,.33-.21,.7-.32,1.11-.11,.42-.26,.8-.46,1.17-.2,.36-.46,.67-.8,.92s-.77,.38-1.32,.38c-.12,0-.25-.01-.38-.04-.13-.03-.27-.06-.4-.11-.13-.04-.25-.09-.36-.15-.11-.06-.2-.11-.25-.17l.39-1.01c.06,.05,.13,.09,.23,.14,.1,.05,.21,.09,.32,.12,.12,.03,.23,.06,.34,.08,.11,.02,.21,.04,.28,.04,.7,0,1.18-.59,1.43-1.78h-.94l-2.94-7h1.26l2.45,5.92Z"/><path class="cls-3" d="M59.15,148.16h2.34v7.45c0,.57,.1,.97,.29,1.2,.19,.23,.47,.35,.85,.35,.26,0,.51-.05,.75-.14,.24-.09,.5-.25,.79-.48l.5,.77c-.15,.13-.31,.25-.49,.35-.18,.1-.36,.19-.55,.26-.19,.07-.38,.12-.56,.16-.19,.04-.36,.06-.52,.06-.35,0-.66-.04-.93-.13s-.5-.23-.68-.43-.32-.46-.41-.78c-.09-.32-.14-.72-.14-1.2v-6.51h-1.23v-.94Z"/><path class="cls-3" d="M73.29,157.08c-.17,.15-.37,.29-.59,.42-.23,.13-.48,.24-.75,.34-.27,.09-.55,.17-.85,.22-.29,.05-.59,.08-.89,.08-.56,0-1.05-.09-1.48-.26-.43-.17-.79-.42-1.08-.74-.29-.32-.51-.71-.66-1.16-.15-.45-.22-.95-.22-1.51,0-.59,.08-1.11,.25-1.57,.16-.46,.4-.84,.71-1.15s.68-.54,1.12-.71,.93-.25,1.47-.25c.39,0,.78,.05,1.16,.15s.72,.3,1.02,.58c.29,.28,.52,.68,.68,1.18,.16,.5,.21,1.15,.17,1.94h-5.4c0,.84,.23,1.47,.68,1.88,.45,.42,1.05,.62,1.81,.62,.25,0,.5-.03,.75-.09,.25-.06,.48-.13,.71-.22,.22-.08,.42-.18,.59-.28,.17-.1,.3-.2,.4-.28l.43,.8Zm-2.95-5.36c-.31,0-.6,.03-.87,.1-.28,.07-.52,.18-.73,.33-.21,.15-.38,.36-.52,.6-.14,.25-.22,.55-.26,.92h4.34c-.05-.62-.24-1.09-.59-1.44-.35-.34-.81-.51-1.37-.51Z"/><path class="cls-3" d="M75.23,151.56h6.5v1.01h-6.5v-1.01Zm0,2.3h6.5v1.01h-6.5v-1.01Z"/><path class="cls-3" d="M84.82,148.16h1.22l-.43,4.24h-.79v-4.24Zm2.88,0h1.22l-.43,4.24h-.79v-4.24Z"/><path class="cls-3" d="M95.95,148.16h2.28v7.41c0,.08,0,.19,.01,.31,0,.13,.02,.26,.04,.4,.01,.14,.03,.28,.05,.41,.02,.13,.04,.25,.06,.36h.94v.91h-1.88l-.14-1.08h-.06c-.21,.35-.51,.65-.92,.89-.4,.24-.87,.36-1.4,.36-1.05,0-1.83-.3-2.32-.89-.5-.59-.75-1.51-.75-2.77,0-.59,.08-1.11,.25-1.56s.41-.83,.72-1.13c.31-.3,.69-.53,1.12-.69,.44-.16,.93-.24,1.47-.24,.2,0,.37,0,.52,.01,.15,0,.29,.02,.43,.04,.13,.02,.25,.04,.37,.08,.12,.03,.24,.07,.38,.1v-1.99h-1.18v-.94Zm-.83,9.03c.57,0,1.01-.15,1.34-.44s.55-.74,.67-1.32v-3.25c-.21-.14-.43-.24-.69-.31s-.59-.1-1.01-.1c-.74,0-1.33,.22-1.76,.65-.43,.43-.64,1.12-.64,2.05,0,.38,.04,.74,.11,1.07,.07,.33,.19,.62,.35,.86,.16,.24,.38,.43,.65,.57,.27,.14,.6,.21,.99,.21Z"/><path class="cls-3" d="M106.89,157.08c-.17,.15-.37,.29-.59,.42-.23,.13-.48,.24-.75,.34-.27,.09-.55,.17-.85,.22-.29,.05-.59,.08-.89,.08-.56,0-1.05-.09-1.48-.26-.43-.17-.79-.42-1.08-.74-.29-.32-.51-.71-.66-1.16-.15-.45-.22-.95-.22-1.51,0-.59,.08-1.11,.25-1.57,.16-.46,.4-.84,.71-1.15s.68-.54,1.12-.71,.93-.25,1.47-.25c.39,0,.78,.05,1.16,.15s.72,.3,1.02,.58c.29,.28,.52,.68,.68,1.18,.16,.5,.21,1.15,.17,1.94h-5.4c0,.84,.23,1.47,.68,1.88,.45,.42,1.05,.62,1.81,.62,.25,0,.5-.03,.75-.09,.25-.06,.48-.13,.71-.22,.22-.08,.42-.18,.59-.28,.17-.1,.3-.2,.4-.28l.43,.8Zm-2.95-5.36c-.31,0-.6,.03-.87,.1-.28,.07-.52,.18-.73,.33-.21,.15-.38,.36-.52,.6-.14,.25-.22,.55-.26,.92h4.34c-.05-.62-.24-1.09-.59-1.44-.35-.34-.81-.51-1.37-.51Z"/><path class="cls-3" d="M109.11,157.96v-.94h1.67v-5.12h-1.67v-.94h1.67v-.39c0-.88,.23-1.51,.69-1.9,.46-.39,1.11-.59,1.96-.59,.31,0,.58,.02,.83,.06,.24,.04,.5,.11,.78,.22l-.25,.91c-.24-.1-.47-.17-.7-.2-.22-.03-.43-.05-.61-.05-.61,0-1.03,.15-1.25,.46-.22,.3-.33,.8-.33,1.49h2.9v.94h-2.9v5.12h2.9v.94h-5.67Z"/><path class="cls-3" d="M117.79,151.5c.4-.23,.85-.4,1.36-.5s1-.15,1.48-.15,.87,.08,1.17,.22c.3,.15,.54,.34,.71,.58,.17,.24,.29,.51,.35,.81,.06,.3,.09,.61,.09,.92,0,.35,0,.73-.03,1.13-.02,.4-.03,.8-.04,1.2,0,.47,.03,.91,.08,1.33h.94v.91h-1.85l-.12-1.05h-.07c-.06,.08-.14,.19-.25,.32-.11,.13-.26,.26-.44,.38s-.4,.24-.67,.33c-.26,.09-.57,.14-.93,.14-.69,0-1.24-.18-1.64-.53-.4-.35-.6-.84-.6-1.46,0-.48,.11-.87,.32-1.19s.51-.56,.91-.73c.39-.17,.87-.27,1.43-.29,.56-.03,1.18,0,1.88,.11,.05-.43,.05-.79,.02-1.07-.03-.28-.11-.51-.22-.68s-.28-.29-.49-.36c-.21-.07-.47-.1-.78-.1-.42,0-.82,.06-1.21,.17-.38,.12-.73,.24-1.03,.36l-.35-.81Zm2.07,5.64c.26,0,.5-.04,.73-.13,.22-.08,.42-.19,.59-.32s.31-.27,.42-.43c.11-.15,.2-.3,.25-.44v-.98c-.49-.08-.93-.13-1.34-.13s-.77,.04-1.06,.13-.53,.23-.7,.41c-.17,.19-.25,.43-.25,.73s.11,.58,.32,.8c.21,.23,.56,.34,1.06,.34Z"/><path class="cls-3" d="M129.75,150.96h2v4.77c0,.46,.03,.9,.08,1.32h.94v.91h-1.88l-.04-1.19h-.06c-.24,.4-.56,.73-.96,.98s-.88,.38-1.45,.38c-.43,0-.79-.05-1.1-.15-.3-.1-.55-.27-.75-.51-.2-.24-.34-.57-.43-.97-.09-.41-.14-.91-.14-1.52v-3.08h-.94v-.94h2.04v3.79c0,.38,.02,.73,.05,1.03,.03,.3,.1,.56,.2,.77,.1,.21,.25,.37,.45,.48,.2,.11,.46,.16,.8,.16,.48,0,.9-.16,1.26-.48s.63-.71,.81-1.19v-3.63h-.9v-.94Z"/><path class="cls-3" d="M134.75,148.16h2.34v7.45c0,.57,.1,.97,.29,1.2,.19,.23,.47,.35,.85,.35,.26,0,.51-.05,.75-.14,.24-.09,.5-.25,.79-.48l.5,.77c-.15,.13-.31,.25-.49,.35s-.36,.19-.55,.26-.37,.12-.56,.16-.36,.06-.52,.06c-.35,0-.66-.04-.93-.13-.27-.09-.5-.23-.68-.43s-.32-.46-.41-.78c-.09-.32-.14-.72-.14-1.2v-6.51h-1.23v-.94Z"/><path class="cls-3" d="M141.91,150.96h1.67v-1.39l1.11-.31v1.69h3.74v.94h-3.74v3.3c0,.68,.17,1.19,.5,1.51,.33,.33,.8,.49,1.42,.49,.42,0,.78-.08,1.1-.24,.31-.16,.59-.33,.84-.52l.36,.83c-.33,.26-.72,.47-1.17,.63-.45,.16-.92,.24-1.39,.24-.37,0-.73-.05-1.06-.16-.33-.11-.62-.27-.88-.5-.25-.22-.45-.51-.6-.86-.15-.35-.22-.77-.22-1.25v-3.47h-1.67v-.94Z"/><path class="cls-3" d="M152.02,148.16h1.22l-.43,4.24h-.79v-4.24Zm2.88,0h1.22l-.43,4.24h-.79v-4.24Z"/><path class="cls-3" d="M164.59,161.18h-4.79v-.98h3.68v-11.06h-3.68v-.98h4.79v13.02Z"/><path class="cls-6" d="M32.78,183.83v-.7l6.54-4.06,.8,1.26-5.1,3.08,5.1,3.01-.8,1.26-6.54-3.85Z"/><path class="cls-6" d="M40.68,180.96h2.38l.21,.84h.06c.49-.69,1.27-1.04,2.35-1.04,.43,0,.82,.07,1.18,.2,.36,.14,.67,.35,.92,.64,.26,.29,.46,.65,.6,1.09,.14,.44,.21,.97,.21,1.58s-.08,1.14-.24,1.62c-.16,.48-.39,.89-.69,1.23s-.66,.59-1.09,.77c-.43,.18-.92,.27-1.47,.27-.29,0-.57-.02-.85-.06-.28-.04-.51-.11-.7-.2v2.87h-1.82v-8.26h-1.05v-1.54Zm4.45,1.34c-.36,0-.68,.09-.97,.27-.29,.18-.5,.44-.61,.8v2.91c.13,.1,.32,.18,.57,.25s.5,.09,.75,.09,.5-.04,.73-.13c.22-.09,.42-.23,.59-.43,.17-.2,.3-.44,.39-.74,.09-.3,.14-.66,.14-1.08,0-.62-.15-1.09-.45-1.43s-.68-.5-1.13-.5Z"/><path class="cls-6" d="M50.38,187.68l-.8-1.26,5.1-3.01-5.1-3.08,.8-1.26,6.54,4.06v.7l-6.54,3.85Z"/><path class="cls-2" d="M58.74,178.16h1.16v8.76h3.96v-2.44h1.04v3.47h-6.16v-9.8Z"/><path class="cls-2" d="M66.68,184.46c0-1.13,.29-2.02,.88-2.68,.59-.66,1.43-.99,2.52-.99,.59,0,1.09,.1,1.52,.29,.42,.19,.78,.45,1.06,.78,.28,.33,.49,.71,.62,1.16,.13,.45,.2,.93,.2,1.44,0,.56-.08,1.07-.22,1.52-.15,.45-.37,.84-.66,1.16-.29,.32-.65,.56-1.07,.74s-.91,.26-1.45,.26c-.58,0-1.08-.1-1.51-.29-.43-.19-.78-.45-1.06-.78-.28-.33-.49-.71-.62-1.16-.13-.45-.2-.93-.2-1.44Zm1.16,0c0,.33,.04,.65,.12,.98,.08,.33,.21,.62,.38,.88,.18,.26,.41,.47,.69,.63,.28,.16,.63,.24,1.04,.24,.74,0,1.3-.23,1.68-.69s.57-1.14,.57-2.04c0-.34-.04-.67-.12-.99-.08-.32-.21-.61-.39-.88-.18-.26-.41-.47-.7-.63-.28-.16-.63-.24-1.04-.24-.74,0-1.3,.23-1.67,.69s-.56,1.14-.56,2.04Z"/><path class="cls-2" d="M75.2,187.96v-.94h1.89v-5.12h-1.89v-.94h2.62l.22,.91h.07c.32-.29,.67-.54,1.06-.74,.39-.21,.86-.31,1.4-.31,.32,0,.57,.06,.76,.18s.34,.3,.45,.53,.18,.52,.22,.85,.06,.71,.06,1.13h-.98c0-.58-.06-1.01-.17-1.29-.12-.28-.33-.42-.64-.42-.29,0-.55,.04-.78,.13s-.44,.19-.61,.31c-.17,.12-.32,.24-.44,.36-.12,.12-.21,.22-.27,.31v4.12h2.69v.94h-5.66Z"/><path class="cls-2" d="M90.09,187.08c-.17,.15-.37,.29-.59,.42-.23,.13-.48,.24-.75,.34-.27,.09-.55,.17-.85,.22-.29,.05-.59,.08-.89,.08-.56,0-1.05-.09-1.48-.26-.43-.17-.79-.42-1.08-.74-.29-.32-.51-.71-.66-1.16-.15-.45-.22-.95-.22-1.51,0-.59,.08-1.11,.25-1.57,.16-.46,.4-.84,.71-1.15s.68-.54,1.12-.71,.93-.25,1.47-.25c.39,0,.78,.05,1.16,.15s.72,.3,1.02,.58c.29,.28,.52,.68,.68,1.18,.16,.5,.21,1.15,.17,1.94h-5.4c0,.84,.23,1.47,.68,1.88,.45,.42,1.05,.62,1.81,.62,.25,0,.5-.03,.75-.09,.25-.06,.48-.13,.71-.22,.22-.08,.42-.18,.59-.28,.17-.1,.3-.2,.4-.28l.43,.8Zm-2.95-5.36c-.31,0-.6,.03-.87,.1-.28,.07-.52,.18-.73,.33-.21,.15-.38,.36-.52,.6-.14,.25-.22,.55-.26,.92h4.34c-.05-.62-.24-1.09-.59-1.44-.35-.34-.81-.51-1.37-.51Z"/><path class="cls-2" d="M94.75,187.96v-4.66c0-.2,0-.38-.02-.57-.01-.18-.05-.35-.1-.49-.05-.14-.13-.26-.22-.34-.1-.08-.23-.13-.39-.13-.32,0-.59,.13-.8,.39-.22,.26-.38,.59-.5,.98v4.82h-1.06v-7h.73l.21,.85h.06c.09-.14,.18-.27,.27-.4s.19-.24,.31-.33c.12-.09,.25-.17,.41-.22,.16-.05,.36-.08,.6-.08,.14,0,.28,.02,.43,.06s.29,.11,.41,.2,.24,.21,.33,.36c.09,.15,.15,.33,.18,.55,.21-.36,.46-.65,.72-.85,.27-.21,.63-.31,1.1-.31,.31,0,.56,.05,.75,.15s.34,.25,.45,.44c.11,.19,.18,.42,.22,.69,.04,.27,.06,.56,.06,.89v5h-1.06v-4.76c0-.2,0-.38-.03-.55-.02-.17-.05-.32-.1-.45-.05-.13-.12-.23-.21-.31-.09-.07-.21-.11-.36-.11-.33,0-.6,.13-.83,.39-.22,.26-.39,.63-.5,1.12v4.68h-1.06Z"/><path class="cls-2" d="M109.35,187.96v-.94h2.44v-5.12h-2.44v-.94h3.54v6.06h2.38v.94h-5.92Zm2.04-8.99c0-.25,.08-.47,.25-.65,.17-.18,.38-.27,.64-.27s.5,.09,.68,.27c.18,.18,.27,.4,.27,.65s-.09,.45-.27,.62-.41,.25-.68,.25-.48-.08-.64-.25-.25-.37-.25-.62Z"/><path class="cls-2" d="M117.62,183.41c0-.08,0-.19,0-.33s-.01-.28-.02-.42c0-.14-.02-.29-.04-.43-.01-.14-.03-.26-.05-.36h-.94v-.91h1.86l.14,.98h.07c.25-.33,.57-.6,.96-.82s.86-.33,1.42-.33c1,0,1.75,.28,2.25,.83s.76,1.45,.76,2.7c0,.59-.09,1.12-.26,1.59-.17,.47-.42,.87-.73,1.2-.32,.33-.7,.58-1.15,.76-.45,.18-.94,.27-1.48,.27-.2,0-.37,0-.52-.02-.15-.01-.29-.03-.42-.06s-.25-.05-.37-.09c-.12-.04-.25-.08-.39-.14v2.94h-1.08v-7.35Zm3.22-1.58c-.28,0-.54,.05-.79,.15-.25,.1-.47,.24-.66,.41-.19,.17-.35,.35-.47,.56-.12,.2-.2,.41-.22,.61v3.18c.21,.14,.44,.25,.69,.33s.59,.12,1.01,.12c.75,0,1.34-.25,1.79-.73,.45-.49,.67-1.2,.67-2.14,0-.79-.16-1.4-.47-1.84s-.83-.65-1.56-.65Z"/><path class="cls-2" d="M130.8,186.07c0-.3-.12-.53-.35-.69s-.52-.29-.87-.39c-.34-.1-.72-.19-1.12-.27-.4-.08-.78-.2-1.12-.34-.34-.14-.63-.33-.87-.57-.23-.24-.35-.57-.35-1,0-.35,.08-.66,.23-.91,.15-.25,.36-.46,.61-.62,.25-.16,.55-.29,.88-.36s.69-.12,1.05-.12c.65,0,1.22,.08,1.69,.25,.47,.16,.85,.33,1.13,.51l-.45,.88c-.31-.17-.64-.33-1-.48-.36-.15-.81-.23-1.35-.23-.2,0-.41,.02-.61,.06-.2,.04-.38,.1-.54,.19s-.29,.19-.39,.33c-.1,.14-.15,.3-.15,.5,0,.24,.12,.43,.35,.56,.23,.13,.52,.24,.87,.33,.34,.09,.72,.17,1.12,.25,.4,.08,.78,.19,1.12,.34,.34,.15,.63,.35,.87,.6s.35,.59,.35,1.02c0,.64-.25,1.18-.76,1.6s-1.27,.63-2.29,.63c-.31,0-.61-.03-.91-.08s-.58-.13-.84-.22c-.26-.09-.5-.2-.71-.32-.21-.12-.39-.24-.53-.36l.56-.91c.11,.11,.26,.23,.45,.34,.19,.12,.39,.22,.61,.31,.22,.09,.46,.17,.72,.22,.26,.06,.51,.08,.77,.08s.49-.02,.71-.06,.41-.11,.58-.2,.3-.21,.4-.35c.1-.14,.15-.32,.15-.52Z"/><path class="cls-2" d="M138.15,180.96h2v4.77c0,.46,.03,.9,.08,1.32h.94v.91h-1.88l-.04-1.19h-.06c-.24,.4-.56,.73-.96,.98s-.88,.38-1.45,.38c-.43,0-.79-.05-1.1-.15-.3-.1-.55-.27-.75-.51-.2-.24-.34-.57-.43-.97s-.14-.91-.14-1.52v-3.08h-.94v-.94h2.04v3.79c0,.38,.02,.73,.05,1.03,.03,.3,.1,.56,.2,.77,.1,.21,.25,.37,.45,.48s.47,.16,.8,.16c.48,0,.9-.16,1.26-.48s.63-.71,.81-1.19v-3.63h-.9v-.94Z"/><path class="cls-2" d="M145.15,187.96v-4.66c0-.2,0-.38-.02-.57-.01-.18-.05-.35-.1-.49-.05-.14-.13-.26-.22-.34-.1-.08-.23-.13-.39-.13-.32,0-.59,.13-.8,.39-.22,.26-.38,.59-.5,.98v4.82h-1.06v-7h.73l.21,.85h.06c.09-.14,.18-.27,.27-.4s.19-.24,.31-.33c.12-.09,.25-.17,.41-.22,.16-.05,.36-.08,.6-.08,.14,0,.28,.02,.43,.06s.29,.11,.41,.2,.24,.21,.33,.36c.09,.15,.15,.33,.18,.55,.21-.36,.46-.65,.72-.85,.27-.21,.63-.31,1.1-.31,.31,0,.56,.05,.75,.15s.34,.25,.45,.44c.11,.19,.18,.42,.22,.69,.04,.27,.06,.56,.06,.89v5h-1.06v-4.76c0-.2,0-.38-.03-.55-.02-.17-.05-.32-.1-.45-.05-.13-.12-.23-.21-.31-.09-.07-.21-.11-.36-.11-.33,0-.6,.13-.83,.39-.22,.26-.39,.63-.5,1.12v4.68h-1.06Z"/><path class="cls-2" d="M163.15,178.16h2.28v7.41c0,.08,0,.19,.01,.31,0,.13,.02,.26,.04,.4,.01,.14,.03,.28,.05,.41,.02,.13,.04,.25,.06,.36h.94v.91h-1.88l-.14-1.08h-.06c-.21,.35-.51,.65-.92,.89-.4,.24-.87,.36-1.4,.36-1.05,0-1.83-.3-2.32-.89-.5-.59-.75-1.51-.75-2.77,0-.59,.08-1.11,.25-1.56s.41-.83,.72-1.13c.31-.3,.69-.53,1.12-.69,.44-.16,.93-.24,1.47-.24,.2,0,.37,0,.52,.01,.15,0,.29,.02,.43,.04,.13,.02,.25,.04,.37,.08,.12,.03,.24,.07,.38,.1v-1.99h-1.18v-.94Zm-.83,9.03c.57,0,1.01-.15,1.34-.44s.55-.74,.67-1.32v-3.25c-.21-.14-.43-.24-.69-.31s-.59-.1-1.01-.1c-.74,0-1.33,.22-1.76,.65-.43,.43-.64,1.12-.64,2.05,0,.38,.04,.74,.11,1.07,.07,.33,.19,.62,.35,.86,.16,.24,.38,.43,.65,.57,.27,.14,.6,.21,.99,.21Z"/><path class="cls-2" d="M167.48,184.46c0-1.13,.29-2.02,.88-2.68,.59-.66,1.43-.99,2.52-.99,.59,0,1.09,.1,1.52,.29,.42,.19,.78,.45,1.06,.78,.28,.33,.49,.71,.62,1.16,.13,.45,.2,.93,.2,1.44,0,.56-.08,1.07-.22,1.52-.15,.45-.37,.84-.66,1.16-.29,.32-.65,.56-1.07,.74s-.91,.26-1.45,.26c-.58,0-1.08-.1-1.51-.29-.43-.19-.78-.45-1.06-.78-.28-.33-.49-.71-.62-1.16-.13-.45-.2-.93-.2-1.44Zm1.16,0c0,.33,.04,.65,.12,.98,.08,.33,.21,.62,.38,.88,.18,.26,.41,.47,.69,.63,.28,.16,.63,.24,1.04,.24,.74,0,1.3-.23,1.68-.69s.57-1.14,.57-2.04c0-.34-.04-.67-.12-.99-.08-.32-.21-.61-.39-.88-.18-.26-.41-.47-.7-.63-.28-.16-.63-.24-1.04-.24-.74,0-1.3,.23-1.67,.69s-.56,1.14-.56,2.04Z"/><path class="cls-2" d="M176.75,178.16h2.34v7.45c0,.57,.1,.97,.29,1.2,.19,.23,.47,.35,.85,.35,.26,0,.51-.05,.75-.14,.24-.09,.5-.25,.79-.48l.5,.77c-.15,.13-.31,.25-.49,.35-.18,.1-.36,.19-.55,.26-.19,.07-.38,.12-.56,.16-.19,.04-.36,.06-.52,.06-.35,0-.66-.04-.93-.13s-.5-.23-.68-.43-.32-.46-.41-.78c-.09-.32-.14-.72-.14-1.2v-6.51h-1.23v-.94Z"/><path class="cls-2" d="M184.28,184.46c0-1.13,.29-2.02,.88-2.68,.59-.66,1.43-.99,2.52-.99,.59,0,1.09,.1,1.52,.29,.42,.19,.78,.45,1.06,.78,.28,.33,.49,.71,.62,1.16,.13,.45,.2,.93,.2,1.44,0,.56-.08,1.07-.22,1.52-.15,.45-.37,.84-.66,1.16-.29,.32-.65,.56-1.07,.74s-.91,.26-1.45,.26c-.58,0-1.08-.1-1.51-.29-.43-.19-.78-.45-1.06-.78-.28-.33-.49-.71-.62-1.16-.13-.45-.2-.93-.2-1.44Zm1.16,0c0,.33,.04,.65,.12,.98,.08,.33,.21,.62,.38,.88,.18,.26,.41,.47,.69,.63,.28,.16,.63,.24,1.04,.24,.74,0,1.3-.23,1.68-.69s.57-1.14,.57-2.04c0-.34-.04-.67-.12-.99-.08-.32-.21-.61-.39-.88-.18-.26-.41-.47-.7-.63-.28-.16-.63-.24-1.04-.24-.74,0-1.3,.23-1.67,.69s-.56,1.14-.56,2.04Z"/><path class="cls-2" d="M192.8,187.96v-.94h1.89v-5.12h-1.89v-.94h2.62l.22,.91h.07c.32-.29,.67-.54,1.06-.74,.39-.21,.86-.31,1.4-.31,.32,0,.57,.06,.76,.18s.34,.3,.45,.53,.18,.52,.22,.85,.06,.71,.06,1.13h-.98c0-.58-.06-1.01-.17-1.29-.12-.28-.33-.42-.64-.42-.29,0-.55,.04-.78,.13s-.44,.19-.61,.31c-.17,.12-.32,.24-.44,.36-.12,.12-.21,.22-.27,.31v4.12h2.69v.94h-5.66Z"/><path class="cls-2" d="M214.8,186.07c0-.3-.12-.53-.35-.69s-.52-.29-.87-.39c-.34-.1-.72-.19-1.12-.27-.4-.08-.78-.2-1.12-.34-.34-.14-.63-.33-.87-.57-.23-.24-.35-.57-.35-1,0-.35,.08-.66,.23-.91,.15-.25,.36-.46,.61-.62,.25-.16,.55-.29,.88-.36s.69-.12,1.05-.12c.65,0,1.22,.08,1.69,.25,.47,.16,.85,.33,1.13,.51l-.45,.88c-.31-.17-.64-.33-1-.48-.36-.15-.81-.23-1.35-.23-.2,0-.41,.02-.61,.06-.2,.04-.38,.1-.54,.19s-.29,.19-.39,.33c-.1,.14-.15,.3-.15,.5,0,.24,.12,.43,.35,.56,.23,.13,.52,.24,.87,.33,.34,.09,.72,.17,1.12,.25,.4,.08,.78,.19,1.12,.34,.34,.15,.63,.35,.87,.6s.35,.59,.35,1.02c0,.64-.25,1.18-.76,1.6s-1.27,.63-2.29,.63c-.31,0-.61-.03-.91-.08s-.58-.13-.84-.22c-.26-.09-.5-.2-.71-.32-.21-.12-.39-.24-.53-.36l.56-.91c.11,.11,.26,.23,.45,.34,.19,.12,.39,.22,.61,.31,.22,.09,.46,.17,.72,.22,.26,.06,.51,.08,.77,.08s.49-.02,.71-.06,.41-.11,.58-.2,.3-.21,.4-.35c.1-.14,.15-.32,.15-.52Z"/><path class="cls-2" d="M218.55,187.96v-.94h2.44v-5.12h-2.44v-.94h3.54v6.06h2.38v.94h-5.92Zm2.04-8.99c0-.25,.08-.47,.25-.65,.17-.18,.38-.27,.64-.27s.5,.09,.68,.27c.18,.18,.27,.4,.27,.65s-.09,.45-.27,.62c-.18,.17-.41,.25-.68,.25s-.48-.08-.64-.25-.25-.37-.25-.62Z"/><path class="cls-2" d="M225.91,180.96h1.67v-1.39l1.11-.31v1.69h3.74v.94h-3.74v3.3c0,.68,.17,1.19,.5,1.51,.33,.33,.8,.49,1.42,.49,.42,0,.78-.08,1.1-.24,.31-.16,.59-.33,.84-.52l.36,.83c-.33,.26-.72,.47-1.17,.63-.45,.16-.92,.24-1.39,.24-.37,0-.73-.05-1.06-.16-.33-.11-.62-.27-.88-.5-.25-.22-.45-.51-.6-.86-.15-.35-.22-.77-.22-1.25v-3.47h-1.67v-.94Z"/><path class="cls-2" d="M241.28,187.08c-.17,.15-.37,.29-.59,.42-.23,.13-.48,.24-.75,.34-.27,.09-.55,.17-.85,.22-.29,.05-.59,.08-.89,.08-.56,0-1.05-.09-1.48-.26-.43-.17-.79-.42-1.08-.74-.29-.32-.51-.71-.66-1.16-.15-.45-.22-.95-.22-1.51,0-.59,.08-1.11,.25-1.57,.16-.46,.4-.84,.71-1.15s.68-.54,1.12-.71,.93-.25,1.47-.25c.39,0,.78,.05,1.16,.15s.72,.3,1.02,.58c.29,.28,.52,.68,.68,1.18,.16,.5,.21,1.15,.17,1.94h-5.4c0,.84,.23,1.47,.68,1.88,.45,.42,1.05,.62,1.81,.62,.25,0,.5-.03,.75-.09,.25-.06,.48-.13,.71-.22,.22-.08,.42-.18,.59-.28,.17-.1,.3-.2,.4-.28l.43,.8Zm-2.95-5.36c-.31,0-.6,.03-.87,.1-.28,.07-.52,.18-.73,.33-.21,.15-.38,.36-.52,.6-.14,.25-.22,.55-.26,.92h4.34c-.05-.62-.24-1.09-.59-1.44-.35-.34-.81-.51-1.37-.51Z"/><path class="cls-2" d="M243.58,183.41c0-.08,0-.19,0-.33s-.01-.28-.02-.42c0-.14-.02-.29-.04-.43-.01-.14-.03-.26-.05-.36h-.94v-.91h1.88l.13,1.13h.07c.09-.16,.22-.31,.37-.47,.15-.15,.33-.29,.54-.42s.43-.23,.69-.3c.25-.08,.52-.11,.8-.11,.43,0,.81,.05,1.14,.14,.33,.09,.61,.26,.83,.5,.22,.24,.38,.56,.5,.97,.11,.41,.17,.92,.17,1.55v4.02h-1.11v-3.8c0-.77-.13-1.36-.38-1.75-.25-.39-.71-.59-1.37-.59-.24,0-.48,.05-.7,.15-.23,.1-.44,.23-.62,.38-.19,.16-.35,.34-.49,.55-.14,.21-.24,.43-.31,.66v4.39h-1.08v-4.55Z"/><path class="cls-2" d="M33.79,201.5c.4-.23,.85-.4,1.36-.5s1-.15,1.48-.15,.87,.08,1.17,.22c.3,.15,.54,.34,.71,.58,.17,.24,.29,.51,.35,.81,.06,.3,.09,.61,.09,.92,0,.35,0,.73-.03,1.13-.02,.4-.03,.8-.04,1.2,0,.47,.03,.91,.08,1.33h.94v.91h-1.85l-.12-1.05h-.07c-.06,.08-.14,.19-.25,.32-.11,.13-.26,.26-.44,.38s-.4,.24-.67,.33c-.26,.09-.57,.14-.93,.14-.69,0-1.24-.18-1.64-.53-.4-.35-.6-.84-.6-1.46,0-.48,.11-.87,.32-1.19s.51-.56,.91-.73c.39-.17,.87-.27,1.43-.29,.56-.03,1.18,0,1.88,.11,.05-.43,.05-.79,.02-1.07-.03-.28-.11-.51-.22-.68s-.28-.29-.49-.36c-.21-.07-.47-.1-.78-.1-.42,0-.82,.06-1.21,.17-.38,.12-.73,.24-1.03,.36l-.35-.81Zm2.07,5.64c.26,0,.5-.04,.73-.13,.22-.08,.42-.19,.59-.32s.31-.27,.42-.43c.11-.15,.2-.3,.25-.44v-.98c-.49-.08-.93-.13-1.34-.13s-.77,.04-1.06,.13-.53,.23-.7,.41c-.17,.19-.25,.43-.25,.73s.11,.58,.32,.8c.21,.23,.56,.34,1.06,.34Z"/><path class="cls-2" d="M44.35,207.96v-4.66c0-.2,0-.38-.02-.57-.01-.18-.05-.35-.1-.49-.05-.14-.13-.26-.22-.34-.1-.08-.23-.13-.39-.13-.32,0-.59,.13-.8,.39-.22,.26-.38,.59-.5,.98v4.82h-1.06v-7h.73l.21,.85h.06c.09-.14,.18-.27,.27-.4s.19-.24,.31-.33c.12-.09,.25-.17,.41-.22,.16-.05,.36-.08,.6-.08,.14,0,.28,.02,.43,.06s.29,.11,.41,.2,.24,.21,.33,.36c.09,.15,.15,.33,.18,.55,.21-.36,.46-.65,.72-.85,.27-.21,.63-.31,1.1-.31,.31,0,.56,.05,.75,.15s.34,.25,.45,.44c.11,.19,.18,.42,.22,.69,.04,.27,.06,.56,.06,.89v5h-1.06v-4.76c0-.2,0-.38-.03-.55-.02-.17-.05-.32-.1-.45-.05-.13-.12-.23-.21-.31-.09-.07-.21-.11-.36-.11-.33,0-.6,.13-.83,.39-.22,.26-.39,.63-.5,1.12v4.68h-1.06Z"/><path class="cls-2" d="M56.49,207.08c-.17,.15-.37,.29-.59,.42-.23,.13-.48,.24-.75,.34-.27,.09-.55,.17-.85,.22-.29,.05-.59,.08-.89,.08-.56,0-1.05-.09-1.48-.26-.43-.17-.79-.42-1.08-.74-.29-.32-.51-.71-.66-1.16-.15-.45-.22-.95-.22-1.51,0-.59,.08-1.11,.25-1.57,.16-.46,.4-.84,.71-1.15s.68-.54,1.12-.71,.93-.25,1.47-.25c.39,0,.78,.05,1.16,.15s.72,.3,1.02,.58c.29,.28,.52,.68,.68,1.18,.16,.5,.21,1.15,.17,1.94h-5.4c0,.84,.23,1.47,.68,1.88,.45,.42,1.05,.62,1.81,.62,.25,0,.5-.03,.75-.09,.25-.06,.48-.13,.71-.22,.22-.08,.42-.18,.59-.28,.17-.1,.3-.2,.4-.28l.43,.8Zm-2.95-5.36c-.31,0-.6,.03-.87,.1-.28,.07-.52,.18-.73,.33-.21,.15-.38,.36-.52,.6-.14,.25-.22,.55-.26,.92h4.34c-.05-.62-.24-1.09-.59-1.44-.35-.34-.81-.51-1.37-.51Z"/><path class="cls-2" d="M57.91,200.96h1.67v-1.39l1.11-.31v1.69h3.74v.94h-3.74v3.3c0,.68,.17,1.19,.5,1.51,.33,.33,.8,.49,1.42,.49,.42,0,.78-.08,1.1-.24,.31-.16,.59-.33,.84-.52l.36,.83c-.33,.26-.72,.47-1.17,.63-.45,.16-.92,.24-1.39,.24-.37,0-.73-.05-1.06-.16-.33-.11-.62-.27-.88-.5-.25-.22-.45-.51-.6-.86-.15-.35-.22-.77-.22-1.25v-3.47h-1.67v-.94Z"/><path class="cls-2" d="M69.09,207.19c0-.28,.09-.51,.27-.68,.18-.17,.42-.26,.71-.26,.35,0,.63,.12,.83,.37,.2,.25,.29,.59,.29,1.04,0,.36-.06,.68-.18,.96s-.27,.51-.46,.7c-.18,.19-.38,.34-.59,.46-.21,.12-.4,.2-.58,.26l-.35-.55c.34-.13,.62-.32,.87-.56,.24-.24,.36-.54,.36-.88-.13,.03-.23,.04-.31,.04-.27,0-.48-.08-.64-.23-.15-.15-.23-.38-.23-.68Z"/><path class="cls-2" d="M88.83,202.04c-.21-.08-.45-.14-.69-.19-.25-.05-.49-.08-.74-.08-.91,0-1.6,.22-2.04,.65-.45,.43-.67,1.11-.67,2.05,0,.41,.07,.78,.2,1.1,.13,.32,.32,.6,.56,.82,.24,.22,.53,.4,.88,.52,.34,.12,.72,.18,1.13,.18,.44,0,.87-.08,1.28-.23s.76-.35,1.04-.6l.49,.81c-.13,.11-.29,.23-.49,.35-.2,.12-.42,.24-.68,.34-.26,.11-.54,.19-.85,.26-.31,.06-.65,.1-1.01,.1-.61,0-1.14-.09-1.6-.26s-.85-.42-1.16-.74-.54-.71-.7-1.16c-.16-.45-.24-.95-.24-1.5,0-.59,.08-1.11,.25-1.57,.16-.46,.4-.84,.71-1.15s.68-.54,1.12-.71,.93-.25,1.47-.25c.69,0,1.25,.06,1.69,.18,.43,.12,.8,.26,1.1,.41v.04s-.01,1.95-.01,1.95h-1.01v-1.33Z"/><path class="cls-2" d="M91.88,204.46c0-1.13,.29-2.02,.88-2.68,.59-.66,1.43-.99,2.52-.99,.59,0,1.09,.1,1.52,.29s.78,.45,1.06,.78c.28,.33,.49,.71,.62,1.16,.14,.45,.2,.93,.2,1.44,0,.56-.07,1.07-.22,1.52-.15,.45-.37,.84-.66,1.16s-.65,.56-1.07,.74-.91,.26-1.45,.26c-.58,0-1.08-.1-1.51-.29-.43-.19-.78-.45-1.06-.78-.28-.33-.49-.71-.62-1.16-.14-.45-.2-.93-.2-1.44Zm1.16,0c0,.33,.04,.65,.12,.98,.08,.33,.21,.62,.38,.88,.18,.26,.41,.47,.69,.63,.28,.16,.63,.24,1.04,.24,.74,0,1.31-.23,1.68-.69,.38-.46,.57-1.14,.57-2.04,0-.34-.04-.67-.12-.99-.08-.32-.21-.61-.39-.88-.18-.26-.41-.47-.7-.63-.28-.16-.63-.24-1.04-.24-.74,0-1.3,.23-1.67,.69s-.56,1.14-.56,2.04Z"/><path class="cls-2" d="M100.78,203.41c0-.08,0-.19,0-.33s-.01-.28-.02-.42c0-.14-.02-.29-.04-.43-.01-.14-.03-.26-.05-.36h-.94v-.91h1.88l.13,1.13h.07c.09-.16,.22-.31,.37-.47s.33-.29,.54-.42,.43-.23,.69-.3c.25-.08,.52-.11,.8-.11,.43,0,.81,.05,1.14,.14,.33,.09,.61,.26,.83,.5,.22,.24,.38,.56,.5,.97,.11,.41,.17,.92,.17,1.55v4.02h-1.11v-3.8c0-.77-.12-1.36-.38-1.75-.25-.39-.71-.59-1.37-.59-.24,0-.48,.05-.71,.15-.23,.1-.43,.23-.62,.38-.19,.16-.35,.34-.49,.55-.14,.21-.24,.43-.31,.66v4.39h-1.08v-4.55Z"/><path class="cls-2" d="M114,206.07c0-.3-.12-.53-.35-.69s-.52-.29-.87-.39c-.34-.1-.72-.19-1.12-.27-.4-.08-.78-.2-1.12-.34-.34-.14-.63-.33-.87-.57-.23-.24-.35-.57-.35-1,0-.35,.08-.66,.23-.91,.15-.25,.36-.46,.61-.62,.25-.16,.55-.29,.88-.36s.69-.12,1.05-.12c.65,0,1.22,.08,1.69,.25,.47,.16,.85,.33,1.13,.51l-.45,.88c-.31-.17-.64-.33-1-.48-.36-.15-.81-.23-1.35-.23-.2,0-.41,.02-.61,.06-.2,.04-.38,.1-.54,.19s-.29,.19-.39,.33c-.1,.14-.15,.3-.15,.5,0,.24,.12,.43,.35,.56,.23,.13,.52,.24,.87,.33,.34,.09,.72,.17,1.12,.25,.4,.08,.78,.19,1.12,.34,.34,.15,.63,.35,.87,.6s.35,.59,.35,1.02c0,.64-.25,1.18-.76,1.6s-1.27,.63-2.29,.63c-.31,0-.61-.03-.91-.08s-.58-.13-.84-.22c-.26-.09-.5-.2-.71-.32-.21-.12-.39-.24-.53-.36l.56-.91c.11,.11,.26,.23,.45,.34,.19,.12,.39,.22,.61,.31,.22,.09,.46,.17,.72,.22,.26,.06,.51,.08,.77,.08s.49-.02,.71-.06,.41-.11,.58-.2,.3-.21,.4-.35c.1-.14,.15-.32,.15-.52Z"/><path class="cls-2" d="M123.69,207.08c-.17,.15-.37,.29-.59,.42-.23,.13-.48,.24-.75,.34-.27,.09-.55,.17-.85,.22-.29,.05-.59,.08-.89,.08-.56,0-1.05-.09-1.48-.26-.43-.17-.79-.42-1.08-.74-.29-.32-.51-.71-.66-1.16-.15-.45-.22-.95-.22-1.51,0-.59,.08-1.11,.25-1.57,.16-.46,.4-.84,.71-1.15s.68-.54,1.12-.71,.93-.25,1.47-.25c.39,0,.78,.05,1.16,.15s.72,.3,1.02,.58c.29,.28,.52,.68,.68,1.18,.16,.5,.21,1.15,.17,1.94h-5.4c0,.84,.23,1.47,.68,1.88,.45,.42,1.05,.62,1.81,.62,.25,0,.5-.03,.75-.09,.25-.06,.48-.13,.71-.22,.22-.08,.42-.18,.59-.28,.17-.1,.3-.2,.4-.28l.43,.8Zm-2.95-5.36c-.31,0-.6,.03-.87,.1-.28,.07-.52,.18-.73,.33-.21,.15-.38,.36-.52,.6-.14,.25-.22,.55-.26,.92h4.34c-.05-.62-.24-1.09-.59-1.44-.35-.34-.81-.51-1.37-.51Z"/><path class="cls-2" d="M130.83,202.04c-.21-.08-.45-.14-.69-.19-.25-.05-.49-.08-.74-.08-.92,0-1.6,.22-2.04,.65s-.67,1.11-.67,2.05c0,.41,.07,.78,.2,1.1,.13,.32,.32,.6,.56,.82,.24,.22,.53,.4,.88,.52,.34,.12,.72,.18,1.13,.18,.44,0,.87-.08,1.28-.23,.42-.15,.76-.35,1.04-.6l.49,.81c-.13,.11-.29,.23-.49,.35-.2,.12-.42,.24-.68,.34-.26,.11-.54,.19-.85,.26-.31,.06-.65,.1-1.01,.1-.61,0-1.14-.09-1.6-.26s-.85-.42-1.16-.74c-.31-.32-.54-.71-.7-1.16-.16-.45-.24-.95-.24-1.5,0-.59,.08-1.11,.25-1.57,.16-.46,.4-.84,.71-1.15,.31-.31,.68-.54,1.12-.71,.44-.16,.93-.25,1.47-.25,.69,0,1.25,.06,1.69,.18,.43,.12,.8,.26,1.1,.41v.04s-.01,1.95-.01,1.95h-1.01v-1.33Z"/><path class="cls-2" d="M133.51,200.96h1.67v-1.39l1.11-.31v1.69h3.74v.94h-3.74v3.3c0,.68,.17,1.19,.5,1.51,.33,.33,.8,.49,1.42,.49,.42,0,.78-.08,1.09-.24,.31-.16,.59-.33,.84-.52l.36,.83c-.33,.26-.72,.47-1.17,.63-.45,.16-.92,.24-1.39,.24-.37,0-.73-.05-1.06-.16-.33-.11-.62-.27-.88-.5-.25-.22-.45-.51-.6-.86s-.22-.77-.22-1.25v-3.47h-1.67v-.94Z"/><path class="cls-2" d="M148.88,207.08c-.17,.15-.37,.29-.59,.42s-.48,.24-.75,.34c-.27,.09-.55,.17-.85,.22-.29,.05-.59,.08-.89,.08-.56,0-1.06-.09-1.48-.26-.43-.17-.79-.42-1.08-.74s-.51-.71-.66-1.16c-.15-.45-.22-.95-.22-1.51,0-.59,.08-1.11,.25-1.57,.16-.46,.4-.84,.71-1.15,.31-.31,.68-.54,1.12-.71,.44-.16,.93-.25,1.47-.25,.39,0,.78,.05,1.16,.15s.72,.3,1.01,.58c.29,.28,.52,.68,.68,1.18,.16,.5,.21,1.15,.17,1.94h-5.4c0,.84,.23,1.47,.68,1.88,.45,.42,1.05,.62,1.81,.62,.25,0,.5-.03,.75-.09,.25-.06,.48-.13,.71-.22s.42-.18,.59-.28c.17-.1,.3-.2,.4-.28l.43,.8Zm-2.95-5.36c-.31,0-.6,.03-.87,.1-.27,.07-.52,.18-.73,.33-.21,.15-.38,.36-.52,.6s-.22,.55-.26,.92h4.34c-.05-.62-.24-1.09-.59-1.44-.35-.34-.81-.51-1.37-.51Z"/><path class="cls-2" d="M150.31,200.96h1.67v-1.39l1.11-.31v1.69h3.74v.94h-3.74v3.3c0,.68,.17,1.19,.5,1.51,.33,.33,.8,.49,1.42,.49,.42,0,.78-.08,1.09-.24,.31-.16,.59-.33,.84-.52l.36,.83c-.33,.26-.72,.47-1.17,.63-.45,.16-.92,.24-1.39,.24-.37,0-.73-.05-1.06-.16-.33-.11-.62-.27-.88-.5-.25-.22-.45-.51-.6-.86s-.22-.77-.22-1.25v-3.47h-1.67v-.94Z"/><path class="cls-2" d="M163.35,200.96h2v4.77c0,.46,.03,.9,.08,1.32h.94v.91h-1.88l-.04-1.19h-.06c-.24,.4-.56,.73-.96,.98s-.88,.38-1.45,.38c-.43,0-.79-.05-1.1-.15-.3-.1-.55-.27-.75-.51-.2-.24-.34-.57-.43-.97-.09-.41-.14-.91-.14-1.52v-3.08h-.94v-.94h2.04v3.79c0,.38,.02,.73,.05,1.03,.03,.3,.1,.56,.2,.77,.1,.21,.25,.37,.45,.48,.2,.11,.46,.16,.8,.16,.48,0,.9-.16,1.26-.48s.63-.71,.81-1.19v-3.63h-.9v-.94Z"/><path class="cls-2" d="M167.6,207.96v-.94h1.89v-5.12h-1.89v-.94h2.62l.22,.91h.07c.32-.29,.67-.54,1.06-.74,.39-.21,.86-.31,1.4-.31,.32,0,.57,.06,.76,.18s.34,.3,.45,.53c.11,.23,.18,.52,.22,.85,.04,.33,.06,.71,.06,1.13h-.98c0-.58-.06-1.01-.18-1.29-.12-.28-.33-.42-.64-.42-.29,0-.55,.04-.78,.13s-.44,.19-.61,.31c-.17,.12-.32,.24-.44,.36s-.21,.22-.27,.31v4.12h2.69v.94h-5.66Z"/><path class="cls-2" d="M184.99,201.5c.4-.23,.85-.4,1.36-.5s1-.15,1.48-.15,.87,.08,1.17,.22c.3,.15,.54,.34,.71,.58,.17,.24,.29,.51,.35,.81,.06,.3,.09,.61,.09,.92,0,.35,0,.73-.03,1.13-.02,.4-.03,.8-.04,1.2,0,.47,.03,.91,.08,1.33h.94v.91h-1.85l-.12-1.05h-.07c-.06,.08-.14,.19-.25,.32-.11,.13-.26,.26-.44,.38s-.4,.24-.67,.33c-.26,.09-.57,.14-.93,.14-.69,0-1.24-.18-1.64-.53-.4-.35-.6-.84-.6-1.46,0-.48,.11-.87,.32-1.19s.51-.56,.91-.73c.39-.17,.87-.27,1.43-.29,.56-.03,1.18,0,1.88,.11,.05-.43,.05-.79,.02-1.07-.03-.28-.11-.51-.22-.68s-.28-.29-.49-.36c-.21-.07-.47-.1-.78-.1-.42,0-.82,.06-1.21,.17-.38,.12-.73,.24-1.03,.36l-.35-.81Zm2.07,5.64c.26,0,.5-.04,.73-.13,.22-.08,.42-.19,.59-.32s.31-.27,.42-.43c.11-.15,.2-.3,.25-.44v-.98c-.49-.08-.93-.13-1.34-.13s-.77,.04-1.06,.13-.53,.23-.7,.41c-.17,.19-.25,.43-.25,.73s.11,.58,.32,.8c.21,.23,.56,.34,1.06,.34Z"/><path class="cls-2" d="M192.31,200.96h1.67v-1.39l1.11-.31v1.69h3.74v.94h-3.74v3.3c0,.68,.17,1.19,.5,1.51,.33,.33,.8,.49,1.42,.49,.42,0,.78-.08,1.1-.24,.31-.16,.59-.33,.84-.52l.36,.83c-.33,.26-.72,.47-1.17,.63-.45,.16-.92,.24-1.39,.24-.37,0-.73-.05-1.06-.16-.33-.11-.62-.27-.88-.5-.25-.22-.45-.51-.6-.86-.15-.35-.22-.77-.22-1.25v-3.47h-1.67v-.94Z"/><path class="cls-2" d="M207.68,207.08c-.17,.15-.37,.29-.59,.42-.23,.13-.48,.24-.75,.34-.27,.09-.55,.17-.85,.22-.29,.05-.59,.08-.89,.08-.56,0-1.05-.09-1.48-.26-.43-.17-.79-.42-1.08-.74-.29-.32-.51-.71-.66-1.16-.15-.45-.22-.95-.22-1.51,0-.59,.08-1.11,.25-1.57,.16-.46,.4-.84,.71-1.15s.68-.54,1.12-.71,.93-.25,1.47-.25c.39,0,.78,.05,1.16,.15s.72,.3,1.02,.58c.29,.28,.52,.68,.68,1.18,.16,.5,.21,1.15,.17,1.94h-5.4c0,.84,.23,1.47,.68,1.88,.45,.42,1.05,.62,1.81,.62,.25,0,.5-.03,.75-.09,.25-.06,.48-.13,.71-.22,.22-.08,.42-.18,.59-.28,.17-.1,.3-.2,.4-.28l.43,.8Zm-2.95-5.36c-.31,0-.6,.03-.87,.1-.28,.07-.52,.18-.73,.33-.21,.15-.38,.36-.52,.6-.14,.25-.22,.55-.26,.92h4.34c-.05-.62-.24-1.09-.59-1.44-.35-.34-.81-.51-1.37-.51Z"/><path class="cls-2" d="M210.34,198.16h2.34v7.45c0,.57,.1,.97,.29,1.2,.19,.23,.47,.35,.85,.35,.26,0,.51-.05,.75-.14,.24-.09,.5-.25,.79-.48l.5,.77c-.15,.13-.31,.25-.49,.35-.18,.1-.36,.19-.55,.26-.19,.07-.38,.12-.56,.16-.19,.04-.36,.06-.52,.06-.35,0-.66-.04-.93-.13s-.5-.23-.68-.43-.32-.46-.41-.78c-.09-.32-.14-.72-.14-1.2v-6.51h-1.23v-.94Z"/><path class="cls-2" d="M218.55,207.96v-.94h2.44v-5.12h-2.44v-.94h3.54v6.06h2.38v.94h-5.92Zm2.04-8.99c0-.25,.08-.47,.25-.65,.17-.18,.38-.27,.64-.27s.5,.09,.68,.27c.18,.18,.27,.4,.27,.65s-.09,.45-.27,.62c-.18,.17-.41,.25-.68,.25s-.48-.08-.64-.25-.25-.37-.25-.62Z"/><path class="cls-2" d="M225.91,200.96h1.67v-1.39l1.11-.31v1.69h3.74v.94h-3.74v3.3c0,.68,.17,1.19,.5,1.51,.33,.33,.8,.49,1.42,.49,.42,0,.78-.08,1.1-.24,.31-.16,.59-.33,.84-.52l.36,.83c-.33,.26-.72,.47-1.17,.63-.45,.16-.92,.24-1.39,.24-.37,0-.73-.05-1.06-.16-.33-.11-.62-.27-.88-.5-.25-.22-.45-.51-.6-.86-.15-.35-.22-.77-.22-1.25v-3.47h-1.67v-.94Z"/><path class="cls-2" d="M33.79,221.5c.4-.23,.85-.4,1.36-.5s1-.15,1.48-.15,.87,.08,1.17,.22c.3,.15,.54,.34,.71,.58,.17,.24,.29,.51,.35,.81,.06,.3,.09,.61,.09,.92,0,.35,0,.73-.03,1.13-.02,.4-.03,.8-.04,1.2,0,.47,.03,.91,.08,1.33h.94v.91h-1.85l-.12-1.05h-.07c-.06,.08-.14,.19-.25,.32-.11,.13-.26,.26-.44,.38s-.4,.24-.67,.33c-.26,.09-.57,.14-.93,.14-.69,0-1.24-.18-1.64-.53-.4-.35-.6-.84-.6-1.46,0-.48,.11-.87,.32-1.19s.51-.56,.91-.73c.39-.17,.87-.27,1.43-.29,.56-.03,1.18,0,1.88,.11,.05-.43,.05-.79,.02-1.07-.03-.28-.11-.51-.22-.68s-.28-.29-.49-.36c-.21-.07-.47-.1-.78-.1-.42,0-.82,.06-1.21,.17-.38,.12-.73,.24-1.03,.36l-.35-.81Zm2.07,5.64c.26,0,.5-.04,.73-.13,.22-.08,.42-.19,.59-.32s.31-.27,.42-.43c.11-.15,.2-.3,.25-.44v-.98c-.49-.08-.93-.13-1.34-.13s-.77,.04-1.06,.13-.53,.23-.7,.41c-.17,.19-.25,.43-.25,.73s.11,.58,.32,.8c.21,.23,.56,.34,1.06,.34Z"/><path class="cls-2" d="M45.55,218.16h2.28v7.41c0,.08,0,.19,.01,.31,0,.13,.02,.26,.04,.4,.01,.14,.03,.28,.05,.41,.02,.13,.04,.25,.06,.36h.94v.91h-1.88l-.14-1.08h-.06c-.21,.35-.51,.65-.92,.89-.4,.24-.87,.36-1.4,.36-1.05,0-1.83-.3-2.32-.89-.5-.59-.75-1.51-.75-2.77,0-.59,.08-1.11,.25-1.56s.41-.83,.72-1.13c.31-.3,.69-.53,1.12-.69,.44-.16,.93-.24,1.47-.24,.2,0,.37,0,.52,.01,.15,0,.29,.02,.43,.04,.13,.02,.25,.04,.37,.08,.12,.03,.24,.07,.38,.1v-1.99h-1.18v-.94Zm-.83,9.03c.57,0,1.01-.15,1.34-.44s.55-.74,.67-1.32v-3.25c-.21-.14-.43-.24-.69-.31s-.59-.1-1.01-.1c-.74,0-1.33,.22-1.76,.65-.43,.43-.64,1.12-.64,2.05,0,.38,.04,.74,.11,1.07,.07,.33,.19,.62,.35,.86,.16,.24,.38,.43,.65,.57,.27,.14,.6,.21,.99,.21Z"/><path class="cls-2" d="M50.55,227.96v-.94h2.44v-5.12h-2.44v-.94h3.54v6.06h2.38v.94h-5.92Zm2.04-8.99c0-.25,.08-.47,.25-.65,.17-.18,.38-.27,.64-.27s.5,.09,.68,.27c.18,.18,.27,.4,.27,.65s-.09,.45-.27,.62c-.18,.17-.41,.25-.68,.25s-.48-.08-.64-.25-.25-.37-.25-.62Z"/><path class="cls-2" d="M58.82,223.41c0-.08,0-.19,0-.33s-.01-.28-.02-.42c0-.14-.02-.29-.04-.43-.01-.14-.03-.26-.05-.36h-.94v-.91h1.86l.14,.98h.07c.25-.33,.57-.6,.96-.82,.39-.22,.86-.33,1.42-.33,1,0,1.75,.28,2.25,.83s.76,1.45,.76,2.7c0,.59-.09,1.12-.26,1.59-.17,.47-.42,.87-.74,1.2-.32,.33-.7,.58-1.15,.76-.45,.18-.94,.27-1.48,.27-.2,0-.37,0-.53-.02-.15-.01-.29-.03-.42-.06s-.25-.05-.37-.09-.25-.08-.39-.14v2.94h-1.08v-7.35Zm3.22-1.58c-.28,0-.54,.05-.79,.15s-.47,.24-.66,.41c-.19,.17-.35,.35-.47,.56-.12,.2-.2,.41-.22,.61v3.18c.21,.14,.44,.25,.69,.33,.26,.08,.59,.12,1.01,.12,.75,0,1.34-.25,1.79-.73,.45-.49,.67-1.2,.67-2.14,0-.79-.16-1.4-.47-1.84-.31-.43-.83-.65-1.56-.65Z"/><path class="cls-2" d="M67.35,227.96v-.94h2.44v-5.12h-2.44v-.94h3.54v6.06h2.38v.94h-5.92Zm2.04-8.99c0-.25,.08-.47,.25-.65,.17-.18,.38-.27,.64-.27s.5,.09,.68,.27c.18,.18,.27,.4,.27,.65s-.09,.45-.27,.62c-.18,.17-.41,.25-.68,.25s-.48-.08-.64-.25-.25-.37-.25-.62Z"/><path class="cls-2" d="M80.4,226.07c0-.3-.12-.53-.35-.69s-.52-.29-.87-.39c-.34-.1-.72-.19-1.12-.27-.4-.08-.78-.2-1.12-.34-.34-.14-.63-.33-.87-.57-.23-.24-.35-.57-.35-1,0-.35,.08-.66,.23-.91,.15-.25,.36-.46,.61-.62,.25-.16,.55-.29,.88-.36s.69-.12,1.05-.12c.65,0,1.22,.08,1.69,.25,.47,.16,.85,.33,1.13,.51l-.45,.88c-.31-.17-.64-.33-1-.48-.36-.15-.81-.23-1.35-.23-.2,0-.41,.02-.61,.06-.2,.04-.38,.1-.54,.19s-.29,.19-.39,.33c-.1,.14-.15,.3-.15,.5,0,.24,.12,.43,.35,.56,.23,.13,.52,.24,.87,.33,.34,.09,.72,.17,1.12,.25,.4,.08,.78,.19,1.12,.34,.34,.15,.63,.35,.87,.6s.35,.59,.35,1.02c0,.64-.25,1.18-.76,1.6s-1.27,.63-2.29,.63c-.31,0-.61-.03-.91-.08s-.58-.13-.84-.22c-.26-.09-.5-.2-.71-.32-.21-.12-.39-.24-.53-.36l.56-.91c.11,.11,.26,.23,.45,.34,.19,.12,.39,.22,.61,.31,.22,.09,.46,.17,.72,.22,.26,.06,.51,.08,.77,.08s.49-.02,.71-.06,.41-.11,.58-.2,.3-.21,.4-.35c.1-.14,.15-.32,.15-.52Z"/><path class="cls-2" d="M84.15,227.96v-.94h2.44v-5.12h-2.44v-.94h3.54v6.06h2.38v.94h-5.92Zm2.04-8.99c0-.25,.08-.47,.25-.65,.17-.18,.38-.27,.64-.27s.5,.09,.68,.27c.18,.18,.27,.4,.27,.65s-.09,.45-.27,.62c-.18,.17-.41,.25-.68,.25s-.48-.08-.64-.25-.25-.37-.25-.62Z"/><path class="cls-2" d="M97.23,222.04c-.21-.08-.45-.14-.69-.19-.25-.05-.49-.08-.74-.08-.92,0-1.6,.22-2.04,.65s-.67,1.11-.67,2.05c0,.41,.07,.78,.2,1.1,.13,.32,.32,.6,.56,.82,.24,.22,.53,.4,.88,.52,.34,.12,.72,.18,1.13,.18,.44,0,.87-.08,1.28-.23,.42-.15,.76-.35,1.04-.6l.49,.81c-.13,.11-.29,.23-.49,.35-.2,.12-.42,.24-.68,.34-.26,.11-.54,.19-.85,.26-.31,.06-.65,.1-1.01,.1-.61,0-1.14-.09-1.6-.26s-.85-.42-1.16-.74c-.31-.32-.54-.71-.7-1.16-.16-.45-.24-.95-.24-1.5,0-.59,.08-1.11,.25-1.57,.16-.46,.4-.84,.71-1.15,.31-.31,.68-.54,1.12-.71,.44-.16,.93-.25,1.47-.25,.69,0,1.25,.06,1.69,.18,.43,.12,.8,.26,1.1,.41v.04s-.01,1.95-.01,1.95h-1.01v-1.33Z"/><path class="cls-2" d="M100.95,227.96v-.94h2.44v-5.12h-2.44v-.94h3.54v6.06h2.38v.94h-5.92Zm2.04-8.99c0-.25,.08-.47,.25-.65,.17-.18,.38-.27,.64-.27s.5,.09,.68,.27c.18,.18,.27,.4,.27,.65s-.09,.45-.27,.62c-.18,.17-.41,.25-.68,.25s-.48-.08-.64-.25-.25-.37-.25-.62Z"/><path class="cls-2" d="M109.18,223.41c0-.08,0-.19,0-.33s-.01-.28-.02-.42c0-.14-.02-.29-.04-.43-.01-.14-.03-.26-.05-.36h-.94v-.91h1.88l.13,1.13h.07c.09-.16,.22-.31,.37-.47,.15-.15,.33-.29,.54-.42s.43-.23,.69-.3c.25-.08,.52-.11,.8-.11,.43,0,.81,.05,1.14,.14,.33,.09,.61,.26,.83,.5,.22,.24,.38,.56,.5,.97,.11,.41,.17,.92,.17,1.55v4.02h-1.11v-3.8c0-.77-.13-1.36-.38-1.75-.25-.39-.71-.59-1.37-.59-.24,0-.48,.05-.7,.15-.23,.1-.44,.23-.62,.38-.19,.16-.35,.34-.49,.55-.14,.21-.24,.43-.31,.66v4.39h-1.08v-4.55Z"/><path class="cls-2" d="M123.62,228.31c0,.44-.08,.82-.25,1.16s-.4,.6-.69,.82-.64,.38-1.03,.48-.82,.16-1.27,.16c-.55,0-1.03-.06-1.44-.17-.41-.11-.77-.26-1.06-.43l.53-.99c.08,.07,.19,.15,.33,.22s.29,.14,.47,.2,.37,.11,.57,.15,.4,.06,.59,.06c.41,0,.75-.04,1.03-.11,.27-.08,.5-.19,.66-.35,.17-.16,.29-.36,.36-.62s.11-.56,.11-.92v-.78h-.06c-.21,.31-.49,.55-.82,.71s-.77,.25-1.3,.25c-1.06,0-1.84-.3-2.34-.89s-.75-1.51-.75-2.77,.32-2.1,.95-2.71,1.58-.92,2.83-.92c.58,0,1.07,.04,1.48,.12,.41,.08,.78,.18,1.11,.3v7.04Zm-3.12-1.12c.57,0,1.01-.15,1.33-.44s.55-.74,.68-1.35v-3.32c-.41-.2-.98-.29-1.71-.29s-1.33,.22-1.75,.66c-.43,.44-.64,1.11-.64,2.02,0,.4,.04,.77,.11,1.1,.07,.33,.19,.62,.35,.86,.16,.24,.38,.43,.64,.57,.26,.13,.59,.2,.98,.2Z"/><path class="cls-2" d="M140.49,227.08c-.17,.15-.37,.29-.59,.42-.23,.13-.48,.24-.75,.34-.27,.09-.55,.17-.85,.22-.29,.05-.59,.08-.89,.08-.56,0-1.05-.09-1.48-.26-.43-.17-.79-.42-1.08-.74-.29-.32-.51-.71-.66-1.16-.15-.45-.22-.95-.22-1.51,0-.59,.08-1.11,.25-1.57,.16-.46,.4-.84,.71-1.15s.68-.54,1.12-.71,.93-.25,1.47-.25c.39,0,.78,.05,1.16,.15s.72,.3,1.02,.58c.29,.28,.52,.68,.68,1.18,.16,.5,.21,1.15,.17,1.94h-5.4c0,.84,.23,1.47,.68,1.88,.45,.42,1.05,.62,1.81,.62,.25,0,.5-.03,.75-.09,.25-.06,.48-.13,.71-.22,.22-.08,.42-.18,.59-.28,.17-.1,.3-.2,.4-.28l.43,.8Zm-2.95-5.36c-.31,0-.6,.03-.87,.1-.28,.07-.52,.18-.73,.33-.21,.15-.38,.36-.52,.6-.14,.25-.22,.55-.26,.92h4.34c-.05-.62-.24-1.09-.59-1.44-.35-.34-.81-.51-1.37-.51Z"/><path class="cls-2" d="M142.78,223.41c0-.08,0-.19,0-.33s-.01-.28-.02-.42c0-.14-.02-.29-.04-.43-.01-.14-.03-.26-.05-.36h-.94v-.91h1.88l.13,1.13h.07c.09-.16,.22-.31,.37-.47,.15-.15,.33-.29,.54-.42s.43-.23,.69-.3c.25-.08,.52-.11,.8-.11,.43,0,.81,.05,1.14,.14,.33,.09,.61,.26,.83,.5,.22,.24,.38,.56,.5,.97,.11,.41,.17,.92,.17,1.55v4.02h-1.11v-3.8c0-.77-.13-1.36-.38-1.75-.25-.39-.71-.59-1.37-.59-.24,0-.48,.05-.7,.15-.23,.1-.44,.23-.62,.38-.19,.16-.35,.34-.49,.55-.14,.21-.24,.43-.31,.66v4.39h-1.08v-4.55Z"/><path class="cls-2" d="M151.35,227.96v-.94h2.44v-5.12h-2.44v-.94h3.54v6.06h2.38v.94h-5.92Zm2.04-8.99c0-.25,.08-.47,.25-.65,.17-.18,.38-.27,.64-.27s.5,.09,.68,.27c.18,.18,.27,.4,.27,.65s-.09,.45-.27,.62c-.18,.17-.41,.25-.68,.25s-.48-.08-.64-.25-.25-.37-.25-.62Z"/><path class="cls-2" d="M161.95,227.96v-4.66c0-.2,0-.38-.02-.57-.01-.18-.05-.35-.1-.49-.05-.14-.13-.26-.22-.34-.1-.08-.23-.13-.39-.13-.32,0-.59,.13-.8,.39-.22,.26-.38,.59-.5,.98v4.82h-1.06v-7h.73l.21,.85h.06c.09-.14,.18-.27,.27-.4s.19-.24,.31-.33c.12-.09,.25-.17,.41-.22,.16-.05,.36-.08,.6-.08,.14,0,.28,.02,.43,.06s.29,.11,.41,.2,.24,.21,.33,.36c.09,.15,.15,.33,.18,.55,.21-.36,.46-.65,.72-.85,.27-.21,.63-.31,1.1-.31,.31,0,.56,.05,.75,.15s.34,.25,.45,.44c.11,.19,.18,.42,.22,.69,.04,.27,.06,.56,.06,.89v5h-1.06v-4.76c0-.2,0-.38-.03-.55-.02-.17-.05-.32-.1-.45-.05-.13-.12-.23-.21-.31-.09-.07-.21-.11-.36-.11-.33,0-.6,.13-.83,.39-.22,.26-.39,.63-.5,1.12v4.68h-1.06Z"/><path class="cls-6" d="M167.18,223.83v-.7l6.54-4.06,.8,1.26-5.1,3.08,5.1,3.01-.8,1.26-6.54-3.85Z"/><path class="cls-6" d="M181.08,217.99l1.37,.62-5,11.31-1.37-.64,5-11.28Z"/><path class="cls-6" d="M183.48,220.96h2.38l.21,.84h.06c.49-.69,1.27-1.04,2.35-1.04,.43,0,.82,.07,1.18,.2,.36,.14,.67,.35,.92,.64,.26,.29,.46,.65,.59,1.09s.21,.97,.21,1.58-.08,1.14-.24,1.62c-.16,.48-.39,.89-.69,1.23s-.66,.59-1.09,.77c-.43,.18-.92,.27-1.47,.27-.29,0-.57-.02-.85-.06s-.51-.11-.7-.2v2.87h-1.82v-8.26h-1.05v-1.54Zm4.45,1.34c-.35,0-.68,.09-.97,.27-.29,.18-.5,.44-.61,.8v2.91c.13,.1,.32,.18,.57,.25,.25,.06,.5,.09,.75,.09s.5-.04,.73-.13c.22-.09,.42-.23,.59-.43,.17-.2,.3-.44,.39-.74,.09-.3,.14-.66,.14-1.08,0-.62-.15-1.09-.45-1.43s-.68-.5-1.13-.5Z"/><path class="cls-6" d="M193.18,227.68l-.8-1.26,5.1-3.01-5.1-3.08,.8-1.26,6.54,4.06v.7l-6.54,3.85Z"/></g></g><g><g><rect class="cls-7" x="77.19" y="-.28" width="145.62" height="41" rx="3.25" ry="3.25"/><path class="cls-5" d="M219.56,.22c1.52,0,2.75,1.23,2.75,2.75V37.47c0,1.52-1.23,2.75-2.75,2.75H80.44c-1.52,0-2.75-1.23-2.75-2.75V2.97c0-1.52,1.23-2.75,2.75-2.75H219.56m0-1H80.44c-2.07,0-3.75,1.68-3.75,3.75V37.47c0,2.07,1.68,3.75,3.75,3.75H219.56c2.07,0,3.75-1.68,3.75-3.75V2.97c0-2.07-1.68-3.75-3.75-3.75h0Z"/></g><path class="cls-9" d="M80.44-.78h69.37V41.22H80.44c-2.07,0-3.75-1.68-3.75-3.75V2.97c0-2.07,1.68-3.75,3.75-3.75Z"/><g><path class="cls-1" d="M95.49,16.81c.44-.76,1.04-1.35,1.81-1.77s1.59-.64,2.5-.64c1.04,0,1.96,.25,2.77,.76s1.39,1.23,1.76,2.16h-1.92c-.25-.51-.6-.9-1.05-1.15-.45-.25-.97-.38-1.55-.38-.64,0-1.22,.14-1.72,.43-.5,.29-.9,.71-1.18,1.25-.28,.54-.43,1.17-.43,1.89s.14,1.35,.43,1.89,.68,.96,1.18,1.25,1.08,.44,1.72,.44c.59,0,1.11-.13,1.55-.38,.45-.25,.8-.63,1.05-1.15h1.92c-.36,.93-.95,1.65-1.76,2.16s-1.73,.76-2.77,.76c-.91,0-1.75-.21-2.51-.64s-1.36-1.02-1.8-1.77c-.44-.76-.67-1.61-.67-2.56s.22-1.81,.67-2.56Z"/><path class="cls-1" d="M107.55,23.89c-.59-.33-1.05-.8-1.39-1.4-.34-.6-.5-1.3-.5-2.09s.17-1.48,.52-2.09c.35-.61,.82-1.07,1.41-1.4,.6-.33,1.26-.49,2-.49s1.4,.16,2,.49c.6,.33,1.07,.79,1.41,1.4,.35,.61,.52,1.3,.52,2.09s-.18,1.48-.53,2.09c-.35,.61-.84,1.08-1.45,1.41s-1.29,.5-2.02,.5-1.39-.17-1.97-.5Zm3.13-1.18c.36-.2,.65-.49,.88-.88,.22-.39,.34-.87,.34-1.43s-.11-1.03-.32-1.42c-.21-.39-.5-.68-.85-.88-.35-.2-.74-.29-1.15-.29s-.79,.1-1.14,.29-.63,.49-.83,.88c-.21,.39-.31,.86-.31,1.42,0,.83,.21,1.47,.64,1.92,.42,.45,.96,.68,1.6,.68,.41,0,.8-.1,1.15-.29Z"/><path class="cls-1" d="M115.06,18.31c.32-.6,.76-1.06,1.32-1.39s1.17-.5,1.85-.5c.5,0,1,.11,1.49,.33,.49,.22,.88,.51,1.17,.88v-3.72h1.61v10.36h-1.61v-1.16c-.26,.37-.62,.68-1.08,.92-.46,.24-.99,.36-1.59,.36-.67,0-1.29-.17-1.84-.51s-.99-.82-1.32-1.43c-.32-.61-.48-1.3-.48-2.08s.16-1.46,.48-2.06Zm5.5,.7c-.22-.39-.51-.69-.86-.9-.35-.21-.74-.31-1.15-.31s-.79,.1-1.15,.3c-.35,.2-.64,.5-.86,.88-.22,.39-.33,.85-.33,1.38s.11,1,.33,1.4,.51,.71,.87,.92,.74,.32,1.14,.32,.79-.1,1.15-.31c.35-.21,.64-.51,.86-.9s.33-.86,.33-1.39-.11-.99-.33-1.39Z"/><path class="cls-1" d="M131.62,21h-5.89c.05,.62,.28,1.11,.69,1.48,.41,.37,.91,.56,1.51,.56,.86,0,1.46-.36,1.82-1.08h1.72c-.23,.71-.66,1.29-1.27,1.74-.61,.45-1.37,.68-2.27,.68-.74,0-1.4-.17-1.98-.5-.58-.33-1.04-.8-1.37-1.4-.33-.6-.5-1.3-.5-2.09s.16-1.49,.48-2.09c.32-.6,.77-1.07,1.36-1.39,.58-.33,1.25-.49,2.01-.49s1.38,.16,1.95,.48,1.01,.76,1.33,1.34c.32,.57,.48,1.23,.48,1.98,0,.29-.02,.55-.06,.78Zm-1.61-1.29c0-.59-.22-1.06-.63-1.41-.41-.35-.92-.53-1.53-.53-.55,0-1.02,.17-1.41,.53-.39,.35-.62,.82-.7,1.42h4.27Z"/></g><g class="cls-8"><path class="cls-1" d="M174.61,13.9l-3.65,9.73h-1.85l-3.67-9.73h1.71l2.88,8.09,2.9-8.09h1.68Z"/><path class="cls-1" d="M176.02,14.6c-.2-.2-.29-.44-.29-.73s.1-.53,.29-.73c.2-.2,.44-.29,.73-.29s.52,.1,.71,.29c.2,.2,.29,.44,.29,.73s-.1,.53-.29,.73c-.2,.2-.43,.29-.71,.29s-.53-.1-.73-.29Zm1.51,1.32v7.71h-1.6v-7.71h1.6Z"/><path class="cls-1" d="M180.8,23.43c-.48-.22-.86-.52-1.14-.9-.28-.38-.43-.8-.45-1.27h1.65c.03,.33,.18,.6,.47,.82s.64,.33,1.07,.33,.8-.09,1.04-.26c.25-.17,.37-.39,.37-.67,0-.29-.14-.5-.41-.64-.28-.14-.71-.29-1.31-.46-.58-.16-1.05-.31-1.41-.46-.36-.15-.68-.38-.95-.69-.27-.31-.4-.71-.4-1.22,0-.41,.12-.79,.36-1.13,.24-.34,.59-.61,1.04-.8,.45-.2,.97-.29,1.56-.29,.88,0,1.58,.22,2.12,.67,.54,.44,.82,1.05,.86,1.81h-1.6c-.03-.34-.17-.62-.42-.83-.25-.21-.59-.31-1.02-.31s-.74,.08-.97,.24c-.22,.16-.34,.37-.34,.63,0,.21,.07,.38,.22,.52,.15,.14,.33,.25,.55,.33,.21,.08,.53,.18,.95,.3,.56,.15,1.02,.3,1.38,.46,.36,.15,.67,.38,.93,.68s.4,.7,.41,1.19c0,.44-.12,.83-.36,1.18-.24,.35-.59,.62-1.03,.81-.44,.2-.96,.29-1.56,.29s-1.15-.11-1.63-.33Z"/><path class="cls-1" d="M194.09,15.91v7.71h-1.6v-.91c-.25,.32-.58,.57-.99,.75-.41,.18-.84,.27-1.29,.27-.61,0-1.15-.13-1.63-.38-.48-.25-.86-.63-1.13-1.12-.28-.5-.41-1.09-.41-1.79v-4.54h1.58v4.3c0,.69,.17,1.22,.52,1.59,.35,.37,.82,.55,1.41,.55s1.07-.18,1.42-.55c.35-.37,.52-.9,.52-1.59v-4.3h1.6Z"/><path class="cls-1" d="M196.14,17.68c.32-.6,.76-1.06,1.32-1.39s1.17-.5,1.84-.5c.61,0,1.14,.12,1.59,.36,.45,.24,.81,.54,1.08,.89v-1.12h1.61v7.71h-1.61v-1.15c-.27,.36-.64,.67-1.11,.91-.47,.24-1,.36-1.6,.36-.66,0-1.27-.17-1.82-.51-.55-.34-.99-.82-1.31-1.43-.32-.61-.48-1.3-.48-2.08s.16-1.46,.48-2.06Zm5.5,.7c-.22-.39-.51-.69-.86-.9-.35-.21-.74-.31-1.15-.31s-.79,.1-1.15,.3c-.35,.2-.64,.5-.86,.88-.22,.39-.33,.85-.33,1.38s.11,1,.33,1.4,.51,.71,.87,.92,.74,.32,1.14,.32,.79-.1,1.15-.31c.35-.21,.64-.51,.86-.9s.33-.86,.33-1.39-.11-.99-.33-1.39Z"/><path class="cls-1" d="M207.28,13.27v10.36h-1.6V13.27h1.6Z"/></g></g></svg>