<?xml version="1.0" encoding="UTF-8"?><svg id="Layer_4" xmlns="http://www.w3.org/2000/svg" viewBox="0 0 300 270"><defs><style>.cls-1{fill:#fff;}.cls-2{fill:#222124;}.cls-3{fill:#424245;}.cls-4{fill:#353637;}.cls-5{opacity:.5;}.cls-6{fill:#5388be;fill-rule:evenodd;}</style></defs><g><rect class="cls-2" y="20.03" width="300" height="249.97" rx="5.62" ry="5.62"/><g><path class="cls-1" d="M51.15,73.21l-7.31,19.46h-3.7l-7.34-19.46h3.42l5.77,16.18,5.8-16.18h3.36Z"/><path class="cls-1" d="M54.59,74.61c-.39-.39-.59-.88-.59-1.46s.2-1.06,.59-1.46c.39-.39,.88-.59,1.46-.59s1.04,.2,1.43,.59c.39,.39,.59,.88,.59,1.46s-.2,1.06-.59,1.46c-.39,.39-.87,.59-1.43,.59s-1.06-.2-1.46-.59Zm3.02,2.63v15.43h-3.19v-15.43h3.19Z"/><path class="cls-1" d="M64.6,92.26c-.96-.44-1.72-1.04-2.28-1.79-.56-.76-.86-1.6-.9-2.53h3.3c.06,.65,.37,1.2,.94,1.64s1.28,.66,2.14,.66,1.59-.17,2.09-.52c.49-.34,.74-.79,.74-1.33,0-.58-.28-1.01-.83-1.29-.55-.28-1.42-.59-2.62-.92-1.16-.32-2.1-.62-2.83-.92s-1.36-.76-1.89-1.37c-.53-.62-.8-1.43-.8-2.44,0-.82,.24-1.57,.73-2.25,.48-.68,1.18-1.22,2.09-1.61,.9-.39,1.95-.59,3.12-.59,1.75,0,3.17,.44,4.24,1.33,1.07,.89,1.65,2.1,1.72,3.63h-3.19c-.06-.69-.34-1.24-.84-1.65-.5-.41-1.19-.62-2.04-.62s-1.48,.16-1.93,.48c-.45,.32-.67,.74-.67,1.26,0,.41,.15,.76,.45,1.04,.3,.28,.66,.5,1.09,.66,.43,.16,1.06,.36,1.9,.6,1.12,.3,2.04,.6,2.76,.91,.72,.31,1.34,.76,1.86,1.36,.52,.6,.79,1.39,.81,2.38,0,.88-.24,1.66-.73,2.35s-1.17,1.23-2.06,1.62-1.93,.59-3.12,.59-2.3-.22-3.26-.66Z"/><path class="cls-1" d="M91.61,77.24v15.43h-3.19v-1.82c-.5,.63-1.16,1.13-1.97,1.5-.81,.36-1.68,.55-2.59,.55-1.21,0-2.3-.25-3.26-.76-.96-.5-1.72-1.25-2.27-2.24-.55-.99-.83-2.18-.83-3.58v-9.07h3.16v8.6c0,1.38,.35,2.44,1.04,3.18,.69,.74,1.63,1.11,2.83,1.11s2.14-.37,2.84-1.11c.7-.74,1.05-1.8,1.05-3.18v-8.6h3.19Z"/><path class="cls-1" d="M96.31,80.77c.64-1.19,1.52-2.12,2.63-2.79,1.11-.66,2.34-.99,3.68-.99,1.21,0,2.27,.24,3.18,.71,.91,.48,1.63,1.07,2.17,1.78v-2.24h3.22v15.43h-3.22v-2.3c-.54,.73-1.28,1.33-2.21,1.82-.93,.48-2,.73-3.19,.73-1.33,0-2.54-.34-3.64-1.02-1.1-.68-1.97-1.63-2.62-2.86s-.97-2.61-.97-4.16,.32-2.92,.97-4.12Zm11,1.4c-.44-.78-1.01-1.38-1.72-1.79-.71-.41-1.48-.62-2.3-.62s-1.59,.2-2.3,.6-1.28,.99-1.72,1.76c-.44,.77-.66,1.69-.66,2.76s.22,2,.66,2.8c.44,.8,1.02,1.41,1.74,1.83,.72,.42,1.48,.63,2.28,.63s1.59-.21,2.3-.62c.71-.41,1.28-1.01,1.72-1.81,.44-.79,.66-1.72,.66-2.79s-.22-1.99-.66-2.77Z"/><path class="cls-1" d="M119.06,71.95v20.72h-3.19v-20.72h3.19Z"/><path class="cls-1" d="M146.25,86.15h-11.79c.09,1.23,.55,2.22,1.37,2.97,.82,.75,1.83,1.12,3.02,1.12,1.72,0,2.93-.72,3.64-2.16h3.44c-.47,1.42-1.31,2.58-2.53,3.49-1.22,.91-2.74,1.36-4.55,1.36-1.47,0-2.8-.33-3.96-.99-1.17-.66-2.08-1.6-2.74-2.8s-.99-2.6-.99-4.19,.32-2.98,.97-4.19,1.55-2.13,2.72-2.79c1.17-.65,2.51-.98,4.02-.98s2.75,.32,3.89,.95,2.03,1.53,2.66,2.67c.63,1.15,.95,2.47,.95,3.96,0,.58-.04,1.1-.11,1.57Zm-3.22-2.58c-.02-1.18-.44-2.12-1.26-2.83-.82-.71-1.84-1.06-3.05-1.06-1.1,0-2.04,.35-2.83,1.05-.78,.7-1.25,1.65-1.4,2.84h8.54Z"/><path class="cls-1" d="M150.15,80.77c.64-1.19,1.52-2.12,2.63-2.79,1.11-.66,2.35-.99,3.71-.99,1.01,0,2,.22,2.98,.66,.98,.44,1.76,1.02,2.34,1.75v-7.45h3.22v20.72h-3.22v-2.32c-.52,.75-1.25,1.36-2.17,1.85-.92,.48-1.98,.73-3.18,.73-1.34,0-2.57-.34-3.68-1.02-1.11-.68-1.99-1.63-2.63-2.86s-.97-2.61-.97-4.16,.32-2.92,.97-4.12Zm11,1.4c-.44-.78-1.01-1.38-1.72-1.79-.71-.41-1.48-.62-2.3-.62s-1.59,.2-2.3,.6-1.28,.99-1.72,1.76c-.44,.77-.66,1.69-.66,2.76s.22,2,.66,2.8c.44,.8,1.02,1.41,1.74,1.83,.72,.42,1.48,.63,2.28,.63s1.59-.21,2.3-.62c.71-.41,1.28-1.01,1.72-1.81,.44-.79,.66-1.72,.66-2.79s-.22-1.99-.66-2.77Z"/><path class="cls-1" d="M169.89,74.61c-.39-.39-.59-.88-.59-1.46s.2-1.06,.59-1.46c.39-.39,.88-.59,1.46-.59s1.04,.2,1.43,.59c.39,.39,.59,.88,.59,1.46s-.2,1.06-.59,1.46c-.39,.39-.87,.59-1.43,.59s-1.06-.2-1.46-.59Zm3.02,2.63v15.43h-3.19v-15.43h3.19Z"/><path class="cls-1" d="M181.25,79.85v8.54c0,.58,.13,.99,.41,1.25,.27,.25,.73,.38,1.39,.38h1.96v2.66h-2.52c-1.44,0-2.54-.34-3.3-1.01-.77-.67-1.15-1.76-1.15-3.28v-8.54h-1.82v-2.6h1.82v-3.84h3.22v3.84h3.75v2.6h-3.75Z"/><path class="cls-1" d="M190.86,91.93c-1.18-.66-2.1-1.6-2.77-2.8-.67-1.2-1.01-2.6-1.01-4.19s.35-2.96,1.04-4.17c.69-1.21,1.63-2.15,2.83-2.8,1.19-.65,2.53-.98,4-.98s2.81,.33,4,.98c1.19,.65,2.14,1.59,2.83,2.8,.69,1.21,1.04,2.6,1.04,4.17s-.35,2.96-1.06,4.17c-.71,1.21-1.68,2.15-2.9,2.81-1.22,.66-2.57,.99-4.05,.99s-2.77-.33-3.95-.99Zm6.26-2.37c.72-.39,1.3-.98,1.75-1.76,.45-.78,.67-1.74,.67-2.86s-.21-2.07-.64-2.84c-.43-.77-1-1.36-1.71-1.75-.71-.39-1.47-.59-2.3-.59s-1.58,.2-2.28,.59c-.7,.39-1.26,.98-1.67,1.75-.41,.78-.62,1.72-.62,2.84,0,1.66,.42,2.94,1.27,3.85,.85,.91,1.92,1.36,3.21,1.36,.82,0,1.59-.2,2.31-.59Z"/><path class="cls-1" d="M211.62,77.65c.77-.44,1.69-.66,2.76-.66v3.3h-.81c-1.25,0-2.2,.32-2.84,.95s-.97,1.74-.97,3.3v8.12h-3.19v-15.43h3.19v2.24c.47-.78,1.09-1.39,1.86-1.83Z"/><path class="cls-1" d="M34.55,106.92c-.39-.39-.59-.88-.59-1.46s.2-1.06,.59-1.46c.39-.39,.88-.59,1.46-.59s1.04,.2,1.43,.59c.39,.39,.59,.88,.59,1.46s-.2,1.06-.59,1.46c-.39,.39-.87,.59-1.43,.59s-1.06-.2-1.46-.59Zm3.02,2.63v15.43h-3.19v-15.43h3.19Z"/><path class="cls-1" d="M44.56,124.57c-.96-.44-1.72-1.04-2.28-1.79-.56-.76-.86-1.6-.9-2.53h3.3c.06,.65,.37,1.2,.94,1.64s1.28,.66,2.14,.66,1.59-.17,2.09-.52c.49-.34,.74-.79,.74-1.33,0-.58-.28-1.01-.83-1.29-.55-.28-1.42-.59-2.62-.92-1.16-.32-2.1-.62-2.83-.92s-1.36-.76-1.89-1.37c-.53-.62-.8-1.43-.8-2.44,0-.82,.24-1.57,.73-2.25,.48-.68,1.18-1.22,2.09-1.61,.9-.39,1.95-.59,3.12-.59,1.75,0,3.17,.44,4.24,1.33,1.07,.89,1.65,2.1,1.72,3.63h-3.19c-.06-.69-.34-1.24-.84-1.65-.5-.41-1.19-.62-2.04-.62s-1.48,.16-1.93,.48c-.45,.32-.67,.74-.67,1.26,0,.41,.15,.76,.45,1.04,.3,.28,.66,.5,1.09,.66,.43,.16,1.06,.36,1.9,.6,1.12,.3,2.04,.6,2.76,.91,.72,.31,1.34,.76,1.86,1.36,.52,.6,.79,1.39,.81,2.38,0,.88-.24,1.66-.73,2.35s-1.17,1.23-2.06,1.62-1.93,.59-3.12,.59-2.3-.22-3.26-.66Z"/><path class="cls-1" d="M77.26,110.05c.92,.5,1.65,1.25,2.18,2.24,.53,.99,.8,2.18,.8,3.58v9.1h-3.16v-8.62c0-1.38-.35-2.44-1.04-3.18-.69-.74-1.63-1.11-2.83-1.11s-2.14,.37-2.84,1.11c-.7,.74-1.05,1.8-1.05,3.18v8.62h-3.19v-20.72h3.19v7.08c.54-.65,1.23-1.16,2.06-1.51,.83-.35,1.74-.53,2.73-.53,1.18,0,2.23,.25,3.15,.76Z"/><path class="cls-1" d="M98.91,118.45h-11.79c.09,1.23,.55,2.22,1.37,2.97,.82,.75,1.83,1.12,3.02,1.12,1.72,0,2.93-.72,3.64-2.16h3.44c-.47,1.42-1.31,2.58-2.53,3.49-1.22,.91-2.74,1.36-4.55,1.36-1.47,0-2.8-.33-3.96-.99-1.17-.66-2.08-1.6-2.74-2.8s-.99-2.6-.99-4.19,.32-2.98,.97-4.19,1.55-2.13,2.72-2.79c1.17-.65,2.51-.98,4.02-.98s2.75,.32,3.89,.95,2.03,1.53,2.66,2.67c.63,1.15,.95,2.47,.95,3.96,0,.58-.04,1.1-.11,1.57Zm-3.22-2.58c-.02-1.18-.44-2.12-1.26-2.83-.82-.71-1.84-1.06-3.05-1.06-1.1,0-2.04,.35-2.83,1.05-.78,.7-1.25,1.65-1.4,2.84h8.54Z"/><path class="cls-1" d="M107.83,109.96c.77-.44,1.69-.66,2.76-.66v3.3h-.81c-1.25,0-2.2,.32-2.84,.95s-.97,1.74-.97,3.3v8.12h-3.19v-15.43h3.19v2.24c.47-.78,1.09-1.39,1.86-1.83Z"/><path class="cls-1" d="M127.87,118.45h-11.79c.09,1.23,.55,2.22,1.37,2.97,.82,.75,1.83,1.12,3.02,1.12,1.72,0,2.93-.72,3.64-2.16h3.44c-.47,1.42-1.31,2.58-2.53,3.49-1.22,.91-2.74,1.36-4.55,1.36-1.47,0-2.8-.33-3.96-.99-1.17-.66-2.08-1.6-2.74-2.8s-.99-2.6-.99-4.19,.32-2.98,.97-4.19,1.55-2.13,2.72-2.79c1.17-.65,2.51-.98,4.02-.98s2.75,.32,3.89,.95,2.03,1.53,2.66,2.67c.63,1.15,.95,2.47,.95,3.96,0,.58-.04,1.1-.11,1.57Zm-3.22-2.58c-.02-1.18-.44-2.12-1.26-2.83-.82-.71-1.84-1.06-3.05-1.06-1.1,0-2.04,.35-2.83,1.05-.78,.7-1.25,1.65-1.4,2.84h8.54Z"/></g><g><path class="cls-1" d="M34.3,157.62h2.93v.89h-4.02v-8.36h1.09v7.48Z"/><path class="cls-1" d="M39.86,158.19c-.5-.28-.89-.68-1.18-1.19-.28-.52-.43-1.11-.43-1.79s.15-1.27,.44-1.78,.69-.91,1.19-1.19c.5-.28,1.07-.41,1.69-.41s1.19,.14,1.69,.41c.5,.28,.9,.67,1.19,1.18s.44,1.11,.44,1.79-.15,1.28-.45,1.79c-.3,.52-.71,.91-1.22,1.19-.51,.28-1.08,.42-1.7,.42s-1.17-.14-1.67-.42Zm2.78-.82c.34-.18,.62-.46,.83-.83s.32-.82,.32-1.34-.1-.98-.31-1.34c-.21-.37-.48-.64-.82-.82-.34-.18-.7-.27-1.09-.27s-.77,.09-1.1,.27c-.33,.18-.6,.45-.8,.82-.2,.37-.3,.82-.3,1.34s.1,.99,.29,1.36c.2,.37,.46,.64,.79,.82s.69,.27,1.08,.27,.76-.09,1.1-.28Z"/><path class="cls-1" d="M48.71,152.12c.36-.21,.79-.31,1.3-.31v1.13h-.29c-1.22,0-1.84,.66-1.84,1.99v3.58h-1.09v-6.58h1.09v1.07c.19-.38,.47-.67,.82-.88Z"/><path class="cls-1" d="M57.52,155.63h-5.26c.04,.65,.26,1.15,.67,1.52,.4,.36,.89,.55,1.47,.55,.47,0,.87-.11,1.18-.33,.32-.22,.54-.51,.67-.88h1.18c-.18,.63-.53,1.15-1.06,1.54-.53,.4-1.18,.59-1.97,.59-.62,0-1.18-.14-1.67-.42-.49-.28-.88-.68-1.16-1.19-.28-.52-.42-1.11-.42-1.79s.14-1.28,.41-1.79,.65-.91,1.15-1.18c.49-.28,1.06-.41,1.7-.41s1.18,.14,1.66,.41c.48,.27,.85,.65,1.11,1.12,.26,.48,.39,1.01,.39,1.61,0,.21-.01,.43-.04,.66Zm-1.37-1.96c-.18-.3-.43-.53-.75-.68-.32-.16-.67-.23-1.05-.23-.55,0-1.02,.18-1.41,.53-.39,.35-.61,.84-.67,1.46h4.15c0-.42-.09-.77-.28-1.07Z"/><path class="cls-1" d="M68.72,152.13c.4,.21,.72,.53,.95,.95s.35,.94,.35,1.55v3.88h-1.08v-3.72c0-.66-.16-1.16-.49-1.51-.32-.35-.76-.52-1.31-.52s-1.02,.18-1.36,.55c-.34,.36-.5,.89-.5,1.58v3.62h-1.08v-3.72c0-.66-.16-1.16-.49-1.51-.32-.35-.76-.52-1.31-.52s-1.02,.18-1.36,.55-.5,.89-.5,1.58v3.62h-1.09v-6.58h1.09v.95c.22-.34,.51-.61,.87-.79,.36-.18,.77-.28,1.21-.28,.55,0,1.04,.12,1.46,.37,.42,.25,.74,.61,.95,1.09,.18-.46,.49-.82,.91-1.08,.42-.26,.9-.38,1.42-.38s.97,.11,1.37,.32Z"/><path class="cls-1" d="M76,150.65c-.14-.14-.22-.32-.22-.53s.07-.38,.22-.53,.32-.22,.53-.22,.37,.07,.51,.22c.14,.14,.21,.32,.21,.53s-.07,.38-.21,.53c-.14,.14-.31,.22-.51,.22s-.38-.07-.53-.22Zm1.06,1.28v6.58h-1.09v-6.58h1.09Z"/><path class="cls-1" d="M81.4,152.2c.43-.25,.93-.38,1.49-.38s1.11,.14,1.59,.42,.85,.67,1.12,1.18,.41,1.1,.41,1.77-.14,1.26-.41,1.78c-.27,.52-.65,.92-1.12,1.21s-1.01,.43-1.59,.43-1.05-.13-1.48-.38c-.43-.25-.75-.57-.98-.94v4.33h-1.09v-9.7h1.09v1.21c.22-.38,.54-.69,.97-.94Zm3.2,1.7c-.2-.37-.47-.65-.81-.84-.34-.19-.71-.29-1.12-.29s-.77,.1-1.11,.29c-.34,.2-.61,.48-.82,.85-.2,.37-.31,.8-.31,1.29s.1,.93,.31,1.3c.2,.37,.48,.66,.82,.85,.34,.2,.71,.29,1.11,.29s.78-.1,1.12-.29c.34-.2,.61-.48,.81-.85,.2-.37,.3-.81,.3-1.31s-.1-.93-.3-1.3Z"/><path class="cls-1" d="M88.82,158.36c-.4-.17-.72-.41-.95-.72-.23-.31-.36-.66-.38-1.06h1.13c.03,.33,.19,.6,.46,.8,.28,.21,.64,.31,1.09,.31,.42,0,.74-.09,.98-.28,.24-.18,.36-.42,.36-.7s-.13-.5-.38-.64c-.26-.14-.65-.28-1.19-.41-.49-.13-.89-.26-1.19-.39-.31-.13-.57-.33-.79-.59-.22-.26-.33-.6-.33-1.03,0-.34,.1-.64,.3-.92,.2-.28,.48-.5,.85-.67,.37-.16,.79-.25,1.26-.25,.73,0,1.32,.18,1.76,.55,.45,.37,.69,.87,.72,1.51h-1.09c-.02-.34-.16-.62-.41-.83s-.59-.31-1.01-.31c-.39,0-.7,.08-.94,.25-.23,.17-.35,.39-.35,.66,0,.22,.07,.39,.21,.53,.14,.14,.32,.25,.53,.34s.51,.18,.88,.28c.47,.13,.86,.25,1.15,.38s.55,.31,.76,.56,.32,.57,.33,.97c0,.36-.1,.68-.3,.97-.2,.29-.48,.51-.85,.68-.36,.16-.78,.25-1.25,.25-.5,0-.96-.09-1.36-.26Z"/><path class="cls-1" d="M100.34,151.93v6.58h-1.09v-.97c-.21,.34-.5,.6-.87,.79-.37,.19-.78,.28-1.23,.28-.51,0-.97-.11-1.38-.32-.41-.21-.73-.53-.97-.95-.24-.42-.35-.94-.35-1.55v-3.85h1.08v3.71c0,.65,.16,1.15,.49,1.49s.78,.52,1.34,.52,1.04-.18,1.38-.54c.34-.36,.5-.88,.5-1.57v-3.61h1.09Z"/><path class="cls-1" d="M111.88,152.13c.4,.21,.72,.53,.95,.95s.35,.94,.35,1.55v3.88h-1.08v-3.72c0-.66-.16-1.16-.49-1.51-.32-.35-.76-.52-1.31-.52s-1.02,.18-1.36,.55c-.34,.36-.5,.89-.5,1.58v3.62h-1.08v-3.72c0-.66-.16-1.16-.49-1.51-.32-.35-.76-.52-1.31-.52s-1.02,.18-1.36,.55-.5,.89-.5,1.58v3.62h-1.09v-6.58h1.09v.95c.22-.34,.51-.61,.87-.79,.36-.18,.77-.28,1.21-.28,.55,0,1.04,.12,1.46,.37,.42,.25,.74,.61,.95,1.09,.18-.46,.49-.82,.91-1.08,.42-.26,.9-.38,1.42-.38s.97,.11,1.37,.32Z"/><path class="cls-1" d="M119.13,153.42c.27-.51,.65-.9,1.12-1.18s1.01-.42,1.6-.42c.51,0,.99,.12,1.43,.35,.44,.24,.78,.55,1.01,.93v-3.48h1.1v8.88h-1.1v-1.24c-.22,.39-.54,.71-.96,.97-.42,.25-.92,.38-1.49,.38s-1.11-.14-1.59-.43-.85-.69-1.12-1.21c-.27-.52-.41-1.11-.41-1.78s.14-1.26,.41-1.77Zm4.86,.49c-.2-.37-.47-.65-.81-.85-.34-.2-.71-.29-1.12-.29s-.78,.1-1.12,.29c-.34,.19-.6,.47-.8,.84-.2,.37-.3,.8-.3,1.3s.1,.94,.3,1.31c.2,.37,.47,.66,.8,.85,.34,.2,.71,.29,1.12,.29s.78-.1,1.12-.29c.34-.2,.61-.48,.81-.85,.2-.37,.3-.81,.3-1.3s-.1-.93-.3-1.3Z"/><path class="cls-1" d="M128.89,158.19c-.5-.28-.89-.68-1.18-1.19-.28-.52-.43-1.11-.43-1.79s.15-1.27,.44-1.78,.69-.91,1.19-1.19c.5-.28,1.07-.41,1.69-.41s1.19,.14,1.69,.41c.5,.28,.9,.67,1.19,1.18s.44,1.11,.44,1.79-.15,1.28-.45,1.79c-.3,.52-.71,.91-1.22,1.19-.51,.28-1.08,.42-1.7,.42s-1.17-.14-1.67-.42Zm2.78-.82c.34-.18,.62-.46,.83-.83s.32-.82,.32-1.34-.1-.98-.31-1.34c-.21-.37-.48-.64-.82-.82-.34-.18-.7-.27-1.09-.27s-.77,.09-1.1,.27c-.33,.18-.6,.45-.8,.82-.2,.37-.3,.82-.3,1.34s.1,.99,.29,1.36c.2,.37,.46,.64,.79,.82s.69,.27,1.08,.27,.76-.09,1.1-.28Z"/><path class="cls-1" d="M136.93,149.63v8.88h-1.09v-8.88h1.09Z"/><path class="cls-1" d="M140.45,158.19c-.5-.28-.89-.68-1.18-1.19-.28-.52-.43-1.11-.43-1.79s.15-1.27,.44-1.78,.69-.91,1.19-1.19c.5-.28,1.07-.41,1.69-.41s1.19,.14,1.69,.41c.5,.28,.9,.67,1.19,1.18s.44,1.11,.44,1.79-.15,1.28-.45,1.79c-.3,.52-.71,.91-1.22,1.19-.51,.28-1.08,.42-1.7,.42s-1.17-.14-1.67-.42Zm2.78-.82c.34-.18,.62-.46,.83-.83s.32-.82,.32-1.34-.1-.98-.31-1.34c-.21-.37-.48-.64-.82-.82-.34-.18-.7-.27-1.09-.27s-.77,.09-1.1,.27c-.33,.18-.6,.45-.8,.82-.2,.37-.3,.82-.3,1.34s.1,.99,.29,1.36c.2,.37,.46,.64,.79,.82s.69,.27,1.08,.27,.76-.09,1.1-.28Z"/><path class="cls-1" d="M149.29,152.12c.36-.21,.79-.31,1.3-.31v1.13h-.29c-1.22,0-1.84,.66-1.84,1.99v3.58h-1.09v-6.58h1.09v1.07c.19-.38,.47-.67,.82-.88Z"/><path class="cls-1" d="M156.99,158.36c-.4-.17-.72-.41-.95-.72-.23-.31-.36-.66-.38-1.06h1.13c.03,.33,.19,.6,.46,.8,.28,.21,.64,.31,1.09,.31,.42,0,.74-.09,.98-.28,.24-.18,.36-.42,.36-.7s-.13-.5-.38-.64c-.26-.14-.65-.28-1.19-.41-.49-.13-.89-.26-1.19-.39-.31-.13-.57-.33-.79-.59-.22-.26-.33-.6-.33-1.03,0-.34,.1-.64,.3-.92,.2-.28,.48-.5,.85-.67,.37-.16,.79-.25,1.26-.25,.73,0,1.32,.18,1.76,.55,.45,.37,.69,.87,.72,1.51h-1.09c-.02-.34-.16-.62-.41-.83s-.59-.31-1.01-.31c-.39,0-.7,.08-.94,.25-.23,.17-.35,.39-.35,.66,0,.22,.07,.39,.21,.53,.14,.14,.32,.25,.53,.34s.51,.18,.88,.28c.47,.13,.86,.25,1.15,.38s.55,.31,.76,.56,.32,.57,.33,.97c0,.36-.1,.68-.3,.97-.2,.29-.48,.51-.85,.68-.36,.16-.78,.25-1.25,.25-.5,0-.96-.09-1.36-.26Z"/><path class="cls-1" d="M162.73,150.65c-.14-.14-.22-.32-.22-.53s.07-.38,.22-.53,.32-.22,.53-.22,.37,.07,.51,.22c.14,.14,.21,.32,.21,.53s-.07,.38-.21,.53c-.14,.14-.31,.22-.51,.22s-.38-.07-.53-.22Zm1.06,1.28v6.58h-1.09v-6.58h1.09Z"/><path class="cls-1" d="M167.35,152.83v3.88c0,.32,.07,.55,.2,.68,.14,.13,.37,.2,.71,.2h.8v.92h-.98c-.61,0-1.06-.14-1.37-.42-.3-.28-.46-.74-.46-1.38v-3.88h-.85v-.9h.85v-1.66h1.09v1.66h1.72v.9h-1.72Z"/><path class="cls-1" d="M174.56,153.42c.27-.51,.65-.9,1.12-1.18s1.01-.42,1.59-.42,1.08,.12,1.5,.37c.42,.25,.74,.56,.95,.94v-1.2h1.1v6.58h-1.1v-1.22c-.22,.38-.54,.7-.97,.95-.43,.25-.93,.38-1.49,.38s-1.11-.14-1.58-.43c-.47-.29-.84-.69-1.12-1.21-.27-.52-.41-1.11-.41-1.78s.14-1.26,.41-1.77Zm4.86,.49c-.2-.37-.47-.65-.81-.85-.34-.2-.71-.29-1.12-.29s-.78,.1-1.12,.29c-.34,.19-.6,.47-.8,.84-.2,.37-.3,.8-.3,1.3s.1,.94,.3,1.31c.2,.37,.47,.66,.8,.85,.34,.2,.71,.29,1.12,.29s.78-.1,1.12-.29c.34-.2,.61-.48,.81-.85,.2-.37,.3-.81,.3-1.3s-.1-.93-.3-1.3Z"/><path class="cls-1" d="M192.37,152.13c.4,.21,.72,.53,.95,.95s.35,.94,.35,1.55v3.88h-1.08v-3.72c0-.66-.16-1.16-.49-1.51-.32-.35-.76-.52-1.31-.52s-1.02,.18-1.36,.55c-.34,.36-.5,.89-.5,1.58v3.62h-1.08v-3.72c0-.66-.16-1.16-.49-1.51-.32-.35-.76-.52-1.31-.52s-1.02,.18-1.36,.55-.5,.89-.5,1.58v3.62h-1.09v-6.58h1.09v.95c.22-.34,.51-.61,.87-.79,.36-.18,.77-.28,1.21-.28,.55,0,1.04,.12,1.46,.37,.42,.25,.74,.61,.95,1.09,.18-.46,.49-.82,.91-1.08,.42-.26,.9-.38,1.42-.38s.97,.11,1.37,.32Z"/><path class="cls-1" d="M201.86,155.63h-5.26c.04,.65,.26,1.15,.67,1.52,.4,.36,.89,.55,1.47,.55,.47,0,.87-.11,1.18-.33,.32-.22,.54-.51,.67-.88h1.18c-.18,.63-.53,1.15-1.06,1.54-.53,.4-1.18,.59-1.97,.59-.62,0-1.18-.14-1.67-.42-.49-.28-.88-.68-1.16-1.19-.28-.52-.42-1.11-.42-1.79s.14-1.28,.41-1.79,.65-.91,1.15-1.18c.49-.28,1.06-.41,1.7-.41s1.18,.14,1.66,.41c.48,.27,.85,.65,1.11,1.12,.26,.48,.39,1.01,.39,1.61,0,.21-.01,.43-.04,.66Zm-1.37-1.96c-.18-.3-.43-.53-.75-.68-.32-.16-.67-.23-1.05-.23-.55,0-1.02,.18-1.41,.53-.39,.35-.61,.84-.67,1.46h4.15c0-.42-.09-.77-.28-1.07Z"/><path class="cls-1" d="M204.98,152.83v3.88c0,.32,.07,.55,.2,.68,.14,.13,.37,.2,.71,.2h.8v.92h-.98c-.61,0-1.06-.14-1.37-.42-.3-.28-.46-.74-.46-1.38v-3.88h-.85v-.9h.85v-1.66h1.09v1.66h1.72v.9h-1.72Z"/><path class="cls-1" d="M209.74,156.99l-1.34,3.23h-.73l.88-3.23h1.2Z"/><path class="cls-1" d="M33.2,176.3c.27-.51,.65-.9,1.13-1.18,.48-.28,1.04-.42,1.66-.42,.81,0,1.47,.2,2,.59,.52,.39,.87,.94,1.04,1.63h-1.18c-.11-.4-.33-.72-.65-.95-.32-.23-.73-.35-1.21-.35-.62,0-1.13,.21-1.51,.64-.38,.43-.58,1.03-.58,1.82s.19,1.4,.58,1.84c.38,.43,.89,.65,1.51,.65,.48,0,.88-.11,1.2-.34,.32-.22,.54-.54,.66-.96h1.18c-.18,.67-.53,1.21-1.06,1.61-.53,.4-1.19,.61-1.98,.61-.62,0-1.18-.14-1.66-.42-.48-.28-.86-.68-1.13-1.19s-.41-1.11-.41-1.8,.14-1.27,.41-1.78Z"/><path class="cls-1" d="M42.1,181.07c-.5-.28-.89-.68-1.18-1.19-.28-.52-.43-1.11-.43-1.79s.15-1.27,.44-1.78,.69-.91,1.19-1.19c.5-.28,1.07-.41,1.69-.41s1.19,.14,1.69,.41c.5,.28,.9,.67,1.19,1.18s.44,1.11,.44,1.79-.15,1.28-.45,1.79c-.3,.52-.71,.91-1.22,1.19-.51,.28-1.08,.42-1.7,.42s-1.17-.14-1.67-.42Zm2.78-.82c.34-.18,.62-.46,.83-.83s.32-.82,.32-1.34-.1-.98-.31-1.34c-.21-.37-.48-.64-.82-.82-.34-.18-.7-.27-1.09-.27s-.77,.09-1.1,.27c-.33,.18-.6,.45-.8,.82-.2,.37-.3,.82-.3,1.34s.1,.99,.29,1.36c.2,.37,.46,.64,.79,.82s.69,.27,1.08,.27,.76-.09,1.1-.28Z"/><path class="cls-1" d="M54.18,175.41c.5,.48,.74,1.18,.74,2.09v3.88h-1.08v-3.72c0-.66-.16-1.16-.49-1.51-.33-.35-.78-.52-1.34-.52s-1.03,.18-1.37,.54-.51,.88-.51,1.57v3.64h-1.09v-6.58h1.09v.94c.22-.34,.51-.6,.88-.78s.78-.28,1.23-.28c.8,0,1.45,.24,1.94,.73Z"/><path class="cls-1" d="M58.1,181.23c-.4-.17-.72-.41-.95-.72-.23-.31-.36-.66-.38-1.06h1.13c.03,.33,.19,.6,.46,.8,.28,.21,.64,.31,1.09,.31,.42,0,.74-.09,.98-.28,.24-.18,.36-.42,.36-.7s-.13-.5-.38-.64c-.26-.14-.65-.28-1.19-.41-.49-.13-.89-.26-1.19-.39-.31-.13-.57-.33-.79-.59-.22-.26-.33-.6-.33-1.03,0-.34,.1-.64,.3-.92,.2-.28,.48-.5,.85-.67,.37-.16,.79-.25,1.26-.25,.73,0,1.32,.18,1.76,.55,.45,.37,.69,.87,.72,1.51h-1.09c-.02-.34-.16-.62-.41-.83s-.59-.31-1.01-.31c-.39,0-.7,.08-.94,.25-.23,.17-.35,.39-.35,.66,0,.22,.07,.39,.21,.53,.14,.14,.32,.25,.53,.34s.51,.18,.88,.28c.47,.13,.86,.25,1.15,.38s.55,.31,.76,.56,.32,.57,.33,.97c0,.36-.1,.68-.3,.97-.2,.29-.48,.51-.85,.68-.36,.16-.78,.25-1.25,.25-.5,0-.96-.09-1.36-.26Z"/><path class="cls-1" d="M69.76,178.5h-5.26c.04,.65,.26,1.15,.67,1.52,.4,.36,.89,.55,1.47,.55,.47,0,.87-.11,1.18-.33,.32-.22,.54-.51,.67-.88h1.18c-.18,.63-.53,1.15-1.06,1.54-.53,.4-1.18,.59-1.97,.59-.62,0-1.18-.14-1.67-.42-.49-.28-.88-.68-1.16-1.19-.28-.52-.42-1.11-.42-1.79s.14-1.28,.41-1.79,.65-.91,1.15-1.18c.49-.28,1.06-.41,1.7-.41s1.18,.14,1.66,.41c.48,.27,.85,.65,1.11,1.12,.26,.48,.39,1.01,.39,1.61,0,.21-.01,.43-.04,.66Zm-1.37-1.96c-.18-.3-.43-.53-.75-.68-.32-.16-.67-.23-1.05-.23-.55,0-1.02,.18-1.41,.53-.39,.35-.61,.84-.67,1.46h4.15c0-.42-.09-.77-.28-1.07Z"/><path class="cls-1" d="M71.72,176.3c.27-.51,.65-.9,1.13-1.18,.48-.28,1.04-.42,1.66-.42,.81,0,1.47,.2,2,.59,.52,.39,.87,.94,1.04,1.63h-1.18c-.11-.4-.33-.72-.65-.95-.32-.23-.73-.35-1.21-.35-.62,0-1.13,.21-1.51,.64-.38,.43-.58,1.03-.58,1.82s.19,1.4,.58,1.84c.38,.43,.89,.65,1.51,.65,.48,0,.88-.11,1.2-.34,.32-.22,.54-.54,.66-.96h1.18c-.18,.67-.53,1.21-1.06,1.61-.53,.4-1.19,.61-1.98,.61-.62,0-1.18-.14-1.66-.42-.48-.28-.86-.68-1.13-1.19s-.41-1.11-.41-1.8,.14-1.27,.41-1.78Z"/><path class="cls-1" d="M80.68,175.71v3.88c0,.32,.07,.55,.2,.68,.14,.13,.37,.2,.71,.2h.8v.92h-.98c-.61,0-1.06-.14-1.37-.42-.3-.28-.46-.74-.46-1.38v-3.88h-.85v-.9h.85v-1.66h1.09v1.66h1.72v.9h-1.72Z"/><path class="cls-1" d="M89.89,178.5h-5.26c.04,.65,.26,1.15,.67,1.52,.4,.36,.89,.55,1.47,.55,.47,0,.87-.11,1.18-.33,.32-.22,.54-.51,.67-.88h1.18c-.18,.63-.53,1.15-1.06,1.54-.53,.4-1.18,.59-1.97,.59-.62,0-1.18-.14-1.67-.42-.49-.28-.88-.68-1.16-1.19-.28-.52-.42-1.11-.42-1.79s.14-1.28,.41-1.79,.65-.91,1.15-1.18c.49-.28,1.06-.41,1.7-.41s1.18,.14,1.66,.41c.48,.27,.85,.65,1.11,1.12,.26,.48,.39,1.01,.39,1.61,0,.21-.01,.43-.04,.66Zm-1.37-1.96c-.18-.3-.43-.53-.75-.68-.32-.16-.67-.23-1.05-.23-.55,0-1.02,.18-1.41,.53-.39,.35-.61,.84-.67,1.46h4.15c0-.42-.09-.77-.28-1.07Z"/><path class="cls-1" d="M93.01,175.71v3.88c0,.32,.07,.55,.2,.68,.14,.13,.37,.2,.71,.2h.8v.92h-.98c-.61,0-1.06-.14-1.37-.42-.3-.28-.46-.74-.46-1.38v-3.88h-.85v-.9h.85v-1.66h1.09v1.66h1.72v.9h-1.72Z"/><path class="cls-1" d="M102.25,174.8v6.58h-1.09v-.97c-.21,.34-.5,.6-.87,.79-.37,.19-.78,.28-1.23,.28-.51,0-.97-.11-1.38-.32-.41-.21-.73-.53-.97-.95-.24-.42-.35-.94-.35-1.55v-3.85h1.08v3.71c0,.65,.16,1.15,.49,1.49s.78,.52,1.34,.52,1.04-.18,1.38-.54c.34-.36,.5-.88,.5-1.57v-3.61h1.09Z"/><path class="cls-1" d="M106.43,175c.36-.21,.79-.31,1.3-.31v1.13h-.29c-1.22,0-1.84,.66-1.84,1.99v3.58h-1.09v-6.58h1.09v1.07c.19-.38,.47-.67,.82-.88Z"/><path class="cls-1" d="M113.15,176.3c.27-.51,.65-.9,1.12-1.18s1.01-.42,1.59-.42,1.08,.12,1.5,.37c.42,.25,.74,.56,.95,.94v-1.2h1.1v6.58h-1.1v-1.22c-.22,.38-.54,.7-.97,.95-.43,.25-.93,.38-1.49,.38s-1.11-.14-1.58-.43c-.47-.29-.84-.69-1.12-1.21-.27-.52-.41-1.11-.41-1.78s.14-1.26,.41-1.77Zm4.86,.49c-.2-.37-.47-.65-.81-.85-.34-.2-.71-.29-1.12-.29s-.78,.1-1.12,.29c-.34,.19-.6,.47-.8,.84-.2,.37-.3,.8-.3,1.3s.1,.94,.3,1.31c.2,.37,.47,.66,.8,.85,.34,.2,.71,.29,1.12,.29s.78-.1,1.12-.29c.34-.2,.61-.48,.81-.85,.2-.37,.3-.81,.3-1.3s-.1-.93-.3-1.3Z"/><path class="cls-1" d="M121.72,176.3c.27-.51,.65-.9,1.12-1.18s1.01-.42,1.6-.42c.51,0,.99,.12,1.43,.35,.44,.24,.78,.55,1.01,.93v-3.48h1.1v8.88h-1.1v-1.24c-.22,.39-.54,.71-.96,.97-.42,.25-.92,.38-1.49,.38s-1.11-.14-1.59-.43-.85-.69-1.12-1.21c-.27-.52-.41-1.11-.41-1.78s.14-1.26,.41-1.77Zm4.86,.49c-.2-.37-.47-.65-.81-.85-.34-.2-.71-.29-1.12-.29s-.78,.1-1.12,.29c-.34,.19-.6,.47-.8,.84-.2,.37-.3,.8-.3,1.3s.1,.94,.3,1.31c.2,.37,.47,.66,.8,.85,.34,.2,.71,.29,1.12,.29s.78-.1,1.12-.29c.34-.2,.61-.48,.81-.85,.2-.37,.3-.81,.3-1.3s-.1-.93-.3-1.3Z"/><path class="cls-1" d="M130.29,173.52c-.14-.14-.22-.32-.22-.53s.07-.38,.22-.53,.32-.22,.53-.22,.37,.07,.51,.22c.14,.14,.21,.32,.21,.53s-.07,.38-.21,.53c-.14,.14-.31,.22-.51,.22s-.38-.07-.53-.22Zm1.06,1.28v6.58h-1.09v-6.58h1.09Z"/><path class="cls-1" d="M135.69,175.08c.43-.25,.93-.38,1.49-.38s1.11,.14,1.59,.42,.85,.67,1.12,1.18,.41,1.1,.41,1.77-.14,1.26-.41,1.78c-.27,.52-.65,.92-1.12,1.21s-1.01,.43-1.59,.43-1.05-.13-1.48-.38c-.43-.25-.75-.57-.98-.94v4.33h-1.09v-9.7h1.09v1.21c.22-.38,.54-.69,.97-.94Zm3.2,1.7c-.2-.37-.47-.65-.81-.84-.34-.19-.71-.29-1.12-.29s-.77,.1-1.11,.29c-.34,.2-.61,.48-.82,.85-.2,.37-.31,.8-.31,1.29s.1,.93,.31,1.3c.2,.37,.48,.66,.82,.85,.34,.2,.71,.29,1.11,.29s.78-.1,1.12-.29c.34-.2,.61-.48,.81-.85,.2-.37,.3-.81,.3-1.31s-.1-.93-.3-1.3Z"/><path class="cls-1" d="M142.21,173.52c-.14-.14-.22-.32-.22-.53s.07-.38,.22-.53,.32-.22,.53-.22,.37,.07,.51,.22c.14,.14,.21,.32,.21,.53s-.07,.38-.21,.53c-.14,.14-.31,.22-.51,.22s-.38-.07-.53-.22Zm1.06,1.28v6.58h-1.09v-6.58h1.09Z"/><path class="cls-1" d="M146.5,181.23c-.4-.17-.72-.41-.95-.72-.23-.31-.36-.66-.38-1.06h1.13c.03,.33,.19,.6,.46,.8,.28,.21,.64,.31,1.09,.31,.42,0,.74-.09,.98-.28,.24-.18,.36-.42,.36-.7s-.13-.5-.38-.64c-.26-.14-.65-.28-1.19-.41-.49-.13-.89-.26-1.19-.39-.31-.13-.57-.33-.79-.59-.22-.26-.33-.6-.33-1.03,0-.34,.1-.64,.3-.92,.2-.28,.48-.5,.85-.67,.37-.16,.79-.25,1.26-.25,.73,0,1.32,.18,1.76,.55,.45,.37,.69,.87,.72,1.51h-1.09c-.02-.34-.16-.62-.41-.83s-.59-.31-1.01-.31c-.39,0-.7,.08-.94,.25-.23,.17-.35,.39-.35,.66,0,.22,.07,.39,.21,.53,.14,.14,.32,.25,.53,.34s.51,.18,.88,.28c.47,.13,.86,.25,1.15,.38s.55,.31,.76,.56,.32,.57,.33,.97c0,.36-.1,.68-.3,.97-.2,.29-.48,.51-.85,.68-.36,.16-.78,.25-1.25,.25-.5,0-.96-.09-1.36-.26Z"/><path class="cls-1" d="M152.23,173.52c-.14-.14-.22-.32-.22-.53s.07-.38,.22-.53,.32-.22,.53-.22,.37,.07,.51,.22c.14,.14,.21,.32,.21,.53s-.07,.38-.21,.53c-.14,.14-.31,.22-.51,.22s-.38-.07-.53-.22Zm1.06,1.28v6.58h-1.09v-6.58h1.09Z"/><path class="cls-1" d="M155.57,176.3c.27-.51,.65-.9,1.13-1.18,.48-.28,1.04-.42,1.66-.42,.81,0,1.47,.2,2,.59,.52,.39,.87,.94,1.04,1.63h-1.18c-.11-.4-.33-.72-.65-.95-.32-.23-.73-.35-1.21-.35-.62,0-1.13,.21-1.51,.64-.38,.43-.58,1.03-.58,1.82s.19,1.4,.58,1.84c.38,.43,.89,.65,1.51,.65,.48,0,.88-.11,1.2-.34,.32-.22,.54-.54,.66-.96h1.18c-.18,.67-.53,1.21-1.06,1.61-.53,.4-1.19,.61-1.98,.61-.62,0-1.18-.14-1.66-.42-.48-.28-.86-.68-1.13-1.19s-.41-1.11-.41-1.8,.14-1.27,.41-1.78Z"/><path class="cls-1" d="M163.28,173.52c-.14-.14-.22-.32-.22-.53s.07-.38,.22-.53,.32-.22,.53-.22,.37,.07,.51,.22c.14,.14,.21,.32,.21,.53s-.07,.38-.21,.53c-.14,.14-.31,.22-.51,.22s-.38-.07-.53-.22Zm1.06,1.28v6.58h-1.09v-6.58h1.09Z"/><path class="cls-1" d="M171.77,175.41c.5,.48,.74,1.18,.74,2.09v3.88h-1.08v-3.72c0-.66-.16-1.16-.49-1.51-.33-.35-.78-.52-1.34-.52s-1.03,.18-1.37,.54-.51,.88-.51,1.57v3.64h-1.09v-6.58h1.09v.94c.22-.34,.51-.6,.88-.78s.78-.28,1.23-.28c.8,0,1.45,.24,1.94,.73Z"/><path class="cls-1" d="M178.94,175.07c.43,.25,.75,.56,.95,.94v-1.2h1.1v6.72c0,.6-.13,1.13-.38,1.6-.26,.47-.62,.83-1.1,1.1-.48,.26-1.03,.4-1.66,.4-.86,0-1.58-.2-2.16-.61-.58-.41-.92-.96-1.02-1.67h1.08c.12,.4,.37,.72,.74,.97s.83,.37,1.36,.37c.6,0,1.09-.19,1.47-.56,.38-.38,.57-.9,.57-1.58v-1.38c-.22,.38-.54,.7-.96,.96-.42,.26-.92,.38-1.49,.38s-1.11-.14-1.59-.43-.85-.69-1.12-1.21c-.27-.52-.41-1.11-.41-1.78s.14-1.26,.41-1.77,.65-.9,1.12-1.18,1.01-.42,1.59-.42,1.07,.12,1.49,.37Zm.65,1.72c-.2-.37-.47-.65-.81-.85-.34-.2-.71-.29-1.12-.29s-.78,.1-1.12,.29c-.34,.19-.6,.47-.8,.84-.2,.37-.3,.8-.3,1.3s.1,.94,.3,1.31c.2,.37,.47,.66,.8,.85,.34,.2,.71,.29,1.12,.29s.78-.1,1.12-.29c.34-.2,.61-.48,.81-.85,.2-.37,.3-.81,.3-1.3s-.1-.93-.3-1.3Z"/><path class="cls-1" d="M192.98,178.5h-5.26c.04,.65,.26,1.15,.67,1.52,.4,.36,.89,.55,1.47,.55,.47,0,.87-.11,1.18-.33,.32-.22,.54-.51,.67-.88h1.18c-.18,.63-.53,1.15-1.06,1.54-.53,.4-1.18,.59-1.97,.59-.62,0-1.18-.14-1.67-.42-.49-.28-.88-.68-1.16-1.19-.28-.52-.42-1.11-.42-1.79s.14-1.28,.41-1.79,.65-.91,1.15-1.18c.49-.28,1.06-.41,1.7-.41s1.18,.14,1.66,.41c.48,.27,.85,.65,1.11,1.12,.26,.48,.39,1.01,.39,1.61,0,.21-.01,.43-.04,.66Zm-1.37-1.96c-.18-.3-.43-.53-.75-.68-.32-.16-.67-.23-1.05-.23-.55,0-1.02,.18-1.41,.53-.39,.35-.61,.84-.67,1.46h4.15c0-.42-.09-.77-.28-1.07Z"/><path class="cls-1" d="M196.01,172.5v8.88h-1.09v-8.88h1.09Z"/><path class="cls-1" d="M198.33,173.52c-.14-.14-.22-.32-.22-.53s.07-.38,.22-.53,.32-.22,.53-.22,.37,.07,.51,.22c.14,.14,.21,.32,.21,.53s-.07,.38-.21,.53c-.14,.14-.31,.22-.51,.22s-.38-.07-.53-.22Zm1.06,1.28v6.58h-1.09v-6.58h1.09Z"/><path class="cls-1" d="M202.96,175.71v3.88c0,.32,.07,.55,.2,.68,.14,.13,.37,.2,.71,.2h.8v.92h-.98c-.61,0-1.06-.14-1.37-.42-.3-.28-.46-.74-.46-1.38v-3.88h-.85v-.9h.85v-1.66h1.09v1.66h1.72v.9h-1.72Z"/><path class="cls-1" d="M207.73,179.87l-1.34,3.23h-.73l.88-3.23h1.2Z"/><path class="cls-1" d="M214.11,181.23c-.4-.17-.72-.41-.95-.72-.23-.31-.36-.66-.38-1.06h1.13c.03,.33,.19,.6,.46,.8,.28,.21,.64,.31,1.09,.31,.42,0,.74-.09,.98-.28,.24-.18,.36-.42,.36-.7s-.13-.5-.38-.64c-.26-.14-.65-.28-1.19-.41-.49-.13-.89-.26-1.19-.39-.31-.13-.57-.33-.79-.59-.22-.26-.33-.6-.33-1.03,0-.34,.1-.64,.3-.92,.2-.28,.48-.5,.85-.67,.37-.16,.79-.25,1.26-.25,.73,0,1.32,.18,1.76,.55,.45,.37,.69,.87,.72,1.51h-1.09c-.02-.34-.16-.62-.41-.83s-.59-.31-1.01-.31c-.39,0-.7,.08-.94,.25-.23,.17-.35,.39-.35,.66,0,.22,.07,.39,.21,.53,.14,.14,.32,.25,.53,.34s.51,.18,.88,.28c.47,.13,.86,.25,1.15,.38s.55,.31,.76,.56,.32,.57,.33,.97c0,.36-.1,.68-.3,.97-.2,.29-.48,.51-.85,.68-.36,.16-.78,.25-1.25,.25-.5,0-.96-.09-1.36-.26Z"/><path class="cls-1" d="M225.77,178.5h-5.26c.04,.65,.26,1.15,.67,1.52,.4,.36,.89,.55,1.47,.55,.47,0,.87-.11,1.18-.33,.32-.22,.54-.51,.67-.88h1.18c-.18,.63-.53,1.15-1.06,1.54-.53,.4-1.18,.59-1.97,.59-.62,0-1.18-.14-1.67-.42-.49-.28-.88-.68-1.16-1.19-.28-.52-.42-1.11-.42-1.79s.14-1.28,.41-1.79,.65-.91,1.15-1.18c.49-.28,1.06-.41,1.7-.41s1.18,.14,1.66,.41c.48,.27,.85,.65,1.11,1.12,.26,.48,.39,1.01,.39,1.61,0,.21-.01,.43-.04,.66Zm-1.37-1.96c-.18-.3-.43-.53-.75-.68-.32-.16-.67-.23-1.05-.23-.55,0-1.02,.18-1.41,.53-.39,.35-.61,.84-.67,1.46h4.15c0-.42-.09-.77-.28-1.07Z"/><path class="cls-1" d="M227.73,176.3c.27-.51,.65-.9,1.12-1.18s1.01-.42,1.6-.42c.51,0,.99,.12,1.43,.35,.44,.24,.78,.55,1.01,.93v-3.48h1.1v8.88h-1.1v-1.24c-.22,.39-.54,.71-.96,.97-.42,.25-.92,.38-1.49,.38s-1.11-.14-1.59-.43-.85-.69-1.12-1.21c-.27-.52-.41-1.11-.41-1.78s.14-1.26,.41-1.77Zm4.86,.49c-.2-.37-.47-.65-.81-.85-.34-.2-.71-.29-1.12-.29s-.78,.1-1.12,.29c-.34,.19-.6,.47-.8,.84-.2,.37-.3,.8-.3,1.3s.1,.94,.3,1.31c.2,.37,.47,.66,.8,.85,.34,.2,.71,.29,1.12,.29s.78-.1,1.12-.29c.34-.2,.61-.48,.81-.85,.2-.37,.3-.81,.3-1.3s-.1-.93-.3-1.3Z"/><path class="cls-1" d="M240.01,176.3c.27-.51,.65-.9,1.12-1.18s1.01-.42,1.6-.42c.51,0,.99,.12,1.43,.35,.44,.24,.78,.55,1.01,.93v-3.48h1.1v8.88h-1.1v-1.24c-.22,.39-.54,.71-.96,.97-.42,.25-.92,.38-1.49,.38s-1.11-.14-1.59-.43-.85-.69-1.12-1.21c-.27-.52-.41-1.11-.41-1.78s.14-1.26,.41-1.77Zm4.86,.49c-.2-.37-.47-.65-.81-.85-.34-.2-.71-.29-1.12-.29s-.78,.1-1.12,.29c-.34,.19-.6,.47-.8,.84-.2,.37-.3,.8-.3,1.3s.1,.94,.3,1.31c.2,.37,.47,.66,.8,.85,.34,.2,.71,.29,1.12,.29s.78-.1,1.12-.29c.34-.2,.61-.48,.81-.85,.2-.37,.3-.81,.3-1.3s-.1-.93-.3-1.3Z"/><path class="cls-1" d="M249.77,181.07c-.5-.28-.89-.68-1.18-1.19-.28-.52-.43-1.11-.43-1.79s.15-1.27,.44-1.78,.69-.91,1.19-1.19c.5-.28,1.07-.41,1.69-.41s1.19,.14,1.69,.41c.5,.28,.9,.67,1.19,1.18s.44,1.11,.44,1.79-.15,1.28-.45,1.79c-.3,.52-.71,.91-1.22,1.19-.51,.28-1.08,.42-1.7,.42s-1.17-.14-1.67-.42Zm2.78-.82c.34-.18,.62-.46,.83-.83s.32-.82,.32-1.34-.1-.98-.31-1.34c-.21-.37-.48-.64-.82-.82-.34-.18-.7-.27-1.09-.27s-.77,.09-1.1,.27c-.33,.18-.6,.45-.8,.82-.2,.37-.3,.82-.3,1.34s.1,.99,.29,1.36c.2,.37,.46,.64,.79,.82s.69,.27,1.08,.27,.76-.09,1.1-.28Z"/><path class="cls-1" d="M39.17,201.38h-5.26c.04,.65,.26,1.15,.67,1.52,.4,.36,.89,.55,1.47,.55,.47,0,.87-.11,1.18-.33,.32-.22,.54-.51,.67-.88h1.18c-.18,.63-.53,1.15-1.06,1.54-.53,.4-1.18,.59-1.97,.59-.62,0-1.18-.14-1.67-.42-.49-.28-.88-.68-1.16-1.19-.28-.52-.42-1.11-.42-1.79s.14-1.28,.41-1.79,.65-.91,1.15-1.18c.49-.28,1.06-.41,1.7-.41s1.18,.14,1.66,.41c.48,.27,.85,.65,1.11,1.12,.26,.48,.39,1.01,.39,1.61,0,.21-.01,.43-.04,.66Zm-1.37-1.96c-.18-.3-.43-.53-.75-.68-.32-.16-.67-.23-1.05-.23-.55,0-1.02,.18-1.41,.53-.39,.35-.61,.84-.67,1.46h4.15c0-.42-.09-.77-.28-1.07Z"/><path class="cls-1" d="M41.1,196.4c-.14-.14-.22-.32-.22-.53s.07-.38,.22-.53,.32-.22,.53-.22,.37,.07,.51,.22c.14,.14,.21,.32,.21,.53s-.07,.38-.21,.53c-.14,.14-.31,.22-.51,.22s-.38-.07-.53-.22Zm1.06,1.28v6.58h-1.09v-6.58h1.09Z"/><path class="cls-1" d="M50.24,197.68v6.58h-1.09v-.97c-.21,.34-.5,.6-.87,.79-.37,.19-.78,.28-1.23,.28-.51,0-.97-.11-1.38-.32-.41-.21-.73-.53-.97-.95-.24-.42-.35-.94-.35-1.55v-3.85h1.08v3.71c0,.65,.16,1.15,.49,1.49s.78,.52,1.34,.52,1.04-.18,1.38-.54c.34-.36,.5-.88,.5-1.57v-3.61h1.09Z"/><path class="cls-1" d="M53.48,204.11c-.4-.17-.72-.41-.95-.72-.23-.31-.36-.66-.38-1.06h1.13c.03,.33,.19,.6,.46,.8,.28,.21,.64,.31,1.09,.31,.42,0,.74-.09,.98-.28,.24-.18,.36-.42,.36-.7s-.13-.5-.38-.64c-.26-.14-.65-.28-1.19-.41-.49-.13-.89-.26-1.19-.39-.31-.13-.57-.33-.79-.59-.22-.26-.33-.6-.33-1.03,0-.34,.1-.64,.3-.92,.2-.28,.48-.5,.85-.67,.37-.16,.79-.25,1.26-.25,.73,0,1.32,.18,1.76,.55,.45,.37,.69,.87,.72,1.51h-1.09c-.02-.34-.16-.62-.41-.83s-.59-.31-1.01-.31c-.39,0-.7,.08-.94,.25-.23,.17-.35,.39-.35,.66,0,.22,.07,.39,.21,.53,.14,.14,.32,.25,.53,.34s.51,.18,.88,.28c.47,.13,.86,.25,1.15,.38s.55,.31,.76,.56,.32,.57,.33,.97c0,.36-.1,.68-.3,.97-.2,.29-.48,.51-.85,.68-.36,.16-.78,.25-1.25,.25-.5,0-.96-.09-1.36-.26Z"/><path class="cls-1" d="M68.48,197.88c.4,.21,.72,.53,.95,.95s.35,.94,.35,1.55v3.88h-1.08v-3.72c0-.66-.16-1.16-.49-1.51-.32-.35-.76-.52-1.31-.52s-1.02,.18-1.36,.55c-.34,.36-.5,.89-.5,1.58v3.62h-1.08v-3.72c0-.66-.16-1.16-.49-1.51-.32-.35-.76-.52-1.31-.52s-1.02,.18-1.36,.55-.5,.89-.5,1.58v3.62h-1.09v-6.58h1.09v.95c.22-.34,.51-.61,.87-.79,.36-.18,.77-.28,1.21-.28,.55,0,1.04,.12,1.46,.37,.42,.25,.74,.61,.95,1.09,.18-.46,.49-.82,.91-1.08,.42-.26,.9-.38,1.42-.38s.97,.11,1.37,.32Z"/><path class="cls-1" d="M73.2,203.94c-.5-.28-.89-.68-1.18-1.19-.28-.52-.43-1.11-.43-1.79s.15-1.27,.44-1.78,.69-.91,1.19-1.19c.5-.28,1.07-.41,1.69-.41s1.19,.14,1.69,.41c.5,.28,.9,.67,1.19,1.18s.44,1.11,.44,1.79-.15,1.28-.45,1.79c-.3,.52-.71,.91-1.22,1.19-.51,.28-1.08,.42-1.7,.42s-1.17-.14-1.67-.42Zm2.78-.82c.34-.18,.62-.46,.83-.83s.32-.82,.32-1.34-.1-.98-.31-1.34c-.21-.37-.48-.64-.82-.82-.34-.18-.7-.27-1.09-.27s-.77,.09-1.1,.27c-.33,.18-.6,.45-.8,.82-.2,.37-.3,.82-.3,1.34s.1,.99,.29,1.36c.2,.37,.46,.64,.79,.82s.69,.27,1.08,.27,.76-.09,1.1-.28Z"/><path class="cls-1" d="M80.16,199.17c.27-.51,.65-.9,1.12-1.18s1.01-.42,1.6-.42c.51,0,.99,.12,1.43,.35,.44,.24,.78,.55,1.01,.93v-3.48h1.1v8.88h-1.1v-1.24c-.22,.39-.54,.71-.96,.97-.42,.25-.92,.38-1.49,.38s-1.11-.14-1.59-.43-.85-.69-1.12-1.21c-.27-.52-.41-1.11-.41-1.78s.14-1.26,.41-1.77Zm4.86,.49c-.2-.37-.47-.65-.81-.85-.34-.2-.71-.29-1.12-.29s-.78,.1-1.12,.29c-.34,.19-.6,.47-.8,.84-.2,.37-.3,.8-.3,1.3s.1,.94,.3,1.31c.2,.37,.47,.66,.8,.85,.34,.2,.71,.29,1.12,.29s.78-.1,1.12-.29c.34-.2,.61-.48,.81-.85,.2-.37,.3-.81,.3-1.3s-.1-.93-.3-1.3Z"/><path class="cls-1" d="M93.77,198.58v3.88c0,.32,.07,.55,.2,.68,.14,.13,.37,.2,.71,.2h.8v.92h-.98c-.61,0-1.06-.14-1.37-.42-.3-.28-.46-.74-.46-1.38v-3.88h-.85v-.9h.85v-1.66h1.09v1.66h1.72v.9h-1.72Z"/><path class="cls-1" d="M102.98,201.38h-5.26c.04,.65,.26,1.15,.67,1.52,.4,.36,.89,.55,1.47,.55,.47,0,.87-.11,1.18-.33,.32-.22,.54-.51,.67-.88h1.18c-.18,.63-.53,1.15-1.06,1.54-.53,.4-1.18,.59-1.97,.59-.62,0-1.18-.14-1.67-.42-.49-.28-.88-.68-1.16-1.19-.28-.52-.42-1.11-.42-1.79s.14-1.28,.41-1.79,.65-.91,1.15-1.18c.49-.28,1.06-.41,1.7-.41s1.18,.14,1.66,.41c.48,.27,.85,.65,1.11,1.12,.26,.48,.39,1.01,.39,1.61,0,.21-.01,.43-.04,.66Zm-1.37-1.96c-.18-.3-.43-.53-.75-.68-.32-.16-.67-.23-1.05-.23-.55,0-1.02,.18-1.41,.53-.39,.35-.61,.84-.67,1.46h4.15c0-.42-.09-.77-.28-1.07Z"/><path class="cls-1" d="M114.18,197.88c.4,.21,.72,.53,.95,.95s.35,.94,.35,1.55v3.88h-1.08v-3.72c0-.66-.16-1.16-.49-1.51-.32-.35-.76-.52-1.31-.52s-1.02,.18-1.36,.55c-.34,.36-.5,.89-.5,1.58v3.62h-1.08v-3.72c0-.66-.16-1.16-.49-1.51-.32-.35-.76-.52-1.31-.52s-1.02,.18-1.36,.55-.5,.89-.5,1.58v3.62h-1.09v-6.58h1.09v.95c.22-.34,.51-.61,.87-.79,.36-.18,.77-.28,1.21-.28,.55,0,1.04,.12,1.46,.37,.42,.25,.74,.61,.95,1.09,.18-.46,.49-.82,.91-1.08,.42-.26,.9-.38,1.42-.38s.97,.11,1.37,.32Z"/><path class="cls-1" d="M119.75,197.95c.43-.25,.93-.38,1.49-.38s1.11,.14,1.59,.42,.85,.67,1.12,1.18,.41,1.1,.41,1.77-.14,1.26-.41,1.78c-.27,.52-.65,.92-1.12,1.21s-1.01,.43-1.59,.43-1.05-.13-1.48-.38c-.43-.25-.75-.57-.98-.94v4.33h-1.09v-9.7h1.09v1.21c.22-.38,.54-.69,.97-.94Zm3.2,1.7c-.2-.37-.47-.65-.81-.84-.34-.19-.71-.29-1.12-.29s-.77,.1-1.11,.29c-.34,.2-.61,.48-.82,.85-.2,.37-.31,.8-.31,1.29s.1,.93,.31,1.3c.2,.37,.48,.66,.82,.85,.34,.2,.71,.29,1.11,.29s.78-.1,1.12-.29c.34-.2,.61-.48,.81-.85,.2-.37,.3-.81,.3-1.31s-.1-.93-.3-1.3Z"/><path class="cls-1" d="M127.48,203.94c-.5-.28-.89-.68-1.18-1.19-.28-.52-.43-1.11-.43-1.79s.15-1.27,.44-1.78,.69-.91,1.19-1.19c.5-.28,1.07-.41,1.69-.41s1.19,.14,1.69,.41c.5,.28,.9,.67,1.19,1.18s.44,1.11,.44,1.79-.15,1.28-.45,1.79c-.3,.52-.71,.91-1.22,1.19-.51,.28-1.08,.42-1.7,.42s-1.17-.14-1.67-.42Zm2.78-.82c.34-.18,.62-.46,.83-.83s.32-.82,.32-1.34-.1-.98-.31-1.34c-.21-.37-.48-.64-.82-.82-.34-.18-.7-.27-1.09-.27s-.77,.09-1.1,.27c-.33,.18-.6,.45-.8,.82-.2,.37-.3,.82-.3,1.34s.1,.99,.29,1.36c.2,.37,.46,.64,.79,.82s.69,.27,1.08,.27,.76-.09,1.1-.28Z"/><path class="cls-1" d="M136.33,197.87c.36-.21,.79-.31,1.3-.31v1.13h-.29c-1.22,0-1.84,.66-1.84,1.99v3.58h-1.09v-6.58h1.09v1.07c.19-.38,.47-.67,.82-.88Z"/><path class="cls-1" d="M143.09,196.4c-.14-.14-.22-.32-.22-.53s.07-.38,.22-.53,.32-.22,.53-.22,.37,.07,.51,.22c.14,.14,.21,.32,.21,.53s-.07,.38-.21,.53c-.14,.14-.31,.22-.51,.22s-.38-.07-.53-.22Zm1.06,1.28v6.58h-1.09v-6.58h1.09Z"/><path class="cls-1" d="M151.58,198.29c.5,.48,.74,1.18,.74,2.09v3.88h-1.08v-3.72c0-.66-.16-1.16-.49-1.51-.33-.35-.78-.52-1.34-.52s-1.03,.18-1.37,.54-.51,.88-.51,1.57v3.64h-1.09v-6.58h1.09v.94c.22-.34,.51-.6,.88-.78s.78-.28,1.23-.28c.8,0,1.45,.24,1.94,.73Z"/><path class="cls-1" d="M154.57,199.17c.27-.51,.65-.9,1.13-1.18,.48-.28,1.04-.42,1.66-.42,.81,0,1.47,.2,2,.59,.52,.39,.87,.94,1.04,1.63h-1.18c-.11-.4-.33-.72-.65-.95-.32-.23-.73-.35-1.21-.35-.62,0-1.13,.21-1.51,.64-.38,.43-.58,1.03-.58,1.82s.19,1.4,.58,1.84c.38,.43,.89,.65,1.51,.65,.48,0,.88-.11,1.2-.34,.32-.22,.54-.54,.66-.96h1.18c-.18,.67-.53,1.21-1.06,1.61-.53,.4-1.19,.61-1.98,.61-.62,0-1.18-.14-1.66-.42-.48-.28-.86-.68-1.13-1.19s-.41-1.11-.41-1.8,.14-1.27,.41-1.78Z"/><path class="cls-1" d="M162.28,196.4c-.14-.14-.22-.32-.22-.53s.07-.38,.22-.53,.32-.22,.53-.22,.37,.07,.51,.22c.14,.14,.21,.32,.21,.53s-.07,.38-.21,.53c-.14,.14-.31,.22-.51,.22s-.38-.07-.53-.22Zm1.06,1.28v6.58h-1.09v-6.58h1.09Z"/><path class="cls-1" d="M165.62,199.17c.27-.51,.65-.9,1.12-1.18s1.01-.42,1.6-.42c.51,0,.99,.12,1.43,.35,.44,.24,.78,.55,1.01,.93v-3.48h1.1v8.88h-1.1v-1.24c-.22,.39-.54,.71-.96,.97-.42,.25-.92,.38-1.49,.38s-1.11-.14-1.59-.43-.85-.69-1.12-1.21c-.27-.52-.41-1.11-.41-1.78s.14-1.26,.41-1.77Zm4.86,.49c-.2-.37-.47-.65-.81-.85-.34-.2-.71-.29-1.12-.29s-.78,.1-1.12,.29c-.34,.19-.6,.47-.8,.84-.2,.37-.3,.8-.3,1.3s.1,.94,.3,1.31c.2,.37,.47,.66,.8,.85,.34,.2,.71,.29,1.12,.29s.78-.1,1.12-.29c.34-.2,.61-.48,.81-.85,.2-.37,.3-.81,.3-1.3s-.1-.93-.3-1.3Z"/><path class="cls-1" d="M174.2,196.4c-.14-.14-.22-.32-.22-.53s.07-.38,.22-.53,.32-.22,.53-.22,.37,.07,.51,.22c.14,.14,.21,.32,.21,.53s-.07,.38-.21,.53c-.14,.14-.31,.22-.51,.22s-.38-.07-.53-.22Zm1.06,1.28v6.58h-1.09v-6.58h1.09Z"/><path class="cls-1" d="M177.54,199.17c.27-.51,.65-.9,1.12-1.18s1.01-.42,1.6-.42c.51,0,.99,.12,1.43,.35,.44,.24,.78,.55,1.01,.93v-3.48h1.1v8.88h-1.1v-1.24c-.22,.39-.54,.71-.96,.97-.42,.25-.92,.38-1.49,.38s-1.11-.14-1.59-.43-.85-.69-1.12-1.21c-.27-.52-.41-1.11-.41-1.78s.14-1.26,.41-1.77Zm4.86,.49c-.2-.37-.47-.65-.81-.85-.34-.2-.71-.29-1.12-.29s-.78,.1-1.12,.29c-.34,.19-.6,.47-.8,.84-.2,.37-.3,.8-.3,1.3s.1,.94,.3,1.31c.2,.37,.47,.66,.8,.85,.34,.2,.71,.29,1.12,.29s.78-.1,1.12-.29c.34-.2,.61-.48,.81-.85,.2-.37,.3-.81,.3-1.3s-.1-.93-.3-1.3Z"/><path class="cls-1" d="M191.91,197.68v6.58h-1.09v-.97c-.21,.34-.5,.6-.87,.79-.37,.19-.78,.28-1.23,.28-.51,0-.97-.11-1.38-.32-.41-.21-.73-.53-.97-.95-.24-.42-.35-.94-.35-1.55v-3.85h1.08v3.71c0,.65,.16,1.15,.49,1.49s.78,.52,1.34,.52,1.04-.18,1.38-.54c.34-.36,.5-.88,.5-1.57v-3.61h1.09Z"/><path class="cls-1" d="M199.33,198.29c.5,.48,.74,1.18,.74,2.09v3.88h-1.08v-3.72c0-.66-.16-1.16-.49-1.51-.33-.35-.78-.52-1.34-.52s-1.03,.18-1.37,.54-.51,.88-.51,1.57v3.64h-1.09v-6.58h1.09v.94c.22-.34,.51-.6,.88-.78s.78-.28,1.23-.28c.8,0,1.45,.24,1.94,.73Z"/><path class="cls-1" d="M203.51,198.58v3.88c0,.32,.07,.55,.2,.68,.14,.13,.37,.2,.71,.2h.8v.92h-.98c-.61,0-1.06-.14-1.37-.42-.3-.28-.46-.74-.46-1.38v-3.88h-.85v-.9h.85v-1.66h1.09v1.66h1.72v.9h-1.72Z"/><path class="cls-1" d="M216.54,197.68v6.58h-1.09v-.97c-.21,.34-.5,.6-.87,.79-.37,.19-.78,.28-1.23,.28-.51,0-.97-.11-1.38-.32-.41-.21-.73-.53-.97-.95-.24-.42-.35-.94-.35-1.55v-3.85h1.08v3.71c0,.65,.16,1.15,.49,1.49s.78,.52,1.34,.52,1.04-.18,1.38-.54c.34-.36,.5-.88,.5-1.57v-3.61h1.09Z"/><path class="cls-1" d="M220.13,198.58v3.88c0,.32,.07,.55,.2,.68,.14,.13,.37,.2,.71,.2h.8v.92h-.98c-.61,0-1.06-.14-1.37-.42-.3-.28-.46-.74-.46-1.38v-3.88h-.85v-.9h.85v-1.66h1.09v1.66h1.72v.9h-1.72Z"/><path class="cls-1" d="M34.3,218.25v8.88h-1.09v-8.88h1.09Z"/><path class="cls-1" d="M36.62,222.05c.27-.51,.65-.9,1.12-1.18s1.01-.42,1.59-.42,1.08,.12,1.5,.37c.42,.25,.74,.56,.95,.94v-1.2h1.1v6.58h-1.1v-1.22c-.22,.38-.54,.7-.97,.95-.43,.25-.93,.38-1.49,.38s-1.11-.14-1.58-.43c-.47-.29-.84-.69-1.12-1.21-.27-.52-.41-1.11-.41-1.78s.14-1.26,.41-1.77Zm4.86,.49c-.2-.37-.47-.65-.81-.85-.34-.2-.71-.29-1.12-.29s-.78,.1-1.12,.29c-.34,.19-.6,.47-.8,.84-.2,.37-.3,.8-.3,1.3s.1,.94,.3,1.31c.2,.37,.47,.66,.8,.85,.34,.2,.71,.29,1.12,.29s.78-.1,1.12-.29c.34-.2,.61-.48,.81-.85,.2-.37,.3-.81,.3-1.3s-.1-.93-.3-1.3Z"/><path class="cls-1" d="M47.23,220.82c.43-.25,.92-.37,1.48-.37,.59,0,1.12,.14,1.6,.42,.47,.28,.84,.67,1.12,1.18s.41,1.1,.41,1.77-.14,1.26-.41,1.78c-.27,.52-.65,.92-1.12,1.21s-1.01,.43-1.59,.43-1.07-.12-1.49-.37c-.43-.25-.75-.56-.97-.95v1.21h-1.09v-8.88h1.09v3.53c.22-.39,.55-.71,.98-.96Zm3.18,1.7c-.2-.37-.47-.65-.81-.84-.34-.19-.71-.29-1.12-.29s-.77,.1-1.11,.29c-.34,.2-.61,.48-.82,.85-.2,.37-.31,.8-.31,1.29s.1,.93,.31,1.3c.2,.37,.48,.66,.82,.85,.34,.2,.71,.29,1.11,.29s.78-.1,1.12-.29c.34-.2,.61-.48,.81-.85,.2-.37,.3-.81,.3-1.31s-.1-.93-.3-1.3Z"/><path class="cls-1" d="M54.94,226.82c-.5-.28-.89-.68-1.18-1.19-.28-.52-.43-1.11-.43-1.79s.15-1.27,.44-1.78,.69-.91,1.19-1.19c.5-.28,1.07-.41,1.69-.41s1.19,.14,1.69,.41c.5,.28,.9,.67,1.19,1.18s.44,1.11,.44,1.79-.15,1.28-.45,1.79c-.3,.52-.71,.91-1.22,1.19-.51,.28-1.08,.42-1.7,.42s-1.17-.14-1.67-.42Zm2.78-.82c.34-.18,.62-.46,.83-.83s.32-.82,.32-1.34-.1-.98-.31-1.34c-.21-.37-.48-.64-.82-.82-.34-.18-.7-.27-1.09-.27s-.77,.09-1.1,.27c-.33,.18-.6,.45-.8,.82-.2,.37-.3,.82-.3,1.34s.1,.99,.29,1.36c.2,.37,.46,.64,.79,.82s.69,.27,1.08,.27,.76-.09,1.1-.28Z"/><path class="cls-1" d="M63.79,220.75c.36-.21,.79-.31,1.3-.31v1.13h-.29c-1.22,0-1.84,.66-1.84,1.99v3.58h-1.09v-6.58h1.09v1.07c.19-.38,.47-.67,.82-.88Z"/><path class="cls-1" d="M72.6,224.25h-5.26c.04,.65,.26,1.15,.67,1.52,.4,.36,.89,.55,1.47,.55,.47,0,.87-.11,1.18-.33,.32-.22,.54-.51,.67-.88h1.18c-.18,.63-.53,1.15-1.06,1.54-.53,.4-1.18,.59-1.97,.59-.62,0-1.18-.14-1.67-.42-.49-.28-.88-.68-1.16-1.19-.28-.52-.42-1.11-.42-1.79s.14-1.28,.41-1.79,.65-.91,1.15-1.18c.49-.28,1.06-.41,1.7-.41s1.18,.14,1.66,.41c.48,.27,.85,.65,1.11,1.12,.26,.48,.39,1.01,.39,1.61,0,.21-.01,.43-.04,.66Zm-1.37-1.96c-.18-.3-.43-.53-.75-.68-.32-.16-.67-.23-1.05-.23-.55,0-1.02,.18-1.41,.53-.39,.35-.61,.84-.67,1.46h4.15c0-.42-.09-.77-.28-1.07Z"/><path class="cls-1" d="M84.2,224.25h-5.26c.04,.65,.26,1.15,.67,1.52,.4,.36,.89,.55,1.47,.55,.47,0,.87-.11,1.18-.33,.32-.22,.54-.51,.67-.88h1.18c-.18,.63-.53,1.15-1.06,1.54-.53,.4-1.18,.59-1.97,.59-.62,0-1.18-.14-1.67-.42-.49-.28-.88-.68-1.16-1.19-.28-.52-.42-1.11-.42-1.79s.14-1.28,.41-1.79,.65-.91,1.15-1.18c.49-.28,1.06-.41,1.7-.41s1.18,.14,1.66,.41c.48,.27,.85,.65,1.11,1.12,.26,.48,.39,1.01,.39,1.61,0,.21-.01,.43-.04,.66Zm-1.37-1.96c-.18-.3-.43-.53-.75-.68-.32-.16-.67-.23-1.05-.23-.55,0-1.02,.18-1.41,.53-.39,.35-.61,.84-.67,1.46h4.15c0-.42-.09-.77-.28-1.07Z"/><path class="cls-1" d="M87.32,221.46v3.88c0,.32,.07,.55,.2,.68,.14,.13,.37,.2,.71,.2h.8v.92h-.98c-.61,0-1.06-.14-1.37-.42-.3-.28-.46-.74-.46-1.38v-3.88h-.85v-.9h.85v-1.66h1.09v1.66h1.72v.9h-1.72Z"/><path class="cls-1" d="M94.52,222.05c.27-.51,.65-.9,1.12-1.18s1.01-.42,1.6-.42c.51,0,.99,.12,1.43,.35,.44,.24,.78,.55,1.01,.93v-3.48h1.1v8.88h-1.1v-1.24c-.22,.39-.54,.71-.96,.97-.42,.25-.92,.38-1.49,.38s-1.11-.14-1.59-.43-.85-.69-1.12-1.21c-.27-.52-.41-1.11-.41-1.78s.14-1.26,.41-1.77Zm4.86,.49c-.2-.37-.47-.65-.81-.85-.34-.2-.71-.29-1.12-.29s-.78,.1-1.12,.29c-.34,.19-.6,.47-.8,.84-.2,.37-.3,.8-.3,1.3s.1,.94,.3,1.31c.2,.37,.47,.66,.8,.85,.34,.2,.71,.29,1.12,.29s.78-.1,1.12-.29c.34-.2,.61-.48,.81-.85,.2-.37,.3-.81,.3-1.3s-.1-.93-.3-1.3Z"/><path class="cls-1" d="M104.28,226.82c-.5-.28-.89-.68-1.18-1.19-.28-.52-.43-1.11-.43-1.79s.15-1.27,.44-1.78,.69-.91,1.19-1.19c.5-.28,1.07-.41,1.69-.41s1.19,.14,1.69,.41c.5,.28,.9,.67,1.19,1.18s.44,1.11,.44,1.79-.15,1.28-.45,1.79c-.3,.52-.71,.91-1.22,1.19-.51,.28-1.08,.42-1.7,.42s-1.17-.14-1.67-.42Zm2.78-.82c.34-.18,.62-.46,.83-.83s.32-.82,.32-1.34-.1-.98-.31-1.34c-.21-.37-.48-.64-.82-.82-.34-.18-.7-.27-1.09-.27s-.77,.09-1.1,.27c-.33,.18-.6,.45-.8,.82-.2,.37-.3,.82-.3,1.34s.1,.99,.29,1.36c.2,.37,.46,.64,.79,.82s.69,.27,1.08,.27,.76-.09,1.1-.28Z"/><path class="cls-1" d="M112.32,218.25v8.88h-1.09v-8.88h1.09Z"/><path class="cls-1" d="M115.84,226.82c-.5-.28-.89-.68-1.18-1.19-.28-.52-.43-1.11-.43-1.79s.15-1.27,.44-1.78,.69-.91,1.19-1.19c.5-.28,1.07-.41,1.69-.41s1.19,.14,1.69,.41c.5,.28,.9,.67,1.19,1.18s.44,1.11,.44,1.79-.15,1.28-.45,1.79c-.3,.52-.71,.91-1.22,1.19-.51,.28-1.08,.42-1.7,.42s-1.17-.14-1.67-.42Zm2.78-.82c.34-.18,.62-.46,.83-.83s.32-.82,.32-1.34-.1-.98-.31-1.34c-.21-.37-.48-.64-.82-.82-.34-.18-.7-.27-1.09-.27s-.77,.09-1.1,.27c-.33,.18-.6,.45-.8,.82-.2,.37-.3,.82-.3,1.34s.1,.99,.29,1.36c.2,.37,.46,.64,.79,.82s.69,.27,1.08,.27,.76-.09,1.1-.28Z"/><path class="cls-1" d="M124.69,220.75c.36-.21,.79-.31,1.3-.31v1.13h-.29c-1.22,0-1.84,.66-1.84,1.99v3.58h-1.09v-6.58h1.09v1.07c.19-.38,.47-.67,.82-.88Z"/><path class="cls-1" d="M133.49,224.25h-5.26c.04,.65,.26,1.15,.67,1.52,.4,.36,.89,.55,1.47,.55,.47,0,.87-.11,1.18-.33,.32-.22,.54-.51,.67-.88h1.18c-.18,.63-.53,1.15-1.06,1.54-.53,.4-1.18,.59-1.97,.59-.62,0-1.18-.14-1.67-.42-.49-.28-.88-.68-1.16-1.19-.28-.52-.42-1.11-.42-1.79s.14-1.28,.41-1.79,.65-.91,1.15-1.18c.49-.28,1.06-.41,1.7-.41s1.18,.14,1.66,.41c.48,.27,.85,.65,1.11,1.12,.26,.48,.39,1.01,.39,1.61,0,.21-.01,.43-.04,.66Zm-1.37-1.96c-.18-.3-.43-.53-.75-.68-.32-.16-.67-.23-1.05-.23-.55,0-1.02,.18-1.41,.53-.39,.35-.61,.84-.67,1.46h4.15c0-.42-.09-.77-.28-1.07Z"/><path class="cls-1" d="M148.41,220.75c.4,.21,.72,.53,.95,.95s.35,.94,.35,1.55v3.88h-1.08v-3.72c0-.66-.16-1.16-.49-1.51-.32-.35-.76-.52-1.31-.52s-1.02,.18-1.36,.55c-.34,.36-.5,.89-.5,1.58v3.62h-1.08v-3.72c0-.66-.16-1.16-.49-1.51-.32-.35-.76-.52-1.31-.52s-1.02,.18-1.36,.55-.5,.89-.5,1.58v3.62h-1.09v-6.58h1.09v.95c.22-.34,.51-.61,.87-.79,.36-.18,.77-.28,1.21-.28,.55,0,1.04,.12,1.46,.37,.42,.25,.74,.61,.95,1.09,.18-.46,.49-.82,.91-1.08,.42-.26,.9-.38,1.42-.38s.97,.11,1.37,.32Z"/><path class="cls-1" d="M151.93,222.05c.27-.51,.65-.9,1.12-1.18s1.01-.42,1.59-.42,1.08,.12,1.5,.37c.42,.25,.74,.56,.95,.94v-1.2h1.1v6.58h-1.1v-1.22c-.22,.38-.54,.7-.97,.95-.43,.25-.93,.38-1.49,.38s-1.11-.14-1.58-.43c-.47-.29-.84-.69-1.12-1.21-.27-.52-.41-1.11-.41-1.78s.14-1.26,.41-1.77Zm4.86,.49c-.2-.37-.47-.65-.81-.85-.34-.2-.71-.29-1.12-.29s-.78,.1-1.12,.29c-.34,.19-.6,.47-.8,.84-.2,.37-.3,.8-.3,1.3s.1,.94,.3,1.31c.2,.37,.47,.66,.8,.85,.34,.2,.71,.29,1.12,.29s.78-.1,1.12-.29c.34-.2,.61-.48,.81-.85,.2-.37,.3-.81,.3-1.3s-.1-.93-.3-1.3Z"/><path class="cls-1" d="M164.71,220.82c.43,.25,.75,.56,.95,.94v-1.2h1.1v6.72c0,.6-.13,1.13-.38,1.6-.26,.47-.62,.83-1.1,1.1-.48,.26-1.03,.4-1.66,.4-.86,0-1.58-.2-2.16-.61-.58-.41-.92-.96-1.02-1.67h1.08c.12,.4,.37,.72,.74,.97s.83,.37,1.36,.37c.6,0,1.09-.19,1.47-.56,.38-.38,.57-.9,.57-1.58v-1.38c-.22,.38-.54,.7-.96,.96-.42,.26-.92,.38-1.49,.38s-1.11-.14-1.59-.43-.85-.69-1.12-1.21c-.27-.52-.41-1.11-.41-1.78s.14-1.26,.41-1.77,.65-.9,1.12-1.18,1.01-.42,1.59-.42,1.07,.12,1.49,.37Zm.65,1.72c-.2-.37-.47-.65-.81-.85-.34-.2-.71-.29-1.12-.29s-.78,.1-1.12,.29c-.34,.19-.6,.47-.8,.84-.2,.37-.3,.8-.3,1.3s.1,.94,.3,1.31c.2,.37,.47,.66,.8,.85,.34,.2,.71,.29,1.12,.29s.78-.1,1.12-.29c.34-.2,.61-.48,.81-.85,.2-.37,.3-.81,.3-1.3s-.1-.93-.3-1.3Z"/><path class="cls-1" d="M174.18,221.16c.5,.48,.74,1.18,.74,2.09v3.88h-1.08v-3.72c0-.66-.16-1.16-.49-1.51-.33-.35-.78-.52-1.34-.52s-1.03,.18-1.37,.54-.51,.88-.51,1.57v3.64h-1.09v-6.58h1.09v.94c.22-.34,.51-.6,.88-.78s.78-.28,1.23-.28c.8,0,1.45,.24,1.94,.73Z"/><path class="cls-1" d="M177.15,222.05c.27-.51,.65-.9,1.12-1.18s1.01-.42,1.59-.42,1.08,.12,1.5,.37c.42,.25,.74,.56,.95,.94v-1.2h1.1v6.58h-1.1v-1.22c-.22,.38-.54,.7-.97,.95-.43,.25-.93,.38-1.49,.38s-1.11-.14-1.58-.43c-.47-.29-.84-.69-1.12-1.21-.27-.52-.41-1.11-.41-1.78s.14-1.26,.41-1.77Zm4.86,.49c-.2-.37-.47-.65-.81-.85-.34-.2-.71-.29-1.12-.29s-.78,.1-1.12,.29c-.34,.19-.6,.47-.8,.84-.2,.37-.3,.8-.3,1.3s.1,.94,.3,1.31c.2,.37,.47,.66,.8,.85,.34,.2,.71,.29,1.12,.29s.78-.1,1.12-.29c.34-.2,.61-.48,.81-.85,.2-.37,.3-.81,.3-1.3s-.1-.93-.3-1.3Z"/><path class="cls-1" d="M185.65,226.99c-.14-.14-.22-.32-.22-.53s.07-.38,.22-.53c.14-.14,.32-.22,.53-.22s.37,.07,.51,.22c.14,.14,.21,.32,.21,.53s-.07,.38-.21,.53c-.14,.14-.31,.22-.51,.22s-.38-.07-.53-.22Z"/></g></g><g><g><rect class="cls-4" x="77.19" y="-.28" width="145.62" height="41" rx="3.25" ry="3.25"/><path class="cls-3" d="M219.56,.22c1.52,0,2.75,1.23,2.75,2.75V37.47c0,1.52-1.23,2.75-2.75,2.75H80.44c-1.52,0-2.75-1.23-2.75-2.75V2.97c0-1.52,1.23-2.75,2.75-2.75H219.56m0-1H80.44c-2.07,0-3.75,1.68-3.75,3.75V37.47c0,2.07,1.68,3.75,3.75,3.75H219.56c2.07,0,3.75-1.68,3.75-3.75V2.97c0-2.07-1.68-3.75-3.75-3.75h0Z"/></g><path class="cls-6" d="M219.56-.78h-69.37V41.22h69.37c2.07,0,3.75-1.68,3.75-3.75V2.97c0-2.07-1.68-3.75-3.75-3.75Z"/><g class="cls-5"><path class="cls-1" d="M95.49,16.81c.44-.76,1.04-1.35,1.81-1.77s1.59-.64,2.5-.64c1.04,0,1.96,.25,2.77,.76s1.39,1.23,1.76,2.16h-1.92c-.25-.51-.6-.9-1.05-1.15-.45-.25-.97-.38-1.55-.38-.64,0-1.22,.14-1.72,.43-.5,.29-.9,.71-1.18,1.25-.28,.54-.43,1.17-.43,1.89s.14,1.35,.43,1.89,.68,.96,1.18,1.25,1.08,.44,1.72,.44c.59,0,1.11-.13,1.55-.38,.45-.25,.8-.63,1.05-1.15h1.92c-.36,.93-.95,1.65-1.76,2.16s-1.73,.76-2.77,.76c-.91,0-1.75-.21-2.51-.64s-1.36-1.02-1.8-1.77c-.44-.76-.67-1.61-.67-2.56s.22-1.81,.67-2.56Z"/><path class="cls-1" d="M107.55,23.89c-.59-.33-1.05-.8-1.39-1.4-.34-.6-.5-1.3-.5-2.09s.17-1.48,.52-2.09c.35-.61,.82-1.07,1.41-1.4,.6-.33,1.26-.49,2-.49s1.4,.16,2,.49c.6,.33,1.07,.79,1.41,1.4,.35,.61,.52,1.3,.52,2.09s-.18,1.48-.53,2.09c-.35,.61-.84,1.08-1.45,1.41s-1.29,.5-2.02,.5-1.39-.17-1.97-.5Zm3.13-1.18c.36-.2,.65-.49,.88-.88,.22-.39,.34-.87,.34-1.43s-.11-1.03-.32-1.42c-.21-.39-.5-.68-.85-.88-.35-.2-.74-.29-1.15-.29s-.79,.1-1.14,.29-.63,.49-.83,.88c-.21,.39-.31,.86-.31,1.42,0,.83,.21,1.47,.64,1.92,.42,.45,.96,.68,1.6,.68,.41,0,.8-.1,1.15-.29Z"/><path class="cls-1" d="M115.06,18.31c.32-.6,.76-1.06,1.32-1.39s1.17-.5,1.85-.5c.5,0,1,.11,1.49,.33,.49,.22,.88,.51,1.17,.88v-3.72h1.61v10.36h-1.61v-1.16c-.26,.37-.62,.68-1.08,.92-.46,.24-.99,.36-1.59,.36-.67,0-1.29-.17-1.84-.51s-.99-.82-1.32-1.43c-.32-.61-.48-1.3-.48-2.08s.16-1.46,.48-2.06Zm5.5,.7c-.22-.39-.51-.69-.86-.9-.35-.21-.74-.31-1.15-.31s-.79,.1-1.15,.3c-.35,.2-.64,.5-.86,.88-.22,.39-.33,.85-.33,1.38s.11,1,.33,1.4,.51,.71,.87,.92,.74,.32,1.14,.32,.79-.1,1.15-.31c.35-.21,.64-.51,.86-.9s.33-.86,.33-1.39-.11-.99-.33-1.39Z"/><path class="cls-1" d="M131.62,21h-5.89c.05,.62,.28,1.11,.69,1.48,.41,.37,.91,.56,1.51,.56,.86,0,1.46-.36,1.82-1.08h1.72c-.23,.71-.66,1.29-1.27,1.74-.61,.45-1.37,.68-2.27,.68-.74,0-1.4-.17-1.98-.5-.58-.33-1.04-.8-1.37-1.4-.33-.6-.5-1.3-.5-2.09s.16-1.49,.48-2.09c.32-.6,.77-1.07,1.36-1.39,.58-.33,1.25-.49,2.01-.49s1.38,.16,1.95,.48,1.01,.76,1.33,1.34c.32,.57,.48,1.23,.48,1.98,0,.29-.02,.55-.06,.78Zm-1.61-1.29c0-.59-.22-1.06-.63-1.41-.41-.35-.92-.53-1.53-.53-.55,0-1.02,.17-1.41,.53-.39,.35-.62,.82-.7,1.42h4.27Z"/></g><g><path class="cls-1" d="M174.61,13.9l-3.65,9.73h-1.85l-3.67-9.73h1.71l2.88,8.09,2.9-8.09h1.68Z"/><path class="cls-1" d="M176.02,14.6c-.2-.2-.29-.44-.29-.73s.1-.53,.29-.73c.2-.2,.44-.29,.73-.29s.52,.1,.71,.29c.2,.2,.29,.44,.29,.73s-.1,.53-.29,.73c-.2,.2-.43,.29-.71,.29s-.53-.1-.73-.29Zm1.51,1.32v7.71h-1.6v-7.71h1.6Z"/><path class="cls-1" d="M180.8,23.43c-.48-.22-.86-.52-1.14-.9-.28-.38-.43-.8-.45-1.27h1.65c.03,.33,.18,.6,.47,.82s.64,.33,1.07,.33,.8-.09,1.04-.26c.25-.17,.37-.39,.37-.67,0-.29-.14-.5-.41-.64-.28-.14-.71-.29-1.31-.46-.58-.16-1.05-.31-1.41-.46-.36-.15-.68-.38-.95-.69-.27-.31-.4-.71-.4-1.22,0-.41,.12-.79,.36-1.13,.24-.34,.59-.61,1.04-.8,.45-.2,.97-.29,1.56-.29,.88,0,1.58,.22,2.12,.67,.54,.44,.82,1.05,.86,1.81h-1.6c-.03-.34-.17-.62-.42-.83-.25-.21-.59-.31-1.02-.31s-.74,.08-.97,.24c-.22,.16-.34,.37-.34,.63,0,.21,.07,.38,.22,.52,.15,.14,.33,.25,.55,.33,.21,.08,.53,.18,.95,.3,.56,.15,1.02,.3,1.38,.46,.36,.15,.67,.38,.93,.68s.4,.7,.41,1.19c0,.44-.12,.83-.36,1.18-.24,.35-.59,.62-1.03,.81-.44,.2-.96,.29-1.56,.29s-1.15-.11-1.63-.33Z"/><path class="cls-1" d="M194.09,15.91v7.71h-1.6v-.91c-.25,.32-.58,.57-.99,.75-.41,.18-.84,.27-1.29,.27-.61,0-1.15-.13-1.63-.38-.48-.25-.86-.63-1.13-1.12-.28-.5-.41-1.09-.41-1.79v-4.54h1.58v4.3c0,.69,.17,1.22,.52,1.59,.35,.37,.82,.55,1.41,.55s1.07-.18,1.42-.55c.35-.37,.52-.9,.52-1.59v-4.3h1.6Z"/><path class="cls-1" d="M196.14,17.68c.32-.6,.76-1.06,1.32-1.39s1.17-.5,1.84-.5c.61,0,1.14,.12,1.59,.36,.45,.24,.81,.54,1.08,.89v-1.12h1.61v7.71h-1.61v-1.15c-.27,.36-.64,.67-1.11,.91-.47,.24-1,.36-1.6,.36-.66,0-1.27-.17-1.82-.51-.55-.34-.99-.82-1.31-1.43-.32-.61-.48-1.3-.48-2.08s.16-1.46,.48-2.06Zm5.5,.7c-.22-.39-.51-.69-.86-.9-.35-.21-.74-.31-1.15-.31s-.79,.1-1.15,.3c-.35,.2-.64,.5-.86,.88-.22,.39-.33,.85-.33,1.38s.11,1,.33,1.4,.51,.71,.87,.92,.74,.32,1.14,.32,.79-.1,1.15-.31c.35-.21,.64-.51,.86-.9s.33-.86,.33-1.39-.11-.99-.33-1.39Z"/><path class="cls-1" d="M207.28,13.27v10.36h-1.6V13.27h1.6Z"/></g></g></svg>