<svg id="th_color" xmlns="http://www.w3.org/2000/svg" viewBox="0 0 195 130"><defs><style>.cls-1{fill:#90c0f0;}</style></defs><g id="themecolor"><path class="cls-1" d="M122.33,35.62,123,49.87h-1.7A17.12,17.12,0,0,0,120,44.49a9,9,0,0,0-3.69-3.83,12.94,12.94,0,0,0-6.08-1.24h-8.56V85.85c0,3.74.41,6.07,1.21,7q1.71,1.89,5.25,1.89h2.1v1.65H84.41V94.73h2.16C89.13,94.73,91,94,92,92.4q1-1.44,1-6.55V39.42H85.71a20.3,20.3,0,0,0-6,.63,8.38,8.38,0,0,0-4,3.27,13.36,13.36,0,0,0-2,6.55H72l.72-14.25Z"/></g></svg>