<svg id="th_color" xmlns="http://www.w3.org/2000/svg" viewBox="0 0 195 130"><defs><style>.cls-1{fill:#c6c8ce;}</style></defs><path class="cls-1" d="M66.19,65A31.33,31.33,0,0,0,83.83,93.18L68.9,52.26A31.12,31.12,0,0,0,66.19,65Z"/><path class="cls-1" d="M118.64,62.92a16.44,16.44,0,0,0-2.59-8.64c-1.58-2.58-3.07-4.76-3.07-7.34a5.42,5.42,0,0,1,5.26-5.56c.14,0,.27,0,.4,0a31.3,31.3,0,0,0-47.3,5.89c.73,0,1.43,0,2,0,3.28,0,8.35-.4,8.35-.4a1.29,1.29,0,0,1,.2,2.58s-1.7.2-3.59.3L89.72,83.73l6.85-20.55L91.69,49.82c-1.69-.1-3.28-.3-3.28-.3a1.29,1.29,0,0,1,.2-2.58s5.17.4,8.24.4c3.28,0,8.35-.4,8.35-.4a1.29,1.29,0,0,1,.2,2.58s-1.7.2-3.59.3l11.32,33.66L116.25,73C117.61,68.71,118.64,65.6,118.64,62.92Z"/><path class="cls-1" d="M98.05,67.74,88.65,95a31.45,31.45,0,0,0,19.25-.5,3.55,3.55,0,0,1-.23-.43Z"/><path class="cls-1" d="M125,50a23,23,0,0,1,.21,3.22,29.46,29.46,0,0,1-2.38,11.21l-9.56,27.65A31.3,31.3,0,0,0,125,50Z"/><path class="cls-1" d="M97.5,28A36.5,36.5,0,1,0,134,64.5,36.54,36.54,0,0,0,97.5,28Zm0,71.32A34.83,34.83,0,1,1,132.32,64.5,34.87,34.87,0,0,1,97.5,99.32Z"/></svg>