<svg id="th_color" xmlns="http://www.w3.org/2000/svg" viewBox="0 0 195 130"><defs><style>.cls-1{fill:#90c0f0;}.cls-2{fill:#74767f;}.cls-3{opacity:0.8;}.cls-4{fill:#fff;}</style></defs><rect id="bg" class="cls-1" x="43" y="16" width="109" height="98"/><path class="cls-2" d="M68.37,90.68a1.46,1.46,0,0,1-.26.8,2.68,2.68,0,0,1-.65.65L65,93.85l-.22.17-.29.2-.27.17a1.66,1.66,0,0,1-.31.14.68.68,0,0,1-.27,0h0a.63.63,0,0,1-.26,0,1.66,1.66,0,0,1-.31-.14l-.27-.17-.29-.2-.22-.17-1.4-1-1.08-.76a2.55,2.55,0,0,1-.62-.61,1.24,1.24,0,0,1-.3-.73,1.14,1.14,0,0,1,.22-.69.77.77,0,0,1,.63-.27h7.82a.78.78,0,0,1,.59.25A.79.79,0,0,1,68.37,90.68Zm-.54,2a3,3,0,0,0,.54-.46v4.21a.86.86,0,0,1-.25.6.82.82,0,0,1-.6.25H59.7a.82.82,0,0,1-.6-.25.86.86,0,0,1-.25-.6V92.24a3.45,3.45,0,0,0,.54.46Q61.31,94,62,94.53l.49.35a3.29,3.29,0,0,0,.5.25,1.46,1.46,0,0,0,.58.13h0a1.47,1.47,0,0,0,.59-.13,3.85,3.85,0,0,0,.5-.25l.49-.35q.9-.66,2.64-1.83Z"/><path class="cls-2" d="M68.19,80.84a.46.46,0,0,1,0,.14,2.58,2.58,0,0,1-.07.46,1.9,1.9,0,0,1-.14.44,1.74,1.74,0,0,1-.79.7,2.57,2.57,0,0,1-1.22.33l-.34,0-.38-.09L65,82.71l-.36-.13-.32-.12a5.73,5.73,0,0,1-1.14-.54,10.32,10.32,0,0,1-1.73-1.41A9.41,9.41,0,0,1,60,78.78a6,6,0,0,1-.55-1.14s-.05-.15-.11-.32-.11-.3-.14-.36l-.09-.31a2.16,2.16,0,0,1-.08-.38,1.87,1.87,0,0,1,0-.34,2.48,2.48,0,0,1,.34-1.22,1.68,1.68,0,0,1,.69-.79,2.2,2.2,0,0,1,.45-.14,2.23,2.23,0,0,1,.46-.06.24.24,0,0,1,.13,0c.08,0,.2.19.35.49,0,.08.11.2.19.35l.23.42.21.35.11.16a2.38,2.38,0,0,1,.14.23.49.49,0,0,1,0,.19c0,.09-.07.19-.19.33a2.64,2.64,0,0,1-.4.35,3.58,3.58,0,0,0-.41.35c-.12.12-.19.22-.19.3a.34.34,0,0,0,0,.15l0,.13.09.16.08.12a6.29,6.29,0,0,0,2.67,2.67l.12.08.16.09.13.06.15,0a.47.47,0,0,0,.3-.19,4.55,4.55,0,0,0,.35-.4,3.52,3.52,0,0,1,.36-.41.55.55,0,0,1,.32-.18.43.43,0,0,1,.19,0l.23.14a1.46,1.46,0,0,1,.16.12l.35.2.42.23.35.19c.31.16.47.27.5.35Z"/><path class="cls-2" d="M67,48.37a2.83,2.83,0,0,1-.21,1.18l-2.4,5.11a.87.87,0,0,1-.32.34.83.83,0,0,1-.44.12.89.89,0,0,1-.45-.12.82.82,0,0,1-.3-.34l-2.41-5.11a2.83,2.83,0,0,1-.21-1.18A3.37,3.37,0,0,1,66,46,3.27,3.27,0,0,1,67,48.37Zm-2.18,1.2a1.68,1.68,0,0,0,0-2.39,1.69,1.69,0,0,0-2.38,0,1.68,1.68,0,0,0,0,2.39,1.69,1.69,0,0,0,2.38,0Z"/><g class="cls-3"><rect id="p" class="cls-4" x="80" y="48" width="49" height="2"/><rect id="p-2" data-name="p" class="cls-4" x="80" y="56" width="49" height="2"/><rect id="p-3" data-name="p" class="cls-4" x="80" y="64" width="19" height="2"/></g><g class="cls-3"><rect id="p-4" data-name="p" class="cls-4" x="80" y="78" width="38" height="2"/></g><g class="cls-3"><rect id="p-5" data-name="p" class="cls-4" x="80" y="92" width="38" height="2"/></g><rect id="p-6" data-name="p" class="cls-4" x="60" y="31" width="38" height="3"/></svg>