<svg id="th_color" xmlns="http://www.w3.org/2000/svg" viewBox="0 0 195 130"><defs><style>.cls-1{fill:#bcbcbc;}.cls-2{fill:none;stroke:#90c0f0;stroke-linejoin:round;}</style></defs><rect id="p" class="cls-1" x="50" y="51" width="40" height="3"/><polygon id="icon" class="cls-2" points="35.23 44.22 37.15 49.75 43 49.87 38.34 53.4 40.03 59 35.23 55.66 30.43 59 32.12 53.4 27.46 49.87 33.31 49.75 35.23 44.22"/><rect id="p-2" data-name="p" class="cls-1" x="127" y="51" width="35" height="3"/><polygon id="icon-2" data-name="icon" class="cls-2" points="112.23 44.22 114.15 49.75 120 49.87 115.34 53.4 117.03 59 112.23 55.66 107.43 59 109.12 53.4 104.46 49.87 110.31 49.75 112.23 44.22"/><rect id="p-3" data-name="p" class="cls-1" x="50" y="75" width="23" height="3"/><polygon id="icon-3" data-name="icon" class="cls-2" points="35.23 68.22 37.15 73.75 43 73.87 38.34 77.4 40.03 83 35.23 79.66 30.43 83 32.12 77.4 27.46 73.87 33.31 73.75 35.23 68.22"/><rect id="p-4" data-name="p" class="cls-1" x="127" y="75" width="27" height="3"/><polygon id="icon-4" data-name="icon" class="cls-2" points="112.23 68.22 114.15 73.75 120 73.87 115.34 77.4 117.03 83 112.23 79.66 107.43 83 109.12 77.4 104.46 73.87 110.31 73.75 112.23 68.22"/></svg>