<svg id="th_color" xmlns="http://www.w3.org/2000/svg" viewBox="0 0 195 130"><defs><style>.cls-1{fill:#90c0f0;}.cls-2{opacity:0.8;}.cls-3{fill:#fff;}.cls-4{fill:#74767f;}</style></defs><rect id="bg" class="cls-1" x="43" y="16" width="109" height="98"/><g class="cls-2"><rect id="p" class="cls-3" x="80" y="79" width="48" height="2"/><rect id="p-2" data-name="p" class="cls-3" x="80" y="65" width="48" height="2"/><rect id="p-3" data-name="p" class="cls-3" x="80" y="51" width="48" height="2"/><rect id="p-4" data-name="p" class="cls-3" x="80" y="93" width="28" height="2"/></g><rect id="p-5" data-name="p" class="cls-3" x="60" y="31" width="38" height="3"/><path class="cls-4" d="M68.82,49.49a.63.63,0,0,1,0,.88l-4.68,4.68-.88.87a.58.58,0,0,1-.43.18.59.59,0,0,1-.44-.18l-.88-.87-2.34-2.34a.63.63,0,0,1,0-.88l.88-.88a.63.63,0,0,1,.88,0l1.9,1.91,4.23-4.25a.63.63,0,0,1,.88,0l.88.88Z"/><path class="cls-4" d="M68.82,63.49a.63.63,0,0,1,0,.88l-4.68,4.68-.88.87a.58.58,0,0,1-.43.18.59.59,0,0,1-.44-.18l-.88-.87-2.34-2.34a.63.63,0,0,1,0-.88l.88-.88a.63.63,0,0,1,.88,0l1.9,1.91,4.23-4.25a.63.63,0,0,1,.88,0l.88.88Z"/><path class="cls-4" d="M68.82,77.49a.63.63,0,0,1,0,.88l-4.68,4.68-.88.87a.58.58,0,0,1-.43.18.59.59,0,0,1-.44-.18l-.88-.87-2.34-2.34a.63.63,0,0,1,0-.88l.88-.88a.63.63,0,0,1,.88,0l1.9,1.91,4.23-4.25a.63.63,0,0,1,.88,0l.88.88Z"/><path class="cls-4" d="M68.82,91.49a.63.63,0,0,1,0,.88l-4.68,4.68-.88.87a.58.58,0,0,1-.43.18.59.59,0,0,1-.44-.18l-.88-.87-2.34-2.34a.63.63,0,0,1,0-.88l.88-.88a.63.63,0,0,1,.88,0l1.9,1.91,4.23-4.25a.63.63,0,0,1,.88,0l.88.88Z"/></svg>