<svg id="th_color" xmlns="http://www.w3.org/2000/svg" viewBox="0 0 195 130"><defs><style>.cls-1{fill:#bcbcbc;}.cls-2{fill:#74767f;}</style></defs><rect id="p" class="cls-1" x="66" y="71" width="82" height="2"/><rect id="p-2" data-name="p" class="cls-1" x="66" y="57" width="82" height="2"/><rect id="p-3" data-name="p" class="cls-1" x="66" y="43" width="82" height="2"/><rect id="p-4" data-name="p" class="cls-1" x="66" y="85" width="46" height="2"/><path class="cls-2" d="M54.82,41.49a.63.63,0,0,1,0,.88l-4.68,4.68-.88.87a.58.58,0,0,1-.43.18.59.59,0,0,1-.44-.18l-.88-.87-2.34-2.34a.63.63,0,0,1,0-.88l.88-.88a.63.63,0,0,1,.88,0l1.9,1.91,4.23-4.25a.63.63,0,0,1,.88,0l.88.88Z"/><path class="cls-2" d="M54.82,55.49a.63.63,0,0,1,0,.88l-4.68,4.68-.88.87a.58.58,0,0,1-.43.18.59.59,0,0,1-.44-.18l-.88-.87-2.34-2.34a.63.63,0,0,1,0-.88l.88-.88a.63.63,0,0,1,.88,0l1.9,1.91,4.23-4.25a.63.63,0,0,1,.88,0l.88.88Z"/><path class="cls-2" d="M54.82,69.49a.63.63,0,0,1,0,.88l-4.68,4.68-.88.87a.58.58,0,0,1-.43.18.59.59,0,0,1-.44-.18l-.88-.87-2.34-2.34a.63.63,0,0,1,0-.88l.88-.88a.63.63,0,0,1,.88,0l1.9,1.91,4.23-4.25a.63.63,0,0,1,.88,0l.88.88Z"/><path class="cls-2" d="M54.82,83.49a.63.63,0,0,1,0,.88l-4.68,4.68-.88.87a.58.58,0,0,1-.43.18.59.59,0,0,1-.44-.18l-.88-.87-2.34-2.34a.63.63,0,0,1,0-.88l.88-.88a.63.63,0,0,1,.88,0l1.9,1.91,4.23-4.25a.63.63,0,0,1,.88,0l.88.88Z"/></svg>