<svg id="th_color" xmlns="http://www.w3.org/2000/svg" xmlns:xlink="http://www.w3.org/1999/xlink" viewBox="0 0 195 130"><defs><style>.cls-1{fill:none;}.cls-2{clip-path:url(#clip-path);}.cls-3{fill:#e8e8e8;}.cls-4{fill:#c5ebb6;}.cls-5{fill:#d4f1c9;}.cls-6{fill:#cfecff;}.cls-7{fill:#fff;}.cls-8{fill:#f6d067;}.cls-9{fill:#ffeba0;}.cls-10{opacity:0.2;}.cls-11{fill:#ea4335;}.cls-12{fill:#970909;}</style><clipPath id="clip-path"><rect class="cls-1" x="20" y="16" width="155" height="98"/></clipPath></defs><g class="cls-2"><rect class="cls-3" x="19.56" y="15.95" width="155.19" height="98.08"/><polygon class="cls-4" points="70.3 50.42 75.29 52.92 79.03 57.91 81.53 62.9 82.77 71.63 84.02 79.11 95.25 74.12 92.75 67.89 100.67 64.5 98.99 57.91 98.38 48.51 98.22 44.81 100.86 44.81 99.61 27.35 85.27 24.24 84.02 29.22 79.03 37.95 74.93 43.81 70.3 50.42"/><polygon class="cls-5" points="43.15 54.19 30.72 70.24 36.14 74.69 37.08 78.17 52.74 90.1 66.8 82.26 68.5 81.6 67.08 70.11 64.08 62.34 55.74 56 53.22 56.42 51.93 58.55 48.16 56.66 43.15 54.19"/><path class="cls-6" d="M85.42,57.82c2.21,2.32-2.43,4.91-.66,6s3-.05,3.87,0,1.35,1.47,2.31,1.73,4.71-.81,3.9-3.3-3.55-3.39-4.46-3.69-2.53-1.83-1-3.5-4.68-1.72-5.3.56S84.4,56.75,85.42,57.82Z"/><path class="cls-6" d="M92.11,56.47c1.24,1.29,2.29-.2,3.14-1.13s-3.54-1.36-3.89-.09S91.55,55.88,92.11,56.47Z"/><path class="cls-7" d="M68.2,14.66,115.7,16l-4.4,13.27-10.9-2.4,1.94-13.2-1.4-.21L99,26.54l-3.37-.74v0l-9.41-2.05,3.09-7.92L88,15.29l-3.11,8L78.5,20l6-6.65-1-1-6.3,6.93-9-4.63L58.15,31.32l-3.59,5.24L53,38.87l-32.2-21.5L20,18.54,52.14,40,46.53,48.1l-4.92-3.74v0L19.74,29.1l-.81,1.16L40.72,45.5,22.6,68.7l5,4.24-8.72,9.59,1.05,1,8.74-9.63L49.39,91.48c-2.12,1.43-3.67,2.54-3.82,2.64L21.07,115.5l.93,1.07L46.42,95.25c.24-.16,1.9-1.34,4.09-2.82l7.79,6.63A1.42,1.42,0,0,0,58,100a1.2,1.2,0,0,0,.82,1l.4-1.11L66,105.64l-5,3-15.79,8.18.22.42L61.23,109l5.19-3,4.83,4.1-.86-6.42.57-.34,2.56,18.5L90,112.22l.88,5.29L83,122.33l.74,1.2,22.49-13.86L108,120.78l1.4-.22-1.79-11.7,5.45-3.35a1.9,1.9,0,0,0,.8.37l3,18,1.39-.23-3-18a2,2,0,0,0,.33-.24l11.67,11.67-1.38-13.58,4.84-.49-.38-5.12,27.08-2.41,1.29,20.61,1.41-.09-1.29-20.63,15.78-.89-.08-1.41L158.69,94v0h0L154.9,62.34l19.64-.5,0-1.41-19.73.5L154.4,53c10.12-.54,19.32-1.07,20.14-1.11l0-.47c-.2,0-9.68.55-20.14,1.1L154,44.27h20.54V42.86H154.07l1.65-9.64h18.8V31.8H155.83V18h-1.41V31.76l-26.49-1.49.18-12.71-1.42,0-.17,12.65-4.62-.25,1-13.62-5.78-.87L117,12l-.27.82M67.79,70,64.66,61.9l-1.9-1.44,7.72-9.15,4.32,2.15,6,9.68,1,7.08.27,1.69a1.92,1.92,0,0,0-.84,1.59s0,0,0,0l-3.23,1.82c-.08,0-4.39,2.39-9,4.88ZM108,45.1l1.54,18.32.06.64-4.23.31c-1-6-2.31-13.37-2.53-14.65l-.49-4.38Zm45.51,17.29.54,4.53c-6.08,0-16.34.61-25.93,1.15l-.29-3.9C138.59,63.39,149.87,62.6,153.48,62.39ZM106.35,90.54l-1.47.74-.64-4.17,1.84-.48C106.2,88.4,106.3,89.83,106.35,90.54ZM115.78,65l.31,3.71c-1.75.1-3.3.17-4.62.22l-.35-3.59Zm1.35-20.33,2.68-.11,1,18.66-3.64.27Zm3.72,20,.23,3.8-3.57.2-.32-3.74Zm5.55-.4.28,3.88-1.09.07-3.1.17-.23-3.83Zm-19.85,8c0-.19-.07-.78-.2-1.64a14.81,14.81,0,0,1,2-.15l1.86,0,.35,3.55c-.9,0-1.65.06-2.21.06a13.57,13.57,0,0,0-1.69.11C106.59,73.14,106.55,72.45,106.55,72.25Zm5.06-1.88c1.32-.05,2.87-.12,4.6-.22l.3,3.5c-1.7.1-3.24.2-4.55.26Zm-3.27,5.08c.59,0,1.39,0,2.35-.06l.91,9.32-4.16,1.09c-.25-3.59-.53-7.52-.7-10.24A12.29,12.29,0,0,1,108.34,75.45Zm3.76-.13,4.52-.26.64,8.17L113,84.35Zm5.82-1.76-.3-3.48,3.55-.2.21,3.45ZM110.06,69l-1.72,0a16.55,16.55,0,0,0-2.21.16c-.15-1-.34-2.17-.56-3.44l4.14-.3Zm-5.32.43a24.68,24.68,0,0,0-2.78.76l-.49-4.87,2.67.4C104.37,67.15,104.58,68.42,104.74,69.45Zm-4.68-3.92.53,5.17a35.86,35.86,0,0,0-5.68,2.8L84.54,78.11l-.46-2.88a1.93,1.93,0,0,0,1.08-1.73A2.52,2.52,0,0,0,85.1,73l8-4.5Zm-4.53,9.24.09,0a34.07,34.07,0,0,1,5.12-2.55l.37,3.62a28.85,28.85,0,0,0-5.62,3.34L85.79,84l-1-4.44Zm6.58-3.11a25.39,25.39,0,0,1,2.85-.81c.11.75.18,1.25.18,1.4s0,1,.11,2.14a20.81,20.81,0,0,0-2.78.83Zm3.23,4.16c.19,3,.48,7.11.7,10.34l-1.87.48-1.52-10A19.2,19.2,0,0,1,105.34,75.82Zm6.31,9.36.74,7.55-3.34.29-1.26-2.27c-.1-1.3-.21-2.84-.32-4.48Zm.88,9,.38,3.87-1,.09-2.07-3.73Zm1.41-.12,4.13-.35.3,3.85-4.05.36Zm-.14-1.41L113,84.82l4.25-1.12.67,8.56Zm4.88-9.27,3.59-1,1,9.44-3.86.33Zm3.54-1.45-3.57,1L118,75l3.46-.22Zm.57-8.66-.21-3.43,3.09-.17,1.12-.07.25,3.38L125.7,73Zm5.41-3.75c9.64-.54,20-1.11,26-1.15l.37,3.14c-6,0-16.39.72-26.12,1.38Zm-1.86-6.63-4.16.3-1-18.63,5.12-.22Zm-9.19-19.56.33-12.19,2.92.17-.59,11.9Zm-1.42.06-6.1.26,2.71-12.8,3.73.21Zm0,1.41V63.62L111,64l-.06-.67L109.38,45Zm-14.31,5.16c.77,4.36,1.73,9.88,2.48,14.36l-2.66-.41L99.69,57.8l-.6-9.32-.13-3,2-.09Zm-3.89-5,.15,3.66.61,9.4,1.56,6.14-7.37,3.15-8.21,4.63a1.94,1.94,0,0,0-.75-.28L83.26,70l-1.05-7.36L75.78,52.38l-4.46-2.23L84.61,29.61l.07-.1,1.11-4.44L94.41,27ZM83.36,28.94,70.08,49.46l-7-4.34,14.58-24,6.83,3.51ZM67.91,82.46l1.55,10.13-.52.28L67.57,82.65Zm1.33-.71c4.82-2.58,9.43-5.1,9.52-5.14l3.09-1.75a2,2,0,0,0,.82.48l.55,3.45-5.77,3.62.76,1.2,5.31-3.35,1,4.37-3.93,2c-.08,0-4.86,2.66-9.78,5.29Zm12,6.1,3.58-1.79,1.83,8.2-11,5.79-3.39,2L71,93.37C76.08,90.65,81.15,87.89,81.22,87.85Zm4.89-2.45,10.07-5,.13-.08a29.29,29.29,0,0,1,5-3L102.79,87l-4.62,1.2L87.92,93.58Zm12.2,3.25,4.55-1.18.69,4.48L89.17,99.21,88,94.05Zm5.46,4.77,1.28,8.35L91,110l-1.56-9.31Zm1.33-.67,1.7-.86,3.72,6.69L106.36,101Zm8,6.66.1,1-.53-1Zm2.92,3.64a2,2,0,0,0-1.24-1l-.27-2.75,4-.36.3,3.84Zm2.91,1.13.22,2.77-2.54-2.54Zm1-5.38,4-.35.39,3.77-4.11.41Zm-.11-1.41-.3-3.84,3.9-.34.39,3.83Zm5-4.3,3.71-.37.29,3.87-3.61.32Zm-.14-1.41-1.74-17,2.9-.2,1.34-.09,1.25,17Zm3.91-17.42c9.79-.67,20.24-1.35,26.18-1.38l1.86,15.66L129.8,91.17ZM153.36,61c-3.68.22-14.88,1-25.61,1.77V54.13H128c3.65,0,14.62-.53,25-1.07Zm-25.61-7.32V44.27h24.81l.4,8.32C142.32,53.15,131.07,53.68,127.75,53.66Zm26.54-20.49-1.65,9.69H127.76l.16-11.17Zm-27.94,9.72-5.13.22.59-11.76,4.69.26Zm-5-25.37-.9,12.34-3-.17-.33-12.81Zm-5.57,2.59.25,9.5-3.34-.19Zm-4.91,10.62-2.74,13-6,.25L100.43,28.3l10.42,2.3,0,.13ZM99,28l1.78,16-1.94.08L95.91,27.3ZM55.72,37.36l3.62-5.28,9.42-15.55,7.6,3.92L61.83,44.37l-7.69-4.74Zm-2.39,3.43,15.9,9.81-7.59,9L47.65,49ZM41.87,46.33l3.85,2.93-3.13,4.49-12.42,16-1.66,2.06-4-3.36ZM29.58,72.78l1.7-2.11L43.73,54.59l3.11-4.47L63.49,62.79l2.9,7.49L67.71,81c-3.22,1.72-6.42,3.42-8.32,4.37a91.94,91.94,0,0,0-8.78,5.32ZM60,86.6c1.48-.74,3.76-1.94,6.22-3.24l1.37,10.22c-2.27,1.2-4.35,2.29-5.73,3a18.14,18.14,0,0,0-2.57,1.5l-7.58-6.44A87.84,87.84,0,0,1,60,86.6ZM60.43,99a18.25,18.25,0,0,1,2.08-1.19c1.3-.64,3.2-1.64,5.3-2.75L69,103.91l-1.66,1Zm8.93,7.6-1.64-1.4,1.34-.79Zm1-3.47-1.18-8.78.54-.28,1.21,8.73Zm4.31,16.39-2.35-17,3.55-2.08,10.9-5.73L88,100.38l1.72,10.35Zm17.51-2.82-.88-5.25,14-8.18.74,4.87Zm14.45-14.2,4.62-2.69,1.5,2.7,0,.08a2,2,0,0,0-.53,1.34,2.21,2.21,0,0,0,0,.37l-4.93,3Zm18.82,10.75-4.78-4.77-.34-4.45,4.14-.41Zm3.75-11.53-3.47.35-.38-3.76,3.57-.32Zm.74-9.15L156.75,90l.49,4.11-27.05,2.41Z"/><path class="cls-5" d="M131.21,77.75c-1.9,1.29-.94,5.42-.24,6.71a7.22,7.22,0,0,0,3.66,3.07c1.41.47,4.36.23,5.89,0a6.86,6.86,0,0,1,3.65.27c1.77.43,8.48,1.75,8.6-1.56s.23-4.84-1.3-5.55a6.08,6.08,0,0,1-3.53-3.3c-.59-1.64-5.66-2-7.31,0s-5.77,3.27-6.47,1.72S133.11,76.45,131.21,77.75Z"/><path class="cls-8" d="M20.49,75.39l-2.31-1.64,4.28-6L40.67,44.42c2-2.36,7.47-9.31,7.91-13.13.57-5,.58-7.32.58-7.34H52a76.4,76.4,0,0,1-.6,7.66c-.62,5.34-7.63,13.57-8.56,14.64L24.71,69.44Z"/><path class="cls-8" d="M80.6,116.21c-1.28-9.91-2-15.94-2.46-20.33-.32-2.85-.57-5.09-.86-7.27-1-7.81-3-12.78-6.59-16.61C68,69.11,63.8,64.2,63.1,63.38l-3.75-2.86c-2.85-2.17-4.91-3.74-6.45-13.09-.23-1.43-4.64-29-4.69-29.25l2.8-.45c0,.28,4.45,27.82,4.68,29.24,1.35,8.25,2.78,9.33,5.37,11.3l4,3,.1.12c0,.06,4.7,5.54,7.59,8.64,4,4.23,6.22,9.84,7.33,18.17.29,2.21.55,4.46.87,7.32.5,4.39,1.18,10.4,2.45,20.29Z"/><path class="cls-9" d="M80.48,95.61c-.32-2.85-.58-5.11-.87-7.31-1.09-8.23-3.32-13.75-7.2-17.91-2.9-3.11-7.57-8.6-7.61-8.66l-4-3.08c-2.59-2-4.16-3.17-5.54-11.61-.24-1.41-4.64-29-4.69-29.24l-1.86.3c0,.08.4,2.52,1,5.95,0,.51-.07,2.88-.58,7.29-.55,4.76-7.95,13.3-8,13.39L22.81,68.05l-4.24,6,1.53,1.09,4.22-5.93L42.47,46c.49-.57,7.59-8.84,8.41-14.12,1.16,7.25,2.37,14.79,2.49,15.52,1.5,9.17,3.39,10.61,6.26,12.8L63.43,63c.58.69,4.86,5.71,7.6,8.65,3.65,3.9,5.66,8.95,6.71,16.87.29,2.18.55,4.43.87,7.27.5,4.4,1.18,10.42,2.46,20.33l1.87-.24C81.66,106,81,100,80.48,95.61Z"/><rect id="bg" class="cls-1" x="38" y="24" width="111" height="76"/><path class="cls-10" d="M115.14,67.67c-2.28,1.72-12.75,3.74-15.5,5.81,2.75-2.07-2.19-4.2.09-5.91s7.57-3.07,11.83-3S117.42,66,115.14,67.67Z"/><path class="cls-11" d="M107.82,57c0,4.7-8.5,10.39-8.5,16.06,0-5.67-8.5-11.36-8.5-16.06a8.5,8.5,0,0,1,17,0Z"/><circle class="cls-12" cx="99.32" cy="57.02" r="3.5"/></g></svg>