<svg id="th_color" xmlns="http://www.w3.org/2000/svg" viewBox="0 0 195 130"><defs><style>.cls-1{fill:#c6c8ce;}.cls-2{fill:#74767f;}.cls-3{fill:#bcbcbc;}.cls-4{fill:#e8e8e8;}</style></defs><rect id="bg" class="cls-1" x="19" y="29" width="47" height="41"/><rect id="h" class="cls-2" x="19" y="81" width="32" height="3"/><rect id="p" class="cls-3" x="19" y="74" width="15" height="2"/><rect id="p-2" data-name="p" class="cls-3" x="19" y="89" width="45" height="2"/><rect id="p-3" data-name="p" class="cls-3" x="19" y="95" width="31" height="2"/><rect class="cls-4" x="19" y="103" width="5" height="5"/><rect class="cls-4" x="27" y="103" width="5" height="5"/><rect class="cls-4" x="35" y="103" width="5" height="5"/><rect id="bg-2" data-name="bg" class="cls-1" x="74" y="29" width="47" height="41"/><rect id="h-2" data-name="h" class="cls-2" x="74" y="81" width="32" height="3"/><rect id="p-4" data-name="p" class="cls-3" x="74" y="74" width="15" height="2"/><rect id="p-5" data-name="p" class="cls-3" x="74" y="89" width="45" height="2"/><rect id="p-6" data-name="p" class="cls-3" x="74" y="95" width="31" height="2"/><rect class="cls-4" x="74" y="103" width="5" height="5"/><rect class="cls-4" x="82" y="103" width="5" height="5"/><rect class="cls-4" x="90" y="103" width="5" height="5"/><rect id="bg-3" data-name="bg" class="cls-1" x="129" y="29" width="47" height="41"/><rect id="h-3" data-name="h" class="cls-2" x="129" y="81" width="32" height="3"/><rect id="p-7" data-name="p" class="cls-3" x="129" y="74" width="15" height="2"/><rect id="p-8" data-name="p" class="cls-3" x="129" y="89" width="45" height="2"/><rect id="p-9" data-name="p" class="cls-3" x="129" y="95" width="31" height="2"/><rect class="cls-4" x="129" y="103" width="5" height="5"/><rect class="cls-4" x="137" y="103" width="5" height="5"/><rect class="cls-4" x="145" y="103" width="5" height="5"/></svg>