<svg id="th_color" xmlns="http://www.w3.org/2000/svg" viewBox="0 0 195 130"><defs><style>.cls-1{fill:#c6c8ce;}.cls-2{fill:#bcbcbc;}.cls-3{fill:#90c0f0;}</style></defs><rect id="bg" class="cls-1" x="21" y="15" width="47" height="38"/><rect id="bg-2" data-name="bg" class="cls-1" x="74" y="15" width="47" height="38"/><rect id="bg-3" data-name="bg" class="cls-1" x="127" y="15" width="47" height="38"/><rect id="bg-4" data-name="bg" class="cls-1" x="21" y="68" width="47" height="38"/><rect id="bg-5" data-name="bg" class="cls-1" x="74" y="68" width="47" height="38"/><rect id="bg-6" data-name="bg" class="cls-1" x="127" y="68" width="47" height="38"/><rect id="p" class="cls-2" x="21" y="57" width="22" height="2"/><rect id="p-2" data-name="p" class="cls-3" x="66" y="57" width="2" height="2"/><rect id="p-3" data-name="p" class="cls-2" x="74" y="57" width="22" height="2"/><rect id="p-4" data-name="p" class="cls-3" x="119" y="57" width="2" height="2"/><rect id="p-5" data-name="p" class="cls-2" x="127" y="57" width="22" height="2"/><rect id="p-6" data-name="p" class="cls-3" x="172" y="57" width="2" height="2"/><rect id="p-7" data-name="p" class="cls-2" x="21" y="110" width="22" height="2"/><rect id="p-8" data-name="p" class="cls-3" x="66" y="110" width="2" height="2"/><rect id="p-9" data-name="p" class="cls-2" x="74" y="110" width="22" height="2"/><rect id="p-10" data-name="p" class="cls-3" x="119" y="110" width="2" height="2"/><rect id="p-11" data-name="p" class="cls-2" x="127" y="110" width="22" height="2"/><rect id="p-12" data-name="p" class="cls-3" x="172" y="110" width="2" height="2"/></svg>