<svg id="th_color" xmlns="http://www.w3.org/2000/svg" viewBox="0 0 195 130"><defs><style>.cls-1{fill:#e8e8e8;}.cls-2{fill:#c6c8ce;}.cls-3{fill:#74767f;}.cls-4{fill:#bcbcbc;}</style></defs><path class="cls-1" d="M65.81,59.26q0-3.25,3.65-3.26c2.42,0,3.64,1.09,3.64,3.26a10.36,10.36,0,0,1-1.46,5.34,12.52,12.52,0,0,1-3.51,3.92l-1.8-1.12a9,9,0,0,0,1.41-4.63,4.4,4.4,0,0,0,0-.64,2.47,2.47,0,0,1-1.35-1.05A3.17,3.17,0,0,1,65.81,59.26Zm9.3,0q0-3.25,3.65-3.26t3.64,3.26A10.35,10.35,0,0,1,81,64.6a12.66,12.66,0,0,1-3.52,3.92l-1.8-1.12A9,9,0,0,0,77,62.77a4.4,4.4,0,0,0,0-.64,2.54,2.54,0,0,1-1.35-1.05A3.17,3.17,0,0,1,75.11,59.26Z"/><rect id="bg" class="cls-2" x="19" y="43" width="41" height="43"/><rect id="h" class="cls-3" x="71" y="49" width="32" height="3"/><rect id="p" class="cls-4" x="71" y="62" width="109" height="2"/><rect id="p-2" data-name="p" class="cls-4" x="71" y="70" width="109" height="2"/><rect id="p-3" data-name="p" class="cls-4" x="71" y="78" width="57" height="2"/></svg>