<svg id="th_color" xmlns="http://www.w3.org/2000/svg" viewBox="0 0 195 130"><defs><style>.cls-1{fill:#74767f;}.cls-2{fill:#bcbcbc;}.cls-3{fill:#e8e8e8;}.cls-4{fill:#c6c8ce;}</style></defs><rect id="h" class="cls-1" x="86" y="85" width="23" height="2"/><rect id="h-2" data-name="h" class="cls-2" x="81" y="93" width="33" height="2"/><path class="cls-3" d="M33.81,54.1c0-2.91,1.63-4.36,4.87-4.36s4.88,1.45,4.88,4.36a13.79,13.79,0,0,1-2,7.14,16.87,16.87,0,0,1-4.7,5.24L34.5,65a12,12,0,0,0,1.89-6.19,5.81,5.81,0,0,0-.06-.86,3.41,3.41,0,0,1-1.8-1.41A4.19,4.19,0,0,1,33.81,54.1Zm12.44,0q0-4.37,4.88-4.36c3.24,0,4.87,1.45,4.87,4.36a13.79,13.79,0,0,1-2,7.14,16.87,16.87,0,0,1-4.7,5.24L46.94,65a12,12,0,0,0,1.89-6.19,7.66,7.66,0,0,0,0-.86A3.39,3.39,0,0,1,47,56.53,4.19,4.19,0,0,1,46.25,54.1Z"/><rect id="p" class="cls-2" x="40" y="58" width="115" height="2"/><rect id="p-2" data-name="p" class="cls-2" x="40" y="66" width="115" height="2"/><rect id="p-3" data-name="p" class="cls-2" x="64" y="74" width="67" height="2"/><circle class="cls-4" cx="97.5" cy="38.5" r="11.5"/><rect class="cls-3" x="170" y="61" width="7" height="7"/><rect class="cls-3" x="18" y="61" width="7" height="7"/></svg>