<svg id="th_color" xmlns="http://www.w3.org/2000/svg" viewBox="0 0 195 130"><defs><style>.cls-1{fill:#f9f9f9;}.cls-2{fill:#e8e8e8;}.cls-3{fill:#fff;}.cls-4{fill:#c6c8ce;}.cls-5{font-size:10px;}.cls-5,.cls-6,.cls-7,.cls-9{fill:#74767f;}.cls-5,.cls-7{font-family:Verdana;}.cls-6{font-size:10.94px;font-family:TimesNewRomanPS-ItalicMT, Times New Roman;font-style:italic;}.cls-7{font-size:8.78px;}.cls-8{fill:#90c0f0;}</style></defs><rect id="bg" class="cls-1" x="26" y="87" width="143" height="23"/><rect id="bg-2" data-name="bg" class="cls-2" x="120" y="91" width="15" height="15"/><rect id="bg-3" data-name="bg" class="cls-3" x="45" y="76" width="15" height="45" transform="translate(-46 151) rotate(-90)"/><rect class="cls-4" x="34" y="97" width="25" height="3"/><polygon class="cls-4" points="69.5 100 67 97 72 97 69.5 100"/><rect id="bg-4" data-name="bg" class="cls-2" x="75" y="91" width="15" height="15" transform="translate(-16 181) rotate(-90)"/><text class="cls-5" transform="translate(79 102.16)">B</text><text class="cls-6" transform="translate(96.11 102.09)">l</text><text class="cls-7" transform="translate(109 100.84)">A</text><rect class="cls-8" x="109" y="102" width="6" height="1"/><rect class="cls-9" x="155" y="95" width="7" height="1"/><rect class="cls-9" x="153" y="99" width="9" height="1"/><rect class="cls-9" x="153" y="97" width="9" height="1"/><rect class="cls-9" x="157" y="101" width="5" height="1"/><rect class="cls-9" x="123" y="95" width="7" height="1"/><rect class="cls-9" x="123" y="99" width="9" height="1"/><rect class="cls-9" x="123" y="97" width="9" height="1"/><rect class="cls-9" x="123" y="101" width="5" height="1"/><rect class="cls-9" x="139" y="95" width="7" height="1"/><rect class="cls-9" x="138" y="99" width="9" height="1"/><rect class="cls-9" x="138" y="97" width="9" height="1"/><rect class="cls-9" x="140" y="101" width="5" height="1"/><g id="themecolor"><path class="cls-8" d="M117.93,26l.55,11.73h-1.4A14.09,14.09,0,0,0,116,33.3a7.35,7.35,0,0,0-3-3.15,10.54,10.54,0,0,0-5-1h-7v38.2q0,4.62,1,5.76a5.53,5.53,0,0,0,4.31,1.55h1.73V76H86.73V74.64H88.5q3.18,0,4.5-1.92c.54-.79.81-2.58.81-5.39V29.13h-6a16.94,16.94,0,0,0-5,.52,6.87,6.87,0,0,0-3.28,2.69,10.88,10.88,0,0,0-1.62,5.39h-1.4L77.11,26Z"/></g></svg>