<?xml version="1.0" encoding="UTF-8"?><svg id="Layer_4" xmlns="http://www.w3.org/2000/svg" viewBox="0 0 180 60"><defs><style>.cls-1{fill:#fff;}</style></defs><path class="cls-1" d="M113.42,13.08h-31.81c-1.1,0-2,.9-2,2s.9,2,2,2h29.81v20.94l-5.07-3.95c-2.09-1.63-5-1.63-7.08,0l-3.32,2.59c-.64,.5-1.53,.5-2.17,0l-9.5-7.41c-2.09-1.63-5-1.62-7.08,0l-6.6,5.15v-4.29c0-1.1-.9-2-2-2s-2,.9-2,2v19.92c0,1.1,.9,2,2,2h44.83c1.1,0,2-.9,2-2V15.08c0-1.1-.9-2-2-2Zm-42.83,34.94v-8.55l9.06-7.06c.64-.5,1.53-.5,2.17,0l9.5,7.41c2.09,1.63,5,1.63,7.08,0l3.32-2.59c.64-.5,1.53-.5,2.17,0l7.53,5.87v4.93h-40.83Z"/><path class="cls-1" d="M97.87,30.67c1.72,0,3.13-1.39,3.13-3.09s-1.41-3.09-3.13-3.09-3.13,1.39-3.13,3.09,1.41,3.09,3.13,3.09Z"/><path class="cls-1" d="M71.75,25.06c2.47-.9,4.44-2.71,5.55-5.09,1.11-2.38,1.23-5.05,.33-7.52-.9-2.47-2.71-4.44-5.09-5.55-2.38-1.11-5.05-1.22-7.52-.33-.88,.32-1.69,.76-2.43,1.3-.4-.58-1.09-.94-1.83-.87-1.1,.11-1.91,1.08-1.8,2.18l.33,3.51s0,.04,.01,.06c0,.07,.03,.14,.04,.22,.01,.06,.03,.12,.04,.17,.02,.07,.06,.14,.09,.2,.02,.05,.05,.11,.07,.16,.04,.07,.09,.13,.13,.19,.03,.04,.06,.09,.1,.13,.05,.06,.11,.11,.17,.16,.04,.03,.07,.08,.11,.11,0,0,0,0,.01,0,.11,.08,.23,.16,.36,.22,.05,.02,.1,.03,.14,.05,.04,.01,.08,.03,.11,.04,.19,.06,.38,.09,.57,.09,0,0,.01,0,.02,0,.08,0,.16,0,.23-.02,.03,0,.06,0,.09,0,0,0,0,0,0,0l3.48-.57c1.09-.18,1.83-1.21,1.65-2.3-.08-.46-.31-.86-.64-1.15,1.47-.63,3.19-.66,4.75,.07,1.41,.66,2.48,1.83,3.02,3.29,.53,1.46,.46,3.05-.19,4.46-.66,1.41-1.83,2.48-3.29,3.02-1.47,.53-3.05,.46-4.46-.19-.9-.42-1.68-1.06-2.26-1.86-.65-.89-1.9-1.09-2.79-.45-.89,.65-1.09,1.9-.45,2.79,.98,1.35,2.29,2.43,3.81,3.14,1.32,.62,2.73,.93,4.15,.93,1.13,0,2.27-.2,3.37-.6Z"/></svg>