<svg xmlns="http://www.w3.org/2000/svg" xmlns:xlink="http://www.w3.org/1999/xlink" viewBox="0 0 210 60"><defs><style>.a{fill:none;}.b{clip-path:url(#a);}.c,.d,.e,.f,.g{fill-rule:evenodd;}.c{fill:url(#b);}.d{fill:url(#c);}.e{fill:url(#d);}.f{fill:#f56f46;}.g{fill:#fff;}</style><clipPath id="a"><rect class="a" y="1.48" width="210" height="57.03"/></clipPath><linearGradient id="b" x1="15.86" y1="-142.92" x2="16.09" y2="-111.78" gradientTransform="matrix(1, 0, 0, -1, 0, -84.29)" gradientUnits="userSpaceOnUse"><stop offset="0" stop-color="#e25d35"/><stop offset="0.26" stop-color="#f56f46"/><stop offset="1" stop-color="#ffd147"/></linearGradient><linearGradient id="c" x1="16" y1="-132.24" x2="16.12" y2="-111.01" xlink:href="#b"/><linearGradient id="d" x1="16.02" y1="-125.88" x2="16.2" y2="-102.44" xlink:href="#b"/></defs><g class="b"><path class="c" d="M23.76,30.91a2.86,2.86,0,0,1-2.54-1.59l-.84-1.88H12l-.84,1.88a2.86,2.86,0,0,1-2.54,1.59H8.22L11.78,58c.18.51.51.51.71,0L16,49.36,19.1,58c.17.51.5.51.7,0l4.11-27.08Z"/><path class="d" d="M20,26.68H12.4l-1.18,2.63a2.87,2.87,0,0,1-2,1.53l2.7,16.73a.39.39,0,0,0,.71,0l3.45-5.24,3.16,5.22a.38.38,0,0,0,.7,0L23,30.8a2.89,2.89,0,0,1-1.76-1.49Z"/><path class="e" d="M21.22,29.31l-5-11.2-5,11.2a3.39,3.39,0,0,1-.66.87l2.08,11.11a.39.39,0,0,0,.59,0L16,37.6l2.78,3.67a.37.37,0,0,0,.6,0L21.68,30A3.46,3.46,0,0,1,21.22,29.31Z"/><path class="f" d="M.19,2.85A.66.66,0,0,1,.88,2h4.4A.78.78,0,0,1,6,2.48L9.19,15.19h.15L15.16,2a.72.72,0,0,1,.64-.42h.68a.63.63,0,0,1,.64.42l5.82,13.2h.15L26.32,2.48A.77.77,0,0,1,27,2H31.4a.66.66,0,0,1,.69.9L25,28.05a.7.7,0,0,1-.68.53h-.6a.73.73,0,0,1-.64-.42L16.2,12.82h-.11L9.26,28.16a.8.8,0,0,1-.65.42H8a.74.74,0,0,1-.69-.53Z"/><path class="f" d="M36,2.65a.71.71,0,0,1,.71-.7h9a8.37,8.37,0,1,1,0,16.73H41.87V27.5a.73.73,0,0,1-.71.71H36.74A.71.71,0,0,1,36,27.5V2.65ZM45.43,13.2a3,3,0,0,0,3-3,2.87,2.87,0,0,0-3-2.78H41.87V13.2Z"/><path class="g" d="M66.37,2.66A.71.71,0,0,1,67.08,2H78.29a8.16,8.16,0,0,1,8.18,8.11c0,3.45-2.28,6.23-5.55,7.54l5.13,9.53a.71.71,0,0,1-.64,1.08h-5a.67.67,0,0,1-.6-.33l-5-9.95H72.23V27.5a.73.73,0,0,1-.71.71H67.06a.7.7,0,0,1-.71-.71Zm11.45,10.5a3,3,0,0,0,2.86-3A2.88,2.88,0,0,0,77.82,7.3H72.28v5.86Z"/><path class="g" d="M103.06,1.57A13.51,13.51,0,1,1,89.6,15.12,13.49,13.49,0,0,1,103.06,1.57Zm0,21a7.51,7.51,0,1,0-7.47-7.47A7.51,7.51,0,0,0,103.06,22.57Z"/><path class="g" d="M132.74,1.57a12.65,12.65,0,0,1,9.08,3.49.71.71,0,0,1,.05,1l-2.92,3a.63.63,0,0,1-.93,0A7.67,7.67,0,0,0,133,7.21a7.48,7.48,0,0,0-7.36,7.73A7.45,7.45,0,0,0,133,22.57a8,8,0,0,0,5-1.79.74.74,0,0,1,1,0l2.92,3.12a.76.76,0,0,1,0,1,12.87,12.87,0,0,1-9.1,3.65,13.52,13.52,0,1,1,0-27Z"/><path class="g" d="M146.35,2.85a.89.89,0,0,1,.91-.9h4.39a.92.92,0,0,1,.91.9v9.86l8.33-10.39A1.23,1.23,0,0,1,161.6,2h4.73A.88.88,0,0,1,167,3.34l-8.78,11,9.57,12.44a.88.88,0,0,1-.71,1.39h-5.17a1.1,1.1,0,0,1-.68-.26l-8.71-11.78V27.3a.93.93,0,0,1-.91.91h-4.4a.89.89,0,0,1-.9-.91Z"/><path class="g" d="M171.6,2.66a.71.71,0,0,1,.7-.71h15.54a.7.7,0,0,1,.71.71V6.75a.71.71,0,0,1-.71.7H177.46V12.1H186a.73.73,0,0,1,.71.7v4.09a.71.71,0,0,1-.71.71h-8.55v5.09h10.38a.7.7,0,0,1,.71.7v4.09a.71.71,0,0,1-.71.71H172.3a.69.69,0,0,1-.7-.71Z"/><path class="g" d="M197,7.45h-5.37a.7.7,0,0,1-.71-.7V2.66a.71.71,0,0,1,.71-.71h16.64a.7.7,0,0,1,.71.71V6.75a.71.71,0,0,1-.71.7h-5.37v20a.73.73,0,0,1-.71.71h-4.51a.72.72,0,0,1-.7-.71Z"/><path class="g" d="M31.2,47.49c1.61,0,2.73-.85,2.73-2.28v0c0-1.27-.83-1.85-2.44-2.24s-1.83-.61-1.83-1.2v0c0-.5.46-.91,1.25-.91a3.18,3.18,0,0,1,1.75.58.62.62,0,0,0,.35.1.63.63,0,0,0,.34-1.16,4.26,4.26,0,0,0-2.42-.7,2.33,2.33,0,0,0-2.61,2.21v0c0,1.41.92,1.89,2.54,2.28,1.42.33,1.73.62,1.73,1.17v0c0,.57-.53,1-1.36,1a3.31,3.31,0,0,1-2.13-.78.65.65,0,0,0-1,.5.63.63,0,0,0,.26.51,4.79,4.79,0,0,0,2.87,1Zm9.27-5.27a.67.67,0,0,0-1.33,0v2.65a1.27,1.27,0,0,1-1.29,1.42c-.79,0-1.24-.5-1.24-1.4V42.22a.66.66,0,0,0-1.32,0v3.07a2,2,0,0,0,2.05,2.21,2.07,2.07,0,0,0,1.8-1v.29a.67.67,0,0,0,1.34,0V42.22Zm1.65,6.31V42.22a.66.66,0,0,1,1.32,0v.36a2.32,2.32,0,0,1,2-1.08,2.76,2.76,0,0,1,2.67,3v0a2.76,2.76,0,0,1-2.67,3,2.38,2.38,0,0,1-2-1v2a.66.66,0,0,1-1.32,0Zm3-2.17a1.69,1.69,0,0,0,1.65-1.85v0a1.71,1.71,0,0,0-1.65-1.84,1.74,1.74,0,0,0-1.68,1.84v0A1.75,1.75,0,0,0,45.09,46.36Zm5.35-2.26h3a1.5,1.5,0,0,0-1.46-1.52A1.55,1.55,0,0,0,50.44,44.1Zm3.72,2.65a3,3,0,0,1-2.08.76,2.87,2.87,0,0,1-2.95-3v0a2.85,2.85,0,0,1,2.81-3,2.73,2.73,0,0,1,2.74,2.84.61.61,0,0,1-.62.63H50.45a1.6,1.6,0,0,0,1.65,1.46,2.05,2.05,0,0,0,1.37-.5.53.53,0,0,1,.86.42A.61.61,0,0,1,54.16,46.75Zm1.87,0a.66.66,0,0,0,1.32,0v-1.7a2,2,0,0,1,1.58-2.25.65.65,0,0,0-.13-1.28,1.83,1.83,0,0,0-1.45,1.26v-.59a.66.66,0,1,0-1.32,0Zm4.49-6.64a.76.76,0,0,0,1.5,0v-.07a.76.76,0,0,0-1.5,0Zm.09,6.64a.66.66,0,0,0,1.32,0V42.22a.66.66,0,0,0-1.32,0Zm5.79.73a3,3,0,0,1-3.06-3v0a3,3,0,0,1,3.08-3,3,3,0,0,1,3.06,3v0a3,3,0,0,1-3.08,3Zm0-1.15a1.73,1.73,0,0,0,1.74-1.83v0a1.78,1.78,0,0,0-1.76-1.85,1.73,1.73,0,0,0-1.74,1.83v0a1.78,1.78,0,0,0,1.76,1.85Zm4.41.42a.65.65,0,0,0,.65.66.67.67,0,0,0,.67-.66v-1.7c0-1.36.64-2.08,1.58-2.25a.65.65,0,0,0-.13-1.28,1.81,1.81,0,0,0-1.45,1.26v-.59a.66.66,0,0,0-.67-.66.64.64,0,0,0-.65.66Zm9.72.15a.75.75,0,0,0,.7.56h.13a.73.73,0,0,0,.69-.56l1.71-5,1.7,5a.73.73,0,0,0,.69.56h.13a.76.76,0,0,0,.7-.56l2.25-6.32a.68.68,0,0,0,.07-.28.66.66,0,0,0-.67-.64.69.69,0,0,0-.65.48l-1.76,5.26L84.52,40.2a.71.71,0,0,0-.68-.53h-.1a.71.71,0,0,0-.67.53l-1.73,5.23-1.75-5.25a.69.69,0,0,0-.67-.49.67.67,0,0,0-.69.66.82.82,0,0,0,.06.26l2.26,6.33Zm12.23.58a3,3,0,0,1-3.06-3v0a3,3,0,0,1,3.08-3,3,3,0,0,1,3.07,3v0a3,3,0,0,1-3.09,3Zm0-1.15a1.73,1.73,0,0,0,1.75-1.83v0a1.78,1.78,0,0,0-1.77-1.85A1.73,1.73,0,0,0,91,44.49v0a1.78,1.78,0,0,0,1.76,1.85Zm4.41.42a.65.65,0,0,0,.65.66.67.67,0,0,0,.67-.66v-1.7c0-1.36.64-2.08,1.58-2.25a.65.65,0,0,0-.13-1.28,1.81,1.81,0,0,0-1.45,1.26v-.59a.66.66,0,0,0-.67-.66.64.64,0,0,0-.65.66Zm10-6.76v6.76a.65.65,0,0,1-.65.66.66.66,0,0,1-.67-.66v-.36a2.29,2.29,0,0,1-2,1.08,2.76,2.76,0,0,1-2.67-3v0a2.75,2.75,0,0,1,2.67-3,2.33,2.33,0,0,1,2,1V40a.66.66,0,1,1,1.32,0Zm-3,2.63a1.69,1.69,0,0,0-1.66,1.84v0a1.71,1.71,0,0,0,1.66,1.85,1.73,1.73,0,0,0,1.66-1.85v0A1.72,1.72,0,0,0,104.25,42.65ZM109,46.77V40.42a.67.67,0,0,1,.68-.67H112c1.78,0,2.9,1,2.9,2.55v0c0,1.71-1.38,2.61-3.06,2.61h-1.51v1.84a.68.68,0,0,1-1.35,0Zm1.35-3.05h1.56c1,0,1.65-.57,1.65-1.37v0c0-.89-.65-1.36-1.65-1.36h-1.56Zm5.79,3.06a.66.66,0,1,0,1.32,0v-1.7c0-1.36.64-2.08,1.58-2.25a.65.65,0,0,0-.13-1.28,1.83,1.83,0,0,0-1.45,1.26v-.59a.66.66,0,1,0-1.32,0Zm5.3-2.68h3A1.5,1.5,0,0,0,123,42.58,1.56,1.56,0,0,0,121.46,44.1Zm3.72,2.65a2.93,2.93,0,0,1-2.07.76,2.88,2.88,0,0,1-3-3v0a2.87,2.87,0,0,1,2.82-3,2.73,2.73,0,0,1,2.74,2.84.62.62,0,0,1-.62.63h-3.62a1.61,1.61,0,0,0,1.66,1.46,2.05,2.05,0,0,0,1.37-.5.49.49,0,0,1,.33-.12.52.52,0,0,1,.53.54A.58.58,0,0,1,125.18,46.75Zm3.85.74c1.2,0,2.14-.6,2.14-1.81v0c0-1-.95-1.42-1.79-1.68-.67-.22-1.29-.39-1.29-.82v0c0-.33.29-.57.8-.57a3.14,3.14,0,0,1,1.36.39.44.44,0,0,0,.26.07.53.53,0,0,0,.54-.54.57.57,0,0,0-.31-.5,4,4,0,0,0-1.81-.47,1.85,1.85,0,0,0-2.06,1.76v0c0,1.1.95,1.45,1.8,1.69.68.21,1.29.36,1.29.81v0c0,.38-.33.62-.89.62a3,3,0,0,1-1.66-.55.54.54,0,0,0-.28-.08.53.53,0,0,0-.54.54.5.5,0,0,0,.25.45,3.93,3.93,0,0,0,2.19.69Zm5.36,0c1.2,0,2.14-.6,2.14-1.81v0c0-1-.95-1.42-1.79-1.68-.68-.22-1.3-.39-1.3-.82v0c0-.33.3-.57.81-.57a3.14,3.14,0,0,1,1.35.39.46.46,0,0,0,.26.07.53.53,0,0,0,.55-.54.56.56,0,0,0-.32-.5,4,4,0,0,0-1.81-.47,1.84,1.84,0,0,0-2.05,1.76v0c0,1.1,1,1.45,1.8,1.69.68.21,1.29.36,1.29.81v0c0,.38-.33.62-.9.62a3,3,0,0,1-1.65-.55.55.55,0,0,0-.29-.08.53.53,0,0,0-.53.54.5.5,0,0,0,.25.45A3.91,3.91,0,0,0,134.39,47.49Zm6.92-.72V40.42a.66.66,0,0,1,.67-.67h2.34c1.79,0,2.9,1,2.9,2.55v0c0,1.71-1.37,2.61-3.05,2.61h-1.52v1.84a.67.67,0,0,1-1.34,0Zm1.34-3.05h1.56c1,0,1.65-.57,1.65-1.37v0c0-.89-.65-1.36-1.65-1.36h-1.56Zm6.73.38h3a1.5,1.5,0,0,0-1.46-1.52A1.56,1.56,0,0,0,149.38,44.1Zm3.72,2.65a3,3,0,0,1-2.07.76,2.88,2.88,0,0,1-3-3v0a2.87,2.87,0,0,1,2.82-3,2.73,2.73,0,0,1,2.74,2.84A.62.62,0,0,1,153,45h-3.61a1.61,1.61,0,0,0,1.66,1.46,2,2,0,0,0,1.36-.5.54.54,0,0,1,.34-.12.52.52,0,0,1,.53.54A.58.58,0,0,1,153.1,46.75Zm1.88,0a.65.65,0,0,0,.65.66.67.67,0,0,0,.67-.66v-1.7c0-1.36.64-2.08,1.58-2.25a.65.65,0,0,0-.13-1.28,1.81,1.81,0,0,0-1.45,1.26v-.59a.66.66,0,0,0-.67-.66.64.64,0,0,0-.65.66Zm4.8,0a.66.66,0,0,0,.65.66.67.67,0,0,0,.67-.66v-4h1a.55.55,0,0,0,.56-.55.54.54,0,0,0-.56-.54h-1v-.32c0-.6.26-.87.76-.87l.27,0a.55.55,0,0,0,.1-1.09,3.1,3.1,0,0,0-.66-.06,1.76,1.76,0,0,0-1.3.46,1.94,1.94,0,0,0-.47,1.42v.43h-.23a.56.56,0,0,0-.56.55.55.55,0,0,0,.56.55h.23Zm6.44.73a3,3,0,0,1-3.06-3v0a3,3,0,0,1,3.08-3,3,3,0,0,1,3.06,3v0a3,3,0,0,1-3.08,3Zm0-1.15A1.72,1.72,0,0,0,168,44.54v0a1.78,1.78,0,0,0-1.76-1.85,1.73,1.73,0,0,0-1.74,1.83v0a1.78,1.78,0,0,0,1.76,1.85Zm4.41.42a.65.65,0,0,0,.65.66.67.67,0,0,0,.67-.66v-1.7c0-1.36.64-2.08,1.58-2.25a.65.65,0,0,0-.13-1.28A1.81,1.81,0,0,0,172,42.81v-.59a.66.66,0,0,0-.67-.66.64.64,0,0,0-.65.66Zm4.5,0a.66.66,0,1,0,1.32,0V44.13a1.26,1.26,0,0,1,1.23-1.43c.74,0,1.17.5,1.17,1.4v2.68a.66.66,0,0,0,.67.66.65.65,0,0,0,.65-.66V44.13c0-.93.51-1.43,1.23-1.43s1.17.49,1.17,1.41v2.67a.66.66,0,0,0,.67.66.64.64,0,0,0,.65-.66V43.71a1.94,1.94,0,0,0-2-2.21,2.33,2.33,0,0,0-1.94,1,1.82,1.82,0,0,0-1.72-1,2.06,2.06,0,0,0-1.76,1v-.27a.66.66,0,1,0-1.32,0v4.56Zm12,.72a1.84,1.84,0,0,1-2-1.77v0c0-1.24,1-1.85,2.38-1.85a4.85,4.85,0,0,1,1.55.24V44c0-.82-.5-1.26-1.43-1.26a3.43,3.43,0,0,0-1.27.23l-.21,0a.55.55,0,0,1-.56-.54.6.6,0,0,1,.36-.53,5.11,5.11,0,0,1,1.86-.33,2.61,2.61,0,0,1,1.91.64,2.41,2.41,0,0,1,.62,1.78V46.8a.64.64,0,0,1-.65.64.6.6,0,0,1-.64-.56v-.22a2.33,2.33,0,0,1-1.88.84Zm.38-1c.87,0,1.53-.5,1.53-1.23v-.39a3.62,3.62,0,0,0-1.31-.23c-.85,0-1.35.36-1.35,1v0C186.42,46.23,186.91,46.54,187.55,46.54Zm4.37.24a.66.66,0,1,0,1.32,0V44.13a1.28,1.28,0,0,1,1.3-1.43c.78,0,1.23.51,1.23,1.41v2.67a.66.66,0,0,0,.67.66.64.64,0,0,0,.65-.66V43.71A2,2,0,0,0,195,41.5a2.09,2.09,0,0,0-1.8,1v-.29a.66.66,0,0,0-.67-.66.64.64,0,0,0-.65.66v4.56Zm9.43.73a2.77,2.77,0,0,0,2.09-.82.5.5,0,0,0,.19-.41.58.58,0,0,0-.57-.58.62.62,0,0,0-.36.14,1.92,1.92,0,0,1-1.29.52,1.75,1.75,0,0,1-1.72-1.85v0a1.74,1.74,0,0,1,1.67-1.83,1.85,1.85,0,0,1,1.23.49.72.72,0,0,0,.39.13.6.6,0,0,0,.61-.6.66.66,0,0,0-.2-.46,3.05,3.05,0,0,0-5,2.29v0a2.94,2.94,0,0,0,3,3Zm4.39-3.41h3a1.5,1.5,0,0,0-1.46-1.52,1.56,1.56,0,0,0-1.5,1.52Zm3.72,2.65a2.93,2.93,0,0,1-2.07.76,2.88,2.88,0,0,1-3-3v0a2.86,2.86,0,0,1,2.82-3A2.73,2.73,0,0,1,210,44.34a.62.62,0,0,1-.63.63h-3.61a1.61,1.61,0,0,0,1.66,1.46,2.07,2.07,0,0,0,1.37-.5.49.49,0,0,1,.33-.12.52.52,0,0,1,.53.54.58.58,0,0,1-.18.4Z"/></g></svg>