<svg xmlns="http://www.w3.org/2000/svg" viewBox="0 0 255 73"><defs><style>.a{fill:#ffffff;}.b{fill:#ff7a59;}</style></defs><path class="a" d="M27.62,12.32V32.7H8.89V12.32H0V61H8.89V41.26H27.61V61h8.9V12.32ZM65,45.25a7.36,7.36,0,1,1-14.71.54,4.86,4.86,0,0,1,0-.54V24.41H41.82V45.25a15.77,15.77,0,1,0,31.54,0h0V24.41H65Zm62.48-18.7c0-4.27,2.82-5.62,5.92-5.62,2.49,0,5.79,1.9,7.95,4.2l5.52-6.51c-2.76-3.73-8.35-6.3-12.93-6.3-9.14,0-15.76,5.35-15.76,14.23,0,16.45,20.1,11.25,20.1,20.45,0,2.84-2.76,5.35-5.92,5.35-5,0-6.61-2.43-8.9-5l-6.13,6.37c3.92,4.81,8.76,7.25,14.55,7.25,8.69,0,15.68-5.42,15.68-13.9,0-18.29-20.14-12.6-20.14-20.54M252,53.21c-5,0-6.4-2.16-6.4-5.46V33.14h7.75V25.73H245.6V16l-8.54,3.83V49.57c0,7.61,5.25,11.45,12.45,11.45a17.29,17.29,0,0,0,3.37-.27L255,53.07c-.94.07-2,.13-3,.13M97,24.65a12.91,12.91,0,0,0-9.91,4v-16H78.7V42.3C78.7,53.41,86.7,61,95.76,61c10,0,18.83-7.75,18.83-18.19A17.87,17.87,0,0,0,97.05,24.66m0,27.87a9.58,9.58,0,1,1,9.53-9.63V43A9.58,9.58,0,0,1,97,52.53h0M188.76,42.4c0-10.45-8.79-18.19-18.83-18.19-9,0-17.07,7.62-17.07,18.73V72.65h8.45v-16a12.94,12.94,0,0,0,9.9,4,17.88,17.88,0,0,0,17.55-18.2V42.4m-8-.1a9.58,9.58,0,1,1-19.16,0h0a9.58,9.58,0,1,1,19.16,0h0"/><path class="b" d="M216,23.81V15.32a6.53,6.53,0,0,0,3.77-5.89V9.24a6.54,6.54,0,0,0-6.53-6.54H213a6.53,6.53,0,0,0-6.53,6.53h0v.19a6.53,6.53,0,0,0,3.76,5.89v8.49a18.39,18.39,0,0,0-8.79,3.87L178.25,9.55a7.55,7.55,0,0,0,.26-1.83,7.36,7.36,0,1,0-7.38,7.35h0a7.33,7.33,0,0,0,3.62-1L197.67,31.9A18.58,18.58,0,0,0,198,52.82l-7,7a5.71,5.71,0,0,0-1.74-.28,6.13,6.13,0,1,0,5.77,4.3L201.92,57A18.59,18.59,0,1,0,216,23.81m-2.86,27.9a9.54,9.54,0,0,1-.52-19.07h.52a9.54,9.54,0,0,1,0,19.07"/></svg>