<?xml version="1.0" encoding="UTF-8"?><svg id="Layer_4" xmlns="http://www.w3.org/2000/svg" viewBox="0 0 180 60"><defs><style>.cls-1,.cls-2{fill:#fff;}.cls-3{fill:#916cbf;}.cls-3,.cls-2{fill-rule:evenodd;}</style></defs><path class="cls-3" d="M61.36,18.03H20.4c-2.58,0-4.67,2.09-4.67,4.67,0,0,0,.02,0,.03v15.63c0,2.59,2.09,4.68,4.68,4.69,0,0,0,0,0,0h19.4l8.87,4.94-2-4.94h14.67c2.59,0,4.68-2.1,4.68-4.68,0,0,0,0,0,0v-15.63c0-2.59-2.09-4.69-4.68-4.69,0,0,0,0,0,0Z"/><path class="cls-1" d="M71.25,25.33c-1.38,1.37-2.12,3.25-2.06,5.19-.09,2.02,.65,3.98,2.04,5.45,1.41,1.4,3.34,2.16,5.33,2.08,.73-.01,1.45-.12,2.14-.33v-3.33c-.61,.19-1.24,.29-1.87,.31-.99,.04-1.95-.36-2.62-1.09-.7-.84-1.06-1.91-1-2.99-.04-1.05,.3-2.07,.97-2.88,.6-.73,1.5-1.15,2.45-1.13,.7,0,1.39,.11,2.06,.3v-3.32c-.73-.19-1.49-.28-2.25-.27-1.94-.08-3.81,.65-5.19,2.02Zm14.26-2.04c-1.69-.08-3.33,.61-4.44,1.89-1.05,1.25-1.55,3.02-1.55,5.29,0,2.45,.53,4.32,1.59,5.62,1.05,1.29,2.59,1.96,4.61,1.96s3.45-.66,4.49-1.96,1.58-3.12,1.58-5.49-.53-4.15-1.6-5.43-2.64-1.87-4.68-1.87Zm1.62,10.7c-.35,.56-.97,.89-1.62,.86-.62,.02-1.2-.32-1.5-.86-.35-.57-.5-1.73-.5-3.49,0-2.7,.68-4.03,2.06-4.03s2.18,1.36,2.18,4.09c-.02,1.71-.24,2.87-.6,3.43h-.02Zm14.79-10.31l-.74,3.15c-.18,.8-.37,1.63-.53,2.47l-.41,2.18c-.39-2.18-.92-4.77-1.6-7.8h-4.77l-1.79,14.01h3.58l.97-9.65,2.45,9.65h2.55l2.37-9.63,1,9.63h3.74l-1.89-14.01h-4.91Zm17.14,0l-.74,3.15c-.19,.8-.37,1.63-.54,2.47l-.41,2.18c-.39-2.18-.92-4.77-1.6-7.8h-4.75l-1.79,14.01h3.58l.97-9.65,2.45,9.65h2.55l2.33-9.63,1,9.63h3.74l-1.89-14.01h-4.89Zm11.64,8.49h3.35v-2.91h-3.35v-2.57h3.87v-2.99h-7.63v14.02h7.67v-2.99h-3.89l-.02-2.55Zm14.57-2.24c.38-.6,.59-1.29,.59-2,.04-1.24-.54-2.41-1.54-3.13-1.25-.83-2.72-1.23-4.22-1.15h-4.4v14.04h3.78v-6.38h.06l3.06,6.38h3.99l-3.02-6.31c.7-.3,1.28-.81,1.69-1.45Zm-5.8-.22v-3.33c.67-.04,1.35,.12,1.93,.45,.41,.34,.63,.87,.57,1.4,0,.97-.84,1.46-2.51,1.48h0Zm8.62-4.39c-1.38,1.37-2.12,3.25-2.06,5.19-.09,2.02,.65,3.98,2.04,5.45,1.41,1.41,3.34,2.16,5.34,2.08,.72-.01,1.44-.12,2.14-.33v-3.33c-.61,.19-1.24,.29-1.87,.31-.99,.04-1.94-.36-2.61-1.09-.7-.84-1.06-1.91-1-2.99-.04-1.05,.3-2.07,.97-2.88,.6-.73,1.5-1.15,2.45-1.13,.7,0,1.39,.11,2.06,.3v-3.32c-.73-.19-1.49-.28-2.24-.27-1.94-.07-3.82,.66-5.2,2.02h0Zm12.3,9.36v-2.55h3.35v-2.9h-3.35v-2.57h3.88v-2.99h-7.67v14.02h7.67v-2.99h-3.88Z"/><path class="cls-2" d="M19.54,21.65c-.51,0-.98,.24-1.3,.63-.29,.4-.41,.89-.33,1.38,1.22,7.72,2.35,12.92,3.39,15.61,.41,1,.89,1.46,1.44,1.42,.86-.06,1.89-1.25,3.1-3.58,.64-1.31,1.63-3.29,2.96-5.92,1.11,3.88,2.63,6.8,4.55,8.76,.4,.49,1,.77,1.63,.76,.47-.03,.9-.32,1.1-.74,.21-.42,.3-.89,.25-1.36-.08-2.63,.11-5.25,.57-7.84,.53-3.45,1.19-5.94,2-7.42,.16-.31,.23-.65,.2-1-.04-.46-.28-.89-.65-1.16-.36-.3-.82-.45-1.29-.41-.59,.03-1.11,.38-1.36,.91-1.28,2.33-2.18,6.1-2.72,11.31-.88-2.28-1.53-4.63-1.96-7.03-.22-1.21-.78-1.79-1.69-1.73-.61,.04-1.13,.45-1.54,1.23l-4.49,8.58c-.74-2.99-1.44-6.64-2.08-10.92-.15-1.07-.75-1.56-1.8-1.48Zm39.64,1.5c1.4,.26,2.61,1.14,3.29,2.39,.7,1.24,1.04,2.64,1,4.05,.02,2.05-.54,4.07-1.6,5.82-1.24,2.06-2.84,3.08-4.84,3.08-.37,0-.74-.04-1.11-.12-1.4-.26-2.61-1.14-3.29-2.39-.69-1.24-1.03-2.65-1-4.07-.02-2.05,.53-4.06,1.6-5.8,1.25-2.07,2.86-3.1,4.83-3.1,.38,0,.75,.04,1.12,.12v.02Zm-9.61,2.37c-.69-1.25-1.89-2.12-3.29-2.39-.36-.08-.74-.12-1.11-.12-2,0-3.58,1.03-4.84,3.08-1.07,1.74-1.62,3.75-1.6,5.8-.04,1.42,.31,2.83,1,4.07,.68,1.25,1.89,2.13,3.29,2.39,.36,.08,.74,.12,1.11,.12,2,0,3.6-1.03,4.84-3.08,1.07-1.75,1.62-3.77,1.6-5.82,.04-1.42-.3-2.82-1-4.05Zm8.75,8.77c.83-.82,1.38-1.89,1.56-3.04,.09-.5,.14-1.01,.14-1.52,0-.64-.13-1.28-.37-1.87-.31-.8-.72-1.23-1.21-1.34-.74-.14-1.46,.27-2.14,1.27-.52,.74-.89,1.57-1.09,2.45-.1,.49-.15,.99-.14,1.5,0,.64,.13,1.28,.37,1.87,.31,.8,.72,1.23,1.21,1.34,.63,.05,1.25-.2,1.67-.67v.02Zm-11.34-3.06c-.18,1.16-.73,2.22-1.56,3.04-.42,.47-1.04,.72-1.67,.66-.5-.1-.9-.54-1.21-1.34-.24-.6-.36-1.23-.37-1.87,0-.5,.04-1,.14-1.5,.19-.88,.56-1.72,1.09-2.45,.68-1,1.4-1.42,2.14-1.27,.5,.1,.9,.53,1.21,1.34,.24,.6,.36,1.23,.37,1.87,0,.51-.04,1.01-.14,1.51Z"/></svg>