<svg width="35" height="24" viewBox="0 0 35 24" fill="none" xmlns="http://www.w3.org/2000/svg">
<path fill-rule="evenodd" clip-rule="evenodd" d="M15.1344 12.4692H14.0255V12.034C14.0255 11.468 14.3488 11.3061 14.6278 11.3061C14.9356 11.3061 15.1753 11.4427 15.1753 11.4427L15.5529 10.5798C15.5529 10.5798 15.1702 10.3297 14.4745 10.3297C13.6923 10.3297 12.8024 10.7706 12.8024 12.1545V12.4692H10.9459V12.034C10.9459 11.468 11.2693 11.3061 11.5477 11.3061C11.7062 11.3061 11.9194 11.343 12.0958 11.4427L12.4733 10.5798C12.248 10.4473 11.886 10.3297 11.3949 10.3297C10.6128 10.3297 9.72289 10.7706 9.72289 12.1545V12.4692H9.0128V13.4133H9.72289V16.7487H10.9459V13.4133H12.8024V16.7487H14.0255V13.4133H15.1344V12.4692ZM18.1139 12.4691V16.7486H19.3381V14.687C19.3381 13.7066 19.9312 13.4189 20.3451 13.4189C20.5064 13.4189 20.7243 13.4656 20.8684 13.5734L21.0915 12.442C20.9024 12.3613 20.7047 12.3434 20.5427 12.3434C19.9134 12.3434 19.518 12.6224 19.2569 13.1884V12.4691H18.1139ZM6.2049 15.9809C5.88329 15.9809 5.72306 15.823 5.72306 15.5619C5.72306 15.0789 6.26369 14.9135 7.25044 14.8092C7.25044 15.4553 6.81355 15.9809 6.2049 15.9809ZM6.63026 12.3435C5.92536 12.3435 5.11383 12.676 4.67349 13.027L5.07579 13.8737C5.42911 13.5504 6.00029 13.2743 6.51557 13.2743C7.00491 13.2743 7.27522 13.438 7.27522 13.7671C7.27522 13.9896 7.09597 14.1014 6.75707 14.1452C5.49251 14.31 4.5 14.6587 4.5 15.634C4.5 16.4069 5.05043 16.8749 5.91038 16.8749C6.52364 16.8749 7.07003 16.5337 7.32998 16.0835V16.7487H8.4735V13.9619C8.4735 12.8109 7.67349 12.3435 6.63026 12.3435ZM25.3832 13.0953C25.6351 12.7264 26.1187 12.3437 26.7659 12.3437C27.5481 12.3437 28.1953 12.829 28.1953 13.7909V16.7489H26.9723V14.1777C26.9723 13.6111 26.631 13.3759 26.3077 13.3759C25.9031 13.3759 25.4985 13.746 25.4985 14.546V16.7489H24.2754V14.1863C24.2754 13.6025 23.9538 13.3759 23.604 13.3759C23.2172 13.3759 22.8034 13.7546 22.8034 14.546V16.7489H21.5786V12.4693H22.7584V13.1166C22.9653 12.7033 23.4132 12.3437 24.0604 12.3437C24.6535 12.3437 25.1492 12.6186 25.3832 13.0953ZM17.0866 16.7489H15.8647V12.4693H17.0866V16.7489Z" fill="#060809"/>
<path fill-rule="evenodd" clip-rule="evenodd" d="M22.9933 6.5C19.6896 6.5 16.7449 8.79338 15.9092 11.7421H17.1069C17.8049 9.54612 20.1743 7.61873 22.9933 7.61873C26.4199 7.61873 29.3813 10.2274 29.3813 14.2885C29.3813 15.2003 29.2631 16.0222 29.0395 16.7484H30.2014L30.213 16.7087C30.4032 15.9594 30.5 15.1456 30.5 14.2885C30.5 9.75937 27.1997 6.5 22.9933 6.5Z" fill="#0FA0EA"/>
</svg>
