<svg width="35" height="24" viewBox="0 0 35 24" fill="none" xmlns="http://www.w3.org/2000/svg">
<path d="M31.4933 10.5729L31.5 10.5656H30.4538L29.7931 12.8557H29.7581L28.9996 10.5656H27.7563L29.2522 14.345L28.6273 15.4969V15.5247H29.6034L31.4933 10.5729Z" fill="black"/>
<path d="M19.8955 10.5656H18.7859V14.3311H19.8955V10.5656Z" fill="black"/>
<path d="M27.5381 13.3894V11.8162C27.5381 10.9591 27.0323 10.4883 26.1402 10.4883C25.5708 10.4883 25.178 10.5868 24.4611 10.8044L24.6575 11.6687C25.3109 11.3738 25.5986 11.2475 25.9008 11.2475C26.2658 11.2475 26.4278 11.5073 26.4278 11.9081V11.9359C25.1562 12.1746 24.7627 12.3082 24.5173 12.5542C24.3348 12.7367 24.2574 12.9966 24.2574 13.2988C24.2574 14.0223 24.8196 14.4085 25.3459 14.4085C25.7394 14.4085 26.0555 14.261 26.484 13.9376L26.5614 14.3311H27.6711L27.5381 13.3894ZM26.4285 13.4178C26.1335 13.5792 25.9649 13.6427 25.7685 13.6427C25.5014 13.6427 25.3327 13.4668 25.3327 13.1864C25.3327 13.0812 25.3539 12.9754 25.4379 12.8914C25.5714 12.7579 25.8313 12.6593 26.4285 12.5191V13.4178Z" fill="black"/>
<path d="M22.6565 10.4883C22.2491 10.4883 21.933 10.643 21.5746 10.938V10.5657H20.465V15.5247H21.5746V14.2954C21.7856 14.3516 21.982 14.38 22.2207 14.38C23.2113 14.38 24.1034 13.6493 24.1034 12.3498C24.1034 11.184 23.4573 10.4883 22.6565 10.4883ZM21.9535 13.6843C21.8272 13.6843 21.7075 13.6705 21.574 13.6281V11.5913C21.8061 11.43 21.9952 11.3526 22.2339 11.3526C22.6486 11.3526 22.9786 11.6826 22.9786 12.3856C22.9792 13.2843 22.4945 13.6843 21.9535 13.6843Z" fill="black"/>
<path d="M9.3796 8.62605H4.62156C4.00193 8.62605 3.5 9.1326 3.5 9.75686V14.5552C3.5 15.1795 4.00193 15.6861 4.62156 15.6861H9.3796C9.99923 15.6861 10.5005 15.1795 10.5005 14.5552V9.75686C10.5012 9.13194 9.99923 8.62605 9.3796 8.62605Z" fill="#1677FF"/>
<path d="M9.26392 13.0593C8.98419 12.9648 8.60791 12.8199 8.18931 12.6672C8.4406 12.2261 8.64163 11.7242 8.77389 11.1786H7.39376V10.6773H9.08404V10.3976H7.39376V9.56172H6.70403C6.58301 9.56172 6.58301 9.68208 6.58301 9.68208V10.3969H4.87356V10.6767H6.58301V11.1779H5.17114V11.4577H7.90892C7.80906 11.8055 7.67415 12.1328 7.51478 12.4298C6.62666 12.1342 5.67836 11.8948 5.08319 12.0422C4.70228 12.1368 4.45694 12.3054 4.31278 12.4827C3.65148 13.2941 4.12563 14.5267 5.52229 14.5267C6.34825 14.5267 7.14379 14.0625 7.76012 13.2974C8.67999 13.7431 10.5005 14.5089 10.5005 14.5089V13.4177C10.5012 13.4177 10.2724 13.3992 9.26392 13.0593ZM5.39202 14.0552C4.30286 14.0552 3.98081 13.1903 4.5191 12.7168C4.69898 12.5567 5.02698 12.4787 5.20156 12.4615C5.84831 12.3974 6.44745 12.646 7.15438 12.9939C6.65774 13.6472 6.02488 14.0552 5.39202 14.0552Z" fill="white"/>
<path d="M14.9715 9.37859H13.4822L11.8177 14.331H12.8434L13.1245 13.3616H14.8875L15.1547 14.331H16.468L14.9715 9.37859ZM13.3559 12.5535L14.0159 10.2707H14.0437L14.6686 12.5535H13.3559Z" fill="black"/>
<path d="M18.0268 9.20269H16.9171V14.3304H18.0268V9.20269Z" fill="black"/>
<path d="M18.7013 9.65962C18.7013 10.0247 18.9685 10.2707 19.3408 10.2707C19.7131 10.2707 19.9802 10.0247 19.9802 9.65962C19.9802 9.30119 19.7131 9.04858 19.3408 9.04858C18.9685 9.04858 18.7013 9.30119 18.7013 9.65962Z" fill="#1677FF"/>
</svg>
