<svg width="35" height="24" viewBox="0 0 35 24" fill="none" xmlns="http://www.w3.org/2000/svg">
<path fill-rule="evenodd" clip-rule="evenodd" d="M21.1041 16.8449C21.3012 16.3446 21.7397 15.2235 21.5312 14.9518H21.5327C21.3251 14.6795 20.1597 14.8224 19.6356 14.8867L19.6344 14.8868C19.475 14.9064 19.4504 14.7647 19.5938 14.6621C20.5245 13.9943 22.0494 14.1853 22.2265 14.4108C22.4036 14.6363 22.1782 16.1974 21.3065 16.9428C21.1724 17.0571 21.0443 16.996 21.1041 16.8449ZM14.8412 17.6169C16.8683 17.6169 19.2289 16.9631 20.8549 15.7378V15.7402C21.124 15.5335 20.8933 15.2297 20.6188 15.3487C18.8439 16.1133 16.9386 16.5124 15.0122 16.5231C12.3396 16.5231 9.75444 15.7746 7.66299 14.5321C7.47975 14.4233 7.34329 14.6151 7.49662 14.7553C9.5101 16.6105 12.1294 17.631 14.8412 17.6169Z" fill="#FF9900"/>
<path fill-rule="evenodd" clip-rule="evenodd" d="M28.096 13.9481H28.9593H28.96C29.0503 13.9499 29.1254 13.8774 29.1287 13.7852V11.3417C29.1287 11.0348 29.1448 10.7577 29.2659 10.4805C29.3491 10.2697 29.545 10.1277 29.7673 10.1172C30.3195 10.1172 30.3142 10.7352 30.3101 11.2206C30.3097 11.2616 30.3094 11.3016 30.3094 11.3402V13.8056C30.32 13.8847 30.3846 13.9447 30.4627 13.9481H31.3336C31.4162 13.9499 31.4873 13.889 31.5 13.8056V10.9487C31.5 10.5095 31.5 9.89802 31.2738 9.53474C31.0293 9.14328 30.6505 9 30.2626 9C29.6646 9 29.325 9.29595 29.0827 9.91681H29.0658V9.22235C29.0484 9.14975 28.9857 9.09791 28.9125 9.09552H28.1091C28.0242 9.09338 27.9518 9.15806 27.9427 9.24427V13.7852C27.9438 13.8723 28.0109 13.9436 28.096 13.9481ZM27.2834 11.5665C27.2834 10.1337 26.588 9.0063 25.3023 9.0063C24.0496 9.0063 23.3542 10.1149 23.3542 11.5187C23.3542 12.9225 24.0412 14.0499 25.3023 14.0499C26.5167 14.0499 27.2834 12.9515 27.2834 11.5665ZM24.6315 11.3754C24.6315 10.8211 24.6721 9.93327 25.3108 9.93327C25.5852 9.93327 25.7792 10.0593 25.8765 10.3725C25.99 10.735 26.0061 11.1938 26.0061 11.5758C26.0061 12.1583 25.9808 13.1135 25.3023 13.1135C24.6312 13.1135 24.6314 11.9554 24.6315 11.3938L24.6315 11.3754ZM8.43194 13.9575H9.2975H9.29827C9.34171 13.9585 9.38377 13.9418 9.41514 13.9111C9.44651 13.8804 9.46459 13.8382 9.4654 13.7938V11.3879L9.46538 11.3502C9.46502 10.8271 9.46455 10.1352 10.0634 10.1352C10.617 10.1352 10.6084 10.7431 10.6015 11.234V11.2341V11.2341V11.2341V11.2341C10.6008 11.287 10.6001 11.3386 10.6001 11.3879V13.7946C10.6015 13.8815 10.6684 13.9525 10.7534 13.9575H11.6213C11.6646 13.9583 11.7064 13.9415 11.7376 13.9108C11.7688 13.8801 11.7868 13.8381 11.7876 13.7938V11.3879L11.7875 11.3307C11.787 11.0758 11.7863 10.7318 11.8689 10.5181C11.9531 10.2996 12.1566 10.1533 12.3864 10.1462C12.6371 10.1462 12.831 10.2323 12.8954 10.5376C12.9283 10.6846 12.9241 11.0253 12.9212 11.2512C12.9206 11.3045 12.92 11.3514 12.92 11.3879V13.7946C12.9211 13.8817 12.9882 13.9529 13.0733 13.9575H13.9389C13.9823 13.9585 14.0244 13.9418 14.0557 13.9111C14.0871 13.8804 14.1052 13.8382 14.106 13.7938V10.9291C14.106 10.8593 14.1072 10.7879 14.1084 10.7158L14.1084 10.7157C14.1155 10.288 14.123 9.83265 13.8875 9.50573C13.602 9.13491 13.1429 8.95012 12.6865 9.02232C12.23 9.09452 11.8471 9.41249 11.6849 9.85414C11.4419 9.28025 11.0946 9.01327 10.561 9.01327C10.0274 9.01327 9.631 9.28025 9.42093 9.85414H9.40483V9.26146C9.40027 9.17699 9.33422 9.10954 9.2515 9.10487H8.4442C8.35505 9.10398 8.28152 9.17594 8.27861 9.26694V13.8079C8.28646 13.8896 8.35164 13.9532 8.43194 13.9575ZM6.92545 13.992C6.86844 14.0425 6.7865 14.0509 6.72075 14.0131C6.47545 13.8047 6.40149 13.692 6.28792 13.519C6.26838 13.4893 6.24767 13.4577 6.22472 13.4236C5.74862 13.9184 5.41206 14.0664 4.79643 14.0664C4.06733 14.0664 3.5 13.6068 3.5 12.6876C3.5 11.9697 3.88333 11.4819 4.41999 11.2424C4.81628 11.0648 5.34502 11.0096 5.80214 10.962C5.88713 10.9531 5.96965 10.9445 6.04838 10.9354V10.8211C6.04838 10.7993 6.04856 10.7771 6.04873 10.7546C6.05025 10.5597 6.05193 10.3427 5.94335 10.1791C5.83755 10.0163 5.63669 9.94974 5.45729 9.94974C5.12686 9.94974 4.83246 10.1228 4.76039 10.4806C4.75126 10.564 4.68837 10.6308 4.60706 10.6434L3.77447 10.5502C3.73292 10.5442 3.69563 10.521 3.67129 10.486C3.64695 10.4511 3.63769 10.4076 3.64567 10.3655C3.8381 9.32575 4.75809 9.01179 5.58225 9.01179C6.00392 9.01179 6.55438 9.1261 6.88558 9.4518C7.27438 9.82353 7.27197 10.3102 7.26935 10.842C7.26913 10.8859 7.26891 10.9301 7.26891 10.9746V12.3518C7.26891 12.7227 7.40366 12.9072 7.54561 13.1015L7.54563 13.1015C7.56248 13.1246 7.57944 13.1478 7.59628 13.1715C7.65148 13.2498 7.66374 13.3476 7.59628 13.4064C7.41918 13.5575 7.10485 13.8362 6.93235 13.9936L6.92545 13.992ZM6.05219 11.8358L6.05222 11.8786C6.05252 12.2043 6.05278 12.4804 5.89042 12.7753C5.75243 13.0242 5.53393 13.1777 5.29013 13.1777C4.95816 13.1777 4.7642 12.9193 4.7642 12.5357C4.7642 11.7825 5.42583 11.6455 6.05219 11.6455V11.8358ZM18.8967 13.0982L18.8969 13.0983L18.897 13.0985L18.897 13.0985C18.9138 13.1215 18.9307 13.1447 18.9475 13.1683C19.0058 13.2497 19.018 13.3452 18.9437 13.3992C18.7666 13.5503 18.4522 13.8298 18.2797 13.9864C18.2224 14.0362 18.1407 14.0443 18.075 14.0068C17.8287 13.7975 17.7557 13.6864 17.6405 13.5112L17.6404 13.5111C17.6212 13.4818 17.6008 13.4508 17.5782 13.4172C17.1029 13.912 16.764 14.06 16.1507 14.06C15.4216 14.06 14.8543 13.6004 14.8543 12.6821C14.8543 11.9633 15.2353 11.4756 15.7781 11.236C16.1753 11.0577 16.707 11.0029 17.1654 10.9556L17.1654 10.9556L17.1655 10.9556C17.2487 10.947 17.3294 10.9386 17.4065 10.9299V10.8179C17.4065 10.7962 17.4067 10.7741 17.4068 10.7517C17.4084 10.5567 17.41 10.3396 17.3007 10.1767C17.198 10.0138 16.9933 9.94651 16.8146 9.94651C16.4842 9.94651 16.1913 10.1195 16.1185 10.4773C16.1091 10.5607 16.0464 10.6273 15.9652 10.6402L15.1257 10.5478C15.0838 10.5419 15.0462 10.5187 15.0217 10.4836C14.9972 10.4485 14.9879 10.4046 14.9961 10.3622C15.1893 9.32174 16.1093 9.00856 16.9335 9.00856C17.3544 9.00856 17.9048 9.12287 18.2368 9.44857C18.6264 9.81838 18.6237 10.3013 18.6207 10.8304C18.6204 10.877 18.6201 10.924 18.6201 10.9714V12.3493C18.6201 12.7194 18.7548 12.9039 18.8967 13.0982ZM16.646 13.173C16.889 13.173 17.1083 13.0195 17.2455 12.7713C17.4084 12.4749 17.4083 12.1974 17.4081 11.8677L17.4081 11.8326V11.6416C16.7817 11.6416 16.1201 11.7778 16.1201 12.5318C16.1201 12.9146 16.314 13.173 16.646 13.173ZM19.6804 9.25134V9.89803C19.6799 9.94239 19.6973 9.98501 19.7285 10.0159C19.7596 10.0469 19.8018 10.0634 19.8452 10.0617H21.3356L19.6267 12.567C19.5487 12.7014 19.5119 12.8566 19.5209 13.0125V13.6741C19.5209 13.7696 19.6244 13.8784 19.7233 13.8244C20.6658 13.3253 21.7867 13.3233 22.7309 13.8189C22.839 13.8761 22.941 13.7657 22.941 13.6702V12.9749C22.9381 12.8686 22.8796 12.7721 22.7877 12.722C22.2901 12.4363 21.7113 12.3525 21.1639 12.3658L22.6389 10.2159C22.7762 10.0233 22.8528 9.90116 22.8528 9.808V9.25134C22.8533 9.20712 22.836 9.16463 22.805 9.13373C22.774 9.10283 22.732 9.08621 22.6888 9.0877H19.8422C19.7988 9.08522 19.7565 9.1016 19.7256 9.13279C19.6948 9.16399 19.6784 9.20706 19.6804 9.25134Z" fill="black"/>
</svg>
