<svg width="35" height="24" viewBox="0 0 35 24" fill="none" xmlns="http://www.w3.org/2000/svg">
<path fill-rule="evenodd" clip-rule="evenodd" d="M24.5853 8.10041C26.7748 11.9791 25.4056 16.8981 21.5272 19.0875C17.6487 21.2769 12.7297 19.9075 10.5402 16.0288C8.35073 12.1502 9.71991 7.23109 13.5984 5.04172C17.4768 2.85235 22.3958 4.22177 24.5853 8.10041ZM17.7771 8.50303C18.9433 8.28707 19.9414 8.38602 20.329 9.39999C20.6136 10.142 20.4196 10.6881 19.979 11.0897C20.8765 11.0578 21.4989 11.6076 21.7454 12.558C21.9992 13.9827 21.0634 14.643 19.6033 15.1395L20.0044 16.5986L19.1221 16.843L18.7263 15.4035C18.4978 15.4671 18.2628 15.5297 18.0197 15.5922L18.4176 17.0386L17.5363 17.2825L17.1333 15.821L15.3539 16.309L15.2401 15.2094C15.2401 15.2094 15.8955 15.038 15.8814 15.0315C16.131 14.9619 16.1481 14.7646 16.1331 14.6485L15.0431 10.689C14.9604 10.5198 14.787 10.3455 14.4295 10.4443C14.4367 10.4292 13.7889 10.6223 13.7889 10.6223L13.53 9.68283L15.3079 9.18702L14.9104 7.7415L15.7922 7.49735L16.1821 8.91411C16.4167 8.84364 16.6527 8.77355 16.8844 8.70933L16.4967 7.30172L17.3789 7.05732L17.7771 8.50303ZM17.1184 11.6604C17.7243 11.5026 19.0426 11.1593 18.7925 10.2493C18.536 9.31858 17.2828 9.70117 16.6693 9.88849L16.6692 9.88851C16.5997 9.90972 16.5384 9.92844 16.4877 9.94245L16.9714 11.6994C17.0132 11.6878 17.0628 11.6749 17.1184 11.6604ZM17.9204 14.476C18.6455 14.286 20.2313 13.8704 19.9551 12.868C19.6729 11.8429 18.1655 12.2993 17.4301 12.522L17.4301 12.522C17.3479 12.5468 17.2753 12.5688 17.2152 12.5855L17.748 14.522C17.7973 14.5083 17.8554 14.4931 17.9204 14.476Z" fill="#8FC258"/>
</svg>
