<svg width="35" height="24" viewBox="0 0 35 24" fill="none" xmlns="http://www.w3.org/2000/svg">
<path d="M5.37174 10.3079C5.14145 10.3079 5.11873 10.2317 5.11873 9.67591V9.58108C5.11873 9.02343 5.14145 8.94794 5.37174 8.94794H10.6379C10.869 8.94794 10.8917 9.02343 10.8917 9.58032V9.67516C10.8917 10.2317 10.8686 10.3075 10.6379 10.3075H5.37174V10.3079ZM5.37174 7.86073C5.14145 7.86073 5.11873 7.78486 5.11873 7.22835V7.13351C5.11873 6.57511 5.14145 6.5 5.37174 6.5H10.6379C10.869 6.5 10.8917 6.57587 10.8917 7.13351V7.22835C10.8917 7.78486 10.8686 7.86073 10.6379 7.86073H5.37174ZM6.16065 15.1283C6.16065 14.2072 6.632 13.7008 7.34122 13.7008C7.60897 13.7008 7.82333 13.7752 8.09148 13.9022C8.1887 13.9493 8.26918 13.9303 8.39668 13.6424L8.48952 13.4467C8.58116 13.2107 8.58793 13.1132 8.47677 13.0609C8.14805 12.8776 7.63925 12.7619 7.19977 12.7619C5.94748 12.7619 5 13.7065 5 15.1283C5 16.5497 5.94748 17.4943 7.19938 17.4943C7.63925 17.4943 8.15961 17.379 8.48952 17.1946C8.59948 17.1434 8.59231 17.0448 8.50147 16.8088L8.40983 16.6021C8.28233 16.3138 8.20145 16.2975 8.10343 16.3422C7.83528 16.4701 7.60937 16.5444 7.34122 16.5444C6.632 16.5444 6.16184 16.049 6.16184 15.1283H6.16105H6.16065ZM21.0821 17.2766C21.0821 17.4017 21.0327 17.4359 20.661 17.4359H20.6239C20.2323 17.4359 20.1777 17.4188 20.147 17.3274C20.1265 17.2653 20.1101 17.2021 20.098 17.1381C19.8908 17.3741 19.641 17.5 19.2605 17.5C18.3377 17.5 17.7831 16.8551 17.7831 15.818C17.7831 14.697 18.4003 14.0331 19.3155 14.0331C19.5733 14.0331 19.8107 14.109 19.994 14.2471V12.7904C19.994 12.6929 20.006 12.6523 20.5199 12.6523H20.557C21.0327 12.6523 21.0817 12.6929 21.0817 12.7904V17.2766H21.0821ZM19.9944 15.065C19.9316 14.9996 19.8551 14.9474 19.7699 14.9117C19.6847 14.8761 19.5926 14.8577 19.4995 14.8578C19.0899 14.8578 18.8955 15.1966 18.8955 15.8187C18.8955 16.1753 18.9748 16.4018 19.0899 16.5205C19.1935 16.643 19.3529 16.6825 19.5063 16.6825C19.6956 16.6825 19.8418 16.6381 19.9095 16.5558C19.9697 16.4928 19.994 16.3953 19.994 16.1708V15.0646L19.9948 15.065H19.9944ZM26.6268 17.2993C26.6268 17.3961 26.5778 17.4359 26.1009 17.4359H26.0642C25.551 17.4359 25.5403 17.3961 25.5403 17.2993V12.7904C25.5403 12.6929 25.551 12.6523 26.0638 12.6523H26.1005C26.577 12.6523 26.6264 12.6929 26.6264 12.7904V17.2993H26.6268ZM22.8002 16.1006C22.8608 16.5091 23.1293 16.7056 23.5512 16.7056C23.876 16.7056 24.18 16.6374 24.5354 16.4928C24.6095 16.4644 24.676 16.4928 24.7545 16.7216L24.8103 16.8498C24.8888 17.0857 24.882 17.1381 24.7976 17.1832C24.3752 17.4074 23.9357 17.4992 23.4469 17.4992C22.3663 17.4992 21.6886 16.8733 21.6886 15.8017C21.6886 14.7596 22.3113 14.0331 23.3803 14.0331C24.4378 14.0331 24.9804 14.7478 24.9804 15.7379C24.9804 16.0664 24.9506 16.1006 24.8282 16.1006H22.8002ZM23.8927 15.4621C23.876 15.1177 23.7294 14.8172 23.3688 14.8172C23.056 14.8172 22.8297 15.0411 22.787 15.4621H23.8927ZM28.3194 16.1006C28.3791 16.5091 28.6485 16.7056 29.0708 16.7056C29.3927 16.7056 29.6995 16.6374 30.0537 16.4928C30.1263 16.4644 30.1948 16.4928 30.2737 16.7216L30.3291 16.8498C30.4076 17.0857 30.4012 17.1381 30.3171 17.1832C29.8948 17.4074 29.4545 17.4992 28.9652 17.4992C27.8843 17.4992 27.2073 16.8733 27.2073 15.8017C27.2073 14.7596 27.8289 14.0331 28.8983 14.0331C29.9565 14.0331 30.5 14.7478 30.5 15.7379C30.5 16.0664 30.4693 16.1006 30.347 16.1006H28.319H28.3194ZM29.4131 15.4621C29.3931 15.1177 29.2477 14.8172 28.8871 14.8172C28.5755 14.8172 28.3484 15.0411 28.3062 15.4621H29.4131ZM16.0443 15.0877C15.9892 15.0185 15.9182 14.9624 15.8366 14.9236C15.7551 14.8848 15.6653 14.8643 15.5741 14.8639C15.1645 14.8639 14.9697 15.2034 14.9697 15.8073C14.9697 16.3195 15.1147 16.7 15.561 16.7C15.7267 16.7 15.8479 16.6597 15.9343 16.5782C16.0132 16.4985 16.0443 16.3885 16.0443 16.148V15.0877ZM17.144 17.2766C17.144 17.4017 17.0958 17.4359 16.7232 17.4359H16.673C16.2826 17.4359 16.2276 17.4188 16.1973 17.3274C16.1763 17.2655 16.1599 17.2022 16.1483 17.1381C15.9411 17.3741 15.6901 17.5 15.3108 17.5C14.425 17.5 13.8565 16.8657 13.8565 15.8309C13.8565 14.6795 14.5593 14.0331 15.3905 14.0331C15.7267 14.0331 16.0192 14.1667 16.1786 14.3563L16.1973 14.2122C16.2025 14.1439 16.222 14.0984 16.6236 14.0984H16.667C17.083 14.0984 17.1432 14.1261 17.1432 14.2311V17.2766H17.144ZM12.0444 13.1253C12.4532 13.1253 12.4779 13.1303 12.4779 13.257V14.0976H13.1811C13.2783 14.0976 13.3086 14.1147 13.3086 14.4311V14.4777C13.3086 14.7933 13.2783 14.8116 13.1811 14.8116H12.4779V16.3202C12.4779 16.5729 12.5261 16.7056 12.7703 16.7056C12.8978 16.7056 13.0094 16.6825 13.1194 16.6487C13.2349 16.6066 13.2787 16.6597 13.3576 16.9238L13.376 16.9871C13.4612 17.2766 13.4361 17.2993 13.3273 17.3502C13.1074 17.448 12.8134 17.5 12.5388 17.5C11.6714 17.5 11.4272 17.0857 11.4272 16.365V14.8116H11.0176C10.914 14.8116 10.8881 14.7926 10.8881 14.4777V14.4311C10.8881 14.1147 10.9136 14.0984 11.0176 14.0984H11.4758C11.5256 13.8279 11.6101 13.447 11.6655 13.257C11.6961 13.1473 11.7145 13.1253 12.0444 13.1253ZM9.77169 14.0984C10.2486 14.0984 10.2909 14.1374 10.2909 14.2361V17.2993C10.2909 17.4017 10.2486 17.4359 9.77169 17.4359H9.74061C9.21587 17.4359 9.20391 17.4017 9.20391 17.2993V14.2361C9.20391 14.1374 9.21587 14.0984 9.74061 14.0984H9.77169ZM9.74061 12.6011C10.0849 12.6011 10.3343 12.8541 10.3343 13.1417C10.3327 13.2137 10.3162 13.2848 10.2855 13.3507C10.2549 13.4166 10.2108 13.476 10.1558 13.5256C10.0442 13.6261 9.8948 13.6807 9.74061 13.6773C9.40034 13.6773 9.14813 13.4243 9.14813 13.1417C9.14813 12.8533 9.40034 12.6011 9.74061 12.6011Z" fill="#EE293D"/>
</svg>
