<svg width="35" height="24" viewBox="0 0 35 24" fill="none" xmlns="http://www.w3.org/2000/svg">
<path fill-rule="evenodd" clip-rule="evenodd" d="M8.79198 7H8.82035V7.72089H8.79198C6.9633 7.72089 5.41589 8.92513 4.90117 10.5847L4.21298 10.3661C4.82092 8.41539 6.64069 7 8.79198 7Z" fill="url(#paint0_linear_450_3067)"/>
<path fill-rule="evenodd" clip-rule="evenodd" d="M8.82085 7.72089V7H8.79248C10.9503 7 12.7757 8.42529 13.3772 10.3859L12.6898 10.6053C12.184 8.9441 10.6447 7.73327 8.82085 7.72089Z" fill="url(#paint1_linear_450_3067)"/>
<path fill-rule="evenodd" clip-rule="evenodd" d="M11.1857 15.0882L11.6097 15.6722C10.7874 16.269 9.80205 16.5886 8.79206 16.5861C7.7977 16.5887 6.82676 16.2791 6.01175 15.6994L6.4365 15.1154C7.10118 15.588 7.91419 15.866 8.79206 15.866C9.68695 15.866 10.5137 15.5773 11.1857 15.0882Z" fill="url(#paint2_linear_450_3067)"/>
<path fill-rule="evenodd" clip-rule="evenodd" d="M4.21399 10.3661L4.90137 10.5847C4.78017 10.9756 4.71866 11.3831 4.71899 11.793C4.71899 13.1647 5.39664 14.378 6.43662 15.1154L6.01269 15.6994C4.8349 14.8605 4.0535 13.5029 4 11.9613V11.6256C4.0154 11.1884 4.08916 10.7661 4.21399 10.3661Z" fill="url(#paint3_linear_450_3067)"/>
<path fill-rule="evenodd" clip-rule="evenodd" d="M13.5868 11.793C13.5868 13.3882 12.8087 14.8003 11.609 15.6722L11.1851 15.089C11.7034 14.7161 12.1265 14.2223 12.4189 13.6488C12.7112 13.0754 12.8643 12.439 12.8654 11.793C12.8654 11.379 12.8038 10.9789 12.6887 10.6028L13.3761 10.3834C13.5139 10.8288 13.5868 11.3023 13.5868 11.7939V11.793Z" fill="url(#paint4_linear_450_3067)"/>
<path fill-rule="evenodd" clip-rule="evenodd" d="M11.0375 12.5049C11.0375 12.2553 10.8633 12.1434 10.4766 12.1434H9.52417V12.8648H10.4766C10.8697 12.8648 11.0375 12.757 11.0375 12.5049ZM10.3429 10.9924H9.52417V11.7138H10.3429C10.7133 11.7138 10.8811 11.602 10.8811 11.3547C10.8811 11.1067 10.7109 10.9924 10.3429 10.9924ZM11.5377 12.5503C11.5377 13.0318 11.1534 13.3058 10.4758 13.3058H9.07592C9.0516 13.3058 9.03539 13.2896 9.03539 13.2661V10.5912C9.03539 10.5676 9.0516 10.5522 9.07592 10.5522H10.3526C11.0116 10.5522 11.3739 10.806 11.3739 11.2639C11.3739 11.5355 11.2523 11.7535 10.9014 11.8581C11.3456 11.9505 11.5255 12.2123 11.5377 12.5503ZM8.45339 10.5912V10.9648C8.45339 10.9892 8.43717 11.0046 8.41286 11.0046H6.79168V11.7025H8.13726C8.16157 11.7025 8.17698 11.7187 8.17698 11.7422V12.1151C8.17698 12.1394 8.16076 12.1556 8.13645 12.1556H6.79249V13.2661C6.79249 13.2904 6.77628 13.3058 6.75197 13.3058H6.34424C6.31992 13.3058 6.30371 13.2896 6.30371 13.2661V10.5912C6.30371 10.5676 6.31992 10.5522 6.34424 10.5522H8.41367C8.43798 10.5522 8.4542 10.5685 8.4542 10.5912H8.45339Z" fill="#64717D"/>
<path fill-rule="evenodd" clip-rule="evenodd" d="M27.2918 10.1804C27.6894 11.4052 28.146 12.6101 28.66 13.7908L29.9164 10.1804H30.9208L29.1204 14.8446C28.8902 15.442 28.6171 15.9024 28.3009 16.2266C27.9848 16.5508 27.5609 16.713 27.0299 16.713C26.8978 16.713 26.773 16.7024 26.6571 16.6813V15.8667C26.7543 15.8821 26.8411 15.8894 26.914 15.8894C27.2366 15.8894 27.4993 15.8002 27.7019 15.6203C27.9046 15.4411 28.0829 15.1777 28.2361 14.8308C27.8558 14.08 27.5011 13.3165 27.1726 12.5417C26.8412 11.7608 26.525 10.9736 26.2242 10.1804H27.2918ZM23.5631 10.0718C24.1272 10.0718 24.5812 10.2315 24.9249 10.5509C25.2694 10.8711 25.4412 11.3493 25.4412 11.9856V14.7035H24.5577V13.9659C24.3793 14.2318 24.1499 14.436 23.8711 14.5795C23.5752 14.7265 23.2482 14.8002 22.9178 14.7943C22.4323 14.7943 22.0554 14.6711 21.7871 14.4255C21.5188 14.1799 21.3842 13.8556 21.3842 13.4552C21.3842 13.0572 21.5358 12.7233 21.8381 12.4549C22.1405 12.1875 22.6228 12.0521 23.2858 12.0521H24.5382V12.0391C24.5382 11.2788 24.1824 10.8986 23.4707 10.8986C23.1724 10.8986 22.9219 10.9513 22.7168 11.0575C22.5134 11.1629 22.348 11.3104 22.2224 11.5009L21.5917 10.9983C21.7879 10.7 22.0465 10.4706 22.3675 10.3109C22.7084 10.1465 23.0832 10.0643 23.4617 10.071H23.5623L23.5631 10.0718ZM18.3315 8.37122C19.1389 8.37122 19.742 8.56008 20.1408 8.93863C20.5396 9.31717 20.7398 9.83027 20.7398 10.4787C20.7398 11.1248 20.5396 11.6379 20.1408 12.0172C19.742 12.3974 19.1389 12.5871 18.3315 12.5871H16.6001V14.7043H15.6323V8.37122H18.3307H18.3315ZM24.5382 12.7638H23.3223C22.9608 12.7638 22.7022 12.8205 22.5466 12.934C22.4728 12.9851 22.413 13.0539 22.3725 13.134C22.332 13.2141 22.3121 13.3031 22.3148 13.3928C22.3148 13.79 22.5823 13.9894 23.1205 13.9894C23.4763 13.9894 23.7722 13.9108 24.0089 13.7519C24.2456 13.5938 24.4223 13.379 24.5382 13.1075V12.7638ZM18.2399 9.25719H16.6001V11.7003H18.2391C18.7644 11.7003 19.147 11.599 19.3886 11.3947C19.6293 11.1921 19.7493 10.8865 19.7493 10.4787C19.7493 10.0718 19.6293 9.76623 19.3886 9.56278C19.147 9.35932 18.7644 9.25719 18.2391 9.25719H18.2399Z" fill="#1B2529"/>
<defs>
<linearGradient id="paint0_linear_450_3067" x1="8.82035" y1="7.93287" x2="5.13064" y2="10.6083" gradientUnits="userSpaceOnUse">
<stop stop-color="#24D365"/>
<stop offset="1" stop-color="#139DBD"/>
</linearGradient>
<linearGradient id="paint1_linear_450_3067" x1="8.79248" y1="7.90895" x2="12.493" y2="10.5998" gradientUnits="userSpaceOnUse">
<stop stop-color="#23D068"/>
<stop offset="0.52" stop-color="#EACD36"/>
<stop offset="1" stop-color="#FF6C5C"/>
</linearGradient>
<linearGradient id="paint2_linear_450_3067" x1="6.22331" y1="15.4165" x2="11.3908" y2="15.4165" gradientUnits="userSpaceOnUse">
<stop stop-color="#266FF3"/>
<stop offset="1" stop-color="#C439D6"/>
</linearGradient>
<linearGradient id="paint3_linear_450_3067" x1="5.4242" y1="15.4313" x2="3.87373" y2="10.9078" gradientUnits="userSpaceOnUse">
<stop stop-color="#266FF3"/>
<stop offset="1" stop-color="#149FBA"/>
</linearGradient>
<linearGradient id="paint4_linear_450_3067" x1="12.5282" y1="10.4981" x2="10.9744" y2="15.0025" gradientUnits="userSpaceOnUse">
<stop stop-color="#FF6C5C"/>
<stop offset="1" stop-color="#C439D6"/>
</linearGradient>
</defs>
</svg>
