<svg width="35" height="24" viewBox="0 0 35 24" fill="none" xmlns="http://www.w3.org/2000/svg">
<path fill-rule="evenodd" clip-rule="evenodd" d="M6.36285 7.74275C5.74228 7.74374 5.2402 8.18827 5.23899 8.73763V8.73766V15.3427V15.3427C5.239 15.347 5.23904 15.3513 5.23911 15.3555C5.24017 15.4197 5.24806 15.4824 5.26218 15.5431C5.36756 15.9961 5.81984 16.3366 6.36285 16.3376H18.0561V16.3375V7.74279V7.74275H6.36285ZM6.36285 7H28.742C29.8261 7.00016 30.7044 7.77758 30.7048 8.73765V15.3427C30.7044 16.3024 29.8261 17.0799 28.742 17.0803H6.36285C5.27865 17.0799 4.4004 16.3024 4.40002 15.3427V8.73765C4.4004 7.77758 5.27865 7.00016 6.36285 7Z" fill="#0F3365"/>
<path fill-rule="evenodd" clip-rule="evenodd" d="M19.9697 14.2623H18.988V10.7321H19.8935V11.1861H19.9045C20.1008 10.8335 20.5155 10.6741 20.9628 10.6741C21.7483 10.6741 22.1789 11.3358 22.1789 11.9441C22.1789 12.6879 21.7262 13.3061 20.8808 13.3061C20.5372 13.3061 20.1662 13.1951 19.9807 12.8957H19.9697V14.2623ZM20.5701 12.6397C20.9408 12.6397 21.1645 12.3645 21.1645 11.9636C21.1645 11.6302 20.9517 11.3406 20.5701 11.3406C20.2099 11.3406 19.9697 11.6208 19.9697 11.9973C19.9697 12.3645 20.2427 12.6397 20.5701 12.6397ZM25.9408 14.2623C26.1428 14.3011 26.3445 14.3204 26.5518 14.3204C27.401 14.3204 27.6383 13.7744 27.8958 13.1819C27.9113 13.1462 27.9269 13.1104 27.9427 13.0746L28.9847 10.7321H28.0028L27.419 12.374H27.4082L26.7972 10.7321H25.7393L26.8897 13.3061C26.8193 13.5283 26.6337 13.6539 26.3941 13.6539C26.2573 13.6539 26.1372 13.6397 26.0066 13.6007L25.9408 14.2623ZM25.5749 13.33C25.5314 13.132 25.5202 12.9341 25.5202 12.736V11.7992C25.5202 11.0313 24.8931 10.7562 24.1676 10.7562C23.7474 10.7562 23.382 10.8091 23.0329 10.9349L23.0491 11.5239C23.3221 11.3888 23.6384 11.3356 23.9546 11.3356C24.3093 11.3356 24.5985 11.4274 24.6039 11.7704C24.4785 11.7509 24.3041 11.7362 24.1458 11.7362C23.6221 11.7362 22.6785 11.8283 22.6785 12.5961C22.6785 13.142 23.1803 13.3882 23.7422 13.3882C24.1458 13.3882 24.4186 13.2479 24.6421 12.9341H24.6528C24.6528 13.0107 24.6585 13.0873 24.6643 13.1649C24.6684 13.2194 24.6726 13.2743 24.6748 13.33H25.5749ZM23.5947 12.5334C23.5947 12.292 23.8565 12.2002 24.1893 12.2002C24.2936 12.2002 24.3952 12.205 24.4901 12.2096L24.4901 12.2096C24.5292 12.2114 24.5672 12.2132 24.6039 12.2146C24.6039 12.5091 24.3695 12.8089 23.9982 12.8089C23.7693 12.8089 23.5947 12.707 23.5947 12.5334Z" fill="#FFFFFE"/>
<path fill-rule="evenodd" clip-rule="evenodd" d="M10.4553 13.248H11.4371V10.7321H10.4553V13.248ZM10.4553 10.3215H11.4371V9.68405H10.4553V10.3215ZM13.8383 10.6741C13.9527 10.6741 14.0727 10.6886 14.1709 10.7029L14.1217 11.4273C14.0128 11.3984 13.9036 11.3984 13.7892 11.3984C13.331 11.3984 13.0746 11.693 13.0746 12.1858V13.248H12.0928V10.7321H12.9874V11.1955H12.9981C13.1673 10.877 13.4128 10.6741 13.8383 10.6741ZM17.5141 11.9926C17.5141 12.8233 16.7994 13.3061 15.8615 13.3061C14.9233 13.3061 14.2087 12.8233 14.2087 11.9926C14.2087 11.1569 14.9233 10.6741 15.8615 10.6741C16.7994 10.6741 17.5141 11.1569 17.5141 11.9926ZM15.2233 11.9926C15.2233 12.3645 15.4087 12.6975 15.8615 12.6975C16.3142 12.6975 16.4997 12.3645 16.4997 11.9926C16.4997 11.6158 16.3142 11.2826 15.8615 11.2826C15.4087 11.2826 15.2233 11.6158 15.2233 11.9926ZM8.88852 10.7321H9.77782V12.9537C9.77782 13.987 9.21055 14.3203 8.06505 14.3203C7.59603 14.3203 7.20872 14.2332 6.97955 14.1611L7.02876 13.4752C7.32869 13.6056 7.57959 13.6828 7.98872 13.6828C8.55609 13.6828 8.8614 13.4462 8.8614 12.9537V12.8182H8.85035C8.61598 13.1131 8.28875 13.248 7.89605 13.248C7.11595 13.248 6.63049 12.7268 6.63049 11.9828C6.63049 11.2342 7.02876 10.6741 7.9123 10.6741C8.33221 10.6741 8.67049 10.877 8.87784 11.1859H8.88852V10.7321ZM8.2015 11.3406C7.83601 11.3406 7.6451 11.6255 7.6451 11.9683C7.6451 12.3594 7.90696 12.5817 8.2015 12.5817C8.55046 12.5817 8.82876 12.321 8.82876 11.9345C8.82876 11.6543 8.64323 11.3406 8.2015 11.3406Z" fill="#D8232A"/>
</svg>
