<svg width="35" height="24" viewBox="0 0 35 24" fill="none" xmlns="http://www.w3.org/2000/svg">
<path fill-rule="evenodd" clip-rule="evenodd" d="M9.51331 4.95592H17.842C23.5015 4.95592 25.6764 8.04886 25.6764 11.9583C25.6764 16.6349 22.6365 18.9855 17.842 18.9855H9.51331V4.95592ZM10.3041 5.79725V18.1938H17.8419C22.3893 18.1938 24.8607 16.0658 24.8607 11.9831C24.8607 7.77673 22.1916 5.79725 17.8419 5.79725H10.3041ZM12.5284 12.2058C13.361 12.2058 14.036 11.5301 14.036 10.6965C14.036 9.86287 13.361 9.1871 12.5284 9.1871C11.6958 9.1871 11.0209 9.86287 11.0209 10.6965C11.0209 11.5301 11.6958 12.2058 12.5284 12.2058ZM11.3175 12.8491H13.7395V17.1545H11.3175V12.8491Z" fill="black"/>
<path fill-rule="evenodd" clip-rule="evenodd" d="M22.1175 9.31078H22.8095V11.3892H23.8228C23.551 7.60347 20.5606 6.76219 17.842 6.76219H14.9504V9.31078H15.3706C16.1614 9.31078 16.631 9.83039 16.631 10.6964C16.631 11.5624 16.1614 12.0821 15.3953 12.0821H14.9504V17.1545H17.842C22.2658 17.1545 23.7734 15.1008 23.8475 12.0821H22.1175V9.31078ZM18.7811 11.3892V12.0821H17.0511V9.31078H18.7317V10.0036H17.7431V10.3253H18.6823V11.0181H17.7678V11.3892H18.7811ZM19.0776 12.0821L19.9179 9.31078H20.9065L21.7468 12.0821H21.0301L20.8818 11.5625H19.9673L19.8191 12.0821H19.0776ZM20.1728 10.8448H20.1651V10.8696L20.1728 10.8448ZM20.1728 10.8448H20.6594L20.437 10.0778H20.4122L20.1728 10.8448ZM14.9504 11.3892V10.0036H15.3706C15.6424 10.0036 15.939 10.0778 15.939 10.6964C15.939 11.315 15.6671 11.3892 15.3706 11.3892H14.9504Z" fill="#D50072"/>
</svg>
