<svg width="35" height="24" viewBox="0 0 35 24" fill="none" xmlns="http://www.w3.org/2000/svg">
<path fill-rule="evenodd" clip-rule="evenodd" d="M25.7108 18.8423C25.7108 19.2049 25.5668 19.5526 25.3104 19.809C25.0541 20.0653 24.7064 20.2094 24.3438 20.2094H10.6593C10.4797 20.2096 10.3017 20.1743 10.1357 20.1057C9.96965 20.0371 9.81877 19.9365 9.69166 19.8095C9.56455 19.6825 9.46372 19.5318 9.39492 19.3658C9.32612 19.1999 9.29071 19.022 9.29071 18.8423V5.15845C9.29071 4.97879 9.32612 4.8009 9.39492 4.63494C9.46372 4.46898 9.56455 4.31821 9.69166 4.19125C9.81877 4.06429 9.96965 3.96362 10.1357 3.89501C10.3017 3.8264 10.4797 3.79119 10.6593 3.7914H24.3429C24.7054 3.7914 25.0531 3.93543 25.3095 4.1918C25.5659 4.44817 25.7099 4.79588 25.7099 5.15845L25.7108 18.8423Z" fill="#EDAA00"/>
<path d="M18.459 12.1776V9.23753L19.2267 9.05577V9.44072C19.2267 9.44072 19.4252 8.93398 19.8863 8.81623C20.0283 8.7805 20.0997 8.80194 20.0997 8.80194V9.55195C19.9616 9.55384 19.8251 9.58232 19.6977 9.63584C19.4131 9.748 19.2702 9.99344 19.2702 10.3663V11.9896L18.459 12.1776ZM14.4134 13.1336C14.4134 13.1336 14.2891 12.9472 14.2891 12.2848V10.8211L13.8939 10.9143V10.3119L14.2895 10.2187V9.56127L15.1056 9.36864V10.0245L15.6823 9.88781V10.4906L15.1056 10.6276V12.1189C15.1056 12.7965 15.2855 12.9267 15.2855 12.9267L14.4134 13.1336ZM15.7674 11.3847C15.7674 10.8618 15.842 10.4806 16.0017 10.1879C16.1915 9.84058 16.5038 9.6144 16.958 9.51094C17.8531 9.30743 18.1759 9.83748 18.1632 10.5477C18.1591 10.8016 18.1601 10.9255 18.1601 10.9255L16.583 11.2962V11.3217C16.583 11.8188 16.6874 12.054 17.0018 11.9869C17.2733 11.9297 17.3488 11.7594 17.3703 11.5494C17.374 11.5149 17.3753 11.4288 17.3753 11.4288L18.1144 11.2518C18.1144 11.2518 18.1163 11.3123 18.1144 11.3798C18.1076 11.6622 18.0255 12.3625 16.9987 12.6048C16.0262 12.8357 15.7665 12.2416 15.7665 11.3847H15.7674ZM16.9897 10.0584C16.7284 10.1177 16.5914 10.374 16.5858 10.7988L17.3793 10.6099C17.3808 10.5906 17.3808 10.5477 17.3808 10.4819C17.3793 10.1615 17.2802 9.99251 16.99 10.0584H16.9897ZM22.8605 9.66535C22.8295 8.76994 23.0619 8.05907 24.0608 7.83226C24.6983 7.68748 24.9397 7.85277 25.0621 8.01278C25.1799 8.16564 25.2252 8.37163 25.2252 8.66026V8.7137L24.4429 8.90012V8.79106C24.4429 8.4493 24.3497 8.31881 24.1011 8.38095C23.8057 8.4552 23.6864 8.73545 23.6864 9.29345V9.5535C23.6864 10.1205 23.764 10.3803 24.1042 10.3088C24.4 10.2467 24.4404 9.98816 24.446 9.76074C24.446 9.72501 24.4482 9.61067 24.4482 9.61067L25.2293 9.42674V9.54822C25.2271 10.2914 24.8353 10.7599 24.1008 10.9308C23.0901 11.1682 22.8919 10.5831 22.8609 9.66535H22.8605ZM20.1584 10.9187C20.1584 10.2376 20.558 10.0223 21.1586 9.7741C21.6982 9.55071 21.7097 9.43979 21.7122 9.24592C21.715 9.0828 21.6395 8.94268 21.3705 9.01134C21.1235 9.07348 21.0579 9.25306 21.0449 9.39598C21.0403 9.44618 21.0387 9.49659 21.0399 9.54698L20.2827 9.72563C20.2776 9.57472 20.2952 9.42391 20.3349 9.27823C20.4561 8.87091 20.8156 8.59688 21.4351 8.45365C22.2404 8.26723 22.5091 8.62142 22.5104 9.17135V10.4735C22.5104 11.1032 22.6272 11.1952 22.6272 11.1952L21.8837 11.3714C21.8426 11.2854 21.8092 11.196 21.7837 11.1042C21.7837 11.1042 21.6212 11.514 21.0601 11.6463C20.4698 11.7849 20.1591 11.4201 20.1591 10.919L20.1584 10.9187ZM21.7079 9.98909C21.5825 10.077 21.4501 10.1544 21.312 10.2206C21.0635 10.342 20.952 10.4912 20.952 10.7211C20.952 10.9202 21.0762 11.0514 21.2999 10.9954C21.5407 10.9352 21.7079 10.7105 21.7079 10.3989V9.98909ZM10.147 15.1944C10.0621 15.1943 9.9789 15.1712 9.90605 15.1277C9.8332 15.0842 9.77342 15.0219 9.733 14.9473C9.69258 14.8727 9.67302 14.7886 9.67638 14.7038C9.67974 14.619 9.7059 14.5367 9.75209 14.4656L9.75706 14.459L9.76607 14.4569L10.8752 14.1949V15.0379L10.8578 15.0419C10.6062 15.1025 10.3054 15.1711 10.2433 15.1839C10.2115 15.191 10.179 15.1946 10.1464 15.1944H10.147ZM10.147 16.2729C10.0223 16.2729 9.90276 16.2235 9.81448 16.1355C9.72619 16.0475 9.67638 15.9281 9.67597 15.8034C9.67547 15.7124 9.70196 15.6233 9.75209 15.5474L9.75706 15.539L9.76607 15.5371L10.8752 15.2752V16.1181L10.8578 16.1228C10.6062 16.1831 10.3054 16.253 10.2433 16.2651C10.2114 16.2713 10.1789 16.2745 10.1464 16.2744L10.147 16.2729ZM10.147 17.3531C10.022 17.3531 9.90223 17.3034 9.81391 17.215C9.72559 17.1266 9.67597 17.0068 9.67597 16.8818C9.67547 16.7908 9.70196 16.7017 9.75209 16.6258L9.75706 16.6171L10.8756 16.3536V17.1966L10.8582 17.2009C10.5925 17.2649 10.297 17.3317 10.2436 17.3438C10.2117 17.3499 10.1792 17.353 10.1467 17.3531" fill="#231F20"/>
<path d="M10.0165 14.1614L10.0162 9.4454L10.8759 9.2422V13.9579L10.0165 14.1614Z" fill="#231F20"/>
<path d="M12.1581 13.7603C12.1548 13.6218 12.0974 13.4901 11.9983 13.3934C11.8992 13.2966 11.7661 13.2425 11.6276 13.2425C11.4891 13.2425 11.3561 13.2966 11.2569 13.3934C11.1578 13.4901 11.1005 13.6218 11.0971 13.7603V18.1684C11.0978 18.5491 11.2493 18.914 11.5184 19.1832C11.7876 19.4524 12.1524 19.604 12.5331 19.6047C12.9345 19.6047 14.0344 19.6029 14.0344 19.6029V15.7133C14.0346 15.599 14.0065 15.4864 13.9527 15.3855C13.8989 15.2846 13.821 15.1986 13.7259 15.1351L12.3874 14.226V16.2903C12.3882 16.3057 12.3859 16.3212 12.3805 16.3357C12.3752 16.3502 12.3669 16.3635 12.3563 16.3747C12.3456 16.3859 12.3328 16.3949 12.3186 16.401C12.3043 16.4071 12.289 16.4102 12.2735 16.4102C12.2581 16.4102 12.2428 16.4071 12.2285 16.401C12.2143 16.3949 12.2015 16.3859 12.1908 16.3747C12.1802 16.3635 12.1719 16.3502 12.1666 16.3357C12.1612 16.3212 12.1589 16.3057 12.1597 16.2903C12.1597 16.2682 12.1569 14.0328 12.1569 13.7603H12.1581ZM12.8746 10.4716C12.712 10.5092 12.5595 10.5814 12.4274 10.6832C12.2953 10.7851 12.1867 10.9143 12.109 11.0619V10.7317L11.3351 10.915V13.0317C11.4708 12.9782 11.6188 12.9631 11.7625 12.9883C11.9062 13.0135 12.0403 13.0778 12.1497 13.1743V11.8073C12.1497 11.4801 12.3132 11.2185 12.5456 11.1673C12.7211 11.1287 12.8671 11.1915 12.8671 11.5031V13.4974L13.6821 13.3061V11.1968C13.6821 10.6851 13.4857 10.3268 12.8743 10.4716H12.8746ZM24.7229 7.45323C24.6231 7.45329 24.5256 7.42377 24.4427 7.36842C24.3597 7.31306 24.295 7.23434 24.2568 7.14223C24.2186 7.05011 24.2085 6.94873 24.2279 6.8509C24.2473 6.75307 24.2953 6.66319 24.3658 6.59263C24.4363 6.52206 24.5261 6.47398 24.6239 6.45447C24.7217 6.43495 24.8231 6.44487 24.9152 6.48298C25.0074 6.52109 25.0862 6.58567 25.1417 6.66856C25.1971 6.75145 25.2267 6.84893 25.2268 6.94866C25.2266 7.08221 25.1734 7.21021 25.0789 7.30462C24.9845 7.39902 24.8564 7.45213 24.7229 7.45229V7.45323ZM24.7229 6.50748C24.6357 6.50748 24.5505 6.53332 24.478 6.58175C24.4055 6.63018 24.349 6.69902 24.3156 6.77956C24.2822 6.8601 24.2735 6.94873 24.2904 7.03424C24.3074 7.11976 24.3494 7.19831 24.411 7.25998C24.4726 7.32165 24.5512 7.36367 24.6367 7.38071C24.7222 7.39776 24.8108 7.38907 24.8914 7.35575C24.9719 7.32243 25.0408 7.26597 25.0893 7.19351C25.1378 7.12105 25.1637 7.03584 25.1637 6.94866C25.1636 6.83175 25.1171 6.71968 25.0344 6.63699C24.9518 6.55429 24.8398 6.50772 24.7229 6.50748Z" fill="#231F20"/>
<path d="M24.5392 6.64888H24.7567C24.8434 6.64888 24.9121 6.69207 24.9121 6.80671C24.9121 6.88656 24.8767 6.94808 24.8095 6.95864C24.8717 6.96485 24.9028 6.99841 24.9056 7.08509C24.9056 7.12393 24.9074 7.1724 24.9093 7.20937C24.9093 7.21993 24.9119 7.23032 24.917 7.23956C24.9222 7.2488 24.9295 7.25659 24.9385 7.26219H24.8279C24.8168 7.24626 24.8109 7.22725 24.8111 7.20782C24.8074 7.17084 24.808 7.13636 24.8068 7.09162C24.8068 7.02451 24.7847 6.99499 24.717 6.99499H24.639V7.26219H24.5405L24.5392 6.64888ZM24.716 6.92291C24.7294 6.92415 24.7429 6.92239 24.7555 6.91777C24.7681 6.91315 24.7795 6.90579 24.7889 6.89621C24.7983 6.88663 24.8054 6.87508 24.8098 6.86239C24.8142 6.84971 24.8157 6.83621 24.8142 6.82287C24.8142 6.75731 24.7862 6.72314 24.721 6.72314H24.639V6.92291H24.716Z" fill="#231F20"/>
</svg>
