<svg width="35" height="24" viewBox="0 0 35 24" fill="none" xmlns="http://www.w3.org/2000/svg">
<path d="M20.0949 12.127C20.0949 15.9394 17.0398 19.0299 13.2712 19.0299C9.50249 19.0299 6.44739 15.9394 6.44739 12.127C6.44739 8.31454 9.50249 5.22397 13.2712 5.22397C17.0398 5.22397 20.0949 8.31454 20.0949 12.127Z" fill="#ED0006"/>
<path d="M28.9474 12.127C28.9474 15.9394 25.8923 19.0299 22.1236 19.0299C18.355 19.0299 15.2999 15.9394 15.2999 12.127C15.2999 8.31454 18.355 5.22397 22.1236 5.22397C25.8923 5.22397 28.9474 8.31454 28.9474 12.127Z" fill="#0099DF"/>
<path fill-rule="evenodd" clip-rule="evenodd" d="M17.6974 6.87302C19.1646 8.13915 20.0949 10.0231 20.0949 12.1269C20.0949 14.2307 19.1646 16.1147 17.6974 17.3809C16.2303 16.1147 15.2999 14.2307 15.2999 12.1269C15.2999 10.0231 16.2303 8.13915 17.6974 6.87302Z" fill="#6C6BBD"/>
</svg>
