<svg width="35" height="24" viewBox="0 0 35 24" fill="none" xmlns="http://www.w3.org/2000/svg">
<path d="M19.7044 11.0612C19.7044 12.6013 18.6247 13.7008 17.1158 13.7008H15.6943C15.6786 13.7008 15.663 13.7039 15.6485 13.7099C15.6341 13.7159 15.6209 13.7247 15.6098 13.7358C15.5988 13.747 15.59 13.7602 15.584 13.7747C15.5781 13.7892 15.5751 13.8048 15.5751 13.8205V15.8446C15.5751 15.8763 15.5626 15.9066 15.5403 15.9291C15.5179 15.9515 15.4876 15.9642 15.456 15.9643H14.4613C14.4376 15.9642 14.4145 15.9571 14.3949 15.944C14.3752 15.9308 14.3599 15.9122 14.3508 15.8903C14.3448 15.876 14.3417 15.8607 14.3415 15.8452V8.54087C14.3415 8.52517 14.3445 8.50962 14.3505 8.4951C14.3564 8.48058 14.3652 8.46737 14.3762 8.45625C14.3873 8.44512 14.4005 8.4363 14.415 8.43027C14.4295 8.42425 14.445 8.42115 14.4607 8.42115H17.1222C18.6247 8.41942 19.7044 9.51883 19.7044 11.0612ZM18.4639 11.0612C18.4639 10.1758 17.8601 9.52866 17.0412 9.52866H15.6943C15.6786 9.52866 15.663 9.53176 15.6485 9.53778C15.6341 9.5438 15.6209 9.55263 15.6098 9.56376C15.5988 9.57488 15.59 9.58808 15.584 9.6026C15.5781 9.61712 15.5751 9.63268 15.5751 9.64837V12.4672C15.5751 12.4988 15.5877 12.5291 15.61 12.5514C15.6324 12.5738 15.6627 12.5863 15.6943 12.5863H17.0412C17.8601 12.5921 18.4639 11.9444 18.4639 11.0612ZM19.9994 14.563C19.9891 14.3268 20.0379 14.0918 20.1416 13.8793C20.2452 13.6668 20.4003 13.4835 20.5927 13.3462C20.9808 13.0542 21.5875 12.9032 22.4781 12.872L23.4266 12.8385V12.5585C23.4266 11.9976 23.0507 11.7604 22.4469 11.7604C21.8431 11.7604 21.4602 11.9744 21.3723 12.3243C21.3652 12.3489 21.35 12.3705 21.3293 12.3855C21.3086 12.4006 21.2834 12.4084 21.2578 12.4076H20.3209C20.3037 12.4081 20.2865 12.4047 20.2707 12.3978C20.2549 12.3909 20.2408 12.3806 20.2294 12.3676C20.2181 12.3547 20.2097 12.3393 20.2049 12.3227C20.2001 12.3062 20.1991 12.2887 20.2018 12.2717C20.3406 11.4424 21.0305 10.812 22.4897 10.812C24.0419 10.812 24.6023 11.5349 24.6023 12.9148V15.8446C24.602 15.8766 24.5891 15.9071 24.5663 15.9296C24.5436 15.952 24.5128 15.9645 24.4809 15.9643H23.5365C23.5049 15.9643 23.4746 15.9518 23.452 15.9296C23.441 15.9185 23.4322 15.9054 23.4263 15.8909C23.4203 15.8764 23.4173 15.8609 23.4173 15.8452V15.626C23.4177 15.6079 23.4125 15.5901 23.4025 15.575C23.3926 15.5599 23.3783 15.5481 23.3615 15.5413C23.3447 15.5345 23.3262 15.5329 23.3085 15.5368C23.2908 15.5406 23.2747 15.5498 23.2623 15.563C22.979 15.8712 22.5215 16.0939 21.7887 16.0939C20.7107 16.0939 19.9994 15.5329 19.9994 14.563ZM23.4266 13.928V13.7008L22.1982 13.7655C21.551 13.7985 21.1746 14.0674 21.1746 14.5202C21.1746 14.9297 21.5198 15.1564 22.123 15.1564C22.9425 15.1564 23.4266 14.714 23.4266 13.928ZM25.5508 18.1782V17.3292C25.551 17.3114 25.5551 17.2939 25.5628 17.2778C25.5705 17.2618 25.5817 17.2476 25.5955 17.2364C25.6093 17.2251 25.6254 17.217 25.6426 17.2127C25.6599 17.2083 25.6779 17.2078 25.6954 17.2112C25.84 17.2384 25.9874 17.2523 26.1349 17.2529C26.3884 17.2652 26.6388 17.1921 26.8459 17.0453C27.0529 16.8985 27.2048 16.6865 27.2771 16.4432L27.3384 16.2477C27.3473 16.2215 27.3473 16.193 27.3384 16.1668L25.3704 11.1121C25.3632 11.0938 25.3607 11.074 25.3629 11.0545C25.3651 11.035 25.372 11.0163 25.3831 11C25.3941 10.9837 25.4089 10.9704 25.4262 10.9611C25.4436 10.9518 25.4629 10.9469 25.4825 10.9467H26.4368C26.4612 10.947 26.4849 10.9546 26.5049 10.9685C26.5249 10.9824 26.5403 11.002 26.549 11.0248L27.8855 14.5896C27.8939 14.6133 27.9094 14.6338 27.9299 14.6483C27.9504 14.6628 27.9749 14.6706 28 14.6706C28.0252 14.6706 28.0497 14.6628 28.0702 14.6483C28.0907 14.6338 28.1062 14.6133 28.1145 14.5896L29.2753 11.0346C29.2833 11.0103 29.2988 10.9892 29.3196 10.9742C29.3404 10.9593 29.3653 10.9513 29.3909 10.9514H30.3781C30.3979 10.9515 30.4174 10.9564 30.4348 10.9656C30.4523 10.9749 30.4673 10.9883 30.4785 11.0046C30.4897 11.0209 30.4968 11.0397 30.4991 11.0593C30.5015 11.0789 30.4991 11.0988 30.4921 11.1173L28.3869 16.7306C27.9023 18.0354 27.0712 18.3691 26.1563 18.3691C25.9828 18.3737 25.8093 18.3529 25.6416 18.3072C25.6137 18.2998 25.5893 18.2828 25.5727 18.2592C25.5561 18.2356 25.5483 18.2069 25.5508 18.1782ZM7.94924 8.00012C6.69546 7.99119 5.48593 8.46308 4.56946 9.31872C4.53027 9.35462 4.50584 9.40381 4.50092 9.45673C4.496 9.50964 4.51095 9.5625 4.54286 9.605L5.1102 10.38C5.12859 10.4058 5.15242 10.4272 5.17999 10.4428C5.20757 10.4584 5.23823 10.4678 5.26982 10.4703C5.30141 10.4728 5.33316 10.4683 5.36284 10.4572C5.39251 10.4461 5.41939 10.4286 5.44159 10.406C5.77113 10.0765 6.16303 9.81607 6.59438 9.63981C7.02574 9.46355 7.48791 9.37504 7.95386 9.37945C9.89938 9.37945 10.9155 10.8438 10.9155 12.2896C10.9155 13.8615 9.8479 14.9673 8.31359 14.9893C7.12801 14.9893 6.23448 14.2033 6.23448 13.1652C6.23572 12.903 6.29513 12.6442 6.40844 12.4077C6.52175 12.1712 6.68613 11.9628 6.88973 11.7975C6.93277 11.7615 6.95998 11.7101 6.9655 11.6543C6.97101 11.5985 6.9544 11.5427 6.91923 11.499L6.32297 10.746C6.30493 10.7233 6.28252 10.7043 6.25706 10.6904C6.23159 10.6764 6.20358 10.6677 6.17469 10.6647C6.14579 10.6618 6.1166 10.6646 6.08882 10.6731C6.06105 10.6816 6.03526 10.6956 6.01298 10.7142C5.64679 11.0093 5.35128 11.3825 5.14813 11.8066C4.94498 12.2308 4.83934 12.695 4.83896 13.1652C4.83896 14.9523 6.35767 16.3541 8.30318 16.3657H8.3292C10.6391 16.3356 12.3093 14.6249 12.3093 12.2867C12.3093 10.2105 10.7802 8.00012 7.94982 8.00012H7.94924Z" fill="black"/>
</svg>
