<svg width="35" height="24" viewBox="0 0 35 24" fill="none" xmlns="http://www.w3.org/2000/svg">
<path fill-rule="evenodd" clip-rule="evenodd" d="M22.9576 7.83014C22.3917 7.83014 21.9321 8.28734 21.9321 8.85097C21.9321 9.41493 22.3917 9.87114 22.9576 9.87114C23.5245 9.87114 23.9837 9.41493 23.9837 8.85097C23.9837 8.28734 23.5245 7.83014 22.9576 7.83014ZM8.16413 11.2503C7.90118 11.2334 7.29194 11.1939 7.29194 10.6485C7.29194 9.99041 8.16846 9.99041 8.49741 9.99041C9.07598 9.99041 9.82452 10.1602 10.3598 10.3196C10.3598 10.3196 10.6577 10.4244 10.9113 10.5312L10.935 10.5378V8.73518L10.9033 8.72556C10.2714 8.50575 9.5379 8.29455 8.17713 8.29455C5.83119 8.29455 5 9.65356 5 10.8189C5 11.49 5.28928 13.0708 7.97516 13.2528L7.97765 13.253C8.20782 13.267 8.80802 13.3036 8.80802 13.8652C8.80802 14.3307 8.31311 14.6045 7.48091 14.6045C6.56907 14.6045 5.68388 14.3738 5.14664 14.154V16.01C5.95117 16.2205 6.85835 16.3246 7.9215 16.3246C10.2144 16.3246 11.2423 15.0385 11.2423 13.7634C11.2423 12.3182 10.0928 11.3789 8.16413 11.2503ZM15.0876 10.4491L15.0982 10.4218H17.5544C17.4845 10.6442 17.0462 11.9867 16.047 13.2472C16.047 13.2472 17.1598 15.1871 17.4141 16.2394H14.8422C14.8422 16.2394 14.535 14.8423 13.9131 13.9139V16.2394H11.7654V8.71727L13.9131 8.29455V12.4448C14.674 11.5292 15.0131 10.6437 15.0876 10.4491ZM27.9187 16.2394V8.66489L30 8.29455V16.2394H27.9187ZM20.7439 10.3433C18.8212 10.4049 17.8444 11.2636 17.8444 12.9704V16.2395H19.9427V13.5732C19.9427 12.5517 20.0773 12.1137 21.2961 12.0719V10.3734C21.0912 10.33 20.7439 10.3433 20.7439 10.3433ZM21.9178 16.2394V10.4284H23.9988V16.2394H21.9178ZM24.8806 8.66489L26.9606 8.29455V16.2394H24.8806V8.66489Z" fill="#862165"/>
</svg>
