<svg width="35" height="24" viewBox="0 0 35 24" fill="none" xmlns="http://www.w3.org/2000/svg">
<path fill-rule="evenodd" clip-rule="evenodd" d="M18.8055 8.14195L17.0275 8.52352V7.08205L18.8055 6.70755V8.14195ZM11.5803 7.52721L9.852 7.89464L9.84491 13.5545C9.84491 14.6003 10.6312 15.3705 11.6795 15.3705C12.2603 15.3705 12.6853 15.2645 12.9191 15.1373V13.7029C12.6924 13.7948 11.5733 14.1198 11.5733 13.074V10.5656H12.9191V9.06054H11.5733L11.5803 7.52721ZM7.39418 10.4738C7.01876 10.4738 6.79209 10.5797 6.79209 10.8553C6.79209 11.1562 7.18219 11.2886 7.66615 11.4528C8.45512 11.7205 9.49355 12.0728 9.49794 13.3779C9.49794 14.6427 8.48502 15.3705 7.01168 15.3705C6.40251 15.3705 5.73667 15.2504 5.07792 14.9678V13.286C5.67292 13.6111 6.42376 13.8513 7.01168 13.8513C7.40834 13.8513 7.69168 13.7453 7.69168 13.4203C7.69168 13.087 7.26881 12.9347 6.75828 12.7508C5.98078 12.4707 5 12.1173 5 10.9401C5 9.68942 5.95625 8.94042 7.39418 8.94042C7.9821 8.94042 8.56293 9.03228 9.15085 9.26546V10.926C8.61252 10.6363 7.93251 10.4738 7.39418 10.4738ZM27.9429 8.94042C29.6217 8.94042 30.5 10.3678 30.5 12.1767C30.5 12.2744 30.4953 12.4377 30.4913 12.5762V12.5762V12.5762V12.5763V12.5763C30.4884 12.6782 30.4858 12.7666 30.4858 12.8055H27.0221C27.1 13.6393 27.7092 13.8796 28.3962 13.8796C29.0975 13.8796 29.65 13.7312 30.1317 13.4909V14.9042C29.65 15.1727 29.0125 15.3634 28.1696 15.3634C26.4412 15.3634 25.2371 14.2894 25.2371 12.1625C25.2371 10.3678 26.2571 8.94042 27.9429 8.94042ZM27.9358 10.3748C27.4895 10.3748 27.0008 10.7069 27.0008 11.5054H28.8283C28.8283 10.7069 28.3679 10.3748 27.9358 10.3748ZM15.1221 9.58344L15.0088 9.06055H13.4788V15.2433H15.2496V11.0532C15.6676 10.5091 16.3759 10.608 16.5955 10.6857V9.06055C16.3688 8.97576 15.5401 8.82031 15.1221 9.58344ZM17.0274 9.06055H18.8053V15.2433H17.0274V9.06055ZM22.5028 8.94042C21.8086 8.94042 21.3624 9.26546 21.1145 9.49158L21.0224 9.05348H19.4641V17.2925L21.2349 16.918L21.242 14.9183C21.497 15.102 21.8724 15.3635 22.4957 15.3635C23.7637 15.3635 24.9182 14.3459 24.9182 12.106C24.9112 10.0569 23.7424 8.94042 22.5028 8.94042ZM22.0778 13.8089C21.6599 13.8089 21.412 13.6605 21.242 13.4768L21.2349 10.8553C21.419 10.6504 21.674 10.5091 22.0778 10.5091C22.7224 10.5091 23.1686 11.2298 23.1686 12.1555C23.1686 13.1023 22.7295 13.8089 22.0778 13.8089Z" fill="#6461FC"/>
</svg>
