<svg width="35" height="24" viewBox="0 0 35 24" fill="none" xmlns="http://www.w3.org/2000/svg">
<path d="M10.8277 5.00154H16.3435C17.1135 5.00154 17.5924 5.62912 17.4127 6.40163L14.8448 17.427C14.6635 18.1968 13.8926 18.8249 13.1221 18.8249H7.6069C6.83802 18.8249 6.35806 18.1968 6.53768 17.427L9.10674 6.40163C9.28636 5.62912 10.0568 5.00154 10.8277 5.00154Z" fill="#E21836"/>
<path d="M15.8843 5H22.2273C22.9971 5 22.6499 5.62758 22.4688 6.40009L19.9013 17.4255C19.7211 18.1953 19.7773 18.8234 19.0059 18.8234H12.6629C11.8914 18.8234 11.414 18.1953 11.5953 17.4255L14.1627 6.40009C14.345 5.62758 15.1139 5 15.8843 5Z" fill="#00447C"/>
<path d="M21.9758 5H27.4915C28.2626 5 28.7415 5.62758 28.5604 6.40009L25.9928 17.4255C25.8115 18.1953 25.0401 18.8234 24.2692 18.8234H18.756C17.9846 18.8234 17.5061 18.1953 17.6868 17.4255L20.2548 6.40009C20.4344 5.62758 21.2043 5 21.9758 5Z" fill="#007B84"/>
<path d="M12.268 8.53332C11.7008 8.5391 11.5332 8.53332 11.4797 8.52068C11.4592 8.61842 11.0764 10.3841 11.0753 10.3855C10.9929 10.7428 10.933 10.9974 10.7293 11.1618C10.6137 11.2574 10.4787 11.3035 10.3222 11.3035C10.0706 11.3035 9.92411 11.1786 9.8995 10.9417L9.8948 10.8604C9.8948 10.8604 9.97143 10.3819 9.97143 10.3792C9.97143 10.3792 10.3731 8.77021 10.4451 8.55752C10.4488 8.54542 10.4499 8.5391 10.4509 8.53332C9.66893 8.54018 9.53032 8.53332 9.52078 8.52068C9.51554 8.53803 9.49618 8.63778 9.49618 8.63778L9.08599 10.4513L9.05077 10.6051L8.9826 11.1082C8.9826 11.2574 9.01191 11.3792 9.07026 11.4822C9.25714 11.8087 9.7902 11.8577 10.0918 11.8577C10.4803 11.8577 10.8448 11.7751 11.0911 11.6244C11.5186 11.3718 11.6305 10.977 11.7302 10.6261L11.7765 10.446C11.7765 10.446 12.1903 8.77492 12.2606 8.55752C12.2633 8.54542 12.2643 8.5391 12.268 8.53332ZM13.676 9.88143C13.5762 9.88143 13.3939 9.90563 13.2301 9.98589C13.1707 10.0164 13.1145 10.0516 13.0552 10.0867L13.1087 9.89353L13.0794 9.861C12.7322 9.93131 12.6545 9.94072 12.3337 9.98589L12.3068 10.0038C12.2696 10.3126 12.2365 10.5448 12.0984 11.1518C12.0458 11.3755 11.9913 11.6014 11.9365 11.8245L11.9513 11.8529C12.28 11.8356 12.3798 11.8356 12.6655 11.8403L12.6886 11.8151C12.7249 11.6292 12.7296 11.5856 12.81 11.2091C12.8478 11.0305 12.9266 10.6382 12.9654 10.4985C13.0368 10.4654 13.1073 10.4329 13.1745 10.4329C13.3346 10.4329 13.3151 10.5726 13.3089 10.6283C13.3021 10.7217 13.2437 11.0269 13.1839 11.2889L13.144 11.458C13.1161 11.5829 13.0856 11.7043 13.0578 11.8282L13.0699 11.8529C13.3939 11.8356 13.4927 11.8356 13.7694 11.8403L13.8019 11.8151C13.8519 11.5247 13.8666 11.447 13.9553 11.0242L14 10.8299C14.0867 10.4497 14.1302 10.2569 14.0646 10.0999C13.9953 9.92392 13.8288 9.88143 13.676 9.88143ZM15.2488 10.2795C15.0766 10.3126 14.9668 10.3346 14.8576 10.3489C14.7494 10.3662 14.6438 10.3819 14.4774 10.4051L14.4642 10.417L14.4521 10.4266C14.4348 10.5505 14.4227 10.6577 14.3997 10.7837C14.3802 10.9139 14.3502 11.062 14.3014 11.2746C14.2636 11.4375 14.2441 11.4942 14.2226 11.5515C14.2017 11.6087 14.1785 11.6644 14.136 11.8245L14.146 11.8393L14.1543 11.8529C14.3099 11.8455 14.4117 11.8402 14.5162 11.8393C14.6207 11.8355 14.7289 11.8393 14.8965 11.8402L14.9111 11.8283L14.9268 11.8151C14.951 11.6707 14.9547 11.6319 14.9695 11.5614C14.9841 11.4859 15.0094 11.3813 15.0714 11.1019C15.1007 10.9707 15.1333 10.8399 15.1637 10.706C15.1953 10.5726 15.2284 10.4412 15.2599 10.31L15.2551 10.2942L15.2488 10.2795ZM15.2525 9.74278C15.096 9.65042 14.8213 9.67973 14.6365 9.80731C14.4522 9.93234 14.4312 10.1098 14.5871 10.2034C14.7409 10.2932 15.0167 10.2664 15.1999 10.1378C15.3838 10.0101 15.4068 9.8342 15.2525 9.74278ZM16.1989 11.8818C16.5155 11.8818 16.8401 11.7946 17.0843 11.5356C17.2723 11.3256 17.3585 11.0132 17.3883 10.8845C17.4855 10.4581 17.4098 10.259 17.3148 10.1377C17.1704 9.95285 16.9152 9.89356 16.6505 9.89356C16.4913 9.89356 16.1122 9.90929 15.816 10.1823C15.6033 10.3793 15.505 10.6466 15.4458 10.9028C15.3859 11.1639 15.3171 11.6339 15.7493 11.8088C15.8827 11.8661 16.0749 11.8818 16.1989 11.8818ZM16.1742 10.9223C16.2472 10.5994 16.3333 10.3283 16.5533 10.3283C16.7257 10.3283 16.7382 10.53 16.6615 10.854C16.6478 10.9259 16.5849 11.1933 16.4998 11.3072C16.4404 11.3912 16.3701 11.4422 16.2923 11.4422C16.2692 11.4422 16.1317 11.4422 16.1295 11.238C16.1285 11.1372 16.149 11.0342 16.1742 10.9223ZM18.1798 11.8403L18.2045 11.8152C18.2396 11.6292 18.2454 11.5855 18.3231 11.2091C18.362 11.0306 18.4423 10.6382 18.4801 10.4986C18.5517 10.4654 18.6209 10.4328 18.6903 10.4328C18.8493 10.4328 18.8299 10.5725 18.8236 10.6282C18.8178 10.7217 18.7595 11.0268 18.6986 11.2888L18.6608 11.4579C18.6319 11.583 18.6005 11.7042 18.5726 11.8282L18.5847 11.8529C18.9098 11.8356 19.0049 11.8356 19.2832 11.8403L19.3168 11.8152C19.3656 11.5246 19.3787 11.4469 19.4702 11.0242L19.5137 10.8298C19.6008 10.4496 19.6449 10.257 19.5804 10.0999C19.509 9.92396 19.3415 9.88147 19.1908 9.88147C19.0909 9.88147 18.9077 9.90554 18.7448 9.98593C18.6866 10.0165 18.6283 10.0515 18.571 10.0868L18.6209 9.89357L18.5941 9.8609C18.247 9.93135 18.1677 9.94076 17.8473 9.98593L17.8227 10.0038C17.7838 10.3126 17.7523 10.5447 17.6142 11.1518C17.5616 11.3755 17.507 11.6014 17.4524 11.8246L17.4671 11.8529C17.7964 11.8356 17.8946 11.8356 18.1798 11.8403ZM20.5682 11.8529C20.5887 11.7531 20.7101 11.1618 20.7111 11.1618C20.7111 11.1618 20.8145 10.728 20.8208 10.7123C20.8208 10.7123 20.8534 10.6671 20.8859 10.6492H20.9338C21.3854 10.6492 21.8953 10.6492 22.295 10.3552C22.567 10.1535 22.7529 9.85573 22.8359 9.49381C22.8574 9.40507 22.8732 9.29954 22.8732 9.194C22.8732 9.05539 22.8454 8.91826 22.765 8.81111C22.5612 8.52595 22.1553 8.52071 21.6868 8.51856C21.6853 8.51856 21.4558 8.52071 21.4558 8.52071C20.8561 8.52811 20.6155 8.52595 20.5167 8.51385C20.5084 8.55755 20.4927 8.63526 20.4927 8.63526C20.4927 8.63526 20.2778 9.63094 20.2778 9.63255C20.2778 9.63255 19.7637 11.7495 19.7395 11.8492C20.2632 11.8429 20.4779 11.8429 20.5682 11.8529ZM20.9663 10.0841C20.9663 10.0841 21.1947 9.09048 21.1937 9.09424L21.201 9.04329L21.2043 9.00444L21.2956 9.01385C21.2956 9.01385 21.7666 9.05431 21.7777 9.05539C21.9636 9.12732 22.0402 9.31271 21.9867 9.55471C21.9379 9.77587 21.7945 9.9618 21.6102 10.0516C21.4584 10.1277 21.2724 10.134 21.0809 10.134H20.9569L20.9663 10.0841ZM22.3885 10.9407C22.3281 11.198 22.2588 11.6681 22.6888 11.8356C22.826 11.8939 22.9489 11.9113 23.0737 11.9049C23.2056 11.8978 23.3278 11.8317 23.441 11.7365C23.4308 11.7756 23.4206 11.8147 23.4104 11.854L23.4299 11.8791C23.7392 11.8661 23.8352 11.8661 24.1704 11.8686L24.2008 11.8455C24.2497 11.5578 24.2958 11.2784 24.423 10.728C24.485 10.4644 24.5468 10.2033 24.6104 9.94073L24.6005 9.91183C24.2544 9.97596 24.1619 9.98967 23.829 10.0369L23.8038 10.0574C23.8004 10.0842 23.7969 10.1099 23.7937 10.1355C23.7419 10.0519 23.6669 9.98053 23.5512 9.93603C23.4031 9.87781 23.0555 9.95283 22.7566 10.2249C22.5466 10.4192 22.4458 10.6854 22.3885 10.9407ZM23.1153 10.9564C23.1894 10.6393 23.2745 10.371 23.495 10.371C23.6344 10.371 23.7078 10.4996 23.6929 10.719C23.681 10.7737 23.6683 10.8314 23.6531 10.8966C23.631 10.9909 23.6071 11.0843 23.5838 11.1779C23.5602 11.2419 23.5326 11.3022 23.5024 11.3424C23.4456 11.4228 23.3106 11.4727 23.2329 11.4727C23.2109 11.4727 23.0748 11.4727 23.0701 11.2721C23.069 11.1722 23.0896 11.0694 23.1153 10.9564ZM26.9107 9.90926L26.8839 9.87874C26.5415 9.94811 26.4795 9.95914 26.1649 10.0016L26.1418 10.0247C26.1407 10.0285 26.1398 10.0343 26.1382 10.0395L26.1371 10.0343C25.9029 10.5746 25.9097 10.4581 25.7191 10.8834C25.718 10.8641 25.718 10.852 25.717 10.8314L25.6692 9.90926L25.6392 9.87874C25.2806 9.94811 25.2721 9.95914 24.9408 10.0016L24.915 10.0247C24.9114 10.0358 24.9114 10.0479 24.9092 10.061L24.9114 10.0658C24.9528 10.2774 24.9428 10.2302 24.9844 10.5641C25.0037 10.728 25.0296 10.8928 25.0489 11.0547C25.0816 11.3256 25.0999 11.459 25.1398 11.8724C24.9161 12.2416 24.8631 12.3813 24.6477 12.7053L24.6492 12.7085L24.4976 12.9483C24.4802 12.9736 24.4645 12.991 24.4424 12.9983C24.4182 13.0103 24.3868 13.0125 24.3431 13.0125H24.2591L24.1342 13.4279L24.5626 13.4353C24.8142 13.4342 24.9723 13.3166 25.0574 13.1585L25.3268 12.6968H25.3225L25.3509 12.6643C25.5321 12.2741 26.9107 9.90926 26.9107 9.90926ZM22.3885 15.3653H22.2067L22.8795 13.1401H23.1026L23.1735 12.9109L23.1803 13.1658C23.172 13.3234 23.296 13.463 23.6216 13.4399H23.9982L24.1278 13.0115H23.9861C23.9046 13.0115 23.8668 12.9909 23.8715 12.9468L23.8647 12.6874H23.1673V12.6888C22.9418 12.6935 22.2686 12.7104 22.1322 12.7467C21.9673 12.7892 21.7934 12.9143 21.7934 12.9143L21.8617 12.6848H21.2094L21.0735 13.1401L20.3917 15.3993H20.2594L20.1297 15.8247H21.429L21.3854 15.9665H22.0256L22.0681 15.8247H22.2477L22.3885 15.3653ZM21.8554 13.5922C21.751 13.6212 21.5566 13.7088 21.5566 13.7088L21.7294 13.1401H22.2477L22.1227 13.5545C22.1227 13.5545 21.9626 13.5639 21.8554 13.5922ZM21.8654 14.4047C21.8654 14.4047 21.7026 14.4251 21.5954 14.4493C21.4899 14.4813 21.292 14.5821 21.292 14.5821L21.4705 13.9903H21.9915L21.8654 14.4047ZM21.575 15.3705H21.0551L21.2058 14.8711H21.7241L21.575 15.3705ZM22.827 13.9903H23.5764L23.4687 14.3391H22.7093L22.5953 14.7204H23.2597L22.7567 15.4287C22.7214 15.4808 22.6898 15.4992 22.6548 15.5138C22.6195 15.5317 22.5733 15.5527 22.5198 15.5527H22.3355L22.2088 15.9703H22.6909C22.9415 15.9703 23.0895 15.8563 23.1988 15.7066L23.5438 15.2345L23.6179 15.7139C23.6336 15.8037 23.6982 15.8563 23.7419 15.8767C23.7901 15.9009 23.84 15.9424 23.9105 15.9486C23.986 15.9518 24.0406 15.9544 24.0769 15.9544H24.3138L24.456 15.4871H24.3626C24.3089 15.4871 24.2166 15.4781 24.2008 15.4613C24.1851 15.4408 24.1851 15.4094 24.1766 15.3615L24.1015 14.881H23.7938L23.9287 14.7204H24.6866L24.8032 14.3391H24.1015L24.2108 13.9903H24.9103L25.04 13.5603H22.9546L22.827 13.9903ZM16.4977 15.4676L16.6726 14.8858H17.3914L17.5228 14.453H16.8033L16.9131 14.0948H17.6162L17.7465 13.6758H15.9872L15.8596 14.0948H16.2593L16.1527 14.453H15.7519L15.6191 14.8932H16.0186L15.7855 15.663C15.7541 15.7649 15.8003 15.8037 15.8296 15.8511C15.8596 15.8972 15.89 15.9277 15.9583 15.945C16.0287 15.9608 16.077 15.9702 16.1426 15.9702H16.953L17.0974 15.4908L16.7382 15.5401C16.6688 15.5401 16.4767 15.5318 16.4977 15.4676ZM16.5801 12.6821L16.3979 13.0114C16.359 13.0833 16.3239 13.128 16.2923 13.1485C16.2644 13.1659 16.2093 13.1731 16.1295 13.1731H16.0344L15.9074 13.5943H16.223C16.3748 13.5943 16.4914 13.5387 16.547 13.5108C16.6069 13.4788 16.6226 13.4971 16.6688 13.4525L16.7755 13.3601H17.7612L17.892 12.9216H17.1705L17.2964 12.6821H16.5801ZM18.0354 15.4761C18.0186 15.4519 18.0307 15.4093 18.0564 15.3205L18.3258 14.4288H19.2842C19.4239 14.4268 19.5247 14.4251 19.5903 14.4204C19.6608 14.413 19.7374 14.3879 19.8209 14.3427C19.9071 14.2954 19.9512 14.2455 19.9884 14.1883C20.03 14.1311 20.0967 14.0061 20.1539 13.8133L20.4926 12.6848L19.498 12.6906C19.498 12.6906 19.1917 12.7357 19.0569 12.7856C18.9208 12.8413 18.7264 12.9967 18.7264 12.9967L18.8162 12.6873H18.2018L17.3417 15.5401C17.3111 15.6509 17.2907 15.7313 17.286 15.7795C17.2844 15.8316 17.3516 15.883 17.3952 15.9219C17.4467 15.9607 17.5227 15.9544 17.5958 15.9607C17.6725 15.9665 17.7817 15.9702 17.9324 15.9702H18.4046L18.5495 15.4808L18.1268 15.5207C18.0816 15.5207 18.049 15.4965 18.0354 15.4761ZM18.4996 13.8265H19.5063L19.4423 14.0271C19.4333 14.0318 19.4118 14.0171 19.3094 14.0292H18.4376L18.4996 13.8265ZM18.7013 13.1537H19.7164L19.6434 13.3953C19.6434 13.3953 19.165 13.3906 19.0883 13.4047C18.7512 13.4631 18.5542 13.6432 18.5542 13.6432L18.7013 13.1537ZM19.4649 14.6988C19.4565 14.7288 19.4433 14.747 19.4249 14.7608C19.4045 14.7739 19.3714 14.7786 19.3221 14.7786H19.1786L19.1871 14.5344H18.5904L18.5662 15.7286C18.5653 15.8148 18.5736 15.8647 18.6367 15.9046C18.6997 15.9545 18.894 15.9608 19.1555 15.9608H19.5294L19.6644 15.5138L19.3389 15.5316L19.2307 15.538C19.2159 15.5316 19.2017 15.5259 19.186 15.5101C19.1723 15.4966 19.1492 15.5049 19.1529 15.4187L19.1555 15.1126L19.4969 15.0985C19.6812 15.0985 19.76 15.0385 19.8272 14.9814C19.8913 14.9267 19.9123 14.8637 19.9365 14.7786L19.9937 14.5076H19.5247L19.4649 14.6988Z" fill="#FEFEFE"/>
</svg>
