<svg width="35" height="24" viewBox="0 0 35 24" fill="none" xmlns="http://www.w3.org/2000/svg">
<path fill-rule="evenodd" clip-rule="evenodd" d="M14.9894 10.6083H16.1286L16.3117 9.67052H15.1723L14.9894 10.6083ZM14.8712 11.2115H16.0107L15.2868 14.9142C15.234 14.933 15.0709 14.9988 14.8457 14.9988C14.5417 14.9988 14.2629 14.8784 14.2629 14.4516C14.2629 14.3714 14.272 14.2799 14.2923 14.1761C14.5187 13.0206 14.8712 11.2115 14.8712 11.2115ZM26.1847 11.1269C25.4264 11.1269 25.1249 11.5782 24.9834 11.8529H24.97L25.0137 11.2123H23.8878C23.8804 11.3532 23.8317 11.7972 23.7595 12.1802C23.7595 12.1802 23.4994 13.5242 23.4503 13.7816C23.4128 13.9781 23.3442 14.2687 23.3442 14.4374C23.3442 14.7965 23.5235 14.9989 23.9235 14.9989C24.1479 14.9989 24.3096 14.9366 24.3685 14.9143L24.745 12.9859C24.8495 12.4535 25.2285 12.105 25.6791 12.105C26.0427 12.105 26.2166 12.3744 26.2166 12.5947C26.2166 12.7864 26.1692 12.9989 26.1326 13.1868L25.9706 14.0126C25.9513 14.1117 25.9101 14.3021 25.9101 14.4515C25.9101 14.8165 26.1127 14.9989 26.4975 14.9989C26.7076 14.9989 26.8407 14.9456 26.9351 14.9143L27.273 13.1856C27.3462 12.7949 27.3733 12.5892 27.3733 12.3405C27.3733 11.6246 26.9613 11.1269 26.1847 11.1269ZM21.1237 12.0222C20.4868 12.0222 20.1341 12.6838 20.1341 13.2735C20.1341 13.7708 20.3552 14.1039 20.8577 14.1039C21.4258 14.1039 21.8704 13.6127 21.8704 12.7743C21.8704 12.3907 21.6695 12.0222 21.1237 12.0222ZM20.7878 14.999C19.5679 14.999 18.9842 14.2557 18.9842 13.3081C18.9842 12.008 19.8627 11.1269 21.2204 11.1269C22.3984 11.1269 23.024 11.8517 23.024 12.7824C23.024 14.1771 22.0856 14.999 20.7878 14.999ZM16.5213 14.1075C16.4954 14.2407 16.479 14.3341 16.479 14.4488C16.479 14.8733 16.7582 14.9989 17.0541 14.9989C17.2907 14.9989 17.4371 14.9332 17.4907 14.9142L18.0385 12.1075L18.9244 12.1074L19.0992 11.2115L18.2135 11.2116L18.2565 10.9909C18.3367 10.5771 18.5284 10.3952 18.8599 10.3952C19.0813 10.3952 19.2604 10.4352 19.3226 10.4516L19.4894 9.5997C19.4183 9.58146 19.091 9.5 18.6065 9.5C17.8345 9.5 17.3287 9.97645 17.1791 10.7438L17.0875 11.2115H16.5108L16.3358 12.1074H16.9129C16.9129 12.1074 16.6853 13.2679 16.5213 14.1075ZM13.8985 11.127C13.3266 11.127 13.0121 11.5305 12.8891 11.8523H12.876L12.92 11.2115H11.7935C11.7836 11.4336 11.7378 11.8092 11.6231 12.3997C11.5068 12.9981 11.3934 13.595 11.2765 14.176C11.2564 14.2753 11.2475 14.3724 11.2475 14.4547C11.2475 14.7589 11.3954 14.9986 11.8327 14.9986C12.0493 14.9986 12.1997 14.9415 12.2719 14.9142L12.607 13.1977C12.7277 12.5409 12.947 12.1067 13.5832 12.1067C13.8726 12.1067 14.1475 12.1695 14.2051 12.1866L14.3979 11.199C14.3563 11.1844 14.1893 11.127 13.8985 11.127ZM30.4242 12.7122C30.4852 12.3728 30.2908 12.0222 29.8516 12.0222C29.3152 12.0222 29.0796 12.3946 28.9745 12.7122H30.4242ZM30.9326 14.0901C30.9326 14.6051 30.4418 15 29.5728 15C28.3718 15 27.7845 14.2398 27.7845 13.3091C27.7845 12.3853 28.388 11.1279 29.8611 11.1279C30.8323 11.1279 31.5585 11.6182 31.5585 12.7407C31.5585 13.0167 31.498 13.3168 31.472 13.437H28.8904C28.886 13.7064 29.1094 14.1731 30.0068 14.1731C30.4067 14.1731 30.8596 14.0295 30.9326 13.993C30.9326 14.021 30.9326 14.0716 30.9326 14.0901ZM9.83787 12.7122C9.89875 12.3728 9.7044 12.0222 9.26516 12.0222C8.7288 12.0222 8.49331 12.3946 8.38803 12.7122H9.83787ZM10.3463 14.0901C10.3463 14.6051 9.85555 15 8.98667 15C7.78555 15 7.19836 14.2398 7.19836 13.3091C7.19836 12.3853 7.80175 11.1279 9.27489 11.1279C10.2461 11.1279 10.9723 11.6182 10.9723 12.7407C10.9723 13.0167 10.9118 13.3168 10.8857 13.437H8.30418C8.29986 13.7064 8.52317 14.1731 9.42053 14.1731C9.82046 14.1731 10.2733 14.0295 10.3463 13.993C10.3463 14.021 10.3463 14.0716 10.3463 14.0901ZM3.5 9.95157H4.64618V13.6332C4.64618 14.1868 4.91733 14.4694 5.35264 14.4694C5.39703 14.4694 5.42321 14.4636 5.43184 14.4615C5.24103 14.7549 4.99366 14.9956 4.42565 14.9956C3.82466 14.9956 3.5 14.5716 3.5 13.9354V9.95157Z" fill="#1A1919"/>
<path fill-rule="evenodd" clip-rule="evenodd" d="M5.11946 13.0085C5.01884 13.1682 4.96545 13.353 4.96545 13.5417V13.6393C4.96545 14.0125 5.16383 14.1463 5.38043 14.1463C5.60183 14.1463 5.72034 13.9937 5.82907 13.8203C6.01124 13.5299 8.23744 9.95157 8.23744 9.95157H7.0461L5.11946 13.0085Z" fill="#00A3DA"/>
</svg>
