<svg width="35" height="24" viewBox="0 0 35 24" fill="none" xmlns="http://www.w3.org/2000/svg">
<path fill-rule="evenodd" clip-rule="evenodd" d="M13.1673 16.1587C13.3239 16.0773 13.5902 15.9705 13.8723 15.9705C14.5198 15.9705 14.8698 16.4077 14.8698 17.2213C14.8698 18.1717 14.4 18.6344 13.6426 18.6344C13.3657 18.6344 12.9375 18.548 12.6241 18.3851V14.8369L13.1673 14.7098V16.1587ZM13.1621 18.197C13.3291 18.2683 13.512 18.2783 13.6426 18.2783C14.0291 18.2783 14.3215 18.0446 14.3215 17.2213C14.3215 16.5754 14.0813 16.367 13.7314 16.367C13.5224 16.367 13.3711 16.4229 13.1621 16.5348V18.197ZM7.59954 16.0364H7.63612L8.34625 18.5733H8.91025L9.75644 14.9688H9.14533L8.61264 17.6582H8.57625L7.85014 14.9688H7.38534L6.70643 17.6582H6.66985L6.08488 14.9688H5.5L6.3461 18.5733H6.91001L7.59954 16.0364ZM12.0707 18.4003V18.014C11.7835 18.1818 11.5224 18.2783 11.2404 18.2783C10.7025 18.2783 10.4466 18.0088 10.4466 17.3988H12.1491V17.2108C12.1491 16.3823 11.7469 15.9704 11.0942 15.9704C10.3108 15.9704 9.90866 16.5297 9.90866 17.3023C9.90866 18.1056 10.269 18.6344 11.1463 18.6344C11.5224 18.6344 11.8358 18.5327 12.0707 18.4003ZM11.6529 17.0583H10.4572C10.5145 16.5501 10.7598 16.3111 11.0786 16.3111C11.3606 16.3111 11.6271 16.5244 11.6529 17.0583ZM17.2723 17.8107H17.2461L16.0762 14.9688H15.4444V18.5733H15.9144V16.0213H15.9613L17.0269 18.5733H17.361L18.4265 15.9603H18.4736V18.5733H19.0376V14.9688H18.3899L17.2723 17.8107ZM19.6122 17.3023C19.6122 16.4126 20.1135 15.9704 20.8029 15.9704C21.4923 15.9704 21.9938 16.4126 21.9938 17.3023C21.9938 18.1717 21.5185 18.6344 20.8029 18.6344C20.0873 18.6344 19.6122 18.1717 19.6122 17.3023ZM21.4453 17.3023C21.4453 16.6161 21.1579 16.3264 20.8028 16.3264C20.4581 16.3264 20.1604 16.6161 20.1604 17.3023C20.1604 17.999 20.4322 18.2783 20.8028 18.2783C21.1736 18.2783 21.4453 17.999 21.4453 17.3023ZM23.8213 15.9704C23.221 15.9704 22.7247 16.2093 22.4897 16.3466V18.5733H23.0329V16.5602C23.1948 16.4688 23.4611 16.3771 23.6702 16.3771C23.9365 16.3771 24.14 16.4483 24.14 16.8499V18.5733H24.6831V16.7329C24.6831 16.2093 24.4483 15.9704 23.8213 15.9704ZM27.3309 18.014V18.4003C27.096 18.5327 26.7828 18.6344 26.4065 18.6344C25.5293 18.6344 25.1689 18.1056 25.1689 17.3023C25.1689 16.5297 25.5711 15.9704 26.3544 15.9704C27.0074 15.9704 27.4097 16.3823 27.4097 17.2108V17.3988H25.707C25.707 18.0088 25.9629 18.2783 26.5007 18.2783C26.7827 18.2783 27.0439 18.1818 27.3309 18.014ZM25.7174 17.0583H26.9133C26.8874 16.5244 26.6208 16.3111 26.3388 16.3111C26.0201 16.3111 25.775 16.5501 25.7174 17.0583ZM30 16.0568H29.4412L28.8456 17.9275H28.8144L28.146 16.0568H27.5714L28.5742 18.5987C28.4487 18.9748 28.2296 19.2495 27.8744 19.2495V19.6662C28.4747 19.6662 28.7934 19.3003 29.0546 18.5987L30 16.0568Z" fill="#0068A3"/>
<path fill-rule="evenodd" clip-rule="evenodd" d="M17.3998 4.31329C18.1186 4.31329 18.7992 4.47621 19.4054 4.76545C19.5007 4.80941 19.5956 4.85779 19.6909 4.91119L19.2695 5.27829L18.6364 4.6411L17.5679 5.56879L16.9332 4.89456L14.9427 6.64096L16.2188 8.00984L15.7173 8.43916L16.9742 9.8101L16.4757 10.2384L18.2717 12.1843L19.3378 11.229L20.2596 12.2528C20.0762 12.3915 19.8765 12.522 19.6565 12.6427C18.99 13.0127 18.2196 13.2245 17.3998 13.2245C14.8787 13.2245 12.8225 11.2228 12.8225 8.76904C12.8225 6.31477 14.8787 4.31329 17.3998 4.31329ZM16.5656 8.48731L17.6541 7.53318L18.6342 8.59295L17.5458 9.54671L16.5656 8.48731ZM18.4282 9.36427L17.3397 10.3181L18.32 11.3779L19.4084 10.4238L18.4282 9.36427ZM15.7868 6.67797L16.8753 5.72412L17.8551 6.78362L16.7666 7.73747L15.7868 6.67797ZM18.6006 5.44926L17.7842 6.16459L18.5192 6.95948L19.3356 6.24389L18.6006 5.44926ZM19.2347 9.4417L20.0513 8.72611L20.7863 9.52091L19.9699 10.2363L19.2347 9.4417ZM20.769 10.3311L19.9529 11.0468L20.6878 11.8411L21.5042 11.1257L20.769 10.3311ZM20.2816 7.3681L20.8259 6.89113L21.3158 7.42088L20.7718 7.89776L20.2816 7.3681ZM20.1306 5.31718L19.5863 5.79406L20.0762 6.32381L20.6206 5.84693L20.1306 5.31718ZM20.9774 8.94204L21.5216 8.46507L22.0116 8.99472L21.4674 9.4717L20.9774 8.94204ZM19.3529 7.04687L18.5367 7.76255L19.2718 8.5569L20.0879 7.84149L19.3529 7.04687Z" fill="#0068A3"/>
</svg>
