<svg id="Layer_1" data-name="Layer 1" xmlns="http://www.w3.org/2000/svg" viewBox="0 0 24 24"><defs><style>.cls-1{fill:#304050;}</style></defs><polygon class="cls-1" points="15.29 8.62 15.1 8.62 13.54 8.62 12.02 10.75 10.49 8.62 8.9 8.62 8.68 8.62 3.11 8.62 3.11 10 5.22 10 5.22 15.38 6.79 15.38 6.79 10 8.9 10 8.9 8.93 11.06 11.94 8.55 15.38 10.37 15.38 11.99 13.09 13.62 15.38 15.46 15.38 12.92 11.89 15.1 8.89 15.1 10 17.21 10 17.21 15.38 18.77 15.38 18.77 10 20.89 10 20.89 8.62 15.29 8.62"/></svg>