<svg xmlns="http://www.w3.org/2000/svg" viewBox="0 0 19.8 26"><defs><style>.a{fill:#304050;}</style></defs><path class="a" d="M3.86,23H10a3.05,3.05,0,1,0,6.1,0h6.09a.76.76,0,0,0,.76-.76,7,7,0,0,0-1.68-5.07A5.43,5.43,0,0,1,19.86,13V9.9A6.88,6.88,0,0,0,15,3.35a2.25,2.25,0,0,0,.27-1.06,2.29,2.29,0,1,0-4.58,0A2.25,2.25,0,0,0,11,3.35,6.88,6.88,0,0,0,6.14,9.9V13a5.43,5.43,0,0,1-1.36,4.12A7,7,0,0,0,3.1,22.19.76.76,0,0,0,3.86,23ZM13,24.48A1.53,1.53,0,0,1,11.48,23h3A1.53,1.53,0,0,1,13,24.48ZM12.24,2.29a.76.76,0,1,1,1.52,0,.76.76,0,1,1-1.52,0ZM6,18.07A6.94,6.94,0,0,0,7.67,13V9.9a5.33,5.33,0,1,1,10.66,0V13A6.94,6.94,0,0,0,20,18.07a5.16,5.16,0,0,1,1.34,3.36H4.64A5.16,5.16,0,0,1,6,18.07Z" transform="translate(-3.1)"/><path class="a" d="M4.62,9.9A8.43,8.43,0,0,1,8.81,2.65a.76.76,0,0,0-.76-1.32,9.9,9.9,0,0,0-5,8.57.76.76,0,1,0,1.52,0Z" transform="translate(-3.1)"/><path class="a" d="M18,1.33a.76.76,0,0,0-.76,1.32A8.43,8.43,0,0,1,21.38,9.9a.76.76,0,0,0,1.52,0A9.9,9.9,0,0,0,18,1.33Z" transform="translate(-3.1)"/></svg>