<svg id="Layer_1" enable-background="new 0 0 468 468" height="512" viewBox="0 0 468 468" width="512" xmlns="http://www.w3.org/2000/svg" style=""><g><g><g><path d="m220.189 97.878h28.036v59.139h-28.036z" fill="#1999ff"/></g><g><ellipse cx="234" cy="69.124" fill="#1999ff" rx="15.517" ry="15.498"/></g></g><g><g><circle cx="358.211" cy="293.803" fill="#1999ff" r="9.999"/></g></g><g><g><circle cx="358.211" cy="371.839" fill="#1999ff" r="9.999"/></g><path d="m453.982 178.378h-82.07v-157.653c0-7.742-6.276-14.018-14.018-14.018h-247.788c-7.742 0-14.018 6.276-14.018 14.018v157.653h-82.07c-7.742 0-14.018 6.276-14.018 14.018v62.389c0 7.742 6.276 14.018 14.018 14.018h20.384v192.49h28.036v-192.49h220.387v192.49h28.036v-36.419h94.701v36.419h28.036v-192.49h20.384c7.742 0 14.018-6.276 14.018-14.018v-62.389c0-7.742-6.276-14.018-14.018-14.018zm-329.858-143.635h219.752v143.635h-219.752zm186.737 362.095v-50h94.701v50zm94.701-78.035h-94.701v-50h94.701zm34.402-78.036h-411.928v-34.353h411.928z" fill="#304050"/></g></g></svg>