<svg id="Layer_1" data-name="Layer 1" xmlns="http://www.w3.org/2000/svg" viewBox="0 0 60 60"><defs><style>.cls-1{fill:#7d818e;opacity:0.3;}.cls-2{fill:none;stroke:#7d818e;stroke-linecap:round;stroke-miterlimit:10;stroke-width:2px;stroke-dasharray:1 4;}</style></defs><path class="cls-1" d="M16,10.46H44c.55,0,1,.34,1,.75v24.5c0,.41-.45.75-1,.75H16c-.55,0-1-.34-1-.75V11.21C15,10.8,15.45,10.46,16,10.46Z"/><path class="cls-2" d="M16,10.46H44c.55,0,1,.34,1,.75v24.5c0,.41-.45.75-1,.75H16c-.55,0-1-.34-1-.75V11.21C15,10.8,15.45,10.46,16,10.46Z"/></svg>