<svg id="Layer_1" data-name="Layer 1" xmlns="http://www.w3.org/2000/svg" viewBox="0 0 60 60"><defs><style>.cls-1{fill:#489c6d;}.cls-2{fill:#7d818e;opacity:0.3;}.cls-3,.cls-4{fill:none;stroke:#7d818e;stroke-linecap:round;stroke-width:2px;}.cls-3{stroke-linejoin:round;}.cls-4{stroke-miterlimit:10;stroke-dasharray:1 4;}</style></defs><path class="cls-1" d="M15,32H5a2,2,0,0,1-2-2H3a2,2,0,0,1,2-2H15Z"/><path class="cls-1" d="M45,28H55a2,2,0,0,1,2,2h0a2,2,0,0,1-2,2H45Z"/><path class="cls-2" d="M16,20H44c.55,0,1,.26,1,.58V39.42c0,.32-.45.58-1,.58H16c-.55,0-1-.26-1-.58V20.58C15,20.26,15.45,20,16,20Z"/><polyline class="cls-3" points="26.55 10.94 30.05 14 33.55 10.94"/><line class="cls-3" x1="30.05" y1="14" x2="30.05" y2="6"/><polyline class="cls-3" points="33.55 49.06 30.05 46 26.55 49.06"/><line class="cls-3" x1="30.05" y1="46" x2="30.05" y2="54"/><path class="cls-4" d="M16,20H44c.55,0,1,.26,1,.58V39.42c0,.32-.45.58-1,.58H16c-.55,0-1-.26-1-.58V20.58C15,20.26,15.45,20,16,20Z"/></svg>