<svg id="Layer_1" data-name="Layer 1" xmlns="http://www.w3.org/2000/svg" viewBox="0 0 60 60"><defs><style>.cls-1{fill:#489c6d;}.cls-2{fill:#7d818e;opacity:0.3;}.cls-3,.cls-4{fill:none;stroke:#7d818e;stroke-linecap:round;stroke-width:2px;}.cls-3{stroke-linejoin:round;}.cls-4{stroke-miterlimit:10;stroke-dasharray:1 4;}</style></defs><path class="cls-1" d="M5,54.54H55a2,2,0,0,1,2,2h0a2,2,0,0,1-2,2H5a2,2,0,0,1-2-2H3A2,2,0,0,1,5,54.54Z"/><path class="cls-2" d="M16,25H44c.55,0,1,.34,1,.75v23.5c0,.41-.45.75-1,.75H16c-.55,0-1-.34-1-.75V25.75C15,25.34,15.45,25,16,25Z"/><polyline class="cls-3" points="26.55 38.44 30.05 41.5 33.55 38.44"/><line class="cls-3" x1="30.05" y1="41.5" x2="30.05" y2="33.5"/><path class="cls-4" d="M16,25H44c.55,0,1,.34,1,.75v23.5c0,.41-.45.75-1,.75H16c-.55,0-1-.34-1-.75V25.75C15,25.34,15.45,25,16,25Z"/></svg>