<svg xmlns="http://www.w3.org/2000/svg" viewBox="0 0 22 22"><defs><style>.cls-1{opacity:0.2;}.cls-2{fill:none;stroke:#ffffff;stroke-linecap:round;stroke-linejoin:round;stroke-width:1.5px;}.cls-3{fill:#ffffff;}</style></defs><g id="Layer_4" data-name="Layer 4"><path class="cls-2" d="M19.15,5H2.85A1.85,1.85,0,0,0,1,6.85v8.3A1.85,1.85,0,0,0,2.85,17h7.73L13,20l.28-3h5.87A1.85,1.85,0,0,0,21,15.15V6.85A1.85,1.85,0,0,0,19.15,5Z"/><path class="cls-3" d="M19,8.9A1.7,1.7,0,0,0,17.76,8a2,2,0,0,0-.41,0,2,2,0,0,0-1.76,1.13A3.9,3.9,0,0,0,15,11.23a2.94,2.94,0,0,0,.36,1.49,1.73,1.73,0,0,0,1.2.87,2,2,0,0,0,2.18-1.08,4.15,4.15,0,0,0,.58-2.13A2.73,2.73,0,0,0,19,8.9ZM18,11a1.93,1.93,0,0,1-.57,1.11.7.7,0,0,1-.61.24c-.18,0-.33-.19-.44-.49a1.88,1.88,0,0,1-.14-.68,2.44,2.44,0,0,1,.06-.55,2.29,2.29,0,0,1,.4-.89c.24-.37.51-.52.78-.47s.33.2.44.49a1.92,1.92,0,0,1,.14.68A2.47,2.47,0,0,1,18,11Z"/><path class="cls-3" d="M14.26,8.9A1.74,1.74,0,0,0,13.05,8a2,2,0,0,0-.4,0,2,2,0,0,0-1.77,1.13,4,4,0,0,0-.59,2.12,2.94,2.94,0,0,0,.36,1.49,1.75,1.75,0,0,0,1.21.87,1.94,1.94,0,0,0,.4,0A2,2,0,0,0,14,12.51a4.07,4.07,0,0,0,.59-2.13A2.82,2.82,0,0,0,14.26,8.9ZM13.3,11a2,2,0,0,1-.57,1.11.7.7,0,0,1-.61.24c-.18,0-.33-.19-.44-.49a1.88,1.88,0,0,1-.14-.68,3.21,3.21,0,0,1,.05-.55,2.45,2.45,0,0,1,.4-.89c.25-.37.51-.52.78-.47s.34.2.45.49a1.9,1.9,0,0,1,.13.68A2,2,0,0,1,13.3,11Z"/><path class="cls-3" d="M9.41,13.69a.8.8,0,0,1-.09.49.46.46,0,0,1-.39.27.73.73,0,0,1-.6-.28A7.45,7.45,0,0,1,6.67,11c-.49,1-.85,1.69-1.08,2.17-.44.85-.82,1.28-1.14,1.31s-.37-.16-.52-.52A31.81,31.81,0,0,1,2.69,8.22a.61.61,0,0,1,.12-.5.58.58,0,0,1,.47-.23A.55.55,0,0,1,3.93,8c.24,1.57.49,2.9.76,4L6.34,8.88a.74.74,0,0,1,.56-.45c.33,0,.54.19.62.63a14.65,14.65,0,0,0,.71,2.57,11.58,11.58,0,0,1,1-4.13.55.55,0,0,1,.49-.33.66.66,0,0,1,.48.15.62.62,0,0,1,.23.43.64.64,0,0,1-.08.36,9.32,9.32,0,0,0-.73,2.71A14.26,14.26,0,0,0,9.41,13.69Z"/></g></svg>