<svg xmlns="http://www.w3.org/2000/svg" fill="none" viewBox="0 0 1008 231" height="231" width="1008">
<path fill="black" d="M229.566 0H0V230.065H229.566V0Z"/>
<path fill="#469EF6" d="M157.065 191.05C176.435 191.05 192.137 175.313 192.137 155.901C192.137 136.489 176.435 120.752 157.065 120.752C137.695 120.752 121.992 136.489 121.992 155.901C121.992 175.313 137.695 191.05 157.065 191.05Z"/>
<path fill="#F86461" d="M73.8507 107.524C93.2208 107.524 108.923 91.7875 108.923 72.3754C108.923 52.9632 93.2208 37.2266 73.8507 37.2266C54.4806 37.2266 38.7781 52.9632 38.7781 72.3754C38.7781 91.7875 54.4806 107.524 73.8507 107.524Z"/>
<path fill="#27D4B3" d="M110.39 173.541V119.22H56.1865L27.4907 147.978L81.6939 202.299L110.39 173.541Z"/>
<path fill="#946EFF" d="M119.191 56.0791V110.4H173.394L202.09 81.6419L147.886 27.321L119.191 56.0791Z"/>
<g clip-path="url(#clip0_36_2)">
<path fill="black" d="M258.919 0V230.065H1007.81V0H258.919ZM376.377 191.16C332.161 191.16 302.279 157.763 302.279 116.641C302.279 75.5202 331.519 41.765 376.591 41.765C412.249 41.765 439.135 63.148 447.693 93.113H419.309C412.891 78.0947 397.13 66.7953 376.377 66.7953C346.709 67.0099 328.167 89.6802 328.167 115.998C328.167 142.315 347.565 165.629 377.019 165.844C400.054 166.059 416.742 153.4 422.305 134.592H375.735V110.634H450.689C452.4 157.334 421.663 191.089 376.377 191.089V191.16ZM582.339 69.799H500.182V102.553H574.494V126.725H500.182V163.126H582.339V188.157H474.508V44.7686H582.339V69.799ZM741.161 188.157H715.558L635.541 80.2402V188.157H609.938V44.7686H639.82L715.629 146.034V44.7686H741.232V188.157H741.161ZM867.106 102.338C886.504 102.338 895.49 112.208 895.49 130.802V188.157H869.887V135.951C869.887 129.514 866.678 126.725 860.259 126.725H800.282V188.157H774.679V44.7686H800.282V102.338H839.363L870.101 44.7686H898.271L866.892 102.338H867.106ZM952.471 188.157H926.869V44.7686H952.471V188.157Z"/>
</g>
<defs>
<clipPath id="clip0_36_2">
<rect transform="translate(258.919)" fill="white" height="230.065" width="748.894"/>
</clipPath>
</defs>
</svg>