<?xml version="1.0" encoding="utf-8"?>
<!-- Generator: Adobe Illustrator 25.0.1, SVG Export Plug-In . SVG Version: 6.00 Build 0)  -->
<svg version="1.1" id="Layer_1" xmlns="http://www.w3.org/2000/svg" xmlns:xlink="http://www.w3.org/1999/xlink" x="0px" y="0px"
	 viewBox="0 0 140 97" style="enable-background:new 0 0 140 97;" xml:space="preserve">
<style type="text/css">
	.st0{fill:#FFFFFF;}
</style>
<path class="st0" d="M0,95.6V0.4h35c6.6,0,12.2,0.6,16.8,1.8s8.4,2.9,11.3,5.2c2.9,2.2,5,4.9,6.4,8.1c1.3,3.2,2,6.7,2,10.7
	c0,2.1-0.3,4.2-0.9,6.2S69,36.2,67.7,38c-1.3,1.7-3,3.3-5,4.7s-4.5,2.6-7.4,3.7c6.3,1.5,10.9,4,13.9,7.4s4.5,7.8,4.5,13.2
	c0,4.1-0.8,7.8-2.4,11.3s-3.9,6.5-6.9,9.1s-6.8,4.6-11.2,6.1s-9.5,2.2-15.2,2.2L0,95.6L0,95.6z M22.1,40.4h11.5
	c2.4,0,4.6-0.2,6.6-0.5s3.6-1,5-1.8c1.4-0.9,2.4-2.1,3.1-3.6c0.7-1.5,1.1-3.4,1.1-5.8c0-2.3-0.3-4.2-0.9-5.7
	c-0.6-1.5-1.4-2.7-2.6-3.6s-2.7-1.6-4.5-2s-4-0.6-6.4-0.6H22.1V40.4z M22.1,55.2v23.7h15.6c2.9,0,5.3-0.4,7.2-1.1
	c1.8-0.7,3.3-1.7,4.3-2.9s1.8-2.5,2.2-4s0.6-3,0.6-4.5c0-1.7-0.2-3.3-0.7-4.7s-1.2-2.6-2.4-3.5s-2.6-1.7-4.4-2.2
	c-1.8-0.5-4.1-0.8-6.9-0.8H22.1z"/>
<path class="st0" d="M109.5,26.8c4.5,0,8.6,0.7,12.3,2.1c3.7,1.4,6.9,3.4,9.6,6.1c2.7,2.7,4.8,5.9,6.3,9.8S140,53,140,57.9
	c0,1.5-0.1,2.8-0.2,3.7c-0.1,1-0.4,1.7-0.7,2.3s-0.8,1-1.4,1.2c-0.6,0.2-1.3,0.3-2.3,0.3H96.3c0.7,5.7,2.4,9.8,5.2,12.3
	c2.8,2.6,6.4,3.8,10.8,3.8c2.4,0,4.4-0.3,6.1-0.8c1.7-0.6,3.2-1.2,4.5-1.9c1.3-0.7,2.5-1.3,3.7-1.9c1.1-0.6,2.3-0.9,3.5-0.9
	c1.6,0,2.8,0.6,3.7,1.8l5.9,7.3c-2.1,2.4-4.3,4.3-6.8,5.8c-2.4,1.5-4.9,2.7-7.4,3.5c-2.5,0.9-5.1,1.4-7.6,1.8
	c-2.5,0.3-5,0.5-7.3,0.5c-4.7,0-9.2-0.8-13.4-2.3c-4.2-1.5-7.8-3.8-10.9-6.9c-3.1-3-5.6-6.8-7.4-11.4c-1.8-4.5-2.7-9.8-2.7-15.8
	c0-4.5,0.8-8.8,2.3-12.9s3.8-7.6,6.7-10.7c2.9-3,6.4-5.5,10.5-7.3C99.7,27.7,104.4,26.8,109.5,26.8z M109.9,40.8
	c-3.9,0-6.9,1.1-9.1,3.3s-3.6,5.4-4.3,9.5h25.3c0-1.6-0.2-3.2-0.6-4.7s-1.1-2.9-2-4.1c-0.9-1.2-2.2-2.2-3.7-2.9
	C114,41.1,112.1,40.8,109.9,40.8z"/>
</svg>
