<svg id="Layer_1" data-name="Layer 1" xmlns="http://www.w3.org/2000/svg" viewBox="0 0 22 22"><defs><style>.cls-1{fill:none;stroke:#304050;stroke-linecap:round;stroke-linejoin:round;stroke-width:1.5px;}.cls-2{opacity:0.2;}</style></defs><path class="cls-1" d="M8.31,11H19.19a.5.5,0,0,1,.45.72l-2.5,5a.51.51,0,0,1-.45.28H5.81a.5.5,0,0,1-.45-.72l2.5-5A.51.51,0,0,1,8.31,11Z"/><path class="cls-1" d="M5.65,17A.65.65,0,0,1,5,16.35V5.65A.65.65,0,0,1,5.65,5H9.09a2.2,2.2,0,0,1,1.55.64l.72.72A2.2,2.2,0,0,0,12.91,7h3.44a.65.65,0,0,1,.65.65V11"/></svg>