<svg id="Layer_1" data-name="Layer 1" xmlns="http://www.w3.org/2000/svg" viewBox="0 0 22 22"><defs><style>.cls-1{fill:none;stroke:#304050;stroke-miterlimit:10;stroke-width:1.5px;}.cls-2{fill:#304050;}.cls-3{opacity:0.2;}</style></defs><line class="cls-1" x1="9" y1="16" x2="9" y2="6"/><line class="cls-1" x1="4" y1="16" x2="4" y2="6"/><line class="cls-1" x1="4" y1="11" x2="9" y2="11"/><path class="cls-2" d="M18.56,7.17H13.88V10a2.18,2.18,0,0,1,.87-.66A3.06,3.06,0,0,1,16,9a3.36,3.36,0,0,1,1.91.5A2.82,2.82,0,0,1,19,10.81a4.47,4.47,0,0,1-.08,3.46,3,3,0,0,1-1.19,1.27,3.79,3.79,0,0,1-1.94.46,3.7,3.7,0,0,1-2.45-.76,3,3,0,0,1-1.11-2h1.55a1.81,1.81,0,0,0,.69,1,2.27,2.27,0,0,0,1.33.38,1.82,1.82,0,0,0,1.49-.6,2.45,2.45,0,0,0,.5-1.6,2.18,2.18,0,0,0-.51-1.55,2,2,0,0,0-1.48-.53,1.87,1.87,0,0,0-1.15.34,1.89,1.89,0,0,0-.68.93H12.4V5.77h6.16Z"/></svg>