<svg id="Layer_1" data-name="Layer 1" xmlns="http://www.w3.org/2000/svg" viewBox="0 0 22 22"><defs><style>.cls-1{fill:none;stroke:#304050;stroke-miterlimit:10;stroke-width:1.5px;}.cls-2{fill:#304050;}.cls-3{opacity:0.2;}</style></defs><line class="cls-1" x1="9" y1="16" x2="9" y2="6"/><line class="cls-1" x1="4" y1="16" x2="4" y2="6"/><line class="cls-1" x1="4" y1="11" x2="9" y2="11"/><path class="cls-2" d="M13.19,13.83c.9-.77,1.6-1.41,2.12-1.91a8.34,8.34,0,0,0,1.29-1.56,3,3,0,0,0,.52-1.63,2,2,0,0,0-.4-1.31,1.52,1.52,0,0,0-1.25-.48,1.6,1.6,0,0,0-1.28.53,2.21,2.21,0,0,0-.48,1.4H12.17a3.23,3.23,0,0,1,1-2.44,3.31,3.31,0,0,1,2.33-.85,3.26,3.26,0,0,1,2.38.84,3,3,0,0,1,.87,2.24,4,4,0,0,1-.52,1.94A7.84,7.84,0,0,1,17,12.27c-.48.49-1.07,1.06-1.8,1.7l-.63.56H19v1.33h-6.8V14.7Z"/></svg>