<svg id="Layer_1" data-name="Layer 1" xmlns="http://www.w3.org/2000/svg" viewBox="0 0 24 24"><defs><style>.cls-1{fill:none;stroke:#304050;stroke-miterlimit:10;stroke-width:1.5px;}.cls-2{fill:#304050;}</style></defs><line class="cls-1" x1="9.87" y1="17.12" x2="16.58" y2="17.12"/><line class="cls-1" x1="9.87" y1="6.88" x2="20.44" y2="6.88"/><line class="cls-1" x1="9.87" y1="12" x2="20.44" y2="12"/><path class="cls-2" d="M6.92,6.15v4.91H5.26V7.4H4.42V6.15Z"/><path class="cls-2" d="M7.78,16.59v1.28H3.85v-1l1.77-1.64a1.71,1.71,0,0,0,.31-.37A.73.73,0,0,0,6,14.54a.35.35,0,0,0-.12-.28.52.52,0,0,0-.35-.1.79.79,0,0,0-.42.12.8.8,0,0,0-.3.33L3.56,14a2,2,0,0,1,.82-.83,2.63,2.63,0,0,1,1.3-.3,2.56,2.56,0,0,1,1,.19,1.58,1.58,0,0,1,.7.53,1.37,1.37,0,0,1,.26.81,1.67,1.67,0,0,1-.18.76,2.61,2.61,0,0,1-.67.8l-.7.64Z"/></svg>