<svg id="Isolation_Mode" data-name="Isolation Mode" xmlns="http://www.w3.org/2000/svg" viewBox="0 0 35.59 37.62"><defs><style>.cls-1{fill:#09ba98;}.cls-2{fill:#35edca;}.cls-3{fill:#9af4e3;}.cls-4{fill:#2bccad;}.cls-5{fill:#0c6856;}.cls-6{fill:#bbfff2;}</style></defs><path class="cls-1" d="M31.19,24.19a5.06,5.06,0,0,0-.88-.07,5,5,0,0,0-3.08,1,5,5,0,0,0-3.06-1,4.84,4.84,0,0,0-3.31,1.24,5,5,0,0,0-6.61,0,4.84,4.84,0,0,0-3.31-1.24A4.94,4.94,0,0,0,8.11,25a4.94,4.94,0,0,0-2.83-.86,6.4,6.4,0,0,0-.88.07c.66,1.91,3.93,10.46,3.93,10.46,0,1,4.24,1.85,9.46,1.85s9.47-.84,9.47-1.86h0S30.53,26.09,31.19,24.19Z"/><path class="cls-2" d="M30.37,11.15a12.9,12.9,0,0,0-25.15,0,7.62,7.62,0,0,0-.43,13.28,1.74,1.74,0,0,1,.82-.19,1.73,1.73,0,0,1,.89.23h.22c3.42.1,6.75.38,10.16.33,3.73-.05,7,.75,10.69-.27l.3-.05a1.68,1.68,0,0,1,1.06-.34,1.64,1.64,0,0,1,1.33.6,7.62,7.62,0,0,0,.11-13.58Z"/><path class="cls-3" d="M4.94,19.18A7.58,7.58,0,0,1,9,12.45a12.83,12.83,0,0,1,12.51-10,13.11,13.11,0,0,1,1.79.13A12.71,12.71,0,0,0,16.85.83a12.86,12.86,0,0,0-12.52,10,7.6,7.6,0,0,0,1.31,14A18.24,18.24,0,0,0,9,25.89,7.59,7.59,0,0,1,4.94,19.18Z"/><path class="cls-4" d="M12,34.21S9.23,26.87,8.31,24.3a5.5,5.5,0,0,0-.48.28A5,5,0,0,0,5,23.73a5.14,5.14,0,0,0-.88.07C4.8,25.69,8,34.21,8,34.21c0,1,4.22,1.83,9.42,1.83.68,0,1.35,0,2,0C15.21,35.82,12,35.09,12,34.21Z"/><path class="cls-5" d="M31.34,10.41a14,14,0,0,0-27.09,0A8.75,8.75,0,0,0,4.5,25.56a1.75,1.75,0,0,1,0-.56,1.67,1.67,0,0,1,1.34-1.22,6.53,6.53,0,0,1-.15-11.65l.45-.23.12-.51a11.78,11.78,0,0,1,23,0l.12.51.45.23A6.52,6.52,0,0,1,29.09,24a1.69,1.69,0,0,1,1.57,1.75,8.74,8.74,0,0,0,.68-15.37Z"/><path class="cls-5" d="M17.79,37.62c-3.81,0-9.68-.42-10.55-2.68C6.82,33.84,4,26.36,3.35,24.57l-.44-1.25,1.31-.22a6.33,6.33,0,0,1,3.89.59,6.38,6.38,0,0,1,6.14.28,6.22,6.22,0,0,1,6.61,0,6.46,6.46,0,0,1,6.37-.17,6.46,6.46,0,0,1,4.14-.71l1.31.22-.44,1.25c-.62,1.79-3.47,9.26-3.89,10.36C27.53,37.22,21.6,37.62,17.79,37.62ZM9.38,34.29c.68.42,3.59,1.1,8.41,1.1s7.73-.68,8.42-1.1v0c0-.07,2.25-5.9,3.38-9a3.66,3.66,0,0,0-1.67.72l-.7.56L26.54,26a3.8,3.8,0,0,0-2.37-.77,3.74,3.74,0,0,0-2.55.94l-.76.72-.76-.72a3.92,3.92,0,0,0-5.09,0l-.76.72-.77-.72a3.7,3.7,0,0,0-2.54-.94,3.88,3.88,0,0,0-2.2.66l-.63.43-.63-.43A3.75,3.75,0,0,0,6,25.31c1.13,3.06,3.36,8.88,3.38,9Z"/><path class="cls-6" d="M25.42,13.89a.86.86,0,0,1-.5-1.56l2-1.4a.86.86,0,0,1,1.2.21.85.85,0,0,1-.21,1.19l-2,1.4A.89.89,0,0,1,25.42,13.89Z"/><path class="cls-6" d="M22.73,16.9a.79.79,0,0,1-.3,0L20.17,16a.85.85,0,0,1,.6-1.6l2.26.85a.85.85,0,0,1-.3,1.65Z"/><path class="cls-6" d="M16.44,18.16a.86.86,0,0,1-.83-.64L15,15.18a.85.85,0,1,1,1.65-.43l.6,2.34a.85.85,0,0,1-.61,1A.76.76,0,0,1,16.44,18.16Z"/><path class="cls-6" d="M20.13,6.82a.91.91,0,0,1-.42-.11L17.37,5.37a.85.85,0,1,1,.85-1.48l2.34,1.33a.86.86,0,0,1-.43,1.6Z"/><path class="cls-6" d="M10.52,11.91a.92.92,0,0,1-.43-.11l-1.8-1.05A.86.86,0,0,1,8,9.58a.85.85,0,0,1,1.17-.31L11,10.32a.85.85,0,0,1,.31,1.17A.86.86,0,0,1,10.52,11.91Z"/><path class="cls-6" d="M14.31,11.13a.85.85,0,0,1-.53-1.52L15.6,8.16a.85.85,0,0,1,1.07,1.33l-1.83,1.45A.82.82,0,0,1,14.31,11.13Z"/><path class="cls-6" d="M20.13,12.56a.86.86,0,0,1-.27-.05.85.85,0,0,1-.54-1.08l.65-2A.86.86,0,0,1,21.6,10l-.66,2A.86.86,0,0,1,20.13,12.56Z"/><path class="cls-6" d="M8.49,17.53A.83.83,0,0,1,8,17.38L6.18,16.13A.85.85,0,0,1,6,14.94a.84.84,0,0,1,1.18-.22L9,16a.85.85,0,0,1,.22,1.19A.84.84,0,0,1,8.49,17.53Z"/><path class="cls-6" d="M12.79,5a1,1,0,1,0,1,1A1,1,0,0,0,12.79,5Z"/><path class="cls-6" d="M24.41,6.9a1,1,0,1,0,1,1A1,1,0,0,0,24.41,6.9Z"/><path class="cls-6" d="M11.73,13.13a1,1,0,1,0,1,1A1,1,0,0,0,11.73,13.13Z"/><path class="cls-6" d="M28.51,14.77a1,1,0,0,0,0,2,1,1,0,1,0,0-2Z"/></svg>