<svg cache-id="dddf5ed458654503a3b6ff03a4d39a01" id="ekaPElB0p9v1" xmlns="http://www.w3.org/2000/svg" xmlns:xlink="http://www.w3.org/1999/xlink" viewBox="0 0 120 120" shape-rendering="geometricPrecision" text-rendering="geometricPrecision"><style><![CDATA[#ekaPElB0p9v6_to {animation: ekaPElB0p9v6_to__to 2000ms linear infinite normal forwards}@keyframes ekaPElB0p9v6_to__to { 0% {transform: translate(-67.06381px,187.275584px)} 100% {transform: translate(166.489318px,-46.277511px)}}]]></style><defs><linearGradient id="ekaPElB0p9v6-fill" x1="-0.034397" y1="0.613061" x2="1.046965" y2="0.517609" spreadMethod="pad" gradientUnits="objectBoundingBox" gradientTransform="translate(0 0)"><stop id="ekaPElB0p9v6-fill-0" offset="9%" stop-color="rgba(1,137,255,0)"/><stop id="ekaPElB0p9v6-fill-1" offset="34%" stop-color="#38c1ff"/><stop id="ekaPElB0p9v6-fill-2" offset="48%" stop-color="#66d7ff"/><stop id="ekaPElB0p9v6-fill-3" offset="61%" stop-color="#29bcff"/><stop id="ekaPElB0p9v6-fill-4" offset="89%" stop-color="rgba(1,137,255,0)"/></linearGradient></defs><g transform="translate(.000001 0.000001)"><path d="M53.17,58.74c.892197-.393229,1.745876-.868611,2.55-1.42c1.073346-.71855,2.019608-1.610741,2.8-2.64.718218-.940991,1.266465-2.000259,1.62-3.13.341993-1.11793.513916-2.280936.51-3.45.025117-2.010156-.348765-4.005327-1.1-5.87-.760341-1.798292-1.985614-3.361809-3.55-4.53-1.861755-1.339634-3.968178-2.301114-6.2-2.83-2.968679-.716699-6.016489-1.052731-9.07-1h-19.17v51.7h20.76c2.798892.04191,5.586761-.359732,8.26-1.19c2.248366-.713468,4.334574-1.861902,6.14-3.38c1.628086-1.360627,2.930075-3.069274,3.81-5c.871595-1.96054,1.314797-4.084499,1.3-6.23.10162-2.682642-.800443-5.306825-2.53-7.36-1.672589-1.756748-3.791585-3.02538-6.13-3.67ZM47.3,52.32c-.314846.691911-.826006,1.276094-1.47,1.68-.753252.457991-1.589033.763765-2.46.9-1.126557.189767-2.267617.280114-3.41.27h-5.57v-11.42h6.33c1.110801-.016348,2.220239.084205,3.31.3.780797.149282,1.518614.470369,2.16.94.557348.43536.97744,1.0221,1.21,1.69.30654.904104.448783,1.855776.42,2.81.03495.969954-.142525,1.935827-.52,2.83ZM34.39,64.1h7.61c1.192582-.025659,2.383213.108876,3.54.4.780956.193236,1.508751.558842,2.13,1.07.52429.424559.916346.990092,1.13,1.63.237643.753387.352445,1.54012.34,2.33-.0016.762508-.09903,1.521792-.29,2.26-.180549.702672-.523011,1.353349-1,1.9-.587692.616332-1.30979,1.088605-2.11,1.38-1.154865.407572-2.376121.594153-3.6.55h-7.75Z" fill="#007ffa"/><path d="M92.61,74.06c-.730799-.001113-1.451115.173821-2.1.51l-2,1c-.75137.396703-1.53399.731156-2.34,1-.972082.29512-1.984246.436823-3,.42-1.965716.079136-3.887169-.59713-5.37-1.89-1.440891-1.530379-2.3189-3.505017-2.49-5.6h20.15c.472097.012605.942697-.058493,1.39-.21.419455-.162784.771767-.462249,1-.85.260525-.44043.424161-.931341.48-1.44.077962-.663753.114699-1.331701.11-2c.035394-2.443001-.385128-4.871179-1.24-7.16-.762468-2.016543-1.941429-3.849724-3.46-5.38-1.505388-1.482114-3.308545-2.627408-5.29-3.36-2.160501-.779678-4.443264-1.165784-6.74-1.14-2.617443-.040851-5.21509.459613-7.63,1.47-4.360867,1.836012-7.772122,5.388348-9.43,9.82-.845717,2.236626-1.276102,4.60883-1.27,7-.054424,2.93768.44775,5.859111,1.48,8.61.885401,2.332327,2.247773,4.454222,4,6.23c1.711098,1.671371,3.755642,2.962841,6,3.79c2.335629.850576,4.804372,1.277272,7.29,1.26c1.337419-.004103,2.673303-.090935,4-.26c1.415489-.199353,2.808555-.534225,4.16-1c1.425528-.465324,2.791533-1.096305,4.07-1.88c1.385367-.884992,2.635043-1.966248,3.71-3.21l.3-.35L95,75.23c-.541096-.776639-1.444721-1.219-2.39-1.17ZM75.45,62.15c.26426-1.537597.957554-2.969249,2-4.13c1.203385-1.116406,2.811619-1.691034,4.45-1.59.93144-.026246,1.857075.154783,2.71.53.686504.32517,1.291345.800159,1.77,1.39.463243.59339.803234,1.273371,1,2c.160586.595113.261089,1.20483.3,1.82Z" fill="#007ffa"/></g><g mask="url(#ekaPElB0p9v7)"><g id="ekaPElB0p9v6_to" transform="translate(-67.06381,187.275584)"><rect width="153.20192" height="120" rx="0" ry="0" transform="rotate(-45) scale(1.9582,1) translate(-60,-60)" fill="url(#ekaPElB0p9v6-fill)" stroke-width="0"/></g><mask id="ekaPElB0p9v7" mask-type="luminance"><g transform="translate(.000001 0.000001)"><path d="M53.17,58.74c.892197-.393229,1.745876-.868611,2.55-1.42c1.073346-.71855,2.019608-1.610741,2.8-2.64.718218-.940991,1.266465-2.000259,1.62-3.13.341993-1.11793.513916-2.280936.51-3.45.025117-2.010156-.348765-4.005327-1.1-5.87-.760341-1.798292-1.985614-3.361809-3.55-4.53-1.861755-1.339634-3.968178-2.301114-6.2-2.83-2.968679-.716699-6.016489-1.052731-9.07-1h-19.17v51.7h20.76c2.798892.04191,5.586761-.359732,8.26-1.19c2.248366-.713468,4.334574-1.861902,6.14-3.38c1.628086-1.360627,2.930075-3.069274,3.81-5c.871595-1.96054,1.314797-4.084499,1.3-6.23.10162-2.682642-.800443-5.306825-2.53-7.36-1.672589-1.756748-3.791585-3.02538-6.13-3.67ZM47.3,52.32c-.314846.691911-.826006,1.276094-1.47,1.68-.753252.457991-1.589033.763765-2.46.9-1.126557.189767-2.267617.280114-3.41.27h-5.57v-11.42h6.33c1.110801-.016348,2.220239.084205,3.31.3.780797.149282,1.518614.470369,2.16.94.557348.43536.97744,1.0221,1.21,1.69.30654.904104.448783,1.855776.42,2.81.03495.969954-.142525,1.935827-.52,2.83ZM34.39,64.1h7.61c1.192582-.025659,2.383213.108876,3.54.4.780956.193236,1.508751.558842,2.13,1.07.52429.424559.916346.990092,1.13,1.63.237643.753387.352445,1.54012.34,2.33-.0016.762508-.09903,1.521792-.29,2.26-.180549.702672-.523011,1.353349-1,1.9-.587692.616332-1.30979,1.088605-2.11,1.38-1.154865.407572-2.376121.594153-3.6.55h-7.75Z" fill="#fff"/><path d="M92.61,74.06c-.730799-.001113-1.451115.173821-2.1.51l-2,1c-.75137.396703-1.53399.731156-2.34,1-.972082.29512-1.984246.436823-3,.42-1.965716.079136-3.887169-.59713-5.37-1.89-1.440891-1.530379-2.3189-3.505017-2.49-5.6h20.15c.472097.012605.942697-.058493,1.39-.21.419455-.162784.771767-.462249,1-.85.260525-.44043.424161-.931341.48-1.44.077962-.663753.114699-1.331701.11-2c.035394-2.443001-.385128-4.871179-1.24-7.16-.762468-2.016543-1.941429-3.849724-3.46-5.38-1.505388-1.482114-3.308545-2.627408-5.29-3.36-2.160501-.779678-4.443264-1.165784-6.74-1.14-2.617443-.040851-5.21509.459613-7.63,1.47-4.360867,1.836012-7.772122,5.388348-9.43,9.82-.845717,2.236626-1.276102,4.60883-1.27,7-.054424,2.93768.44775,5.859111,1.48,8.61.885401,2.332327,2.247773,4.454222,4,6.23c1.711098,1.671371,3.755642,2.962841,6,3.79c2.335629.850576,4.804372,1.277272,7.29,1.26c1.337419-.004103,2.673303-.090935,4-.26c1.415489-.199353,2.808555-.534225,4.16-1c1.425528-.465324,2.791533-1.096305,4.07-1.88c1.385367-.884992,2.635043-1.966248,3.71-3.21l.3-.35L95,75.23c-.541096-.776639-1.444721-1.219-2.39-1.17ZM75.45,62.15c.26426-1.537597.957554-2.969249,2-4.13c1.203385-1.116406,2.811619-1.691034,4.45-1.59.93144-.026246,1.857075.154783,2.71.53.686504.32517,1.291345.800159,1.77,1.39.463243.59339.803234,1.273371,1,2c.160586.595113.261089,1.20483.3,1.82Z" fill="#fff"/></g></mask></g></svg>