<?xml version="1.0" encoding="UTF-8"?><svg id="Layer_1" xmlns="http://www.w3.org/2000/svg" viewBox="0 0 150 120"><defs><style>.cls-1{fill:none;stroke:#ced5db;stroke-linecap:round;stroke-linejoin:round;stroke-width:3px;}.cls-2{fill:#fff;}.cls-3{opacity:.7;}.cls-3,.cls-4{fill:#7d818e;}.cls-4{opacity:.3;}</style></defs><rect class="cls-4" x="1" y="1" width="148" height="118" rx="2" ry="2"/><path class="cls-3" d="M3,1H147c1.1,0,2,.9,2,2V36.5H1V3c0-1.1,.9-2,2-2Z"/><line class="cls-1" x1="38" y1="27" x2="24" y2="27"/><line class="cls-1" x1="60" y1="27" x2="46" y2="27"/><line class="cls-1" x1="82" y1="27" x2="68" y2="27"/><line class="cls-1" x1="104" y1="27" x2="90" y2="27"/><line class="cls-1" x1="126" y1="27" x2="112" y2="27"/><g><path class="cls-2" d="M63.11,16h2.28v1.31h-4v-7.07h1.71v5.76Z"/><path class="cls-2" d="M71.35,10.59c.54,.3,.98,.75,1.28,1.29,.33,.57,.49,1.21,.48,1.87,0,.65-.16,1.3-.48,1.87-.31,.54-.75,.98-1.29,1.29-.55,.31-1.17,.48-1.8,.47-.63,0-1.26-.16-1.81-.47-.54-.31-.98-.75-1.29-1.29-.32-.57-.48-1.22-.47-1.87-.01-.65,.15-1.3,.47-1.87,.31-.54,.75-.98,1.29-1.29,1.13-.61,2.49-.61,3.62,0Zm-3.15,1.67c-.35,.42-.52,.95-.49,1.49-.03,.54,.15,1.07,.49,1.48,.35,.37,.83,.57,1.34,.55,.5,.02,.98-.18,1.32-.55,.35-.41,.53-.94,.5-1.48,.03-.54-.14-1.07-.49-1.48-.34-.37-.83-.57-1.33-.55-.5-.02-.99,.17-1.34,.54Z"/><path class="cls-2" d="M79.57,10.82c.57,.43,.95,1.06,1.07,1.76h-1.81c-.12-.25-.31-.47-.55-.61-.27-.15-.58-.23-.89-.22-.49-.02-.97,.18-1.3,.54-.34,.41-.52,.94-.49,1.48-.04,.56,.15,1.12,.51,1.55,.39,.38,.93,.58,1.47,.54,.38,0,.76-.11,1.07-.34,.31-.24,.54-.57,.65-.95h-2.16v-1.23h3.59v1.66c-.15,.43-.38,.83-.68,1.18-.31,.36-.7,.66-1.13,.86-.49,.23-1.02,.34-1.56,.33-.65,.02-1.3-.14-1.87-.46-.53-.29-.96-.73-1.24-1.27-.3-.58-.44-1.22-.43-1.87-.01-.65,.13-1.29,.43-1.87,.28-.54,.71-.98,1.23-1.28,.57-.31,1.21-.47,1.86-.45,.8-.04,1.58,.19,2.23,.65Z"/><path class="cls-2" d="M86.86,10.59c.54,.3,.98,.75,1.28,1.29,.32,.57,.48,1.22,.47,1.87,.01,.65-.15,1.3-.47,1.87-.31,.54-.75,.98-1.29,1.29-1.12,.63-2.49,.63-3.61,0-.54-.31-.98-.75-1.29-1.29-.32-.57-.49-1.22-.48-1.87-.01-.66,.15-1.3,.48-1.87,.31-.54,.75-.98,1.29-1.29,1.13-.61,2.49-.61,3.62,0Zm-3.15,1.67c-.35,.42-.52,.95-.49,1.49-.03,.54,.15,1.07,.49,1.48,.35,.37,.83,.57,1.34,.55,.5,.02,.98-.18,1.32-.55,.35-.41,.53-.94,.5-1.48,.03-.54-.14-1.07-.49-1.48-.34-.37-.83-.57-1.33-.55-.5-.02-.99,.17-1.34,.54Z"/></g></svg>