<svg id="Layer_1" data-name="Layer 1" xmlns="http://www.w3.org/2000/svg" viewBox="0 0 24 24"><defs><style>.cls-1{fill:#304050;}</style></defs><path class="cls-1" d="M18.64,5.89H5.36a1,1,0,0,0-1,1V15a1,1,0,0,0,1,1h4.9v1a.51.51,0,0,1-.51.51h-.6a.31.31,0,0,0-.31.31.3.3,0,0,0,.31.3h5.7a.3.3,0,0,0,.31-.3.31.31,0,0,0-.31-.31h-.6a.51.51,0,0,1-.51-.51V16h4.9a1,1,0,0,0,1-1V6.89A1,1,0,0,0,18.64,5.89Zm0,8.37a.34.34,0,0,1-.34.34H5.73a.34.34,0,0,1-.34-.34V7.4a.34.34,0,0,1,.34-.34H18.27a.34.34,0,0,1,.34.34Z"/></svg>