<?xml version="1.0" encoding="utf-8"?>
<!-- Generator: Adobe Illustrator 25.0.1, SVG Export Plug-In . SVG Version: 6.00 Build 0)  -->
<svg version="1.1" id="th_color" xmlns="http://www.w3.org/2000/svg" xmlns:xlink="http://www.w3.org/1999/xlink" x="0px" y="0px"
	 viewBox="0 0 26 26" style="enable-background:new 0 0 26 26;" xml:space="preserve">
<style type="text/css">
	.st0{fill:none;stroke:#C4D6FF;stroke-width:1.5;stroke-linecap:round;stroke-linejoin:round;}
	.st1{fill:#C4D6FF;}
</style>
<path class="st0" d="M5.8,5h14.4C20.6,5,21,5.4,21,5.8v14.4c0,0.4-0.4,0.8-0.8,0.8H5.8C5.4,21,5,20.6,5,20.2V5.8C5,5.4,5.4,5,5.8,5z
	"/>
<path id="path_2_" class="st1" d="M16.9,8.5c0.4,0.1,0.7,0.4,0.6,0.8C17.4,9.8,17,10,16.6,10c-0.7-0.1-1.8,1-3,3.3
	c-1.5,2.9-3,4.3-4.5,4.2c-0.4,0-0.7-0.4-0.7-0.8c0-0.4,0.4-0.7,0.8-0.7c0.7,0.1,1.8-1.1,3-3.4C13.9,9.7,15.3,8.3,16.9,8.5z"/>
</svg>
