<svg id="Layer_1" data-name="Layer 1" xmlns="http://www.w3.org/2000/svg" viewBox="0 0 60 60"><defs><style>.cls-1,.cls-2{fill:#7d818e;}.cls-1{opacity:0.7;}.cls-2{opacity:0.5;}.cls-3{fill:#489c6d;}.cls-4{fill:none;stroke:#7d818e;stroke-linecap:round;stroke-miterlimit:10;stroke-width:2px;stroke-dasharray:1 4;}</style></defs><path class="cls-1" d="M16,10.32H26c.55,0,1,.34,1,.75v37.5c0,.41-.45.75-1,.75H16c-.55,0-1-.34-1-.75V11.07C15,10.66,15.45,10.32,16,10.32Z"/><path class="cls-2" d="M33.67,16.82H44.33a.61.61,0,0,1,.67.48v25a.61.61,0,0,1-.67.48H33.67a.6.6,0,0,1-.67-.49v-25A.61.61,0,0,1,33.67,16.82Z"/><path class="cls-3" d="M5,28a2,2,0,0,0,0,4H15V28Z"/><rect class="cls-3" x="27" y="28" width="6" height="4"/><path class="cls-3" d="M55,28H45v4H55a2,2,0,0,0,0-4Z"/><path class="cls-4" d="M16,10.32H26c.55,0,1,.34,1,.75v37.5c0,.41-.45.75-1,.75H16c-.55,0-1-.34-1-.75V11.07C15,10.66,15.45,10.32,16,10.32Z"/><path class="cls-4" d="M33.67,16.82H44.33a.61.61,0,0,1,.67.48v25a.61.61,0,0,1-.67.48H33.67a.6.6,0,0,1-.67-.49v-25A.61.61,0,0,1,33.67,16.82Z"/></svg>