<svg id="Layer_1" data-name="Layer 1" xmlns="http://www.w3.org/2000/svg" viewBox="0 0 60 60"><defs><style>.cls-1,.cls-2{fill:#7d818e;}.cls-1{opacity:0.7;}.cls-2{opacity:0.5;}.cls-3{fill:none;stroke:#7d818e;stroke-linecap:round;stroke-miterlimit:10;stroke-width:2px;stroke-dasharray:1 4;}</style></defs><path class="cls-1" d="M16,10.34H26c.55,0,1,.34,1,.75v37.5c0,.41-.45.75-1,.75H16c-.55,0-1-.34-1-.75V11.09C15,10.68,15.45,10.34,16,10.34Z"/><path class="cls-2" d="M33.67,10.34H44.33c.32-.05.62.27.67.73V48.6a.68.68,0,0,1-.61.73H33.67A.73.73,0,0,1,33,48.6V11.07C33.05,10.61,33.35,10.29,33.67,10.34Z"/><path class="cls-3" d="M16,10.34H26c.55,0,1,.34,1,.75v37.5c0,.41-.45.75-1,.75H16c-.55,0-1-.34-1-.75V11.09C15,10.68,15.45,10.34,16,10.34Z"/><path class="cls-3" d="M33.67,10.34H44.33c.32-.05.62.27.67.73V48.6a.68.68,0,0,1-.61.73H33.67A.73.73,0,0,1,33,48.6V11.07C33.05,10.61,33.35,10.29,33.67,10.34Z"/></svg>