<svg id="Layer_1" data-name="Layer 1" xmlns="http://www.w3.org/2000/svg" viewBox="0 0 24 24"><defs><style>.cls-1{fill:none;stroke:#304050;stroke-miterlimit:10;stroke-width:1.5px;fill-rule:evenodd;}</style></defs><path class="cls-1" d="M21.14,13.07a1.13,1.13,0,0,1-1.12,1h-.14a1.22,1.22,0,0,0-1.14.76,1.23,1.23,0,0,0,.31,1.4,1.12,1.12,0,0,1,.12,1.54,9.42,9.42,0,0,1-1.49,1.47,1.09,1.09,0,0,1-.69.24,1.12,1.12,0,0,1-.83-.36,1.32,1.32,0,0,0-1-.4,1,1,0,0,0-.43.08A1.23,1.23,0,0,0,14,20a1.14,1.14,0,0,1-1,1.17c-.33,0-.67.05-1,.05a9.28,9.28,0,0,1-1.06-.06,1.12,1.12,0,0,1-1-1.19,1.26,1.26,0,0,0-.76-1.21,1,1,0,0,0-.44-.09,1.34,1.34,0,0,0-1,.4,1.11,1.11,0,0,1-.83.37,1.13,1.13,0,0,1-.71-.24,9.73,9.73,0,0,1-1.46-1.48,1.14,1.14,0,0,1,.13-1.53,1.25,1.25,0,0,0,.31-1.39A1.22,1.22,0,0,0,4.11,14h0a1.21,1.21,0,0,1-1.21-1,9.13,9.13,0,0,1,0-2.09A1.12,1.12,0,0,1,4,9.93a1.32,1.32,0,0,0,1.25-.76A1.23,1.23,0,0,0,5,7.77a1.12,1.12,0,0,1-.12-1.54A8.64,8.64,0,0,1,6.32,4.76,1.07,1.07,0,0,1,7,4.52a1.09,1.09,0,0,1,.83.37,1.35,1.35,0,0,0,1,.39,1,1,0,0,0,.43-.08A1.23,1.23,0,0,0,10,4a1.14,1.14,0,0,1,1-1.16,9.55,9.55,0,0,1,2.07,0,1.12,1.12,0,0,1,1,1.18,1.25,1.25,0,0,0,.76,1.22,1,1,0,0,0,.44.09,1.34,1.34,0,0,0,1-.4,1.09,1.09,0,0,1,.83-.37,1.13,1.13,0,0,1,.71.24,9.74,9.74,0,0,1,1.46,1.48,1.14,1.14,0,0,1-.13,1.53A1.24,1.24,0,0,0,19.94,10a1.21,1.21,0,0,1,1.2,1A9.13,9.13,0,0,1,21.14,13.07ZM12,14.43A2.44,2.44,0,1,1,14.43,12,2.43,2.43,0,0,1,12,14.43Z"/></svg>