<svg id="Layer_1" data-name="Layer 1" xmlns="http://www.w3.org/2000/svg" viewBox="0 0 22 22">
<style>.cls-1{fill:none;stroke:#ffffff;stroke-linecap:round;stroke-linejoin:round;stroke-width:1.5px;}</style>
<line class="cls-1" x1="14.76" y1="13.22" x2="11" y2="11"/><path class="cls-1" d="M7.5,4.94A6.86,6.86,0,0,1,9.82,4.1"/><path class="cls-1" d="M4.43,8.59A6.72,6.72,0,0,1,5.67,6.47"/><path class="cls-1" d="M4.41,13.37A6.9,6.9,0,0,1,4,11V11"/><path class="cls-1" d="M7.47,17.05a7.23,7.23,0,0,1-1.88-1.6"/><path class="cls-1" d="M16.38,15.48a7.19,7.19,0,0,1-1.88,1.59"/><path class="cls-1" d="M18,11v0a7.08,7.08,0,0,1-.42,2.4"/><path class="cls-1" d="M16.36,6.5a7.22,7.22,0,0,1,1.23,2.12"/><path class="cls-1" d="M12.19,4.1a7,7,0,0,1,2.3.83"/><circle class="cls-1" cx="11" cy="11" r="0.5"/>
</svg>