<svg id="Layer_1" data-name="Layer 1" xmlns="http://www.w3.org/2000/svg" viewBox="0 0 60 60"><defs><style>.cls-1,.cls-2{fill:#7d818e;}.cls-1{opacity:0.7;}.cls-2{opacity:0.5;}.cls-3{fill:#489c6d;}.cls-4{fill:none;stroke:#7d818e;stroke-linecap:round;stroke-miterlimit:10;stroke-width:2px;stroke-dasharray:1 4;}</style></defs><path class="cls-1" d="M16.5,10.5h10c.55,0,1,.34,1,.75v37.5c0,.41-.45.75-1,.75h-10c-.55,0-1-.34-1-.75V11.25C15.5,10.84,16,10.5,16.5,10.5Z"/><path class="cls-2" d="M34.17,10.5H44.83a.6.6,0,0,1,.67.52V36a.61.61,0,0,1-.67.5H34.17a.61.61,0,0,1-.67-.5V11A.61.61,0,0,1,34.17,10.5Z"/><rect class="cls-3" x="27.5" y="15" width="6" height="4"/><path class="cls-3" d="M5.5,15a2,2,0,0,0,0,4h10V15Z"/><path class="cls-3" d="M55.5,15h-10v4h10a2,2,0,0,0,0-4Z"/><path class="cls-4" d="M16.5,10.5h10c.55,0,1,.34,1,.75v37.5c0,.41-.45.75-1,.75h-10c-.55,0-1-.34-1-.75V11.25C15.5,10.84,16,10.5,16.5,10.5Z"/><path class="cls-4" d="M34.17,10.5H44.83a.6.6,0,0,1,.67.52V36a.61.61,0,0,1-.67.5H34.17a.61.61,0,0,1-.67-.5V11A.61.61,0,0,1,34.17,10.5Z"/></svg>