<?xml version="1.0" encoding="utf-8"?>
<!-- Generator: Adobe Illustrator 25.0.1, SVG Export Plug-In . SVG Version: 6.00 Build 0)  -->
<svg version="1.1" id="Layer_1" xmlns="http://www.w3.org/2000/svg" xmlns:xlink="http://www.w3.org/1999/xlink" x="0px" y="0px"
	 viewBox="0 0 60 60" style="enable-background:new 0 0 60 60;" xml:space="preserve">
<style type="text/css">
	.st0{fill:#489C6D;}
	.st1{opacity:0.7;fill:#7D818E;enable-background:new    ;}
	.st2{opacity:0.5;fill:#7D818E;enable-background:new    ;}
	.st3{fill:none;stroke:#7D818E;stroke-width:2;stroke-linecap:round;stroke-miterlimit:10;stroke-dasharray:1,4;}
</style>
<path class="st0" d="M56.9,16.3c-0.3-0.8-1.1-1.3-2-1.3l-7.7,0H45H15h-2.2l-7.7,0c-0.9,0-1.7,0.5-2,1.3C2.7,17.7,3.7,19,5,19h7.8H15
	h30h2.2H55C56.3,19,57.3,17.7,56.9,16.3z"/>
<path class="st1" d="M16,3h28.2C44.6,3,45,3.4,45,3.8v4.4C45,8.6,44.5,9,44,9H16c-0.6,0-1-0.3-1-0.8V3.8C15,3.4,15.4,3,16,3z"/>
<path class="st2" d="M15.7,23h28.6c0.3,0,0.6,0.2,0.7,0.5v13c-0.1,0.3-0.4,0.5-0.7,0.5H15.7c-0.3,0-0.6-0.2-0.7-0.5V23.6
	C15.1,23.2,15.4,23,15.7,23z"/>
<path class="st0" d="M56.9,43.3c-0.3-0.8-1.1-1.3-2-1.3l-7.7,0H45H15h-2.2l-7.7,0c-0.9,0-1.7,0.5-2,1.3C2.7,44.7,3.7,46,5,46h7.8H15
	h30h2.2H55C56.3,46,57.3,44.7,56.9,43.3z"/>
<path class="st1" d="M16,51h28c0.5,0,1,0.5,1,1v4.2c0,0.4-0.5,0.8-1,0.8H16c-0.6,0-1-0.3-1-0.8v-4.4C15,51.4,15.4,51,16,51z"/>
<path class="st3" d="M16.7,3h26.7c0.8,0,1.5,0.2,1.7,0.5v5C44.9,8.8,44.1,9,43.3,9H16.7c-0.8,0-1.5-0.2-1.7-0.5v-5
	C15.1,3.2,15.9,3,16.7,3z"/>
<path class="st3" d="M16.7,51h26.7c0.8,0,1.5,0.2,1.7,0.5v5c-0.1,0.3-0.9,0.5-1.7,0.5H16.7c-0.8,0-1.5-0.2-1.7-0.5v-5
	C15.1,51.2,15.9,51,16.7,51z"/>
<path class="st3" d="M16.7,23h26.7c0.8-0.1,1.5,0.4,1.7,1.2v11.7c-0.1,0.7-0.9,1.2-1.7,1.2H16.7c-0.8,0.1-1.5-0.4-1.7-1.2V24.2
	C15.1,23.4,15.9,22.9,16.7,23z"/>
</svg>
