<svg id="Layer_1" data-name="Layer 1" xmlns="http://www.w3.org/2000/svg" viewBox="0 0 60 60"><defs><style>.cls-1,.cls-2{fill:#7d818e;}.cls-1{opacity:0.7;}.cls-2{opacity:0.5;}.cls-3{fill:none;stroke:#7d818e;stroke-linecap:round;stroke-linejoin:round;stroke-width:2px;}.cls-4{fill:#489c6d;}</style></defs><path class="cls-1" d="M16,19.9H26c.55,0,1,.17,1,.38V39.51c0,.21-.45.39-1,.39H16c-.55,0-1-.18-1-.39V20.28C15,20.07,15.45,19.9,16,19.9Z"/><path class="cls-2" d="M33.67,23.86H44.33c.32,0,.62.08.67.21V35.63c0,.14-.35.24-.67.22H33.67c-.33,0-.62-.08-.67-.22V24.07C33.06,23.93,33.35,23.84,33.67,23.86Z"/><polyline class="cls-3" points="27 10.94 30.5 14 34 10.94"/><line class="cls-3" x1="30.5" y1="14" x2="30.5" y2="6"/><polyline class="cls-3" points="34 48.45 30.5 45.39 27 48.45"/><line class="cls-3" x1="30.5" y1="45.39" x2="30.5" y2="53.39"/><path class="cls-4" d="M55,27.85H45v4H55a2,2,0,0,0,0-4Z"/><path class="cls-4" d="M5,27.85a2,2,0,0,0,0,4H15v-4Z"/><rect class="cls-4" x="27" y="27.85" width="6" height="4"/></svg>