<svg id="Layer_1" data-name="Layer 1" xmlns="http://www.w3.org/2000/svg" viewBox="0 0 24 24"><defs><style>.cls-1{fill:#304050;}</style></defs><path class="cls-1" d="M16,12.94a3.36,3.36,0,0,1,.52,1.92,3,3,0,0,1-1.08,2.47,5,5,0,0,1-3.16.86H7.44V6H12a4.55,4.55,0,0,1,3,.85,2.87,2.87,0,0,1,1,2.33,3.38,3.38,0,0,1-.37,1.58,2.85,2.85,0,0,1-1,1.11A2.8,2.8,0,0,1,16,12.94ZM9.88,8.1V11h1.84a2.2,2.2,0,0,0,1.38-.37,1.28,1.28,0,0,0,.46-1.08,1.28,1.28,0,0,0-.46-1.08,2.34,2.34,0,0,0-1.38-.35Zm3.72,7.6a1.34,1.34,0,0,0,.49-1.14c0-1-.65-1.52-1.95-1.52H9.88v3h2.26A2.46,2.46,0,0,0,13.6,15.7Z"/></svg>