<svg id="Layer_1" data-name="Layer 1" xmlns="http://www.w3.org/2000/svg" viewBox="0 0 150 120"><defs><style>.cls-1{fill:#7d818e;opacity:.7;}</style></defs><path class="cls-1" d="M13.79,10H67.54a3.64,3.64,0,0,1,3.62,3.67V61.33A3.64,3.64,0,0,1,67.54,65H13.79a3.65,3.65,0,0,1-3.63-3.67V13.67A3.65,3.65,0,0,1,13.79,10Z"/><path class="cls-1" d="M80.66,21.53h58a1.5,1.5,0,0,1,1.5,1.5h0a1.5,1.5,0,0,1-1.5,1.5h-58a1.5,1.5,0,0,1-1.5-1.5h0A1.5,1.5,0,0,1,80.66,21.53Z"/><path class="cls-1" d="M80.66,34.53h38.5a1.5,1.5,0,0,1,1.5,1.5h0a1.5,1.5,0,0,1-1.5,1.5H80.66a1.5,1.5,0,0,1-1.5-1.5h0A1.5,1.5,0,0,1,80.66,34.53Z"/><path class="cls-1" d="M80.66,27.88h58a1.5,1.5,0,0,1,1.5,1.5h0a1.5,1.5,0,0,1-1.5,1.5h-58a1.5,1.5,0,0,1-1.5-1.5h0A1.5,1.5,0,0,1,80.66,27.88Z"/><path class="cls-1" d="M80.66,12.53h26a1.5,1.5,0,0,1,1.5,1.5h0a1.5,1.5,0,0,1-1.5,1.5h-26a1.5,1.5,0,0,1-1.5-1.5h0A1.5,1.5,0,0,1,80.66,12.53Z"/><circle class="cls-1" cx="81.66" cy="46.03" r="2.5"/><circle class="cls-1" cx="89.66" cy="46.03" r="2.5"/><circle class="cls-1" cx="97.66" cy="46.03" r="2.5"/><path class="cls-1" d="M80.89,54.75h25.55a1.72,1.72,0,0,1,1.72,1.72v4.76A1.73,1.73,0,0,1,106.44,63H80.89a1.74,1.74,0,0,1-1.73-1.73V56.47A1.73,1.73,0,0,1,80.89,54.75Z"/><path class="cls-1" d="M80.5,77.72H119a1.5,1.5,0,0,1,1.5,1.5h0a1.5,1.5,0,0,1-1.5,1.5H80.5a1.5,1.5,0,0,1-1.5-1.5h0A1.5,1.5,0,0,1,80.5,77.72Z"/><rect class="cls-1" x="79" y="94" width="61" height="1"/><path class="cls-1" d="M80.5,101.21H107a1.5,1.5,0,0,1,1.5,1.5h0a1.5,1.5,0,0,1-1.5,1.5H80.5a1.5,1.5,0,0,1-1.5-1.5h0A1.5,1.5,0,0,1,80.5,101.21Z"/><path class="cls-1" d="M80.5,85h48a1.5,1.5,0,0,1,1.5,1.5h0a1.5,1.5,0,0,1-1.5,1.5h-48A1.5,1.5,0,0,1,79,86.5h0A1.5,1.5,0,0,1,80.5,85Z"/><rect class="cls-1" x="133.93" y="102.21" width="4" height="1" transform="translate(112.44 -66.04) rotate(45)"/><rect class="cls-1" x="136.04" y="102.21" width="4" height="1" transform="translate(-32.19 127.69) rotate(-45)"/><rect class="cls-1" x="134.13" y="78.85" width="4" height="1" transform="translate(95.98 -73.02) rotate(45)"/><rect class="cls-1" x="136.24" y="78.85" width="4" height="1" transform="translate(-15.62 120.99) rotate(-45)"/></svg>