<svg id="Layer_1" data-name="Layer 1" xmlns="http://www.w3.org/2000/svg" viewBox="0 0 150 120"><defs><style>.cls-1{fill:#7d818e;opacity:.7;}</style></defs><rect class="cls-1" x="10" y="10" width="74" height="62.94" rx="4.4"/><path class="cls-1" d="M92.5,26h46a1.5,1.5,0,0,1,1.5,1.5h0a1.5,1.5,0,0,1-1.5,1.5h-46A1.5,1.5,0,0,1,91,27.5h0A1.5,1.5,0,0,1,92.5,26Z"/><path class="cls-1" d="M107.5,39H126a1.5,1.5,0,0,1,1.5,1.5h0A1.5,1.5,0,0,1,126,42H107.5a1.5,1.5,0,0,1-1.5-1.5h0A1.5,1.5,0,0,1,107.5,39Z"/><rect class="cls-1" x="10" y="77" width="21.8" height="17.21" rx="1.72"/><rect class="cls-1" x="62.2" y="77" width="21.8" height="17.21" rx="1.72"/><rect class="cls-1" x="36.39" y="77" width="21.8" height="17.21" rx="1.72"/><path class="cls-1" d="M92.5,32.35h46a1.5,1.5,0,0,1,1.5,1.5h0a1.5,1.5,0,0,1-1.5,1.5h-46a1.5,1.5,0,0,1-1.5-1.5h0A1.5,1.5,0,0,1,92.5,32.35Z"/><path class="cls-1" d="M103.58,17h26a1.5,1.5,0,0,1,1.5,1.5h0a1.5,1.5,0,0,1-1.5,1.5h-26a1.5,1.5,0,0,1-1.5-1.5h0A1.5,1.5,0,0,1,103.58,17Z"/><circle class="cls-1" cx="108.5" cy="50.5" r="2.5"/><circle class="cls-1" cx="116.83" cy="50.5" r="2.5"/><circle class="cls-1" cx="125.17" cy="50.5" r="2.5"/><path class="cls-1" d="M92.79,59.22h45.54a1.72,1.72,0,0,1,1.73,1.72V65.7a1.72,1.72,0,0,1-1.73,1.73H92.79a1.72,1.72,0,0,1-1.73-1.73V60.94A1.72,1.72,0,0,1,92.79,59.22Z"/><path class="cls-1" d="M49.47,104H60.53A1.49,1.49,0,0,1,62,105.5h0a1.49,1.49,0,0,1-1.47,1.5H49.47A1.49,1.49,0,0,1,48,105.5h0A1.49,1.49,0,0,1,49.47,104Z"/><path class="cls-1" d="M69.47,104H80.53A1.49,1.49,0,0,1,82,105.5h0a1.49,1.49,0,0,1-1.47,1.5H69.47A1.49,1.49,0,0,1,68,105.5h0A1.49,1.49,0,0,1,69.47,104Z"/><path class="cls-1" d="M89.47,104h11.06a1.49,1.49,0,0,1,1.47,1.5h0a1.49,1.49,0,0,1-1.47,1.5H89.47A1.49,1.49,0,0,1,88,105.5h0A1.49,1.49,0,0,1,89.47,104Z"/><rect class="cls-1" x="48" y="110" width="14" height="1"/></svg>