<svg id="Layer_1" data-name="Layer 1" xmlns="http://www.w3.org/2000/svg" viewBox="0 0 150 120"><defs><style>.cls-1{fill:#7d818e;opacity:.7;}</style></defs><path class="cls-1" d="M13.44,10H67.19a3.65,3.65,0,0,1,3.63,3.66V61.37A3.65,3.65,0,0,1,67.19,65H13.44a3.64,3.64,0,0,1-3.62-3.67V13.7A3.64,3.64,0,0,1,13.44,10Z"/><path class="cls-1" d="M80.32,21.57h58a1.5,1.5,0,0,1,1.5,1.5h0a1.5,1.5,0,0,1-1.5,1.5h-58a1.5,1.5,0,0,1-1.5-1.5h0A1.5,1.5,0,0,1,80.32,21.57Z"/><path class="cls-1" d="M80.32,34.57h38.5a1.5,1.5,0,0,1,1.5,1.5h0a1.5,1.5,0,0,1-1.5,1.5H80.32a1.5,1.5,0,0,1-1.5-1.5h0A1.5,1.5,0,0,1,80.32,34.57Z"/><path class="cls-1" d="M80.32,27.92h58a1.5,1.5,0,0,1,1.5,1.5h0a1.5,1.5,0,0,1-1.5,1.5h-58a1.5,1.5,0,0,1-1.5-1.5h0A1.5,1.5,0,0,1,80.32,27.92Z"/><path class="cls-1" d="M80.32,12.57h26a1.5,1.5,0,0,1,1.5,1.5h0a1.5,1.5,0,0,1-1.5,1.5h-26a1.5,1.5,0,0,1-1.5-1.5h0A1.5,1.5,0,0,1,80.32,12.57Z"/><circle class="cls-1" cx="81.32" cy="46.07" r="2.5"/><circle class="cls-1" cx="89.32" cy="46.07" r="2.5"/><circle class="cls-1" cx="97.32" cy="46.07" r="2.5"/><path class="cls-1" d="M80.55,54.78h25.54a1.73,1.73,0,0,1,1.73,1.72v4.77A1.73,1.73,0,0,1,106.09,63H80.55a1.72,1.72,0,0,1-1.73-1.72V56.5A1.72,1.72,0,0,1,80.55,54.78Z"/><path class="cls-1" d="M83.73,81H94.8a1.49,1.49,0,0,1,1.47,1.5h0A1.49,1.49,0,0,1,94.8,84H83.73a1.48,1.48,0,0,1-1.46-1.5h0A1.48,1.48,0,0,1,83.73,81Z"/><path class="cls-1" d="M105.73,81H119.8a1.49,1.49,0,0,1,1.47,1.5h0A1.49,1.49,0,0,1,119.8,84H105.73a1.48,1.48,0,0,1-1.46-1.5h0A1.48,1.48,0,0,1,105.73,81Z"/><path class="cls-1" d="M128.73,81h8.07a1.49,1.49,0,0,1,1.47,1.5h0A1.49,1.49,0,0,1,136.8,84h-8.07a1.48,1.48,0,0,1-1.46-1.5h0A1.48,1.48,0,0,1,128.73,81Z"/><rect class="cls-1" x="98.83" y="87" width="41" height="1"/><path class="cls-1" d="M80,102h28.5a1.5,1.5,0,0,1,1.5,1.5h0a1.5,1.5,0,0,1-1.5,1.5H80a1.5,1.5,0,0,1-1.5-1.5h0A1.5,1.5,0,0,1,80,102Z"/><path class="cls-1" d="M80,95h48a1.5,1.5,0,0,1,1.5,1.5h0A1.5,1.5,0,0,1,128,98H80a1.5,1.5,0,0,1-1.5-1.5h0A1.5,1.5,0,0,1,80,95Z"/><rect class="cls-1" x="78.83" y="77" width="21" height="1"/><rect class="cls-1" x="98.83" y="77" width="1" height="11"/></svg>