<svg id="Layer_1" data-name="Layer 1" xmlns="http://www.w3.org/2000/svg" viewBox="0 0 150 120"><defs><style>.cls-1{fill:#7d818e;opacity:.7;}</style></defs><path class="cls-1" d="M13.62,10H67.38A3.64,3.64,0,0,1,71,13.67V61.33A3.64,3.64,0,0,1,67.38,65H13.62A3.64,3.64,0,0,1,10,61.33V13.67A3.64,3.64,0,0,1,13.62,10Z"/><path class="cls-1" d="M80.5,21.53h58A1.5,1.5,0,0,1,140,23h0a1.5,1.5,0,0,1-1.5,1.5h-58A1.5,1.5,0,0,1,79,23h0A1.5,1.5,0,0,1,80.5,21.53Z"/><path class="cls-1" d="M80.5,34.53H119a1.5,1.5,0,0,1,1.5,1.5h0a1.5,1.5,0,0,1-1.5,1.5H80.5A1.5,1.5,0,0,1,79,36h0A1.5,1.5,0,0,1,80.5,34.53Z"/><path class="cls-1" d="M80.5,27.88h58a1.5,1.5,0,0,1,1.5,1.5h0a1.5,1.5,0,0,1-1.5,1.5h-58a1.5,1.5,0,0,1-1.5-1.5h0A1.5,1.5,0,0,1,80.5,27.88Z"/><path class="cls-1" d="M80.5,12.53h26A1.5,1.5,0,0,1,108,14h0a1.5,1.5,0,0,1-1.5,1.5h-26A1.5,1.5,0,0,1,79,14h0A1.5,1.5,0,0,1,80.5,12.53Z"/><circle class="cls-1" cx="81.5" cy="46.03" r="2.5"/><circle class="cls-1" cx="89.5" cy="46.03" r="2.5"/><circle class="cls-1" cx="97.5" cy="46.03" r="2.5"/><path class="cls-1" d="M80.73,54.75h25.54A1.72,1.72,0,0,1,108,56.47v4.76A1.73,1.73,0,0,1,106.27,63H80.73A1.73,1.73,0,0,1,79,61.23V56.47A1.72,1.72,0,0,1,80.73,54.75Z"/><path class="cls-1" d="M11.34,77.72h38.5a1.5,1.5,0,0,1,1.5,1.5h0a1.5,1.5,0,0,1-1.5,1.5H11.34a1.5,1.5,0,0,1-1.5-1.5h0A1.5,1.5,0,0,1,11.34,77.72Z"/><rect class="cls-1" x="9.84" y="94" width="130" height="1"/><path class="cls-1" d="M11.34,101.21h26.5a1.5,1.5,0,0,1,1.5,1.5h0a1.51,1.51,0,0,1-1.5,1.5H11.34a1.5,1.5,0,0,1-1.5-1.5h0A1.5,1.5,0,0,1,11.34,101.21Z"/><path class="cls-1" d="M11.34,85h88a1.5,1.5,0,0,1,1.5,1.5h0a1.5,1.5,0,0,1-1.5,1.5h-88a1.5,1.5,0,0,1-1.5-1.5h0A1.5,1.5,0,0,1,11.34,85Z"/><rect class="cls-1" x="133.77" y="102.21" width="4" height="1" transform="translate(112.39 -65.92) rotate(45)"/><rect class="cls-1" x="135.88" y="102.21" width="4" height="1" transform="translate(-32.24 127.58) rotate(-45)"/><rect class="cls-1" x="133.97" y="78.85" width="4" height="1" transform="translate(95.93 -72.9) rotate(45)"/><rect class="cls-1" x="136.08" y="78.85" width="4" height="1" transform="translate(-15.67 120.88) rotate(-45)"/></svg>