<svg id="Layer_1" data-name="Layer 1" xmlns="http://www.w3.org/2000/svg" viewBox="0 0 150 120"><defs><style>.cls-1{fill:#7d818e;opacity:.7;}</style></defs><path class="cls-1" d="M13.28,10H67a3.64,3.64,0,0,1,3.62,3.66V61.37A3.64,3.64,0,0,1,67,65H13.28a3.65,3.65,0,0,1-3.63-3.67V13.7A3.65,3.65,0,0,1,13.28,10Z"/><path class="cls-1" d="M80.15,21.57h58a1.5,1.5,0,0,1,1.5,1.5h0a1.5,1.5,0,0,1-1.5,1.5h-58a1.5,1.5,0,0,1-1.5-1.5h0A1.5,1.5,0,0,1,80.15,21.57Z"/><path class="cls-1" d="M80.15,34.57h38.5a1.5,1.5,0,0,1,1.5,1.5h0a1.5,1.5,0,0,1-1.5,1.5H80.15a1.5,1.5,0,0,1-1.5-1.5h0A1.5,1.5,0,0,1,80.15,34.57Z"/><path class="cls-1" d="M80.15,27.92h58a1.5,1.5,0,0,1,1.5,1.5h0a1.5,1.5,0,0,1-1.5,1.5h-58a1.5,1.5,0,0,1-1.5-1.5h0A1.5,1.5,0,0,1,80.15,27.92Z"/><path class="cls-1" d="M80.15,12.57h26a1.5,1.5,0,0,1,1.5,1.5h0a1.5,1.5,0,0,1-1.5,1.5h-26a1.5,1.5,0,0,1-1.5-1.5h0A1.5,1.5,0,0,1,80.15,12.57Z"/><circle class="cls-1" cx="81.15" cy="46.07" r="2.5"/><circle class="cls-1" cx="89.15" cy="46.07" r="2.5"/><circle class="cls-1" cx="97.15" cy="46.07" r="2.5"/><path class="cls-1" d="M80.38,54.78h25.55a1.72,1.72,0,0,1,1.72,1.72v4.77A1.72,1.72,0,0,1,105.93,63H80.38a1.73,1.73,0,0,1-1.73-1.72V56.5A1.73,1.73,0,0,1,80.38,54.78Z"/><path class="cls-1" d="M14.9,81H26a1.49,1.49,0,0,1,1.47,1.5h0A1.49,1.49,0,0,1,26,84H14.9a1.48,1.48,0,0,1-1.46-1.5h0A1.48,1.48,0,0,1,14.9,81Z"/><path class="cls-1" d="M36.9,81H51a1.49,1.49,0,0,1,1.47,1.5h0A1.49,1.49,0,0,1,51,84H36.9a1.48,1.48,0,0,1-1.46-1.5h0A1.48,1.48,0,0,1,36.9,81Z"/><path class="cls-1" d="M59.9,81H68a1.49,1.49,0,0,1,1.47,1.5h0A1.49,1.49,0,0,1,68,84H59.9a1.48,1.48,0,0,1-1.46-1.5h0A1.48,1.48,0,0,1,59.9,81Z"/><rect class="cls-1" x="30" y="87" width="109" height="1"/><path class="cls-1" d="M11.18,102h68.5a1.5,1.5,0,0,1,1.5,1.5h0a1.5,1.5,0,0,1-1.5,1.5H11.18a1.5,1.5,0,0,1-1.5-1.5h0A1.5,1.5,0,0,1,11.18,102Z"/><path class="cls-1" d="M11.18,95h88a1.5,1.5,0,0,1,1.5,1.5h0a1.5,1.5,0,0,1-1.5,1.5h-88a1.5,1.5,0,0,1-1.5-1.5h0A1.5,1.5,0,0,1,11.18,95Z"/><rect class="cls-1" x="10" y="77" width="21" height="1"/><rect class="cls-1" x="30" y="77" width="1" height="11"/></svg>