<?xml version="1.0" encoding="UTF-8"?><svg id="Layer_4" xmlns="http://www.w3.org/2000/svg" viewBox="0 0 26 26"><defs><style>.cls-1{fill:#ffffff;}.cls-2{fill:none;stroke:#ffffff;stroke-linecap:round;stroke-linejoin:round;stroke-width:1.5px;}</style></defs><polyline class="cls-2" points="8.62 21.15 2.7 21.15 2.7 7.95 2.7 5.15 13.34 5.15"/><polyline class="cls-2" points="19.1 9.75 19.1 7.95 16.58 7.95"/><line class="cls-2" x1="12.58" y1="7.95" x2="2.7" y2="7.95"/><polyline class="cls-2" points="22.8 17.25 22.8 12.15 15.5 12.15 15.5 18.15 17 18.15"/><path class="cls-1" d="m23.2,19.95l-3.9-3.9c-.1-.1-.4,0-.4.2v5.3c0,.1.1.2.2.2s.1,0,.1-.1l1.1-.9.9,2s0,.1.1.1h.2l.9-.4c.1,0,.1-.1.1-.2l-.8-2h1.4c.1,0,.2-.1.2-.2-.1,0-.1-.1-.1-.1Z"/><line class="cls-2" x1="14.02" y1="3.15" x2="8.02" y2="23.15"/><polyline class="cls-2" points="17.42 5.15 19.1 5.15 19.1 7.95"/><line class="cls-2" x1="16.1" y1="21.15" x2="12.62" y2="21.15"/></svg>