<?xml version="1.0" encoding="UTF-8"?>
<!-- Generator: Adobe Illustrator 25.0.1, SVG Export Plug-In . SVG Version: 6.00 Build 0)  -->
<svg version="1.1" id="Layer_1" xmlns="http://www.w3.org/2000/svg" xmlns:xlink="http://www.w3.org/1999/xlink" x="0px" y="0px" viewBox="0 0 26 26" style="enable-background:new 0 0 26 26;" xml:space="preserve">
<style type="text/css">
	.st0{fill:#ffffff;}
</style>
<path class="st0" d="M17.4,15c-0.9,0-1.8,0.4-2.3,1.1l-3.6-2c0.1-0.3,0.2-0.7,0.2-1c0-0.4-0.1-0.7-0.2-1l3.6-2  c0.6,0.7,1.4,1.1,2.3,1.1c1.7,0,3-1.4,3-3c0-1.7-1.4-3-3-3c-1.7,0-3,1.4-3,3c0,0.4,0.1,0.7,0.2,1l-3.6,2C10.4,10.4,9.5,10,8.6,10  c-1.7,0-3,1.4-3,3c0,1.7,1.4,3,3,3c0.9,0,1.8-0.4,2.3-1.1l3.6,2c-0.1,0.3-0.2,0.7-0.2,1c0,1.7,1.4,3,3,3c1.7,0,3-1.4,3-3  C20.4,16.3,19.1,15,17.4,15z M17.4,6.1c1.1,0,2,0.9,2,2c0,1.1-0.9,2-2,2c-1.1,0-2-0.9-2-2C15.4,6.9,16.3,6.1,17.4,6.1z M8.6,15  c-1.1,0-2-0.9-2-2c0-1.1,0.9-2,2-2c1.1,0,2,0.9,2,2C10.6,14.1,9.7,15,8.6,15z M17.4,19.9c-1.1,0-2-0.9-2-2c0-1.1,0.9-2,2-2  c1.1,0,2,0.9,2,2C19.3,19.1,18.5,19.9,17.4,19.9z"/>
</svg>