<?xml version="1.0" encoding="utf-8"?>
<!-- Generator: Adobe Illustrator 27.8.1, SVG Export Plug-In . SVG Version: 6.00 Build 0)  -->
<svg version="1.1" id="Layer_4" xmlns="http://www.w3.org/2000/svg" xmlns:xlink="http://www.w3.org/1999/xlink" x="0px" y="0px"
	 viewBox="0 0 26 26" style="enable-background:new 0 0 26 26;" xml:space="preserve">
<style type="text/css">
	.st0{fill:none;stroke:#ffffff;stroke-width:1.5;stroke-linecap:round;stroke-linejoin:round;}
	.st1{fill-rule:evenodd;clip-rule:evenodd;fill:#ffffff;}
</style>
<g>
	<g>
		<polyline class="st0" points="10.7,21 4.8,21 4.8,7.7 4.8,5 19.5,5 		"/>
		<polyline class="st0" points="19.5,5 21.2,5 21.2,13.6 		"/>
		<line class="st0" x1="13.8" y1="21" x2="10.2" y2="21"/>
	</g>
	<polyline class="st0" points="12.5,9 9.5,9 9.5,12 	"/>
	<path class="st1" d="M13.1,11.9c0-0.4-0.3-0.8-0.8-0.8s-0.8,0.3-0.8,0.8s0.3,0.8,0.8,0.8S13.1,12.3,13.1,11.9z"/>
	<path class="st1" d="M14.6,13.4c0-0.4-0.3-0.8-0.8-0.8s-0.8,0.3-0.8,0.8s0.3,0.8,0.8,0.8S14.6,13.8,14.6,13.4z"/>
	<path class="st1" d="M16.1,14.9c0-0.4-0.3-0.8-0.8-0.8s-0.8,0.3-0.8,0.8s0.3,0.8,0.8,0.8S16.1,15.3,16.1,14.9z"/>
	<rect x="17.2" y="17" class="st0" width="5" height="5"/>
</g>
</svg>
