<svg xmlns="http://www.w3.org/2000/svg" viewBox="0 0 26 26"><defs><style>.a{fill:none;stroke:#ffffff;stroke-linecap:round;stroke-linejoin:round;stroke-width:1.5px;}.b{fill:#5388be;}.c{fill:#fff;}</style></defs><path class="a" d="M21,22.92V6.74L16.43,2.17H5.91A.91.91,0,0,0,5,3.08V22.92a.91.91,0,0,0,.91.91H20.09A.91.91,0,0,0,21,22.92Z"/><path class="a" d="M21,6.74H17.16A.73.73,0,0,1,16.43,6V2.17"/><rect class="b" x="1.33" y="12.18" width="15" height="8.75" rx="1.25"/><polygon class="c" points="3.58 14.97 4.82 14.97 4.82 18.79 5.73 18.79 5.73 14.97 6.98 14.97 6.98 14.25 3.58 14.25 3.58 14.97"/><path class="c" d="M9.14,14.25H7.49v4.54h.9V17.1h.75a1.7,1.7,0,0,0,1.2-.38,1.34,1.34,0,0,0,.42-1,1.36,1.36,0,0,0-.41-1A1.69,1.69,0,0,0,9.14,14.25ZM9,16.38H8.39V15H9a.86.86,0,0,1,.61.18.68.68,0,0,1,.19.52C9.84,16.15,9.57,16.38,9,16.38Z"/><polygon class="c" points="12.26 18.09 12.26 14.25 11.35 14.25 11.35 18.79 13.78 18.79 13.78 18.09 12.26 18.09"/></svg>