<?xml version="1.0" encoding="utf-8"?>
<!-- Generator: Adobe Illustrator 25.0.1, SVG Export Plug-In . SVG Version: 6.00 Build 0)  -->
<svg version="1.1" id="Layer_4" xmlns="http://www.w3.org/2000/svg" xmlns:xlink="http://www.w3.org/1999/xlink" x="0px" y="0px"
	 viewBox="0 0 26 26" style="enable-background:new 0 0 26 26;" xml:space="preserve">
<style type="text/css">
	.st0{fill:none;stroke:#fff;stroke-width:1.5;stroke-linecap:round;stroke-linejoin:round;}
	.st1{fill:none;stroke:#fff;stroke-width:1.5;stroke-miterlimit:10;}
</style>
<polyline class="st0" points="8.6,21.1 2.7,21.1 2.7,7.9 2.7,5.2 17.4,5.2 "/>
<polyline class="st0" points="19.1,9.8 19.1,7.9 16.6,7.9 "/>
<line class="st0" x1="16.6" y1="7.9" x2="2.7" y2="7.9"/>
<polyline class="st0" points="17.4,5.2 19.1,5.2 19.1,7.9 "/>
<line class="st0" x1="11" y1="21.1" x2="8.1" y2="21.1"/>
<path class="st1" d="M22.7,17.7c0,0.3-0.3,0.6-0.6,0.6H22c-0.2,0-0.5,0.2-0.6,0.4c-0.1,0.2-0.1,0.6,0.2,0.7c0.2,0.2,0.2,0.6,0.1,0.8
	c-0.2,0.3-0.5,0.6-0.8,0.8c-0.1,0.1-0.2,0.2-0.3,0.2c-0.2,0-0.3-0.1-0.4-0.2c-0.2-0.2-0.3-0.2-0.6-0.2c-0.1,0-0.2,0-0.2,0.1
	C19.1,21,19,21.2,19,21.5c0,0.3-0.2,0.6-0.6,0.6c-0.2,0-0.3,0-0.6,0c-0.2,0-0.4,0-0.6,0c-0.3,0-0.6-0.3-0.6-0.6
	c0-0.2-0.2-0.6-0.4-0.6c-0.1,0-0.2-0.1-0.2-0.1c-0.2,0-0.4,0.1-0.6,0.2c-0.1,0.2-0.2,0.2-0.4,0.2c-0.2,0-0.2-0.1-0.4-0.2
	c-0.3-0.2-0.6-0.5-0.8-0.8c-0.2-0.2-0.2-0.6,0.1-0.8c0.2-0.2,0.2-0.5,0.2-0.7c-0.1-0.2-0.3-0.4-0.6-0.4l0,0c-0.3,0-0.6-0.2-0.6-0.6
	c-0.1-0.4-0.1-0.7,0-1.1c0-0.3,0.3-0.5,0.6-0.5s0.6-0.2,0.6-0.4c0.1-0.2,0.1-0.6-0.2-0.7c0-0.2,0-0.6,0.2-0.9
	c0.2-0.3,0.5-0.6,0.7-0.8c0.1-0.1,0.2-0.2,0.3-0.2c0.2,0,0.3,0.1,0.4,0.2c0.2,0.2,0.3,0.2,0.6,0.2c0.1,0,0.2,0,0.2-0.1
	c0.2-0.1,0.4-0.3,0.4-0.6s0.2-0.6,0.6-0.6c0.3,0,0.7,0,1.1,0c0.3,0,0.6,0.3,0.6,0.6c0,0.2,0.2,0.6,0.4,0.6c0.1,0,0.2,0.1,0.2,0.1
	c0.2,0,0.4-0.1,0.6-0.2c0.1-0.2,0.2-0.2,0.4-0.2c0.2,0,0.2,0.1,0.4,0.2c0.3,0.2,0.6,0.5,0.8,0.8c0.2,0.2,0.2,0.6-0.1,0.8
	c-0.2,0.2-0.3,0.6-0.1,0.9c0.2,0.2,0.3,0.2,0.5,0.2c0.3,0,0.6,0.2,0.6,0.6C22.8,17,22.8,17.3,22.7,17.7z M17.9,18.5
	c-0.7,0-1.3-0.6-1.3-1.3c0-0.7,0.6-1.3,1.3-1.3s1.3,0.6,1.3,1.3l0,0C19.2,17.9,18.6,18.5,17.9,18.5L17.9,18.5z"/>
<line class="st0" x1="7.7" y1="21" x2="7.7" y2="7.9"/>
</svg>
