<?xml version="1.0" encoding="utf-8"?>
<!-- Generator: Adobe Illustrator 25.0.1, SVG Export Plug-In . SVG Version: 6.00 Build 0)  -->
<svg version="1.1" id="Layer_1" xmlns="http://www.w3.org/2000/svg" xmlns:xlink="http://www.w3.org/1999/xlink" x="0px" y="0px"
	 viewBox="0 0 22 22" style="enable-background:new 0 0 22 22;" xml:space="preserve">
<style type="text/css">
	.st0{fill:#ffffff;}
</style>
<g>
	<path class="st0" d="M11,3c-4.4,0-8,3.6-8,8s3.6,8,8,8s8-3.6,8-8S15.4,3,11,3z M3.9,11c0-1,0.2-2,0.6-2.9l3.4,9.3
		C5.6,16.2,3.9,13.8,3.9,11z M11,18.1c-0.7,0-1.4-0.1-2-0.3l2.2-6.2l2.2,6c0,0,0,0.1,0.1,0.1C12.6,18,11.8,18.1,11,18.1z M12,7.6
		c0.4,0,0.8-0.1,0.8-0.1c0.4,0,0.4-0.6,0-0.6c0,0-1.1,0.1-1.9,0.1C10.1,7.1,9,7,9,7C8.6,7,8.6,7.6,8.9,7.6c0,0,0.4,0.1,0.7,0.1
		l1.1,3l-1.5,4.6L6.7,7.6c0.4,0,0.8-0.1,0.8-0.1C7.9,7.6,7.8,7,7.4,7c0,0-1.1,0.1-1.9,0.1c-0.2,0-0.3,0-0.5,0
		c1.3-1.9,3.4-3.2,5.9-3.2c1.8,0,3.5,0.7,4.8,1.8h-0.1c-0.7,0-1.2,0.6-1.2,1.3c0,0.6,0.3,1,0.7,1.7c0.2,0.5,0.6,1,0.6,1.9
		c0,0.6-0.2,1.3-0.6,2.3l-0.7,2.4L12,7.6z M14.6,17.2l2.2-6.2c0.4-1,0.6-1.8,0.6-2.6c0-0.2,0-0.5-0.1-0.7c0.6,1,0.9,2.2,0.9,3.4
		C18.1,13.6,16.7,15.9,14.6,17.2z"/>
</g>
</svg>
