<svg xmlns="http://www.w3.org/2000/svg" viewBox="0 0 24 24"><defs><style>.a{fill:#ffffff;}</style></defs><path class="a" d="M12,24A12,12,0,0,1,9,23.61a.94.94,0,0,1,.47-1.81A10.14,10.14,0,0,0,21.73,9.21a.94.94,0,1,1,1.8-.51,12,12,0,0,1-3.05,11.78A11.88,11.88,0,0,1,12,24ZM1.49,15.58a.93.93,0,0,0,.68-1.13A10.17,10.17,0,0,1,12,1.87,11.51,11.51,0,0,1,13.76,2a1,1,0,0,0,1.09-.75A1,1,0,0,0,14.09.18,12.2,12.2,0,0,0,12,0,12,12,0,0,0,0,12a12.31,12.31,0,0,0,.35,2.9,1,1,0,0,0,.91.71.91.91,0,0,0,.23,0Zm15.19-.17A6,6,0,0,1,12,18.09a6,6,0,0,1-4.73-2.68,1,1,0,0,1,.29-1.3.94.94,0,0,1,1.29.29A4.12,4.12,0,0,0,12,16.21a4.12,4.12,0,0,0,3.14-1.81.94.94,0,1,1,1.59,1ZM21.63,0A2.42,2.42,0,0,0,20.2.46a2.38,2.38,0,0,0-3.79,1.93,5.29,5.29,0,0,0,2.4,4.08,2.35,2.35,0,0,0,2.79,0A5.33,5.33,0,0,0,24,2.39,2.39,2.39,0,0,0,21.63,0ZM20.47,5a.44.44,0,0,1-.53,0,3.65,3.65,0,0,1-1.66-2.59.52.52,0,0,1,.49-.51.47.47,0,0,1,.5.47.94.94,0,1,0,1.87,0,.46.46,0,0,1,.49-.46.49.49,0,0,1,.49.5A3.59,3.59,0,0,1,20.47,5ZM5.23,17.06a2.37,2.37,0,0,0-1.43.49,2.33,2.33,0,0,0-1.43-.49A2.38,2.38,0,0,0,0,19.45v0a5.33,5.33,0,0,0,2.4,4.07,2.35,2.35,0,0,0,2.79,0,5.3,5.3,0,0,0,2.4-4.07v0A2.38,2.38,0,0,0,5.23,17.06ZM4.06,22a.47.47,0,0,1-.53,0,3.65,3.65,0,0,1-1.65-2.6.49.49,0,1,1,1,0,.94.94,0,1,0,1.87,0,.5.5,0,1,1,1,0A3.67,3.67,0,0,1,4.06,22ZM9.84,8.58H8.55A4.41,4.41,0,0,0,5.72,9.74a.94.94,0,0,0,1.21,1.43,2.58,2.58,0,0,1,1.62-.72H9.84a.94.94,0,1,0,0-1.87Zm8.45,1.09a4.57,4.57,0,0,0-2.92-1.09H14.2a.94.94,0,0,0,0,1.88h1.2a2.82,2.82,0,0,1,1.75.69.94.94,0,0,0,.57.2,1,1,0,0,0,.75-.37A.94.94,0,0,0,18.29,9.67Z"/></svg>