<svg xmlns="http://www.w3.org/2000/svg" viewBox="0 0 24 24"><defs><style>.a{fill:#ffffff;}</style></defs><path class="a" d="M12,24A12,12,0,0,1,0,12,12,12,0,0,1,12,0,12,12,0,0,1,24,12,12,12,0,0,1,12,24ZM12,1.88A10.12,10.12,0,1,0,22.12,12,10.13,10.13,0,0,0,12,1.88Zm4.39,12.19a.94.94,0,0,0-1.29.29A4.12,4.12,0,0,1,12,16.17a4.12,4.12,0,0,1-3.14-1.81.94.94,0,1,0-1.58,1A6.05,6.05,0,0,0,12,18.05a6,6,0,0,0,4.73-2.68,1,1,0,0,0-.3-1.3ZM7.88,7.73A1.18,1.18,0,1,1,6.7,8.91,1.18,1.18,0,0,1,7.88,7.73Zm7,1.18a1.17,1.17,0,1,0,1.17-1.18A1.17,1.17,0,0,0,14.91,8.91Z"/></svg>