<svg xmlns="http://www.w3.org/2000/svg" viewBox="0 0 24 24"><defs><style>.a{fill:#ffffff;}</style></defs><path class="a" d="M12,24A12,12,0,0,1,0,12,12,12,0,0,1,12,0,12,12,0,0,1,24,12,12,12,0,0,1,12,24ZM12,1.9A10.1,10.1,0,1,0,22.1,12,10.07,10.07,0,0,0,12,1.9Zm4.3,15a.9.9,0,0,0-.9-.9H8.6a.9.9,0,0,0,0,1.8h6.8C15.9,17.9,16.3,17.4,16.3,16.9Zm-.7-3.6H14.2a.9.9,0,0,1,0-1.8h1.2a4.39,4.39,0,0,0,1.8-.3.93.93,0,0,1,1.1,1.5,5.31,5.31,0,0,1-2.7.6Zm-7.1,0a4.45,4.45,0,0,1-2.8-.8.92.92,0,0,1,1.2-1.4,2.41,2.41,0,0,0,1.6.3H9.8a.9.9,0,1,1,0,1.8,5.7,5.7,0,0,1-1.3.1Z"/></svg>