<svg id="Layer_1" data-name="Layer 1" xmlns="http://www.w3.org/2000/svg" viewBox="0 0 40 40"><defs><style>.cls-1,.cls-10,.cls-11,.cls-12,.cls-2,.cls-3,.cls-4,.cls-5,.cls-6,.cls-7,.cls-8,.cls-9{fill:#304050;}.cls-2{opacity:0.05;}.cls-3{opacity:0.1;}.cls-4{opacity:0.2;}.cls-5{opacity:0.3;}.cls-6{opacity:0.4;}.cls-7{opacity:0.5;}.cls-8{opacity:0.58;}.cls-9{opacity:0.66;}.cls-10{opacity:0.74;}.cls-11{opacity:0.82;}.cls-12{opacity:0.9;}</style></defs><path class="cls-1" d="M22,9.09a1.75,1.75,0,0,1-1.76,1.75h0a1.75,1.75,0,0,1-1.75-1.75V1.75A1.75,1.75,0,0,1,20.19,0h0A1.75,1.75,0,0,1,22,1.75Z"/><path class="cls-2" d="M27.14,11.52a1.74,1.74,0,0,1-2.39.64h0a1.74,1.74,0,0,1-.64-2.39l3.67-6.35a1.74,1.74,0,0,1,2.39-.64h0a1.75,1.75,0,0,1,.64,2.39Z"/><path class="cls-3" d="M30.42,16.23A1.75,1.75,0,0,1,28,15.59h0a1.76,1.76,0,0,1,.64-2.4L35,9.53a1.75,1.75,0,0,1,2.4.64h0a1.76,1.76,0,0,1-.64,2.39Z"/><path class="cls-4" d="M30.91,22a1.75,1.75,0,0,1-1.75-1.76h0a1.76,1.76,0,0,1,1.75-1.75h7.34A1.75,1.75,0,0,1,40,20.19h0A1.75,1.75,0,0,1,38.25,22Z"/><path class="cls-5" d="M28.48,27.14a1.74,1.74,0,0,1-.64-2.39h0a1.74,1.74,0,0,1,2.39-.64l6.35,3.66a1.75,1.75,0,0,1,.64,2.4h0a1.75,1.75,0,0,1-2.39.64Z"/><path class="cls-6" d="M23.77,30.42A1.75,1.75,0,0,1,24.41,28h0a1.76,1.76,0,0,1,2.4.64L30.47,35a1.75,1.75,0,0,1-.64,2.4h0a1.76,1.76,0,0,1-2.39-.64Z"/><path class="cls-7" d="M18.05,30.91a1.75,1.75,0,0,1,1.76-1.75h0a1.76,1.76,0,0,1,1.75,1.75v7.34A1.75,1.75,0,0,1,19.81,40h0a1.76,1.76,0,0,1-1.76-1.75Z"/><path class="cls-8" d="M12.86,28.48a1.74,1.74,0,0,1,2.39-.64h0a1.74,1.74,0,0,1,.64,2.39l-3.67,6.35a1.74,1.74,0,0,1-2.39.64h0a1.75,1.75,0,0,1-.64-2.39Z"/><path class="cls-9" d="M9.58,23.77a1.75,1.75,0,0,1,2.39.64h0a1.76,1.76,0,0,1-.64,2.4L5,30.47a1.75,1.75,0,0,1-2.4-.64h0a1.76,1.76,0,0,1,.64-2.39Z"/><path class="cls-10" d="M9.09,18.05a1.76,1.76,0,0,1,1.75,1.76h0a1.76,1.76,0,0,1-1.75,1.75H1.75A1.75,1.75,0,0,1,0,19.81H0a1.75,1.75,0,0,1,1.75-1.76Z"/><path class="cls-11" d="M11.52,12.86a1.74,1.74,0,0,1,.64,2.39h0a1.74,1.74,0,0,1-2.39.64L3.42,12.23a1.75,1.75,0,0,1-.64-2.4h0a1.75,1.75,0,0,1,2.39-.64Z"/><path class="cls-12" d="M16.23,9.58A1.75,1.75,0,0,1,15.59,12h0a1.76,1.76,0,0,1-2.4-.64L9.53,5a1.75,1.75,0,0,1,.64-2.4h0a1.76,1.76,0,0,1,2.39.64Z"/></svg>