<?xml version="1.0" encoding="UTF-8"?><svg id="Layer_1" xmlns="http://www.w3.org/2000/svg" viewBox="0 0 24 24"><defs><style>.cls-1{fill:none;fill-rule:evenodd;stroke:#304050;stroke-linecap:round;stroke-linejoin:round;stroke-width:1.5px;}</style></defs><path class="cls-1" d="M12,13.71c-.95,0-1.71-.77-1.71-1.71s.77-1.71,1.71-1.71,1.71,.77,1.71,1.71-.77,1.71-1.71,1.71Z"/><path class="cls-1" d="M19.95,12.93c-.06,.49-.47,.87-.97,.87-.02,0-.04,0-.06,0h-.07c-.43,0-.83,.27-.99,.66-.18,.42-.07,.91,.27,1.21,.38,.35,.43,.94,.11,1.34-.38,.47-.82,.9-1.29,1.28-.18,.13-.39,.21-.61,.21-.27,0-.54-.12-.72-.32-.2-.21-.52-.35-.84-.35-.13,0-.26,.02-.37,.07-.41,.17-.68,.59-.67,1.04,.02,.51-.37,.95-.87,1.01-.29,.03-.59,.05-.88,.05-.31,0-.62-.02-.92-.05-.51-.06-.89-.51-.86-1.03,.03-.46-.24-.88-.66-1.06-.11-.05-.24-.07-.38-.07-.32,0-.64,.13-.83,.35-.19,.21-.45,.32-.73,.32-.22,0-.44-.08-.61-.22-.47-.38-.9-.81-1.27-1.28-.31-.4-.27-.98,.11-1.33,.33-.31,.44-.79,.27-1.21-.16-.4-.55-.67-.97-.67h-.04c-.46,0-.99-.33-1.05-.87-.07-.61-.07-1.22,0-1.82,.06-.51,.48-.88,1-.87,.49,0,.92-.26,1.09-.66,.18-.42,.07-.91-.27-1.22-.38-.35-.43-.94-.11-1.34,.38-.47,.81-.9,1.29-1.28,.17-.13,.39-.21,.61-.21,.28,0,.54,.12,.72,.32,.19,.21,.51,.35,.83,.35,.13,0,.26-.02,.37-.07,.41-.17,.68-.59,.67-1.04-.02-.51,.37-.95,.87-1.01,.59-.07,1.2-.06,1.8,0,.52,.06,.9,.51,.87,1.03-.03,.46,.24,.88,.66,1.06,.11,.05,.24,.07,.38,.07,.32,0,.64-.13,.83-.35,.19-.21,.45-.32,.73-.32,.22,0,.44,.08,.61,.22,.47,.37,.89,.8,1.27,1.28,.32,.4,.27,.98-.11,1.33-.33,.31-.44,.79-.27,1.21,.17,.4,.56,.67,1.01,.67s.98,.33,1.04,.87c.07,.61,.07,1.22,0,1.82Z"/></svg>