<?xml version="1.0" encoding="UTF-8"?>
<svg id="Layer_4" xmlns="http://www.w3.org/2000/svg" viewBox="0 0 26 26"><defs><style>.cls-1{fill:none;stroke:#ffffff;stroke-linecap:round;stroke-linejoin:round;stroke-width:1.5px;}</style></defs><g><g><path class="cls-1" d="M11.12,19.04c-.12,.26-.18,.54-.18,.84,0,1.14,.92,2.06,2.06,2.06s2.06-.92,2.06-2.06c0-.3-.07-.58-.18-.84"/><path class="cls-1" d="M17.64,14.49v-3.76c0-2.56-2.08-4.64-4.64-4.64s-4.64,2.08-4.64,4.64v3.76c0,2.84-2.77,4.55-2.77,4.55h14.83s-2.77-1.71-2.77-4.55Z"/></g><path class="cls-1" d="M20.36,9.99c-.2-2-1.2-3.77-2.69-4.98,1.48,1.21,2.48,2.97,2.69,4.98"/><path class="cls-1" d="M5.67,9.99c.2-2,1.2-3.77,2.69-4.98-1.48,1.21-2.48,2.97-2.69,4.98"/></g><line class="cls-1" x1="13" y1="6.08" x2="13" y2="4.06"/></svg>