<?xml version="1.0" encoding="utf-8"?>
<!-- Generator: Adobe Illustrator 25.0.1, SVG Export Plug-In . SVG Version: 6.00 Build 0)  -->
<svg version="1.1" id="Layer_1" xmlns="http://www.w3.org/2000/svg" xmlns:xlink="http://www.w3.org/1999/xlink" x="0px" y="0px"
	 viewBox="0 0 150 40" style="enable-background:new 0 0 150 40;" xml:space="preserve">
<style type="text/css">
	.st0{fill:#7d818e;opacity:.7;}
	.st1{fill:none;stroke:#FFFFFF;stroke-linecap:round;stroke-linejoin:round;}
	.st2{fill:#FFFFFF;}
</style>
<path class="st0" d="M2.5,0.5h145c1.1,0,2,0.9,2,2v35c0,1.1-0.9,2-2,2H2.5c-1.1,0-2-0.9-2-2v-35C0.5,1.4,1.4,0.5,2.5,0.5z"/>
<g>
	<line class="st1" x1="140.5" y1="16.5" x2="132.5" y2="16.5"/>
	<line class="st1" x1="140.5" y1="13.5" x2="132.5" y2="13.5"/>
	<line class="st1" x1="140.5" y1="10.5" x2="132.5" y2="10.5"/>
</g>
<g>
	<path class="st2" d="M61.9,15.5h2.5v1.4H60V9.1h1.9L61.9,15.5z"/>
	<path class="st2" d="M71,9.5c0.6,0.3,1.1,0.8,1.4,1.4c0.4,0.6,0.6,1.3,0.5,2.1c0,0.7-0.2,1.4-0.5,2.1c-0.3,0.6-0.8,1.1-1.4,1.4
		c-0.6,0.3-1.3,0.5-2,0.5c-0.7,0-1.4-0.2-2-0.5c-0.6-0.3-1.1-0.8-1.4-1.4C65.2,14.4,65,13.7,65,13c0-0.7,0.2-1.4,0.5-2.1
		c0.3-0.6,0.8-1.1,1.4-1.4C68.2,8.8,69.7,8.8,71,9.5z M67.5,11.4c-0.4,0.5-0.6,1-0.5,1.6c0,0.6,0.2,1.2,0.5,1.6
		c0.4,0.4,0.9,0.6,1.5,0.6c0.6,0,1.1-0.2,1.5-0.6c0.4-0.4,0.6-1,0.6-1.6c0-0.6-0.2-1.2-0.5-1.6c-0.4-0.4-0.9-0.6-1.5-0.6
		C68.4,10.7,67.9,10.9,67.5,11.4z"/>
	<path class="st2" d="M80,9.8c0.6,0.5,1,1.2,1.1,1.9h-2c-0.1-0.3-0.3-0.5-0.6-0.7c-0.3-0.2-0.6-0.3-1-0.3c-0.5,0-1.1,0.2-1.4,0.6
		c-0.4,0.5-0.6,1-0.5,1.6c0,0.6,0.2,1.2,0.6,1.7c0.4,0.4,1,0.6,1.6,0.6c0.4,0,0.8-0.1,1.1-0.4c0.3-0.3,0.6-0.6,0.7-1h-2.3v-1.4h4
		v1.8c-0.2,0.5-0.4,0.9-0.8,1.3c-0.4,0.4-0.8,0.7-1.3,0.9c-0.5,0.3-1.1,0.4-1.7,0.4c-0.7,0-1.4-0.2-2.1-0.5
		c-0.6-0.3-1.1-0.8-1.4-1.4c-0.6-1.3-0.6-2.8,0-4.1c0.3-0.6,0.8-1.1,1.3-1.4C76.1,9.2,76.9,9,77.6,9C78.5,9,79.3,9.2,80,9.8z"/>
	<path class="st2" d="M88.1,9.5c0.6,0.3,1.1,0.8,1.4,1.4c0.4,0.6,0.5,1.3,0.5,2.1c0,0.7-0.2,1.4-0.5,2.1c-0.3,0.6-0.8,1.1-1.4,1.4
		c-1.2,0.7-2.7,0.7-4,0c-0.6-0.3-1.1-0.8-1.4-1.4c-0.7-1.3-0.7-2.8,0-4.1c0.3-0.6,0.8-1.1,1.4-1.4C85.3,8.8,86.8,8.8,88.1,9.5z
		 M84.7,11.4c-0.4,0.5-0.6,1-0.5,1.6c0,0.6,0.2,1.2,0.5,1.6c0.4,0.4,0.9,0.6,1.5,0.6c0.6,0,1.1-0.2,1.5-0.6c0.4-0.4,0.6-1,0.5-1.6
		c0-0.6-0.2-1.2-0.5-1.6C86.8,10.6,85.5,10.6,84.7,11.4L84.7,11.4z"/>
</g>
<path class="st1" d="M53.2,25.9h4c0.6,0,1,0.4,1,1v4c0,0.6-0.4,1-1,1h-4c-0.6,0-1-0.4-1-1v-4C52.2,26.3,52.6,25.9,53.2,25.9z"/>
<path class="st1" d="M63.2,25.9h4c0.6,0,1,0.4,1,1v4c0,0.6-0.4,1-1,1h-4c-0.6,0-1-0.4-1-1v-4C62.2,26.3,62.6,25.9,63.2,25.9z"/>
<path class="st2" d="M97.3,32.4H74.1c-1.1,0-2-0.9-2-2v-3c0-1.1,0.9-2,2-2h23.2c1.1,0,2,0.9,2,2v3C99.3,31.5,98.4,32.4,97.3,32.4z"
	/>
</svg>
