<svg id="Layer_1" data-name="Layer 1" xmlns="http://www.w3.org/2000/svg" viewBox="0 0 150 120"><defs><style>.cls-1{fill:#7d818e;opacity:.7;}</style></defs><path class="cls-1" d="M137,64H13a3,3,0,0,0-3,3v40a3,3,0,0,0,3,3H137a3,3,0,0,0,3-3V67A3,3,0,0,0,137,64ZM60.5,71h-45a1.5,1.5,0,0,1,0-3h45a1.5,1.5,0,0,1,0,3Zm46,35h-7a1.5,1.5,0,0,1,0-3h7a1.5,1.5,0,0,1,0,3Zm14,0h-7a1.5,1.5,0,0,1,0-3h7a1.5,1.5,0,0,1,0,3Zm14,0h-7a1.5,1.5,0,0,1,0-3h7a1.5,1.5,0,0,1,0,3Z"/><path class="cls-1" d="M137,10H13a3,3,0,0,0-3,3V53a3,3,0,0,0,3,3H137a3,3,0,0,0,3-3V13A3,3,0,0,0,137,10ZM60.5,17h-45a1.5,1.5,0,0,1,0-3h45a1.5,1.5,0,0,1,0,3Zm46,35h-7a1.5,1.5,0,0,1,0-3h7a1.5,1.5,0,0,1,0,3Zm14,0h-7a1.5,1.5,0,0,1,0-3h7a1.5,1.5,0,0,1,0,3Zm14,0h-7a1.5,1.5,0,0,1,0-3h7a1.5,1.5,0,0,1,0,3Z"/></svg>