<svg id="Layer_1" data-name="Layer 1" xmlns="http://www.w3.org/2000/svg" viewBox="0 0 150 120"><defs><style>.cls-1{fill:#7d818e;opacity:.7;}</style></defs><rect class="cls-1" x="10" y="10" width="130" height="31" rx="3"/><rect class="cls-1" x="10" y="64" width="130" height="31" rx="3"/><path class="cls-1" d="M138.5,49H11.5a1.5,1.5,0,0,1,0-3h127a1.5,1.5,0,0,1,0,3Z"/><path class="cls-1" d="M94,56H11.5a1.5,1.5,0,0,1,0-3H94a1.5,1.5,0,0,1,0,3Z"/><path class="cls-1" d="M138.5,103H11.5a1.5,1.5,0,0,1,0-3h127a1.5,1.5,0,0,1,0,3Z"/><path class="cls-1" d="M94,110H11.5a1.5,1.5,0,0,1,0-3H94a1.5,1.5,0,0,1,0,3Z"/></svg>