<svg id="Layer_1" data-name="Layer 1" xmlns="http://www.w3.org/2000/svg" viewBox="0 0 150 120"><defs><style>.cls-1{fill:#7d818e;opacity:.7;}.cls-2{fill:none;}</style></defs><rect class="cls-1" x="10" y="10" width="38" height="53" rx="3"/><rect class="cls-1" x="102" y="10" width="38" height="24" rx="3"/><rect class="cls-1" x="10" y="70" width="38" height="30" rx="3"/><rect class="cls-1" x="102" y="41" width="38" height="49" rx="3"/><rect class="cls-1" x="56" y="80" width="38" height="30" rx="3"/><circle class="cls-2" cx="60.5" cy="67.5" r="1.5"/><circle class="cls-2" cx="88.5" cy="67.5" r="1.5"/><path class="cls-1" d="M91,10H59a3,3,0,0,0-3,3V70a3,3,0,0,0,3,3H91a3,3,0,0,0,3-3V13A3,3,0,0,0,91,10ZM60.5,69A1.5,1.5,0,1,1,62,67.5,1.5,1.5,0,0,1,60.5,69Zm23-52h-22a1.5,1.5,0,0,1,0-3h22a1.5,1.5,0,0,1,0,3Zm5,52A1.5,1.5,0,1,1,90,67.5,1.5,1.5,0,0,1,88.5,69Z"/></svg>