<svg id="Layer_1" data-name="Layer 1" xmlns="http://www.w3.org/2000/svg" viewBox="0 0 40 9.33"><defs><style>.cls-1{fill:#fff;fill-rule:evenodd;}</style></defs><path class="cls-1" d="M4.67.33A4.56,4.56,0,0,0,0,5,4.56,4.56,0,0,0,4.67,9.67,4.56,4.56,0,0,0,9.33,5,4.76,4.76,0,0,0,4.67.33Z" transform="translate(0 -0.33)"/><path class="cls-1" d="M20,.33A4.56,4.56,0,0,0,15.33,5,4.56,4.56,0,0,0,20,9.67,4.56,4.56,0,0,0,24.67,5,4.56,4.56,0,0,0,20,.33Z" transform="translate(0 -0.33)"/><path class="cls-1" d="M35.33.33A4.56,4.56,0,0,0,30.67,5,4.67,4.67,0,1,0,40,5,4.56,4.56,0,0,0,35.33.33Z" transform="translate(0 -0.33)"/></svg>