<svg id="Layer_1" data-name="Layer 1" xmlns="http://www.w3.org/2000/svg" viewBox="0 0 26 26"><defs><style>.cls-1{fill:none;stroke:#ffffff;stroke-linecap:round;stroke-linejoin:round;stroke-width:1.5px;}.cls-2{fill:#ffffff;fill-rule:evenodd;}.cls-3{opacity:0.2;}</style></defs><rect class="cls-1" x="4.5" y="7" width="17" height="12"/><path class="cls-2" d="M9.5,11a1,1,0,1,0-1,1A1,1,0,0,0,9.5,11Z"/><path class="cls-2" d="M14.5,11a1,1,0,1,0-1,1A1,1,0,0,0,14.5,11Z"/><path class="cls-2" d="M18.5,11a1,1,0,1,0-1,1A1,1,0,0,0,18.5,11Z"/><path class="cls-2" d="M18.5,15a1,1,0,1,0-1,1A1,1,0,0,0,18.5,15Z"/><line class="cls-1" x1="13.75" y1="15" x2="8.25" y2="15"/></svg>