<?xml version="1.0" encoding="utf-8"?>
<!-- Generator: Adobe Illustrator 25.0.1, SVG Export Plug-In . SVG Version: 6.00 Build 0)  -->
<svg version="1.1" id="Layer_4" xmlns="http://www.w3.org/2000/svg" xmlns:xlink="http://www.w3.org/1999/xlink" x="0px" y="0px"
	 viewBox="0 0 60 60" style="enable-background:new 0 0 60 60;" xml:space="preserve">
<style type="text/css">
	.st0{fill:#00C8F9;}
	.st1{fill:#134482;}
	.st2{fill:#FAFAFB;}
</style>
<g>
	<circle cx="30" cy="30" r="30"/>
	<path class="st0" d="M30.1,1.6C14.4,1.6,1.7,14.2,1.7,29.9s12.7,28.3,28.3,28.3s28.3-12.7,28.3-28.3S45.8,1.6,30.1,1.6"/>
	<path class="st1" d="M32.9,18.6c-1.4-1.3-3.1-1.4-4.5-0.5c-1-0.9-2.3-0.2-3.6,1.5c0,0-7.4,8.3-8.6,9.6c-1.6,1.4-3,2.8-4.6,4.1
		c-1.1,0.9-2.3,1.8-3.4,2.7c-1.2,0.9-3.5,2.5-4.8,3.4c3.9,11,14.4,18.9,26.7,18.9s22.6-7.7,26.6-18.5c-1.7-1.2-6.5-4.9-12.2-10
		C43.3,28.6,34.5,20.1,32.9,18.6L32.9,18.6z"/>
	<path class="st2" d="M35.1,28.5c-0.9-0.7-1.5-0.5-1.6,0.6c-0.2,1.9,0,3.5-0.2,5.4c-0.2,1.9-1,3.9-1.6,4.6c0,0-0.3,0.3-0.8,0.1
		c-0.4-0.3-2.7-2.9-3.7-3.7c-0.8-0.6-1.6-0.5-2.1,0.3c-0.5,0.8-1.1,1.7-1.7,2.4c0,0-0.7,1-1.2,1c-0.4,0-0.2-1.4-0.2-1.9
		c0.1-0.5,0.3-1.1-0.3-1.5c-0.5-0.3-1,0-1.6,0.3c-0.7,0.3-1.4,0.8-2.2,1.1c-0.3,0.2-0.8,0.4-1,0.3c-0.4-0.3,0.6-3,1-3.8
		c0.6-1.1,2.6-5.5,0.3-4.2c-2.9,1.6,5.6-7,7.8-9.5c1.4-1.3,2.9-1.4,5-0.3c2.6,2,12.7,11.5,13.7,12.6c0.6,0.7-3.7-1.4-3.3,0
		c0.4,1.4,3.2,4.2,1.6,4.3C42.3,36.7,37.1,29.3,35.1,28.5z"/>
	<path d="M56.7,39.8c-1.7-1.2-6.5-4.9-12.3-10c-1.1-1.2-9.9-9.7-11.6-11.2c-1.5-1.3-3.3-1.4-4.5-0.5c-0.8-0.8-2.2-0.5-3.6,1.5
		c0,0-7.4,8.3-8.6,9.6c-1.6,1.4-3,2.8-4.6,4.1c-1.1,0.9-2.3,1.8-3.4,2.7c-1.2,0.9-3.6,2.5-4.9,3.5c0,0-0.4,1,0.6,1.7
		c5.4-3.1,13.2-9.9,15.7-13s4.4-5.5,6.7-8.1c0.8-0.7,1.4-0.8,2.1,0.2c0.7-1,2-1,2.9-0.6c2.6,2,9.6,9,10.6,10.1c0,0,8.9,8.8,14.5,12
		C56.4,41.7,56.7,39.8,56.7,39.8z"/>
</g>
</svg>
