<svg xmlns="http://www.w3.org/2000/svg" xmlns:xlink="http://www.w3.org/1999/xlink" viewBox="0 0 135.38 60"><defs><style>.a{fill:url(#a);}.b{fill:url(#b);}.c{fill:url(#c);}.d{fill:url(#d);}.e{fill:url(#e);}</style><linearGradient id="a" x1="126.5" y1="-148.13" x2="126.5" y2="-190.88" gradientTransform="translate(0 198.3)" gradientUnits="userSpaceOnUse"><stop offset="0" stop-color="#570732"/><stop offset="0.04" stop-color="#610b39"/><stop offset="0.15" stop-color="#79164b"/><stop offset="0.29" stop-color="#8c1e59"/><stop offset="0.44" stop-color="#9a2463"/><stop offset="0.63" stop-color="#a22768"/><stop offset="1" stop-color="#a4286a"/></linearGradient><linearGradient id="b" x1="75.36" y1="-154.09" x2="75.36" y2="-184.05" xlink:href="#a"/><linearGradient id="c" x1="103.39" y1="-153.98" x2="103.39" y2="-184.23" xlink:href="#a"/><linearGradient id="d" x1="18.22" y1="-199.93" x2="18.22" y2="-152.49" gradientTransform="translate(0 198.3)" gradientUnits="userSpaceOnUse"><stop offset="0" stop-color="#77b227"/><stop offset="0.47" stop-color="#75b027"/><stop offset="0.64" stop-color="#6eab27"/><stop offset="0.75" stop-color="#63a027"/><stop offset="0.85" stop-color="#529228"/><stop offset="0.93" stop-color="#3c7f28"/><stop offset="1" stop-color="#246b29"/></linearGradient><linearGradient id="e" x1="45.04" y1="-153.95" x2="45.04" y2="-183.95" xlink:href="#a"/></defs><path class="a" d="M129.92,37.07V21.9h5.42V15.32h-5.42V7.42h-8.36v7.93h-4.25v6.58h4.25v14.3A13.68,13.68,0,0,0,133.2,50.17l2.49-6.71A6.34,6.34,0,0,1,129.92,37.07Z" transform="translate(-0.31)"/><path class="b" d="M87.71,34.66V23.29c0-.41,0-.82,0-1.2-.73-9.2-13.81-9.17-23.91-5.65l2.9,5.9c6.58-3.14,10.53-2.33,11.91-.79l.11.11v0c.7.95.54,2.43.54,3.63-8.61,0-17.79,1.13-17.79,10.58,0,7.18,9,11.81,18.41,5l1.41,3.35h8.07C88.55,40.29,87.71,36.9,87.71,34.66Zm-8.45-.06C72.63,42,66.56,35,72.79,32a21.82,21.82,0,0,1,6.47-.65Z" transform="translate(-0.31)"/><path class="c" d="M100.57,22.69c0-2.82,4.5-4.12,11.59-.89l2.46-6C105.09,13,92.07,12.7,92,22.66c0,4.79,3,7.37,7.45,9,3,1.14,7.47,1.73,7.47,4.17,0,3.2-6.85,3.68-13.11-.62l-2.51,6.44c8.5,4.23,24.28,4.36,24.2-6.25S100.57,26.75,100.57,22.69Z" transform="translate(-0.31)"/><path class="d" d="M26.9,0,14.77,33.66,9,15.46H.31L10,40.32a9.21,9.21,0,0,1,0,6.58,8.27,8.27,0,0,1-7.26,5.74V60C11.25,60,15.88,54.75,20,43.24L36.13,0Z" transform="translate(-0.31)"/><path class="e" d="M45,14.35c-10.45,0-14.62,7.39-14.62,15.22,0,8.12,4.09,14.78,14.62,14.78s14.65-7.47,14.62-14.78C59.63,20.66,55.11,14.35,45,14.35Zm0,23.56c-4.25,0-6.34-3.17-6.34-8.37S41,20.63,45,20.63s6.28,3.71,6.28,8.91S49.29,37.91,45,37.91Z" transform="translate(-0.31)"/></svg>