<?xml version="1.0" encoding="UTF-8"?><svg id="Layer_4" xmlns="http://www.w3.org/2000/svg" xmlns:xlink="http://www.w3.org/1999/xlink" viewBox="0 0 180 60"><defs><style>.cls-1{fill:none;}.cls-2{clip-path:url(#clippath);}.cls-3{fill:#92003b;}</style><clipPath id="clippath"><rect class="cls-1" x="1.97" y="16.85" width="176.07" height="28.3"/></clipPath></defs><g class="cls-2"><g><path class="cls-3" d="M113.4,29.67l-2.83,.67-1.96,.44h0c0-.54,.05-1.07,.16-1.6,.13-.71,.54-1.35,1.14-1.76,.68-.36,1.49-.41,2.2-.12,.68,.33,1.14,.99,1.22,1.74,.04,.2,.07,.41,.08,.62h-.01Zm5.1,1.13c0-5.11-3.22-7.31-7.32-7.31-4.64,0-7.55,3.22-7.55,7.33,0,4.47,2.47,7.39,7.8,7.39,2.25,.08,4.47-.43,6.46-1.49l-.74-3.35c-1.46,.71-3.07,1.08-4.69,1.08-2.01,0-3.16-.77-3.6-2.2h9.51c.1-.48,.14-.97,.13-1.45Z"/><path class="cls-3" d="M70.72,29.67l-2.83,.67-1.95,.44h0c0-.54,.05-1.07,.17-1.6,.13-.71,.54-1.35,1.13-1.76,.68-.36,1.49-.41,2.2-.12,.69,.32,1.15,.98,1.23,1.74,.04,.2,.07,.41,.08,.62h-.03Zm5.1,1.13c0-5.11-3.22-7.31-7.32-7.31-4.64,0-7.55,3.22-7.55,7.33,0,4.47,2.48,7.39,7.81,7.39,2.24,.08,4.47-.43,6.45-1.49l-.75-3.35c-1.47,.71-3.08,1.08-4.72,1.08-2.01,0-3.16-.77-3.59-2.2h9.51c.1-.48,.15-.96,.15-1.45Z"/><path class="cls-3" d="M58.95,19.72h-4.72v17.96h4.72V19.72Z"/><path class="cls-3" d="M119.5,23.93h4.93l1.04,3.17c.65-1.57,2.12-3.58,4.72-3.58,3.57,0,5.51,1.81,5.51,6.49v7.67h-4.93v-6.98c.09-.68-.02-1.36-.3-1.98-.26-.41-.63-.72-1.08-.92-.85-.42-1.84-.4-2.67,.04-.21,.11-1.23,.66-1.23,.92v8.92h-4.95v-10.04l-1.04-3.72Z"/><path class="cls-3" d="M139.46,27.54h-2.27v-3.61h2.27v-2.24l4.95-1.16v3.41h4.98v3.6h-4.98v4.04c0,1.58,.76,2.33,1.91,2.33,.96,.02,1.92-.14,2.83-.47l.58,3.71c-1.51,.6-3.12,.9-4.74,.87-3.6,0-5.53-1.71-5.53-5.03v-5.43Z"/><path class="cls-3" d="M158.64,34.1c1.81,0,2.88-1.3,2.88-3.4s-1.02-3.3-2.81-3.3-2.85,1.2-2.85,3.37c0,2.05,1.02,3.32,2.78,3.32Zm.05-10.71c4.64,0,8.02,2.91,8.02,7.44s-3.39,7.28-8.08,7.28-7.98-2.83-7.98-7.28,3.31-7.44,8.05-7.44h0Z"/><path class="cls-3" d="M99.2,23.89c-.89-.37-1.87-.49-2.83-.36-.48,.07-.95,.21-1.39,.42-1.2,.59-2.14,1.95-2.64,3.16-.33-1.44-1.33-2.64-2.69-3.22-.89-.37-1.87-.5-2.83-.36-.49,.07-.97,.21-1.41,.42-1.19,.59-2.13,1.94-2.63,3.14v-.08l-.95-3.09h-4.95l1.04,3.71v10.05h4.91v-8.96c0-.07,.24-.19,.28-.22,.57-.47,1.25-.77,1.97-.89,.74-.03,1.45,.31,1.89,.91,.05,.07,.09,.13,.13,.2,.28,.62,.39,1.31,.3,1.98v6.98h4.95v-8.96c0-.06,.24-.19,.28-.22,.57-.46,1.25-.77,1.97-.88,.74-.03,1.45,.31,1.89,.91,.04,.06,.09,.13,.13,.19,.28,.62,.39,1.3,.31,1.98v6.99h4.95v-7.68c.02-2.24-.3-5.15-2.67-6.12Z"/><path class="cls-3" d="M178.42,23.53c-2.6,0-4.07,2.02-4.72,3.58l-1.04-3.18h-4.95l1.05,3.72v10.04h4.95v-9.28c.7-.12,4.53,.58,5.25,.85v-5.71c-.18,0-.35-.01-.54-.01Z"/><path class="cls-3" d="M47.14,29.67l-2.83,.67-1.94,.44h0c0-.54,.05-1.07,.17-1.6,.13-.71,.54-1.35,1.14-1.76,.68-.36,1.48-.41,2.2-.12,.68,.33,1.14,.99,1.22,1.74,.04,.2,.07,.41,.09,.62h-.03Zm5.1,1.13c0-5.11-3.21-7.31-7.32-7.31-4.64,0-7.55,3.22-7.55,7.33,0,4.47,2.48,7.39,7.81,7.39,2.24,.08,4.47-.43,6.45-1.49l-.74-3.35c-1.46,.71-3.07,1.08-4.69,1.08-2.01,0-3.16-.77-3.6-2.2h9.51c.09-.48,.13-.97,.13-1.45Z"/><path class="cls-3" d="M16.1,16.85c-7.81,0-14.15,6.33-14.15,14.15s6.33,14.15,14.15,14.15,14.15-6.33,14.15-14.15-6.33-14.15-14.15-14.15Zm-3.53,20.06h-2.36v-11.79h2.36v11.79Zm9.43,0h-7.07v-2.36h7.07v2.36Zm0-4.72h-7.07v-2.36h7.07v2.36Zm0-4.72h-7.07v-2.36h7.07v2.36Z"/></g></g></svg>