<svg xmlns="http://www.w3.org/2000/svg" viewBox="0 0 84.4 60"><defs><style>.a{fill:#0987b6;}</style></defs><path class="a" d="M65.11,14.41,57,12.57V11.7a65.11,65.11,0,0,1,8-.89c5.29,0,10.21,1.46,14.19,5.17,9.21,8.59,6.75,22.81-5,28.19a27.34,27.34,0,0,1-7.61,2,2.88,2.88,0,0,0-2.83,2.42c-.85,3.12-1.83,6.21-2.77,9.3-.22.74-.51,1.46-.78,2.21-2.54-.8-4.89-1.66-7.3-2.27-5.11-1.28-10.21-.87-15.33.13a18.86,18.86,0,0,1-5.25.23c-2-.19-3.29-1.59-4.17-3.32s-.74-2.07,1.19-2.81c3-1.15,6-2.46,8.93-3.75a11.09,11.09,0,0,0,1.73-1.19l-.2-.51c-.79.24-1.61.42-2.38.74-10.53,4.34-20.1,2.13-28.48-4.93-7-5.93-10.09-13.92-7.86-23C3.34,10,9.39,3.3,19.06,1A42.61,42.61,0,0,1,32,.24c5.3.4,9.53,3.4,12.95,7.39,3.94,4.6,8.79,7.36,14.89,7.64A49.54,49.54,0,0,0,65.15,15Z" transform="translate(-0.3 -0.07)"/></svg>