<?xml version="1.0" encoding="UTF-8"?><svg id="Layer_4" xmlns="http://www.w3.org/2000/svg" viewBox="0 0 180 60"><defs><style>.cls-1{fill:#8c9499;}.cls-2{opacity:.4;}</style></defs><g class="cls-2"><path class="cls-1" d="M72.03,19.42c1.65,0,3-1.35,3-2.99s-1.35-3-3-3-3,1.35-3,3,1.35,2.99,3,2.99Z"/><path class="cls-1" d="M116.96,5.53H63.04c-1.05,0-1.91,.85-1.91,1.91V28.41c0,1.05,.85,1.91,1.91,1.91h16.37v10.08c0,1.05,.85,1.91,1.91,1.91h4.49c1.05,0,1.91-.85,1.91-1.91s-.85-1.91-1.91-1.91h-2.59v-11.17h18.05v10.38c0,1.05,.85,1.91,1.91,1.91s1.91-.85,1.91-1.91v-7.38h11.87c1.05,0,1.91-.85,1.91-1.91V7.44c0-1.05-.85-1.91-1.91-1.91Zm-1.91,20.97h-9.97v-1.09c0-1.05-.85-1.91-1.91-1.91h-21.87c-1.05,0-1.91,.85-1.91,1.91v1.09h-14.46V9.35h50.1V26.5Z"/><path class="cls-1" d="M90,18.33h5.99c1.05,0,1.91-.85,1.91-1.91s-.85-1.91-1.91-1.91h-5.99c-1.05,0-1.91,.85-1.91,1.91s.85,1.91,1.91,1.91Z"/><path class="cls-1" d="M101.98,18.33h5.99c1.05,0,1.91-.85,1.91-1.91s-.85-1.91-1.91-1.91h-5.99c-1.05,0-1.91,.85-1.91,1.91s.85,1.91,1.91,1.91Z"/><path class="cls-1" d="M104.38,45.78l-11.68-11.68c-.3-.3-1.2,0-1.2,.6v15.87c0,.3,.3,.6,.6,.6s.3,0,.3-.3l3.29-2.7,2.7,5.99s0,.3,.3,.3h.6l2.7-1.2c.3,0,.3-.3,.3-.6l-2.4-5.99h4.19c.3,0,.6-.3,.6-.6-.3,0-.3-.3-.3-.3Z"/></g></svg>