<svg width="180" height="60" xmlns="http://www.w3.org/2000/svg">
<path d="M172.988 25.1605L171.187 25.3569C171.136 25.175 171.047 25.004 170.92 24.844C170.796 24.6839 170.629 24.5548 170.418 24.4566C170.207 24.3583 169.948 24.3092 169.643 24.3092C169.232 24.3092 168.886 24.3984 168.606 24.5766C168.329 24.7549 168.193 24.9859 168.197 25.2696C168.193 25.5133 168.282 25.7116 168.464 25.8644C168.65 26.0172 168.955 26.1427 169.381 26.2409L170.81 26.5465C171.603 26.7174 172.193 26.9884 172.578 27.3595C172.968 27.7305 173.164 28.2162 173.168 28.8164C173.164 29.3439 173.009 29.8095 172.704 30.2133C172.402 30.6135 171.982 30.9263 171.443 31.1519C170.905 31.3774 170.287 31.4902 169.588 31.4902C168.562 31.4902 167.736 31.2755 167.111 30.8463C166.485 30.4134 166.112 29.8113 165.992 29.0401L167.918 28.8546C168.006 29.2329 168.191 29.5185 168.475 29.7113C168.759 29.9041 169.128 30.0005 169.583 30.0005C170.052 30.0005 170.428 29.9041 170.712 29.7113C171 29.5185 171.143 29.2802 171.143 28.9965C171.143 28.7564 171.05 28.5581 170.865 28.4017C170.683 28.2453 170.399 28.1252 170.014 28.0416L168.584 27.7415C167.78 27.5741 167.185 27.2922 166.8 26.8957C166.414 26.4955 166.223 25.9899 166.227 25.3787C166.223 24.8622 166.363 24.4147 166.647 24.0364C166.934 23.6544 167.333 23.3598 167.842 23.1524C168.355 22.9414 168.946 22.8359 169.615 22.8359C170.598 22.8359 171.371 23.0451 171.934 23.4635C172.502 23.8818 172.853 24.4475 172.988 25.1605Z" fill="#493737"/>
<path d="M155.233 31.3267L152.865 22.9453H154.878L156.352 28.8385H156.428L157.934 22.9453H159.926L161.432 28.8057H161.514L162.965 22.9453H164.984L162.61 31.3267H160.553L158.982 25.6627H158.867L157.296 31.3267H155.233Z" fill="#493737"/>
<path d="M148.15 31.4902C147.31 31.4902 146.584 31.3156 145.973 30.9663C145.366 30.6135 144.898 30.1151 144.571 29.4712C144.243 28.8237 144.08 28.0616 144.08 27.1849C144.08 26.3227 144.243 25.5661 144.571 24.9149C144.902 24.2601 145.364 23.7508 145.957 23.3871C146.55 23.0196 147.246 22.8359 148.047 22.8359C148.563 22.8359 149.051 22.9196 149.509 23.0869C149.971 23.2506 150.378 23.5053 150.731 23.8509C151.088 24.1965 151.368 24.6366 151.572 25.1714C151.775 25.7025 151.877 26.3355 151.877 27.0703V27.676H145.007V26.3446H149.984C149.98 25.9662 149.898 25.6297 149.738 25.3351C149.578 25.0368 149.354 24.8021 149.067 24.6312C148.783 24.4602 148.452 24.3747 148.074 24.3747C147.67 24.3747 147.315 24.4729 147.01 24.6694C146.704 24.8622 146.466 25.1168 146.295 25.4333C146.128 25.7461 146.042 26.0899 146.039 26.4646V27.6269C146.039 28.1143 146.128 28.5327 146.306 28.8819C146.484 29.2275 146.733 29.493 147.053 29.6786C147.374 29.8605 147.748 29.9514 148.178 29.9514C148.465 29.9514 148.725 29.9114 148.958 29.8314C149.191 29.7477 149.393 29.6258 149.564 29.4658C149.734 29.3057 149.864 29.1074 149.951 28.871L151.795 29.0783C151.679 29.5658 151.457 29.9914 151.13 30.3552C150.806 30.7153 150.391 30.9954 149.885 31.1955C149.38 31.3919 148.801 31.4902 148.15 31.4902Z" fill="#493737"/>
<path d="M140.433 31.3267V22.9453H142.408V31.3267H140.433ZM141.426 21.7558C141.113 21.7558 140.844 21.6521 140.619 21.4448C140.393 21.2338 140.28 20.9809 140.28 20.6863C140.28 20.388 140.393 20.1352 140.619 19.9278C140.844 19.7168 141.113 19.6113 141.426 19.6113C141.743 19.6113 142.012 19.7168 142.234 19.9278C142.459 20.1352 142.572 20.388 142.572 20.6863C142.572 20.9809 142.459 21.2338 142.234 21.4448C142.012 21.6521 141.743 21.7558 141.426 21.7558Z" fill="#493737"/>
<path d="M139.066 22.9453L136.081 31.3267H133.899L130.914 22.9453H133.02L134.947 29.1713H135.034L136.965 22.9453H139.066Z" fill="#493737"/>
<path d="M126.422 31.4902C125.581 31.4902 124.856 31.3156 124.245 30.9663C123.637 30.6135 123.17 30.1151 122.842 29.4712C122.515 28.8237 122.351 28.0616 122.351 27.1849C122.351 26.3227 122.515 25.5661 122.842 24.9149C123.173 24.2601 123.635 23.7508 124.228 23.3871C124.821 23.0196 125.518 22.8359 126.318 22.8359C126.835 22.8359 127.322 22.9196 127.78 23.0869C128.242 23.2506 128.65 23.5053 129.003 23.8509C129.359 24.1965 129.639 24.6366 129.843 25.1714C130.047 25.7025 130.149 26.3355 130.149 27.0703V27.676H123.279V26.3446H128.255C128.252 25.9662 128.17 25.6297 128.01 25.3351C127.85 25.0368 127.626 24.8021 127.338 24.6312C127.055 24.4602 126.724 24.3747 126.345 24.3747C125.942 24.3747 125.587 24.4729 125.281 24.6694C124.976 24.8622 124.737 25.1168 124.566 25.4333C124.399 25.7461 124.314 26.0899 124.31 26.4646V27.6269C124.31 28.1143 124.399 28.5327 124.577 28.8819C124.756 29.2275 125.005 29.493 125.325 29.6786C125.645 29.8605 126.02 29.9514 126.449 29.9514C126.736 29.9514 126.996 29.9114 127.229 29.8314C127.462 29.7477 127.664 29.6258 127.835 29.4658C128.006 29.3057 128.135 29.1074 128.222 28.871L130.067 29.0783C129.95 29.5658 129.728 29.9914 129.401 30.3552C129.077 30.7153 128.663 30.9954 128.157 31.1955C127.651 31.3919 127.073 31.4902 126.422 31.4902Z" fill="#493737"/>
<path d="M112.925 31.3275V20.1523H117.116C117.974 20.1523 118.694 20.3015 119.276 20.5998C119.862 20.8981 120.304 21.3164 120.602 21.8548C120.904 22.3896 121.055 23.0134 121.055 23.7264C121.055 24.4431 120.902 25.0651 120.597 25.5926C120.295 26.1165 119.849 26.5221 119.26 26.8094C118.671 27.0932 117.947 27.2351 117.088 27.2351H114.103V25.5544H116.815C117.317 25.5544 117.728 25.4853 118.049 25.3471C118.369 25.2052 118.605 24.9997 118.758 24.7305C118.914 24.4576 118.993 24.123 118.993 23.7264C118.993 23.3299 118.914 22.9916 118.758 22.7115C118.602 22.4278 118.363 22.2131 118.043 22.0676C117.723 21.9185 117.31 21.8439 116.804 21.8439H114.949V31.3275H112.925ZM118.698 26.2638L121.464 31.3275H119.205L116.488 26.2638H118.698Z" fill="#493737"/>
<path d="M103.628 31.4902C102.788 31.4902 102.062 31.3156 101.451 30.9663C100.844 30.6135 100.376 30.1151 100.049 29.4712C99.7213 28.8237 99.5576 28.0616 99.5576 27.1849C99.5576 26.3227 99.7213 25.5661 100.049 24.9149C100.38 24.2601 100.842 23.7508 101.435 23.3871C102.028 23.0196 102.724 22.8359 103.525 22.8359C104.041 22.8359 104.529 22.9196 104.987 23.0869C105.449 23.2506 105.856 23.5053 106.209 23.8509C106.566 24.1965 106.846 24.6366 107.05 25.1714C107.253 25.7025 107.355 26.3355 107.355 27.0703V27.676H100.485V26.3446H105.462C105.458 25.9662 105.376 25.6297 105.216 25.3351C105.056 25.0368 104.832 24.8021 104.545 24.6312C104.261 24.4602 103.93 24.3747 103.552 24.3747C103.148 24.3747 102.793 24.4729 102.488 24.6694C102.182 24.8622 101.944 25.1168 101.773 25.4333C101.606 25.7461 101.52 26.0899 101.517 26.4646V27.6269C101.517 28.1143 101.606 28.5327 101.784 28.8819C101.962 29.2275 102.211 29.493 102.531 29.6786C102.852 29.8605 103.226 29.9514 103.656 29.9514C103.943 29.9514 104.203 29.9114 104.436 29.8314C104.669 29.7477 104.871 29.6258 105.042 29.4658C105.213 29.3057 105.342 29.1074 105.429 28.871L107.273 29.0783C107.157 29.5658 106.935 29.9914 106.608 30.3552C106.284 30.7153 105.869 30.9954 105.363 31.1955C104.858 31.3919 104.279 31.4902 103.628 31.4902Z" fill="#493737"/>
<path d="M97.8864 20.1523V31.3275H95.9111V20.1523H97.8864Z" fill="#493737"/>
<path d="M86.3076 34.4695V22.9451H88.2502V24.3311H88.3648C88.4666 24.1273 88.6103 23.9109 88.7958 23.6817C88.9814 23.4489 89.2324 23.2506 89.5489 23.0869C89.8653 22.9196 90.2691 22.8359 90.7602 22.8359C91.4078 22.8359 91.9916 23.0015 92.5118 23.3325C93.0357 23.6599 93.4504 24.1455 93.7559 24.7894C94.0651 25.4297 94.2197 26.2154 94.2197 27.1467C94.2197 28.067 94.0688 28.8492 93.7668 29.493C93.4649 30.1369 93.0538 30.628 92.5336 30.9663C92.0134 31.3046 91.4241 31.4738 90.7657 31.4738C90.2855 31.4738 89.8872 31.3938 89.5707 31.2337C89.2542 31.0736 88.9996 30.8808 88.8068 30.6553C88.6176 30.4261 88.4703 30.2097 88.3648 30.006H88.2829V34.4695H86.3076ZM88.2447 27.1358C88.2447 27.6778 88.3211 28.1525 88.4739 28.56C88.6303 28.9674 88.8541 29.2857 89.1451 29.5149C89.4397 29.7404 89.7962 29.8532 90.2146 29.8532C90.6511 29.8532 91.0167 29.7368 91.3114 29.504C91.606 29.2675 91.8279 28.9456 91.9771 28.5381C92.1299 28.1271 92.2062 27.6596 92.2062 27.1358C92.2062 26.6156 92.1317 26.1536 91.9825 25.7498C91.8334 25.346 91.6115 25.0295 91.3168 24.8003C91.0222 24.5711 90.6547 24.4566 90.2146 24.4566C89.7926 24.4566 89.4343 24.5675 89.1396 24.7894C88.845 25.0113 88.6212 25.3223 88.4684 25.7225C88.3193 26.1227 88.2447 26.5937 88.2447 27.1358Z" fill="#493737"/>
<path d="M72.5171 31.3265V22.9451H74.4051V24.3693H74.5033C74.6779 23.8891 74.9671 23.5144 75.3709 23.2452C75.7747 22.9724 76.2567 22.8359 76.8169 22.8359C77.3844 22.8359 77.8628 22.9742 78.252 23.2506C78.6449 23.5235 78.9214 23.8963 79.0814 24.3693H79.1687C79.3543 23.9036 79.6671 23.5326 80.1073 23.2561C80.5511 22.976 81.0767 22.8359 81.6842 22.8359C82.4555 22.8359 83.0848 23.0797 83.5722 23.5671C84.0597 24.0546 84.3034 24.7658 84.3034 25.7007V31.3265H82.3227V26.0062C82.3227 25.486 82.1844 25.1059 81.908 24.8658C81.6315 24.6221 81.2932 24.5002 80.893 24.5002C80.4165 24.5002 80.0436 24.6494 79.7744 24.9477C79.5089 25.2423 79.3761 25.6261 79.3761 26.099V31.3265H77.439V25.9244C77.439 25.4915 77.308 25.1459 77.0461 24.8876C76.7878 24.6294 76.4495 24.5002 76.0312 24.5002C75.7474 24.5002 75.4891 24.573 75.2563 24.7185C75.0235 24.8604 74.838 25.0622 74.6997 25.3242C74.5615 25.5824 74.4924 25.8844 74.4924 26.23V31.3265H72.5171Z" fill="#493737"/>
<path d="M66.1055 31.4956C65.5744 31.4956 65.096 31.401 64.6704 31.2119C64.2484 31.0191 63.9137 30.7353 63.6664 30.3606C63.4226 29.986 63.3008 29.524 63.3008 28.9747C63.3008 28.5017 63.3881 28.1107 63.5627 27.8015C63.7373 27.4923 63.9756 27.2449 64.2775 27.0594C64.5795 26.8739 64.9196 26.7338 65.2979 26.6392C65.6799 26.541 66.0746 26.4701 66.482 26.4264C66.9731 26.3755 67.3714 26.33 67.677 26.29C67.9826 26.2463 68.2045 26.1809 68.3427 26.0936C68.4846 26.0026 68.5555 25.8626 68.5555 25.6734V25.6407C68.5555 25.2296 68.4337 24.9113 68.1899 24.6857C67.9462 24.4602 67.5952 24.3474 67.1368 24.3474C66.653 24.3474 66.2692 24.4529 65.9854 24.6639C65.7053 24.8749 65.5162 25.1241 65.418 25.4115L63.5736 25.1496C63.7191 24.6403 63.9592 24.2146 64.2939 23.8727C64.6286 23.5271 65.0378 23.2688 65.5216 23.0979C66.0055 22.9232 66.5402 22.8359 67.1259 22.8359C67.5297 22.8359 67.9317 22.8832 68.3318 22.9778C68.732 23.0724 69.0976 23.2288 69.4286 23.4471C69.7596 23.6617 70.0252 23.9545 70.2253 24.3256C70.429 24.6967 70.5308 25.1605 70.5308 25.717V31.3265H68.6319V30.1751H68.5664C68.4464 30.4079 68.2772 30.6262 68.059 30.8299C67.8443 31.03 67.5733 31.1919 67.2459 31.3156C66.9222 31.4356 66.542 31.4956 66.1055 31.4956ZM66.6184 30.0442C67.0149 30.0442 67.3587 29.9659 67.6497 29.8095C67.9407 29.6495 68.1645 29.4385 68.3209 29.1766C68.481 28.9146 68.561 28.6291 68.561 28.3199V27.3322C68.4991 27.3831 68.3936 27.4304 68.2445 27.4741C68.099 27.5177 67.9353 27.5559 67.7534 27.5887C67.5715 27.6214 67.3914 27.6505 67.2132 27.676C67.0349 27.7014 66.8803 27.7233 66.7494 27.7415C66.4547 27.7815 66.191 27.847 65.9582 27.9379C65.7253 28.0288 65.5416 28.1562 65.407 28.3199C65.2724 28.4799 65.2051 28.6873 65.2051 28.9419C65.2051 29.3057 65.3379 29.5803 65.6035 29.7659C65.869 29.9514 66.2074 30.0442 66.6184 30.0442Z" fill="#493737"/>
<path d="M59.8755 23.2229C59.8245 22.7464 59.6099 22.3753 59.2316 22.1098C58.8569 21.8442 58.3694 21.7114 57.7692 21.7114C57.3472 21.7114 56.9853 21.7751 56.6833 21.9024C56.3814 22.0297 56.1504 22.2025 55.9903 22.4208C55.8303 22.6391 55.7484 22.8882 55.7448 23.1684C55.7448 23.4012 55.7975 23.6031 55.903 23.774C56.0122 23.945 56.1595 24.0905 56.345 24.2106C56.5305 24.327 56.7361 24.4252 56.9616 24.5052C57.1872 24.5853 57.4145 24.6526 57.6437 24.7071L58.6914 24.969C59.1134 25.0673 59.519 25.2 59.9082 25.3674C60.3011 25.5347 60.6521 25.7457 60.9613 26.0004C61.2742 26.255 61.5216 26.5624 61.7034 26.9225C61.8853 27.2827 61.9763 27.7046 61.9763 28.1885C61.9763 28.8433 61.8089 29.4198 61.4743 29.9182C61.1396 30.413 60.6558 30.8004 60.0228 31.0805C59.3935 31.357 58.6314 31.4952 57.7365 31.4952C56.867 31.4952 56.1122 31.3606 55.472 31.0914C54.8354 30.8222 54.337 30.4293 53.9768 29.9128C53.6203 29.3962 53.4275 28.7669 53.3984 28.0248H55.3901C55.4192 28.414 55.5393 28.7378 55.7502 28.996C55.9612 29.2543 56.2359 29.4471 56.5742 29.5745C56.9162 29.7018 57.2981 29.7654 57.7201 29.7654C58.1603 29.7654 58.5459 29.7 58.8769 29.569C59.2116 29.4344 59.4735 29.2489 59.6627 29.0124C59.8518 28.7723 59.9482 28.4922 59.9519 28.1721C59.9482 27.8811 59.8627 27.641 59.6954 27.4518C59.5281 27.259 59.2934 27.099 58.9915 26.9716C58.6932 26.8407 58.344 26.7243 57.9438 26.6224L56.6724 26.295C55.7521 26.0586 55.0245 25.7002 54.4898 25.2201C53.9587 24.7362 53.6931 24.0942 53.6931 23.2939C53.6931 22.6354 53.8713 22.0588 54.2278 21.5641C54.588 21.0694 55.0773 20.6856 55.6957 20.4128C56.3141 20.1363 57.0144 19.998 57.7965 19.998C58.5895 19.998 59.2843 20.1363 59.8809 20.4128C60.4812 20.6856 60.9522 21.0657 61.2942 21.5532C61.6361 22.037 61.8126 22.5936 61.8235 23.2229H59.8755Z" fill="#493737"/>
<path d="M121.796 42.6094C121.371 42.6094 121.004 42.5156 120.696 42.328C120.39 42.1384 120.153 41.8742 119.987 41.5353C119.822 41.1945 119.74 40.7982 119.74 40.3464C119.74 39.8945 119.822 39.4963 119.987 39.1516C120.153 38.8051 120.385 38.5351 120.682 38.3418C120.98 38.1465 121.329 38.0488 121.727 38.0488C121.957 38.0488 122.184 38.0871 122.408 38.1637C122.632 38.2403 122.836 38.3647 123.019 38.5371C123.203 38.7075 123.35 38.9334 123.459 39.2148C123.568 39.4963 123.623 39.8428 123.623 40.2545V40.5416H120.222V39.9558H122.933C122.933 39.7069 122.884 39.4848 122.784 39.2895C122.686 39.0942 122.547 38.9401 122.365 38.8271C122.185 38.7142 121.972 38.6577 121.727 38.6577C121.457 38.6577 121.224 38.7247 121.026 38.8587C120.831 38.9908 120.681 39.1631 120.575 39.3757C120.47 39.5882 120.418 39.816 120.418 40.0592V40.4497C120.418 40.7829 120.475 41.0653 120.59 41.297C120.707 41.5267 120.868 41.7019 121.075 41.8225C121.282 41.9412 121.522 42.0006 121.796 42.0006C121.974 42.0006 122.135 41.9757 122.279 41.9259C122.424 41.8742 122.549 41.7976 122.655 41.6962C122.76 41.5928 122.841 41.4645 122.899 41.3113L123.554 41.4951C123.485 41.7172 123.369 41.9125 123.206 42.081C123.043 42.2476 122.842 42.3778 122.603 42.4716C122.364 42.5635 122.095 42.6094 121.796 42.6094Z" fill="#7F54B3"/>
<path d="M117.222 42.6094C116.808 42.6094 116.452 42.5118 116.153 42.3165C115.854 42.1212 115.625 41.8522 115.464 41.5095C115.303 41.1668 115.223 40.7752 115.223 40.3349C115.223 39.8869 115.305 39.4915 115.47 39.1488C115.636 38.8041 115.868 38.5351 116.165 38.3418C116.463 38.1465 116.812 38.0488 117.21 38.0488C117.52 38.0488 117.8 38.1063 118.049 38.2211C118.298 38.336 118.501 38.4968 118.66 38.7036C118.819 38.9104 118.918 39.1516 118.956 39.4273H118.278C118.227 39.2263 118.112 39.0483 117.934 38.8932C117.758 38.7362 117.52 38.6577 117.222 38.6577C116.957 38.6577 116.726 38.7266 116.527 38.8645C116.329 39.0004 116.175 39.1928 116.064 39.4417C115.955 39.6887 115.9 39.9788 115.9 40.3119C115.9 40.6527 115.954 40.9495 116.061 41.2022C116.17 41.4549 116.324 41.6512 116.521 41.7909C116.72 41.9307 116.953 42.0006 117.222 42.0006C117.398 42.0006 117.558 41.9699 117.701 41.9087C117.845 41.8474 117.966 41.7593 118.066 41.6445C118.165 41.5296 118.236 41.3917 118.278 41.2309H118.956C118.918 41.4913 118.823 41.7258 118.672 41.9345C118.522 42.1413 118.324 42.306 118.077 42.4285C117.832 42.5491 117.547 42.6094 117.222 42.6094Z" fill="#7F54B3"/>
<path d="M112.554 42.5173V38.106H113.209V38.7723H113.255C113.335 38.5541 113.481 38.377 113.691 38.241C113.902 38.1051 114.139 38.0371 114.404 38.0371C114.453 38.0371 114.516 38.0381 114.59 38.04C114.665 38.0419 114.722 38.0448 114.76 38.0486V38.7379C114.737 38.7321 114.684 38.7235 114.602 38.712C114.521 38.6986 114.436 38.6919 114.346 38.6919C114.132 38.6919 113.94 38.7369 113.772 38.8269C113.605 38.915 113.473 39.0375 113.376 39.1945C113.28 39.3496 113.232 39.5267 113.232 39.7258V42.5173H112.554Z" fill="#7F54B3"/>
<path d="M109.697 42.6094C109.272 42.6094 108.905 42.5156 108.597 42.328C108.291 42.1384 108.054 41.8742 107.888 41.5353C107.723 41.1945 107.641 40.7982 107.641 40.3464C107.641 39.8945 107.723 39.4963 107.888 39.1516C108.054 38.8051 108.286 38.5351 108.583 38.3418C108.881 38.1465 109.23 38.0488 109.628 38.0488C109.858 38.0488 110.085 38.0871 110.309 38.1637C110.533 38.2403 110.737 38.3647 110.92 38.5371C111.104 38.7075 111.251 38.9334 111.36 39.2148C111.469 39.4963 111.523 39.8428 111.523 40.2545V40.5416H108.123V39.9558H110.834C110.834 39.7069 110.784 39.4848 110.685 39.2895C110.587 39.0942 110.447 38.9401 110.266 38.8271C110.086 38.7142 109.873 38.6577 109.628 38.6577C109.358 38.6577 109.124 38.7247 108.927 38.8587C108.732 38.9908 108.582 39.1631 108.476 39.3757C108.371 39.5882 108.318 39.816 108.318 40.0592V40.4497C108.318 40.7829 108.376 41.0653 108.491 41.297C108.608 41.5267 108.769 41.7019 108.976 41.8225C109.183 41.9412 109.423 42.0006 109.697 42.0006C109.875 42.0006 110.036 41.9757 110.179 41.9259C110.325 41.8742 110.45 41.7976 110.556 41.6962C110.661 41.5928 110.742 41.4645 110.8 41.3113L111.455 41.4951C111.386 41.7172 111.27 41.9125 111.107 42.081C110.944 42.2476 110.743 42.3778 110.504 42.4716C110.265 42.5635 109.996 42.6094 109.697 42.6094Z" fill="#7F54B3"/>
<path d="M100.818 42.5175V38.1063H101.473V38.7955H101.531C101.622 38.56 101.771 38.3772 101.976 38.247C102.181 38.1149 102.427 38.0488 102.714 38.0488C103.005 38.0488 103.247 38.1149 103.44 38.247C103.636 38.3772 103.788 38.56 103.897 38.7955H103.943C104.056 38.5677 104.225 38.3868 104.451 38.2527C104.677 38.1168 104.948 38.0488 105.264 38.0488C105.658 38.0488 105.981 38.1723 106.232 38.4193C106.483 38.6644 106.608 39.0463 106.608 39.5652V42.5175H105.93V39.5652C105.93 39.2397 105.841 39.0071 105.663 38.8673C105.485 38.7276 105.276 38.6577 105.034 38.6577C104.724 38.6577 104.484 38.7515 104.313 38.9391C104.143 39.1248 104.058 39.3603 104.058 39.6456V42.5175H103.369V39.4963C103.369 39.2455 103.287 39.0435 103.125 38.8903C102.962 38.7352 102.752 38.6577 102.496 38.6577C102.319 38.6577 102.155 38.7046 102.002 38.7984C101.85 38.8922 101.728 39.0224 101.634 39.189C101.542 39.3536 101.496 39.5441 101.496 39.7605V42.5175H100.818Z" fill="#7F54B3"/>
<path d="M93.7896 42.5175V38.1063H94.4443V38.7955H94.5018C94.5937 38.56 94.7421 38.3772 94.9469 38.247C95.1518 38.1149 95.3978 38.0488 95.685 38.0488C95.976 38.0488 96.2182 38.1149 96.4116 38.247C96.6069 38.3772 96.7591 38.56 96.8682 38.7955H96.9142C97.0272 38.5677 97.1966 38.3868 97.4225 38.2527C97.6484 38.1168 97.9194 38.0488 98.2353 38.0488C98.6297 38.0488 98.9523 38.1723 99.2031 38.4193C99.4539 38.6644 99.5793 39.0463 99.5793 39.5652V42.5175H98.9016V39.5652C98.9016 39.2397 98.8125 39.0071 98.6345 38.8673C98.4564 38.7276 98.2468 38.6577 98.0055 38.6577C97.6953 38.6577 97.4551 38.7515 97.2847 38.9391C97.1143 39.1248 97.0291 39.3603 97.0291 39.6456V42.5175H96.3398V39.4963C96.3398 39.2455 96.2584 39.0435 96.0957 38.8903C95.933 38.7352 95.7233 38.6577 95.4667 38.6577C95.2906 38.6577 95.1259 38.7046 94.9728 38.7984C94.8215 38.8922 94.699 39.0224 94.6052 39.189C94.5133 39.3536 94.4673 39.5441 94.4673 39.7605V42.5175H93.7896Z" fill="#7F54B3"/>
<path d="M90.7557 42.6094C90.3574 42.6094 90.008 42.5146 89.7074 42.3251C89.4088 42.1356 89.1752 41.8704 89.0067 41.5296C88.8401 41.1888 88.7568 40.7905 88.7568 40.3349C88.7568 39.8754 88.8401 39.4743 89.0067 39.1315C89.1752 38.7888 89.4088 38.5227 89.7074 38.3331C90.008 38.1436 90.3574 38.0488 90.7557 38.0488C91.1539 38.0488 91.5024 38.1436 91.8011 38.3331C92.1017 38.5227 92.3352 38.7888 92.5018 39.1315C92.6703 39.4743 92.7545 39.8754 92.7545 40.3349C92.7545 40.7905 92.6703 41.1888 92.5018 41.5296C92.3352 41.8704 92.1017 42.1356 91.8011 42.3251C91.5024 42.5146 91.1539 42.6094 90.7557 42.6094ZM90.7557 42.0006C91.0582 42.0006 91.3071 41.923 91.5024 41.768C91.6977 41.6129 91.8422 41.409 91.936 41.1562C92.0299 40.9035 92.0768 40.6297 92.0768 40.3349C92.0768 40.04 92.0299 39.7653 91.936 39.5106C91.8422 39.256 91.6977 39.0502 91.5024 38.8932C91.3071 38.7362 91.0582 38.6577 90.7557 38.6577C90.4532 38.6577 90.2043 38.7362 90.009 38.8932C89.8137 39.0502 89.6691 39.256 89.5753 39.5106C89.4815 39.7653 89.4346 40.04 89.4346 40.3349C89.4346 40.6297 89.4815 40.9035 89.5753 41.1562C89.6691 41.409 89.8137 41.6129 90.009 41.768C90.2043 41.923 90.4532 42.0006 90.7557 42.0006Z" fill="#7F54B3"/>
<path d="M87.905 38.4731H87.1928C87.1507 38.2683 87.077 38.0883 86.9717 37.9332C86.8683 37.7781 86.7419 37.6479 86.5926 37.5426C86.4452 37.4354 86.2815 37.355 86.1015 37.3014C85.9215 37.2478 85.7339 37.221 85.5386 37.221C85.1825 37.221 84.8599 37.311 84.5708 37.4909C84.2836 37.6709 84.0548 37.9361 83.8844 38.2864C83.7159 38.6368 83.6316 39.0667 83.6316 39.5759C83.6316 40.0852 83.7159 40.5151 83.8844 40.8654C84.0548 41.2158 84.2836 41.481 84.5708 41.6609C84.8599 41.8409 85.1825 41.9309 85.5386 41.9309C85.7339 41.9309 85.9215 41.9041 86.1015 41.8505C86.2815 41.7969 86.4452 41.7174 86.5926 41.6121C86.7419 41.5049 86.8683 41.3738 86.9717 41.2187C87.077 41.0617 87.1507 40.8817 87.1928 40.6788H87.905C87.8514 40.9793 87.7538 41.2483 87.6121 41.4858C87.4704 41.7232 87.2943 41.9252 87.0837 42.0917C86.8731 42.2564 86.6366 42.3818 86.3743 42.468C86.1139 42.5541 85.8354 42.5972 85.5386 42.5972C85.037 42.5972 84.5909 42.4747 84.2003 42.2296C83.8097 41.9845 83.5024 41.6361 83.2784 41.1842C83.0544 40.7324 82.9424 40.1963 82.9424 39.5759C82.9424 38.9556 83.0544 38.4195 83.2784 37.9677C83.5024 37.5158 83.8097 37.1674 84.2003 36.9223C84.5909 36.6772 85.037 36.5547 85.5386 36.5547C85.8354 36.5547 86.1139 36.5978 86.3743 36.6839C86.6366 36.7701 86.8731 36.8964 87.0837 37.063C87.2943 37.2277 87.4704 37.4287 87.6121 37.6661C87.7538 37.9016 87.8514 38.1706 87.905 38.4731Z" fill="#7F54B3"/>
<path d="M80.0467 42.6094C79.6485 42.6094 79.299 42.5146 78.9985 42.3251C78.6998 42.1356 78.4662 41.8704 78.2977 41.5296C78.1311 41.1888 78.0479 40.7905 78.0479 40.3349C78.0479 39.8754 78.1311 39.4743 78.2977 39.1315C78.4662 38.7888 78.6998 38.5227 78.9985 38.3331C79.299 38.1436 79.6485 38.0488 80.0467 38.0488C80.4449 38.0488 80.7934 38.1436 81.0921 38.3331C81.3927 38.5227 81.6263 38.7888 81.7928 39.1315C81.9613 39.4743 82.0456 39.8754 82.0456 40.3349C82.0456 40.7905 81.9613 41.1888 81.7928 41.5296C81.6263 41.8704 81.3927 42.1356 81.0921 42.3251C80.7934 42.5146 80.4449 42.6094 80.0467 42.6094ZM80.0467 42.0006C80.3492 42.0006 80.5981 41.923 80.7934 41.768C80.9887 41.6129 81.1332 41.409 81.2271 41.1562C81.3209 40.9035 81.3678 40.6297 81.3678 40.3349C81.3678 40.04 81.3209 39.7653 81.2271 39.5106C81.1332 39.256 80.9887 39.0502 80.7934 38.8932C80.5981 38.7362 80.3492 38.6577 80.0467 38.6577C79.7442 38.6577 79.4953 38.7362 79.3 38.8932C79.1047 39.0502 78.9602 39.256 78.8663 39.5106C78.7725 39.7653 78.7256 40.04 78.7256 40.3349C78.7256 40.6297 78.7725 40.9035 78.8663 41.1562C78.9602 41.409 79.1047 41.6129 79.3 41.768C79.4953 41.923 79.7442 42.0006 80.0467 42.0006Z" fill="#7F54B3"/>
<path d="M75.221 42.6094C74.8228 42.6094 74.4734 42.5146 74.1728 42.3251C73.8741 42.1356 73.6405 41.8704 73.472 41.5296C73.3055 41.1888 73.2222 40.7905 73.2222 40.3349C73.2222 39.8754 73.3055 39.4743 73.472 39.1315C73.6405 38.7888 73.8741 38.5227 74.1728 38.3331C74.4734 38.1436 74.8228 38.0488 75.221 38.0488C75.6193 38.0488 75.9677 38.1436 76.2664 38.3331C76.567 38.5227 76.8006 38.7888 76.9671 39.1315C77.1356 39.4743 77.2199 39.8754 77.2199 40.3349C77.2199 40.7905 77.1356 41.1888 76.9671 41.5296C76.8006 41.8704 76.567 42.1356 76.2664 42.3251C75.9677 42.5146 75.6193 42.6094 75.221 42.6094ZM75.221 42.0006C75.5235 42.0006 75.7724 41.923 75.9677 41.768C76.163 41.6129 76.3076 41.409 76.4014 41.1562C76.4952 40.9035 76.5421 40.6297 76.5421 40.3349C76.5421 40.04 76.4952 39.7653 76.4014 39.5106C76.3076 39.256 76.163 39.0502 75.9677 38.8932C75.7724 38.7362 75.5235 38.6577 75.221 38.6577C74.9185 38.6577 74.6696 38.7362 74.4743 38.8932C74.279 39.0502 74.1345 39.256 74.0407 39.5106C73.9468 39.7653 73.8999 40.04 73.8999 40.3349C73.8999 40.6297 73.9468 40.9035 74.0407 41.1562C74.1345 41.409 74.279 41.6129 74.4743 41.768C74.6696 41.923 74.9185 42.0006 75.221 42.0006Z" fill="#7F54B3"/>
<path d="M67.3231 42.5164L65.7148 36.6348H66.4386L67.6677 41.4251H67.7252L68.9773 36.6348H69.7815L71.0336 41.4251H71.0911L72.3202 36.6348H73.044L71.4357 42.5164H70.7005L69.4024 37.8295H69.3564L68.0583 42.5164H67.3231Z" fill="#7F54B3"/>
<path d="M60.8794 42.5173V38.106H61.5342V38.7723H61.5801C61.6606 38.5541 61.8061 38.377 62.0167 38.241C62.2273 38.1051 62.4647 38.0371 62.7289 38.0371C62.7787 38.0371 62.8409 38.0381 62.9156 38.04C62.9902 38.0419 63.0467 38.0448 63.085 38.0486V38.7379C63.062 38.7321 63.0094 38.7235 62.9271 38.712C62.8467 38.6986 62.7615 38.6919 62.6715 38.6919C62.457 38.6919 62.2656 38.7369 62.0971 38.8269C61.9305 38.915 61.7984 39.0375 61.7008 39.1945C61.605 39.3496 61.5572 39.5267 61.5572 39.7258V42.5173H60.8794Z" fill="#7F54B3"/>
<path d="M57.846 42.6094C57.4478 42.6094 57.0984 42.5146 56.7978 42.3251C56.4991 42.1356 56.2655 41.8704 56.097 41.5296C55.9305 41.1888 55.8472 40.7905 55.8472 40.3349C55.8472 39.8754 55.9305 39.4743 56.097 39.1315C56.2655 38.7888 56.4991 38.5227 56.7978 38.3331C57.0984 38.1436 57.4478 38.0488 57.846 38.0488C58.2443 38.0488 58.5927 38.1436 58.8914 38.3331C59.192 38.5227 59.4256 38.7888 59.5921 39.1315C59.7606 39.4743 59.8449 39.8754 59.8449 40.3349C59.8449 40.7905 59.7606 41.1888 59.5921 41.5296C59.4256 41.8704 59.192 42.1356 58.8914 42.3251C58.5927 42.5146 58.2443 42.6094 57.846 42.6094ZM57.846 42.0006C58.1485 42.0006 58.3974 41.923 58.5927 41.768C58.788 41.6129 58.9326 41.409 59.0264 41.1562C59.1202 40.9035 59.1671 40.6297 59.1671 40.3349C59.1671 40.04 59.1202 39.7653 59.0264 39.5106C58.9326 39.256 58.788 39.0502 58.5927 38.8932C58.3974 38.7362 58.1485 38.6577 57.846 38.6577C57.5435 38.6577 57.2946 38.7362 57.0993 38.8932C56.904 39.0502 56.7595 39.256 56.6657 39.5106C56.5718 39.7653 56.5249 40.04 56.5249 40.3349C56.5249 40.6297 56.5718 40.9035 56.6657 41.1562C56.7595 41.409 56.904 41.6129 57.0993 41.768C57.2946 41.923 57.5435 42.0006 57.846 42.0006Z" fill="#7F54B3"/>
<path d="M55.2857 38.1055V38.6799H52.9077V38.1055H55.2857ZM53.6199 42.5168V37.4967C53.6199 37.2439 53.6793 37.0333 53.798 36.8648C53.9167 36.6963 54.0708 36.57 54.2604 36.4857C54.4499 36.4015 54.65 36.3594 54.8606 36.3594C55.0272 36.3594 55.1631 36.3728 55.2684 36.3996C55.3737 36.4264 55.4522 36.4513 55.5039 36.4743L55.3086 37.0601C55.2742 37.0486 55.2263 37.0343 55.165 37.017C55.1057 36.9998 55.0272 36.9912 54.9295 36.9912C54.7055 36.9912 54.5437 37.0477 54.4442 37.1606C54.3465 37.2736 54.2977 37.4392 54.2977 37.6575V42.5168H53.6199Z" fill="#7F54B3"/>
<path d="M15.5002 17.8984H32.0002C36.0002 17.8984 39.3002 21.1984 39.3002 25.1984V49.2984C39.3002 50.5984 37.7002 51.0984 36.9002 50.1984L31.9002 43.1984H15.5002C11.5002 43.1984 8.2002 39.8984 8.2002 35.8984V25.1984C8.2002 21.1984 11.5002 17.8984 15.5002 17.8984Z" fill="#7F54B3"/>
<path d="M11.5002 25.9996C11.7002 25.7996 11.9002 25.6996 12.2002 25.6996C12.8002 25.6996 13.1002 25.8996 13.2002 26.4996C13.5002 28.7996 13.9002 30.7996 14.3002 32.2996L16.7002 27.6996C16.9002 27.2996 17.2002 27.0996 17.5002 26.9996C18.0002 26.9996 18.3002 27.2996 18.4002 27.8996C18.7002 29.3996 19.0002 30.5996 19.4002 31.6996C19.7002 28.8996 20.2002 26.8996 20.9002 25.5996C21.1002 25.2996 21.3002 25.0996 21.6002 25.0996C21.9002 25.0996 22.1002 25.1996 22.3002 25.2996C22.5002 25.4996 22.6002 25.6996 22.6002 25.8996C22.6002 26.0996 22.6002 26.2996 22.5002 26.3996C22.1002 27.1996 21.7002 28.4996 21.4002 30.3996C21.1002 32.1996 21.0002 33.5996 21.1002 34.5996C21.1002 34.8996 21.1002 35.0996 21.0002 35.2996C20.9002 35.4996 20.7002 35.6996 20.4002 35.6996C20.1002 35.6996 19.8002 35.5996 19.5002 35.2996C18.5002 34.2996 17.7002 32.6996 17.1002 30.5996C16.4002 31.9996 15.9002 33.0996 15.5002 33.7996C14.9002 34.9996 14.3002 35.6996 13.8002 35.6996C13.5002 35.6996 13.2002 35.4996 13.0002 34.8996C12.4002 33.4996 11.8002 30.6996 11.2002 26.4996C11.3002 26.4996 11.3002 26.1996 11.5002 25.9996ZM35.2002 27.6996C34.8002 26.9996 34.2002 26.5996 33.4002 26.3996C33.2002 26.3996 33.0002 26.2996 32.8002 26.2996C31.7002 26.2996 30.9002 26.8996 30.2002 27.9996C29.6002 28.8996 29.3002 29.9996 29.3002 31.0996C29.3002 31.8996 29.5002 32.6996 29.8002 33.2996C30.2002 33.9996 30.8002 34.3996 31.6002 34.5996C31.8002 34.5996 32.0002 34.6996 32.2002 34.6996C33.3002 34.6996 34.1002 34.0996 34.8002 32.9996C35.4002 32.0996 35.7002 30.9996 35.7002 29.8996C35.7002 28.9996 35.5002 28.2996 35.2002 27.6996ZM33.8002 30.7996C33.6002 31.4996 33.4002 32.0996 33.0002 32.3996C32.7002 32.6996 32.4002 32.7996 32.1002 32.7996C31.8002 32.6996 31.6002 32.4996 31.5002 32.0996C31.4002 31.7996 31.3002 31.3996 31.3002 31.0996C31.3002 30.7996 31.3002 30.4996 31.4002 30.2996C31.5002 29.7996 31.7002 29.3996 32.0002 28.9996C32.4002 28.4996 32.7002 28.1996 33.1002 28.2996C33.4002 28.3996 33.6002 28.5996 33.7002 28.9996C33.8002 29.2996 33.9002 29.6996 33.9002 29.9996C33.9002 30.2996 33.8002 30.4996 33.8002 30.7996ZM28.3002 27.6996C27.9002 26.9996 27.3002 26.5996 26.5002 26.3996C26.3002 26.3996 26.1002 26.2996 25.9002 26.2996C24.8002 26.2996 24.0002 26.8996 23.3002 27.9996C22.7002 28.8996 22.4002 29.9996 22.4002 31.0996C22.4002 31.8996 22.6002 32.6996 22.9002 33.2996C23.3002 33.9996 23.9002 34.3996 24.7002 34.5996C24.9002 34.5996 25.1002 34.6996 25.3002 34.6996C26.4002 34.6996 27.2002 34.0996 27.9002 32.9996C28.5002 32.0996 28.8002 30.9996 28.8002 29.8996C28.8002 28.9996 28.6002 28.2996 28.3002 27.6996ZM26.9002 30.7996C26.7002 31.4996 26.5002 32.0996 26.1002 32.3996C25.8002 32.6996 25.5002 32.7996 25.2002 32.7996C24.9002 32.6996 24.7002 32.4996 24.6002 32.0996C24.5002 31.7996 24.4002 31.3996 24.4002 31.0996C24.4002 30.7996 24.4002 30.4996 24.5002 30.2996C24.6002 29.7996 24.8002 29.3996 25.1002 28.9996C25.5002 28.4996 25.8002 28.1996 26.2002 28.2996C26.5002 28.3996 26.7002 28.5996 26.8002 28.9996C26.9002 29.2996 27.0002 29.6996 27.0002 29.9996C27.0002 30.2996 26.9002 30.4996 26.9002 30.7996Z" fill="white"/>
<path d="M35.7001 28.8992C40.1736 28.8992 43.8001 25.2727 43.8001 20.7992C43.8001 16.3257 40.1736 12.6992 35.7001 12.6992C31.2266 12.6992 27.6001 16.3257 27.6001 20.7992C27.6001 25.2727 31.2266 28.8992 35.7001 28.8992Z" fill="#FFC84D"/>
<path d="M40.4999 20.1992C40.4999 19.9992 40.2999 19.8992 40.1999 19.7992L37.6999 19.0992L36.8999 16.4992C36.7999 16.2992 36.6999 16.1992 36.4999 16.1992C36.2999 16.1992 36.1999 16.2992 36.0999 16.3992L34.5999 18.6992H31.9999C31.7999 18.6992 31.6999 18.7992 31.5999 18.8992C31.4999 19.0992 31.4999 19.1992 31.5999 19.3992L33.1999 21.5992L32.3999 24.1992C32.2999 24.3992 32.3999 24.4992 32.4999 24.6992C32.5999 24.7992 32.7999 24.8992 32.9999 24.7992L35.3999 23.8992L37.4999 25.4992C37.5999 25.4992 37.5999 25.5992 37.6999 25.5992C37.7999 25.5992 37.8999 25.5992 37.9999 25.5992C38.1999 25.4992 38.1999 25.3992 38.1999 25.1992L38.0999 22.4992L40.1999 20.8992C40.3999 20.4992 40.4999 20.3992 40.4999 20.1992Z" fill="#FFF9E9"/>
<path d="M26.4 46.8996C28.5539 46.8996 30.3 45.1535 30.3 42.9996C30.3 40.8457 28.5539 39.0996 26.4 39.0996C24.2461 39.0996 22.5 40.8457 22.5 42.9996C22.5 45.1535 24.2461 46.8996 26.4 46.8996Z" fill="#FFC84D"/>
<path d="M27.6003 42.1988L25.0003 42.3988C24.9003 42.3988 24.8003 42.2988 24.8003 42.1988C24.8003 42.0988 24.9003 41.8988 25.0003 41.8988L27.6003 41.7988C27.7003 41.7988 27.8003 41.8988 27.8003 41.9988C27.8003 42.0988 27.7003 42.1988 27.6003 42.1988Z" fill="white"/>
<path d="M27.7004 43.1992L25.1004 43.2992C25.0004 43.2992 24.9004 43.1992 24.9004 43.0992C24.9004 42.9992 25.0004 42.7992 25.1004 42.7992L27.7004 42.6992C27.8004 42.6992 27.9004 42.7992 27.9004 42.8992C27.9004 43.0992 27.8004 43.1992 27.7004 43.1992Z" fill="white"/>
<path d="M26.5004 44.2988L25.2004 44.3988C25.1004 44.3988 24.9004 44.2988 24.9004 44.1988C24.9004 44.0988 25.0004 43.8988 25.1004 43.8988L26.4004 43.7988C26.5004 43.7988 26.7004 43.8988 26.7004 43.9988C26.7004 44.1988 26.6004 44.2988 26.5004 44.2988Z" fill="white"/>
<path d="M7.7002 38.0996C8.80476 38.0996 9.7002 37.2042 9.7002 36.0996C9.7002 34.995 8.80476 34.0996 7.7002 34.0996C6.59563 34.0996 5.7002 34.995 5.7002 36.0996C5.7002 37.2042 6.59563 38.0996 7.7002 38.0996Z" fill="#FFC84D"/>
<path d="M8.70029 35.8992C8.60029 35.8992 8.60029 35.7992 8.70029 35.8992L8.00029 35.7992L7.80029 35.2992C7.80029 35.2992 7.80029 35.1992 7.70029 35.1992C7.70029 35.1992 7.60029 35.1992 7.60029 35.2992L7.40029 35.7992L6.90029 35.8992C6.90029 35.8992 6.80029 35.8992 6.80029 35.9992V36.0992L7.20029 36.4992L7.10029 36.9992V37.0992H7.20029L7.70029 36.7992L8.20029 37.0992C8.20029 37.0992 8.20029 37.0992 8.30029 37.0992V36.9992L8.20029 36.3992L8.70029 35.8992Z" fill="#FFF9E9"/>
</svg>
