<svg id="Layer_1" data-name="Layer 1" xmlns="http://www.w3.org/2000/svg" viewBox="0 0 60 60"><defs><style>.cls-1,.cls-4{fill:#7d818e;}.cls-1{opacity:0.1;}.cls-2,.cls-3{fill:#72a5d8;}.cls-2{opacity:0.7;}</style></defs><path class="cls-1" d="M55.65,58.5H4.35c-1.61,0-2.85-1.23-2.85-1.9V5.3c0-2.57,1.24-3.8,2.85-3.8h51.3c1.61,0,2.85,1.23,2.85,3.8V56.6C58.5,57.27,57.26,58.5,55.65,58.5Z"/><path class="cls-2" d="M16.07,17.5H43.93c.64,0,1.07.3,1.07.8v8.5c0,.4-.43.8-1.07.8H16.07c-.64,0-1.07-.3-1.07-.8V18.3C15,17.8,15.43,17.5,16.07,17.5Z"/><path class="cls-3" d="M19.7,32.5H40.4a.74.74,0,0,1,.7.5v9a.68.68,0,0,1-.7.5H19.7A.74.74,0,0,1,19,42V33A.68.68,0,0,1,19.7,32.5Z"/><path class="cls-4" d="M32,9.9a2,2,0,1,0-4,0v7.6h4Z"/><path class="cls-4" d="M28,49.9a2,2,0,1,0,4,0V42.5H28Z"/><rect class="cls-4" x="28" y="27.6" width="4" height="4.9"/></svg>