<svg id="Layer_1" data-name="Layer 1" xmlns="http://www.w3.org/2000/svg" viewBox="0 0 60 60"><defs><style>.cls-1,.cls-4{fill:#7d818e;}.cls-1{opacity:0.1;}.cls-2,.cls-3{fill:#72a5d8;}.cls-2{opacity:0.7;}</style></defs><path class="cls-1" d="M55.65,58.5H4.35c-1.62,0-2.85-1.23-2.85-1.9V5.3c0-2.57,1.23-3.8,2.85-3.8h51.3c1.62,0,2.85,1.23,2.85,3.8V56.6C58.5,57.27,57.27,58.5,55.65,58.5Z"/><path class="cls-2" d="M17,17.45H45a.91.91,0,0,1,1,.79v8.42c0,.39-.5.79-1,.79H17a.91.91,0,0,1-1-.79V18.24A.91.91,0,0,1,17,17.45Z"/><path class="cls-3" d="M16.7,32.4H33.4a.74.74,0,0,1,.7.5v9a.68.68,0,0,1-.7.5H16.7a.74.74,0,0,1-.7-.5v-9A.68.68,0,0,1,16.7,32.4Z"/><rect class="cls-4" x="20" y="27.45" width="4" height="4.95"/><path class="cls-4" d="M24,9.9a2,2,0,1,0-4,0v7.55h4Z"/><path class="cls-4" d="M20,49.9a2,2,0,1,0,4,0V42.4H20Z"/></svg>