<svg id="Layer_1" data-name="Layer 1" xmlns="http://www.w3.org/2000/svg" viewBox="0 0 60 60"><defs><style>.cls-1,.cls-4{fill:#7d818e;}.cls-1{opacity:0.1;}.cls-2,.cls-3{fill:#72a5d8;}.cls-2{opacity:0.7;}</style></defs><path class="cls-1" d="M55.65,58.5H4.35c-1.61,0-2.85-1.23-2.85-1.9V5.3c0-2.57,1.24-3.8,2.85-3.8h51.3c1.61,0,2.85,1.23,2.85,3.8V56.6C58.5,57.27,57.26,58.5,55.65,58.5Z"/><path class="cls-2" d="M15,17.55H43c.6,0,1,.3,1,.79v8.42a.92.92,0,0,1-1,.79H15c-.6,0-1-.3-1-.79V18.34C14,17.85,14.4,17.55,15,17.55Z"/><path class="cls-3" d="M26.7,32.5H43.4a.74.74,0,0,1,.7.5v9a.68.68,0,0,1-.7.5H26.7A.74.74,0,0,1,26,42V33A.68.68,0,0,1,26.7,32.5Z"/><rect class="cls-4" x="36" y="27.55" width="4" height="4.95"/><path class="cls-4" d="M40,9.9a2,2,0,1,0-4,0v7.65h4Z"/><path class="cls-4" d="M36,49.9a2,2,0,1,0,4,0V42.5H36Z"/></svg>