<svg id="Layer_1" data-name="Layer 1" xmlns="http://www.w3.org/2000/svg" viewBox="0 0 26 26"><defs><style>.cls-1{fill:#304050;fill-rule:evenodd;}</style></defs><path class="cls-1" d="M14,13a1,1,0,1,0-1,1A1,1,0,0,0,14,13Z"/><path class="cls-1" d="M14,8a1,1,0,1,0-1,1A1,1,0,0,0,14,8Z"/><path class="cls-1" d="M19,8a1,1,0,1,0-1,1A1,1,0,0,0,19,8Z"/><path class="cls-1" d="M9,8A1,1,0,1,0,8,9,1,1,0,0,0,9,8Z"/><path class="cls-1" d="M9,13a1,1,0,1,0-1,1A1,1,0,0,0,9,13Z"/><path class="cls-1" d="M19,13a1,1,0,1,0-1,1A1,1,0,0,0,19,13Z"/><path class="cls-1" d="M19,18a1,1,0,1,0-1,1A1,1,0,0,0,19,18Z"/><path class="cls-1" d="M14,18a1,1,0,1,0-1,1A1,1,0,0,0,14,18Z"/><path class="cls-1" d="M9,18a1,1,0,1,0-1,1A1,1,0,0,0,9,18Z"/></svg>