<?xml version="1.0" encoding="utf-8"?>
<!-- Generator: Adobe Illustrator 25.0.1, SVG Export Plug-In . SVG Version: 6.00 Build 0)  -->
<svg version="1.1" id="th_color" xmlns="http://www.w3.org/2000/svg" xmlns:xlink="http://www.w3.org/1999/xlink" x="0px" y="0px"
	 viewBox="0 0 24 24" style="enable-background:new 0 0 24 24;" xml:space="preserve">
<style type="text/css">
	.st0{fill:#304050;}
	.st1{fill:none;stroke:#304050;stroke-width:1.5;stroke-linecap:round;stroke-linejoin:round;}
</style>
<g>
	<path class="st0" d="M12,14.5c-0.6,0-1,0.4-1,1c0,0.6,0.4,1,1,1c0.6,0,1-0.4,1-1C13,14.9,12.6,14.5,12,14.5z"/>
	<path class="st1" d="M5.8,11h12.4c0.4,0,0.8,0.4,0.8,0.8v6.4c0,0.4-0.4,0.8-0.8,0.8H5.8C5.4,19,5,18.6,5,18.2v-6.4
		C5,11.4,5.4,11,5.8,11z"/>
</g>
<path class="st1" d="M9.5,5h5c1.1,0,2,0.9,2,2v4c-0.4,0-0.9,0-2,0h-5c-1.1,0-1.5,0-2,0V7C7.5,5.9,8.4,5,9.5,5z"/>
</svg>
