<?xml version="1.0" encoding="utf-8"?>
<!-- Generator: Adobe Illustrator 25.0.1, SVG Export Plug-In . SVG Version: 6.00 Build 0)  -->
<svg version="1.1" id="Layer_1" xmlns="http://www.w3.org/2000/svg" xmlns:xlink="http://www.w3.org/1999/xlink" x="0px" y="0px"
	 viewBox="0 0 26 26" style="enable-background:new 0 0 26 26;" xml:space="preserve">
<style type="text/css">
	.st0{fill:#304050;}
</style>
<g>
	<circle class="st0" cx="13" cy="13" r="1.1"/>
</g>
<g>
	<path class="st0" d="M21.8,9.8c-0.4-1-1.1-2.3-2.2-3.5c-1.1-1.1-2.5-1.8-3.5-2.2c-1-0.4-2.2-0.1-3,0.6l-2.8,2.7
		c-0.8,0.8-1.1,2.1-0.6,3.1c0.1,0.3,0.3,0.6,0.5,1l-6.1,6.1C4.1,17.8,4,18,4,18.2v3.1C4,21.7,4.3,22,4.7,22h3.1
		c0.4,0,0.7-0.3,0.7-0.7V20l1.3,0c0.4,0,0.7-0.3,0.7-0.7v-1.3h1.3c0.4,0,0.7-0.3,0.7-0.7c0-0.4-0.3-0.7-0.7-0.7h-2
		c-0.4,0-0.7,0.3-0.7,0.7v1.3l-1.3,0c-0.4,0-0.7,0.3-0.7,0.7v1.3H5.4v-2.1l6.2-6.2c0.2-0.2,0.3-0.6,0.1-0.9
		c-0.2-0.4-0.5-0.8-0.7-1.3C10.8,9.6,11,9,11.4,8.6l2.8-2.7c0.4-0.4,1-0.5,1.5-0.3c0.8,0.3,2,0.9,3,1.9c1,1,1.6,2.2,1.9,3
		c0.2,0.5,0.1,1.1-0.3,1.5l-2.8,2.8c-0.4,0.4-1,0.5-1.5,0.3c-0.4-0.2-0.9-0.4-1.3-0.6c-0.3-0.2-0.8-0.1-1,0.2
		c-0.2,0.3-0.1,0.8,0.2,1c0.5,0.3,1,0.5,1.5,0.7c1.1,0.4,2.3,0.2,3.1-0.6l2.8-2.8C22,12.1,22.2,10.9,21.8,9.8z"/>
</g>
</svg>
