<?xml version="1.0" encoding="utf-8"?>
<!-- Generator: Adobe Illustrator 25.0.1, SVG Export Plug-In . SVG Version: 6.00 Build 0)  -->
<svg version="1.1" id="th_color" xmlns="http://www.w3.org/2000/svg" xmlns:xlink="http://www.w3.org/1999/xlink" x="0px" y="0px"
	 viewBox="0 0 24 24" style="enable-background:new 0 0 24 24;" xml:space="preserve">
<style type="text/css">
	.st0{fill:none;stroke:#304050;stroke-width:1.5;stroke-linecap:round;stroke-linejoin:round;}
	.st1{fill:#304050;}
</style>
<path class="st0" d="M5.8,5h12.4C18.6,5,19,5.3,19,5.8v12c0,0.4-0.4,0.8-0.8,0.8H5.8c-0.4,0-0.8-0.3-0.8-0.8v-12C5,5.3,5.4,5,5.8,5z
	"/>
<line class="st0" x1="5" y1="14" x2="19" y2="14"/>
<line class="st0" x1="5" y1="9.5" x2="19" y2="9.5"/>
<path class="st1" d="M7.3,6.5c-0.4,0-0.8,0.3-0.8,0.7S6.8,8,7.2,8C7.7,8,8,7.7,8,7.3C8,6.8,7.7,6.5,7.3,6.5C7.3,6.5,7.3,6.5,7.3,6.5
	z"/>
<path class="st1" d="M7.2,11c-0.4,0-0.8,0.3-0.8,0.7s0.3,0.8,0.7,0.8c0.4,0,0.8-0.3,0.8-0.7C8,11.3,7.7,11,7.2,11
	C7.2,11,7.2,11,7.2,11z"/>
<path class="st1" d="M7.2,15.5c-0.4,0-0.8,0.3-0.8,0.7S6.8,17,7.2,17C7.6,17,8,16.7,8,16.3C8,15.8,7.7,15.5,7.2,15.5
	C7.2,15.5,7.2,15.5,7.2,15.5z"/>
<line class="st0" x1="9" y1="7.3" x2="13" y2="7.3"/>
<line class="st0" x1="9" y1="11.8" x2="15" y2="11.8"/>
<line class="st0" x1="9" y1="16.2" x2="12" y2="16.2"/>
</svg>
