<?xml version="1.0" encoding="utf-8"?>
<!-- Generator: Adobe Illustrator 25.0.1, SVG Export Plug-In . SVG Version: 6.00 Build 0)  -->
<svg version="1.1" id="Layer_1" xmlns="http://www.w3.org/2000/svg" xmlns:xlink="http://www.w3.org/1999/xlink" x="0px" y="0px"
	 viewBox="0 0 22 22" style="enable-background:new 0 0 22 22;" xml:space="preserve">
<style type="text/css">
	.st0{fill:none;stroke:#304050;stroke-width:1.5;stroke-miterlimit:10;}
</style>
<path class="st0" d="M16.9,11.7c0,0.4-0.4,0.7-0.7,0.7h-0.1c-0.3,0-0.6,0.2-0.7,0.5c-0.1,0.3-0.1,0.7,0.2,0.9c0.3,0.3,0.3,0.7,0.1,1
	c-0.3,0.4-0.6,0.7-1,1c-0.1,0.1-0.3,0.2-0.4,0.2c-0.2,0-0.4-0.1-0.5-0.2c-0.2-0.2-0.4-0.3-0.7-0.3c-0.1,0-0.2,0-0.3,0.1
	c-0.3,0.1-0.5,0.4-0.5,0.8c0,0.4-0.3,0.7-0.7,0.8c-0.2,0-0.4,0-0.7,0c-0.2,0-0.5,0-0.7,0c-0.4,0-0.7-0.4-0.7-0.8
	c0-0.3-0.2-0.7-0.5-0.8c-0.1,0-0.2-0.1-0.3-0.1c-0.2,0-0.5,0.1-0.7,0.3c-0.1,0.2-0.3,0.2-0.5,0.2c-0.2,0-0.3-0.1-0.5-0.2
	c-0.4-0.3-0.7-0.6-1-1c-0.2-0.3-0.2-0.7,0.1-1c0.2-0.2,0.3-0.6,0.2-0.9c-0.1-0.3-0.4-0.5-0.7-0.5l0,0c-0.4,0-0.7-0.3-0.8-0.7
	c-0.1-0.5-0.1-0.9,0-1.4c0-0.4,0.4-0.6,0.7-0.6c0.3,0,0.7-0.2,0.8-0.5c0.1-0.3,0.1-0.7-0.2-0.9C6.1,8,6.1,7.5,6.4,7.2
	c0.3-0.4,0.6-0.7,0.9-1c0.1-0.1,0.3-0.2,0.4-0.2c0.2,0,0.4,0.1,0.5,0.2c0.2,0.2,0.4,0.3,0.7,0.3c0.1,0,0.2,0,0.3-0.1
	c0.3-0.1,0.5-0.4,0.5-0.8c0-0.4,0.3-0.7,0.7-0.8c0.4,0,0.9,0,1.3,0c0.4,0,0.7,0.4,0.7,0.8c0,0.3,0.2,0.7,0.5,0.8
	c0.1,0,0.2,0.1,0.3,0.1c0.2,0,0.5-0.1,0.7-0.3c0.1-0.2,0.3-0.2,0.5-0.2c0.2,0,0.3,0.1,0.5,0.2c0.4,0.3,0.7,0.6,1,1
	c0.2,0.3,0.2,0.7-0.1,1c-0.3,0.3-0.4,0.8-0.1,1.1c0.2,0.2,0.4,0.3,0.6,0.3c0.4,0,0.7,0.3,0.8,0.7C17,10.8,17,11.2,16.9,11.7z
	 M11,12.6c-0.9,0-1.6-0.7-1.6-1.6c0-0.9,0.7-1.6,1.6-1.6c0.9,0,1.6,0.7,1.6,1.6c0,0,0,0,0,0C12.6,11.9,11.9,12.6,11,12.6L11,12.6z"
	/>
</svg>
