<svg id="Layer_1" data-name="Layer 1" xmlns="http://www.w3.org/2000/svg" viewBox="0 0 24 24"><defs><style>.cls-1{fill:none;stroke:#304050;stroke-miterlimit:10;stroke-width:1.5px;fill-rule:evenodd;}</style></defs><path class="cls-1" d="M18.43,12.75a.79.79,0,0,1-.78.71h-.11a.91.91,0,0,0-.8.54A.88.88,0,0,0,17,15a.8.8,0,0,1,.09,1.09,6.46,6.46,0,0,1-1.05,1,.79.79,0,0,1-.49.17.8.8,0,0,1-.58-.26,1,1,0,0,0-.68-.28.73.73,0,0,0-.3.06.86.86,0,0,0-.54.84.81.81,0,0,1-.71.82c-.23,0-.47,0-.71,0a6,6,0,0,1-.74,0,.78.78,0,0,1-.7-.83.88.88,0,0,0-.54-.86.75.75,0,0,0-.31-.06A1,1,0,0,0,9,17a.77.77,0,0,1-.59.26.84.84,0,0,1-.5-.17,6.68,6.68,0,0,1-1-1A.79.79,0,0,1,7,14.94a.88.88,0,0,0-.56-1.52h0a.84.84,0,0,1-.85-.71,6,6,0,0,1,0-1.47.79.79,0,0,1,.81-.71A.94.94,0,0,0,7.26,10,.88.88,0,0,0,7,9,.8.8,0,0,1,7,7.94a6.89,6.89,0,0,1,1-1,.79.79,0,0,1,.49-.17A.8.8,0,0,1,9.07,7a1,1,0,0,0,.68.28.94.94,0,0,0,.3,0,.89.89,0,0,0,.54-.85.81.81,0,0,1,.71-.82,6.39,6.39,0,0,1,1.45,0,.78.78,0,0,1,.7.83.88.88,0,0,0,.54.86.73.73,0,0,0,.3.06A1,1,0,0,0,15,7a.77.77,0,0,1,.59-.26.79.79,0,0,1,.49.17,6,6,0,0,1,1,1A.79.79,0,0,1,17,9.06a.86.86,0,0,0-.22,1,.88.88,0,0,0,.82.54.84.84,0,0,1,.84.71A6,6,0,0,1,18.43,12.75Zm-6.43,1A1.72,1.72,0,1,1,13.71,12,1.72,1.72,0,0,1,12,13.71Z"/></svg>