<?xml version="1.0" encoding="UTF-8" standalone="no"?>
<svg
   width="1964"
   height="608"
   viewBox="0 0 1964 608"
   fill="none"
   version="1.1"
   id="svg18"
   sodipodi:docname="glorp_long.svg"
   inkscape:version="1.4 (e7c3feb100, 2024-10-09)"
   xmlns:inkscape="http://www.inkscape.org/namespaces/inkscape"
   xmlns:sodipodi="http://sodipodi.sourceforge.net/DTD/sodipodi-0.dtd"
   xmlns="http://www.w3.org/2000/svg"
   xmlns:svg="http://www.w3.org/2000/svg">
  <sodipodi:namedview
     id="namedview1"
     pagecolor="#ffffff"
     bordercolor="#000000"
     borderopacity="0.25"
     inkscape:showpageshadow="2"
     inkscape:pageopacity="0.0"
     inkscape:pagecheckerboard="0"
     inkscape:deskcolor="#d1d1d1"
     inkscape:zoom="0.35027244"
     inkscape:cx="518.16809"
     inkscape:cy="558.13698"
     inkscape:window-width="1704"
     inkscape:window-height="999"
     inkscape:window-x="0"
     inkscape:window-y="0"
     inkscape:window-maximized="1"
     inkscape:current-layer="svg18" />
  <defs
     id="defs18">
    <linearGradient
       id="paint0_linear_1016_57"
       x1="100"
       y1="100"
       x2="508"
       y2="508"
       gradientUnits="userSpaceOnUse">
      <stop
         offset="0.0684898"
         stop-color="#0047AB"
         id="stop15" />
      <stop
         offset="0.741212"
         stop-color="#8A2BE2"
         id="stop16" />
    </linearGradient>
    <linearGradient
       id="paint1_linear_1016_57"
       x1="1459.63"
       y1="161.55"
       x2="1459.63"
       y2="218.53"
       gradientUnits="userSpaceOnUse">
      <stop
         stop-color="#59CAFD"
         id="stop17" />
      <stop
         offset="1"
         stop-color="#2B50EF"
         id="stop18" />
    </linearGradient>
    <linearGradient
       id="paint0_linear_24_75"
       x1="508"
       y1="622"
       x2="100"
       y2="214"
       gradientUnits="userSpaceOnUse"
       gradientTransform="translate(193.14,-124.45)">
      <stop
         offset="0.0684898"
         stop-color="#22AB00"
         id="stop12" />
      <stop
         offset="0.741212"
         stop-color="#90E22B"
         id="stop13" />
    </linearGradient>
  </defs>
  <path
     d="m 701.14,415.95 c 0,45.066 -36.534,81.6 -81.6,81.6 h -122.4 c -112.666,0 -204,-91.334 -204,-204 v 0 c 0,-112.666 91.334,-203.999999 204,-203.999999 v 0 c 112.666,0 204,91.333999 204,203.999999 z"
     fill="url(#paint0_linear_24_75)"
     id="path1"
     style="fill:url(#paint0_linear_24_75)" />
  <path
     fill-rule="evenodd"
     clip-rule="evenodd"
     d="M 596.692,497.55 H 544.46799 V 393.102 h -109.495 c -45.884,0 -83.081,-37.197 -83.081,-83.081 0,-89.315 72.404,-161.719 161.719,-161.719 45.884,0 83.081,37.197 83.081,83.081 v 109.495 h 104.448 v 52.224 h -104.448 z M 544.46799,340.878 V 231.383 c 0,-17.042 -13.815,-30.857 -30.857,-30.857 -60.47199,0 -109.495,49.023 -109.495,109.495 0,17.042 13.815,30.857 30.857,30.857 z"
     fill="#ffffff"
     fill-opacity="0.5"
     id="path2" />
  <path
     d="m 544.468,446.958 c 0,14.421 11.69,26.112 26.112,26.112 v 0 c 14.421,0 26.112,-11.691 26.112,-26.112 v -53.856 h 53.856 c 14.421,0 26.11199,-11.691 26.11199,-26.112 v 0 c 0,-14.421 -11.691,-26.112 -26.11199,-26.112 h -53.856 v -53.856 c 0,-14.421 -11.69101,-26.112 -26.112,-26.112 v 0 c -14.422,0 -26.112,11.691 -26.112,26.112 v 53.856 h -53.856 c -14.422,0 -26.112,11.691 -26.112,26.112 v 0 c 0,14.421 11.69,26.112 26.112,26.112 h 53.856 z"
     fill="#ffffff"
     fill-opacity="0.7"
     id="path3" />
  <path
     d="m 488.32,371.32 c -3.334,-1.924 -3.334,-6.736 0,-8.66 l 14.376,-8.3 c 3.333,-1.925 7.5,0.481 7.5,4.33 v 16.6 c 0,3.849 -4.167,6.255 -7.5,4.33 z"
     fill="#ffffff"
     id="path4" />
  <path
     d="m 566.25,284.73 c 1.92499,-3.333 6.73599,-3.333 8.66099,0 l 8.3,14.376 c 1.924,3.333 -0.482,7.5 -4.331,7.5 h -16.6 c -3.849,0 -6.254,-4.167 -4.33,-7.5 z"
     fill="#ffffff"
     id="path5" />
  <path
     d="m 574.911,449.25 c -1.925,3.333 -6.736,3.333 -8.661,0 l -8.3,-14.376 c -1.924,-3.333 0.481,-7.5 4.33,-7.5 h 16.6 c 3.849,0 6.255,4.167 4.331,7.5 z"
     fill="#ffffff"
     id="path6" />
  <path
     d="m 652.84,362.66 c 3.33399,1.924 3.33399,6.736 0,8.66 l -14.376,8.3 c -3.333,1.925 -7.5,-0.481 -7.5,-4.33 v -16.6 c 0,-3.849 4.167,-6.255 7.5,-4.33 z"
     fill="#ffffff"
     id="path7" />
  <path
     d="m 838.81,511.735 v -38.71 h 101.12 c 6.846,0 12.113,-2.107 15.8,-6.32 3.95,-4.213 5.92499,-9.48 5.92499,-15.8 v -52.14 h -0.395 c -5.79399,7.11 -11.98199,13.298 -18.565,18.565 -6.584,5.003 -14.089,8.953 -22.515,11.85 -8.164,2.633 -17.249,3.95 -27.255,3.95 -18.434,0 -34.892,-4.345 -49.375,-13.035 -14.484,-8.69 -25.939,-20.803 -34.365,-36.34 -8.164,-15.8 -12.245,-33.838 -12.245,-54.115 0,-19.75 4.081,-37.393 12.245,-52.93 8.426,-15.8 20.408,-28.308 35.945,-37.525 15.536,-9.217 34.496,-13.825 56.88,-13.825 21.33001,0 39.76301,4.477 55.3,13.43 15.8,8.953 28.045,21.593 36.735,37.92 8.69001,16.063 13.03501,34.892 13.03501,56.485 V 452.88 c 0,18.17 -5.267,32.522 -15.80001,43.055 -10.534,10.533 -24.885,15.8 -43.05499,15.8 z M 901.615,394.42 c 12.113,0 22.51499,-2.765 31.205,-8.295 8.953,-5.793 15.8,-13.43 20.54,-22.91 5.003,-9.743 7.505,-20.54 7.505,-32.39 0,-12.64 -2.37,-23.963 -7.11001,-33.97 -4.74,-10.007 -11.58699,-17.907 -20.53999,-23.7 -8.69001,-6.057 -19.22401,-9.085 -31.6,-9.085 -12.11401,0 -22.64701,3.028 -31.60001,9.085 -8.69,5.793 -15.40499,13.693 -20.14499,23.7 -4.74001,9.743 -7.11001,20.803 -7.11001,33.18 0,11.85 2.37,22.647 7.11001,32.39 4.74,9.743 11.455,17.512 20.14499,23.305 8.953,5.793 19.486,8.69 31.60001,8.69 z"
     fill="#ffffff"
     id="path8" />
  <path
     d="M 1040.149,431.55 V 143.2 h 45.425 v 288.35 z"
     fill="#ffffff"
     id="path9" />
  <path
     d="m 1216.29,436.29 c -20.8,0 -39.236,-4.608 -55.299,-13.825 -16.063,-9.48 -28.835,-22.12 -38.315,-37.92 -9.217,-16.063 -13.825,-33.97 -13.825,-53.72 0,-19.75 4.608,-37.525 13.825,-53.325 9.48,-16.063 22.252,-28.703 38.315,-37.92 16.063,-9.48 34.499,-14.22 55.299,-14.22 20.54,0 38.84,4.74 54.91,14.22 16.06,9.217 28.7,21.725 37.92,37.525 9.48,15.8 14.22,33.707 14.22,53.72 0,19.75 -4.74,37.657 -14.22,53.72 -9.22,15.8 -21.86,28.44 -37.92,37.92 -16.07,9.217 -34.37,13.825 -54.91,13.825 z m 0,-38.71 c 12.38,0 23.17,-2.897 32.39,-8.69 9.22,-6.057 16.33,-14.088 21.33,-24.095 5,-10.007 7.51,-21.33 7.51,-33.97 0,-12.377 -2.51,-23.568 -7.51,-33.575 -5,-10.27 -12.11,-18.302 -21.33,-24.095 -9.22,-6.057 -20.01,-9.085 -32.39,-9.085 -12.64,0 -23.567,3.028 -32.784,9.085 -8.953,5.793 -16.063,13.693 -21.33,23.7 -5.003,10.007 -7.505,21.33 -7.505,33.97 0,12.377 2.502,23.7 7.505,33.97 5.267,10.007 12.377,18.038 21.33,24.095 9.217,5.793 20.144,8.69 32.784,8.69 z"
     fill="#ffffff"
     id="path10" />
  <path
     d="M 1345.08,431.55 V 287.375 c 0,-17.907 5,-31.863 15.01,-41.87 10.27,-10.27 24.36,-15.405 42.26,-15.405 h 48.59 v 38.71 h -40.29 c -6.32,0 -11.32,1.843 -15.01,5.53 -3.42,3.687 -5.14,8.69 -5.14,15.01 v 142.2 z"
     fill="#ffffff"
     id="path11" />
  <path
     d="m 1565.79,225.36 c 16.32,0 30.94,2.633 43.84,7.9 12.9,5.003 23.83,12.377 32.79,22.12 9.21,9.743 16.19,21.33 20.93,34.76 5,13.167 7.51,27.782 7.51,43.845 0,20.277 -4.22,38.183 -12.64,53.72 -8.17,15.273 -19.62,27.255 -34.37,35.945 -14.48,8.427 -31.34,12.64 -50.56,12.64 -9.48,0 -18.43,-1.448 -26.86,-4.345 -8.43,-2.897 -16.06,-6.978 -22.91,-12.245 -6.85,-5.267 -12.38,-11.455 -16.59,-18.565 h -0.39 V 518.45 h -45.43 V 333.195 c 0,-22.383 4.35,-41.607 13.04,-57.67 8.95,-16.063 21.33,-28.44 37.13,-37.13 15.8,-8.69 33.97,-13.035 54.51,-13.035 z m 0,38.71 c -11.33,0 -21.47,2.897 -30.42,8.69 -8.95,5.53 -15.93,13.298 -20.93,23.305 -5.01,10.007 -7.51,21.593 -7.51,34.76 0,12.903 2.5,24.49 7.51,34.76 5,10.007 11.98,17.907 20.93,23.7 8.95,5.53 19.22,8.295 30.81,8.295 11.59,0 21.73,-2.897 30.42,-8.69 8.95,-5.793 15.93,-13.693 20.93,-23.7 5,-10.007 7.51,-21.462 7.51,-34.365 0,-13.167 -2.51,-24.753 -7.51,-34.76 -5,-10.007 -11.98,-17.775 -20.93,-23.305 -8.96,-5.793 -19.23,-8.69 -30.81,-8.69 z"
     fill="#ffffff"
     id="path12" />
</svg>
