<?xml version="1.0" encoding="UTF-8" standalone="no"?>
<svg
   version="1.1"
   id="Layer_1"
   x="0px"
   y="0px"
   viewBox="0 0 1090 203"
   style="enable-background:new 0 0 1090 203;"
   sodipodi:docname="tedium.svg"
   inkscape:version="1.4 (e7c3feb100, 2024-10-09)"
   xmlns:inkscape="http://www.inkscape.org/namespaces/inkscape"
   xmlns:sodipodi="http://sodipodi.sourceforge.net/DTD/sodipodi-0.dtd"
   xmlns="http://www.w3.org/2000/svg"
   xmlns:svg="http://www.w3.org/2000/svg">
  <defs
     id="defs1" />
  <sodipodi:namedview
     id="namedview1"
     pagecolor="#ffffff"
     bordercolor="#000000"
     borderopacity="0.25"
     inkscape:showpageshadow="2"
     inkscape:pageopacity="0.0"
     inkscape:pagecheckerboard="0"
     inkscape:deskcolor="#d1d1d1"
     inkscape:zoom="1.0661743"
     inkscape:cx="431.91812"
     inkscape:cy="-128.49681"
     inkscape:window-width="3440"
     inkscape:window-height="1374"
     inkscape:window-x="0"
     inkscape:window-y="0"
     inkscape:window-maximized="1"
     inkscape:current-layer="Layer_1" />
  <style
     type="text/css"
     id="style1">
	.st0{fill-rule:evenodd;clip-rule:evenodd;fill:#FFFFFF;}
</style>
  <path
     class="st0"
     d="M1045.6,199.5v-42.8h44.4v42.8H1045.6z M956.6,167.6H974v-53.7c0-7.9-1.9-14.1-5.5-18.5  c-3.6-4.5-9.1-6.8-16.1-6.8c-5.6,0-10.8,1.6-15.3,4.7c-4.7,3.2-8.3,7.9-10.9,14.1c-2.7,6.3-4,14-4,23.3v36.9H942v32h-75v-32h16.7  v-53.7c0-7.9-1.9-14.1-4.9-18.5c-4.1-4.5-9.3-6.8-16.8-6.8c-5.6,0-10.1,1.6-15.3,4.7c-4.5,3.2-8.3,7.9-10.9,14.1  c-2.7,6.3-4.1,14-4.1,23.3v36.9h18.4v32h-77.8v-32h21.1V91.7h-21.1V60.2h59.3v40h1.2c2-14.7,7.1-25.5,14.9-32.7  c8-7.2,19.2-10.8,31.2-10.8c14.3,0,25.1,4.1,32.1,12.4c6.5,7.5,10.1,17.9,10.7,31.1h1.3c2-14.7,7.1-25.5,14.9-32.7  c8-7.2,18.4-10.8,31.1-10.8c14.3,0,25.1,4.1,32.1,12.4c7.2,8.3,10.8,19.7,10.8,34.7v63.7h20v32h-75.8v-32H956.6z M704.4,158.4h-1.2  c-2,15.2-6.3,26.3-15.2,33.1c-8.1,7.3-18.8,10.9-31.2,10.9c-15.1,0-26-4.1-33.1-12.5c-7.1-8.4-10.8-19.5-10.8-34.5V91.7h-19.1V60.2  h57.3v85c0,7.7,2.7,14.5,5.6,18.7c3.7,4.7,9.2,7.1,17.1,7.1c4.9,0,10.7-1.6,15.1-4.8c4.8-3.2,8.5-7.9,11.5-14.3  c3.2-6.3,4.3-14,4.3-23.3V91.7H684V60.2H743v107.4h20.5v32h-58.9v-41.2H704.4z M536.4,1.5h42.8v36.8h-42.8V1.5z M578.1,167.6h19.7  v32h-79.8v-32h21.7V91.7h-21.7V60.2h60V167.6z M447.4,160.1h-1.3c-1.7,9.1-4.4,16.4-7.7,22.7c-4.1,6.1-9.2,10.9-15.3,14.1  c-6.3,3.3-13.7,4.9-22.4,4.9c-9.5,0-18.1-1.9-25.9-5.6c-7.7-3.7-14.3-8.9-19.7-15.6c-5.5-6.4-9.6-14.3-12.5-23.1  c-2.9-8.8-4.4-18.1-4.4-28.1c0-14.5,2.7-27.2,8-38.1c5.3-10.9,13.1-19.3,22.4-25.2c9.6-5.9,20.9-8.9,33.9-8.9  c10,0,19.3,2.1,27.9,6.5c6.4,3.2,12.1,7.9,17.2,13.6V31.4h-27.3V0.1h65.5v167.5h20.7v32h-58.7v-39.5H447.4z M444.1,110  c-2.8-6.7-6.8-11.2-11.3-14.5c-6-3.3-12.4-4.9-19.2-4.9c-7.9,0-14.3,1.6-19.2,4.9c-5.6,3.3-9.7,7.9-12.5,13.7  c-2.3,5.9-4.3,12.7-4.3,20.4c0,7.9,1.5,14.7,5.1,20.5c3.1,5.9,6.4,10.4,11.7,13.7c5.3,3.3,11.5,4.9,19.2,4.9  c6.8,0,13.1-1.6,18.4-4.9s9.3-7.9,12.1-13.7c2.8-5.9,4.3-12.1,4.3-20.5C448.2,121.6,446.9,114.9,444.1,110z M305.5,140.5h-19.5h-68  c0.8,3.3,1.9,6.4,3.3,9.2c2.9,5.7,7.1,10.3,12.4,13.5c5.3,3.3,11.7,4.9,19.3,4.9s14.1-1.7,19.6-4.4c5.6-4.1,9.6-8,12.8-14.5  l36.5,10.7c-5.2,13.2-13.9,23.2-25.2,30.8c-12.9,7.5-27.3,11.2-44,11.2c-15.5,0-28.4-3.1-40-9.2c-11.2-6.1-19.2-14.5-25.9-25.2  c-6.1-10.8-9.2-23.2-9.2-37.5c0-14.4,3.1-26.9,9.1-37.9s14.7-19.5,25.7-25.6c11.1-6.1,24-9.2,38.8-9.2c15.1,0,28.1,3.1,38.9,9.2  c10.9,6.1,19.2,14.7,25.1,26.4c5.9,10.1,8.8,22.8,8.8,37.2c0,2.4,0,4.4,0,6c0,1.6,0,3.1-0.1,4.5h-18.5V140.5z M282.6,108  c-2.7-5.7-6.1-10.3-11.7-13.6c-5.2-3.2-11.5-4.8-18.4-4.8c-6.7,0-13.6,1.6-18.9,4.9c-5.3,3.3-9.3,8-12.3,14.1  c-1.2,2.7-2.1,5.9-2.9,8.7h67.2C284.9,113.7,283.8,110.8,282.6,108z M153.5,41.3h-38.8v124.4h22.9v33.9H52v-33.9h23.2V41.3H36.3  v37.6H0V7.8h189.8v71.1h-36.3L153.5,41.3L153.5,41.3z"
     id="path1"
     style="fill:#000000" />
</svg>
