<svg id="Layer_1" data-name="Layer 1" xmlns="http://www.w3.org/2000/svg" viewBox="0 0 24 24"><defs><style>.cls-1{fill:none;stroke:#304050;stroke-miterlimit:10;stroke-width:1.5px;}.cls-2{fill:#304050;fill-rule:evenodd;}</style></defs><line class="cls-1" x1="8.37" y1="17.12" x2="15.98" y2="17.12"/><line class="cls-1" x1="8.37" y1="6.88" x2="19.84" y2="6.88"/><line class="cls-1" x1="8.37" y1="12" x2="19.84" y2="12"/><path class="cls-2" d="M6.7,17.12a1.27,1.27,0,1,0-1.27,1.25A1.26,1.26,0,0,0,6.7,17.12Z"/><path class="cls-2" d="M6.7,12.15A1.27,1.27,0,1,0,5.43,13.4,1.27,1.27,0,0,0,6.7,12.15Z"/><path class="cls-2" d="M6.7,6.88A1.27,1.27,0,1,0,5.43,8.13,1.26,1.26,0,0,0,6.7,6.88Z"/></svg>