<?xml version="1.0" encoding="utf-8"?>
<!-- Generator: Adobe Illustrator 25.0.1, SVG Export Plug-In . SVG Version: 6.00 Build 0)  -->
<svg version="1.1" id="Layer_1" xmlns="http://www.w3.org/2000/svg" xmlns:xlink="http://www.w3.org/1999/xlink" x="0px" y="0px"
	 viewBox="0 0 150 120" style="enable-background:new 0 0 150 120;" xml:space="preserve">
<style type="text/css">
	.st0{fill:none;stroke:#7d818e;opacity:.7;stroke-width:3;stroke-linecap:round;stroke-linejoin:round;}
	.st1{fill:#7355A3;}
</style>
<polyline class="st0" points="124,40.6 124,28.8 25.6,28.8 25.6,108 107.7,108 "/>
<polyline class="st0" points="25.6,28.8 25.6,12 124,12 124,28.8 "/>
<g id="woo_mono">
	<path class="st1" d="M122.3,102.5l-2.4-10.3h16.4c4.5,0,8.1-3.6,8.1-8.1c0,0,0-0.1,0-0.1V57.3c0-4.5-3.6-8-8.1-8H66
		c-4.4,0-8,3.5-8,7.9c0,0,0,0.1,0,0.1V84c0,4.4,3.5,8.1,8,8.1c0,0,0,0,0.1,0h39.3c0,0,10.9,9.4,13.7,12
		C121.9,106.7,122.8,104.7,122.3,102.5z M93.8,84.5c0.1,0.8-0.1,1.6-0.4,2.3c-0.3,0.7-1.1,1.2-1.9,1.3c-1.1,0-2.1-0.5-2.8-1.3
		C85,82.5,82.3,77.5,81,72l-5,10.1c-2.1,4-3.8,6-5.3,6s-1.7-0.7-2.5-2.4C65.3,77,63.3,68,62.1,59c-0.2-0.8,0-1.7,0.5-2.3
		c0.5-0.7,1.4-1.1,2.2-1.1c1.4-0.3,2.7,0.7,3,2.1c0,0.2,0,0.3,0,0.5c1.1,7.4,2.3,13.6,3.5,18.7L79.6,62c0.4-1.1,1.4-1.9,2.6-2.1
		c1.6,0,2.5,0.8,2.9,2.9c0.7,4.1,1.8,8.1,3.3,12c0.4-6.7,1.9-13.2,4.7-19.3c0.4-0.9,1.2-1.4,2.1-1.6c0.8-0.1,1.6,0.1,2.2,0.7
		c1.1,0.9,1.4,2.5,0.7,3.7c-1.7,4-2.9,8.3-3.4,12.7C94,75.5,93.6,80,93.8,84.5z M115.4,79c-1.6,3.2-4.8,5.2-8.3,5.3
		c-0.6,0.1-1.2,0.1-1.9,0c-2.4-0.4-4.5-1.9-5.6-4.1c-1.2-2.1-1.8-4.5-1.7-6.9c0-3.5,0.9-6.9,2.7-9.9c1.6-3.2,4.8-5.2,8.3-5.3h1.9
		c2.4,0.5,4.4,2,5.6,4.1c1.2,2.1,1.8,4.5,1.7,6.9c0.1,3.5-0.8,6.9-2.5,9.9H115.4z M137.3,79c-1.6,3.2-4.8,5.2-8.3,5.3
		c-0.6,0.1-1.2,0.1-1.9,0c-2.4-0.4-4.5-1.9-5.6-4.1c-1.2-2.1-1.7-4.5-1.7-6.9c-0.1-3.5,0.9-6.9,2.8-9.9c1.5-3.2,4.7-5.2,8.2-5.3h1.9
		c2.4,0.5,4.4,2,5.6,4.1c1.2,2.1,1.7,4.5,1.7,6.9C140.1,72.6,139.1,76,137.3,79z"/>
	<path class="st1" d="M131.5,63.8c-1.3-0.3-2.5,0.4-3.7,2.2c-0.9,1.3-1.5,2.7-1.9,4.2c-0.1,0.8-0.1,1.7,0,2.5c0,1.1,0.2,2.2,0.6,3.2
		c0.5,1.3,1.3,2.1,2.1,2.3c1.1,0.1,2.1-0.4,2.8-1.1c1.5-1.4,2.4-3.2,2.7-5.2c0.1-0.9,0.1-1.7,0-2.6c0-1.1-0.2-2.2-0.6-3.2
		C133.1,64.7,132.3,63.9,131.5,63.8z"/>
	<path class="st1" d="M111.5,66c-0.5-1.4-1.2-2.1-2-2.3c-0.8-0.2-2.5,0.4-3.7,2.2c-0.9,1.3-1.5,2.7-1.9,4.2c-0.1,0.8-0.1,1.7,0,2.5
		c0,1.1,0.2,2.2,0.7,3.2c0.5,1.3,1.2,2.1,2,2.3c1.1,0.1,2.1-0.4,2.8-1.1c2-2.1,3-4.9,2.9-7.8C112.3,68.1,112,67,111.5,66z"/>
</g>
<line class="st0" x1="25.6" y1="68.4" x2="47.9" y2="68.4"/>
</svg>
