<svg id="Layer_1" data-name="Layer 1" xmlns="http://www.w3.org/2000/svg" viewBox="0 0 150 120"><defs><style>.cls-1{fill:#7d818e;opacity:.7;}</style></defs><path class="cls-1" d="M13.62,10H136.38A3.64,3.64,0,0,1,140,13.67V68.33A3.64,3.64,0,0,1,136.38,72H13.62A3.64,3.64,0,0,1,10,68.33V13.67A3.64,3.64,0,0,1,13.62,10Z"/><path class="cls-1" d="M120.47,83h18.06A1.49,1.49,0,0,1,140,84.5h0a1.49,1.49,0,0,1-1.47,1.5H120.47A1.49,1.49,0,0,1,119,84.5h0A1.49,1.49,0,0,1,120.47,83Z"/><circle class="cls-1" cx="137.5" cy="93.5" r="2.5"/><circle class="cls-1" cx="121.5" cy="93.5" r="2.5"/><circle class="cls-1" cx="129.5" cy="93.5" r="2.5"/><path class="cls-1" d="M102.72,101h35.55a1.72,1.72,0,0,1,1.73,1.73v4.55a1.72,1.72,0,0,1-1.72,1.72H102.73a1.72,1.72,0,0,1-1.73-1.73v-4.55A1.72,1.72,0,0,1,102.72,101Z"/><path class="cls-1" d="M11.5,92h58A1.5,1.5,0,0,1,71,93.5h0A1.5,1.5,0,0,1,69.5,95h-58A1.5,1.5,0,0,1,10,93.5h0A1.5,1.5,0,0,1,11.5,92Z"/><path class="cls-1" d="M11.5,105H50a1.5,1.5,0,0,1,1.5,1.5h0A1.5,1.5,0,0,1,50,108H11.5a1.5,1.5,0,0,1-1.5-1.5h0A1.5,1.5,0,0,1,11.5,105Z"/><path class="cls-1" d="M11.5,98h58A1.5,1.5,0,0,1,71,99.5h0a1.5,1.5,0,0,1-1.5,1.5h-58A1.5,1.5,0,0,1,10,99.5h0A1.5,1.5,0,0,1,11.5,98Z"/><path class="cls-1" d="M11.5,83h26A1.5,1.5,0,0,1,39,84.5h0A1.5,1.5,0,0,1,37.5,86h-26A1.5,1.5,0,0,1,10,84.5h0A1.5,1.5,0,0,1,11.5,83Z"/></svg>