<?xml version="1.0" encoding="UTF-8" standalone="no"?>
<svg
   width="1478.76"
   height="100.48"
   viewBox="0 0 1478.76 100.48"
   fill="none"
   version="1.1"
   id="svg75"
   xmlns="http://www.w3.org/2000/svg"
   xmlns:svg="http://www.w3.org/2000/svg">
  <g
     id="g1"
     transform="translate(-210.61899,-653.008)">
    <rect
       x="210.61899"
       y="653.008"
       width="1478.76"
       height="100.48"
       rx="50.240002"
       fill="url(#paint2_linear_1019_206)"
       id="rect38"
       style="fill:url(#paint2_linear_1019_206)" />
    <path
       d="m 380.619,724.40801 7.872,-44.8 h 14.656 c 3.2,0 5.781,0.533 7.744,1.6 2.005,1.067 3.456,2.496 4.352,4.288 0.896,1.792 1.301,3.755 1.216,5.888 -0.128,2.987 -0.939,5.568 -2.432,7.744 -1.493,2.176 -3.563,3.861 -6.208,5.056 -2.645,1.195 -5.739,1.792 -9.28,1.792 h -9.28 l -3.264,18.432 z m 9.408,-22.976 h 9.152 c 3.712,0 6.549,-0.811 8.512,-2.432 1.963,-1.664 3.008,-4.096 3.136,-7.296 0.128,-2.261 -0.469,-4.096 -1.792,-5.504 -1.323,-1.408 -3.584,-2.112 -6.784,-2.112 h -9.152 z"
       fill="#ffffff"
       id="path39" />
    <path
       d="m 431.08,725.17601 c -2.773,0 -5.205,-0.619 -7.296,-1.856 -2.048,-1.28 -3.605,-3.029 -4.672,-5.248 -1.067,-2.261 -1.536,-4.821 -1.408,-7.68 0.128,-2.731 0.683,-5.248 1.664,-7.552 1.024,-2.347 2.389,-4.352 4.096,-6.016 1.749,-1.707 3.733,-3.029 5.952,-3.968 2.261,-0.981 4.651,-1.472 7.168,-1.472 2.773,0 5.184,0.619 7.232,1.856 2.091,1.237 3.669,2.944 4.736,5.12 1.109,2.176 1.579,4.736 1.408,7.68 -0.128,2.773 -0.704,5.333 -1.728,7.68 -0.981,2.304 -2.347,4.309 -4.096,6.016 -1.707,1.707 -3.669,3.051 -5.888,4.032 -2.219,0.939 -4.608,1.408 -7.168,1.408 z m 0.704,-4.608 c 2.304,0 4.373,-0.597 6.208,-1.792 1.877,-1.195 3.392,-2.859 4.544,-4.992 1.152,-2.176 1.792,-4.651 1.92,-7.424 0.128,-2.261 -0.192,-4.139 -0.96,-5.632 -0.725,-1.536 -1.771,-2.709 -3.136,-3.52 -1.323,-0.811 -2.816,-1.216 -4.48,-1.216 -2.261,0 -4.309,0.619 -6.144,1.856 -1.835,1.195 -3.328,2.859 -4.48,4.992 -1.152,2.133 -1.792,4.608 -1.92,7.424 -0.128,2.176 0.171,4.032 0.896,5.568 0.725,1.536 1.749,2.709 3.072,3.52 1.365,0.811 2.859,1.216 4.48,1.216 z"
       fill="#ffffff"
       id="path40" />
    <path
       d="m 459.766,724.40801 -3.84,-32.256 h 5.44 l 2.496,27.2 h -1.024 l 12.928,-27.2 h 6.08 l 3.264,27.136 -1.024,0.064 12.16,-27.2 h 5.376 l -15.104,32.256 h -5.504 l -3.392,-28.416 h 1.024 l -13.44,28.416 z"
       fill="#ffffff"
       id="path41" />
    <path
       d="m 515.442,725.17601 c -2.688,0 -5.035,-0.597 -7.04,-1.792 -1.963,-1.195 -3.456,-2.88 -4.48,-5.056 -0.982,-2.176 -1.408,-4.715 -1.28,-7.616 0.128,-2.773 0.682,-5.312 1.664,-7.616 0.981,-2.347 2.304,-4.395 3.968,-6.144 1.706,-1.749 3.669,-3.115 5.888,-4.096 2.218,-0.981 4.629,-1.472 7.232,-1.472 2.901,0 5.29,0.597 7.168,1.792 1.92,1.195 3.328,2.795 4.224,4.8 0.896,1.963 1.28,4.139 1.152,6.528 -0.043,0.725 -0.15,1.557 -0.32,2.496 -0.128,0.896 -0.278,1.728 -0.448,2.496 h -26.368 l 0.704,-4.16 h 21.12 c 0.298,-2.005 0.128,-3.691 -0.512,-5.056 -0.64,-1.408 -1.6,-2.475 -2.88,-3.2 -1.28,-0.768 -2.816,-1.152 -4.608,-1.152 -1.835,0 -3.606,0.427 -5.312,1.28 -1.664,0.811 -3.115,2.027 -4.352,3.648 -1.238,1.579 -2.07,3.563 -2.496,5.952 l -0.32,1.792 c -0.47,2.389 -0.427,4.501 0.128,6.336 0.554,1.835 1.514,3.243 2.88,4.224 1.408,0.981 3.114,1.472 5.12,1.472 2.261,0 4.202,-0.491 5.824,-1.472 1.664,-1.024 2.965,-2.389 3.904,-4.096 h 5.312 c -0.896,1.92 -2.112,3.648 -3.648,5.184 -1.494,1.536 -3.286,2.752 -5.376,3.648 -2.048,0.853 -4.331,1.28 -6.848,1.28 z"
       fill="#ffffff"
       id="path42" />
    <path
       d="m 537.862,724.40801 5.632,-32.256 h 4.928 l -0.64,5.76 c 0.981,-1.365 2.133,-2.517 3.456,-3.456 1.322,-0.981 2.837,-1.728 4.544,-2.24 1.706,-0.555 3.541,-0.832 5.504,-0.832 l -0.96,5.632 h -1.984 c -1.366,0 -2.71,0.171 -4.032,0.512 -1.28,0.341 -2.475,0.896 -3.584,1.664 -1.067,0.768 -1.984,1.792 -2.752,3.072 -0.768,1.237 -1.323,2.795 -1.664,4.672 l -3.072,17.472 z"
       fill="#ffffff"
       id="path43" />
    <path
       d="m 574.754,725.17601 c -2.688,0 -5.035,-0.597 -7.04,-1.792 -1.963,-1.195 -3.456,-2.88 -4.48,-5.056 -0.981,-2.176 -1.408,-4.715 -1.28,-7.616 0.128,-2.773 0.683,-5.312 1.664,-7.616 0.981,-2.347 2.304,-4.395 3.968,-6.144 1.707,-1.749 3.669,-3.115 5.888,-4.096 2.219,-0.981 4.629,-1.472 7.232,-1.472 2.901,0 5.291,0.597 7.168,1.792 1.92,1.195 3.328,2.795 4.224,4.8 0.896,1.963 1.28,4.139 1.152,6.528 -0.043,0.725 -0.149,1.557 -0.32,2.496 -0.128,0.896 -0.277,1.728 -0.448,2.496 h -26.368 l 0.704,-4.16 h 21.12 c 0.299,-2.005 0.128,-3.691 -0.512,-5.056 -0.64,-1.408 -1.6,-2.475 -2.88,-3.2 -1.28,-0.768 -2.816,-1.152 -4.608,-1.152 -1.835,0 -3.605,0.427 -5.312,1.28 -1.664,0.811 -3.115,2.027 -4.352,3.648 -1.237,1.579 -2.069,3.563 -2.496,5.952 l -0.32,1.792 c -0.469,2.389 -0.427,4.501 0.128,6.336 0.555,1.835 1.515,3.243 2.88,4.224 1.408,0.981 3.115,1.472 5.12,1.472 2.261,0 4.203,-0.491 5.824,-1.472 1.664,-1.024 2.965,-2.389 3.904,-4.096 h 5.312 c -0.896,1.92 -2.112,3.648 -3.648,5.184 -1.493,1.536 -3.285,2.752 -5.376,3.648 -2.048,0.853 -4.331,1.28 -6.848,1.28 z"
       fill="#ffffff"
       id="path44" />
    <path
       d="m 611.254,725.17601 c -2.773,0 -5.141,-0.661 -7.104,-1.984 -1.963,-1.323 -3.435,-3.115 -4.416,-5.376 -0.981,-2.304 -1.387,-4.821 -1.216,-7.552 0.128,-2.773 0.661,-5.291 1.6,-7.552 0.981,-2.304 2.283,-4.288 3.904,-5.952 1.664,-1.707 3.563,-3.029 5.696,-3.968 2.176,-0.939 4.48,-1.408 6.912,-1.408 2.773,0 5.035,0.555 6.784,1.664 1.792,1.109 3.115,2.581 3.968,4.416 l 3.392,-19.136 h 5.376 l -8.128,46.08 h -4.928 l 0.448,-5.312 c -0.811,1.067 -1.813,2.069 -3.008,3.008 -1.152,0.896 -2.496,1.643 -4.032,2.24 -1.536,0.555 -3.285,0.832 -5.248,0.832 z m 1.536,-4.672 c 2.389,0 4.501,-0.619 6.336,-1.856 1.877,-1.28 3.371,-2.987 4.48,-5.12 1.109,-2.176 1.728,-4.608 1.856,-7.296 0.128,-2.048 -0.149,-3.819 -0.832,-5.312 -0.64,-1.536 -1.643,-2.731 -3.008,-3.584 -1.323,-0.853 -2.944,-1.28 -4.864,-1.28 -2.304,0 -4.395,0.597 -6.272,1.792 -1.877,1.152 -3.392,2.773 -4.544,4.864 -1.109,2.091 -1.728,4.48 -1.856,7.168 -0.128,2.048 0.149,3.883 0.832,5.504 0.683,1.621 1.685,2.88 3.008,3.776 1.365,0.896 2.987,1.344 4.864,1.344 z"
       fill="#ffffff"
       id="path45" />
    <path
       d="m 671.817,725.17601 c -1.792,0 -3.413,-0.299 -4.864,-0.896 -1.408,-0.597 -2.603,-1.365 -3.584,-2.304 -0.939,-0.939 -1.643,-1.899 -2.112,-2.88 l -1.408,5.312 h -4.864 l 8.128,-46.08 h 5.376 l -3.328,18.88 c 1.323,-1.621 2.987,-2.987 4.992,-4.096 2.005,-1.152 4.395,-1.728 7.168,-1.728 2.816,0 5.205,0.64 7.168,1.92 1.963,1.28 3.435,3.029 4.416,5.248 0.981,2.176 1.408,4.672 1.28,7.488 -0.128,2.688 -0.683,5.205 -1.664,7.552 -0.939,2.347 -2.24,4.395 -3.904,6.144 -1.664,1.707 -3.584,3.051 -5.76,4.032 -2.176,0.939 -4.523,1.408 -7.04,1.408 z m 0.256,-4.672 c 2.304,0 4.373,-0.597 6.208,-1.792 1.877,-1.195 3.371,-2.837 4.48,-4.928 1.109,-2.091 1.728,-4.48 1.856,-7.168 0.128,-2.048 -0.149,-3.861 -0.832,-5.44 -0.683,-1.621 -1.707,-2.88 -3.072,-3.776 -1.323,-0.896 -2.923,-1.344 -4.8,-1.344 -2.347,0 -4.459,0.619 -6.336,1.856 -1.835,1.237 -3.328,2.923 -4.48,5.056 -1.152,2.091 -1.771,4.48 -1.856,7.168 -0.128,2.091 0.149,3.925 0.832,5.504 0.683,1.536 1.707,2.731 3.072,3.584 1.365,0.853 3.008,1.28 4.928,1.28 z"
       fill="#ffffff"
       id="path46" />
    <path
       d="m 693.512,738.48801 10.752,-17.28 h -1.792 l -7.552,-29.056 h 5.568 l 6.336,25.088 15.488,-25.088 h 5.632 l -28.864,46.336 z"
       fill="#ffffff"
       id="path47" />
    <path
       d="m 746.432,724.40801 7.872,-44.8 h 26.816 l -0.768,4.352 h -21.44 l -2.752,15.872 h 18.048 l -0.768,4.224 h -18.048 l -3.584,20.352 z"
       fill="#ffffff"
       id="path48" />
    <path
       d="m 792.567,725.17601 c -2.688,0 -5.035,-0.597 -7.04,-1.792 -1.963,-1.195 -3.456,-2.88 -4.48,-5.056 -0.982,-2.176 -1.408,-4.715 -1.28,-7.616 0.128,-2.773 0.682,-5.312 1.664,-7.616 0.981,-2.347 2.304,-4.395 3.968,-6.144 1.706,-1.749 3.669,-3.115 5.888,-4.096 2.218,-0.981 4.629,-1.472 7.232,-1.472 2.901,0 5.29,0.597 7.168,1.792 1.92,1.195 3.328,2.795 4.224,4.8 0.896,1.963 1.28,4.139 1.152,6.528 -0.043,0.725 -0.15,1.557 -0.32,2.496 -0.128,0.896 -0.278,1.728 -0.448,2.496 h -26.368 l 0.704,-4.16 h 21.12 c 0.298,-2.005 0.128,-3.691 -0.512,-5.056 -0.64,-1.408 -1.6,-2.475 -2.88,-3.2 -1.28,-0.768 -2.816,-1.152 -4.608,-1.152 -1.835,0 -3.606,0.427 -5.312,1.28 -1.664,0.811 -3.115,2.027 -4.352,3.648 -1.238,1.579 -2.07,3.563 -2.496,5.952 l -0.32,1.792 c -0.47,2.389 -0.427,4.501 0.128,6.336 0.554,1.835 1.514,3.243 2.88,4.224 1.408,0.981 3.114,1.472 5.12,1.472 2.261,0 4.202,-0.491 5.824,-1.472 1.664,-1.024 2.965,-2.389 3.904,-4.096 h 5.312 c -0.896,1.92 -2.112,3.648 -3.648,5.184 -1.494,1.536 -3.286,2.752 -5.376,3.648 -2.048,0.853 -4.331,1.28 -6.848,1.28 z"
       fill="#ffffff"
       id="path49" />
    <path
       d="m 829.067,725.17601 c -2.774,0 -5.142,-0.661 -7.104,-1.984 -1.963,-1.323 -3.435,-3.115 -4.416,-5.376 -0.982,-2.304 -1.387,-4.821 -1.216,-7.552 0.128,-2.773 0.661,-5.291 1.6,-7.552 0.981,-2.304 2.282,-4.288 3.904,-5.952 1.664,-1.707 3.562,-3.029 5.696,-3.968 2.176,-0.939 4.48,-1.408 6.912,-1.408 2.773,0 5.034,0.555 6.784,1.664 1.792,1.109 3.114,2.581 3.968,4.416 l 3.392,-19.136 h 5.376 l -8.128,46.08 h -4.928 l 0.448,-5.312 c -0.811,1.067 -1.814,2.069 -3.008,3.008 -1.152,0.896 -2.496,1.643 -4.032,2.24 -1.536,0.555 -3.286,0.832 -5.248,0.832 z m 1.536,-4.672 c 2.389,0 4.501,-0.619 6.336,-1.856 1.877,-1.28 3.37,-2.987 4.48,-5.12 1.109,-2.176 1.728,-4.608 1.856,-7.296 0.128,-2.048 -0.15,-3.819 -0.832,-5.312 -0.64,-1.536 -1.643,-2.731 -3.008,-3.584 -1.323,-0.853 -2.944,-1.28 -4.864,-1.28 -2.304,0 -4.395,0.597 -6.272,1.792 -1.878,1.152 -3.392,2.773 -4.544,4.864 -1.11,2.091 -1.728,4.48 -1.856,7.168 -0.128,2.048 0.149,3.883 0.832,5.504 0.682,1.621 1.685,2.88 3.008,3.776 1.365,0.896 2.986,1.344 4.864,1.344 z"
       fill="#ffffff"
       id="path50" />
    <path
       d="m 869.455,725.17601 c -2.773,0 -5.205,-0.619 -7.296,-1.856 -2.048,-1.28 -3.605,-3.029 -4.672,-5.248 -1.067,-2.261 -1.536,-4.821 -1.408,-7.68 0.128,-2.731 0.683,-5.248 1.664,-7.552 1.024,-2.347 2.389,-4.352 4.096,-6.016 1.749,-1.707 3.733,-3.029 5.952,-3.968 2.261,-0.981 4.651,-1.472 7.168,-1.472 2.773,0 5.184,0.619 7.232,1.856 2.091,1.237 3.669,2.944 4.736,5.12 1.109,2.176 1.579,4.736 1.408,7.68 -0.128,2.773 -0.704,5.333 -1.728,7.68 -0.981,2.304 -2.347,4.309 -4.096,6.016 -1.707,1.707 -3.669,3.051 -5.888,4.032 -2.219,0.939 -4.608,1.408 -7.168,1.408 z m 0.704,-4.608 c 2.304,0 4.373,-0.597 6.208,-1.792 1.877,-1.195 3.392,-2.859 4.544,-4.992 1.152,-2.176 1.792,-4.651 1.92,-7.424 0.128,-2.261 -0.192,-4.139 -0.96,-5.632 -0.725,-1.536 -1.771,-2.709 -3.136,-3.52 -1.323,-0.811 -2.816,-1.216 -4.48,-1.216 -2.261,0 -4.309,0.619 -6.144,1.856 -1.835,1.195 -3.328,2.859 -4.48,4.992 -1.152,2.133 -1.792,4.608 -1.92,7.424 -0.128,2.176 0.171,4.032 0.896,5.568 0.725,1.536 1.749,2.709 3.072,3.52 1.365,0.811 2.859,1.216 4.48,1.216 z"
       fill="#ffffff"
       id="path51" />
    <path
       d="m 892.924,724.40801 5.632,-32.256 h 4.928 l -0.64,5.76 c 0.981,-1.365 2.133,-2.517 3.456,-3.456 1.323,-0.981 2.837,-1.728 4.544,-2.24 1.707,-0.555 3.541,-0.832 5.504,-0.832 l -0.96,5.632 h -1.984 c -1.365,0 -2.709,0.171 -4.032,0.512 -1.28,0.341 -2.475,0.896 -3.584,1.664 -1.067,0.768 -1.984,1.792 -2.752,3.072 -0.768,1.237 -1.323,2.795 -1.664,4.672 l -3.072,17.472 z"
       fill="#ffffff"
       id="path52" />
    <path
       d="m 926.914,725.17601 c -2.389,0 -4.352,-0.405 -5.888,-1.216 -1.493,-0.853 -2.581,-1.963 -3.264,-3.328 -0.683,-1.408 -0.981,-2.901 -0.896,-4.48 0.085,-2.304 0.789,-4.288 2.112,-5.952 1.323,-1.664 3.157,-2.944 5.504,-3.84 2.347,-0.896 5.035,-1.344 8.064,-1.344 h 8.512 c 0.341,-2.048 0.32,-3.733 -0.064,-5.056 -0.341,-1.365 -1.045,-2.368 -2.112,-3.008 -1.067,-0.683 -2.453,-1.024 -4.16,-1.024 -2.048,0 -3.904,0.512 -5.568,1.536 -1.664,1.024 -2.859,2.539 -3.584,4.544 h -5.568 c 0.683,-2.304 1.792,-4.224 3.328,-5.76 1.579,-1.579 3.413,-2.773 5.504,-3.584 2.091,-0.853 4.288,-1.28 6.592,-1.28 2.901,0 5.248,0.555 7.04,1.664 1.835,1.067 3.072,2.581 3.712,4.544 0.683,1.92 0.789,4.203 0.32,6.848 l -3.456,19.968 h -4.864 l 0.704,-5.696 c -0.597,0.896 -1.301,1.749 -2.112,2.56 -0.768,0.768 -1.643,1.451 -2.624,2.048 -0.981,0.597 -2.069,1.045 -3.264,1.344 -1.195,0.341 -2.517,0.512 -3.968,0.512 z m 1.6,-4.544 c 1.493,0 2.923,-0.299 4.288,-0.896 1.408,-0.64 2.645,-1.493 3.712,-2.56 1.109,-1.067 1.984,-2.261 2.624,-3.584 0.683,-1.323 1.045,-2.709 1.088,-4.16 l 0.064,-0.256 h -8.064 c -2.005,0 -3.733,0.277 -5.184,0.832 -1.408,0.512 -2.496,1.259 -3.264,2.24 -0.725,0.939 -1.131,2.069 -1.216,3.392 -0.085,1.536 0.384,2.752 1.408,3.648 1.024,0.896 2.539,1.344 4.544,1.344 z"
       fill="#ffffff"
       id="path53" />
    <path
       d="m 980.289,725.17601 c -2.389,0 -4.352,-0.405 -5.888,-1.216 -1.493,-0.853 -2.581,-1.963 -3.264,-3.328 -0.683,-1.408 -0.981,-2.901 -0.896,-4.48 0.085,-2.304 0.789,-4.288 2.112,-5.952 1.323,-1.664 3.157,-2.944 5.504,-3.84 2.347,-0.896 5.035,-1.344 8.064,-1.344 h 8.512 c 0.341,-2.048 0.32,-3.733 -0.064,-5.056 -0.341,-1.365 -1.045,-2.368 -2.112,-3.008 -1.067,-0.683 -2.453,-1.024 -4.16,-1.024 -2.048,0 -3.904,0.512 -5.568,1.536 -1.664,1.024 -2.859,2.539 -3.584,4.544 h -5.568 c 0.683,-2.304 1.792,-4.224 3.328,-5.76 1.579,-1.579 3.413,-2.773 5.504,-3.584 2.091,-0.853 4.288,-1.28 6.592,-1.28 2.901,0 5.248,0.555 7.04,1.664 1.835,1.067 3.072,2.581 3.712,4.544 0.683,1.92 0.789,4.203 0.32,6.848 l -3.456,19.968 h -4.864 l 0.704,-5.696 c -0.597,0.896 -1.301,1.749 -2.112,2.56 -0.768,0.768 -1.643,1.451 -2.624,2.048 -0.981,0.597 -2.069,1.045 -3.264,1.344 -1.195,0.341 -2.517,0.512 -3.968,0.512 z m 1.6,-4.544 c 1.493,0 2.923,-0.299 4.288,-0.896 1.408,-0.64 2.645,-1.493 3.712,-2.56 1.109,-1.067 1.984,-2.261 2.624,-3.584 0.683,-1.323 1.045,-2.709 1.088,-4.16 l 0.064,-0.256 h -8.064 c -2.005,0 -3.733,0.277 -5.184,0.832 -1.408,0.512 -2.496,1.259 -3.264,2.24 -0.725,0.939 -1.131,2.069 -1.216,3.392 -0.085,1.536 0.384,2.752 1.408,3.648 1.024,0.896 2.539,1.344 4.544,1.344 z"
       fill="#ffffff"
       id="path54" />
    <path
       d="m 1005.362,724.40801 5.632,-32.256 h 4.864 l -0.64,5.632 c 1.365,-2.005 3.093,-3.563 5.184,-4.672 2.09,-1.152 4.352,-1.728 6.784,-1.728 2.645,0 4.778,0.576 6.4,1.728 1.664,1.109 2.794,2.688 3.392,4.736 0.597,2.048 0.64,4.48 0.128,7.296 l -3.392,19.264 h -5.376 l 3.264,-18.688 c 0.554,-3.115 0.298,-5.504 -0.768,-7.168 -1.067,-1.707 -2.944,-2.56 -5.632,-2.56 -1.75,0 -3.414,0.427 -4.992,1.28 -1.536,0.853 -2.859,2.069 -3.968,3.648 -1.11,1.579 -1.92,3.52 -2.432,5.824 l -3.072,17.664 z"
       fill="#ffffff"
       id="path55" />
    <path
       d="m 1056.192,725.17601 c -2.774,0 -5.142,-0.661 -7.104,-1.984 -1.963,-1.323 -3.435,-3.115 -4.416,-5.376 -0.982,-2.304 -1.387,-4.821 -1.216,-7.552 0.128,-2.773 0.661,-5.291 1.6,-7.552 0.981,-2.304 2.282,-4.288 3.904,-5.952 1.664,-1.707 3.562,-3.029 5.696,-3.968 2.176,-0.939 4.48,-1.408 6.912,-1.408 2.773,0 5.034,0.555 6.787,1.664 1.79,1.109 3.11,2.581 3.96,4.416 l 3.4,-19.136 h 5.37 l -8.13,46.08 h -4.923 l 0.443,-5.312 c -0.806,1.067 -1.809,2.069 -3.003,3.008 -1.152,0.896 -2.496,1.643 -4.032,2.24 -1.536,0.555 -3.286,0.832 -5.248,0.832 z m 1.536,-4.672 c 2.389,0 4.501,-0.619 6.336,-1.856 1.877,-1.28 3.37,-2.987 4.481,-5.12 1.11,-2.176 1.73,-4.608 1.85,-7.296 0.13,-2.048 -0.14,-3.819 -0.83,-5.312 -0.64,-1.536 -1.64,-2.731 -3.005,-3.584 -1.323,-0.853 -2.944,-1.28 -4.864,-1.28 -2.304,0 -4.395,0.597 -6.272,1.792 -1.878,1.152 -3.392,2.773 -4.544,4.864 -1.11,2.091 -1.728,4.48 -1.856,7.168 -0.128,2.048 0.149,3.883 0.832,5.504 0.682,1.621 1.685,2.88 3.008,3.776 1.365,0.896 2.986,1.344 4.864,1.344 z"
       fill="#ffffff"
       id="path56" />
    <path
       d="m 1116.305,725.17601 c -3.41,0 -6.25,-0.661 -8.51,-1.984 -2.22,-1.365 -3.78,-3.328 -4.67,-5.888 -0.9,-2.603 -1.03,-5.739 -0.39,-9.408 l 5.06,-28.288 h 5.38 l -5.06,28.288 c -0.47,2.645 -0.45,4.907 0.06,6.784 0.56,1.835 1.58,3.243 3.08,4.224 1.49,0.939 3.47,1.408 5.95,1.408 2.26,0 4.29,-0.427 6.08,-1.28 1.83,-0.853 3.37,-2.197 4.61,-4.032 1.28,-1.835 2.17,-4.203 2.68,-7.104 l 5.06,-28.288 h 5.38 l -5,28.288 c -0.68,3.968 -2,7.232 -3.96,9.792 -1.92,2.517 -4.25,4.395 -6.98,5.632 -2.73,1.237 -5.65,1.856 -8.77,1.856 z"
       fill="#ffffff"
       id="path57" />
    <path
       d="m 1141.925,724.40801 5.63,-32.256 h 4.87 l -0.64,5.632 c 1.36,-2.005 3.09,-3.563 5.18,-4.672 2.09,-1.152 4.35,-1.728 6.78,-1.728 2.65,0 4.78,0.576 6.4,1.728 1.67,1.109 2.8,2.688 3.4,4.736 0.59,2.048 0.64,4.48 0.12,7.296 l -3.39,19.264 h -5.37 l 3.26,-18.688 c 0.55,-3.115 0.3,-5.504 -0.77,-7.168 -1.07,-1.707 -2.94,-2.56 -5.63,-2.56 -1.75,0 -3.41,0.427 -4.99,1.28 -1.54,0.853 -2.86,2.069 -3.97,3.648 -1.11,1.579 -1.92,3.52 -2.43,5.824 l -3.07,17.664 z"
       fill="#ffffff"
       id="path58" />
    <path
       d="m 1179.185,724.40801 5.7,-32.256 h 5.37 l -5.69,32.256 z m 10.24,-39.104 c -1.07,0 -1.94,-0.341 -2.62,-1.024 -0.69,-0.683 -1.05,-1.557 -1.09,-2.624 0,-1.067 0.34,-1.941 1.02,-2.624 0.73,-0.683 1.62,-1.024 2.69,-1.024 1.03,0 1.9,0.341 2.63,1.024 0.72,0.64 1.08,1.515 1.08,2.624 0.05,1.067 -0.32,1.941 -1.08,2.624 -0.73,0.683 -1.6,1.024 -2.63,1.024 z"
       fill="#ffffff"
       id="path59" />
    <path
       d="m 1203.775,724.40801 -6.91,-32.256 h 5.57 l 5.37,27.136 14.91,-27.136 h 5.64 l -18.31,32.256 z"
       fill="#ffffff"
       id="path60" />
    <path
       d="m 1241.695,725.17601 c -2.69,0 -5.04,-0.597 -7.04,-1.792 -1.97,-1.195 -3.46,-2.88 -4.48,-5.056 -0.98,-2.176 -1.41,-4.715 -1.28,-7.616 0.12,-2.773 0.68,-5.312 1.66,-7.616 0.98,-2.347 2.3,-4.395 3.97,-6.144 1.71,-1.749 3.67,-3.115 5.89,-4.096 2.22,-0.981 4.63,-1.472 7.23,-1.472 2.9,0 5.29,0.597 7.17,1.792 1.92,1.195 3.32,2.795 4.22,4.8 0.9,1.963 1.28,4.139 1.15,6.528 -0.04,0.725 -0.15,1.557 -0.32,2.496 -0.13,0.896 -0.27,1.728 -0.45,2.496 h -26.36 l 0.7,-4.16 h 21.12 c 0.3,-2.005 0.13,-3.691 -0.51,-5.056 -0.64,-1.408 -1.6,-2.475 -2.88,-3.2 -1.28,-0.768 -2.82,-1.152 -4.61,-1.152 -1.83,0 -3.6,0.427 -5.31,1.28 -1.67,0.811 -3.12,2.027 -4.35,3.648 -1.24,1.579 -2.07,3.563 -2.5,5.952 l -0.32,1.792 c -0.47,2.389 -0.43,4.501 0.13,6.336 0.55,1.835 1.51,3.243 2.88,4.224 1.41,0.981 3.11,1.472 5.12,1.472 2.26,0 4.2,-0.491 5.82,-1.472 1.67,-1.024 2.97,-2.389 3.91,-4.096 h 5.31 c -0.9,1.92 -2.11,3.648 -3.65,5.184 -1.49,1.536 -3.28,2.752 -5.38,3.648 -2.04,0.853 -4.33,1.28 -6.84,1.28 z"
       fill="#ffffff"
       id="path61" />
    <path
       d="m 1264.115,724.40801 5.63,-32.256 h 4.93 l -0.64,5.76 c 0.98,-1.365 2.13,-2.517 3.45,-3.456 1.33,-0.981 2.84,-1.728 4.55,-2.24 1.7,-0.555 3.54,-0.832 5.5,-0.832 l -0.96,5.632 h -1.98 c -1.37,0 -2.71,0.171 -4.04,0.512 -1.28,0.341 -2.47,0.896 -3.58,1.664 -1.07,0.768 -1.98,1.792 -2.75,3.072 -0.77,1.237 -1.32,2.795 -1.67,4.672 l -3.07,17.472 z"
       fill="#ffffff"
       id="path62" />
    <path
       d="m 1300.025,725.17601 c -2.73,0 -5.04,-0.448 -6.92,-1.344 -1.87,-0.939 -3.26,-2.24 -4.16,-3.904 -0.85,-1.664 -1.19,-3.648 -1.02,-5.952 h 5.44 c -0.04,1.195 0.17,2.304 0.64,3.328 0.47,0.981 1.26,1.792 2.37,2.432 1.11,0.597 2.58,0.896 4.41,0.896 1.54,0 2.86,-0.235 3.97,-0.704 1.11,-0.469 1.97,-1.109 2.56,-1.92 0.64,-0.811 1.01,-1.813 1.09,-3.008 0.04,-1.067 -0.21,-1.899 -0.77,-2.496 -0.51,-0.64 -1.3,-1.152 -2.37,-1.536 -1.06,-0.384 -2.34,-0.704 -3.84,-0.96 -1.32,-0.256 -2.6,-0.597 -3.84,-1.024 -1.19,-0.427 -2.26,-0.96 -3.2,-1.6 -0.93,-0.683 -1.66,-1.515 -2.17,-2.496 -0.51,-1.024 -0.73,-2.219 -0.64,-3.584 0.08,-1.877 0.68,-3.563 1.79,-5.056 1.15,-1.493 2.69,-2.667 4.61,-3.52 1.96,-0.896 4.18,-1.344 6.65,-1.344 3.46,0 6.17,0.853 8.13,2.56 2.01,1.664 2.93,4.053 2.75,7.168 h -5.37 c 0.08,-1.621 -0.41,-2.88 -1.47,-3.776 -1.07,-0.939 -2.63,-1.408 -4.68,-1.408 -2,0 -3.64,0.448 -4.92,1.344 -1.24,0.896 -1.88,2.005 -1.92,3.328 -0.05,0.896 0.17,1.664 0.64,2.304 0.51,0.597 1.28,1.109 2.3,1.536 1.02,0.384 2.3,0.725 3.84,1.024 1.45,0.299 2.8,0.661 4.03,1.088 1.24,0.427 2.33,0.981 3.27,1.664 0.94,0.64 1.64,1.472 2.11,2.496 0.51,0.981 0.72,2.197 0.64,3.648 -0.09,2.219 -0.75,4.139 -1.99,5.76 -1.19,1.621 -2.83,2.88 -4.92,3.776 -2.05,0.853 -4.4,1.28 -7.04,1.28 z"
       fill="#ffffff"
       id="path63" />
    <path
       d="m 1330.415,725.17601 c -2.39,0 -4.35,-0.405 -5.89,-1.216 -1.49,-0.853 -2.58,-1.963 -3.26,-3.328 -0.69,-1.408 -0.98,-2.901 -0.9,-4.48 0.09,-2.304 0.79,-4.288 2.11,-5.952 1.33,-1.664 3.16,-2.944 5.51,-3.84 2.34,-0.896 5.03,-1.344 8.06,-1.344 h 8.51 c 0.34,-2.048 0.32,-3.733 -0.06,-5.056 -0.34,-1.365 -1.05,-2.368 -2.11,-3.008 -1.07,-0.683 -2.46,-1.024 -4.16,-1.024 -2.05,0 -3.91,0.512 -5.57,1.536 -1.66,1.024 -2.86,2.539 -3.58,4.544 h -5.57 c 0.68,-2.304 1.79,-4.224 3.33,-5.76 1.57,-1.579 3.41,-2.773 5.5,-3.584 2.09,-0.853 4.29,-1.28 6.59,-1.28 2.9,0 5.25,0.555 7.04,1.664 1.84,1.067 3.07,2.581 3.71,4.544 0.69,1.92 0.79,4.203 0.32,6.848 l -3.45,19.968 h -4.87 l 0.71,-5.696 c -0.6,0.896 -1.3,1.749 -2.11,2.56 -0.77,0.768 -1.65,1.451 -2.63,2.048 -0.98,0.597 -2.07,1.045 -3.26,1.344 -1.2,0.341 -2.52,0.512 -3.97,0.512 z m 1.6,-4.544 c 1.49,0 2.92,-0.299 4.29,-0.896 1.41,-0.64 2.64,-1.493 3.71,-2.56 1.11,-1.067 1.98,-2.261 2.62,-3.584 0.69,-1.323 1.05,-2.709 1.09,-4.16 l 0.07,-0.256 h -8.07 c -2,0 -3.73,0.277 -5.18,0.832 -1.41,0.512 -2.5,1.259 -3.27,2.24 -0.72,0.939 -1.13,2.069 -1.21,3.392 -0.09,1.536 0.38,2.752 1.41,3.648 1.02,0.896 2.53,1.344 4.54,1.344 z"
       fill="#ffffff"
       id="path64" />
    <path
       d="m 1355.425,724.40801 8.19,-46.08 h 5.38 l -8.2,46.08 z"
       fill="#ffffff"
       id="path65" />
    <path
       d="m 1388.185,724.40801 7.87,-44.8 h 15.81 c 2.86,0 5.18,0.448 6.97,1.344 1.84,0.853 3.18,2.048 4.03,3.584 0.86,1.493 1.22,3.179 1.09,5.056 -0.08,2.347 -0.7,4.395 -1.85,6.144 -1.11,1.749 -2.61,3.136 -4.48,4.16 -1.84,1.024 -3.89,1.643 -6.15,1.856 l 0.96,-0.64 c 1.75,0.043 3.31,0.491 4.67,1.344 1.37,0.811 2.42,1.941 3.14,3.392 0.77,1.408 1.09,3.029 0.96,4.864 -0.08,2.688 -0.87,5.056 -2.37,7.104 -1.49,2.048 -3.5,3.669 -6.01,4.864 -2.48,1.152 -5.27,1.728 -8.39,1.728 z m 6.14,-4.416 h 10.3 c 2.22,0 4.14,-0.384 5.76,-1.152 1.67,-0.768 2.97,-1.856 3.91,-3.264 0.98,-1.451 1.51,-3.115 1.6,-4.992 0.13,-2.176 -0.58,-3.904 -2.11,-5.184 -1.5,-1.28 -3.63,-1.92 -6.4,-1.92 h -10.18 z m 3.71,-20.736 h 9.92 c 3.07,0 5.55,-0.789 7.43,-2.368 1.87,-1.621 2.86,-3.776 2.94,-6.464 0.09,-1.323 -0.15,-2.475 -0.7,-3.456 -0.56,-0.981 -1.43,-1.728 -2.63,-2.24 -1.15,-0.512 -2.66,-0.768 -4.54,-0.768 h -9.79 z"
       fill="#ffffff"
       id="path66" />
    <path
       d="m 1426.425,724.40801 8.19,-46.08 h 5.38 l -8.2,46.08 z"
       fill="#ffffff"
       id="path67" />
    <path
       d="m 1454.175,725.17601 c -4.44,0 -7.68,-1.195 -9.73,-3.584 -2.05,-2.432 -2.64,-6.08 -1.79,-10.944 l 3.26,-18.496 h 5.38 l -3.2,18.112 c -0.43,2.261 -0.49,4.16 -0.19,5.696 0.3,1.536 1.02,2.688 2.17,3.456 1.16,0.768 2.8,1.152 4.93,1.152 1.96,0 3.65,-0.384 5.06,-1.152 1.41,-0.768 2.56,-1.92 3.45,-3.456 0.94,-1.536 1.6,-3.435 1.99,-5.696 l 3.2,-18.112 h 5.37 l -3.26,18.496 c -0.85,4.864 -2.73,8.512 -5.63,10.944 -2.86,2.389 -6.53,3.584 -11.01,3.584 z"
       fill="#ffffff"
       id="path68" />
    <path
       d="m 1490.815,725.17601 c -2.69,0 -5.03,-0.597 -7.04,-1.792 -1.96,-1.195 -3.45,-2.88 -4.48,-5.056 -0.98,-2.176 -1.41,-4.715 -1.28,-7.616 0.13,-2.773 0.68,-5.312 1.67,-7.616 0.98,-2.347 2.3,-4.395 3.96,-6.144 1.71,-1.749 3.67,-3.115 5.89,-4.096 2.22,-0.981 4.63,-1.472 7.23,-1.472 2.9,0 5.29,0.597 7.17,1.792 1.92,1.195 3.33,2.795 4.23,4.8 0.89,1.963 1.28,4.139 1.15,6.528 -0.05,0.725 -0.15,1.557 -0.32,2.496 -0.13,0.896 -0.28,1.728 -0.45,2.496 h -26.37 l 0.71,-4.16 h 21.12 c 0.29,-2.005 0.12,-3.691 -0.52,-5.056 -0.64,-1.408 -1.6,-2.475 -2.88,-3.2 -1.28,-0.768 -2.81,-1.152 -4.6,-1.152 -1.84,0 -3.61,0.427 -5.32,1.28 -1.66,0.811 -3.11,2.027 -4.35,3.648 -1.24,1.579 -2.07,3.563 -2.49,5.952 l -0.32,1.792 c -0.47,2.389 -0.43,4.501 0.12,6.336 0.56,1.835 1.52,3.243 2.88,4.224 1.41,0.981 3.12,1.472 5.12,1.472 2.26,0 4.21,-0.491 5.83,-1.472 1.66,-1.024 2.96,-2.389 3.9,-4.096 h 5.31 c -0.89,1.92 -2.11,3.648 -3.64,5.184 -1.5,1.536 -3.29,2.752 -5.38,3.648 -2.05,0.853 -4.33,1.28 -6.85,1.28 z"
       fill="#ffffff"
       id="path69" />
    <path
       d="m 1515.735,724.72801 c -1.07,0 -1.97,-0.341 -2.69,-1.024 -0.68,-0.725 -1.02,-1.6 -1.02,-2.624 0,-1.024 0.34,-1.877 1.02,-2.56 0.72,-0.725 1.62,-1.088 2.69,-1.088 1.06,0 1.94,0.363 2.62,1.088 0.68,0.683 1.03,1.536 1.03,2.56 0,1.024 -0.35,1.899 -1.03,2.624 -0.68,0.683 -1.56,1.024 -2.62,1.024 z"
       fill="#ffffff"
       id="path70" />
  </g>
  <defs
     id="defs75">
    <linearGradient
       id="paint2_linear_1019_206"
       x1="142.629"
       y1="606.495"
       x2="1621.0699"
       y2="711.54498"
       gradientUnits="userSpaceOnUse"
       gradientTransform="translate(68.165,46.512012)">
      <stop
         stop-color="#0546AD"
         id="stop74" />
      <stop
         offset="1"
         stop-color="#8A2BE2"
         id="stop75" />
    </linearGradient>
  </defs>
</svg>
