<?xml version="1.0" encoding="utf-8"?>
<!-- Generator: Adobe Illustrator 25.0.1, SVG Export Plug-In . SVG Version: 6.00 Build 0)  -->
<svg version="1.1" id="Layer_1" xmlns="http://www.w3.org/2000/svg" xmlns:xlink="http://www.w3.org/1999/xlink" x="0px" y="0px"
	 viewBox="0 0 150 40" style="enable-background:new 0 0 150 40;" xml:space="preserve">
<style type="text/css">
	.st0{fill:#7d818e;opacity:.7;}
	.st1{fill:none;stroke:#FFFFFF;stroke-linecap:round;stroke-linejoin:round;}
	.st2{fill:#FFFFFF;}
</style>
<path class="st0" d="M2.5,5.5h145c1.1,0,2,0.9,2,2v25c0,1.1-0.9,2-2,2H2.5c-1.1,0-2-0.9-2-2v-25C0.5,6.4,1.4,5.5,2.5,5.5z"/>
<path class="st1" d="M30.5,16.5h4c0.6,0,1,0.4,1,1v4c0,0.6-0.4,1-1,1h-4c-0.6,0-1-0.4-1-1v-4C29.5,16.9,29.9,16.5,30.5,16.5z"/>
<path class="st1" d="M40.5,16.5h4c0.6,0,1,0.4,1,1v4c0,0.6-0.4,1-1,1h-4c-0.6,0-1-0.4-1-1v-4C39.5,16.9,39.9,16.5,40.5,16.5z"/>
<path class="st2" d="M114.7,21.7h2.2v1.3H113v-6.8h1.7L114.7,21.7z"/>
<path class="st2" d="M122.6,16.4c0.5,0.3,0.9,0.7,1.2,1.2c0.3,0.5,0.5,1.2,0.5,1.8c0,0.6-0.2,1.3-0.5,1.8c-0.3,0.5-0.7,1-1.2,1.2
	c-0.5,0.3-1.1,0.5-1.7,0.5c-0.6,0-1.2-0.1-1.8-0.5c-0.5-0.3-0.9-0.7-1.2-1.2c-0.3-0.5-0.5-1.2-0.5-1.8c0-0.6,0.1-1.3,0.5-1.8
	c0.3-0.5,0.7-1,1.2-1.2C120.2,15.8,121.5,15.8,122.6,16.4z M119.6,18.1c-0.3,0.4-0.5,0.9-0.5,1.4c0,0.5,0.1,1,0.5,1.4
	c0.3,0.4,0.8,0.6,1.3,0.5c0.5,0,0.9-0.2,1.3-0.5c0.3-0.4,0.5-0.9,0.5-1.4c0-0.5-0.1-1-0.5-1.4c-0.3-0.4-0.8-0.6-1.3-0.5
	C120.4,17.5,119.9,17.7,119.6,18.1z"/>
<path class="st2" d="M130.6,16.7c0.5,0.4,0.9,1,1,1.7h-1.8c-0.1-0.2-0.3-0.4-0.5-0.6c-0.3-0.2-0.6-0.2-0.9-0.2
	c-0.5,0-0.9,0.2-1.3,0.5c-0.3,0.4-0.5,0.9-0.5,1.4c0,0.5,0.1,1.1,0.5,1.5c0.4,0.4,0.9,0.6,1.4,0.5c0.4,0,0.7-0.1,1-0.3
	c0.3-0.2,0.5-0.5,0.6-0.9h-2.1v-1.2h3.5v1.6c-0.1,0.4-0.4,0.8-0.6,1.1c-0.3,0.3-0.7,0.6-1.1,0.8c-0.5,0.2-1,0.3-1.5,0.3
	c-0.6,0-1.3-0.1-1.8-0.4c-0.5-0.3-0.9-0.7-1.2-1.2c-0.6-1.1-0.6-2.5,0-3.6c0.3-0.5,0.7-0.9,1.2-1.2c0.6-0.3,1.2-0.4,1.8-0.4
	C129.1,16,129.9,16.2,130.6,16.7z"/>
<path class="st2" d="M137.6,16.4c0.5,0.3,0.9,0.7,1.2,1.2c0.3,0.6,0.5,1.2,0.4,1.8c0,0.6-0.1,1.3-0.4,1.8c-0.3,0.5-0.7,1-1.2,1.2
	c-1.1,0.6-2.4,0.6-3.5,0c-0.5-0.3-1-0.7-1.2-1.2c-0.6-1.1-0.6-2.5,0-3.6c0.3-0.5,0.7-1,1.2-1.2C135.2,15.8,136.5,15.8,137.6,16.4z
	 M134.6,18.1c-0.3,0.4-0.5,0.9-0.5,1.4c0,0.5,0.1,1,0.5,1.4c0.3,0.4,0.8,0.6,1.3,0.5c0.5,0,1-0.2,1.3-0.5c0.3-0.4,0.5-0.9,0.5-1.4
	c0-0.5-0.1-1-0.5-1.4C136.5,17.4,135.3,17.4,134.6,18.1L134.6,18.1z"/>
<line class="st1" x1="17.5" y1="22.5" x2="9.5" y2="22.5"/>
<line class="st1" x1="17.5" y1="19.5" x2="9.5" y2="19.5"/>
<line class="st1" x1="17.5" y1="16.5" x2="9.5" y2="16.5"/>
</svg>
