<svg id="th_color" xmlns="http://www.w3.org/2000/svg" viewBox="0 0 26 26"><defs><style>.cls-1{fill:none;stroke:#304050;stroke-linecap:round;stroke-linejoin:round;stroke-width:1.5px;}</style></defs><path class="cls-1" d="M10.31,12H5.69A.65.65,0,0,1,5,11.39V7.61A.65.65,0,0,1,5.69,7h4.62a.65.65,0,0,1,.69.61v3.78A.65.65,0,0,1,10.31,12Z"/><path class="cls-1" d="M10.31,20H5.69A.65.65,0,0,1,5,19.39V15.61A.65.65,0,0,1,5.69,15h4.62a.65.65,0,0,1,.69.61v3.78A.65.65,0,0,1,10.31,20Z"/><line class="cls-1" x1="14" y1="8" x2="20" y2="8"/><line class="cls-1" x1="14" y1="11" x2="22" y2="11"/><line class="cls-1" x1="14" y1="16" x2="18" y2="16"/><line class="cls-1" x1="14" y1="19" x2="20" y2="19"/></svg>