<?xml version="1.0" encoding="UTF-8"?><svg id="a" xmlns="http://www.w3.org/2000/svg" viewBox="0 0 26 26"><defs><style>.b{fill:#304050;}.c{fill:none;stroke:#304050;stroke-linecap:round;stroke-linejoin:round;stroke-width:1.5px;}</style></defs><g><rect class="c" x="4" y="6" width="15" height="14"/><polyline class="c" points="19 6 22 6 22 20 19 20"/></g><path class="b" d="M13.8,15.25c-.17,.3-.43,.55-.77,.74-.34,.2-.74,.31-1.2,.34v.8h-.63v-.81c-.66-.06-1.19-.26-1.59-.6s-.61-.8-.62-1.38h1.48c.04,.47,.28,.76,.73,.86v-1.89c-.47-.12-.86-.24-1.15-.36-.29-.12-.54-.31-.75-.57-.21-.26-.32-.62-.32-1.08,0-.57,.21-1.04,.62-1.41,.41-.36,.95-.57,1.6-.62v-.8h.63v.8c.63,.05,1.14,.24,1.52,.57,.38,.33,.59,.79,.64,1.37h-1.5c-.02-.19-.09-.36-.2-.5-.12-.14-.27-.24-.46-.3v1.87c.5,.13,.89,.25,1.17,.36s.54,.3,.75,.56c.21,.26,.32,.62,.32,1.07,0,.34-.09,.67-.26,.96Zm-3.18-3.48c.13,.14,.32,.25,.57,.33v-1.71c-.24,.03-.43,.12-.56,.27-.14,.15-.21,.34-.21,.58,0,.22,.07,.39,.2,.53Zm1.8,3.15c.14-.16,.21-.35,.21-.57s-.07-.39-.21-.52c-.14-.13-.34-.24-.59-.33v1.73c.25-.05,.45-.15,.59-.31Z"/></svg>