<svg id="th_color" xmlns="http://www.w3.org/2000/svg" viewBox="0 0 26 26"><defs><style>.cls-1{fill:none;stroke:#304050;stroke-linecap:round;stroke-linejoin:round;stroke-width:1.5px;}.cls-2{fill:#304050;}</style></defs><path class="cls-1" d="M4,11V9.8A.8.8,0,0,1,4.8,9H21.2a.8.8,0,0,1,.8.8V11"/><path class="cls-1" d="M22,15v1.2a.8.8,0,0,1-.8.8H4.8a.8.8,0,0,1-.8-.8V15"/><line class="cls-1" x1="10" y1="17" x2="10" y2="9"/><line class="cls-1" x1="16" y1="17" x2="16" y2="9"/><path class="cls-2" d="M5,12a1,1,0,1,0,1,1A1,1,0,0,0,5,12Z"/><path class="cls-2" d="M21,12a1,1,0,1,0,1,1A1,1,0,0,0,21,12Z"/></svg>