<?xml version="1.0" encoding="UTF-8"?><svg id="th_color" xmlns="http://www.w3.org/2000/svg" viewBox="0 0 26 26"><defs><style>.cls-1{fill:none;stroke:#304050;stroke-linecap:round;stroke-linejoin:round;stroke-width:1.5px;}</style></defs><line class="cls-1" x1="11.86" y1="12.92" x2="11" y2="18.92"/><line class="cls-1" x1="15" y1="12.92" x2="14.14" y2="18.92"/><line class="cls-1" x1="16.21" y1="14.42" x2="10.21" y2="14.42"/><line class="cls-1" x1="15.79" y1="17.42" x2="9.79" y2="17.42"/><path class="cls-1" d="m17.79,18.26h1.56c2.05,0,3.7-1.66,3.7-3.7s-1.66-3.7-3.7-3.7c-.25,0-.5.03-.73.07-.37-2.77-2.74-4.91-5.61-4.91s-5.24,2.14-5.61,4.91c-.24-.05-.48-.07-.73-.07-2.05,0-3.7,1.66-3.7,3.7s1.66,3.7,3.7,3.7h1.13"/></svg>