<svg id="th_color" xmlns="http://www.w3.org/2000/svg" viewBox="0 0 26 26"><defs><style>.cls-1{fill:#304050;}.cls-2{fill:none;stroke:#304050;stroke-linecap:round;stroke-linejoin:round;stroke-width:1.5px;}</style></defs><path class="cls-1" d="M6.48,7.77a1.51,1.51,0,0,1-.15.93v0l-.93,2.5a.42.42,0,0,1-.4.28H5A.43.43,0,0,1,4.56,11l.19-1.54A1.5,1.5,0,1,1,6.48,7.77Z"/><path class="cls-1" d="M10,7.77a1.51,1.51,0,0,1-.15.93v0l-.93,2.5a.42.42,0,0,1-.4.28h0A.43.43,0,0,1,8.06,11l.19-1.54A1.5,1.5,0,1,1,10,7.77Z"/><path class="cls-1" d="M6.48,15.77a1.51,1.51,0,0,1-.15.93v0l-.93,2.5a.42.42,0,0,1-.4.28H5A.43.43,0,0,1,4.56,19l.19-1.54a1.5,1.5,0,1,1,1.73-1.71Z"/><path class="cls-1" d="M10,15.77a1.51,1.51,0,0,1-.15.93v0l-.93,2.5a.42.42,0,0,1-.4.28h0A.43.43,0,0,1,8.06,19l.19-1.54A1.5,1.5,0,1,1,10,15.77Z"/><line class="cls-2" x1="13" y1="8" x2="21" y2="8"/><line class="cls-2" x1="13" y1="11" x2="17" y2="11"/><line class="cls-2" x1="13" y1="16" x2="21" y2="16"/><line class="cls-2" x1="13" y1="19" x2="17" y2="19"/></svg>