<svg id="Layer_1" data-name="Layer 1" xmlns="http://www.w3.org/2000/svg" viewBox="0 0 150 120"><defs><style>.cls-1{fill:#7d818e;opacity:.7;}</style></defs><rect class="cls-1" x="10" y="12" width="25" height="19" rx="1"/><rect class="cls-1" x="45" y="12" width="25" height="19" rx="1"/><rect class="cls-1" x="80" y="12" width="25" height="19" rx="1"/><rect class="cls-1" x="115" y="12" width="25" height="19" rx="1"/><rect class="cls-1" x="10" y="47" width="25" height="19" rx="1"/><rect class="cls-1" x="45" y="47" width="25" height="19" rx="1"/><rect class="cls-1" x="80" y="47" width="25" height="19" rx="1"/><rect class="cls-1" x="115" y="47" width="25" height="19" rx="1"/><rect class="cls-1" x="10" y="82" width="25" height="19" rx="1"/><rect class="cls-1" x="45" y="82" width="25" height="19" rx="1"/><rect class="cls-1" x="80" y="82" width="25" height="19" rx="1"/><rect class="cls-1" x="115" y="82" width="25" height="19" rx="1"/><path class="cls-1" d="M11,36H34a1,1,0,0,0,0-2H11a1,1,0,0,0,0,2Z"/><path class="cls-1" d="M11,40H23a1,1,0,0,0,0-2H11a1,1,0,0,0,0,2Z"/><path class="cls-1" d="M46,36H69a1,1,0,0,0,0-2H46a1,1,0,0,0,0,2Z"/><path class="cls-1" d="M46,40H58a1,1,0,0,0,0-2H46a1,1,0,0,0,0,2Z"/><path class="cls-1" d="M81,36h23a1,1,0,0,0,0-2H81a1,1,0,0,0,0,2Z"/><path class="cls-1" d="M81,40H93a1,1,0,0,0,0-2H81a1,1,0,0,0,0,2Z"/><path class="cls-1" d="M116,36h23a1,1,0,0,0,0-2H116a1,1,0,0,0,0,2Z"/><path class="cls-1" d="M116,40h12a1,1,0,0,0,0-2H116a1,1,0,0,0,0,2Z"/><path class="cls-1" d="M11,71H34a1,1,0,0,0,0-2H11a1,1,0,0,0,0,2Z"/><path class="cls-1" d="M11,75H23a1,1,0,0,0,0-2H11a1,1,0,0,0,0,2Z"/><path class="cls-1" d="M46,71H69a1,1,0,0,0,0-2H46a1,1,0,0,0,0,2Z"/><path class="cls-1" d="M46,75H58a1,1,0,0,0,0-2H46a1,1,0,0,0,0,2Z"/><path class="cls-1" d="M81,71h23a1,1,0,0,0,0-2H81a1,1,0,0,0,0,2Z"/><path class="cls-1" d="M81,75H93a1,1,0,0,0,0-2H81a1,1,0,0,0,0,2Z"/><path class="cls-1" d="M116,71h23a1,1,0,0,0,0-2H116a1,1,0,0,0,0,2Z"/><path class="cls-1" d="M116,75h12a1,1,0,0,0,0-2H116a1,1,0,0,0,0,2Z"/><path class="cls-1" d="M11,106H34a1,1,0,0,0,0-2H11a1,1,0,0,0,0,2Z"/><path class="cls-1" d="M11,110H23a1,1,0,0,0,0-2H11a1,1,0,0,0,0,2Z"/><path class="cls-1" d="M46,106H69a1,1,0,0,0,0-2H46a1,1,0,0,0,0,2Z"/><path class="cls-1" d="M46,110H58a1,1,0,0,0,0-2H46a1,1,0,0,0,0,2Z"/><path class="cls-1" d="M81,106h23a1,1,0,0,0,0-2H81a1,1,0,0,0,0,2Z"/><path class="cls-1" d="M81,110H93a1,1,0,0,0,0-2H81a1,1,0,0,0,0,2Z"/><path class="cls-1" d="M116,106h23a1,1,0,0,0,0-2H116a1,1,0,0,0,0,2Z"/><path class="cls-1" d="M116,110h12a1,1,0,0,0,0-2H116a1,1,0,0,0,0,2Z"/></svg>