<?xml version="1.0" encoding="utf-8"?>
<!-- Generator: Adobe Illustrator 25.0.1, SVG Export Plug-In . SVG Version: 6.00 Build 0)  -->
<svg version="1.1" id="Layer_1" xmlns="http://www.w3.org/2000/svg" xmlns:xlink="http://www.w3.org/1999/xlink" x="0px" y="0px"
	 viewBox="0 0 24 24" style="enable-background:new 0 0 24 24;" xml:space="preserve">
<style type="text/css">
	.st0{fill:none;stroke:#304050;stroke-width:1.5;stroke-linecap:round;stroke-linejoin:round;}
	.st1{fill:#304050;}
	.st2{fill:none;stroke:#304050;stroke-width:1.5;stroke-miterlimit:10;}
</style>
<path class="st0" d="M7,5"/>
<path class="st0" d="M3,9"/>
<path class="st0" d="M4.2,5h15.6C20.4,5,21,5.7,21,6.5v12c0,0.8-0.6,1.5-1.2,1.5H4.2C3.6,20,3,19.3,3,18.5v-12C3,5.7,3.6,5,4.2,5z"
	/>
<path class="st0" d="M3,9.3h18"/>
<circle class="st1" cx="5" cy="7.2" r="0.5"/>
<circle class="st1" cx="6.5" cy="7.2" r="0.5"/>
<circle class="st1" cx="8" cy="7.2" r="0.5"/>
<polyline class="st2" points="12.7,17 14.9,14.7 12.7,12.5 "/>
<path class="st2" d="M15.1,14.8h-3.5c-1.5,0-2.7,1.2-2.8,2.7l0,0"/>
</svg>
