<?xml version="1.0" encoding="utf-8"?>
<!-- Generator: Adobe Illustrator 25.0.1, SVG Export Plug-In . SVG Version: 6.00 Build 0)  -->
<svg version="1.1" id="Layer_1" xmlns="http://www.w3.org/2000/svg" xmlns:xlink="http://www.w3.org/1999/xlink" x="0px" y="0px"
	 viewBox="0 0 24 24" style="enable-background:new 0 0 24 24;" xml:space="preserve">
<style type="text/css">
	.st0{fill:#304050;}
</style>
<g>
	<path class="st0" d="M12,2C6.5,2,2,6.5,2,12c0,5.5,4.5,10,10,10c5.5,0,10-4.5,10-10C22,6.5,17.5,2,12,2z M3.1,12
		c0-1.3,0.3-2.5,0.8-3.6L8.1,20C5.2,18.5,3.1,15.5,3.1,12z M12,20.9c-0.9,0-1.7-0.1-2.5-0.4l2.7-7.7l2.7,7.5c0,0,0,0.1,0.1,0.1
		C14,20.7,13,20.9,12,20.9z M13.2,7.8c0.5,0,1-0.1,1-0.1C14.7,7.7,14.7,7,14.2,7c0,0-1.4,0.1-2.4,0.1C10.9,7.1,9.5,7,9.5,7
		C9,7,9,7.7,9.4,7.8c0,0,0.5,0.1,0.9,0.1l1.4,3.8l-1.9,5.8L6.6,7.8c0.5,0,1-0.1,1-0.1C8.1,7.7,8,7,7.5,7c0,0-1.4,0.1-2.4,0.1
		c-0.2,0-0.4,0-0.6,0c1.6-2.4,4.3-4,7.4-4c2.3,0,4.4,0.9,6,2.3c0,0-0.1,0-0.1,0c-0.9,0-1.5,0.8-1.5,1.6c0,0.7,0.4,1.3,0.9,2.1
		c0.3,0.6,0.7,1.3,0.7,2.4c0,0.8-0.3,1.6-0.7,2.9l-0.9,3L13.2,7.8z M16.5,19.7l2.7-7.8c0.5-1.3,0.7-2.3,0.7-3.2c0-0.3,0-0.6-0.1-0.9
		c0.7,1.3,1.1,2.7,1.1,4.2C20.9,15.3,19.1,18.1,16.5,19.7z"/>
</g>
</svg>
