<svg id="Layer_1" data-name="Layer 1" xmlns="http://www.w3.org/2000/svg" viewBox="0 0 60 60"><defs><style>.cls-1,.cls-2{fill:#7d818e;}.cls-1{opacity:0.7;}.cls-2{opacity:0.5;}.cls-3{fill:#489c6d;}.cls-4{fill:none;stroke:#7d818e;stroke-linecap:round;stroke-miterlimit:10;stroke-width:2px;stroke-dasharray:1 4;}</style></defs><path class="cls-1" d="M16,10.5H26c.55,0,1,.34,1,.75v37.5c0,.41-.45.75-1,.75H16c-.55,0-1-.34-1-.75V11.25C15,10.84,15.45,10.5,16,10.5Z"/><path class="cls-2" d="M33.67,23.43H44.33a.62.62,0,0,1,.67.51v25a.62.62,0,0,1-.67.51H33.67a.62.62,0,0,1-.67-.51v-25A.62.62,0,0,1,33.67,23.43Z"/><rect class="cls-3" x="27" y="41" width="6" height="4"/><path class="cls-3" d="M5,41a2,2,0,0,0,0,4H15V41Z"/><path class="cls-3" d="M55,41H45v4H55a2,2,0,0,0,0-4Z"/><path class="cls-4" d="M16,10.5H26c.55,0,1,.34,1,.75v37.5c0,.41-.45.75-1,.75H16c-.55,0-1-.34-1-.75V11.25C15,10.84,15.45,10.5,16,10.5Z"/><path class="cls-4" d="M33.67,23.43H44.33a.62.62,0,0,1,.67.51v25a.62.62,0,0,1-.67.51H33.67a.62.62,0,0,1-.67-.51v-25A.62.62,0,0,1,33.67,23.43Z"/></svg>