<?xml version="1.0" encoding="UTF-8"?><svg id="uuid-79a13b8e-4b7e-47aa-9270-c04b5816cb07" xmlns="http://www.w3.org/2000/svg" width="629.19" height="147.09" xmlns:xlink="http://www.w3.org/1999/xlink" viewBox="0 0 629.19 147.09"><defs><linearGradient id="uuid-90fcf208-4209-4756-969c-ba4528385c7e" x1="-29.49" y1="20.41" x2="170.98" y2="20.41" gradientTransform="translate(55.16 4.26) rotate(45)" gradientUnits="userSpaceOnUse"><stop offset="0" stop-color="#d00888"/><stop offset="1" stop-color="#1274e3"/></linearGradient><linearGradient id="uuid-6e4b1401-9b07-4556-9ebb-2a9781f02ea6" x1="-28.01" y1="35.94" x2="170.99" y2="35.94" xlink:href="#uuid-90fcf208-4209-4756-969c-ba4528385c7e"/></defs><g id="uuid-d28c0ff8-3cc9-4fea-98a6-f9dac1206aa6"><path d="M154.11,61.76c-.63,.42-1.3,.78-1.99,1.07,.7-.29,1.36-.65,1.99-1.07Z" fill="#fff"/><path d="M123.42,63.96h0c.29-.01,.59-.03,.88-.03l23.37-.19-23.37,.19c-.29,0-.59,.02-.88,.03Z" fill="#fff"/><g><path d="M181.51,108.36V30.18c0-10.03-4.92-18.93-12.47-24.42C164.36,2.37,158.69,.28,152.54,.03h0c-.4-.02-.81-.03-1.21-.03H30.18c-.46,0-.92,.01-1.38,.04-6.13,.28-11.78,2.39-16.43,5.8C4.88,11.33,0,20.2,0,30.18V108.36c0,11.94,7.66,22.11,18.32,25.89,2.86,1.02,5.94,1.57,9.15,1.57,7.25,0,14.09-2.8,19.26-7.89l8.33-8.2,27.29-27.29,8.32-8.32,8.32,8.32,18.76,18.76c.12,.11,.25,.21,.37,.33l16.66,16.39c5.17,5.09,12.01,7.89,19.26,7.89,3.16,0,6.19-.54,9.02-1.53,10.73-3.74,18.45-13.95,18.45-25.94ZM90.67,61.91l-11.11,11.11-35.52,35.52-8.33,8.2c-2.21,2.17-5.14,3.37-8.24,3.37-6.48,0-11.74-5.27-11.74-11.74V30.18c0-5.67,3.28-10.58,8.04-12.95,1.94-.96,4.11-1.51,6.42-1.51h106.67s-46.18,46.18-46.18,46.18Zm69.94,56.19c-.62,.42-1.29,.79-1.99,1.08-.35,.15-.71,.28-1.08,.4-1.1,.34-2.27,.53-3.49,.53-.78,0-1.54-.07-2.28-.22-.74-.15-1.47-.36-2.17-.65-1.39-.57-2.68-1.41-3.78-2.5l-16.66-16.39c-.21-.21-.43-.4-.64-.6h0s-26.72-26.72-26.72-26.72h0s55.85-55.85,55.85-55.85h0c.9,.44,1.76,.97,2.54,1.58,.52,.41,1.02,.85,1.48,1.32,.23,.24,.46,.48,.67,.73,.43,.5,.83,1.04,1.19,1.6,1.44,2.24,2.27,4.91,2.27,7.77V108.36c0,.64-.07,1.26-.16,1.87-.09,.55-.2,1.09-.37,1.62-.11,.37-.25,.73-.4,1.08-.3,.7-.66,1.37-1.08,1.99s-.9,1.21-1.44,1.74c-.53,.53-1.11,1.01-1.74,1.44Z" fill="url(#uuid-90fcf208-4209-4756-969c-ba4528385c7e)"/><path d="M26.94,49.55h0c0,4.34,3.52,7.86,7.86,7.86h6.96v6.96c0,4.34,3.52,7.86,7.86,7.86,4.34,0,7.86-3.52,7.86-7.86v-6.96h6.96c4.34,0,7.86-3.52,7.86-7.86,0-4.34-3.52-7.86-7.86-7.86h-6.96v-6.96c0-4.34-3.52-7.86-7.86-7.86h0c-4.34,0-7.86,3.52-7.86,7.86v6.96s-6.96,0-6.96,0c-4.34,0-7.86,3.52-7.86,7.86Z" fill="url(#uuid-6e4b1401-9b07-4556-9ebb-2a9781f02ea6)"/></g><path d="M225.42,36.94h25.21c1.23,0,2.29,.43,3.18,1.29,.9,.9,1.34,1.97,1.34,3.23v.1c0,1.26-.45,2.34-1.34,3.23-.9,.86-1.96,1.29-3.18,1.29h-25.21v16.11c0,2.06,.73,3.81,2.19,5.27,1.46,1.46,3.22,2.19,5.27,2.19h17.75c1.23,0,2.29,.45,3.18,1.34s1.34,1.97,1.34,3.23v.1c0,1.26-.45,2.32-1.34,3.18-.9,.9-1.96,1.34-3.18,1.34h-17.75c-4.61,0-8.54-1.62-11.79-4.87-3.25-3.25-4.87-7.18-4.87-11.79V20.83c0-4.61,1.62-8.54,4.87-11.79,3.25-3.25,7.18-4.87,11.79-4.87h17.75c1.23,0,2.29,.45,3.18,1.34,.9,.86,1.34,1.92,1.34,3.18v.1c0,1.26-.45,2.34-1.34,3.23s-1.96,1.34-3.18,1.34h-17.75c-2.06,0-3.81,.73-5.27,2.19-1.46,1.46-2.19,3.22-2.19,5.27v16.11Z"/><path d="M272.56,74.34c0,1.26-.45,2.32-1.34,3.18-.9,.9-1.96,1.34-3.18,1.34h-.15c-1.23,0-2.29-.45-3.18-1.34-.9-.86-1.34-1.92-1.34-3.18V26.59c0-6.2,2.19-11.49,6.56-15.86s9.66-6.56,15.86-6.56c7.39,0,13.34,2.93,17.85,8.8,4.48-5.87,10.41-8.8,17.8-8.8,6.2,0,11.49,2.19,15.86,6.56,4.38,4.38,6.56,9.66,6.56,15.86v47.74c0,1.26-.43,2.32-1.29,3.18s-1.97,1.34-3.23,1.34h-.1c-1.26,0-2.32-.45-3.18-1.34-.9-.86-1.34-1.92-1.34-3.18V26.59c0-3.68-1.29-6.81-3.88-9.4s-5.72-3.88-9.4-3.88-6.76,1.29-9.35,3.88-3.88,5.72-3.88,9.4v47.74c0,1.26-.45,2.32-1.34,3.18-.86,.9-1.92,1.34-3.18,1.34h-.1c-1.26,0-2.34-.45-3.23-1.34-.9-.86-1.34-1.92-1.34-3.18V26.59c0-3.68-1.29-6.81-3.88-9.4s-5.7-3.88-9.35-3.88-6.76,1.29-9.35,3.88-3.88,5.72-3.88,9.4v47.74Z"/><path d="M489.29,36.94h25.21c1.23,0,2.29,.43,3.18,1.29,.9,.9,1.34,1.97,1.34,3.23v.1c0,1.26-.45,2.34-1.34,3.23-.9,.86-1.96,1.29-3.18,1.29h-25.21v16.11c0,2.06,.73,3.81,2.19,5.27,1.46,1.46,3.22,2.19,5.27,2.19h17.75c1.23,0,2.29,.45,3.18,1.34s1.34,1.97,1.34,3.23v.1c0,1.26-.45,2.32-1.34,3.18-.9,.9-1.96,1.34-3.18,1.34h-17.75c-4.61,0-8.54-1.62-11.79-4.87-3.25-3.25-4.87-7.18-4.87-11.79V20.83c0-4.61,1.62-8.54,4.87-11.79,3.25-3.25,7.18-4.87,11.79-4.87h17.75c1.23,0,2.29,.45,3.18,1.34,.9,.86,1.34,1.92,1.34,3.18v.1c0,1.26-.45,2.34-1.34,3.23s-1.96,1.34-3.18,1.34h-17.75c-2.06,0-3.81,.73-5.27,2.19-1.46,1.46-2.19,3.22-2.19,5.27v16.11Z"/><path d="M572.15,5.31c2.29,.6,3.43,2.06,3.43,4.38v.15c0,1.46-.6,2.65-1.79,3.58-1.16,.9-2.45,1.16-3.88,.8-2.32-.6-4.67-.9-7.06-.9-7.76,0-14.39,2.75-19.89,8.26-5.5,5.5-8.26,12.15-8.26,19.94s2.75,14.44,8.26,19.94c5.5,5.47,12.13,8.21,19.89,8.21,2.39,0,4.74-.28,7.06-.85,1.42-.36,2.72-.1,3.88,.8,1.19,.9,1.79,2.09,1.79,3.58v.1c0,2.35-1.14,3.83-3.43,4.43-3.05,.76-6.15,1.14-9.3,1.14-10.31,0-19.11-3.65-26.41-10.94-7.29-7.29-10.94-16.1-10.94-26.41s3.65-19.11,10.94-26.41c7.29-7.29,16.1-10.94,26.41-10.94,3.15,0,6.25,.38,9.3,1.14Z"/><path d="M588.71,4.17c1.23,0,2.29,.43,3.18,1.29,.9,.9,1.34,1.97,1.34,3.23v25.76h6.66c4.94,0,9.15-1.74,12.63-5.22,3.51-3.48,5.29-7.69,5.32-12.63v-7.91c0-1.26,.45-2.34,1.34-3.23s1.92-1.29,3.18-1.29h.15c1.23,0,2.29,.43,3.18,1.29,.9,.9,1.34,1.97,1.34,3.23v7.91c0,9.08-3.65,16.35-10.94,21.78,4.01,2.42,7.18,5.65,9.5,9.7,2.39,4.18,3.58,8.69,3.58,13.53v12.73c0,1.26-.43,2.32-1.29,3.18s-1.97,1.34-3.23,1.34h-.1c-1.26,0-2.34-.45-3.23-1.34-.86-.86-1.29-1.92-1.29-3.18v-12.73c-.03-4.94-1.81-9.15-5.32-12.63-3.51-3.48-7.74-5.22-12.68-5.22h-8.8v30.59c0,1.26-.45,2.32-1.34,3.18-.9,.9-1.96,1.34-3.18,1.34h-.15c-1.23,0-2.29-.45-3.18-1.34-.9-.86-1.34-1.92-1.34-3.18V8.69c0-1.26,.45-2.34,1.34-3.23,.9-.86,1.96-1.29,3.18-1.29h.15Z"/><path d="M401.97,5.46c-.9-.86-1.96-1.29-3.18-1.29h-.15c-1.23,0-2.29,.43-3.18,1.29-.9,.9-1.34,1.97-1.34,3.23V54.64c0,4.14-1.46,7.69-4.38,10.64-2.95,2.92-6.51,4.38-10.69,4.38s-7.69-1.46-10.64-4.38c-2.92-2.95-4.38-6.5-4.38-10.64V8.69c0-1.26-.45-2.34-1.34-3.23-.9-.86-1.96-1.29-3.18-1.29h-.15c-1.23,0-2.29,.43-3.18,1.29-.9,.9-1.34,1.97-1.34,3.23V54.64c0,6.7,2.37,12.4,7.11,17.11,4.74,4.74,10.44,7.11,17.11,7.11,5.74,0,10.76-1.75,15.07-5.24,.72-.58,1.41-1.2,2.09-1.88,4.74-4.71,7.11-10.41,7.11-17.11V8.69c0-1.26-.45-2.34-1.34-3.23Z"/><path d="M460.7,15.11c-7.29-7.29-16.1-10.94-26.41-10.94h-7.51c-1.17,0-2.28,.14-3.33,.42-2.06,.54-3.9,1.61-5.52,3.21-2.45,2.45-3.68,5.42-3.68,8.9v20.83c0,1.26,.45,2.34,1.34,3.23,.9,.86,1.96,1.29,3.18,1.29h.15c1.23,0,2.29-.43,3.18-1.29,.9-.9,1.34-1.97,1.34-3.23V16.7c0-.93,.31-1.72,.94-2.39,.66-.66,1.46-.99,2.39-.99h7.51c7.79,0,14.44,2.75,19.94,8.26,5.5,5.5,8.26,12.15,8.26,19.94s-2.75,14.44-8.26,19.94c-5.5,5.47-12.15,8.21-19.94,8.21h-26.79v.02c-1.12,.07-2.09,.51-2.9,1.33-.86,.9-1.29,1.96-1.29,3.18v.15c0,1.23,.43,2.29,1.29,3.18,.82,.82,1.78,1.25,2.9,1.33v.02h26.79c10.31,0,19.11-3.65,26.41-10.94,7.29-7.29,10.94-16.1,10.94-26.41s-3.65-19.11-10.94-26.41Z"/><text transform="translate(215.33 132.99)" font-family="TypoRoundBoldDemo, &apos;Typo Round Bold Demo&apos;" font-size="47.72"><tspan x="0" y="0">MACHINES</tspan></text></g></svg>