<svg class="logo header__logo" xmlns="http://www.w3.org/2000/svg" xmlns:xlink="http://www.w3.org/1999/xlink" viewBox="0 0 994.95 202.67"><defs><linearGradient id="a" x1="-276.85" x2="-275.85" y1="926.08" y2="926.08" gradientTransform="matrix(200.48 0 0 -200.48 55503.6 185757.41)" gradientUnits="userSpaceOnUse"><stop offset="0" stop-color="#d00888"></stop><stop offset="1" stop-color="#1274e3"></stop></linearGradient><linearGradient xlink:href="#a" id="d" x1="-276.86" x2="-275.86" y1="926.09" y2="926.09" gradientTransform="matrix(198.99 0 0 -198.99 55096.2 184402.34)"></linearGradient><clipPath id="b"><path fill="transparent" stroke="#000000" stroke-width="4" class="path" d="M76.28 181.33 21 126.05c-4.01-4.01-5.16-9.8-3.47-14.84.69-2.05 1.84-3.98 3.47-5.61l10.11-10.11 65.31-65.32v131.27l-.09 11.69c-.03 3.1-1.25 6.01-3.44 8.21-2.29 2.29-5.3 3.43-8.3 3.43s-6.01-1.15-8.3-3.43M112.14 16.5c.95-.33 1.93-.56 2.92-.68.66-.08 1.32-.12 1.99-.11.33 0 .66.02.99.04a14.379 14.379 0 0 1 9.07 4.18l55.28 55.28c.45.45.84.94 1.21 1.44.33.45.63.92.89 1.4.18.34.34.69.48 1.04.29.71.5 1.44.64 2.18a12.05 12.05 0 0 1 0 4.48c-.14.74-.36 1.47-.64 2.18-.14.35-.3.7-.48 1.04a11.82 11.82 0 0 1-3.86 4.3c-.63.42-1.3.78-1.99 1.07a11.9 11.9 0 0 1-4.44.91l-23.37.19c-.3 0-.59.02-.88.03h-37.79V16.5Zm0-16.13c-5.71.9-11.2 3.44-15.72 7.61-.3.27-.59.55-.88.84L9.88 94.48c-.33.33-.64.66-.95 1a29.925 29.925 0 0 0-7.51 15.72c-1.41 9.18 1.41 18.9 8.47 25.96l55.28 55.28c8.44 8.44 21.05 10.22 31.26 5.36 2.74-1.31 5.31-3.09 7.58-5.36 5.13-5.13 7.98-11.95 8.04-19.2l.09-11.68V111.2h38.3c.17 0 .33-.03.5-.03l23.37-.19c7.25-.06 14.07-2.91 19.2-8.04 2.23-2.23 3.99-4.76 5.3-7.46 4.94-10.23 3.18-22.91-5.3-31.38L138.22 8.82C132.34 2.94 124.61 0 116.89 0c-1.59 0-3.18.12-4.75.37"></path></clipPath><clipPath id="c"><path fill="transparent" stroke="#000000" stroke-width="4" class="path" d="m63.59 99.73-4.92 4.92-4.92-4.92a7.864 7.864 0 0 0-11.12 0 7.864 7.864 0 0 0 0 11.12l4.92 4.92-4.92 4.92a7.864 7.864 0 0 0 0 11.12 7.864 7.864 0 0 0 11.12 0l4.92-4.92 4.92 4.92a7.864 7.864 0 0 0 11.12 0 7.864 7.864 0 0 0 0-11.12l-4.92-4.92 4.92-4.92a7.864 7.864 0 0 0 0-11.12c-1.54-1.54-3.55-2.3-5.56-2.3s-4.02.77-5.56 2.3"></path></clipPath></defs><g clip-path="url(#b)"><path fill="url(#a)" d="M0 0h203.74v202.67H0z"></path></g><g clip-path="url(#c)"><path fill="url(#d)" d="M39.55 96.66h38.22v38.22H39.55z"></path></g><path fill="#000" stroke="#000000" stroke-width="1" class="path" d="M283.66 90.43h44.42c2.16 0 4.03.76 5.61 2.28 1.58 1.58 2.36 3.47 2.36 5.69v.18c0 2.22-.79 4.12-2.36 5.69-1.58 1.52-3.45 2.28-5.61 2.28h-44.42v28.39c0 3.62 1.28 6.72 3.85 9.29 2.57 2.57 5.66 3.86 9.29 3.86h31.28c2.16 0 4.03.79 5.61 2.36 1.58 1.58 2.36 3.48 2.36 5.7v.18c0 2.22-.79 4.09-2.36 5.61-1.58 1.58-3.45 2.36-5.61 2.36H296.8c-8.12 0-15.04-2.86-20.76-8.59-5.72-5.72-8.59-12.64-8.59-20.76V62.04c0-8.12 2.86-15.04 8.59-20.76 5.72-5.72 12.65-8.59 20.76-8.59h31.28c2.16 0 4.03.79 5.61 2.36 1.58 1.52 2.36 3.39 2.36 5.61v.18c0 2.22-.79 4.12-2.36 5.7-1.58 1.58-3.45 2.36-5.61 2.36H296.8c-3.62 0-6.72 1.28-9.29 3.85-2.57 2.57-3.85 5.67-3.85 9.29v28.39ZM366.71 156.31c0 2.22-.79 4.09-2.36 5.61-1.58 1.58-3.45 2.36-5.61 2.36h-.26c-2.16 0-4.03-.79-5.61-2.36-1.58-1.52-2.37-3.39-2.37-5.61V72.2c0-10.92 3.85-20.24 11.57-27.95s17.03-11.56 27.95-11.56c13.02 0 23.51 5.17 31.45 15.51 7.88-10.34 18.34-15.51 31.36-15.51 10.92 0 20.24 3.86 27.95 11.56 7.71 7.71 11.56 17.03 11.56 27.95v84.1c0 2.22-.76 4.09-2.28 5.61-1.58 1.58-3.47 2.36-5.69 2.36h-.17c-2.22 0-4.09-.79-5.61-2.36-1.58-1.52-2.37-3.39-2.37-5.61V72.2c0-6.48-2.28-12-6.83-16.56-4.56-4.55-10.08-6.83-16.56-6.83s-11.91 2.28-16.47 6.83c-4.56 4.56-6.83 10.08-6.83 16.56v84.1c0 2.22-.79 4.09-2.37 5.61-1.52 1.58-3.39 2.36-5.61 2.36h-.17c-2.22 0-4.12-.79-5.7-2.36-1.58-1.52-2.37-3.39-2.37-5.61V72.2c0-6.48-2.28-12-6.83-16.56s-10.04-6.83-16.47-6.83-11.92 2.28-16.47 6.83c-4.55 4.56-6.83 10.08-6.83 16.56v84.1ZM748.51 90.43h44.42c2.16 0 4.03.76 5.61 2.28 1.58 1.58 2.36 3.47 2.36 5.69v.18c0 2.22-.79 4.12-2.36 5.69-1.58 1.52-3.45 2.28-5.61 2.28h-44.42v28.39c0 3.62 1.28 6.72 3.85 9.29 2.57 2.57 5.66 3.86 9.29 3.86h31.28c2.16 0 4.03.79 5.61 2.36s2.36 3.48 2.36 5.7v.18c0 2.22-.79 4.09-2.36 5.61-1.58 1.58-3.45 2.36-5.61 2.36h-31.28c-8.12 0-15.04-2.86-20.76-8.59-5.73-5.72-8.59-12.64-8.59-20.76V62.04c0-8.12 2.86-15.04 8.59-20.76 5.72-5.72 12.64-8.59 20.76-8.59h31.28c2.16 0 4.03.79 5.61 2.36 1.58 1.52 2.36 3.39 2.36 5.61v.18c0 2.22-.79 4.12-2.36 5.7-1.58 1.58-3.45 2.36-5.61 2.36h-31.28c-3.62 0-6.72 1.28-9.29 3.85-2.57 2.57-3.85 5.67-3.85 9.29v28.39ZM894.46 34.71c4.03 1.05 6.05 3.62 6.05 7.71v.26c0 2.57-1.05 4.67-3.15 6.31-2.05 1.58-4.32 2.04-6.83 1.4a49.859 49.859 0 0 0-12.44-1.58c-13.67 0-25.35 4.85-35.04 14.54-9.7 9.7-14.54 21.41-14.54 35.13s4.85 25.44 14.54 35.13c9.69 9.64 21.38 14.46 35.04 14.46 4.21 0 8.35-.5 12.44-1.49 2.51-.64 4.79-.18 6.83 1.4 2.1 1.58 3.15 3.68 3.15 6.31v.17c0 4.15-2.02 6.75-6.05 7.8a67.472 67.472 0 0 1-16.38 2.02c-18.16 0-33.67-6.43-46.52-19.27-12.85-12.85-19.27-28.36-19.27-46.52s6.42-33.67 19.27-46.52c12.85-12.85 28.35-19.27 46.52-19.27 5.55 0 11.01.67 16.38 2.02M923.64 32.69c2.16 0 4.03.76 5.61 2.28 1.58 1.58 2.37 3.47 2.37 5.69v45.38h11.74c8.7 0 16.12-3.07 22.25-9.2 6.19-6.13 9.32-13.55 9.37-22.25V40.66c0-2.22.79-4.12 2.36-5.69 1.52-1.52 3.39-2.28 5.61-2.28h.26c2.16 0 4.03.76 5.61 2.28 1.58 1.58 2.37 3.47 2.37 5.69v13.93c0 16-6.43 28.79-19.27 38.37 7.07 4.26 12.64 9.96 16.73 17.08 4.2 7.36 6.31 15.3 6.31 23.83v22.43c0 2.22-.76 4.09-2.28 5.61-1.58 1.58-3.47 2.37-5.7 2.37h-.17c-2.22 0-4.12-.79-5.69-2.37-1.52-1.52-2.28-3.39-2.28-5.61v-22.43c-.06-8.7-3.18-16.12-9.37-22.25-6.19-6.13-13.64-9.2-22.34-9.2h-15.51v53.88c0 2.22-.79 4.09-2.37 5.61-1.58 1.58-3.45 2.37-5.61 2.37h-.26c-2.16 0-4.03-.79-5.61-2.37-1.58-1.52-2.36-3.39-2.36-5.61V40.66c0-2.22.79-4.12 2.36-5.69 1.58-1.52 3.45-2.28 5.61-2.28h.26ZM594.67 34.97c-1.58-1.52-3.45-2.28-5.61-2.28h-.26c-2.16 0-4.03.76-5.61 2.28-1.58 1.58-2.36 3.47-2.36 5.7v80.94c0 7.3-2.57 13.55-7.71 18.75-5.2 5.14-11.48 7.71-18.84 7.71s-13.55-2.57-18.75-7.71c-5.14-5.2-7.71-11.45-7.71-18.75V40.66c0-2.22-.79-4.12-2.36-5.7-1.58-1.52-3.45-2.28-5.61-2.28h-.26c-2.16 0-4.03.76-5.61 2.28-1.58 1.58-2.36 3.47-2.36 5.7v80.95c0 11.8 4.17 21.84 12.53 30.14 8.35 8.35 18.4 12.53 30.14 12.53 10.12 0 18.96-3.08 26.55-9.22 1.26-1.02 2.49-2.12 3.68-3.31 8.35-8.29 12.53-18.34 12.53-30.14V40.66c0-2.22-.79-4.12-2.36-5.7M698.13 51.97c-12.85-12.85-28.36-19.27-46.52-19.27h-13.23c-2.06 0-4.01.25-5.87.74-3.62.96-6.87 2.84-9.72 5.65-4.32 4.32-6.48 9.55-6.48 15.68v62.04c0 2.22.79 4.12 2.37 5.7 1.58 1.52 3.45 2.28 5.61 2.28h.26c2.16 0 4.03-.76 5.61-2.28 1.58-1.58 2.36-3.48 2.36-5.7V54.77c0-1.63.56-3.04 1.67-4.2 1.17-1.17 2.57-1.75 4.2-1.75h13.23c13.72 0 25.44 4.85 35.13 14.54 9.69 9.7 14.54 21.41 14.54 35.13s-4.85 25.44-14.54 35.13c-9.69 9.64-21.41 14.46-35.13 14.46h-47.19v.03c-1.97.13-3.67.9-5.11 2.34-1.52 1.58-2.28 3.45-2.28 5.61v.26c0 2.16.76 4.03 2.28 5.61 1.44 1.44 3.14 2.21 5.11 2.34v.03h47.19c18.16 0 33.67-6.42 46.52-19.27 12.85-12.85 19.27-28.36 19.27-46.52s-6.43-33.67-19.27-46.52"></path></svg>