<?xml version="1.0" encoding="UTF-8" standalone="no"?>
<svg
   id="Layer_2"
   viewBox="0 0 248.6387 41.6066"
   version="1.1"
   width="248.6387"
   height="41.606602"
   xmlns="http://www.w3.org/2000/svg"
   xmlns:svg="http://www.w3.org/2000/svg">
  <defs
     id="defs13" />
  <g
     id="Components">
    <g
       id="a291fbb3-8798-49cd-8336-a481cf136c9f_7">
      <path
         d="m 141.8232,36.0076 h 4.958 V 9.4966 h 5.9971 V 5.1833 h -16.9775 v 4.3288 h 6.0225 v 26.4954 z"
         style="fill:#39414a;fill-opacity:1"
         id="path1" />
      <path
         d="m 117.9282,36.0579 h 4.2856 l 4.9424,-22.7926 -1.0088,0.0039 c -1.2031,-10e-4 -2.4053,-10e-4 -3.6084,-0.0058 l -0.001,0.0048 c -0.1084,0.6183 -0.2148,1.2356 -0.3213,1.8538 l -0.4355,2.5214 c -0.2461,1.4184 -0.4912,2.8359 -0.7344,4.2553 -0.165,0.9637 -0.3271,1.9274 -0.4902,2.891 l -0.3701,2.1838 c -0.0254,0.1529 -0.0576,0.3067 -0.0898,0.4596 l -0.249,1.2443 -0.2832,-1.0024 c -0.0967,-0.3444 -0.1543,-0.6821 -0.21,-1.0082 l -1.915,-11.1714 c -0.125,-0.7411 -0.2495,-1.4823 -0.3794,-2.2215 -1.0776,-0.0068 -2.1553,-0.0077 -3.2515,-0.0068 h -0.4053 l -2.6943,15.7575 -0.2661,-1.311 c -0.1895,-0.9327 -0.375,-1.9341 -0.5835,-3.1503 -0.145,-0.8466 -0.2881,-1.6922 -0.4307,-2.5389 -0.1577,-0.9347 -0.3154,-1.8683 -0.4766,-2.802 l -0.3774,-2.1673 c -0.2192,-1.2481 -0.438,-2.4973 -0.6465,-3.7473 -0.003,-0.0203 -0.007,-0.0348 -0.01,-0.0455 -0.009,0.0019 -0.0283,10e-4 -0.0576,10e-4 -1.1777,0.0048 -2.3579,0.0039 -3.5361,0.0039 h -1.0181 l 4.9409,22.7897 h 4.2402 l 2.4897,-12.6217 0.4116,-0.0281 0.0845,0.2119 2.4546,12.4388 z M 117.126,13.274 h 0.002 z"
         style="fill:#39414a;fill-opacity:1"
         id="path2" />
      <path
         d="m 93.3931,13.2643 c -1.1807,0 -2.3613,0.0019 -3.5425,0.0039 l -0.9663,10e-4 c -0.4082,0.001 -0.8301,0.0019 -1.2319,0.0513 -1.0024,0.1229 -1.6406,0.6018 -1.897,1.4233 -0.1104,0.3541 -0.1694,0.7276 -0.1704,1.0788 -0.0088,4.7439 -0.0083,9.4878 -0.0078,14.2317 l 5e-4,3.4358 c -10e-4,0.1035 -0.0015,0.1519 0.0024,0.2003 0.0479,0.5447 0.1592,1.1659 0.6206,1.639 0.4419,0.4538 1.0376,0.6841 1.77,0.686 2.8833,0.0116 5.7661,0.0097 8.6479,0.0048 l 1.3662,-0.001 c 0.2168,-10e-4 0.4731,-0.0077 0.7212,-0.0493 0.7217,-0.1258 1.2236,-0.4441 1.5337,-0.9743 0.2275,-0.388 0.3428,-0.8176 0.3433,-1.2762 0.002,-3.0226 0.002,-14.9496 -0.001,-17.89 -5e-4,-0.2312 -0.007,-0.478 -0.0503,-0.7092 -0.1636,-0.8727 -0.6035,-1.4107 -1.3457,-1.6448 -0.4072,-0.1277 -0.8511,-0.1964 -1.2832,-0.1993 -1.5029,-0.0087 -3.0063,-0.0116 -4.5098,-0.0116 z m 2.4556,18.8682 H 90.3575 V 17.2138 h 5.4912 z"
         style="fill:#39414a;fill-opacity:1"
         id="path3" />
      <path
         d="m 159.2383,13.2643 c -1.127,0 -2.2539,0.0019 -3.3818,0.0029 l -1.1279,0.0019 c -0.3623,10e-4 -0.8135,0.0019 -1.2334,0.0513 -0.7998,0.0958 -1.3564,0.4189 -1.7012,0.9898 -0.251,0.4141 -0.3682,0.9037 -0.3682,1.5394 -0.001,5.816 -0.001,11.6319 0.002,17.4479 0,0.209 0.0146,0.4325 0.0459,0.7034 0.1436,1.2636 0.9824,1.9961 2.3018,2.0086 2.6826,0.0261 5.4141,0.0203 8.0547,0.0135 l 2.3037,-0.0048 c 0.4219,-10e-4 0.8281,-0.1064 1.2051,-0.3125 0.7139,-0.3899 1.0781,-1.043 1.084,-1.9428 v 0 c 0.0234,-3.1784 -0.004,-18.1996 -0.0439,-18.637 -0.1533,-0.865 -0.5879,-1.4049 -1.3271,-1.641 -0.417,-0.1335 -0.8682,-0.2051 -1.3047,-0.208 -1.5029,-0.0097 -3.0059,-0.0126 -4.5088,-0.0126 z m 2.459,18.8673 h -5.4932 V 17.2129 h 5.4932 z"
         style="fill:#39414a;fill-opacity:1"
         id="path4" />
      <path
         d="m 128.7062,24.7964 v -4.6325 h 9.7799 v 4.6325 z"
         style="fill:#f7941d"
         id="path5" />
      <path
         d="m 177.5225,5.6864 -0.1602,0.03 c -0.1309,0.0203 -0.2617,0.0416 -0.3926,0.0668 -1.0098,0.1974 -1.6475,0.7237 -1.9482,1.611 -0.1836,0.5399 -0.209,1.0924 -0.209,1.609 l -0.001,24.032 c 0.001,0.5447 0.0273,0.955 0.085,1.3284 0.1387,0.9085 0.5586,1.5181 1.2842,1.8645 0.4131,0.1974 0.8584,0.297 1.3242,0.297 h 3.9434 c 2.6279,0 5.2568,0 7.8857,-0.0029 0.2568,0 0.5322,-0.0058 0.7988,-0.0493 1.0459,-0.1703 1.6953,-0.6676 1.9824,-1.5191 0.1553,-0.4596 0.2383,-0.9443 0.2393,-1.4029 0.0127,-3.7077 0.0127,-5.397 0.0127,-7.9049 l 0.002,-3.8363 v -0.0039 c -3.0566,0.0019 -6.0605,0.0029 -9.0645,-0.0039 v 0.0058 c 0.007,1.3768 0.008,2.7537 -0.001,4.1314 v 0.0106 c 0.005,0 0.005,0.001 0.0166,0 0.8867,-0.0077 1.7725,-0.0087 2.6611,-0.0048 h 1.3721 v 6.4071 h -7.5381 V 9.874 h 7.5605 v 4.2127 h 4.9893 c -0.007,-1.1591 -0.042,-5.8682 -0.082,-6.1517 -0.1582,-1.1465 -0.7979,-1.8383 -1.9531,-2.1151 -0.1602,-0.0387 -0.3213,-0.0668 -0.4834,-0.0948 l -0.2178,-0.0387 z"
         style="fill:#39414a;fill-opacity:1"
         id="path6" />
      <path
         d="m 238.4365,25.7834 0.4189,0.3812 c 0.1084,0.0997 0.165,0.21 0.2061,0.3048 l 0.7178,1.6352 c 1.2197,2.7778 2.4385,5.5547 3.6543,8.3345 0.0391,0.0919 0.0303,0.09 0.1279,0.0909 1.2979,-0.0077 2.5967,-0.0058 3.8965,-0.0058 l 1.1807,10e-4 c -1.9053,-3.995 -3.8105,-7.9891 -5.7207,-11.9812 -0.1191,-0.2477 -0.1182,-0.4557 0.004,-0.6937 1.5107,-2.9288 3.0146,-5.8614 4.5195,-8.7931 l 0.6455,-1.2588 c 0.005,-0.0087 0.009,-0.0184 0.0137,-0.0271 l -0.5,10e-4 c -1.5332,0 -3.0654,-0.0019 -4.6006,0.0058 -0.8848,1.8829 -1.7656,3.7406 -2.6475,5.5992 l -1.4902,3.1194 -0.3828,-0.119 -0.0469,-0.1954 V 5.0711 h -4.8682 v 31.4338 h 4.8721 V 25.7835 Z"
         style="fill:#39414a;fill-opacity:1"
         id="path7" />
      <path
         d="m 204.0693,13.7684 c -1.2119,0 -2.4229,0.0019 -3.6348,0.0039 l -0.7275,0.001 c -0.3779,0 -0.8057,0 -1.2041,0.0513 -0.9805,0.1258 -1.5898,0.567 -1.8623,1.3497 -0.126,0.3628 -0.1934,0.774 -0.1943,1.1882 -0.0127,5.7976 -0.01,11.5971 -0.007,17.3966 0,0.2351 0.0156,0.4818 0.0469,0.7537 0.1504,1.2723 0.9531,1.9815 2.2588,1.998 3.3691,0.0406 6.7949,0.0232 10.1094,0.0058 0.6396,-0.0039 1.1816,-0.2109 1.6084,-0.6144 0.4482,-0.4238 0.6699,-0.9734 0.6768,-1.6797 0.0127,-1.2298 0.0107,-2.4585 0.008,-3.6883 l -0.002,-1.2743 c 0,-0.0513 -0.005,-0.6763 -0.009,-1.0285 h -4.6152 v 4.8968 h -5.4482 v -6.976 h 0.418 c 0.9502,10e-4 5.6621,0.0087 8.2188,0.0019 0.792,-0.0019 1.4375,-0.6366 1.4395,-1.4155 -0.003,-1.4891 -0.003,-2.9743 -0.003,-4.4594 l -0.003,-3.8992 c 0,-0.2167 -0.006,-0.4702 -0.0488,-0.7141 -0.165,-0.9221 -0.6377,-1.4804 -1.4463,-1.7068 -0.415,-0.1151 -0.8369,-0.1771 -1.2207,-0.18 -1.4531,-0.0077 -2.9053,-0.0106 -4.3584,-0.0106 z m 2.4434,9.423 h -5.4492 V 17.209 h 5.4492 z"
         style="fill:#39414a;fill-opacity:1"
         id="path8" />
      <path
         d="m 223.0312,13.7684 c -1.2119,0 -2.4229,0.0019 -3.6348,0.0039 l -0.7275,0.001 c -0.3779,0 -0.8057,0 -1.2041,0.0513 -0.9805,0.1258 -1.5898,0.567 -1.8623,1.3497 -0.126,0.3628 -0.1934,0.774 -0.1943,1.1882 -0.0127,5.7976 -0.01,11.5971 -0.007,17.3966 0,0.2351 0.0156,0.4818 0.0469,0.7537 0.1504,1.2723 0.9531,1.9815 2.2588,1.998 3.3691,0.0406 6.7959,0.0232 10.1094,0.0058 0.6396,-0.0039 1.1816,-0.2109 1.6084,-0.6144 0.4482,-0.4238 0.6699,-0.9734 0.6768,-1.6797 0.0127,-1.2298 0.0107,-2.4585 0.008,-3.6883 l -0.002,-1.2743 c 0,-0.0513 -0.005,-0.6763 -0.009,-1.0285 h -4.6152 v 4.8968 h -5.4482 v -6.976 h 0.418 c 0.9502,10e-4 5.6621,0.0087 8.2188,0.0019 0.792,-0.0019 1.4375,-0.6366 1.4395,-1.4155 -0.003,-1.4891 -0.003,-2.9743 -0.003,-4.4594 l -0.003,-3.8992 c 0,-0.2167 -0.006,-0.4702 -0.0488,-0.7141 -0.165,-0.9221 -0.6377,-1.4804 -1.4463,-1.7068 -0.415,-0.1151 -0.8369,-0.1771 -1.2207,-0.18 -1.4531,-0.0077 -2.9053,-0.0106 -4.3584,-0.0106 z m 2.4434,9.423 h -5.4492 V 17.209 h 5.4492 z"
         style="fill:#39414a;fill-opacity:1"
         id="path9" />
      <path
         d="m 64.1519,36.0221 h 5.0229 V 22.7366 h 7.8296 v 13.2671 h 5.021 L 82.0244,5.2249 c 0,-0.0135 -5e-4,-0.0281 -0.0015,-0.0416 H 77.0004 C 76.998,5.2133 76.996,5.2443 76.996,5.2742 L 76.9945,18.1339 H 69.1644 L 69.162,5.1832 H 64.1517 V 36.022 Z"
         style="fill:#39414a;fill-opacity:1"
         id="path10" />
      <polygon
         points="9.4483,4.7991 18.6202,4.7991 11.1836,17.3259 16.9927,17.3259 24.3921,4.7981 33.4956,4.7429 33.7069,4.742 36.4848,0 12.334,0.0561 12.2486,0.0571 "
         style="fill:#f7941d"
         id="polygon10" />
      <polygon
         points="20.7515,39.7412 23.2866,35.3234 23.3301,35.2469 19.2036,28.5428 13.8867,28.5428 20.6187,39.5254 "
         style="fill:#39414a;fill-opacity:1"
         id="polygon11" />
      <polygon
         points="41.3907,7.8919 41.5241,7.6389 38.3508,2.8319 27.6101,21.1389 27.5656,21.2144 39.4536,39.5254 50.176,21.1049 50.2204,21.0285 43.3462,10.5653 37.0186,21.2054 36.8805,21.4395 39.3082,25.1521 43.2159,18.3937 44.9527,21.1948 39.2745,30.9264 33.2834,21.7325 "
         style="fill:#39414a;fill-opacity:1"
         id="polygon12" />
      <polygon
         points="12.3716,41.5263 12.4155,41.5989 18.3418,41.5989 8.7705,25.8994 21.3262,25.8868 30.8086,41.5341 30.8521,41.6066 36.7285,41.6066 23.7378,21.7844 31.8946,7.8836 26.1009,7.8836 18.5397,20.8304 5.8101,20.8652 13.4966,7.8526 7.7315,7.8526 0.1382,20.7424 0,20.9794 "
         style="fill:#f7941d"
         id="polygon13" />
    </g>
  </g>
</svg>
