<svg width="2732" height="791" viewBox="0 0 2732 791" fill="none" xmlns="http://www.w3.org/2000/svg">
<path d="M587.088 473.48C573.168 473.48 560.756 470.464 549.852 464.432C539.18 458.168 530.712 449.584 524.448 438.68C518.416 427.776 515.4 415.248 515.4 401.096V288.692H563.076V394.136C563.076 405.736 566.44 415.016 573.168 421.976C580.128 428.936 589.408 432.416 601.008 432.416C608.896 432.416 615.972 430.908 622.236 427.892C628.732 424.644 634.068 420.12 638.244 414.32V288.692H685.92V470H638.244V455.384C624.324 467.448 607.272 473.48 587.088 473.48ZM709.157 470V288.692H756.833V303.656C770.521 291.36 787.457 285.212 807.641 285.212C821.793 285.212 834.205 288.344 844.877 294.608C855.781 300.64 864.249 309.108 870.281 320.012C876.313 330.684 879.329 343.212 879.329 357.596V470H831.653V364.556C831.653 352.724 828.289 343.444 821.561 336.716C814.833 329.756 805.669 326.276 794.069 326.276C785.949 326.276 778.757 327.9 772.493 331.148C766.229 334.164 761.009 338.572 756.833 344.372V470H709.157ZM901.522 470V288.692H949.198V470H901.522ZM925.186 267.116C917.762 267.116 911.382 264.448 906.046 259.112C900.71 253.776 898.042 247.396 898.042 239.972C898.042 232.316 900.71 225.936 906.046 220.832C911.382 215.496 917.762 212.828 925.186 212.828C932.842 212.828 939.222 215.496 944.326 220.832C949.662 225.936 952.33 232.316 952.33 239.972C952.33 247.396 949.662 253.776 944.326 259.112C939.222 264.448 932.842 267.116 925.186 267.116ZM1031.38 470L953.771 288.692H1005.62L1055.39 409.448L1104.8 288.692H1155.61L1077.66 470H1031.38ZM1244.15 473.48C1226.06 473.48 1209.58 469.304 1194.74 460.952C1180.12 452.6 1168.52 441.348 1159.94 427.196C1151.35 413.044 1147.06 397.152 1147.06 379.52C1147.06 361.888 1151.12 345.996 1159.24 331.844C1167.59 317.692 1178.84 306.44 1193 298.088C1207.15 289.736 1222.92 285.56 1240.32 285.56C1257.72 285.56 1273.15 289.852 1286.61 298.436C1300.06 307.02 1310.62 318.62 1318.28 333.236C1326.16 347.852 1330.11 364.44 1330.11 383V395.528H1195.78C1197.87 402.72 1201.23 409.216 1205.87 415.016C1210.74 420.816 1216.66 425.34 1223.62 428.588C1230.81 431.836 1238.47 433.46 1246.59 433.46C1254.71 433.46 1262.13 432.184 1268.86 429.632C1275.82 427.08 1281.74 423.484 1286.61 418.844L1317.93 447.38C1306.79 456.428 1295.31 463.04 1283.48 467.216C1271.88 471.392 1258.77 473.48 1244.15 473.48ZM1195.08 361.424H1283.13C1281.5 354.232 1278.49 347.968 1274.08 342.632C1269.9 337.064 1264.8 332.772 1258.77 329.756C1252.97 326.508 1246.47 324.884 1239.28 324.884C1231.86 324.884 1225.13 326.392 1219.1 329.408C1213.06 332.424 1207.96 336.716 1203.78 342.284C1199.84 347.62 1196.94 354 1195.08 361.424ZM1345.4 470V288.692H1393.08V308.876C1398.88 300.988 1405.84 294.956 1413.96 290.78C1422.08 286.604 1431.24 284.516 1441.45 284.516C1450.26 284.748 1456.88 286.14 1461.28 288.692V330.452C1457.8 328.828 1453.98 327.668 1449.8 326.972C1445.62 326.044 1441.33 325.58 1436.92 325.58C1427.64 325.58 1419.18 327.9 1411.52 332.54C1403.86 337.18 1397.72 343.792 1393.08 352.376V470H1345.4ZM1543.43 473.48C1526.73 473.48 1511.3 471.392 1497.15 467.216C1483 462.808 1470.7 456.544 1460.26 448.424L1483.92 416.756C1494.36 423.716 1504.34 428.936 1513.85 432.416C1523.6 435.896 1533.22 437.636 1542.74 437.636C1553.41 437.636 1561.88 435.896 1568.14 432.416C1574.64 428.704 1577.88 423.948 1577.88 418.148C1577.88 413.508 1576.03 409.796 1572.32 407.012C1568.84 404.228 1563.15 402.256 1555.26 401.096L1520.46 395.876C1502.37 393.092 1488.68 387.292 1479.4 378.476C1470.12 369.428 1465.48 357.596 1465.48 342.98C1465.48 331.148 1468.5 321.056 1474.53 312.704C1480.79 304.12 1489.49 297.508 1500.63 292.868C1512 287.996 1525.45 285.56 1541 285.56C1554.22 285.56 1567.1 287.416 1579.62 291.128C1592.38 294.84 1604.33 300.524 1615.47 308.18L1592.5 339.152C1582.52 332.888 1573.01 328.364 1563.96 325.58C1554.92 322.796 1545.75 321.404 1536.47 321.404C1527.89 321.404 1520.93 323.028 1515.59 326.276C1510.49 329.524 1507.94 333.816 1507.94 339.152C1507.94 344.024 1509.79 347.852 1513.5 350.636C1517.22 353.42 1523.6 355.392 1532.64 356.552L1567.1 361.772C1585.19 364.324 1599 370.124 1608.51 379.172C1618.02 387.988 1622.78 399.472 1622.78 413.624C1622.78 425.224 1619.3 435.548 1612.34 444.596C1605.38 453.412 1595.98 460.488 1584.15 465.824C1572.32 470.928 1558.74 473.48 1543.43 473.48ZM1692.06 473.132C1679.07 473.132 1667.59 470.812 1657.61 466.172C1647.63 461.3 1639.86 454.688 1634.29 446.336C1628.73 437.984 1625.94 428.356 1625.94 417.452C1625.94 400.052 1632.44 386.596 1645.43 377.084C1658.65 367.34 1676.75 362.468 1699.72 362.468C1715.49 362.468 1730.34 364.904 1744.26 369.776V356.552C1744.26 346.112 1741.01 338.224 1734.52 332.888C1728.02 327.552 1718.51 324.884 1705.98 324.884C1698.33 324.884 1690.09 326.16 1681.27 328.712C1672.46 331.032 1662.25 334.744 1650.65 339.848L1633.25 304.7C1647.63 298.204 1661.32 293.332 1674.31 290.084C1687.54 286.836 1700.76 285.212 1713.99 285.212C1738.35 285.212 1757.25 291.128 1770.71 302.96C1784.4 314.56 1791.24 331.032 1791.24 352.376V470H1744.26V457.124C1736.84 462.692 1728.83 466.752 1720.25 469.304C1711.67 471.856 1702.27 473.132 1692.06 473.132ZM1671.18 416.408C1671.18 423.368 1674.2 428.936 1680.23 433.112C1686.26 437.056 1694.27 439.028 1704.24 439.028C1712.13 439.028 1719.44 438.1 1726.17 436.244C1732.89 434.156 1738.93 431.14 1744.26 427.196V400.748C1738.46 398.428 1732.43 396.688 1726.17 395.528C1719.9 394.368 1713.17 393.788 1705.98 393.788C1695.08 393.788 1686.49 395.876 1680.23 400.052C1674.2 403.996 1671.18 409.448 1671.18 416.408ZM1813.4 470V226.4L1861.08 218.396V470H1813.4ZM1940.53 470V226.4L1988.21 218.396V303.308C2002.59 291.94 2019.53 286.256 2039.02 286.256C2056.19 286.256 2071.73 290.432 2085.65 298.784C2099.57 307.136 2110.59 318.388 2118.71 332.54C2127.06 346.46 2131.24 362.12 2131.24 379.52C2131.24 396.92 2127.06 412.696 2118.71 426.848C2110.36 440.768 2099.11 451.904 2084.95 460.256C2070.8 468.376 2055.03 472.436 2037.63 472.436C2028.58 472.436 2019.76 471.16 2011.18 468.608C2002.59 466.056 1994.71 462.344 1987.51 457.472V470H1940.53ZM2031.36 432.068C2041.34 432.068 2050.27 429.748 2058.16 425.108C2066.28 420.468 2072.66 414.204 2077.3 406.316C2081.94 398.428 2084.26 389.496 2084.26 379.52C2084.26 369.544 2081.94 360.612 2077.3 352.724C2072.66 344.604 2066.28 338.34 2058.16 333.932C2050.27 329.292 2041.34 326.972 2031.36 326.972C2022.55 326.972 2014.43 328.48 2007 331.496C1999.81 334.28 1993.55 338.572 1988.21 344.372V415.016C1993.31 420.352 1999.58 424.528 2007 427.544C2014.66 430.56 2022.78 432.068 2031.36 432.068ZM2146.15 470V226.4L2193.83 218.396V470H2146.15ZM2287.49 473.48C2273.57 473.48 2261.16 470.464 2250.25 464.432C2239.58 458.168 2231.11 449.584 2224.85 438.68C2218.82 427.776 2215.8 415.248 2215.8 401.096V288.692H2263.48V394.136C2263.48 405.736 2266.84 415.016 2273.57 421.976C2280.53 428.936 2289.81 432.416 2301.41 432.416C2309.3 432.416 2316.37 430.908 2322.64 427.892C2329.13 424.644 2334.47 420.12 2338.65 414.32V288.692H2386.32V470H2338.65V455.384C2324.73 467.448 2307.67 473.48 2287.49 473.48ZM2498.3 473.48C2480.2 473.48 2463.73 469.304 2448.88 460.952C2434.27 452.6 2422.67 441.348 2414.08 427.196C2405.5 413.044 2401.21 397.152 2401.21 379.52C2401.21 361.888 2405.27 345.996 2413.39 331.844C2421.74 317.692 2432.99 306.44 2447.14 298.088C2461.29 289.736 2477.07 285.56 2494.47 285.56C2511.87 285.56 2527.3 289.852 2540.75 298.436C2554.21 307.02 2564.77 318.62 2572.42 333.236C2580.31 347.852 2584.25 364.44 2584.25 383V395.528H2449.93C2452.01 402.72 2455.38 409.216 2460.02 415.016C2464.89 420.816 2470.81 425.34 2477.77 428.588C2484.96 431.836 2492.61 433.46 2500.73 433.46C2508.85 433.46 2516.28 432.184 2523.01 429.632C2529.97 427.08 2535.88 423.484 2540.75 418.844L2572.07 447.38C2560.94 456.428 2549.45 463.04 2537.62 467.216C2526.02 471.392 2512.91 473.48 2498.3 473.48ZM2449.23 361.424H2537.27C2535.65 354.232 2532.63 347.968 2528.23 342.632C2524.05 337.064 2518.95 332.772 2512.91 329.756C2507.11 326.508 2500.62 324.884 2493.43 324.884C2486 324.884 2479.27 326.392 2473.24 329.408C2467.21 332.424 2462.11 336.716 2457.93 342.284C2453.99 347.62 2451.09 354 2449.23 361.424Z" fill="white"/>
<path d="M257 529H433V263C433 246.431 419.569 233 403 233H167C150.431 233 137 246.431 137 263V409C137 475.274 190.726 529 257 529Z" fill="url(#paint0_linear_1268_511)"/>
<g filter="url(#filter0_b_1268_511)">
<path d="M223.335 389.792V303.628V288H207.667C199.015 288 192 294.997 192 303.628V389.792C192 435.747 229.348 473 275.419 473H377V303.628V288H361.333H345.665V303.628V441.744H275.419C246.654 441.744 223.335 418.485 223.335 389.792Z" fill="white"/>
</g>
<g filter="url(#filter1_b_1268_511)">
<rect x="377" y="288" width="10" height="185" fill="white" fill-opacity="0.3"/>
</g>
<g filter="url(#filter2_b_1268_511)">
<rect x="387" y="288" width="10" height="185" fill="white" fill-opacity="0.1"/>
</g>
<g filter="url(#filter3_b_1268_511)">
<path fill-rule="evenodd" clip-rule="evenodd" d="M377 441.744H377V473H377V441.744ZM275.335 389.792V303.628V288H244L244 389.792C244 408.476 250.174 425.722 260.598 439.611C265.296 440.999 270.27 441.744 275.419 441.744H327.419C298.654 441.744 275.335 418.485 275.335 389.792Z" fill="white" fill-opacity="0.1"/>
</g>
<g filter="url(#filter4_b_1268_511)">
<path fill-rule="evenodd" clip-rule="evenodd" d="M377 288H371.665L377 288V303.628V473H377V288ZM249.335 303.628V389.792C249.335 418.485 272.654 441.744 301.419 441.744L275.419 441.744C256.317 441.744 239.617 431.487 230.552 416.194C225.967 408.457 223.335 399.431 223.335 389.792V303.628V288H218V288H249.335V303.628Z" fill="white" fill-opacity="0.3"/>
</g>
<path d="M772.112 610L786.416 542.8H813.008C816.976 542.8 820.368 543.504 823.184 544.912C826.064 546.256 828.272 548.176 829.808 550.672C831.408 553.168 832.208 556.144 832.208 559.6C832.208 563.888 831.184 567.696 829.136 571.024C827.088 574.352 824.272 576.976 820.688 578.896C817.104 580.752 813.008 581.68 808.4 581.68H785.36L779.312 610H772.112ZM786.704 575.248H808.304C811.568 575.248 814.448 574.608 816.944 573.328C819.504 572.048 821.488 570.288 822.896 568.048C824.304 565.744 825.008 563.12 825.008 560.176C825.008 556.784 823.856 554.16 821.552 552.304C819.248 550.384 816.048 549.424 811.952 549.424H792.176L786.704 575.248ZM852.085 610.96C847.797 610.96 843.957 609.968 840.565 607.984C837.237 606 834.581 603.28 832.597 599.824C830.677 596.304 829.716 592.368 829.716 588.016C829.716 584.368 830.388 580.912 831.733 577.648C833.076 574.384 834.933 571.504 837.301 569.008C839.733 566.512 842.485 564.56 845.557 563.152C848.693 561.68 852.021 560.944 855.541 560.944C859.829 560.944 863.637 561.936 866.965 563.92C870.357 565.904 873.013 568.624 874.933 572.08C876.917 575.536 877.909 579.472 877.909 583.888C877.909 587.536 877.237 590.992 875.893 594.256C874.549 597.52 872.661 600.4 870.229 602.896C867.861 605.392 865.109 607.376 861.973 608.848C858.901 610.256 855.605 610.96 852.085 610.96ZM852.373 604.624C854.933 604.624 857.333 604.112 859.573 603.088C861.813 602 863.797 600.528 865.525 598.672C867.253 596.752 868.597 594.576 869.557 592.144C870.581 589.648 871.093 587.024 871.093 584.272C871.093 581.008 870.389 578.096 868.981 575.536C867.637 572.976 865.749 570.96 863.317 569.488C860.949 568.016 858.261 567.28 855.253 567.28C852.693 567.28 850.293 567.824 848.053 568.912C845.813 569.936 843.829 571.408 842.101 573.328C840.373 575.184 838.997 577.36 837.972 579.856C837.013 582.288 836.533 584.88 836.533 587.632C836.533 590.832 837.205 593.744 838.549 596.368C839.957 598.928 841.845 600.944 844.213 602.416C846.645 603.888 849.365 604.624 852.373 604.624ZM886.107 610L882.939 561.904H889.564L891.58 600.304L911.452 561.904H917.692L921.244 600.304L939.58 561.904H946.396L922.972 610H916.156L912.7 571.504L892.732 610H886.107ZM965.266 610.864C960.786 610.864 956.786 609.904 953.266 607.984C949.746 606.064 946.994 603.408 945.01 600.016C943.026 596.56 942.034 592.656 942.034 588.304C942.034 584.592 942.674 581.104 943.954 577.84C945.298 574.512 947.122 571.6 949.426 569.104C951.794 566.608 954.482 564.656 957.49 563.248C960.562 561.84 963.826 561.136 967.282 561.136C971.186 561.136 974.674 562.128 977.746 564.112C980.818 566.096 983.25 568.784 985.042 572.176C986.834 575.568 987.73 579.44 987.73 583.792C987.73 584.432 987.698 585.136 987.634 585.904C987.634 586.608 987.57 587.344 987.442 588.112H948.946C949.01 591.312 949.778 594.16 951.25 596.656C952.722 599.152 954.706 601.136 957.202 602.608C959.698 604.016 962.482 604.72 965.554 604.72C967.922 604.72 970.226 604.368 972.466 603.664C974.706 602.96 976.722 602 978.514 600.784L982.162 605.68C979.538 607.472 976.85 608.784 974.098 609.616C971.346 610.448 968.402 610.864 965.266 610.864ZM949.618 582.448H981.106C980.914 579.504 980.178 576.912 978.898 574.672C977.618 572.432 975.922 570.672 973.81 569.392C971.698 568.048 969.298 567.376 966.61 567.376C963.922 567.376 961.394 568.048 959.026 569.392C956.722 570.672 954.738 572.464 953.074 574.768C951.474 577.008 950.322 579.568 949.618 582.448ZM988.283 610L998.555 561.904H1005.37L1004.12 567.952C1005.91 565.712 1007.99 563.984 1010.36 562.768C1012.73 561.488 1015.26 560.848 1017.95 560.848C1019.93 560.848 1021.63 561.136 1023.03 561.712L1021.69 568.24C1021.05 567.92 1020.22 567.664 1019.2 567.472C1018.17 567.28 1017.18 567.184 1016.22 567.184C1010.65 567.184 1006.01 570.256 1002.3 576.4L995.195 610H988.283ZM1042.06 610.864C1037.58 610.864 1033.58 609.904 1030.06 607.984C1026.54 606.064 1023.78 603.408 1021.8 600.016C1019.82 596.56 1018.82 592.656 1018.82 588.304C1018.82 584.592 1019.46 581.104 1020.74 577.84C1022.09 574.512 1023.91 571.6 1026.22 569.104C1028.58 566.608 1031.27 564.656 1034.28 563.248C1037.35 561.84 1040.62 561.136 1044.07 561.136C1047.98 561.136 1051.46 562.128 1054.54 564.112C1057.61 566.096 1060.04 568.784 1061.83 572.176C1063.62 575.568 1064.52 579.44 1064.52 583.792C1064.52 584.432 1064.49 585.136 1064.42 585.904C1064.42 586.608 1064.36 587.344 1064.23 588.112H1025.74C1025.8 591.312 1026.57 594.16 1028.04 596.656C1029.51 599.152 1031.5 601.136 1033.99 602.608C1036.49 604.016 1039.27 604.72 1042.34 604.72C1044.71 604.72 1047.02 604.368 1049.26 603.664C1051.5 602.96 1053.51 602 1055.3 600.784L1058.95 605.68C1056.33 607.472 1053.64 608.784 1050.89 609.616C1048.14 610.448 1045.19 610.864 1042.06 610.864ZM1026.41 582.448H1057.9C1057.7 579.504 1056.97 576.912 1055.69 574.672C1054.41 572.432 1052.71 570.672 1050.6 569.392C1048.49 568.048 1046.09 567.376 1043.4 567.376C1040.71 567.376 1038.18 568.048 1035.82 569.392C1033.51 570.672 1031.53 572.464 1029.86 574.768C1028.26 577.008 1027.11 579.568 1026.41 582.448ZM1089.17 610.768C1085.14 610.768 1081.52 609.808 1078.32 607.888C1075.12 605.968 1072.59 603.344 1070.74 600.016C1068.88 596.688 1067.95 592.912 1067.95 588.688C1067.95 584.912 1068.62 581.392 1069.97 578.128C1071.38 574.8 1073.3 571.888 1075.73 569.392C1078.16 566.832 1080.98 564.848 1084.18 563.44C1087.38 561.968 1090.8 561.232 1094.45 561.232C1097.71 561.232 1100.72 561.84 1103.47 563.056C1106.29 564.208 1108.69 565.904 1110.67 568.144L1116.05 542.8L1123.25 541.168L1108.66 610H1101.74L1102.42 606.64C1098.38 609.392 1093.97 610.768 1089.17 610.768ZM1090.7 604.624C1093.14 604.624 1095.5 604.176 1097.81 603.28C1100.11 602.32 1102.16 601.008 1103.95 599.344L1109.14 575.152C1107.86 572.848 1105.9 570.992 1103.28 569.584C1100.66 568.176 1097.78 567.472 1094.64 567.472C1090.99 567.472 1087.66 568.4 1084.66 570.256C1081.65 572.112 1079.25 574.608 1077.46 577.744C1075.66 580.816 1074.77 584.272 1074.77 588.112C1074.77 591.312 1075.44 594.16 1076.78 596.656C1078.19 599.152 1080.08 601.104 1082.45 602.512C1084.88 603.92 1087.63 604.624 1090.7 604.624ZM1158.19 610.864C1154.92 610.864 1151.88 610.256 1149.07 609.04C1146.31 607.824 1143.95 606.096 1141.96 603.856L1140.62 610H1133.8L1148.11 542.8L1155.31 541.168L1150.22 565.264C1154.19 562.576 1158.57 561.232 1163.37 561.232C1167.47 561.232 1171.08 562.192 1174.22 564.112C1177.42 566.032 1179.95 568.656 1181.8 571.984C1183.66 575.312 1184.59 579.088 1184.59 583.312C1184.59 587.088 1183.88 590.64 1182.47 593.968C1181.13 597.296 1179.24 600.24 1176.81 602.8C1174.44 605.296 1171.66 607.28 1168.46 608.752C1165.26 610.16 1161.83 610.864 1158.19 610.864ZM1157.99 604.528C1161.71 604.528 1165.03 603.6 1167.98 601.744C1170.99 599.888 1173.35 597.392 1175.08 594.256C1176.87 591.12 1177.77 587.664 1177.77 583.888C1177.77 580.688 1177.1 577.872 1175.75 575.44C1174.41 572.944 1172.52 570.992 1170.09 569.584C1167.72 568.176 1165 567.472 1161.93 567.472C1159.43 567.472 1157.03 567.92 1154.73 568.816C1152.49 569.648 1150.44 570.896 1148.59 572.56L1143.5 596.752C1144.78 599.12 1146.73 601.008 1149.35 602.416C1151.98 603.824 1154.86 604.528 1157.99 604.528ZM1181.02 630.544C1180.12 630.544 1179.23 630.48 1178.33 630.352C1177.44 630.224 1176.57 630.032 1175.74 629.776L1177.08 623.44C1177.6 623.632 1178.24 623.76 1179 623.824C1179.71 623.952 1180.44 624.016 1181.21 624.016C1183.26 624.016 1185.15 623.44 1186.88 622.288C1188.6 621.136 1190.24 619.376 1191.77 617.008L1196.38 609.904L1187.16 561.904H1194.56L1201.76 601.744L1226.52 561.904H1234.3L1198.68 618.448C1196 622.736 1193.28 625.808 1190.52 627.664C1187.77 629.584 1184.6 630.544 1181.02 630.544ZM1263.28 610.864C1258.8 610.864 1255.53 609.808 1253.48 607.696C1251.5 605.52 1250.92 602.48 1251.76 598.576L1258.19 567.952H1248.01L1249.36 561.904H1259.44L1262.03 549.712L1269.42 547.888L1266.44 561.904H1280.46L1279.12 567.952H1265.1L1258.86 597.04C1258.28 599.792 1258.54 601.776 1259.63 602.992C1260.72 604.144 1262.83 604.72 1265.96 604.72C1266.86 604.72 1267.72 604.656 1268.56 604.528C1269.39 604.336 1270.38 604.08 1271.53 603.76L1270.28 610C1269.26 610.256 1268.11 610.448 1266.83 610.576C1265.61 610.768 1264.43 610.864 1263.28 610.864ZM1274.07 610L1288.37 542.8L1295.57 541.168L1290.2 566.704C1294.36 562.928 1299.19 561.04 1304.69 561.04C1308.47 561.04 1311.64 561.904 1314.2 563.632C1316.82 565.36 1318.68 567.728 1319.76 570.736C1320.85 573.744 1320.98 577.168 1320.15 581.008L1314 610H1307.09L1313.04 581.872C1314 577.456 1313.49 573.904 1311.51 571.216C1309.59 568.528 1306.55 567.184 1302.39 567.184C1299.76 567.184 1297.27 567.76 1294.9 568.912C1292.6 570.064 1290.52 571.728 1288.66 573.904L1280.98 610H1274.07ZM1347.9 610.864C1343.42 610.864 1339.42 609.904 1335.9 607.984C1332.38 606.064 1329.63 603.408 1327.64 600.016C1325.66 596.56 1324.67 592.656 1324.67 588.304C1324.67 584.592 1325.31 581.104 1326.59 577.84C1327.93 574.512 1329.75 571.6 1332.06 569.104C1334.43 566.608 1337.11 564.656 1340.12 563.248C1343.19 561.84 1346.46 561.136 1349.91 561.136C1353.82 561.136 1357.31 562.128 1360.38 564.112C1363.45 566.096 1365.88 568.784 1367.67 572.176C1369.47 575.568 1370.36 579.44 1370.36 583.792C1370.36 584.432 1370.33 585.136 1370.27 585.904C1370.27 586.608 1370.2 587.344 1370.07 588.112H1331.58C1331.64 591.312 1332.41 594.16 1333.88 596.656C1335.35 599.152 1337.34 601.136 1339.83 602.608C1342.33 604.016 1345.11 604.72 1348.19 604.72C1350.55 604.72 1352.86 604.368 1355.1 603.664C1357.34 602.96 1359.35 602 1361.15 600.784L1364.79 605.68C1362.17 607.472 1359.48 608.784 1356.73 609.616C1353.98 610.448 1351.03 610.864 1347.9 610.864ZM1332.25 582.448H1363.74C1363.55 579.504 1362.81 576.912 1361.53 574.672C1360.25 572.432 1358.55 570.672 1356.44 569.392C1354.33 568.048 1351.93 567.376 1349.24 567.376C1346.55 567.376 1344.03 568.048 1341.66 569.392C1339.35 570.672 1337.37 572.464 1335.71 574.768C1334.11 577.008 1332.95 579.568 1332.25 582.448ZM1394.42 610L1403.35 567.952H1392.31L1393.56 561.904H1404.69L1406.8 551.824C1407.76 547.408 1409.62 544.048 1412.37 541.744C1415.12 539.376 1418.64 538.192 1422.93 538.192C1424.28 538.192 1425.56 538.288 1426.77 538.48C1428.05 538.672 1429.2 538.992 1430.23 539.44L1428.98 545.776C1427.96 545.328 1426.93 545.008 1425.91 544.816C1424.95 544.624 1423.83 544.528 1422.55 544.528C1419.99 544.528 1418 545.136 1416.6 546.352C1415.19 547.568 1414.2 549.584 1413.62 552.4L1411.6 561.904H1425.52L1424.18 567.952H1410.26L1401.33 610H1394.42ZM1438.31 610.864C1434.54 610.864 1431.34 610 1428.71 608.272C1426.09 606.48 1424.23 604.08 1423.14 601.072C1422.12 598.064 1421.99 594.64 1422.76 590.8L1428.9 561.904H1435.82L1429.86 590.032C1428.9 594.448 1429.42 598 1431.4 600.688C1433.38 603.376 1436.42 604.72 1440.52 604.72C1443.21 604.72 1445.74 604.144 1448.1 602.992C1450.47 601.776 1452.55 600.048 1454.34 597.808L1462.02 561.904H1468.94L1458.66 610H1451.75L1452.81 605.2C1448.52 608.976 1443.69 610.864 1438.31 610.864ZM1486.7 610.864C1482.22 610.864 1478.96 609.808 1476.91 607.696C1474.93 605.52 1474.35 602.48 1475.18 598.576L1481.62 567.952H1471.44L1472.78 561.904H1482.86L1485.46 549.712L1492.85 547.888L1489.87 561.904H1503.89L1502.54 567.952H1488.53L1482.29 597.04C1481.71 599.792 1481.97 601.776 1483.06 602.992C1484.14 604.144 1486.26 604.72 1489.39 604.72C1490.29 604.72 1491.15 604.656 1491.98 604.528C1492.82 604.336 1493.81 604.08 1494.96 603.76L1493.71 610C1492.69 610.256 1491.54 610.448 1490.26 610.576C1489.04 610.768 1487.86 610.864 1486.7 610.864ZM1516.6 610.864C1512.82 610.864 1509.62 610 1507 608.272C1504.38 606.48 1502.52 604.08 1501.43 601.072C1500.41 598.064 1500.28 594.64 1501.05 590.8L1507.19 561.904H1514.1L1508.15 590.032C1507.19 594.448 1507.7 598 1509.69 600.688C1511.67 603.376 1514.71 604.72 1518.81 604.72C1521.5 604.72 1524.02 604.144 1526.39 602.992C1528.76 601.776 1530.84 600.048 1532.63 597.808L1540.31 561.904H1547.22L1536.95 610H1530.04L1531.1 605.2C1526.81 608.976 1521.98 610.864 1516.6 610.864ZM1545.12 610L1555.39 561.904H1562.21L1560.96 567.952C1562.75 565.712 1564.83 563.984 1567.2 562.768C1569.57 561.488 1572.1 560.848 1574.78 560.848C1576.77 560.848 1578.46 561.136 1579.87 561.712L1578.53 568.24C1577.89 567.92 1577.06 567.664 1576.03 567.472C1575.01 567.28 1574.02 567.184 1573.06 567.184C1567.49 567.184 1562.85 570.256 1559.14 576.4L1552.03 610H1545.12ZM1598.89 610.864C1594.41 610.864 1590.41 609.904 1586.89 607.984C1583.37 606.064 1580.62 603.408 1578.64 600.016C1576.65 596.56 1575.66 592.656 1575.66 588.304C1575.66 584.592 1576.3 581.104 1577.58 577.84C1578.92 574.512 1580.75 571.6 1583.05 569.104C1585.42 566.608 1588.11 564.656 1591.12 563.248C1594.19 561.84 1597.45 561.136 1600.91 561.136C1604.81 561.136 1608.3 562.128 1611.37 564.112C1614.44 566.096 1616.88 568.784 1618.67 572.176C1620.46 575.568 1621.36 579.44 1621.36 583.792C1621.36 584.432 1621.32 585.136 1621.26 585.904C1621.26 586.608 1621.2 587.344 1621.07 588.112H1582.57C1582.64 591.312 1583.4 594.16 1584.88 596.656C1586.35 599.152 1588.33 601.136 1590.83 602.608C1593.32 604.016 1596.11 604.72 1599.18 604.72C1601.55 604.72 1603.85 604.368 1606.09 603.664C1608.33 602.96 1610.35 602 1612.14 600.784L1615.79 605.68C1613.16 607.472 1610.48 608.784 1607.72 609.616C1604.97 610.448 1602.03 610.864 1598.89 610.864ZM1583.24 582.448H1614.73C1614.54 579.504 1613.8 576.912 1612.52 574.672C1611.24 572.432 1609.55 570.672 1607.44 569.392C1605.32 568.048 1602.92 567.376 1600.24 567.376C1597.55 567.376 1595.02 568.048 1592.65 569.392C1590.35 570.672 1588.36 572.464 1586.7 574.768C1585.1 577.008 1583.95 579.568 1583.24 582.448ZM1616.18 623.152L1625.88 602.896H1633.56L1621.75 623.152H1616.18ZM1681.83 610.672C1677.67 610.672 1673.9 609.68 1670.5 607.696C1667.18 605.648 1664.52 602.864 1662.54 599.344C1660.55 595.824 1659.56 591.888 1659.56 587.536C1659.56 583.632 1660.26 579.984 1661.67 576.592C1663.14 573.136 1665.16 570.128 1667.72 567.568C1670.28 565.008 1673.26 562.992 1676.65 561.52C1680.04 560.048 1683.62 559.312 1687.4 559.312C1690.34 559.312 1693.1 559.76 1695.66 560.656C1698.28 561.552 1700.55 562.864 1702.47 564.592L1707.08 542.8L1720.62 539.92L1705.74 610H1692.97L1693.45 607.504C1689.8 609.616 1685.93 610.672 1681.83 610.672ZM1685.29 599.536C1687.34 599.536 1689.22 599.216 1690.95 598.576C1692.74 597.936 1694.38 596.976 1695.85 595.696L1700.07 575.92C1698.79 574.32 1697.06 573.04 1694.89 572.08C1692.71 571.056 1690.38 570.544 1687.88 570.544C1685 570.544 1682.38 571.28 1680.01 572.752C1677.64 574.16 1675.75 576.048 1674.34 578.416C1672.94 580.784 1672.23 583.44 1672.23 586.384C1672.23 588.88 1672.78 591.152 1673.86 593.2C1675.02 595.184 1676.58 596.752 1678.57 597.904C1680.55 598.992 1682.79 599.536 1685.29 599.536ZM1740.21 610.96C1735.35 610.96 1731 609.968 1727.16 607.984C1723.38 605.936 1720.41 603.12 1718.23 599.536C1716.05 595.888 1714.97 591.792 1714.97 587.248C1714.97 583.408 1715.67 579.792 1717.08 576.4C1718.49 573.008 1720.44 570.032 1722.93 567.472C1725.43 564.848 1728.31 562.832 1731.57 561.424C1734.84 559.952 1738.33 559.216 1742.04 559.216C1746.45 559.216 1750.36 560.272 1753.75 562.384C1757.14 564.432 1759.8 567.248 1761.72 570.832C1763.64 574.416 1764.6 578.576 1764.6 583.312C1764.6 584.016 1764.57 584.784 1764.5 585.616C1764.5 586.448 1764.37 587.696 1764.12 589.36H1727.83C1728.21 591.472 1729.01 593.36 1730.23 595.024C1731.45 596.624 1732.98 597.872 1734.84 598.768C1736.76 599.664 1738.9 600.112 1741.27 600.112C1743.38 600.112 1745.37 599.792 1747.22 599.152C1749.08 598.512 1750.71 597.616 1752.12 596.464L1759.32 604.816C1756.25 606.992 1753.21 608.56 1750.2 609.52C1747.19 610.48 1743.86 610.96 1740.21 610.96ZM1728.6 580.048H1752.5C1752.12 578.064 1751.41 576.336 1750.39 574.864C1749.37 573.392 1748.09 572.24 1746.55 571.408C1745.01 570.576 1743.29 570.16 1741.37 570.16C1739.45 570.16 1737.62 570.576 1735.89 571.408C1734.23 572.24 1732.76 573.392 1731.48 574.864C1730.26 576.336 1729.3 578.064 1728.6 580.048ZM1763.56 610L1777.86 542.8L1791.3 539.92L1776.42 610H1763.56ZM1782.78 610L1793.34 559.984H1806.2L1795.64 610H1782.78ZM1801.79 554.032C1799.93 554.032 1798.36 553.392 1797.08 552.112C1795.87 550.832 1795.26 549.264 1795.26 547.408C1795.26 545.872 1795.64 544.464 1796.41 543.184C1797.18 541.904 1798.17 540.912 1799.39 540.208C1800.67 539.44 1802.04 539.056 1803.52 539.056C1805.37 539.056 1806.91 539.696 1808.12 540.976C1809.4 542.192 1810.04 543.728 1810.04 545.584C1810.04 547.12 1809.66 548.528 1808.89 549.808C1808.12 551.024 1807.1 552.048 1805.82 552.88C1804.6 553.648 1803.26 554.032 1801.79 554.032ZM1817.94 610L1807.47 559.984H1821.2L1827.44 593.296L1847.89 559.984H1862L1830.32 610H1817.94ZM1880.57 610.96C1875.71 610.96 1871.36 609.968 1867.52 607.984C1863.74 605.936 1860.76 603.12 1858.59 599.536C1856.41 595.888 1855.32 591.792 1855.32 587.248C1855.32 583.408 1856.03 579.792 1857.44 576.4C1858.84 573.008 1860.8 570.032 1863.29 567.472C1865.79 564.848 1868.67 562.832 1871.93 561.424C1875.2 559.952 1878.68 559.216 1882.4 559.216C1886.81 559.216 1890.72 560.272 1894.11 562.384C1897.5 564.432 1900.16 567.248 1902.08 570.832C1904 574.416 1904.96 578.576 1904.96 583.312C1904.96 584.016 1904.92 584.784 1904.86 585.616C1904.86 586.448 1904.73 587.696 1904.48 589.36H1868.19C1868.57 591.472 1869.37 593.36 1870.59 595.024C1871.8 596.624 1873.34 597.872 1875.2 598.768C1877.12 599.664 1879.26 600.112 1881.63 600.112C1883.74 600.112 1885.72 599.792 1887.58 599.152C1889.44 598.512 1891.07 597.616 1892.48 596.464L1899.68 604.816C1896.6 606.992 1893.56 608.56 1890.56 609.52C1887.55 610.48 1884.22 610.96 1880.57 610.96ZM1868.96 580.048H1892.86C1892.48 578.064 1891.77 576.336 1890.75 574.864C1889.72 573.392 1888.44 572.24 1886.91 571.408C1885.37 570.576 1883.64 570.16 1881.72 570.16C1879.8 570.16 1877.98 570.576 1876.25 571.408C1874.59 572.24 1873.12 573.392 1871.84 574.864C1870.62 576.336 1869.66 578.064 1868.96 580.048ZM1903.82 610L1914.48 559.984H1927.34L1926.28 564.976C1928.14 563.056 1930.19 561.584 1932.43 560.56C1934.67 559.536 1937.04 559.024 1939.53 559.024C1942.28 559.024 1944.36 559.472 1945.77 560.368L1943.37 571.888C1942.73 571.44 1941.71 571.056 1940.3 570.736C1938.89 570.352 1937.55 570.16 1936.27 570.16C1931.28 570.16 1927.08 572.432 1923.69 576.976L1916.78 610H1903.82ZM1966.36 610.96C1961.5 610.96 1957.15 609.968 1953.31 607.984C1949.53 605.936 1946.55 603.12 1944.38 599.536C1942.2 595.888 1941.11 591.792 1941.11 587.248C1941.11 583.408 1941.82 579.792 1943.23 576.4C1944.63 573.008 1946.59 570.032 1949.08 567.472C1951.58 564.848 1954.46 562.832 1957.72 561.424C1960.99 559.952 1964.47 559.216 1968.19 559.216C1972.6 559.216 1976.51 560.272 1979.9 562.384C1983.29 564.432 1985.95 567.248 1987.87 570.832C1989.79 574.416 1990.75 578.576 1990.75 583.312C1990.75 584.016 1990.71 584.784 1990.65 585.616C1990.65 586.448 1990.52 587.696 1990.27 589.36H1953.98C1954.36 591.472 1955.16 593.36 1956.38 595.024C1957.59 596.624 1959.13 597.872 1960.99 598.768C1962.91 599.664 1965.05 600.112 1967.42 600.112C1969.53 600.112 1971.51 599.792 1973.37 599.152C1975.23 598.512 1976.86 597.616 1978.27 596.464L1985.47 604.816C1982.39 606.992 1979.35 608.56 1976.35 609.52C1973.34 610.48 1970.01 610.96 1966.36 610.96ZM1954.75 580.048H1978.65C1978.27 578.064 1977.56 576.336 1976.54 574.864C1975.51 573.392 1974.23 572.24 1972.7 571.408C1971.16 570.576 1969.43 570.16 1967.51 570.16C1965.59 570.16 1963.77 570.576 1962.04 571.408C1960.38 572.24 1958.91 573.392 1957.63 574.864C1956.41 576.336 1955.45 578.064 1954.75 580.048ZM2015.05 610.672C2010.89 610.672 2007.11 609.68 2003.72 607.696C2000.39 605.648 1997.74 602.864 1995.75 599.344C1993.77 595.824 1992.78 591.888 1992.78 587.536C1992.78 583.632 1993.48 579.984 1994.89 576.592C1996.36 573.136 1998.38 570.128 2000.94 567.568C2003.5 565.008 2006.47 562.992 2009.87 561.52C2013.26 560.048 2016.84 559.312 2020.62 559.312C2023.56 559.312 2026.31 559.76 2028.87 560.656C2031.5 561.552 2033.77 562.864 2035.69 564.592L2040.3 542.8L2053.83 539.92L2038.95 610H2026.19L2026.67 607.504C2023.02 609.616 2019.15 610.672 2015.05 610.672ZM2018.51 599.536C2020.55 599.536 2022.44 599.216 2024.17 598.576C2025.96 597.936 2027.59 596.976 2029.07 595.696L2033.29 575.92C2032.01 574.32 2030.28 573.04 2028.11 572.08C2025.93 571.056 2023.59 570.544 2021.1 570.544C2018.22 570.544 2015.59 571.28 2013.23 572.752C2010.86 574.16 2008.97 576.048 2007.56 578.416C2006.15 580.784 2005.45 583.44 2005.45 586.384C2005.45 588.88 2005.99 591.152 2007.08 593.2C2008.23 595.184 2009.8 596.752 2011.79 597.904C2013.77 598.992 2016.01 599.536 2018.51 599.536ZM2084.87 610.672C2079.24 610.672 2075.18 609.328 2072.68 606.64C2070.25 603.952 2069.58 600.112 2070.66 595.12L2075.75 570.928H2065.67L2067.98 559.984H2078.06L2080.74 547.216L2094.28 544.24L2090.92 559.984H2104.84L2102.54 570.928H2088.62L2083.82 592.912C2083.37 595.344 2083.62 597.104 2084.58 598.192C2085.54 599.216 2087.4 599.728 2090.15 599.728C2091.18 599.728 2092.17 599.664 2093.13 599.536C2094.09 599.408 2095.14 599.216 2096.3 598.96L2093.99 609.616C2092.84 609.872 2091.4 610.096 2089.67 610.288C2087.94 610.544 2086.34 610.672 2084.87 610.672ZM2124.99 610.96C2120.32 610.96 2116.13 609.904 2112.41 607.792C2108.7 605.68 2105.76 602.8 2103.58 599.152C2101.47 595.504 2100.41 591.44 2100.41 586.96C2100.41 583.12 2101.12 579.536 2102.53 576.208C2104 572.816 2106.01 569.84 2108.57 567.28C2111.2 564.72 2114.21 562.704 2117.6 561.232C2120.99 559.76 2124.57 559.024 2128.35 559.024C2133.02 559.024 2137.18 560.08 2140.83 562.192C2144.54 564.304 2147.49 567.184 2149.66 570.832C2151.84 574.416 2152.93 578.48 2152.93 583.024C2152.93 586.864 2152.19 590.48 2150.72 593.872C2149.25 597.2 2147.2 600.144 2144.57 602.704C2142.01 605.264 2139.07 607.28 2135.74 608.752C2132.41 610.224 2128.83 610.96 2124.99 610.96ZM2125.57 599.536C2127.61 599.536 2129.5 599.12 2131.23 598.288C2133.02 597.456 2134.59 596.336 2135.93 594.928C2137.28 593.456 2138.33 591.76 2139.1 589.84C2139.87 587.856 2140.25 585.808 2140.25 583.696C2140.25 581.072 2139.71 578.768 2138.62 576.784C2137.53 574.8 2136.03 573.264 2134.11 572.176C2132.25 571.024 2130.11 570.448 2127.68 570.448C2125.69 570.448 2123.81 570.864 2122.01 571.696C2120.29 572.528 2118.72 573.68 2117.31 575.152C2115.97 576.56 2114.91 578.256 2114.14 580.24C2113.44 582.16 2113.09 584.176 2113.09 586.288C2113.09 588.848 2113.6 591.152 2114.62 593.2C2115.71 595.184 2117.18 596.752 2119.04 597.904C2120.96 598.992 2123.13 599.536 2125.57 599.536ZM2177.16 610.672C2173 610.672 2169.22 609.68 2165.83 607.696C2162.5 605.648 2159.85 602.864 2157.86 599.344C2155.88 595.824 2154.89 591.888 2154.89 587.536C2154.89 583.632 2155.59 579.984 2157 576.592C2158.47 573.136 2160.49 570.128 2163.05 567.568C2165.61 565.008 2168.58 562.992 2171.97 561.52C2175.37 560.048 2178.95 559.312 2182.73 559.312C2185.67 559.312 2188.42 559.76 2190.98 560.656C2193.61 561.552 2195.88 562.864 2197.8 564.592L2202.41 542.8L2215.94 539.92L2201.06 610H2188.29L2188.77 607.504C2185.13 609.616 2181.25 610.672 2177.16 610.672ZM2180.61 599.536C2182.66 599.536 2184.55 599.216 2186.28 598.576C2188.07 597.936 2189.7 596.976 2191.17 595.696L2195.4 575.92C2194.12 574.32 2192.39 573.04 2190.21 572.08C2188.04 571.056 2185.7 570.544 2183.21 570.544C2180.33 570.544 2177.7 571.28 2175.33 572.752C2172.97 574.16 2171.08 576.048 2169.67 578.416C2168.26 580.784 2167.56 583.44 2167.56 586.384C2167.56 588.88 2168.1 591.152 2169.19 593.2C2170.34 595.184 2171.91 596.752 2173.89 597.904C2175.88 598.992 2178.12 599.536 2180.61 599.536ZM2225.46 610.576C2220.28 610.576 2216.15 609.328 2213.08 606.832C2210 604.272 2208.47 600.88 2208.47 596.656C2208.47 593.2 2209.3 590.256 2210.96 587.824C2212.69 585.392 2215.12 583.504 2218.26 582.16C2221.4 580.816 2225.14 580.144 2229.49 580.144C2231.86 580.144 2234.2 580.368 2236.5 580.816C2238.87 581.264 2241.08 581.904 2243.12 582.736L2243.7 580.144C2244.4 576.752 2243.89 574.224 2242.16 572.56C2240.5 570.832 2237.62 569.968 2233.52 569.968C2231.67 569.968 2229.62 570.224 2227.38 570.736C2225.2 571.248 2222.55 572.08 2219.41 573.232L2216.24 563.344C2219.96 561.872 2223.48 560.816 2226.8 560.176C2230.13 559.472 2233.3 559.12 2236.31 559.12C2241.36 559.12 2245.52 559.952 2248.79 561.616C2252.12 563.28 2254.45 565.68 2255.8 568.816C2257.14 571.888 2257.33 575.6 2256.37 579.952L2250.04 610H2237.36L2237.94 606.928C2235.96 608.144 2233.94 609.072 2231.89 609.712C2229.84 610.288 2227.7 610.576 2225.46 610.576ZM2229.88 601.264C2231.67 601.264 2233.4 601.04 2235.06 600.592C2236.72 600.08 2238.29 599.376 2239.76 598.48L2241.4 591.184C2238.07 589.584 2234.42 588.784 2230.45 588.784C2227.44 588.784 2225.04 589.392 2223.25 590.608C2221.52 591.824 2220.66 593.456 2220.66 595.504C2220.66 597.296 2221.46 598.704 2223.06 599.728C2224.72 600.752 2227 601.264 2229.88 601.264ZM2256.88 630.544C2255.47 630.544 2254.16 630.448 2252.94 630.256C2251.66 630.128 2250.44 629.904 2249.29 629.584L2251.6 618.352C2252.24 618.544 2252.94 618.672 2253.71 618.736C2254.48 618.864 2255.34 618.928 2256.3 618.928C2258.54 618.928 2260.52 618.416 2262.25 617.392C2264.04 616.368 2265.61 614.8 2266.96 612.688L2268.68 610L2260.04 559.984H2273.77L2278.96 595.12L2300.46 559.984H2314.57L2279.24 616.144C2276.04 621.264 2272.68 624.944 2269.16 627.184C2265.71 629.424 2261.61 630.544 2256.88 630.544ZM2305.56 610.96C2303.64 610.96 2302.01 610.32 2300.67 609.04C2299.39 607.696 2298.75 606.064 2298.75 604.144C2298.75 602.608 2299.13 601.2 2299.9 599.92C2300.73 598.576 2301.79 597.488 2303.07 596.656C2304.41 595.824 2305.85 595.408 2307.39 595.408C2309.37 595.408 2310.97 596.08 2312.19 597.424C2313.47 598.704 2314.11 600.304 2314.11 602.224C2314.11 603.76 2313.69 605.2 2312.86 606.544C2312.09 607.824 2311.07 608.88 2309.79 609.712C2308.51 610.544 2307.1 610.96 2305.56 610.96Z" fill="white"/>
<defs>
<filter id="filter0_b_1268_511" x="152.7" y="248.7" width="263.6" height="263.6" filterUnits="userSpaceOnUse" color-interpolation-filters="sRGB">
<feFlood flood-opacity="0" result="BackgroundImageFix"/>
<feGaussianBlur in="BackgroundImageFix" stdDeviation="19.65"/>
<feComposite in2="SourceAlpha" operator="in" result="effect1_backgroundBlur_1268_511"/>
<feBlend mode="normal" in="SourceGraphic" in2="effect1_backgroundBlur_1268_511" result="shape"/>
</filter>
<filter id="filter1_b_1268_511" x="337" y="248" width="90" height="265" filterUnits="userSpaceOnUse" color-interpolation-filters="sRGB">
<feFlood flood-opacity="0" result="BackgroundImageFix"/>
<feGaussianBlur in="BackgroundImageFix" stdDeviation="20"/>
<feComposite in2="SourceAlpha" operator="in" result="effect1_backgroundBlur_1268_511"/>
<feBlend mode="normal" in="SourceGraphic" in2="effect1_backgroundBlur_1268_511" result="shape"/>
</filter>
<filter id="filter2_b_1268_511" x="347" y="248" width="90" height="265" filterUnits="userSpaceOnUse" color-interpolation-filters="sRGB">
<feFlood flood-opacity="0" result="BackgroundImageFix"/>
<feGaussianBlur in="BackgroundImageFix" stdDeviation="20"/>
<feComposite in2="SourceAlpha" operator="in" result="effect1_backgroundBlur_1268_511"/>
<feBlend mode="normal" in="SourceGraphic" in2="effect1_backgroundBlur_1268_511" result="shape"/>
</filter>
<filter id="filter3_b_1268_511" x="204" y="248" width="213" height="265" filterUnits="userSpaceOnUse" color-interpolation-filters="sRGB">
<feFlood flood-opacity="0" result="BackgroundImageFix"/>
<feGaussianBlur in="BackgroundImageFix" stdDeviation="20"/>
<feComposite in2="SourceAlpha" operator="in" result="effect1_backgroundBlur_1268_511"/>
<feBlend mode="normal" in="SourceGraphic" in2="effect1_backgroundBlur_1268_511" result="shape"/>
</filter>
<filter id="filter4_b_1268_511" x="178" y="248" width="239" height="265" filterUnits="userSpaceOnUse" color-interpolation-filters="sRGB">
<feFlood flood-opacity="0" result="BackgroundImageFix"/>
<feGaussianBlur in="BackgroundImageFix" stdDeviation="20"/>
<feComposite in2="SourceAlpha" operator="in" result="effect1_backgroundBlur_1268_511"/>
<feBlend mode="normal" in="SourceGraphic" in2="effect1_backgroundBlur_1268_511" result="shape"/>
</filter>
<linearGradient id="paint0_linear_1268_511" x1="416" y1="529" x2="97.4795" y2="284.481" gradientUnits="userSpaceOnUse">
<stop offset="0.18594" stop-color="#3550EC"/>
<stop offset="0.795405" stop-color="#252B4B"/>
</linearGradient>
</defs>
</svg>
