<svg id="Layer_1" data-name="Layer 1" xmlns="http://www.w3.org/2000/svg" viewBox="0 0 150 50"><defs><style>.cls-1{fill:#72a5d8;}.cls-2{fill:#304050;opacity:0.1;}.cls-3{fill:#fff;}</style></defs><rect id="button" class="cls-1" width="150" height="50" rx="8"/><path id="icon-bg" class="cls-2" d="M9.43,0H50V50H9.43C4.22,50,0,45.43,0,39.8V10.2C0,4.57,4.22,0,9.43,0Z"/><polygon class="cls-3" points="24.5 23.5 21.5 23.5 21.5 25.5 24.5 25.5 24.5 28.5 29.5 24.5 24.5 20.5 24.5 23.5"/><path class="cls-3" d="M25,15A10,10,0,1,0,35,25,10,10,0,0,0,25,15Zm0,18a8,8,0,1,1,8-8A8,8,0,0,1,25,33Z"/><path class="cls-3" d="M75,29.53V18.69h3.74a6.88,6.88,0,0,1,1.82.2,3.4,3.4,0,0,1,1.24.58,2.28,2.28,0,0,1,.71.9,3.09,3.09,0,0,1,.22,1.2,2.29,2.29,0,0,1-.11.74,2.16,2.16,0,0,1-.35.65,2.91,2.91,0,0,1-.6.55,3.92,3.92,0,0,1-.87.42c1.49.33,2.24,1.14,2.24,2.41a3.18,3.18,0,0,1-.26,1.28,2.81,2.81,0,0,1-.77,1,3.7,3.7,0,0,1-1.23.66,5.47,5.47,0,0,1-1.69.24Zm2-6.15h1.61A2.7,2.7,0,0,0,80.19,23a1.38,1.38,0,0,0,.53-1.2,1.4,1.4,0,0,0-.48-1.2,2.51,2.51,0,0,0-1.5-.36H77Zm0,1.4V28h2a2.86,2.86,0,0,0,.94-.14,1.6,1.6,0,0,0,.6-.36,1.16,1.16,0,0,0,.33-.52,2,2,0,0,0,.1-.64,1.54,1.54,0,0,0-.11-.63,1.11,1.11,0,0,0-.35-.48,1.57,1.57,0,0,0-.62-.31,3.39,3.39,0,0,0-.9-.1Z"/><path class="cls-3" d="M86.36,21.84v4.89a1.63,1.63,0,0,0,.33,1.09,1.2,1.2,0,0,0,1,.38,2,2,0,0,0,.9-.21,3.07,3.07,0,0,0,.79-.59V21.84h1.85v7.69H90.08a.45.45,0,0,1-.47-.34l-.13-.61A5,5,0,0,1,89,29a3.38,3.38,0,0,1-.55.34,3,3,0,0,1-.62.21,2.71,2.71,0,0,1-.71.08A2.76,2.76,0,0,1,86,29.44a2.23,2.23,0,0,1-.81-.61,2.56,2.56,0,0,1-.5-.92,4,4,0,0,1-.17-1.18V21.84Z"/><path class="cls-3" d="M95.72,29.65a2.06,2.06,0,0,1-1.54-.56,2.23,2.23,0,0,1-.54-1.57v-4.3h-.77a.35.35,0,0,1-.37-.39V22.1l1.23-.2.39-2.1a.42.42,0,0,1,.14-.24.51.51,0,0,1,.28-.08h1V21.9h2v1.32h-2v4.17a.85.85,0,0,0,.18.57.63.63,0,0,0,.48.2.85.85,0,0,0,.29,0l.2-.09L96.8,28a.27.27,0,0,1,.14-.05.19.19,0,0,1,.13.05.33.33,0,0,1,.11.12l.56.9a3,3,0,0,1-.93.51A3.6,3.6,0,0,1,95.72,29.65Z"/><path class="cls-3" d="M101.53,29.65a2,2,0,0,1-1.54-.56,2.19,2.19,0,0,1-.54-1.57v-4.3h-.78a.39.39,0,0,1-.26-.09.41.41,0,0,1-.11-.3V22.1l1.24-.2.39-2.1a.42.42,0,0,1,.14-.24.46.46,0,0,1,.27-.08h1V21.9h2v1.32h-2v4.17a.85.85,0,0,0,.18.57.63.63,0,0,0,.48.2.81.81,0,0,0,.29,0l.2-.09.16-.08a.24.24,0,0,1,.13-.05.22.22,0,0,1,.14.05.44.44,0,0,1,.11.12l.55.9a3,3,0,0,1-.93.51A3.59,3.59,0,0,1,101.53,29.65Z"/><path class="cls-3" d="M108.09,21.72a4.25,4.25,0,0,1,1.56.27,3.44,3.44,0,0,1,1.2.79,3.5,3.5,0,0,1,.76,1.25,4.7,4.7,0,0,1,.27,1.64,4.76,4.76,0,0,1-.27,1.65,3.5,3.5,0,0,1-.76,1.25,3.33,3.33,0,0,1-1.2.8,4.25,4.25,0,0,1-1.56.27,4.35,4.35,0,0,1-1.57-.27,3.33,3.33,0,0,1-1.2-.8,3.52,3.52,0,0,1-.77-1.25,4.53,4.53,0,0,1-.28-1.65,4.48,4.48,0,0,1,.28-1.64,3.52,3.52,0,0,1,.77-1.25,3.44,3.44,0,0,1,1.2-.79A4.35,4.35,0,0,1,108.09,21.72Zm0,6.5a1.63,1.63,0,0,0,1.42-.65,3.22,3.22,0,0,0,.46-1.89,3.22,3.22,0,0,0-.46-1.89,1.62,1.62,0,0,0-1.42-.66,1.64,1.64,0,0,0-1.44.66,3.26,3.26,0,0,0-.47,1.89,3.21,3.21,0,0,0,.47,1.89A1.66,1.66,0,0,0,108.09,28.22Z"/><path class="cls-3" d="M113.33,29.53V21.84h1.13a.47.47,0,0,1,.48.33l.12.61a4.06,4.06,0,0,1,.5-.43,3.06,3.06,0,0,1,.54-.34,2.69,2.69,0,0,1,.62-.22,3.26,3.26,0,0,1,.72-.07,2.83,2.83,0,0,1,1.12.21,2.12,2.12,0,0,1,.81.6,2.64,2.64,0,0,1,.5.92,4,4,0,0,1,.17,1.18v4.9h-1.86v-4.9a1.63,1.63,0,0,0-.32-1.09,1.24,1.24,0,0,0-1-.38,2,2,0,0,0-.9.21,3.42,3.42,0,0,0-.8.6v5.56Z"/></svg>