<svg xmlns="http://www.w3.org/2000/svg" viewBox="0 0 24 24"><defs><style>.a{fill:#304050;}</style></defs><path class="a" d="M21.38,18.75a1,1,0,0,1-.5-.14.94.94,0,0,1-.3-1.29,10.12,10.12,0,1,0-17.16,0,.93.93,0,1,1-1.59,1A12,12,0,0,1,20.48,3.52,11.89,11.89,0,0,1,22.17,18.3a.93.93,0,0,1-.79.45Zm-6.53,4.89a.92.92,0,0,0,.68-1.14.93.93,0,0,0-1.14-.67,9.6,9.6,0,0,1-2.39.29,9.73,9.73,0,0,1-2.4-.29.92.92,0,0,0-1.13.67.93.93,0,0,0,.67,1.14,11.5,11.5,0,0,0,5.71,0Zm.52-7.83A4.36,4.36,0,0,0,12,13.88a4.33,4.33,0,0,0-3.41,1.93.93.93,0,1,0,1.58,1A2.44,2.44,0,0,1,12,15.75a2.47,2.47,0,0,1,1.84,1.06.91.91,0,0,0,.79.44.94.94,0,0,0,.5-.15.93.93,0,0,0,.29-1.29ZM6,24A.94.94,0,0,1,5,23.06V13.27a.94.94,0,1,1,1.87,0v9.79A.94.94,0,0,1,6,24Zm13-.94V13.27a.94.94,0,1,0-1.87,0v9.79a.94.94,0,1,0,1.87,0ZM6.93,10.7A2.58,2.58,0,0,1,8.55,10H9.84a.94.94,0,1,0,0-1.87H8.58A4.37,4.37,0,0,0,5.72,9.27a.94.94,0,0,0,.61,1.65A.93.93,0,0,0,6.93,10.7Zm11.53-.19a.94.94,0,0,0-.17-1.31,4.68,4.68,0,0,0-2.92-1.09H14.2a.94.94,0,0,0,0,1.88h1.2a2.86,2.86,0,0,1,1.75.69.94.94,0,0,0,.57.2.93.93,0,0,0,.74-.37Z"/></svg>