<?xml version="1.0" encoding="UTF-8" standalone="no"?>
<svg
   class="h-[36px] w-[109px] md:h-[65px] md:w-[197px]"
   viewBox="0 0 436 144.1"
   version="1.1"
   id="svg5"
   sodipodi:docname="ars.svg"
   inkscape:version="1.3.2 (091e20ef0f, 2023-11-25)"
   xmlns:inkscape="http://www.inkscape.org/namespaces/inkscape"
   xmlns:sodipodi="http://sodipodi.sourceforge.net/DTD/sodipodi-0.dtd"
   xmlns="http://www.w3.org/2000/svg"
   xmlns:svg="http://www.w3.org/2000/svg">
  <sodipodi:namedview
     id="namedview5"
     pagecolor="#ffffff"
     bordercolor="#000000"
     borderopacity="0.25"
     inkscape:showpageshadow="2"
     inkscape:pageopacity="0.0"
     inkscape:pagecheckerboard="0"
     inkscape:deskcolor="#d1d1d1"
     inkscape:zoom="1.3772936"
     inkscape:cx="498.07827"
     inkscape:cy="50.461282"
     inkscape:window-width="3440"
     inkscape:window-height="1374"
     inkscape:window-x="0"
     inkscape:window-y="0"
     inkscape:window-maximized="1"
     inkscape:current-layer="g4" />
  <defs
     id="defs2">
    <clipPath
       id="ars-full_svg__a">
      <path
         fill="none"
         d="M0 0h436v144.1H0z"
         id="path1" />
    </clipPath>
    <clipPath
       id="ars-full_svg__b">
      <path
         fill="none"
         d="M0 0h436v144.1H0z"
         id="path2" />
    </clipPath>
  </defs>
  <g
     clip-path="url(#ars-full_svg__a)"
     id="g5">
    <g
       fill="none"
       clip-path="url(#ars-full_svg__b)"
       id="g4"
       style="display:inline">
      <path
         fill="#ff4e00"
         d="m 72,0 c 39.8,0 72.1,32.3 72.1,72.1 0,39.8 -32.3,72.1 -72.1,72.1 C 32.2,144.2 0,111.8 0,72.1 0,32.4 32.3,0 72,0"
         id="path3"
         style="display:inline" />
      <path
         fill="#fff"
         d="m 218.8,83.7 c -4.4,3.7 -8.4,5 -12.8,5 -7.7,0 -12.7,-5.3 -13.5,-14 h 24.8 l 0.9,-5.5 h -25.7 c 0.8,-8.7 5.7,-14.1 12.9,-14.1 7.2,0 8.8,1.7 12.9,5.1 l 1,-5.9 c -4,-2.9 -8.8,-4.4 -13.7,-4.3 -10.7,0 -19.2,7.8 -19.2,21.9 0,14.1 8.3,21.9 18.9,21.9 5.2,0.1 10.2,-1.6 14.3,-4.8 z M 170.1,56.2 v 36.9 h -5.8 V 56.2 H 150.9 V 50.9 H 183 l 0.9,5.3 H 170 Z m 74.5,37.6 c -11.9,0 -19.5,-8.8 -19.5,-21.8 0,-13 7.8,-22 19.6,-22 4.3,-0.1 8.5,1.1 12,3.5 l -0.9,5.9 c -3.2,-2.6 -7.1,-4 -11.2,-4.1 -8.6,0 -13.6,6.5 -13.6,16.6 0,10.1 5.1,16.6 13.6,16.6 4.3,0 8.5,-1.6 11.9,-4.2 l 0.9,5.4 c -3.7,2.6 -8.2,4.1 -12.8,4.1 M 292,93 V 73.5 H 270.6 V 93 h -5.8 V 50.9 h 5.8 V 68.4 H 292 V 50.9 h 5.8 V 93 Z m 42.9,0 -23.2,-32.8 V 93 h -5.3 V 50.9 h 5.1 l 22.4,31.5 V 50.9 h 5.3 V 93 Z m 13.4,-42.1 h 5.8 V 93 h -5.8 z m 32.6,42.9 C 369,93.8 361.4,85 361.4,72 c 0,-13 7.8,-22 19.6,-22 4.3,-0.1 8.5,1.1 12,3.5 l -0.9,5.9 c -3.2,-2.6 -7.1,-4 -11.2,-4.1 -8.6,0 -13.6,6.5 -13.6,16.6 0,10.1 5.1,16.6 13.6,16.6 4.3,0 8.5,-1.6 11.9,-4.2 l 0.9,5.4 c -3.7,2.6 -8.2,4.1 -12.8,4.1 m 32.9,-43.1 h 5.8 l 16.3,41.5 -5.6,1.2 -5,-13.1 H 407.9 L 403.1,93 h -5.8 z m -4,24.6 h 13.5 l -6.8,-17.9 z"
         id="path4"
         style="display:inline;fill:#1a1a1a"
         sodipodi:nodetypes="csccccscccsccccccccccccccsccccsscccccccccccccccccccccccccccccccccsccccsscccccccccccccccc" />
      <path
         fill="#fff"
         d="m 46.5,94 -0.9,-5.9 c -4,4.4 -9.6,6.8 -15.6,6.8 -8,0 -13,-4.8 -13,-12.3 0,-11 9.4,-15.4 27.8,-17.3 v -1.9 c 0,-5.6 -3.3,-7.5 -8.4,-7.5 -5.1,0 -10.5,1.7 -15.3,3.8 L 20,52.6 c 5.3,-2.1 10.3,-3.7 17.1,-3.7 10.7,0 15.9,4.3 15.9,14.2 V 93.9 H 46.3 Z M 44.9,71.6 c -16.3,1.6 -19.7,6 -19.7,10.6 0,4.6 2.4,5.9 6.6,5.9 4.2,0 9.4,-2.4 13.1,-6.2 z m 27.3,-3.7 v 26 H 64 v -44 h 6.6 l 1.4,9 c 3.1,-5 8.2,-9.5 15.5,-9.9 l 1.3,7.9 c -7.4,0.3 -13.6,5.2 -16.6,11 m 37.2,26.9 C 103.8,94.7 98.3,93.2 93.3,90.6 l 1.2,-7.8 c 4.6,3.2 10,5 15.6,5.1 5.6,0 9,-2.1 9,-5.8 0,-3.7 -2.5,-5.6 -10.5,-7.5 C 98.2,72 94.1,68.9 94.1,61 c 0,-7.9 5.9,-12.2 15.6,-12.2 5,0 9.9,1 14.5,3 l -1.3,7.8 c -4.1,-2.4 -8.7,-3.7 -13.4,-3.8 -5,0 -7.6,1.9 -7.6,5.1 0,3.2 2.2,4.6 9.2,6.4 10.9,2.8 15.8,5.9 15.8,14.3 0,8.4 -6.1,13.2 -17.5,13.2"
         id="path5"
         style="display:inline;fill:#ffffff"
         sodipodi:nodetypes="ccsscssccssccccsscccccccccccccccscsscccscsc" />
    </g>
  </g>
</svg>
