<svg id="Layer_1" data-name="Layer 1" xmlns="http://www.w3.org/2000/svg" viewBox="0 0 22 22"><defs><style>.cls-1{fill:none;stroke:#304050;stroke-linecap:round;stroke-linejoin:round;stroke-width:1.5px;}.cls-2{fill:#304050;}</style></defs><path class="cls-1" d="M4.94,5H17.06a.93.93,0,0,1,.94.91v7.18a.93.93,0,0,1-.94.91H4.94A.93.93,0,0,1,4,13.09V5.91A.93.93,0,0,1,4.94,5Z"/><path class="cls-1" d="M7,17h8"/><path class="cls-2" d="M13,15.51a1.58,1.58,0,0,0,.7,1.26L14,17H8l.3-.23A1.58,1.58,0,0,0,9,15.51V14h4Z"/></svg>