<?xml version="1.0" encoding="UTF-8" standalone="no"?>
<svg
   width="613"
   height="145"
   version="1.1"
   id="svg2"
   sodipodi:docname="redhat.svg"
   inkscape:version="1.3.2 (091e20ef0f, 2023-11-25)"
   xmlns:inkscape="http://www.inkscape.org/namespaces/inkscape"
   xmlns:sodipodi="http://sodipodi.sourceforge.net/DTD/sodipodi-0.dtd"
   xmlns="http://www.w3.org/2000/svg"
   xmlns:svg="http://www.w3.org/2000/svg">
  <defs
     id="defs2" />
  <sodipodi:namedview
     id="namedview2"
     pagecolor="#ffffff"
     bordercolor="#000000"
     borderopacity="0.25"
     inkscape:showpageshadow="2"
     inkscape:pageopacity="0.0"
     inkscape:pagecheckerboard="0"
     inkscape:deskcolor="#d1d1d1"
     inkscape:zoom="1.1162316"
     inkscape:cx="294.74169"
     inkscape:cy="65.846547"
     inkscape:window-width="1509"
     inkscape:window-height="1288"
     inkscape:window-x="26"
     inkscape:window-y="23"
     inkscape:window-maximized="0"
     inkscape:current-layer="svg2" />
  <g
     fill="none"
     id="g2">
    <path
       d="M127.47 83.49c12.51 0 30.61-2.58 30.61-17.46a14 14 0 0 0-.31-3.42l-7.45-32.36c-1.72-7.12-3.23-10.35-15.73-16.6C124.89 8.69 103.76.5 97.51.5 91.69.5 90 8 83.06 8c-6.68 0-11.64-5.6-17.89-5.6-6 0-9.91 4.09-12.93 12.5 0 0-8.41 23.72-9.49 27.16a6.43 6.43 0 0 0-.22 1.94c0 9.22 36.3 39.45 84.94 39.45M160 72.07c1.73 8.19 1.73 9.05 1.73 10.13 0 14-15.74 21.77-36.43 21.77-46.76.03-87.72-27.37-87.72-45.48a18.45 18.45 0 0 1 1.51-7.33C22.27 52 .5 55 .5 74.22c0 31.48 74.59 70.28 133.65 70.28 45.28 0 56.7-20.48 56.7-36.65 0-12.72-11-27.16-30.83-35.78"
       fill="#E00"
       id="path1" />
    <path
       d="m 579.74,92.8 c 0,11.89 7.15,17.67 20.19,17.67 4.01483,-0.0999 8.00465,-0.66369 11.89,-1.68 V 95 c -2.48334,0.786988 -5.07501,1.178439 -7.68,1.16 -5.37,0 -7.36,-1.68 -7.36,-6.73 V 68.3 h 15.56 V 54.1 h -15.56 v -18 l -17,3.68 V 54.1 h -11.29 v 14.2 h 11.25 z m -53,0.32 c 0,-3.68 3.69,-5.47 9.26,-5.47 3.4046,0.01979 6.79488,0.442736 10.1,1.26 v 7.15 c -3.25711,1.779027 -6.91911,2.685054 -10.63,2.63 -5.46,0 -8.73,-2.1 -8.73,-5.57 z m 5.2,17.56 c 6,0 10.84,-1.26 15.36,-4.31 v 3.37 h 16.82 V 74.08 c 0,-13.56 -9.14,-21 -24.39,-21 -8.52,0 -16.94,2 -26,6.1 l 6.1,12.52 c 6.52,-2.74 12,-4.42 16.83,-4.42 7,0 10.62,2.73 10.62,8.31 v 2.73 c -4.12129,-1.066825 -8.36291,-1.597869 -12.62,-1.58 -14.31,0 -22.93,6 -22.93,16.73 0,9.78 7.78,17.24 20.19,17.24 z m -92.46,-0.91 h 18.09 V 80.92 h 30.29 v 28.82 H 506 V 36.12 H 487.93 V 64.41 H 457.64 V 36.12 h -18.09 z m -68.86,-27.9 c 0,-8 6.31,-14.1 14.62,-14.1 4.32337,-0.08765 8.52146,1.454504 11.76,4.32 v 19.45 c -3.1691,2.994291 -7.40231,4.599742 -11.76,4.46 -8.2,0 -14.62,-6.1 -14.62,-14.09 z m 26.61,27.91 h 16.83 V 32.44 l -17,3.68 v 20.93 c -4.32762,-2.453412 -9.2255,-3.722721 -14.2,-3.68 -16.19,0 -28.92,12.51 -28.92,28.5 -0.19597,15.797467 12.60155,28.6851 28.4,28.6 5.36475,0.0256 10.59678,-1.66703 14.93,-4.83 z M 320,67 c 5.36,0 9.88,3.47 11.67,8.83 h -23.2 C 310.15,70.3 314.36,67 320,67 Z m -28.67,15 c 0,16.2 13.25,28.82 30.28,28.82 9.36,0 16.2,-2.53 23.25,-8.42 l -11.26,-10 c -2.63,2.74 -6.52,4.21 -11.14,4.21 -5.94687,0.167496 -11.3837,-3.341804 -13.68,-8.83 h 39.65 v -4.23 c 0,-17.67 -11.88,-30.39 -28.08,-30.39 -16.04093,-0.242037 -29.13659,12.767825 -29,28.81 z M 262,51.58 c 6,0 9.36,3.78 9.36,8.31 0,4.53 -3.36,8.31 -9.36,8.31 H 244.11 V 51.58 Z m -36,58.16 h 18.09 V 82.92 h 13.77 l 13.89,26.82 H 292 L 275.8,80.29 c 8.42272,-3.425489 13.91707,-11.627428 13.88,-20.72 0,-13.25 -10.41,-23.45 -26,-23.45 H 226 Z"
       fill="#000000"
       id="path2"
       style="display:inline;fill:#ffffff"
       sodipodi:nodetypes="sccccsccccccccccssccccsccccssccssccscccccccccccccccsccccssccccccccccsccscscccccscccsssccsccccccccscc" />
    <path
       d="m 160,72.07 c 1.73,8.19 1.73,9.05 1.73,10.13 0,14 -15.74,21.77 -36.43,21.77 C 78.54,104 37.58,76.6 37.58,58.49 c -0.0027,-2.520833 0.511201,-5.015479 1.51,-7.33 l 3.66,-9.06 c -0.167647,0.618824 -0.241801,1.25924 -0.22,1.9 0,9.22 36.3,39.45 84.94,39.45 12.51,0 30.61,-2.58 30.61,-17.46 0.0374,-1.148402 -0.0667,-2.297041 -0.31,-3.42 z"
       fill="#000000"
       id="path3"
       style="display:inline"
       sodipodi:nodetypes="cscccccsccc" />
  </g>
</svg>
