<svg xmlns="http://www.w3.org/2000/svg" width="203" height="36"><g fill="#1A98EE" fill-rule="evenodd"><path d="M66.593 5.148h4.589v3.47c.111 1.12-.224 2.127-.784 3.022-.784.895-1.679 1.567-2.798 2.014l-1.007-1.902c.671-.224 1.231-.672 1.678-1.12.336-.335.448-.783.56-1.342h-2.126V5.148h-.112ZM0 9.401h2.015v-3.47l6.939-2.238v5.708h3.581v4.925H8.954V22.16c0 .447.112.895.224 1.342.111.448.447.56 1.007.56.336 0 .783-.112 1.119-.224.448-.112.895-.224 1.231-.448v4.701l-1.007.336c-.448.112-.895.112-1.343.224l-1.231.112h-.896c-1.119 0-2.238-.112-3.246-.56-.783-.336-1.342-.895-1.79-1.567-.448-.784-.672-1.567-.784-2.462-.112-1.007-.112-2.015-.223-3.246v-6.715H0V9.4ZM23.727 23.84c.448 0 .783-.113 1.12-.337.335-.335.67-.671.783-1.007.224-.56.448-1.007.56-1.567.111-.671.223-1.343.111-2.014 0-.672-.111-1.344-.223-2.015a6.474 6.474 0 0 0-.56-1.567c-.224-.447-.448-.783-.896-1.12-.335-.223-.783-.335-1.23-.335-.336 0-.784.112-1.008.336-.336.336-.672.672-.783 1.007-.224.448-.336 1.008-.448 1.567-.112.672-.224 1.231-.224 1.903 0 1.231.224 2.574.783 3.693.336.784 1.12 1.343 2.015 1.455m0 4.813c-1.343 0-2.686-.224-3.917-.56-1.231-.448-2.35-1.007-3.358-1.903-1.007-.895-1.79-1.902-2.35-3.133-.56-1.343-.896-2.91-.896-4.365s.336-2.798.896-4.141c.56-1.12 1.343-2.239 2.35-3.022 1.007-.783 2.127-1.455 3.246-1.903a11.364 11.364 0 0 1 3.805-.671c1.455 0 2.798.223 4.141.671 1.231.448 2.35 1.12 3.358 2.015 1.007.895 1.679 1.902 2.238 3.134.56 1.343.784 2.797.784 4.253 0 1.454-.224 2.797-.784 4.14-.56 1.12-1.23 2.239-2.238 3.022-1.007.784-2.127 1.455-3.246 1.791a12.673 12.673 0 0 1-4.029.672M45.887 28.092H34.695v-4.924h1.567v-8.842h-1.455V9.4h7.051l.784 2.239.671-.672c.336-.335.672-.671 1.008-.895.447-.336.895-.56 1.343-.784a4.497 4.497 0 0 1 1.678-.335c.784 0 1.567.112 2.35.335.56.112 1.12.448 1.568.672.335.224.783.56 1.007.895.224.336.448.56.56.784.671-.672 1.454-1.343 2.238-1.79 1.007-.56 2.126-.896 3.358-.896 1.23-.112 2.574.223 3.693.783.895.448 1.567 1.12 2.126 2.015.448.895.784 1.79.896 2.798.112 1.119.223 2.238.223 3.357v5.149h1.791v5.036H57.64V16.116c0-.335-.112-.67-.224-1.007-.112-.223-.224-.447-.447-.671-.224-.224-.448-.224-.784-.224-.671-.112-1.231.224-1.567.784-.336.671-.448 1.342-.336 2.014v6.044h2.239v5.036h-9.625v-9.513c0-1.12 0-2.239-.224-3.246-.112-.671-.672-1.12-1.343-1.007-.448 0-1.007.112-1.343.56a3.16 3.16 0 0 0-.448 1.678v6.716h2.238v4.812h.112ZM71.293 28.092v-6.715h5.037c0 .447.112.895.448 1.231.335.336.671.56 1.119.784.447.223.895.335 1.343.447.336.112.783.112 1.12.112.335 0 .782-.112 1.118-.224.336-.224.56-.56.56-1.007 0-.336-.224-.672-.784-.896-.671-.223-1.23-.447-1.902-.56-.784-.223-1.68-.447-2.574-.67-.896-.225-1.791-.672-2.575-1.12a5.165 5.165 0 0 1-1.902-1.903c-.56-.895-.784-2.014-.784-3.021 0-.896.224-1.68.672-2.462a5.992 5.992 0 0 1 1.679-1.68c.671-.447 1.342-.783 2.126-1.007.672-.335 1.343-.447 2.015-.447 1.23 0 2.35.335 3.469.895.895.448 1.679 1.12 2.127 2.015L83.94 9.4h4.59v6.716h-4.925a1.89 1.89 0 0 0-.336-1.12 3.395 3.395 0 0 0-.896-.895c-.335-.224-.783-.448-1.23-.672-.448-.111-.896-.223-1.344-.223-.335 0-.783.112-1.007.335-.336.224-.448.672-.448 1.008 0 .448.336.895.784 1.007.671.336 1.343.56 2.014.672l2.575.783c.895.224 1.79.671 2.574 1.12.783.447 1.455 1.118 2.014 1.902.56.783.784 1.79.784 2.798 0 .783-.224 1.567-.56 2.35a4.79 4.79 0 0 1-1.567 1.79c-.671.56-1.455.896-2.238 1.12-.895.224-1.79.336-2.574.336-1.231 0-2.462-.224-3.582-.784a6.167 6.167 0 0 1-2.238-1.902l-.336 2.238-4.7.112ZM107.108 18.579c0 .56.112 1.12.224 1.679.112.56.335 1.007.56 1.454.223.448.447.784.895 1.008.336.224.671.448 1.119.448.783 0 1.455-.448 1.902-1.12.56-1.007.896-2.014.784-3.245 0-.672-.112-1.343-.224-1.903a6.47 6.47 0 0 0-.56-1.567c-.223-.448-.447-.783-.895-1.007a1.89 1.89 0 0 0-1.119-.336c-.783 0-1.567.56-1.903 1.231-.671 1.008-.895 2.127-.783 3.358Zm-5.484 9.737 1.007.671c.448.336 1.007.56 1.567.784.56.223 1.231.447 1.903.671.671.224 1.454.224 2.126.224.672 0 1.455-.112 2.126-.336.448-.224.896-.447 1.344-.895.335-.336.56-.671.671-1.12.112-.447.224-.783.224-1.23v-1.232a1.347 1.347 0 0 1-.56.56c-.224.224-.56.448-.895.672-.448.224-.784.447-1.231.56-.56.111-1.12.223-1.679.223-1.455 0-2.798-.224-4.14-.783-1.12-.448-2.016-1.232-2.799-2.127-.671-.895-1.231-1.902-1.567-3.022-.336-1.119-.56-2.238-.448-3.47 0-1.342.224-2.685.56-3.916.336-1.12 1.007-2.127 1.791-3.022.783-.896 1.79-1.567 2.91-1.903a11.524 11.524 0 0 1 3.917-.671c.783 0 1.567.224 2.35.56.56.223 1.12.559 1.68 1.007l.783-1.12h8.953v4.925h-2.238v11.192c0 1.455-.224 2.91-.671 4.253-.448 1.23-1.232 2.35-2.127 3.245a10.997 10.997 0 0 1-3.694 2.127c-1.679.56-3.357.784-5.148.784a12.9 12.9 0 0 1-2.91-.336c-.783-.224-1.679-.448-2.462-.896-.672-.335-1.343-.671-1.903-1.119l-1.343-1.007 1.903-4.253ZM123.672 9.401h9.066v9.066c0 1.231.112 2.462.448 3.581.223.672.895 1.12 1.566 1.12.672 0 1.231-.336 1.68-.784.447-.56.67-1.343.67-2.014v-5.932h-2.462V9.4h9.737v13.767h1.791v5.036h-7.05l-1.008-2.35-.784.895c-.671.783-1.566 1.343-2.574 1.679a6.336 6.336 0 0 1-2.014.336c-1.231 0-2.463-.112-3.582-.56-.895-.336-1.679-.895-2.35-1.679-.672-.895-1.12-1.79-1.231-2.91a24.458 24.458 0 0 1-.336-4.029v-5.148h-1.567V9.4ZM158.144 28.092h-10.409v-4.924h1.567v-8.954h-1.567V9.401h8.73V23.28h1.791zM166.985 18.579c0 .56.112 1.12.224 1.679.112.56.336 1.007.56 1.454.224.448.448.784.895 1.008.336.224.672.448 1.12.448.783 0 1.454-.448 1.902-1.12.56-1.007.895-2.014.783-3.245 0-.672-.111-1.343-.223-1.903a6.47 6.47 0 0 0-.56-1.567c-.224-.448-.448-.783-.895-1.007a1.89 1.89 0 0 0-1.12-.336c-.783 0-1.566.56-1.902 1.231-.56 1.008-.896 2.127-.784 3.358Zm5.373-13.654h-1.68V0h9.29v23.28h1.79v4.924h-8.729l-.671-1.343c-.224.224-.336.336-.56.448-.336.223-.672.447-1.007.56-.448.223-.896.335-1.343.447-.56.112-1.12.224-1.791.224-1.231 0-2.462-.224-3.582-.784-1.007-.56-2.014-1.23-2.685-2.126-.784-.895-1.344-2.015-1.791-3.134a10.893 10.893 0 0 1-.672-3.805c0-1.343.224-2.686.672-3.917.447-1.12 1.119-2.127 1.903-3.022.783-.784 1.678-1.455 2.797-1.903a8.031 8.031 0 0 1 3.246-.671c1.007 0 2.127.112 3.134.559.56.224 1.119.56 1.679.895V4.925ZM192.84 13.878c-.448 0-1.008.112-1.456.336-.336.224-.671.448-.895.784-.224.335-.336.671-.448 1.007-.112.335-.112.56-.112.895h5.708c0-.336 0-.783-.112-1.12-.112-.335-.224-.67-.448-1.006-.223-.336-.447-.56-.783-.672-.448-.112-.895-.224-1.455-.224Zm9.288 11.64c-1.342 1.12-2.798 2.014-4.476 2.574-1.68.56-3.47.783-5.26.671-1.232 0-2.351-.223-3.47-.56-1.12-.335-2.239-1.006-3.134-1.79-1.007-.895-1.79-1.903-2.35-3.133-.672-1.455-.896-3.023-.896-4.59 0-1.454.224-2.797.784-4.14.447-1.12 1.23-2.239 2.126-3.134a7.352 7.352 0 0 1 3.246-1.903c1.231-.447 2.574-.671 4.03-.671 1.342 0 2.797.224 4.14.671 1.12.448 2.127 1.008 3.022 1.903.784.783 1.455 1.79 1.79 2.798.448 1.12.56 2.35.56 3.581 0 .448 0 1.008-.112 1.455l-.335 1.343h-11.864c.112.336.112.56.224.896.112.336.336.671.56 1.007.335.336.671.672 1.119.784.56.223 1.231.335 1.902.335h1.12c.447 0 .895-.112 1.23-.224a7.76 7.76 0 0 0 1.456-.56c.56-.223 1.007-.559 1.455-1.006l3.133 3.693Z"/></g></svg>