<svg id="Layer_1" data-name="Layer 1" xmlns="http://www.w3.org/2000/svg" viewBox="0 0 60 60"><defs><style>.cls-1{fill:#489c6d;}.cls-2,.cls-3{fill:#7d818e;}.cls-2{opacity:0.7;}.cls-3{opacity:0.5;}.cls-4{fill:none;stroke:#7d818e;stroke-linecap:round;stroke-miterlimit:10;stroke-width:2px;stroke-dasharray:1 4;}</style></defs><path class="cls-1" d="M30,3h0a2,2,0,0,1,2,2V55a2,2,0,0,1-2,2h0a2,2,0,0,1-2-2V5A2,2,0,0,1,30,3Z"/><path class="cls-2" d="M10.05,13.71h10c.55,0,1,.34,1,.75V47c0,.41-.45.75-1,.75h-10c-.55,0-1-.34-1-.75V14.46C9.05,14.05,9.5,13.71,10.05,13.71Z"/><path class="cls-3" d="M39.72,13.71H50.38a.62.62,0,0,1,.67.5v19a.62.62,0,0,1-.67.51H39.72a.62.62,0,0,1-.67-.51v-19A.62.62,0,0,1,39.72,13.71Z"/><path class="cls-4" d="M10.05,13.71h10c.55,0,1,.34,1,.75V47c0,.41-.45.75-1,.75h-10c-.55,0-1-.34-1-.75V14.46C9.05,14.05,9.5,13.71,10.05,13.71Z"/><path class="cls-4" d="M39.72,13.71H50.38a.62.62,0,0,1,.67.5v19a.62.62,0,0,1-.67.51H39.72a.62.62,0,0,1-.67-.51v-19A.62.62,0,0,1,39.72,13.71Z"/></svg>