<svg id="Layer_1" data-name="Layer 1" xmlns="http://www.w3.org/2000/svg" viewBox="0 0 60 60"><defs><style>.cls-1,.cls-2{fill:#7d818e;}.cls-1{opacity:0.7;}.cls-2{opacity:0.5;}.cls-3{fill:none;stroke:#7d818e;stroke-linecap:round;stroke-miterlimit:10;stroke-width:2px;stroke-dasharray:1 4;}</style></defs><path class="cls-1" d="M16,14H26c.55,0,1,.27,1,.59V45.41c0,.32-.45.59-1,.59H16c-.55,0-1-.27-1-.59V14.59C15,14.27,15.45,14,16,14Z"/><path class="cls-2" d="M33.67,14H44.33a.6.6,0,0,1,.67.43V36.18a.6.6,0,0,1-.67.43H33.67a.6.6,0,0,1-.67-.43V14.43A.6.6,0,0,1,33.67,14Z"/><path class="cls-3" d="M16,14H26c.55,0,1,.27,1,.59V45.41c0,.32-.45.59-1,.59H16c-.55,0-1-.27-1-.59V14.59C15,14.27,15.45,14,16,14Z"/><path class="cls-3" d="M33.67,14H44.33a.6.6,0,0,1,.67.43V36.18a.6.6,0,0,1-.67.43H33.67a.6.6,0,0,1-.67-.43V14.43A.6.6,0,0,1,33.67,14Z"/></svg>