<svg id="Layer_1" data-name="Layer 1" xmlns="http://www.w3.org/2000/svg" viewBox="0 0 60 60"><defs><style>.cls-1{fill:#7d818e;opacity:0.1;}.cls-2,.cls-3{fill:#72a5d8;}.cls-2{opacity:0.7;}</style></defs><path class="cls-1" d="M55.65,58.5H4.35c-1.62,0-2.85-1.24-2.85-1.9V5.3c0-2.56,1.23-3.8,2.85-3.8h51.3c1.62,0,2.85,1.24,2.85,3.8V56.6C58.5,57.17,57.27,58.5,55.65,58.5Z"/><path class="cls-2" d="M18.2,16h8.3c.5,0,.8.3.8.6V43.5c0,.3-.4.6-.8.6H18.2c-.5,0-.8-.3-.8-.6V16.6C17.3,16.2,17.7,16,18.2,16Z"/><path class="cls-3" d="M33.2,16h8.9a.56.56,0,0,1,.6.4V33.7c0,.2-.3.4-.6.4H33.2a.56.56,0,0,1-.6-.4V16.4C32.7,16.1,33,15.9,33.2,16Z"/></svg>