<svg id="Layer_1" data-name="Layer 1" xmlns="http://www.w3.org/2000/svg" viewBox="0 0 60 60"><defs><style>.cls-1,.cls-2{fill:#7d818e;}.cls-1{opacity:0.1;}.cls-3,.cls-4{fill:#72a5d8;}.cls-3{opacity:0.7;}</style></defs><path class="cls-1" d="M55.65,58.5H4.35c-1.61,0-2.85-1.24-2.85-1.9V5.3c0-2.56,1.24-3.8,2.85-3.8h51.3c1.61,0,2.85,1.24,2.85,3.8V56.6C58.5,57.17,57.26,58.5,55.65,58.5Z"/><rect class="cls-2" x="27.34" y="36" width="5.26" height="4"/><path class="cls-2" d="M9.5,36A1.54,1.54,0,0,0,8,37.5v1A1.54,1.54,0,0,0,9.5,40h7.86V36Z"/><path class="cls-2" d="M50.5,36H42.7v4h7.8A1.54,1.54,0,0,0,52,38.5v-1A1.54,1.54,0,0,0,50.5,36Z"/><path class="cls-3" d="M18.16,16.05h8.38c.5,0,.8.3.8.6v26.8c0,.3-.4.6-.8.6H18.16c-.5,0-.8-.3-.8-.6V16.65C17.26,16.25,17.66,16.05,18.16,16.05Z"/><path class="cls-4" d="M33.2,26h8.9a.56.56,0,0,1,.6.4V43.7c0,.2-.3.4-.6.4H33.2a.56.56,0,0,1-.6-.4V26.4C32.7,26.1,33,25.9,33.2,26Z"/></svg>